<svg xmlns="http://www.w3.org/2000/svg" viewBox="0 0 520 72" xml:space="preserve"><path fill="none" d="M0 0h520v72H0z"/><path d="M140.32 43.33 117.05 5.71V1.78h11.59l17.68 30.44 18.27-30.44h10.8v3.93l-23.28 37.12v27.69h-11.78V43.33M461.82 66.6l21.51-31.62-19.84-29.27V1.78h11.98l15.22 23.96L506.6 1.78h11.29v3.93l-20.03 29.17 21.7 31.72v3.93h-11.98L490.4 44.41l-17.29 26.12h-11.29V66.6M0 1.78h11.78v29.17h28.48V1.78h11.78v68.74H40.26V41.26H11.78v29.26H0V1.78M392.89 47.84V24.47c0-7.36-5.01-13.36-15.22-13.36s-15.22 5.99-15.22 13.36v23.37c0 7.37 5.01 13.36 15.22 13.36s15.22-5.99 15.22-13.36zm-42.23-.59V25.06c0-15.61 10.51-24.75 27.01-24.75s27.01 9.13 27.01 24.75v22.19c0 15.62-10.51 24.75-27.01 24.75s-27.01-9.13-27.01-24.75M265.62 34.09c6.88 0 10.9-3.34 10.9-11s-4.03-11-10.9-11h-15.61v22h15.61zm-27.4-32.31h29.56c13.55 0 20.72 7.96 20.72 21.11 0 8.94-3.93 16.4-12.08 19.84l12.86 23.86v3.93H277.7L263.56 44.1h-13.55v26.42h-11.79V1.78"/></svg>