<svg xmlns="http://www.w3.org/2000/svg" viewBox="0 0 614.5 68" xml:space="preserve"><path d="M20.23.1C5.03.1 0 11.98 0 18c0 16.82 14.81 18.67 17.51 19.45 10.78 3.25 17.51 3.03 17.51 11.87 0 5.39-4.51 9.53-9.73 9.53-8.81 0-14.49-6.02-15.56-14.59H.58v22.18h9.34v-4.09c4.66 3.88 10.33 5.64 16.34 5.64 11.87 0 20.43-8.09 20.43-20.23 0-14.03-8.51-17.24-17.31-19.84-8.82-2.59-17.7-3.9-17.7-10.12 0-5.56 3.85-8.75 9.14-8.75 3.6 0 6.5 1.36 8.75 3.5 2.15 2.07 3.76 4.94 4.47 8.36h8.95V1.46h-9.53v4.09C29.94 2.21 25.27.1 20.23.1zm64.59 0C69.27.1 51.94 10.71 51.94 33.56c0 19.41 14.37 34.43 33.07 34.43 14.12 0 25.4-7.61 29.18-23.15h-10.7c-3.6 7.18-8.76 12.26-18.48 12.26-13.76 0-21.4-10.72-21.4-23.15 0-12.5 7.83-23.15 21.4-23.15 3.69 0 7.45 1.25 10.51 3.31 3.06 2 5.52 4.7 6.42 8.36h9.34V1.46h-9.34v4.28C96.71.81 86.88.1 84.82.1zm35.99 1.36v8.95h7v47.27h-7v8.76h25.68v-8.76h-7V37.06h23.15v20.62h-6.81v8.76h25.48v-8.76h-7V10.41h7V1.46h-25.48v8.95h6.81v16.34h-23.15V10.41h7V1.46h-25.68zm82.28 0v8.95h7.2l-16.15 47.27h-5.45v8.76h23.34v-8.76h-7l4.48-12.65h19.65l4.47 12.65h-7.2v8.76h23.93v-8.76h-4.86l-15.76-47.27h7V1.46h-33.65zm56.81 0v8.95h7v47.27h-7v8.76h49.99V46.98h-10.31v10.7h-21.01V37.06h18.09V26.75h-18.09V10.41h21.01v8.36h10.31V1.46H259.9zm62.06 0v8.95h7v47.27h-7v8.76h26.26v-8.76h-7.59V37.06h19.45V26.75h-19.45V10.41h21.79v8.36h10.31V1.46h-50.77zm58.55 0v8.95h7v47.27h-7v8.76h26.26v-8.76h-7.59V37.06h19.45V26.75h-19.45V10.41h21.79v8.36h10.31V1.46h-50.77zm60.89 0v8.95h7.39v47.27h-7.39v8.76h44.74V47.18h-10.31v10.51h-15.37V10.41h7.98V1.46H441.4zm51.36 0v8.95h6.81v47.27h-6.81v8.76h49.99V46.98h-10.31v10.7h-21.2V37.06h18.09V26.75h-18.09V10.41h21.2v8.36h10.31V1.46h-49.99zm60.3 0v8.95h7v47.27h-7v8.76h25.87v-8.76h-7.2V37.06h7c4.78 0 11.28.51 11.28 6.61v22.76h18.09v-8.76h-6.42V42.9c0-3.95-.61-8.52-7.98-10.31v-.2c6.82-2.87 10.11-7.03 10.11-14.59 0-.99.25-5.18-2.72-8.95-6.1-8.12-15.61-7.39-20.04-7.39h-27.99zm18.68 8.95h6.22c6.1 0 14.4-.02 14.4 7.98 0 8.74-6.57 9.73-13.03 9.73h-7.59V10.41zM219.43 14.3h.2l7.2 21.79h-14.79l7.39-21.79z"/></svg>