<svg xmlns="http://www.w3.org/2000/svg" viewBox="0 0 89 22" xml:space="preserve"><path d="M.26 15.79c-.01-1.4-.14-3.03-.26-4.27a.51.51 0 0 1 .43-.56h.02c.26-.04.51.12.58.38.15.63.4 1.22.74 1.77.31.48 1.39 2.15 3.65 2.15 1.65 0 2.86-1.17 2.86-2.64 0-1.36-1.1-1.91-3.26-2.73-.62-.25-1.28-.5-1.92-.78C2.22 8.69.15 7.72.15 5.04.15 2.05 2.55.29 5.6.29c.74 0 1.8.1 2.86.59.24.11.51.02.65-.19l.18-.28a.49.49 0 0 1 .42-.24c.28-.01.51.2.53.48.1 1.25.24 2.5.42 3.74.11.26-.02.57-.28.68s-.58-.02-.68-.28a.737.737 0 0 1-.04-.14c-.28-.73-.43-1.07-.73-1.52-.73-.99-1.7-1.67-2.91-1.67-1.56 0-2.48 1.27-2.48 2.31 0 1.19 1.06 1.69 1.52 1.91.94.46 1.93.77 2.92 1.16 1.58.62 3.76 1.56 3.76 4.47 0 2.86-2.29 5.25-5.91 5.25-1.8 0-2.98-.57-3.66-1a.516.516 0 0 0-.71.16s0 .01-.01.01l-.19.32a.56.56 0 0 1-.4.25H.82a.514.514 0 0 1-.55-.47c-.01-.01-.01-.02-.01-.04m11.96-.12c0-.22.16-.4.37-.44.33-.06.73-.2.8-.62.07-.51.07-1.83.07-2.16 0-.77-.02-2.02-.02-2.79 0-1.1-.37-1.41-.89-1.55a.45.45 0 0 1-.32-.43v-.06c0-.22.16-.4.37-.44 1.1-.19 2.75-.66 3.62-.96.23-.08.49.04.57.28v.01c.02.06.03.11.05.17.07.24.32.37.55.31.04-.01.07-.03.11-.05.83-.48 1.62-.84 2.78-.84.84 0 1.67.22 2.35.7 1.07.74 1.25 1.88 1.34 3.08v1.93c0 .33-.04 2.05-.04 2.42 0 .56.15.9.88 1.03.21.04.36.23.35.44 0 .25-.2.45-.45.45h-.03c-.62-.04-1.56-.07-3.11-.07-.87 0-1.35.02-1.8.06a.456.456 0 0 1-.49-.41v-.13c0-.2.14-.38.33-.43.64-.17.72-.48.7-1.82l-.04-3.43c-.02-1.06-.07-2.27-1.5-2.27-.59 0-1.06.22-1.5.55-.12.09-.19.23-.18.37.03 1.1.03 4.23.03 5.21 0 1.01.17 1.29.71 1.43.19.05.32.23.32.43v.06c0 .25-.2.45-.45.45h-.03c-.75-.05-1.71-.08-3.51-.08-.69 0-1.09.02-1.47.06a.455.455 0 0 1-.49-.4v-.04c.02 0 .02-.02.02-.02zm19.16-3.66c0-.25-.2-.45-.45-.44-.04 0-.07.01-.11.01-.74.19-1.73.62-1.73 1.78 0 .59.31 1.25 1.14 1.25.43 0 .68-.13.95-.31.12-.08.2-.22.2-.37v-1.92zm5.08 2.54c.19.15.22.44.07.63l-.03.03c-1.06 1.07-2.1 1.29-2.68 1.29-.59-.01-1.17-.2-1.65-.55-.15-.12-.29-.26-.41-.42a.43.43 0 0 0-.59-.1c-.6.39-1.85 1.09-3.24 1.09-2.02 0-2.51-1.36-2.51-2.18 0-2.51 3.87-3.56 5.62-3.88.21-.04.36-.22.36-.44 0-.68 0-1.48-.09-1.76-.26-.76-1.14-.76-1.25-.76-.73 0-1.12.44-1.25.92-.07.29-.07.59-.13.88-.18.75-.79 1.03-1.34 1.03-.68 0-1.32-.44-1.32-1.25 0-1.63 3.01-2.95 5.74-2.95 1.89 0 3.28.62 3.28 2.44l-.04 4.9c-.02.37-.04 1.23.53 1.23.14 0 .28-.07.4-.17.15-.11.37-.11.53.02zm6.19.45c1.63 0 2.22-2.27 2.22-3.76 0-1.58-.66-3.69-2.29-3.69-1.47 0-1.47 1.52-1.47 1.98 0 .51.02 2.97.02 3.52 0 .7 0 1.95 1.52 1.95zm-5.17-5.21c.04-1.68-.2-2.08-.95-2.28a.409.409 0 0 1-.3-.41v-.12c0-.21.16-.39.37-.42 1.49-.16 3.06-.56 3.83-.77.22-.06.45.07.51.29 0 .01 0 .02.01.03.02.1.05.23.07.38a.421.421 0 0 0 .64.28c.86-.55 1.71-.84 2.79-.84 2.66 0 4.31 2.29 4.31 4.71 0 3.32-2.35 5.63-5.1 5.63-.84 0-1.46-.22-1.88-.44a.417.417 0 0 0-.62.37v2.54c0 .85.05 1.51.96 1.66.2.04.34.21.33.41 0 .23-.19.42-.42.42h-.01c-1.09-.03-2.17-.05-3.26-.06-.83 0-1.36.01-2.07.05a.423.423 0 0 1-.44-.4v-.08c0-.2.14-.39.34-.42.82-.14.89-.59.89-1.22.02-.42.02-1.72.02-2.2l-.02-7.11zm22.79 6.36c-.89-.07-1.48-.07-3.82-.07-1.28 0-1.79.01-2.54.07a.51.51 0 0 1-.53-.48c-.01-.25.17-.48.42-.52 1.23-.17 1.29-.62 1.29-3.4v-7c-.02-1.67-.04-2.18-.2-2.48-.17-.39-.43-.48-1.1-.59a.503.503 0 0 1-.42-.49c0-.31.23-.53.51-.52 1.24.03 2.47.05 3.71.05 1.24 0 2.03-.03 2.72-.05.28-.02.52.18.54.46s-.18.52-.46.54c-1.3.16-1.3.56-1.3 3.47l.02 6.82c.04 2.31.07 2.44.33 2.79.19.22.48.34.94.4.25.04.43.25.43.49.01.28-.22.51-.49.51h-.05zm.7-.48c0-.22.16-.4.37-.44.33-.06.73-.2.79-.62.07-.51.07-1.83.07-2.16 0-.77-.02-2.02-.02-2.79 0-1.1-.37-1.41-.89-1.55a.45.45 0 0 1-.32-.43v-.06c0-.22.16-.4.37-.44 1.1-.19 2.75-.66 3.62-.96.23-.08.49.04.57.28v.01c.02.06.04.11.05.17.07.24.32.37.55.31.04-.01.07-.03.11-.05.83-.48 1.62-.84 2.78-.84.83 0 1.67.22 2.35.7 1.07.74 1.25 1.88 1.34 3.08v1.93c0 .33-.04 2.05-.04 2.42 0 .56.15.9.88 1.03.21.04.36.23.35.44 0 .25-.2.45-.44.45h-.03c-.62-.04-1.56-.07-3.11-.07-.87 0-1.35.02-1.8.06a.456.456 0 0 1-.49-.41v-.13c0-.2.14-.38.33-.43.64-.17.72-.48.7-1.82l-.04-3.43c-.02-1.06-.07-2.27-1.5-2.27-.6 0-1.06.22-1.5.55-.12.09-.19.23-.18.37.04 1.1.04 4.23.04 5.21 0 1.01.17 1.29.71 1.43.19.05.32.23.32.43v.06c0 .25-.2.45-.45.45h-.03c-.75-.05-1.71-.08-3.51-.08-.69 0-1.09.02-1.47.06a.455.455 0 0 1-.49-.4v-.04c.01 0 .01-.02.01-.02zm22.88-1.92c.28.2.31.6.07.84a6.544 6.544 0 0 1-4.56 1.9c-3.14 0-5.45-2.18-5.45-5.17 0-3.14 2.68-5.17 5.96-5.17 2.15 0 4.2.95 4.2 2.53 0 .75-.64 1.39-1.39 1.39-.33 0-.73-.15-.97-.4-.2-.18-.24-.29-.66-1.23-.2-.42-.64-1.17-1.32-1.17-1.28 0-1.63 2.18-1.63 3.26 0 2.48 1.41 4.16 2.95 4.16.82 0 1.5-.38 2.1-.9.2-.17.49-.19.7-.04m3.03-1.21c1.08 0 2 .86 2 2 0 1.12-.92 1.98-1.98 1.98-1.08.01-1.97-.86-1.98-1.94.01-1.36 1.06-2.04 1.96-2.04" fill-rule="evenodd" clip-rule="evenodd"/></svg>