<?xml version="1.0" encoding="UTF-8"?><svg xmlns="http://www.w3.org/2000/svg" xmlns:xlink="http://www.w3.org/1999/xlink" version="1.1" id="Ebene_1" x="0px" y="0px" viewBox="0 0 73.2 16" style="enable-background:new 0 0 73.2 16;" xml:space="preserve"><g><g><path d="M71.8,0.6c0.2,0,0.3,0,0.4,0.1c0.2,0.1,0.2,0.2,0.2,0.4c0,0.1-0.1,0.2-0.2,0.3c-0.1,0-0.1,0.1-0.2,0.1 c0.1,0,0.2,0.1,0.3,0.2c0.1,0.1,0.1,0.2,0.1,0.2V2c0,0,0,0.1,0,0.1c0,0,0,0.1,0,0.1l0,0h-0.3c0,0,0,0,0,0c0,0,0,0,0,0l0-0.1V2 c0-0.2,0-0.3-0.1-0.4c-0.1,0-0.2,0-0.3,0h-0.2v0.6h-0.3V0.6H71.8L71.8,0.6z M72,0.9c-0.1,0-0.2-0.1-0.3-0.1h-0.2v0.6h0.2 c0.1,0,0.2,0,0.3,0c0.1,0,0.2-0.1,0.2-0.2C72.2,1,72.1,0.9,72,0.9L72,0.9z M72.8,2.4c-0.3,0.3-0.6,0.4-1,0.4c-0.4,0-0.7-0.1-1-0.4 c-0.3-0.3-0.4-0.6-0.4-1c0-0.4,0.1-0.7,0.4-1c0.3-0.3,0.6-0.4,1-0.4c0.4,0,0.7,0.1,1,0.4c0.3,0.3,0.4,0.6,0.4,1 C73.2,1.8,73.1,2.1,72.8,2.4L72.8,2.4z M70.9,0.5c-0.2,0.2-0.4,0.5-0.4,0.9c0,0.3,0.1,0.6,0.4,0.9c0.2,0.2,0.5,0.4,0.9,0.4 c0.3,0,0.6-0.1,0.9-0.4C72.9,2,73,1.8,73,1.4c0-0.3-0.1-0.6-0.4-0.9c-0.2-0.2-0.5-0.4-0.9-0.4C71.4,0.2,71.2,0.3,70.9,0.5 L70.9,0.5z"/></g><polygon points="20.7,0.1 28.1,0.1 28.1,2 25.5,2 25.5,15.9 23.3,15.9 23.3,2 20.7,2 20.7,0.1 "/><polygon points="31.3,0.1 33.4,0.1 33.4,13.9 38.8,13.9 38.8,15.9 31.3,15.9 31.3,0.1 "/><path d="M5,7.4C6.4,7,6.9,5.5,6.9,4.3c0-2.8-1.3-4.2-4.1-4.2H0v15.8h3.5c2.2,0,3.9-1.8,3.9-4.3C7.3,9.4,6.4,7.8,5,7.4z M2,1.8 c0,0,1.4,0,1.4,0c0.3,0,1.6,1,1.6,2.4c0,1.1-0.9,2.3-1.6,2.3L2,6.6V1.8z M3.3,14.1H2V8.3h1.3c0.4,0,1.9,0.9,1.9,3.2 C5.2,13.4,3.8,14.1,3.3,14.1z"/><polygon points="42,0.1 49.4,0.1 49.4,1.9 44,1.9 44,6.6 49.4,6.6 49.4,8.5 44,8.5 44,14 49.4,14 49.4,15.9 42,15.9 42,0.1 "/><path d="M70.2,3.3l-2,0.8c0-1-0.6-2.2-1.5-2.2c-1.3,0-2.3,1.9-0.6,3.7c1,1.1,2.9,2.8,3.6,3.8c0.6,0.9,0.7,1.7,0.7,2.6 c0,2.3-1.7,4-3.7,4c-1.2,0-3.8-0.7-3.8-3.7l2-0.5c0,1.5,0.9,2.3,1.8,2.3c0.9,0,1.5-0.9,1.5-2.1c0-1.8-3.7-4.5-4.3-5.6 C63.6,5.8,63,4.8,63,3.7C63,1.4,65,0,66.7,0C69.5,0,70.1,2.5,70.2,3.3L70.2,3.3z"/><path d="M57.7,8.2c1.7-0.4,2.4-1.9,2.4-3.7c0-2.3-1.1-4.4-4-4.4l-3.5,0v15.8h1.9V8.5l1,0l2.8,7.4h2.4L57.7,8.2z M55.6,6.8l-1.1,0 V1.9l1.1,0c1.9,0,2.5,1.3,2.5,2.6C58.1,6.3,57,6.8,55.6,6.8z"/><path d="M13.8,16c-2.8,0-3.7-2-3.7-4.8V0.1h2v11.1c0,1.3,0.4,2.8,1.7,2.8c1.3,0,1.7-1.5,1.7-2.8V0.1h2v11.1 C17.5,14,16.6,16,13.8,16L13.8,16z"/><path d="M13.8,16c-2.8,0-3.7-2-3.7-4.8V0.1h2v11.1c0,1.3,0.4,2.8,1.7,2.8c1.3,0,1.7-1.5,1.7-2.8V0.1h2v11.1 C17.5,14,16.6,16,13.8,16L13.8,16z"/><path d="M70.2,3.3l-2,0.8c0-1-0.6-2.2-1.5-2.2c-1.3,0-2.3,1.9-0.6,3.7c1,1.1,2.9,2.8,3.6,3.8c0.6,0.9,0.7,1.7,0.7,2.6 c0,2.3-1.7,4-3.7,4c-1.2,0-3.8-0.7-3.8-3.7l2-0.5c0,1.5,0.9,2.3,1.8,2.3c0.9,0,1.5-0.9,1.5-2.1c0-1.8-3.7-4.5-4.3-5.6 C63.6,5.8,63,4.8,63,3.7C63,1.4,65,0,66.7,0C69.5,0,70.1,2.5,70.2,3.3L70.2,3.3z"/><polygon points="31.3,0.1 33.4,0.1 33.4,13.9 38.8,13.9 38.8,15.9 31.3,15.9 31.3,0.1 "/><polygon points="20.7,0.1 28.1,0.1 28.1,2 25.5,2 25.5,15.9 23.3,15.9 23.3,2 20.7,2 20.7,0.1 "/></g></svg>