<svg xmlns="http://www.w3.org/2000/svg" class="brand" width="120" height="38" viewBox="0 0 120 38"><g class="brand__wrapper" fill="currentColor" fill-rule="evenodd"><path class="brand__border" d="M31.56.5H10.5L0 19l10.501 18.5H31.56L42.061 19 31.56.5Zm-1.205 2.024L39.708 19l-9.353 16.476h-18.65L2.353 19l9.352-16.475h18.65Z" fill-rule="nonzero"/><path class="brand__arrow" fill="rgb(186,33,53)" d="M19.493 3.905h9.605l-8.59 14.335h-9.604l8.59-14.335Zm1.016 15.14h-9.605l8.59 14.337h9.604l-8.59-14.336Z"/><path class="brand__text" d="M51.04 26.81V10.131h12.142v4.114h-7.093v2.68h5.672v3.999h-5.672v5.884H51.04Zm13.957 0V10.131h5.123v16.677h-5.123Zm9.072 0V10.131h12.7v3.931h-7.75v2.344h6.574v3.78h-6.574v2.621h8.06v4.001H74.07Zm29.97-10.954h-4.843c-.186-.659-.502-1.165-.947-1.518-.446-.352-.98-.528-1.604-.53-.875 0-1.607.38-2.195 1.139-.581.759-.873 1.965-.873 3.62 0 1.616.292 2.793.873 3.528.581.73 1.335 1.092 2.26 1.092.724 0 1.343-.203 1.85-.61.516-.405.822-.856.915-1.355h-2.25v-3.598h7.019v9.184h-3.316l-.203-1.633c-.417.506-.775.87-1.077 1.092-.388.29-.875.529-1.463.712-.59.183-1.27.277-2.045.277-1.442 0-2.738-.315-3.885-.944-1.142-.635-2.056-1.628-2.746-2.976-.689-1.35-1.033-2.92-1.033-4.712 0-1.395.212-2.685.635-3.874a7.575 7.575 0 0 1 1.594-2.608c.71-.774 1.51-1.356 2.398-1.747 1.107-.475 2.315-.712 3.628-.713 1.465 0 2.744.31 3.843.931 1.104.62 1.958 1.463 2.562 2.529.422.729.722 1.634.903 2.714Zm2.951 10.953V10.132h12.699v3.931h-7.748v2.344h6.575v3.78h-6.575v2.621H120v4.001h-13.01Z" fill-rule="nonzero"/></g></svg>