<svg xmlns="http://www.w3.org/2000/svg" viewBox="0 0 615 768" xml:space="preserve"><path d="M37.78 750.61h25.87v-88.1h18.51v-25.85h-62.9v25.85h18.51v88.1zm88.1 0h25.85v-45.17h16.44v45.17h25.85V636.65h-25.85v43.88h-16.44v-43.88h-25.85v113.96zm142.52-49.15 6.71-47.57h.32l5.89 47.57H268.4zm18.67 49.15h26.17l-18.51-113.95h-38.78L236.8 750.61h26.17l4-25.22h15.8l4.3 25.22zm68.94 0h47.56v-24.9h-21.71v-89.05h-25.85v113.95zm93.37 0h25.85V636.65h-25.85v113.96zm100.71-49.15 6.7-47.57h.32l5.91 47.57h-12.93zm18.67 49.15h26.17l-18.51-113.95h-38.79l-19.14 113.95h26.17l3.98-25.22h15.8l4.32 25.22M393.49 535.73l-85.96-277.45-85.23 277.64h-83.36l87.04-277.64H17.6v-66.47h579.8v66.47H389.09l87.52 277.45h-83.12M307.16 17.39 291.23 64.8l-47.82 1.3 37.97 30.58-13.63 48.22 39.4-28.51 39.4 28.51-13.61-48.22L370.9 66.1l-47.81-1.3-15.93-47.41" fill="#1a171b"/></svg>