<?xml version="1.0" encoding="UTF-8"?><svg xmlns="http://www.w3.org/2000/svg" xmlns:xlink="http://www.w3.org/1999/xlink" width="168px" height="40px" viewBox="0 0 168 40" version="1.1"><title>desktop/logo</title><defs><linearGradient x1="25.2717992%" y1="50%" x2="4.16866421%" y2="50%" id="linearGradient-1"><stop stop-color="#3AD29F" offset="0%"/><stop stop-color="#2E4C68" offset="100%"/></linearGradient></defs><g id="desktop/logo" stroke="none" stroke-width="1" fill="none" fill-rule="evenodd"><g id="Element-1" fill-rule="nonzero"><path d="M11.4388298,30.9974125 C9.37532675,31.0360804 7.32984714,30.6408945 5.46156512,29.8426072 C3.79016263,29.0953214 2.40109382,27.912033 1.4714018,26.4435575 C0.463752875,24.7928489 -0.0430505481,22.9278197 0.00302169874,21.0399401 C-0.0444770518,19.1754199 0.468791081,17.3345363 1.48736245,15.7162149 C2.45355949,14.2125896 3.87849,12.9964916 5.58925035,12.2154842 C7.43854362,11.3836681 9.48010523,10.9677277 11.542574,11.0025755 C13.6233128,10.9634065 15.6848605,11.3714974 17.5597403,12.1936954 C19.2342735,12.9674426 20.6218727,14.1722106 21.5499036,15.6581114 C22.5557661,17.3217579 23.0544738,19.1999513 22.9943428,21.0980435 C23.0595809,22.9458853 22.5595098,24.7738952 21.5499036,26.3781912 C20.5702963,27.8565265 19.1434339,29.0466934 17.4400354,29.8062925 C15.5700871,30.6265175 13.5142284,31.0345646 11.4388298,30.9974125 Z M16.0434783,21.0980435 C16.1100566,19.794347 15.6754951,18.5102689 14.8145079,17.4665802 C14.044212,16.5484218 12.8352828,16.0239777 11.566515,16.0575724 C10.2794463,16.0100266 9.04109288,16.50914 8.21477781,17.4084768 C7.32789373,18.440674 6.88524285,19.7318865 6.96984686,21.0399401 C6.89919825,22.3272878 7.33176392,23.5958114 8.19083683,24.6205629 C8.99665173,25.5154472 10.21634,26.0153698 11.4867117,25.9714673 C12.7559745,26.0130249 13.9762564,25.5232978 14.7985473,24.6423517 C15.6749692,23.6388183 16.1177686,22.3781722 16.0434783,21.0980435 L16.0434783,21.0980435 Z" id="Shape" fill="#2E4C68"/><path d="M47,21.050089 C47,24.2551064 46.0695297,26.7645563 44.208589,28.5784389 C42.3476483,30.3923214 39.8067485,31.2992626 36.5858896,31.2992626 C35.7756066,31.2915911 34.9713129,31.1647745 34.2009202,30.9232138 C34.026998,30.8604557 33.8321415,30.8835186 33.6792407,30.9849589 C33.52634,31.0863991 33.4347566,31.2533716 33.4340491,31.4319858 L33.4340491,39.461734 C33.4298539,39.7601989 33.177007,40 32.8665644,40 L27.5674847,40 C27.2570421,40 27.0041952,39.7601989 27,39.461734 L27,12.179761 C27,11.8784126 27.2540715,11.6341215 27.5674847,11.6341215 L30.0138037,11.6341215 C30.1736905,11.6349848 30.3261873,11.6989672 30.4355828,11.8110857 L31.3788344,12.8286295 C32.9456992,11.6680684 34.8612781,11.026529 36.8389571,11 C39.952454,11 42.4243354,11.8725316 44.2546012,13.6175947 C46.0848671,15.3626579 47,17.8401559 47,21.050089 Z M40.351227,21.0869565 C40.4303362,19.7570362 40.0353892,18.4409385 39.2315951,17.3559624 C38.4914259,16.4615447 37.3519026,15.9602814 36.1641104,16.0066107 C35.3029833,16.0301161 34.4660144,16.2855923 33.7484663,16.7439614 C33.578978,16.8449925 33.4770806,17.0241465 33.4799977,17.2158658 L33.4799977,25.171879 C33.4799977,25.3763172 33.5942138,25.5650123 33.7791411,25.6659039 C34.5539176,26.0976559 35.4298542,26.3335783 36.3251534,26.35164 C37.4976055,26.3657407 38.5986883,25.8114492 39.2546012,24.8769387 C40.0362265,23.7606297 40.4209522,22.4310022 40.351227,21.0869565 Z" id="Shape" fill="#2E4C68"/><path d="M58.9698526,9.71352495 L62.1948112,9.71352495 C62.4129066,9.71178787 62.6022815,9.87057861 62.6485392,10.0939756 L63.4861908,13.9204307 C63.5180008,14.0655661 63.4851407,14.217988 63.3968827,14.334687 C63.3086247,14.451386 63.1745397,14.5197072 63.0324628,14.5203721 L58.9698526,14.5203721 C58.7115552,14.5203721 58.5021637,14.7398403 58.5021637,15.0105681 L58.5021637,20.9075525 C58.4641692,21.6954663 58.6914688,22.4723301 59.1443633,23.1024599 C59.5732858,23.6487333 60.2220769,23.9521657 60.8964512,23.921892 C61.5957764,23.9157131 62.2858385,23.7536007 62.9207759,23.4463287 C63.1023236,23.3558492 63.3187269,23.3970888 63.4582691,23.5487578 L65.8804783,26.2704429 C65.9703667,26.3754893 66.0127062,26.5160406 65.996666,26.6561421 C65.9806257,26.7962435 65.9077616,26.9223051 65.7967131,27.0020787 C64.9109805,27.6143041 63.9713074,28.1361511 62.9905802,28.5604629 C62.2015682,28.8324199 61.3779005,28.9779487 60.5474297,28.992128 C58.4996259,29.0813189 56.4874708,28.4102771 54.8653597,27.0971913 C53.3565001,25.7754586 52.5311481,23.7849806 52.6386025,21.7269846 L52.6386025,15.0105681 C52.6386025,14.7398403 52.4292111,14.5203721 52.1709137,14.5203721 L50.4676888,14.5203721 C50.2093914,14.5203721 50,14.3009039 50,14.0301761 L50,10.2037209 C50,9.93299317 50.2093914,9.71352495 50.4676888,9.71352495 L52.1709137,9.71352495 C52.4292111,9.71352495 52.6386025,9.49405674 52.6386025,9.22332897 L52.6386025,5.28712842 C52.6354704,5.04494931 52.801558,4.83667459 53.0295066,4.79693244 L57.9646706,4.00676578 C58.0995033,3.98286365 58.237499,4.02297702 58.3413256,4.11625397 C58.4451521,4.20953091 58.5040787,4.34633097 58.5021637,4.48964541 L58.5021637,9.22332897 C58.5021637,9.49405674 58.7115552,9.71352495 58.9698526,9.71352495 Z" id="Shape" fill="#2E4C68"/><path d="M106.045518,11.4664253 C107.01655,11.7187948 107.940468,12.1384076 108.779262,12.7080008 C108.978491,12.8549044 109.053603,13.126294 108.96012,13.3614615 L107.666287,16.67959 C107.612699,16.8159236 107.508463,16.9237675 107.377381,16.9784963 C107.246298,17.0332251 107.099562,17.0301658 106.970678,16.970017 C106.414978,16.7062328 105.840543,16.4877595 105.252524,16.3165562 C104.590629,16.1437702 103.910571,16.0583949 103.228301,16.0624326 C102.094038,16.0441078 101.012594,16.5618067 100.285874,17.4710035 C99.4702572,18.4839655 99.0482894,19.7793903 99.103339,21.101341 C99.0454649,22.3907459 99.4694268,23.6532458 100.285874,24.6227684 C101.034702,25.4915091 102.10898,25.9766177 103.228301,25.9514719 C103.911894,25.9555251 104.592851,25.8627093 105.252524,25.6755662 C105.839075,25.5069304 106.411392,25.288378 106.963722,25.0221055 C107.090585,24.9590003 107.236651,24.9527784 107.368019,25.004884 C107.499387,25.0569895 107.604633,25.1628917 107.659331,25.2980111 L108.96012,28.6887464 C109.051343,28.9202634 108.979594,29.1868737 108.786218,29.3349464 C107.972658,29.9220952 107.058845,30.3410881 106.094211,30.5692612 C105.032913,30.840779 103.945311,30.9845091 102.852672,30.997641 C101.07052,31.0347167 99.3049432,30.6343058 97.6982086,29.8286723 C96.2321709,29.0817533 95.0189554,27.88633 94.220163,26.4016337 C93.3805527,24.77509 92.9610265,22.9484389 93.0028471,21.101341 C92.9804216,19.233195 93.4187908,17.3904379 94.2758118,15.7502236 C95.0748174,14.2440881 96.2856897,13.0206404 97.7538573,12.2360569 C99.3328152,11.3931248 101.086409,10.9691954 102.859628,11.0017421 C103.935893,11.0188238 105.005994,11.174905 106.045518,11.4664253 Z" id="Shape" fill="#2E4C68"/><path d="M122.549407,11.00492 C124.386733,10.9466428 126.200507,11.4072007 127.756907,12.3272207 C129.158102,13.2033219 130.262818,14.4388107 130.940127,15.8872612 C131.664555,17.469529 132.025266,19.1778816 131.998625,20.9003794 L131.998625,21.9756569 C131.940241,22.4114188 131.546267,22.7383075 131.0792,22.7385228 L119.852941,22.7385228 C119.655606,22.7405728 119.472946,22.8369218 119.368211,22.9942072 C119.263477,23.1514926 119.251068,23.3480882 119.335282,23.5159193 C120.12336,25.2160203 121.80511,26.0660708 124.380531,26.0660708 C126.175479,26.052109 127.941425,25.6388247 129.533947,24.8600163 C129.672555,24.7938423 129.834062,24.7843962 129.980321,24.8339089 C130.126581,24.8834216 130.244625,24.9875029 130.306573,25.1215703 L131.728206,28.4418529 C131.833625,28.6786937 131.746249,28.9525761 131.519597,29.0957379 C130.563326,29.6737855 129.522081,30.116844 128.429092,30.4107732 C126.961551,30.8153485 125.43846,31.0136583 123.909229,30.9992697 C120.216076,30.9992697 117.308426,30.1250013 115.186279,28.3764644 C113.064133,26.6279275 112.003059,24.2061313 112.003059,21.1110757 C111.957815,19.251617 112.415055,17.411767 113.331976,15.7637496 C114.183655,14.2737987 115.481061,13.0512568 117.063761,12.2473014 C118.748024,11.395864 120.637594,10.9679168 122.549407,11.00492 Z M122.387155,16.0906921 C121.518552,16.0700197 120.679564,16.3882263 120.069277,16.9698041 C119.553939,17.4546553 119.195007,18.0667272 119.033957,18.7352936 C118.995326,18.9096629 119.033957,19.2656669 119.412544,19.2656669 L125.29223,19.2656669 C125.748079,19.2656669 125.693995,18.8588052 125.639911,18.6699051 C125.467562,18.0277724 125.136689,17.4328794 124.674129,16.9334772 C124.083393,16.3425148 123.248965,16.0217609 122.387155,16.0543651 L122.387155,16.0906921 Z" id="Shape" fill="#2E4C68"/><path d="M146.077647,16.9279155 C145.030932,17.4137924 144.052012,18.0565383 143.169412,18.8374245 C143.048417,18.9510174 142.978858,19.1161482 142.978824,19.2898785 L142.978824,30.4325154 C142.97885,30.7429579 142.749257,30.9958048 142.463529,31 L137.522353,31 C137.233865,31 137,30.7459285 137,30.4325154 L137,11.5674866 C137,11.2540735 137.233865,11 137.522353,11 L140.388235,11 C140.56755,10.9994863 140.734916,11.0976154 140.832941,11.2607382 L141.418824,13.3466276 C141.496362,13.4764513 141.619341,13.5662404 141.759276,13.5951976 C141.899211,13.6241548 142.043961,13.5897679 142.16,13.5 C142.943529,12.8941736 145.964706,11.3374253 147.531765,11.2607382 C147.792941,11.2607382 149,11.0920266 149,11.8128854 L149,15.7239279 C149,16.0536825 148.901176,16.30675 148.576471,16.3527622 C147.72116,16.4029086 146.878191,16.5969345 146.077647,16.9279155 L146.077647,16.9279155 Z" id="Shape" fill="#2E4C68"/><path d="M161.904791,11.7056322 L165.190125,11.7056322 C165.442136,11.7029599 165.661725,11.8767916 165.716949,12.1226771 L166.573039,15.8541311 C166.611445,16.014439 166.573672,16.1834983 166.470689,16.3122198 C166.367706,16.4409413 166.211052,16.5149008 166.046214,16.512623 L161.904791,16.512623 C161.605752,16.512623 161.363333,16.7550279 161.363333,17.0540496 L161.363333,22.9073108 C161.323507,23.6952481 161.561766,24.4721351 162.036497,25.1022837 C162.49072,25.6500766 163.177008,25.9511577 163.887699,25.9144237 C164.553573,25.9100134 165.212198,25.7758108 165.826704,25.5193286 C165.95983,25.453515 166.114347,25.4460921 166.253169,25.4988413 C166.391991,25.5515906 166.502584,25.6597496 166.558405,25.7973585 L167.955952,29.1849334 C168.056687,29.4156873 167.980042,29.6854623 167.773027,29.8287921 C167.237488,30.1428374 166.66475,30.3886331 166.068165,30.5604498 C165.24111,30.8324149 164.377728,30.977948 163.507215,30.9921278 C161.360673,31.0813214 159.251499,30.4102595 157.551175,29.0971345 C155.967434,27.7737895 155.102062,25.7800252 155.217052,23.7194508 L155.217052,17.0540496 C155.217052,16.7550279 154.974633,16.512623 154.675593,16.512623 L153.534141,16.512623 C153.239143,16.512623 153,16.2734937 153,15.9785129 L153,12.2470589 C153,11.9508713 153.237963,11.7096348 153.534141,11.7056322 L154.675593,11.7056322 C154.974633,11.7056322 155.217052,11.4632273 155.217052,11.1642056 L155.217052,7.31568634 C155.217125,7.05060838 155.409121,6.82456187 155.670706,6.78157626 L160.741388,6.00601915 C160.897067,5.98261866 161.055222,6.02812767 161.174651,6.13068989 C161.294079,6.23325212 161.362955,6.38271124 161.363333,6.54012924 L161.363333,11.1642056 C161.363333,11.3078008 161.420379,11.4455148 161.521923,11.547052 C161.623466,11.6485892 161.761188,11.7056322 161.904791,11.7056322 Z" id="Shape" fill="#2E4C68"/><path d="M76.9998163,8.01286602 C77.0101431,9.06213408 76.5847339,10.069133 75.824042,10.7960769 C75.0827338,11.5724074 74.0510582,12.0082697 72.9747206,11.9998582 C71.9184552,12.0089289 70.9055851,11.582408 70.1768928,10.8216892 C69.416201,10.0947454 68.9907918,9.08774644 69.0011186,8.03847839 C68.9751844,6.9612736 69.4011839,5.92194499 70.1768928,5.169893 C70.9064669,4.41145644 71.9195387,3.98794189 72.9747206,4.00026146 C74.0414524,3.99799402 75.0652745,4.4179492 75.8203741,5.16750227 C76.5754736,5.91705533 76.9998187,6.93462989 76.9998163,7.99579111 L76.9998163,8.01286602 Z" id="Shape" fill="#2E4C68"/><g id="Group" transform="translate(70, 0)"><path d="M2.03916676,28.3531903 L5.2867169,30.9614394 C6.36923361,31.2800608 7.98211086,29.5313483 8.3453715,29.1238094 L30.9111226,0.551625995 C31.0054686,0.451217425 31.0269797,0.30082569 30.9646909,0.177112355 C30.902402,0.0533990208 30.7700274,-0.0163976536 30.6350445,0.0033008986 L24.2198616,0.0033008986 C23.8912744,-0.019756897 23.5657425,0.0803732008 23.3044447,0.284873245 L1.97377985,26.9601482 C1.80116519,27.153643 1.71106374,27.4091945 1.72332866,27.6704938 C1.73559358,27.9317931 1.84921841,28.1773977 2.03916676,28.3531903 Z" id="Shape" fill="url(#linearGradient-1)"/><path d="M5.85334935,13.8435399 C5.85334935,13.8435399 5.85334935,26.3482443 5.85334935,28.4512054 C5.85334935,32.3480903 8.61111111,28.6924052 8.61111111,28.6924052 C8.61111111,28.6924052 6.05100739,32.7917619 3.31620852,30.1999042 L1.2478872,27.8858933 C0.399875456,26.9587814 0,25.5643448 0,22.2252344 L0,13.8435399 C0,13.5354895 0.22841802,13.2857143 0.510185927,13.2857143 L5.33626902,13.2857143 C5.47276932,13.2837484 5.60431534,13.3416223 5.7014901,13.4464447 C5.79866486,13.5512671 5.85336181,13.6942936 5.85334935,13.8435399 Z" id="Shape" fill="#3AD29F"/></g></g></g></svg>