<svg xmlns="http://www.w3.org/2000/svg" viewBox="0 0 164 100" xml:space="preserve"><path fill="currentColor" d="M164 53.24v6.15h-.84v-2.87H160v2.87h-.84v-6.15h.84v2.54h3.16v-2.54h.84zm-7.5 1.54c.56 0 1.01.19 1.36.57.35.38.52.95.52 1.7 0 .71-.17 1.3-.52 1.77-.34.47-.82.7-1.43.7-.34 0-.63-.08-.87-.25-.14-.1-.29-.25-.45-.47v.57h-.69V53.2h.73v2.23c.16-.21.36-.38.59-.49.24-.1.49-.16.76-.16m.8 3.59c.2-.32.3-.75.3-1.28 0-.47-.1-.86-.3-1.17-.2-.31-.5-.46-.9-.46-.34 0-.65.13-.9.38-.26.25-.39.67-.39 1.25 0 .42.05.76.16 1.03.2.49.57.74 1.11.74.42 0 .72-.16.92-.49m-5.11-3.57c-.28 0-.54.06-.76.17-.23.12-.42.29-.59.53-.1-.19-.21-.34-.33-.44-.22-.18-.5-.26-.86-.26-.32 0-.6.09-.84.26-.15.1-.31.26-.49.48v-.64h-.74v4.48h.75V57c0-.58.12-.98.35-1.2.23-.22.49-.33.78-.33.31 0 .53.1.64.31.07.14.11.36.11.66v2.92h.77v-2.61c0-.46.11-.79.32-.99.21-.2.47-.3.76-.3.21 0 .4.06.55.17.15.11.22.32.22.61v3.11h.78V56.4c0-.4-.06-.71-.18-.95-.23-.43-.64-.65-1.24-.65m-8.38 1.98h1.92c-.01.72-.19 1.24-.55 1.56-.36.32-.81.48-1.35.48-.71 0-1.22-.23-1.54-.69-.31-.46-.47-1.05-.47-1.78 0-.85.19-1.48.57-1.91.38-.43.85-.64 1.41-.64.47 0 .86.1 1.17.31.31.2.51.53.61.98h.82c-.13-.8-.5-1.37-1.11-1.69-.41-.22-.91-.33-1.48-.33-.83 0-1.51.29-2.03.87-.55.61-.82 1.43-.82 2.46s.28 1.84.84 2.43c.52.47 1.13.71 1.85.71.55 0 1.01-.1 1.37-.31.21-.12.46-.33.74-.64l.2.79h.54v-3.29h-2.7v.69zM18.86 64.81a8.5 8.5 0 0 0-3.05-2.94c-1.25-.71-2.68-1.06-4.29-1.06-3.5 0-6.29 1.3-8.38 3.9C1.05 67.31 0 70.88 0 75.42c0 3.94 1.06 7.16 3.18 9.68 2.12 2.51 4.74 3.77 7.85 3.77 1.89 0 3.47-.36 4.73-1.07 1.27-.72 2.4-1.86 3.39-3.44v3.68h6.76V52.12h-7.05v12.69zm-1.34 16c-1.03 1.46-2.52 2.2-4.49 2.2s-3.44-.74-4.4-2.21c-.97-1.47-1.45-3.44-1.45-5.89 0-2.28.48-4.18 1.43-5.72s2.44-2.31 4.48-2.31c1.33 0 2.5.42 3.51 1.27 1.64 1.4 2.46 3.73 2.46 6.98 0 2.32-.51 4.22-1.54 5.68m110.1-28.74h6.95v35.97h-6.95V52.07zm-4.51 34.14c-.23-.33-.37-.94-.41-1.86-.03-1.2-.05-2.23-.05-3.07v-12.2c0-3.2-1.14-5.38-3.41-6.54-2.27-1.15-4.87-1.73-7.79-1.73-4.49 0-7.66 1.17-9.51 3.51-1.16 1.5-1.81 3.41-1.96 5.73h6.71c.16-1.02.49-1.84.99-2.44.69-.81 1.87-1.22 3.54-1.22 1.48 0 2.61.21 3.38.62.77.41 1.15 1.17 1.15 2.26 0 .9-.5 1.55-1.5 1.98-.56.24-1.48.45-2.78.61l-2.38.29c-2.7.34-4.75.91-6.15 1.71-2.54 1.46-3.81 3.83-3.81 7.1 0 2.52.79 4.47 2.37 5.84s3.58 2.06 6 2.06c1.9 0 3.6-.43 5.1-1.29a14.44 14.44 0 0 0 3.34-2.66c.05.6.11 1.14.19 1.61.08.47.23.98.44 1.51h7.56v-1.02c-.45-.21-.8-.48-1.02-.8m-7.4-8.52c-.05 2.33-.71 3.93-1.99 4.81-1.28.88-2.68 1.32-4.2 1.32-.96 0-1.77-.26-2.44-.79-.67-.53-1-1.39-1-2.57 0-1.33.55-2.32 1.64-2.95.65-.37 1.71-.69 3.2-.95l1.58-.29c.79-.15 1.41-.31 1.87-.48.45-.17.9-.39 1.35-.67v2.57zM93.39 61.68h4.32v4.95h-4.32v14.06c0 1.09.14 1.77.42 2.04.28.27 1.12.4 2.54.4.21 0 .44 0 .67-.01.24-.01.47-.02.69-.04v5.2l-3.29.12c-3.29.11-5.53-.46-6.74-1.71-.78-.8-1.17-2.03-1.17-3.68V66.64H82.8v-4.95h3.71v-7.42h6.88v7.41zM73 51.85h7.05v6.42H73v-6.42zm0 9.59h7.05v26.6H73v-26.6zm-12.13 3.83c-1.04-1.87-2.4-3.16-4.09-3.86-.99-.41-2.15-.61-3.48-.61-3.61 0-6.39 1.35-8.36 4.04-1.97 2.69-2.95 6.01-2.95 9.97 0 4.1 1.02 7.35 3.06 9.75 2.04 2.4 4.77 3.6 8.19 3.6 2.21 0 4.01-.53 5.39-1.59.76-.57 1.48-1.42 2.15-2.56v1.71c0 2.54-.28 4.34-.83 5.42-.85 1.68-2.52 2.51-5.03 2.51-1.77 0-3.03-.32-3.78-.95-.44-.36-.76-.94-.95-1.76h-7.56c.23 2.65 1.42 4.64 3.56 5.98 2.15 1.33 4.92 2 8.32 2 5.63 0 9.44-1.5 11.42-4.49 1.16-1.74 1.73-4.33 1.73-7.76V61.44h-6.78v3.83zm-1.72 15.21c-1.12 1.23-2.49 1.84-4.11 1.84-2.43 0-4.12-1.12-5.05-3.37-.52-1.2-.78-2.58-.78-4.12 0-1.79.24-3.29.73-4.51.92-2.29 2.6-3.44 5.03-3.44 1.78 0 3.2.66 4.26 1.98 1.06 1.32 1.59 3.24 1.59 5.76 0 2.68-.55 4.64-1.67 5.86M31.08 61.44h7.05v26.6h-7.05v-26.6zm0-9.59h7.05v6.42h-7.05v-6.42zM8.69 22.19c3.2-2.29 5.28-3.94 6.22-4.93 1.45-1.54 2.17-3.24 2.17-5.08 0-1.5-.41-2.74-1.24-3.73-.83-.99-2.02-1.49-3.56-1.49-2.11 0-3.55.79-4.32 2.37-.44.91-.7 2.36-.78 4.34H.42c.11-3.01.66-5.44 1.64-7.3 1.86-3.53 5.15-5.29 9.89-5.29 3.75 0 6.73 1.04 8.94 3.11 2.21 2.07 3.32 4.82 3.32 8.24 0 2.62-.78 4.95-2.35 6.98-1.03 1.35-2.71 2.85-5.06 4.51l-2.79 1.98c-1.74 1.24-2.94 2.13-3.58 2.68a7.92 7.92 0 0 0-1.62 1.93h15.45v6.12H.02c.06-2.54.61-4.86 1.63-6.95 1-2.36 3.34-4.86 7.04-7.49m26.85 14.44h7.13V1.25h-5.81c0 .31-.09.78-.27 1.41-.31 1.06-.76 1.9-1.36 2.54-.88.93-2.01 1.55-3.41 1.85-.88.2-2.41.34-4.6.44v4.73h8.32v24.41zm36.13-13.05c-1.38-1.32-3.46-2.3-6.23-2.95-4.16-.91-6.58-1.55-7.26-1.93-.69-.36-1.03-.94-1.03-1.73 0-.63.32-1.19.97-1.66.64-.47 1.72-.71 3.24-.71 1.84 0 3.15.47 3.92 1.42.41.52.66 1.23.76 2.12h6.95c-.31-3.25-1.51-5.54-3.61-6.87-2.09-1.33-4.81-1.99-8.13-1.99-3.51 0-6.22.88-8.16 2.65-1.93 1.77-2.9 3.88-2.9 6.33 0 2.08.62 3.68 1.85 4.78 1.24 1.12 3.37 2.06 6.39 2.81 4.2.99 6.62 1.69 7.28 2.1.65.41.98 1 .98 1.78 0 .81-.4 1.42-1.21 1.83-.81.41-1.9.61-3.27.61-2.34 0-3.94-.46-4.81-1.39-.49-.52-.81-1.4-.96-2.64h-7.05c0 2.73 1 4.98 3 6.75 2 1.76 5.09 2.65 9.28 2.65 4.11 0 7.14-.83 9.11-2.5 1.96-1.67 2.95-3.82 2.95-6.45-.01-2.01-.7-3.68-2.06-5.01M87.73 37l3.29-.12v-5.2c-.23.02-.46.03-.69.04-.24.01-.46.01-.67.01-1.42 0-2.26-.13-2.54-.4-.28-.27-.42-.95-.42-2.04V15.23h4.32v-4.95H86.7V2.86h-6.88v7.42h-3.71v4.95h3.71V31.6c0 1.66.39 2.89 1.17 3.68 1.2 1.26 3.45 1.83 6.74 1.72"/></svg>