<svg xmlns="http://www.w3.org/2000/svg" viewBox="0 0 283.5 56.7">
    <path d="M61.9 1.4H46.2l18.4 53.9h12.9zm119.3 2a24 24 0 0 0-13-3.4c-14.8 0-22.5 8.1-22.5 28 0 19.7 7.5 28.7 23 28.7q8.3-.2 13.5-3.8l-3.5-12.1c-2.7 2.3-4.7 3.9-8.9 3.9-6 0-8-3.3-8-16.8s2.1-16 7.6-16c3.5 0 5.9 1.5 8.1 4zm52.1 25.1c0-20.4-8.5-28.5-23.4-28.5-15 0-23.5 7.8-23.5 28 0 20.3 8.6 28.7 23.5 28.7s23.4-8 23.4-28.2m-16-.4c0 13.8-1.5 17.6-7.3 17.6-6 0-7.5-3.5-7.5-17.2 0-14.4 1.5-17.4 7.4-17.4 5.8 0 7.5 2.7 7.5 17m23.4 27.2h14.9V15.1c2.5-2 4.5-3.2 7.8-3.2 3 0 5 1.2 5 6.4v37h15V15c0-11-4.9-14.9-14-14.9-6.8 0-11.3 2.7-15.3 6.5L253 1.4h-12.2zM22.2 0a35 35 0 0 0-15 3.2l3.3 11.4q4.8-2.4 10.2-2.6c5 0 6 2.4 6 7.7v2h-3.3C7.4 21.8 0 26.9 0 39.5 0 50 4.6 56.7 16 56.7h1l.7-.1h.3q2.1-.3 4-1 3.7-1.5 7-4l1.2 3.7h11.4V17.4C41.6 4.8 35.6 0 22.2 0m4.5 44.4c-2.6 1.5-5.2 2-6.4 2h-.2c-4 0-5.3-1.9-5.3-7.2 0-5.8 1.6-8.3 11.2-8.3h.7zM117.1 0a35 35 0 0 0-15 3.2l3.4 11.4q4.7-2.4 10.1-2.6c5.1 0 6 2.4 6 7.7v2h-3.2c-16 0-23.4 5.1-23.4 17.7 0 10.7 4.6 17.3 16 17.3 5 0 9.1-2.1 13-5l1.2 3.6h11.4V17.4c0-12.6-6-17.4-19.5-17.4m-7.4 39.2c0-5.9 1.6-8.3 11.2-8.3h.8v13.5c-2.8 1.6-5.8 2-6.7 2-3.9 0-5.3-1.9-5.3-7.2M94.6 1.4H79l-5.1 17.3 6.8 23.5z"/>
</svg>
