<svg xmlns="http://www.w3.org/2000/svg" viewBox="0 0 42 29">
    <path fill-rule="evenodd" d="M4.85 9.92c-1.22 3.47.41 6.19 2.72 7.24 2.08.93 4.11.81 5.61-.52l3.94 1.74c-2.14 2.55-6.19 4.28-10.88 2.2C.4 17.97-.99 12 1.38 6.79c2.43-5.5 7.93-7.7 13.08-5.38 5.56 2.49 7.06 8.57 3.99 14.53zm1.33-2.95 9.49 4.23a5.05 5.05 0 0 0-2.61-6.66 5.2 5.2 0 0 0-6.88 2.43m32.59 14.35c-.52-.58-.98-1.04-1.51-1.51-2.08-1.85-3.99-2.08-6.66.87l-7 7.81-3.3-2.95 13.31-14.82 3.24 2.89-2.37 2.66a6 6 0 0 1 6.42.93l.81.81z" clip-rule="evenodd"/>
</svg>
