<svg xmlns="http://www.w3.org/2000/svg" viewBox="0 0 779.5 467.1">
    <path d="M485.8 155.6h-97v-7.3h97V53h7.3v95.3h96.6v7.3H493v96.3h-7.3zm-31 75-.2-7.3H218l-.4 7.2 13 1.2c60.2 5.2 62.2 6.7 62.2 18.5v116.1c0 12.3.1 32.8-10.8 50.1a58 58 0 0 1-14 15.2q-10.7 7.4-25 12.4-16.5 5-38.4 5.6h-1.1a240 240 0 0 1-16.4-1 85 85 0 0 1-50-25.5c-27.7-28.4-39-75-43.7-109a404 404 0 0 1-3.5-68.3v-.2c0-.6-.1-59.4 14.4-117.3q12.7-50.9 34.8-80 24-31.5 58.2-35.3a121 121 0 0 1 36.9 3q33 8.4 61.9 37.1c46.1 46 70.3 119.1 70.3 145.4h7.2v-188l-6.9-1.6c-17.5 37.1-33.2 61.6-38.5 64a98 98 0 0 1-7-7.3c-12.9-14.1-39.2-43.1-79.4-55a120 120 0 0 0-45.5-4.8c-40.4 3-85.6 25.3-120.1 59.5-32.3 32-70.9 89.3-70.9 180.3 0 72.9 22.6 128.6 67 165.6 38 31.6 82.8 41.7 113.7 44.6q8.7 1.3 18.2 1c15.1.3 28-1.8 39.3-5.4q17.4-4.9 29.4-14.3c9-6 16.7-12.5 23.8-18.5 13.8-11.7 25.6-21.7 40.2-21.7 34.2 0 36.4 60.7 36.4 61.3h7.2v-208c0-6.4 1.4-9.5 9.8-12 9.4-2.9 26.4-4.3 54.5-6.8zM770.6 5.4h-264l-.2 7.2h.3l63 4h.1c17.8.1 24.9 6.3 28.2 12s2.8 11.5 2.8 11.5v.3l.2 337.4s-.3 18.2-7.6 36.3c-3.6 9-9 18-16.7 24.5a47 47 0 0 1-31.4 10.8h-.8l-3.2-.2a72 72 0 0 1-24.2-5.2 88 88 0 0 1-46.6-50 49 49 0 0 1-3-14.2 49 49 0 0 0 32.8 10.7c14.8 0 27.6-5 36.5-14s14-21.7 14-36.5c0-30-22.8-51-50.9-51-14.5 0-29 4.4-39.7 14.9s-17.5 27-17.5 50v8l.6-.5a100 100 0 0 0 35.7 68.7 116 116 0 0 0 49.4 24.8l.9.2a76 76 0 0 0 12.9 1.5l2.5.1h.6c29.3-.2 63.3-6.2 90.4-22 27.4-16 47.7-42.2 47.7-81V40.5s-.4-5.5 3-11.2 10.6-11.7 28.2-11.9h.2l55.8-4.6h.4z"/>
</svg>
