<svg xmlns="http://www.w3.org/2000/svg" viewBox="0 0 779.49 467.11" xml:space="preserve"><path d="M485.83 155.58h-96.94v-7.24h96.94v-95.3h7.24v95.29h96.61v7.24h-96.61v96.31h-7.24v-96.3zm-30.95 74.95-.32-7.23H218.05l-.32 7.23c4.58.4 8.89.78 12.97 1.13 60.22 5.21 62.24 6.69 62.24 18.52V366.3c.03 12.27.07 32.81-10.84 50.14-3.65 5.8-8.29 10.85-13.91 15.14-7.43 4.87-15.68 9.21-25.21 12.41-10.99 3.32-23.79 5.18-38.36 5.59-.17 0-.33.01-.49.01-.21 0-.43-.01-.64-.01-4.79-.11-10.32-.39-16.41-.95-19.4-2.77-36.15-11.3-49.96-25.48-27.7-28.45-39.07-75.01-43.73-109.06-5.09-37.2-3.5-67.99-3.48-68.3l.01-.11v-.11c0-.59-.15-59.33 14.36-117.3 8.46-33.8 20.15-60.69 34.77-79.94 15.96-21.02 35.51-32.87 58.2-35.31 2.85-.2 5.68-.31 8.48-.31 10.17 0 19.65 1.22 28.46 3.32 22.02 5.62 42.74 18.02 61.87 37.07 46.16 45.95 70.31 119.1 70.31 145.43h7.24V10.41l-6.9-1.54c-17.51 37.14-33.25 61.6-38.47 64.08-1.42-1.14-4.41-4.42-7.08-7.36-12.83-14.12-39.18-43.11-79.32-54.93-11.68-3.62-23.74-5.4-36.14-5.35-3.17.02-6.29.19-9.36.52-40.41 3.04-85.62 25.23-120.15 59.45C43.85 97.31 5.31 154.59 5.31 245.59c0 72.88 22.57 128.61 67.08 165.66 37.87 31.52 82.67 41.62 113.58 44.54 5.84.83 11.9 1.18 18.18 1.04 15.17.25 28.1-1.86 39.35-5.45 11.56-3.3 21.37-8.07 29.42-14.29 8.98-5.94 16.7-12.48 23.81-18.52 13.73-11.64 25.59-21.7 40.15-21.7 34.24 0 36.37 60.69 36.37 61.31h7.24v-207.9c0-6.48 1.36-9.59 9.79-12.12 9.4-2.82 26.37-4.3 54.49-6.75l10.11-.88zM770.55 5.48H506.58l-.25 7.25h.25l62.97 3.94h.18c17.8.16 24.83 6.29 28.19 12.06s2.81 11.44 2.81 11.44l-.03.19v.19l.19 337.31s-.28 18.23-7.56 36.31c-3.64 9.04-9 17.94-16.78 24.5-7.65 6.45-17.67 10.7-31.31 10.84-.27 0-.55.03-.81.03-1.03 0-2.15-.13-3.22-.19-1.33-.06-2.64-.12-3.94-.25-4.7-.54-9.69-1.57-14.81-3.12-1.79-.54-3.62-1.21-5.44-1.88-13.27-5.51-24.09-14.64-32.28-24.81-6.64-8.25-11.5-17.18-14.34-25.19-1.89-5.34-2.77-10.21-2.91-14.16 5.73 4.68 15.79 10.62 32.66 10.62 14.87 0 27.62-5.01 36.56-13.94s13.97-21.67 13.97-36.56c0-29.98-22.75-50.97-50.84-50.97-14.55 0-28.97 4.4-39.72 14.91-10.75 10.5-17.56 26.93-17.56 49.94v8.12l.62-.56c2.25 29.36 16.9 52.64 35.72 68.66 13.12 11.17 28.14 18.91 42.5 23.06 2.23.69 4.53 1.25 6.88 1.75.3.06.6.13.91.19 2.3.46 4.63.84 7.03 1.09 2 .23 3.92.34 5.84.41.86.03 1.66.16 2.53.16.23 0 .43-.06.66-.06 29.29-.11 63.24-6.2 90.38-21.97 27.38-15.91 47.72-42.16 47.72-80.91V40.37s-.46-5.52 2.97-11.19 10.54-11.72 28.19-11.88h.24l55.75-4.59h.06l.31-.03-.32-7.2z" fill="#6cbb00"/></svg>