<svg xmlns="http://www.w3.org/2000/svg" viewBox="-153 -46 652 652">
    <path d="M-37.7 332.3a60 60 0 0 1-31.3 8.2 57 57 0 0 1-29.6-7.8 67 67 0 0 1-22.9-23.8H-16a59 59 0 0 1-21.7 23.4m-84.4-88.9a62 62 0 0 1 21.1-22.7 59 59 0 0 1 32.3-9.3H-7v32zm-6.8 48.7a55 55 0 0 1 .5-32H-7v32zM465.2 272q-6.6-.1-9.1 3.3a14 14 0 0 0-2.5 8.2v25.4h-12.9v-48.7H453v8.5q2.4-4.7 4.7-6.7 3.3-3 8.7-2.9h2.5v13.1zm-45.3 0q-3-2.4-6.6-2.4-10 0-10 10.2h19.8q-.5-5.4-3.2-7.8m-17 15.8q.8 6.8 3.5 9.2 2.7 2.7 8 2.7 3 0 5.1-1.3a7 7 0 0 0 3.3-4.2h13.1a21 21 0 0 1-21.4 15.8q-11.1 0-17.1-5.8-7-6.8-7.1-20.9 0-11.7 6.2-18t17-6.3a22 22 0 0 1 14.9 4.7q7.9 6.9 7.8 21.8v2.2h-33.3zm-17.3 21h-12.7v-65.4h12.7zm-21.6 0h-12.7v-65.4H364zm-33.4 0v-6.9a17 17 0 0 1-15.1 8.2q-7.7 0-12-4.4-4.6-4.4-4.5-13.4v-32.1h12.9v30q0 5.2 2.4 7.1 2.3 2 5.8 2 4 0 6.5-2.2 3.3-2.7 3.3-8.7v-28.2h12.7v48.7h-12zM262 254.9v14.7h28.7v11.6H262v27.6h-13.8v-65.4h46.5v11.5zm-48.4 53.9H200v-13.3h13.6zM176.4 282q-3-2-6.9-2h-17.1v17.4H169q10.4 0 10.4-9.6 0-3.9-3-5.8m-8.7-27.7h-15.3v14.6H168q9.6 0 9.6-7.1.2-7.4-9.9-7.5m19.6 48.5q-3.2 3-7.3 4.5-4 1.4-13.4 1.5H139v-65.4h31.8q11 0 16.2 5.8 4 4.3 4 10.5 0 6.4-2.9 10a13 13 0 0 1-5.1 3.8q5.4 2 7.8 6a20 20 0 0 1 2.4 9.8q-.2 8.1-5.9 13.5m-57.2 6h-13.8v-13.3h13.8zm-35.8 0v-29.4H68.7v29.4H54.9v-65.4h13.8v24.7h25.6v-24.7h13.4v65.4zm-94 23.5c1.3 0 2.6 0 2.6-1.5 0-1.2-1-1.5-2.1-1.5h-2v3zm-1.4 4.7h-1.1v-8.7h3.3q2.9 0 2.8 2.4-.2 2.2-2.2 2.4l2.6 3.9H3.1l-2.5-3.9h-1.8zm-4.7-4.3c0 3.6 2.7 6.5 6.3 6.5s6.3-2.9 6.3-6.5-2.7-6.4-6.3-6.4a6 6 0 0 0-6.3 6.4m13.8 0c0 4.2-3.3 7.5-7.5 7.5a7.4 7.4 0 0 1-7.5-7.5c0-4.2 3.3-7.5 7.5-7.5s7.5 3.3 7.5 7.5"/>
</svg>
