<svg xmlns="http://www.w3.org/2000/svg" viewBox="0 0 104 32">
    <path d="M2.2 1h3.6A1.2 1.2 0 0 1 7 2.2v27.6A1.2 1.2 0 0 1 5.8 31H2.2A1.2 1.2 0 0 1 1 29.8V2.2A1.2 1.2 0 0 1 2.2 1"/>
    <path d="M4 16c0 1.7 1.4 3 3.2 3 8.2 0 11.3 5.5 11.3 10.9q.2 1 1.2 1.1h4.1q1.1 0 1.2-1.2c0-7.3-3.8-13.5-11-15.8L25 3c.7-.7.2-2-.9-2H19q-1 0-1.7.7L5 13.7A3 3 0 0 0 4 16M52 1a1.2 1.2 0 0 0-1.2 1.2v14.4c0 6.3-4 9.4-8.8 9.4-4.7 0-7.8-3-7.8-8.1V2.2q0-1.1-1.2-1.2h-3.8A1.2 1.2 0 0 0 28 2.2v16.2c0 8.5 4.3 13.4 12.3 13.4q6.3-.2 10.5-4.3l.1 2.4a1.2 1.2 0 0 0 1.2 1.1h3.7a1.2 1.2 0 0 0 1.2-1.2V2.2A1.2 1.2 0 0 0 55.8 1zm41 1.2A1.2 1.2 0 0 0 91.8 1h-3.7a1 1 0 0 0-1 .6l-9.8 15.2L66.9 1.5a1 1 0 0 0-1-.5h-3.7A1.2 1.2 0 0 0 61 2.2v27.6a1.2 1.2 0 0 0 1.2 1.2h3.7a1.2 1.2 0 0 0 1.2-1.2V12.4l8 11.9a1 1 0 0 0 1 .5h2.3a1 1 0 0 0 1-.6l7.5-11.8v17.4a1.2 1.2 0 0 0 1.2 1.2h3.7a1.2 1.2 0 0 0 1.2-1.2zm8.8 28.8a1.2 1.2 0 0 0 1.2-1.2V2.2a1.2 1.2 0 0 0-1.2-1.2h-3.6A1.2 1.2 0 0 0 97 2.2v27.6a1.2 1.2 0 0 0 1.2 1.2z"/>
</svg>
