<svg xmlns="http://www.w3.org/2000/svg" viewBox="0 0 388.37 311.94" xml:space="preserve"><path fill="none" d="M0 0h388.37v311.94H0z"/><path d="M157.56 30.56 127 48.2v35.28l30.56 17.65 30.56-17.65V48.2l-30.56-17.64zm22.3 38.58c-1.05 0-5.22.08-10.27-.05l-16.71 22.25h-4.6l9.31-22.58c-8.78-.25-16.8-.5-16.8-.5l-4.65 6.87h-3.01l2.39-8.81-2.26-8.59h3.01l4.66 6.73 17.01-.64-10.19-22.84 5.14-.13 16.98 22.52 9.95-.37s4.48-.18 4.48 3.05c-.01 2.6-.99 3.09-4.44 3.09z" fill="#d45b43"/><path d="m88.73 111.59-2.11-.42-3.07 1.39 2.23.36c.99-.44 1.97-.88 2.95-1.33zM108.97 130.18a3.53 3.53 0 1 0-.001 7.059 3.53 3.53 0 0 0 .001-7.059zm-.03 5.35a1.786 1.786 0 1 1 0-3.57c.98 0 1.79.8 1.79 1.79 0 .98-.81 1.78-1.79 1.78zM79.62 114.33h2.84c.71-.29 1.41-.59 2.12-.89l-2.2-.36-2.76 1.25zM88.29 130.09c-1.98 0-3.59 1.61-3.59 3.59 0 1.98 1.6 3.59 3.59 3.59 1.99 0 3.59-1.61 3.59-3.59a3.6 3.6 0 0 0-3.59-3.59zm-.07 5.35c-.96 0-1.73-.78-1.73-1.74s.78-1.73 1.73-1.73a1.735 1.735 0 1 1 0 3.47zM92.04 110.04l-2.12-.37-2.1.95 2.02.45zM107.71 102.7l-1.71-.31-2.31 1.05 1.77.3zM95.94 108.19l-2.01-.34-2.9 1.31 2.12.35zM111.67 100.85l-1.64-.28-2.93 1.33 1.71.28zM99.28 106.61l1.04-.48-1.89-.31-3.37 1.52 1.99.31zM104.32 104.27l-1.72-.29-3 1.31 1.87.31zM109.71 116.89c-.55 0-1.01.45-1.01 1.01v5.08c0 .56.46 1.01 1.01 1.01h7.88c.31 0 .81-.24.75-.84l-1.93-6.26h-6.7z" fill="#7e2001"/><path d="M98.66 83.5 68.1 101.14v35.29l30.56 17.64 30.55-17.64v-35.29L98.66 83.5zm23.55 51.84h-1.62l-6.32.01a5.49 5.49 0 0 1-10.51.01l-10.34.01a5.479 5.479 0 0 1-5.24 3.88c-2.47 0-4.56-1.63-5.24-3.87l-8.04.01.03-11.52 3.12-9.54 36.01-16.38.29.65-3.24 1.47 1.64.26 5.01-2.33.85 1.82s-9.3 4.35-18.5 8.62c-5.05 2.34-10.12 4.88-15.27 7.07l5.57 5.56h16.42v-6.74h11.03l2.71 10.57v6.08h1.62v4.36zm-9.55-24.46c.7 0 1.27.7 1.27 1.56v1.22h-2.53v-1.22c0-.86.57-1.56 1.26-1.56zm-.32-.57v-3.08h.45v3.08h-.45zm1.53.31 2.11-2.18.32.33-2.11 2.18-.32-.33zm.83 1.59h2.99v.47h-2.99v-.47zm-6.24-3 .27-.37 2.39 1.85-.27.37-2.39-1.85zm1.92 3v.47h-2.99v-.47h2.99z" fill="#8a2e20"/><path fill="#112c46" d="M30.56 280.47h102.05v1.1H30.56zM255.77 280.47h102.05v1.1H255.77zM273.2 177.53c-2.89-5.28-12.62-22.44-16.42-22.42-.59.01-1.08.33-1.38.91-1.25 2.46-2.26 2.99-2.75 3.09-.46.1-.74-.13-.79-.17-.11-.1-1.25-1.01-3.26-1.32-1.75-4.18-15.27-35.45-27.82-33.74-3.65.51-6.79-4.94-9.84-10.2-3.04-5.24-5.9-10.19-9.71-10.61-3.99-.44-7.28 3.29-10.45 6.89-3 3.41-5.82 6.63-8.81 6-4.55-.96-21.17 23.88-27.04 32.91-1.08-1.37-2.21-3.07-3.23-4.6-2.78-4.17-5.41-8.11-7.89-8.31-4.35-.3-21.81 23.21-25.27 27.93-.24.33-.17.8.16 1.05.33.24.8.17 1.05-.16 9.87-13.49 21.45-27.33 23.89-27.33h.05c1.75.14 4.53 4.3 6.76 7.65 2.74 4.12 5.11 7.67 7.36 7.85.85.06 1.6-.61 2.66-1.54 1.61-1.42 3.81-3.37 6.56-2.68 3.22.81 12.65 18.03 17.84 28.69a.744.744 0 0 0 1 .34c.37-.18.53-.63.35-1-1.4-2.89-13.87-28.24-18.82-29.49-3.52-.89-6.16 1.46-7.92 3.01-.55.48-1.29 1.15-1.54 1.17-.55-.04-1.24-.58-1.99-1.39 10.71-16.55 23.18-33.18 25.71-32.64 3.84.81 7.1-2.89 10.25-6.48 2.91-3.32 5.92-6.75 9.16-6.39 3.05.34 5.86 5.18 8.57 9.87 3.29 5.69 6.7 11.57 11.34 10.93 10.8-1.49 23.41 26.28 25.95 32.16-3.27.11-8.07 1.93-14.05 8.9-.27.31-.23.79.08 1.06s.79.23 1.06-.08c6.29-7.32 10.99-8.58 13.81-8.37.08.03.17.05.26.05.03 0 .06-.01.1-.02 1.68.21 2.6.92 2.68.99.08.08.84.74 2.02.53 1.37-.24 2.67-1.55 3.85-3.9.03-.06.06-.09.06-.09 1.6-.29 8.49 9.63 15.08 21.65.14.25.39.39.66.39.12 0 .25-.03.36-.09.37-.18.5-.64.3-1z"/><g fill="#112c46"><path d="M132.68 220.62v-35.34l-14.58 35.34h-1.32l-14.64-35.34v35.34h-3.42V180.6h5.09l13.6 33 13.54-33h5.15v40.02h-3.42zM147.56 187.08c-.64 0-1.2-.23-1.68-.69-.48-.46-.72-1.03-.72-1.71 0-.68.24-1.24.72-1.68.48-.44 1.04-.66 1.68-.66.68 0 1.25.22 1.71.66.46.44.69 1 .69 1.68 0 .68-.23 1.25-.69 1.71-.46.46-1.04.69-1.71.69zM146 220.62v-28.98h3.12v28.98H146zM178.39 220.62V201c0-1.4-.17-2.56-.51-3.48-.34-.92-.82-1.66-1.44-2.22-.62-.56-1.36-.96-2.22-1.2-.86-.24-1.81-.36-2.85-.36-.92 0-1.84.14-2.76.42-.92.28-1.8.64-2.64 1.08-.84.44-1.6.97-2.28 1.59-.68.62-1.26 1.25-1.74 1.89v21.9h-3.12v-28.98h3.12v4.38c.52-.64 1.16-1.26 1.92-1.86.76-.6 1.6-1.14 2.52-1.62.92-.48 1.89-.87 2.91-1.17 1.02-.3 2.05-.45 3.09-.45 2.96 0 5.22.75 6.78 2.25 1.56 1.5 2.34 3.89 2.34 7.17v20.28h-3.12zM192.79 187.08c-.64 0-1.2-.23-1.68-.69-.48-.46-.72-1.03-.72-1.71 0-.68.24-1.24.72-1.68.48-.44 1.04-.66 1.68-.66.68 0 1.25.22 1.71.66.46.44.69 1 .69 1.68 0 .68-.23 1.25-.69 1.71-.46.46-1.03.69-1.71.69zm-1.56 33.54v-28.98h3.12v28.98h-3.12zM222.49 220.62v-3.42c-2.52 2.76-5.8 4.14-9.84 4.14-1.24 0-2.47-.21-3.69-.63a9.995 9.995 0 0 1-3.27-1.86c-.96-.82-1.73-1.83-2.31-3.03-.58-1.2-.87-2.58-.87-4.14 0-1.56.29-2.94.87-4.14.58-1.2 1.35-2.21 2.31-3.03.96-.82 2.04-1.43 3.24-1.83 1.2-.4 2.44-.6 3.72-.6 4.08 0 7.36 1.38 9.84 4.14v-5.85c0-2.15-.76-3.79-2.28-4.93-1.52-1.13-3.36-1.7-5.52-1.7-1.8 0-3.43.33-4.89.99-1.46.66-2.85 1.75-4.17 3.27l-1.74-2.16c1.52-1.64 3.16-2.88 4.92-3.69 1.76-.82 3.84-1.23 6.24-1.23 1.48 0 2.86.18 4.14.54 1.28.36 2.4.92 3.36 1.68.96.76 1.71 1.73 2.25 2.91.54 1.18.81 2.57.81 4.17v20.4h-3.12zm-8.76-1.74c1.76 0 3.4-.33 4.92-.99 1.52-.66 2.8-1.65 3.84-2.97v-6.36a10.046 10.046 0 0 0-3.84-3c-1.52-.68-3.16-1.02-4.92-1.02-2.4 0-4.32.68-5.76 2.04-1.44 1.36-2.16 3.08-2.16 5.16 0 2.04.72 3.74 2.16 5.1 1.44 1.36 3.36 2.04 5.76 2.04zM241.63 221.34c-1.92 0-3.35-.55-4.29-1.65-.94-1.1-1.41-2.64-1.41-4.64v-20.59h-4.8v-2.82h4.8v-7.92h3.18v7.92h5.88v2.82h-5.88v20.11c0 1.16.24 2.1.72 2.84.48.74 1.24 1.11 2.28 1.11.68 0 1.31-.14 1.89-.42.58-.28 1.03-.6 1.35-.96l1.2 2.4c-.56.56-1.22 1-1.98 1.32-.76.32-1.74.48-2.94.48zM271.39 220.62v-4.26c-1.2 1.32-2.71 2.48-4.53 3.48-1.82 1-3.79 1.5-5.91 1.5-3 0-5.27-.73-6.81-2.19s-2.31-3.83-2.31-7.11v-20.4h3.12v19.68c0 1.4.17 2.57.51 3.51.34.94.82 1.68 1.44 2.22.62.54 1.36.92 2.22 1.14.86.22 1.81.33 2.85.33.92 0 1.84-.13 2.76-.39.92-.26 1.79-.61 2.61-1.05.82-.44 1.58-.95 2.28-1.53.7-.58 1.29-1.19 1.77-1.83v-22.08h3.12v28.98h-3.12zM284.23 220.62v-28.98h3.12v4.98c1.24-1.64 2.67-2.98 4.29-4.02 1.62-1.04 3.45-1.56 5.49-1.56v3.42c-.28-.08-.53-.12-.75-.12h-.81c-.72 0-1.5.15-2.34.45a12.108 12.108 0 0 0-4.47 2.82c-.62.62-1.09 1.25-1.41 1.89v21.12h-3.12zM65.45 268.62l-7.02-27.48-6.96 27.48h-9.06L30.95 228.6h9.54l7.02 28.92 7.62-28.92h6.66l7.56 28.92 6.96-28.92h9.6l-11.4 40.02h-9.06zM107.51 268.62v-3.66c-1 1.12-2.35 2.13-4.05 3.03-1.7.9-3.75 1.35-6.15 1.35-3.2 0-5.56-.81-7.08-2.43-1.52-1.62-2.28-3.85-2.28-6.69v-20.58h7.62v17.58c0 2 .48 3.39 1.44 4.17.96.78 2.26 1.17 3.9 1.17 1.48 0 2.78-.34 3.9-1.02 1.12-.68 2.02-1.44 2.7-2.28v-19.62h7.62v28.98h-7.62zM142.25 268.62V251.1c0-2.04-.48-3.45-1.44-4.23-.96-.78-2.26-1.17-3.9-1.17-1.52 0-2.84.35-3.96 1.05-1.12.7-2 1.49-2.64 2.37v19.5h-7.62v-28.98h7.62v3.78c.92-1.12 2.24-2.15 3.96-3.09 1.72-.94 3.78-1.41 6.18-1.41 3.2 0 5.57.83 7.11 2.49 1.54 1.66 2.31 3.91 2.31 6.75v20.46h-7.62zM177.35 268.62v-3.72c-1.16 1.44-2.5 2.54-4.02 3.3-1.52.76-3.16 1.14-4.92 1.14-1.84 0-3.54-.34-5.1-1.02-1.56-.68-2.91-1.66-4.05-2.94-1.14-1.28-2.04-2.87-2.7-4.77-.66-1.9-.99-4.05-.99-6.45 0-2.36.32-4.48.96-6.36.64-1.88 1.53-3.48 2.67-4.8 1.14-1.32 2.5-2.33 4.08-3.03 1.58-.7 3.29-1.05 5.13-1.05 1.72 0 3.35.37 4.89 1.11 1.54.74 2.89 1.85 4.05 3.33V228.6h7.68v40.02h-7.68zm-6.6-6.06c1.28 0 2.54-.31 3.78-.93 1.24-.62 2.18-1.41 2.82-2.37V249c-.64-.96-1.58-1.75-2.82-2.37-1.24-.62-2.5-.93-3.78-.93-2.16 0-3.92.78-5.28 2.34-1.36 1.56-2.04 3.6-2.04 6.12 0 1.24.18 2.38.54 3.42.36 1.04.86 1.93 1.5 2.67s1.41 1.31 2.31 1.71c.89.4 1.88.6 2.97.6zM206.2 269.34c-2.2 0-4.25-.36-6.15-1.08-1.9-.72-3.54-1.74-4.92-3.06s-2.46-2.92-3.24-4.8c-.78-1.88-1.17-3.98-1.17-6.3 0-2.08.37-4.05 1.11-5.91.74-1.86 1.77-3.47 3.09-4.83 1.32-1.36 2.9-2.44 4.74-3.24 1.84-.8 3.86-1.2 6.06-1.2 2.16 0 4.13.39 5.91 1.17 1.78.78 3.31 1.87 4.59 3.27 1.28 1.4 2.27 3.08 2.97 5.04.7 1.96 1.05 4.12 1.05 6.48v1.68H198.7c.24 1.84 1.07 3.42 2.49 4.74 1.42 1.32 3.37 1.98 5.85 1.98.6 0 1.26-.07 1.98-.21.72-.14 1.43-.33 2.13-.57.7-.24 1.36-.54 1.98-.9.62-.36 1.17-.76 1.65-1.2l3.36 4.92c-1.44 1.32-3.22 2.32-5.34 3-2.12.68-4.32 1.02-6.6 1.02zm6.66-17.94c-.04-.68-.2-1.4-.48-2.16-.28-.76-.7-1.45-1.26-2.07-.56-.62-1.29-1.14-2.19-1.56-.9-.42-1.97-.63-3.21-.63-1.2 0-2.23.2-3.09.6-.86.4-1.57.91-2.13 1.53-.56.62-1 1.31-1.32 2.07a8 8 0 0 0-.6 2.22h14.28zM225.76 268.62v-28.98h7.62v3.96c1.04-1.28 2.39-2.38 4.05-3.3 1.66-.92 3.39-1.38 5.19-1.38v7.44c-.56-.12-1.26-.18-2.1-.18-.64 0-1.31.08-2.01.24-.7.16-1.38.39-2.04.69-.66.3-1.26.65-1.8 1.05s-.97.84-1.29 1.32v19.14h-7.62zM247.36 268.62V228.6h7.62v40.02h-7.62zM279.94 268.62v-3c-1 1.16-2.3 2.07-3.9 2.73-1.6.66-3.36.99-5.28.99-1.16 0-2.34-.2-3.54-.6-1.2-.4-2.28-.99-3.24-1.77-.96-.78-1.75-1.77-2.37-2.97-.62-1.2-.93-2.62-.93-4.26 0-1.68.31-3.12.93-4.32.62-1.2 1.41-2.17 2.37-2.91.96-.74 2.04-1.28 3.24-1.62 1.2-.34 2.38-.51 3.54-.51 1.92 0 3.69.3 5.31.9 1.62.6 2.91 1.48 3.87 2.64v-3.9c0-1.48-.58-2.66-1.74-3.54-1.16-.88-2.7-1.32-4.62-1.32-3.2 0-6.02 1.14-8.46 3.42l-2.88-5.1c1.8-1.56 3.79-2.71 5.97-3.45 2.18-.74 4.41-1.11 6.69-1.11 1.64 0 3.22.18 4.74.54 1.52.36 2.87.97 4.05 1.83 1.18.86 2.12 1.99 2.82 3.39.7 1.4 1.05 3.14 1.05 5.22v18.72h-7.62zm-6.12-4.44c1.24 0 2.41-.21 3.51-.63 1.1-.42 1.97-1.05 2.61-1.89v-3.6c-.64-.84-1.51-1.47-2.61-1.89-1.1-.42-2.27-.63-3.51-.63-1.52 0-2.81.38-3.87 1.14-1.06.76-1.59 1.84-1.59 3.24 0 1.36.53 2.41 1.59 3.15 1.06.74 2.35 1.11 3.87 1.11zM314.68 268.62V251.1c0-2.04-.48-3.45-1.44-4.23-.96-.78-2.26-1.17-3.9-1.17-1.52 0-2.84.35-3.96 1.05-1.12.7-2 1.49-2.64 2.37v19.5h-7.62v-28.98h7.62v3.78c.92-1.12 2.24-2.15 3.96-3.09 1.72-.94 3.78-1.41 6.18-1.41 3.2 0 5.57.83 7.11 2.49 1.54 1.66 2.31 3.91 2.31 6.75v20.46h-7.62zM349.78 268.62v-3.72c-1.16 1.44-2.5 2.54-4.02 3.3-1.52.76-3.16 1.14-4.92 1.14-1.84 0-3.54-.34-5.1-1.02-1.56-.68-2.91-1.66-4.05-2.94-1.14-1.28-2.04-2.87-2.7-4.77-.66-1.9-.99-4.05-.99-6.45 0-2.36.32-4.48.96-6.36.64-1.88 1.53-3.48 2.67-4.8 1.14-1.32 2.5-2.33 4.08-3.03 1.58-.7 3.29-1.05 5.13-1.05 1.72 0 3.35.37 4.89 1.11 1.54.74 2.89 1.85 4.05 3.33V228.6h7.68v40.02h-7.68zm-6.6-6.06c1.28 0 2.54-.31 3.78-.93 1.24-.62 2.18-1.41 2.82-2.37V249c-.64-.96-1.58-1.75-2.82-2.37-1.24-.62-2.5-.93-3.78-.93-2.16 0-3.92.78-5.28 2.34-1.36 1.56-2.04 3.6-2.04 6.12 0 1.24.18 2.38.54 3.42.36 1.04.86 1.93 1.5 2.67s1.41 1.31 2.31 1.71c.9.4 1.89.6 2.97.6z"/></g><g fill="#112c46"><path d="M147.08 286.55v-5.2h-6.63v5.2h-1.41v-11.34h1.41v4.88h6.63v-4.88h1.41v11.34h-1.41zM164.34 286.55l-1-2.52h-5.64l-1 2.52h-1.62l4.56-11.34h1.75l4.57 11.34h-1.62zm-3.83-9.88-2.41 6.1h4.81l-2.4-6.1zM182.22 286.55v-9.33l-3.86 9.33h-.58l-3.84-9.33v9.33h-1.41v-11.34h2.02l3.52 8.53 3.54-8.53h2.02v11.34h-1.41zM191.39 286.55v-11.34h5.05c.49 0 .93.07 1.33.21.4.14.73.34 1 .59.27.26.48.56.63.92.15.36.22.75.22 1.16 0 .36-.05.69-.16.99-.11.29-.25.55-.44.77-.19.22-.4.4-.64.54s-.49.24-.75.3c.31.05.59.15.86.32s.5.38.7.63c.2.25.36.53.48.85.12.32.18.65.18.99 0 .45-.07.87-.22 1.24s-.36.7-.65.97c-.28.27-.63.48-1.03.63-.4.15-.86.22-1.39.22h-5.17zm4.81-6.42c.65 0 1.13-.17 1.46-.52.33-.35.49-.78.49-1.3 0-.51-.16-.94-.49-1.3-.33-.36-.82-.54-1.46-.54h-3.4v3.66h3.4zm.06 5.16c.67 0 1.19-.17 1.56-.52.37-.35.55-.82.55-1.44 0-.26-.05-.51-.14-.75-.09-.24-.22-.44-.4-.62-.18-.18-.39-.32-.65-.42-.26-.11-.57-.16-.92-.16h-3.47v3.91h3.47zM211.8 286.76c-.77 0-1.45-.11-2.02-.33-.58-.22-1.06-.53-1.44-.93-.39-.4-.67-.88-.87-1.44-.19-.57-.29-1.2-.29-1.9v-6.94h1.41v6.9c0 1.04.27 1.87.82 2.47.54.61 1.34.91 2.4.91 1.05 0 1.85-.3 2.4-.91.54-.61.82-1.43.82-2.47v-6.9h1.41v6.92c0 .7-.1 1.34-.29 1.91-.19.57-.48 1.06-.87 1.46-.39.4-.87.71-1.44.93-.59.21-1.27.32-2.04.32zM230.74 286.55l-2.89-4.5h-2.26v4.5h-1.41v-11.34h4.56c.52 0 1 .08 1.43.24a3.15 3.15 0 0 1 1.86 1.77c.18.42.26.89.26 1.41 0 .51-.08.96-.24 1.36-.16.4-.37.73-.65 1-.27.27-.59.49-.94.65-.36.16-.73.25-1.11.29l3.06 4.63h-1.67zm-2.18-5.76c.68 0 1.23-.2 1.64-.6.41-.4.62-.92.62-1.57 0-.64-.21-1.16-.62-1.56-.41-.39-.96-.59-1.64-.59h-2.98v4.32h2.98zM244.99 286.77c-.81 0-1.56-.14-2.27-.43-.71-.28-1.33-.68-1.85-1.2-.53-.52-.94-1.13-1.25-1.85-.31-.72-.46-1.52-.46-2.41 0-.88.15-1.69.46-2.41.31-.72.72-1.33 1.25-1.84a5.6 5.6 0 0 1 1.85-1.19c.71-.28 1.46-.42 2.27-.42 1.01 0 1.87.2 2.58.59.71.4 1.32.91 1.83 1.53l-1.12.7c-.36-.46-.83-.84-1.4-1.13-.57-.29-1.2-.43-1.88-.43-.62 0-1.2.11-1.73.34-.53.23-.99.54-1.39.95-.39.41-.7.89-.92 1.45-.22.56-.33 1.18-.33 1.86 0 .67.11 1.29.33 1.85.22.57.53 1.05.92 1.46.39.41.85.73 1.39.96.53.23 1.11.35 1.73.35a4.368 4.368 0 0 0 1.82-.4c.26-.12.5-.25.71-.4.21-.15.38-.29.52-.43v-2.31h-3.89v-1.26h5.3v4.1c-.53.59-1.18 1.06-1.93 1.42-.77.37-1.61.55-2.54.55z"/></g><path d="M287.28 110.23h-15.75c-.62 0-1.12.5-1.12 1.12v4.92c0 .62.5 1.12 1.12 1.12h15.75c.62 0 1.12-.51 1.12-1.12v-4.92c0-.62-.5-1.12-1.12-1.12zM305.68 129.24c-2.49 0-4.52 2.02-4.52 4.52 0 2.49 2.02 4.51 4.52 4.51a4.52 4.52 0 0 0 4.52-4.51c0-2.5-2.03-4.52-4.52-4.52zm-.04 6.94c-1.18 0-2.13-.95-2.13-2.13s.95-2.13 2.13-2.13c1.17 0 2.13.95 2.13 2.13s-.96 2.13-2.13 2.13zM282.55 129.2c-2.49 0-4.52 2.02-4.52 4.52 0 2.5 2.03 4.52 4.52 4.52 2.5 0 4.52-2.02 4.52-4.52 0-2.5-2.03-4.52-4.52-4.52zm-.03 6.97c-1.18 0-2.13-.95-2.13-2.13s.95-2.13 2.13-2.13c1.17 0 2.13.95 2.13 2.13 0 1.17-.95 2.13-2.13 2.13z" fill="#002c42"/><path d="m293.32 83.5-30.55 17.65v35.28l30.55 17.64 30.56-17.64v-35.28L293.32 83.5zm27.07 52-1.8-.01-6.61.01a6.491 6.491 0 0 1-6.25 4.73c-2.98 0-5.48-2-6.25-4.72l-10.67.01a6.503 6.503 0 0 1-6.25 4.71c-2.96 0-5.46-1.98-6.24-4.7l-8.51.01.03-12.8-.07-13.91h-.39c-.62 0-1.12-.5-1.12-1.12v-.75c0-.62.5-1.12 1.12-1.12h18.25c.62 0 1.12.5 1.12 1.12v.58h3.38c.62 0 1.12.5 1.12 1.12v8.71h6.58l1.33-4.33h3.17l1.33 4.33h4.42v-10h7.5v11l3.01 5.5v6.76h1.8v4.87z" fill="#112c46"/><g fill="#95bdcf"><path d="M234.62 30.56 204.06 48.2v35.28l30.56 17.65 30.55-17.65V48.2l-30.55-17.64zm11.05 21.36 2.74-3.04c1.12-1.24 2.96-1.4 4.12-.35 1.16 1.05 1.19 2.9.08 4.13l-2.74 3.04c-1.12 1.24-2.96 1.4-4.12.35-1.17-1.03-1.2-2.88-.08-4.13zm-14.17-7.11c0-1.67 1.26-3.02 2.83-3.02 1.56 0 2.82 1.35 2.82 3.02v4.08c0 1.67-1.26 3.02-2.82 3.02-1.56 0-2.83-1.35-2.83-3.02v-4.08zm-15.17 4.91c1.07-1.14 2.91-1.14 4.13 0l2.98 2.79c1.22 1.14 1.34 2.99.28 4.13-1.07 1.14-2.92 1.14-4.13 0l-2.98-2.79c-1.21-1.14-1.34-2.99-.28-4.13zm-5.54 16.4c0-1.56 1.35-2.82 3.02-2.82h4.08c1.67 0 3.02 1.26 3.02 2.83 0 1.56-1.35 2.82-3.02 2.82h-4.09c-1.66-.01-3.01-1.27-3.01-2.83zm13.71 13.46-2.74 3.04c-1.11 1.24-2.96 1.4-4.11.35-1.16-1.04-1.2-2.89-.08-4.13l2.74-3.04c1.12-1.24 2.96-1.4 4.12-.35 1.15 1.04 1.19 2.89.07 4.13zm12.35 6.43c0 1.67-1.26 3.02-2.83 3.02-1.56 0-2.82-1.35-2.82-3.02v-4.09c0-1.67 1.27-3.02 2.82-3.02 1.56 0 2.83 1.35 2.83 3.02v4.09zm-1.65-8.88c-6.47 0-11.71-5.24-11.71-11.72 0-6.47 5.24-11.71 11.71-11.71 6.47 0 11.72 5.24 11.72 11.71 0 6.48-5.25 11.72-11.72 11.72zm16.99 5.93c-1.07 1.14-2.92 1.14-4.14.01l-2.99-2.79c-1.22-1.14-1.34-2.99-.28-4.13 1.07-1.14 2.92-1.15 4.14-.01l2.99 2.78c1.22 1.15 1.34 3 .28 4.14zm4.02-14.36h-4.08c-1.67 0-3.02-1.27-3.02-2.83s1.35-2.83 3.02-2.83h4.08c1.67 0 3.02 1.26 3.02 2.83 0 1.56-1.35 2.83-3.02 2.83z"/><path d="M226.67 65.14c0 4.56 3.69 8.26 8.25 8.26 0 0-3.22-4.2-3.16-8.25.07-4.24 3.16-8.25 3.16-8.25a8.23 8.23 0 0 0-8.25 8.24z"/></g></svg>