<svg xmlns="http://www.w3.org/2000/svg" viewBox="0 0 73.5 73.5">
    <path d="M61.25 32.12v-6.5l-3 6.5zm-9.37 19.76c.38 0 .62-.25.62-.62s-.25-.62-.62-.62-.62.25-.62.62.24.62.62.62"/>
    <path d="M36.75 0a36.75 36.75 0 1 0 0 73.5 36.75 36.75 0 0 0 0-73.5M39 22.62c0-.12 1.38-4.88 1.38-4.88l15-.12L54 22.5l-4.88.12-5 17.75h-5.5l4.88-17.75zM36 18a3.2 3.2 0 0 1 1.75 1.38c.88 1.38.25 3.38-.5 4.75C35 27.62 31 27.88 27.5 29l-1.62.5c-.38.75-.38 1.75-.62 2.62-.12 2.25 0 5 2.25 6 2.12.5 3.88-.62 5.38-2 .5-.62 1-1.25 1.5-2 .12 0 .38.12.5.25 0 .5-.38.88-.62 1.25C32.12 38.5 29 42 24.88 41c-2.5-1-3.12-3.75-3.25-6.25 0-4.5 1.62-8.25 4-11.62C28.12 19.88 31.62 16.62 36 18M10.62 32.62l.25-1.12-2.5 8.88H3.25l6.12-22.75h6s8.12-1 7.25 7c-1.12 8.37-8.62 8.25-12 7.99m46.13 32c-2-1.12-7.75-1.38-7.75-1.38-9.12-4.75-25.38-1.5-25.38-1.5-1 .5-2.75.38-2.75.38-3.75 4.25-4.12 3.5-4.12 3.5-.62.12-.75-1-.75-1 2.12-3.88 4.38-5.38 4.38-5.38.75-.12 2.88.38 2.88.38 1.38-1.75 2.88-2.12 2.88-2.12.25-2.25.75-3.25.75-3.25-2.25-1-1.38-3-1.38-3 1.38-2.62 3.5-.5 3.5-.5 8-1.75 17.88 1 17.88 1 .5-1.5 1.5-2.12 1.5-2.12-4.75-6-3.88-6.62-3.88-6.62 2.75-.5 5.88 5.25 5.88 5.25 3.62.25 5.25 4.38 5.25 4.38.38 2.12-3.5 1.62-3.5 1.62.36 4.12-2.39 5.74-2.39 5.74 7.88 1.75 8.62 2.88 8.62 2.88.75 2.62-1.75 1.87-1.62 1.74m4.63-24.37V36.5h-5.12l-1.75 3.75h-5.62l10.88-22.62h6.62v22.62z"/>
    <path d="M30.12 27c4.62-1.5 7.38-7.25 3.75-8.62-3.75-1.25-7.25 9.5-7.25 9.5s-1.24.62 3.5-.88m-16.74-4.75-.88 3.38-.62 2.5s2.38.62 4.12-1c1.12-1.12 1.62-4 .88-4.62-.63-.51-3.13-.26-3.5-.26"/>
</svg>
