<svg xmlns="http://www.w3.org/2000/svg" viewBox="0 0 200 60">
    <g fill-rule="evenodd">
        <path d="m36 46.4-.2-.4-1.1.3a15 15 0 0 1-4 .4A15 15 0 0 1 27 46a15 15 0 0 1-3.5-1.6 15 15 0 0 1-3-2.5 14 14 0 0 1-2.2-3 14 14 0 0 1-1.2-3.5 14 14 0 0 1-.4-3.7v-.9a3 3 0 0 0-2.8-2.8 3 3 0 0 0-2.8 2.8q0 2.4.8 4.7a18 18 0 0 0 5 7.9 18 18 0 0 0 3.8 2.6 18 18 0 0 0 4.3 1.6q2.3.4 4.5.4a17 17 0 0 0 4.4-.8z"/>
        <path d="m41 56.2-.2-.4-.4.1a26 26 0 0 1-8.8 1.2l-4.3-.5-4.2-1.3-3.8-2-3.4-2.6-3-3.1-2.2-3.5a24 24 0 0 1-2.5-8l-.2-4v-1C8 28.7 6.4 27 4 27s-4 1.8-4 4a30 30 0 0 0 2.2 10 29 29 0 0 0 5.5 8.7 29 29 0 0 0 8 6 29 29 0 0 0 9.4 3q2.4.4 5 .3a28 28 0 0 0 4.8-.7 28 28 0 0 0 4.6-1.4zm.4-38.2-.2.3.8.9a15 15 0 0 1 2.4 3.2 15 15 0 0 1 1.4 3.7q.4 2 .3 3.9a15 15 0 0 1-2.3 7.3 15 15 0 0 1-5.5 5l-.8.4a3 3 0 0 0-1.1 3.9 3 3 0 0 0 4 1 19 19 0 0 0 3.7-3 18 18 0 0 0 2.8-4 18 18 0 0 0 1.7-4.4q.4-2.2.4-4.6a17 17 0 0 0-5.7-12.1z"/>
        <path d="m47.6 9-.3.4.4.3a26 26 0 0 1 5.4 7l1.7 4a25 25 0 0 1 1.2 8.7 25 25 0 0 1-1.9 8.4 24 24 0 0 1-4.5 7A24 24 0 0 1 43 50l-1 .4a4 4 0 0 0-1.5 5.6 4 4 0 0 0 5.6 1.5 30 30 0 0 0 4.2-3.2 30 30 0 0 0 3.5-3.9 29 29 0 0 0 4.8-9 29 29 0 0 0 1.4-10 29 29 0 0 0-2.2-9.8 28 28 0 0 0-5.3-8.3A28 28 0 0 0 49 10zM14 28h.4l.3-1.1a15 15 0 0 1 7.5-8.9 15 15 0 0 1 7.5-1.7q2 0 3.8.7a15 15 0 0 1 3.4 1.6l.7.4a3 3 0 0 0 4-1 3 3 0 0 0-1-3.9 19 19 0 0 0-4.6-1.7 19 19 0 0 0-4.8-.4q-2.4.1-4.7.8a18 18 0 0 0-4.3 2 18 18 0 0 0-3.6 3 17 17 0 0 0-2.7 3.6 17 17 0 0 0-1.5 4.3z"/>
        <path d="M4 26h.5v-.4A25 25 0 0 1 8 17.5l2.6-3.5a25 25 0 0 1 6.8-5.2 24 24 0 0 1 8-2.5 24 24 0 0 1 8.3.3A23 23 0 0 1 41 9.7l1 .6a4 4 0 0 0 5.4-1.5A4 4 0 0 0 46 3.4a30 30 0 0 0-4.8-2 29 29 0 0 0-5-1.1 29 29 0 0 0-10 .4 29 29 0 0 0-4.8 1.5A28 28 0 0 0 13 7.5a28 28 0 0 0-6 7.7 28 28 0 0 0-2.8 9.2zm195 3v9.6q-.1 2.4-2.3 2.5-2.2-.1-2.3-2.5v-9q0-5.3-5-5.4c-3.1 0-5.2 2.1-5.2 5.5v8.9q-.2 2.4-2.3 2.5-2.2-.1-2.3-2.5V23q.2-2.4 2.3-2.5 2 0 2.3 2.2a8 8 0 0 1 6.4-2.6c5 0 8.4 3.3 8.4 8.8m-27.4 1.9c0-4-2.5-6.6-6.3-6.6s-6.4 2.6-6.4 6.6 2.6 6.6 6.4 6.6 6.3-2.6 6.3-6.6m-17.2 0c0-6.2 4.6-10.7 10.9-10.7 6.2 0 10.9 4.5 10.9 10.7s-4.7 10.7-11 10.7-10.8-4.5-10.8-10.7m-1.3 8.3c0 1.2-1 2-2.1 2q-1.2 0-2-1l-6.4-9-2.7 2v5.5q-.1 2.4-2.3 2.5-2.2-.1-2.3-2.5V15.5q.1-2.5 2.3-2.5 2.2.1 2.3 2.5v12.4l9.6-7 1.4-.4q2 .2 2.2 2 0 1.3-1.1 2l-6 4.2 6.6 9q.5.6.5 1.4M127 30.8c0-4-2.6-6.6-6.4-6.6s-6.3 2.6-6.3 6.6 2.5 6.6 6.3 6.6 6.4-2.6 6.4-6.6m-17.3 0c0-6.2 4.6-10.7 11-10.7 6.2 0 10.8 4.5 10.8 10.7s-4.6 10.7-10.9 10.7-10.9-4.5-10.9-10.7m.2-8c0 1.3-1 2.2-2.2 2.2q-.6 0-1.4-.4-1-.4-2-.4c-2.7 0-4 2.2-4 5.1v9.3Q100 41 98 41.1q-2.2-.1-2.3-2.5V23q.1-2.4 2.3-2.5 1.6 0 2.1 1.6a7 7 0 0 1 5-2c2 0 3 .5 3.9 1q1 .6 1 1.7m-22.3 8c0-4-2.5-6.6-6.2-6.6s-6.2 2.6-6.2 6.6 2.5 6.6 6.2 6.6 6.2-2.6 6.2-6.6m4.5 0c0 6.3-4.1 10.7-10 10.7a8 8 0 0 1-6.6-2.9v8q-.2 2.3-2.3 2.4-2.2-.1-2.3-2.5V23q.1-2.4 2.3-2.5 2 .1 2.2 2.2a9 9 0 0 1 6.6-2.6c5.9 0 10.1 4.5 10.1 10.7"/>
    </g>
</svg>
