<svg xmlns="http://www.w3.org/2000/svg" viewBox="0 0 615 768">
    <path d="M37.8 750.6h25.9v-88h18.5v-26h-63v26h18.6zm88 0h26v-45.2h16.4v45.2H194v-114h-25.8v44h-16.5v-44H126zm142.6-49.1 6.7-47.6h.3l6 47.6zm18.7 49.1h26.1l-18.5-114H256l-19.2 114H263l4-25.2h15.8zm69 0h47.5v-24.9h-21.7v-89H356zm93.3 0h25.8v-114h-25.8zM550 701.5l6.7-47.6h.3l6 47.6zm18.7 49.1h26.1l-18.5-114h-38.8l-19.1 114h26.2l4-25.2h15.7zM393.5 535.7l-86-277.4-85.2 277.6h-83.4l87-277.6H17.7v-66.5h579.8v66.5H389.1l87.5 277.4zM307.2 17.4l-16 47.4-47.8 1.3 38 30.6-13.6 48.2 39.3-28.5 39.4 28.5L333 96.7 371 66l-47.8-1.3z"/>
</svg>
