<svg xmlns="http://www.w3.org/2000/svg" viewBox="0 0 1012 345">
    <path fill-rule="evenodd" d="m661.3 51.7-3.3.4V192h22V51l-7.7.2c-4.3 0-9.3.3-11 .5M906.2 57c-9 1-8-.4-9.7 12.6l-2 13.7-.7 2.7H871l.3 7.8.3 7.7 10.8-.3 10.7-.4v30c0 54.6 9.3 67 47.3 62.2 12.8-1.6 12.6-1.3 11-12.2l-.5-4.4-10.7.4c-23.5.8-25.4-2.9-24.9-48.3l.3-27 18.8.3 18.7.4V86h-38.2l.3-14.7c.3-9.2 0-14.7-.6-14.8s-4.3.1-8.3.5M264.5 84.6a75 75 0 0 0-30.2 12c-4.4 3.3-4.6 3.2-7.3-4.2l-2.3-6.6-4.5.6c-2.5.3-6 .6-7.8.6H209v133h22v-20.5c0-11.3.3-20.5.6-20.5s2 1.2 3.7 2.6c26.2 22 81.1 12.7 94.3-16 21.2-46.4-13.2-89.3-65.1-81m131 .8c-22.9 4.5-35.3 16.6-33.1 32.3 2 15.2 12.7 21.4 48.6 28.3 23.6 4.5 30 7.8 30 15.1 0 17.1-39.5 21.4-68.4 7.5-8.3-4-7.5-4.3-9.2 3.6-2 9.8-2.2 9.5 6 13.4 32.7 15.5 79.7 8 90-14.5 10.1-22.2-2.2-34-44.9-42.6-25.3-5-31.5-7.8-31.5-14.2 0-13 34-17.4 64.4-8.2 7.1 2.2 7.1 2.2 8-7.4.9-8.4 1.6-7.8-12.9-11.3a139 139 0 0 0-47-2m140-.4c-41.1 6.4-61.4 43.5-44 80.6 18.2 38.6 103.4 39.3 121.4 1 23.2-49.4-16.4-91-77.4-81.6M50 120c0 42.7 1.1 48.3 11.5 58.4 21.5 21 77.5 20 97-1.6 9-9.9 9.2-11.3 9.9-60l.4-30.8H147v32.3c0 35.1-.4 38.6-5.5 45.3-11 14.4-49.8 15.2-63.2 1.2-6.2-6.4-6.3-7.2-6.3-44.8V86H50zm675 1.3c0 42 .6 45.5 9.3 55.4 19 21.7 76.6 22.6 97.6 1.5 10.2-10.2 11-14.8 11-57.4L843 86h-22v34.3c0 31.2-.2 34.6-1.9 38.2-10 21.5-59.2 22.3-70 1l-2.6-5V86H725zM540.5 102c-25.5 3.6-37.8 25.4-29.5 52 9.6 31.3 72 31.7 82.6.6 11.7-34.4-12.5-58.4-53.1-52.6m-284 1.9A54 54 0 0 0 236 113l-5 4v44.7l3.5 3c20.8 18.3 62.9 14.2 74.3-7.3 16.7-31.3-13.2-62-52.3-53.5M667 244.8c-14.8 8.1-10.3 23.4 9 30.7 9.9 3.8 13 6.9 13 13 0 10.1-12.3 15-24.5 9.6-3.8-1.7-5-1.9-5.7-.9-6 9.5 25.7 11 32.5 1.4 8.2-11.5 2-22.8-16.2-29.2-22.8-8-10.3-25.6 14-19.8 4 .9 4.8-3.2 1-4.8-5-2.2-19.2-2.1-23 0m103.1-.5c-16.6 5.3-18.4 49.9-2.3 58.4 20.5 10.8 36.6-1.8 36.6-28.7 0-26-12.3-36.8-34.3-29.7m156.8.5c-5 2.5-8 7.4-8 13.4 0 9 3 12.1 17 17.3 12.1 4.6 15.7 10.4 11.5 18.5-3.2 6.1-15.8 8-24.4 3.7-3.8-1.9-5.1-1.5-5.1 1.4 0 9.1 28.3 7.7 33.7-1.7 7-12.2 1.2-22-16.7-28-9.5-3-13.5-9.8-10-16.5 2.5-4.6 14.2-6.3 22.5-3.4 4.5 1.6 4.2 1.7 4.7-1.4.6-4.8-17.5-7.2-25.2-3.3m-220 29.7V305l2.6-.3 2.6-.3-.1-12.2-.2-12.3h9.9c18 0 24.2-4.7 24.2-18.7 0-13.7-4.3-16.7-24-17.1l-15-.4zm113 0V305h5v-28h14.5l7.8 14c7.4 13.2 8 14 10.9 14 3.8 0 3.9.2-5.8-15.8-4.1-6.8-7.4-12.6-7.2-12.7.2-.2 2-1 4-1.8 5.4-2.3 7.8-6.7 7.8-14.7 0-13.1-4.3-16-24-16h-13zm44-28c0 2.5 0 2.5 9.5 2.5h9.5v56h6v-56h9.5c9.5 0 9.5 0 9.5-2.5V244h-44zm-151.2 2c-.5.5-.8 6.6-.8 13.7V275h10.3c16.3 0 22.5-7 17.3-19.5-2.4-5.7-22.9-11-26.9-7m58.7 1.4c-12.2 5.6-12.5 41.7-.4 48.3 17.8 9.5 31.6-6 28.2-31.6-1.9-14-6.4-18.6-18.2-18.6a26 26 0 0 0-9.6 1.9m54.3-1.2c-.4.3-.7 6-.7 12.5V273h7.8c15 0 18.7-2.5 18.7-12.5 0-7.3-1.7-9.9-7.4-11.5-4-1.1-17.4-1.4-18.4-.3"/>
</svg>
