<svg xmlns="http://www.w3.org/2000/svg" version="1.1" xmlns:xlink="http://www.w3.org/1999/xlink" xmlns:svgjs="http://svgjs.dev/svgjs" width="140" height="140"><svg xmlns="http://www.w3.org/2000/svg" viewBox="0 0 140 140" xml:space="preserve"><circle cx="70" cy="70" r="70" fill="#fff"></circle><path d="M25.48 73.48c3.87-2.77 6.38-4.76 7.52-5.96 1.75-1.86 2.62-3.92 2.62-6.14 0-1.81-.5-3.31-1.5-4.51-1-1.2-2.44-1.8-4.3-1.8-2.55 0-4.29.95-5.22 2.86-.53 1.1-.85 2.85-.94 5.25h-8.17c.13-3.64.8-6.58 1.98-8.82 2.25-4.27 6.23-6.39 11.95-6.39 4.53 0 8.14 1.26 10.81 3.76s4.01 5.83 4.01 9.96c0 3.17-.94 5.98-2.84 8.44-1.25 1.63-3.28 3.45-6.12 5.45l-3.37 2.39c-2.1 1.5-3.55 2.57-4.33 3.24a9.95 9.95 0 0 0-1.96 2.33H44.3v7.4H15c.07-3.07.74-5.87 1.97-8.4 1.21-2.86 4.04-5.88 8.51-9.06m32.46 17.46h8.62V48.17h-7.02c0 .37-.11.94-.33 1.7-.37 1.28-.92 2.3-1.64 3.07-1.06 1.12-2.43 1.87-4.12 2.24-1.06.24-2.91.41-5.56.53v5.72h10.06c-.01 0-.01 29.51-.01 29.51zm43.67-15.78c-1.67-1.6-4.18-2.78-7.53-3.57-5.03-1.1-7.95-1.87-8.78-2.33-.83-.44-1.25-1.14-1.25-2.09 0-.76.39-1.44 1.17-2.01.77-.57 2.08-.86 3.92-.86 2.22 0 3.81.57 4.74 1.72.5.63.8 1.49.92 2.56h8.4c-.37-3.93-1.83-6.7-4.36-8.3-2.53-1.61-5.81-2.41-9.83-2.41-4.24 0-7.52 1.06-9.86 3.2-2.33 2.14-3.51 4.69-3.51 7.65 0 2.51.75 4.45 2.24 5.78 1.5 1.35 4.07 2.49 7.72 3.4 5.08 1.2 8 2.04 8.8 2.54.79.5 1.18 1.21 1.18 2.15 0 .98-.48 1.72-1.46 2.21-.98.5-2.3.74-3.95.74-2.83 0-4.76-.56-5.81-1.68-.59-.63-.98-1.69-1.16-3.19h-8.52c0 3.3 1.21 6.02 3.63 8.16 2.42 2.13 6.15 3.2 11.22 3.2 4.97 0 8.63-1 11.01-3.02 2.37-2.02 3.57-4.62 3.57-7.8-.02-2.42-.86-4.44-2.5-6.05m19.41 16.22 3.98-.15v-6.29c-.28.02-.56.04-.83.05-.29.01-.56.01-.81.01-1.72 0-2.73-.16-3.07-.48-.34-.33-.51-1.15-.51-2.47v-17H125v-5.98h-5.22V50.1h-8.32v8.97h-4.48v5.98h4.48v19.79c0 2.01.47 3.49 1.41 4.45 1.46 1.54 4.18 2.23 8.15 2.09"></path></svg><style>@media (prefers-color-scheme: light) { :root { filter: none; } }
@media (prefers-color-scheme: dark) { :root { filter: none; } }
</style></svg>