<svg xmlns="http://www.w3.org/2000/svg" width="200" height="178" viewBox="0 0 200 178"><defs><linearGradient id="a" x1="81.607%" x2="7.893%" y1="90.406%" y2="30.364%"><stop offset="0%"/><stop offset="44.941%"/><stop offset="100%"/></linearGradient></defs><path fill="url(#a)" d="M43.137,177.163 L0,153.36 C15.686,126.444 23.831,97.018 24.434,65.08 L24.434,0 L96.23,0 L95.929,59.958 C95.727,79.442 90.901,100.181 81.449,122.176 C71.997,144.171 59.227,162.5 43.139,177.163 L43.137,177.163 Z M144.495,177.163 L101.357,153.36 C118.653,123.632 127.602,94.105 128.205,64.779 L128.205,0 L200,0 L199.698,61.163 C199.296,80.446 194.018,101.035 183.861,122.929 C173.705,144.823 160.583,162.901 144.495,177.163 Z"/></svg>