<svg xmlns="http://www.w3.org/2000/svg" width="2048" height="730" viewBox="0 0 2048 730"><g fill="currentColor" fill-rule="evenodd"><path d="M 1579.00 673.50 L 1539.00 669.50 L 1506.00 656.50 L 1475.50 633.00 L 1448.00 592.50 L 1421.00 592.50 L 1416.00 601.50 L 1398.00 602.50 L 636.00 611.50 L 584.00 611.50 L 578.00 592.50 L 548.00 592.50 L 527.50 625.00 L 490.00 656.50 L 449.00 671.50 L 398.00 671.50 L 343.00 646.50 L 320.50 625.00 L 299.00 592.50 L 275.00 592.50 L 273.50 608.00 L 268.00 612.50 L 210.00 608.50 L 141.00 597.50 L 78.00 568.50 L 74.50 544.00 L 80.50 458.00 L 101.50 385.00 L 115.00 369.50 L 148.50 353.00 L 156.00 321.50 L 160.50 324.00 L 160.00 350.50 L 270.00 321.50 L 412.00 296.50 L 576.00 277.50 L 655.00 274.50 L 891.00 145.50 L 949.00 120.50 L 994.00 109.50 L 1184.00 92.50 L 1309.00 93.50 L 1419.00 103.50 L 1493.00 118.50 L 1578.00 147.50 L 1692.00 195.50 L 1774.00 238.50 L 1832.00 241.50 L 1928.00 262.50 L 1963.00 264.50 L 1986.50 293.00 L 1991.50 311.00 L 1989.50 346.00 L 2029.50 439.00 L 2027.50 496.00 L 2002.00 545.50 L 1732.00 595.50 L 1695.00 592.50 L 1676.50 623.00 L 1652.00 646.50 L 1617.00 665.50 L 1579.00 673.50 Z M 1522.50 149.00 L 1516.00 136.50 L 1450.00 119.50 L 1366.00 107.50 L 1275.00 102.50 L 1074.00 109.50 L 980.00 122.50 L 942.50 135.00 L 954.00 138.50 L 1106.00 113.50 L 1223.00 110.50 L 1415.00 124.50 L 1522.50 149.00 Z M 1409.50 546.00 L 1424.50 488.00 L 1443.50 449.00 L 1472.00 416.50 L 1509.00 394.50 L 1552.00 384.50 L 1604.00 386.50 L 1637.00 396.50 L 1678.00 420.50 L 1846.00 394.50 L 1882.50 375.00 L 1885.00 365.50 L 1812.00 318.50 L 1632.00 316.50 L 1630.00 309.50 L 1811.00 311.50 L 1839.00 296.50 L 1896.00 292.50 L 1924.00 304.50 L 1951.50 330.00 L 1993.50 397.00 L 1997.00 411.50 L 1976.00 407.50 L 1894.00 371.50 L 1881.00 386.50 L 1851.00 400.50 L 1683.00 426.50 L 1714.50 478.00 L 1731.00 532.50 L 2018.50 488.00 L 2020.50 448.00 L 2004.50 409.00 L 1966.50 341.00 L 1921.00 296.50 L 1895.00 285.50 L 1731.00 252.50 L 1607.00 201.50 L 1535.00 161.50 L 1447.00 136.50 L 1230.00 117.50 L 1120.00 119.50 L 1003.00 134.50 L 947.00 147.50 L 815.00 212.50 L 713.00 270.50 L 624.00 302.50 L 392.00 331.50 L 305.50 349.00 L 311.00 363.50 L 673.00 352.50 L 687.50 317.00 L 755.00 258.50 L 856.00 197.50 L 953.00 155.50 L 1023.00 139.50 L 1118.00 130.50 L 1242.00 132.50 L 1337.00 143.50 L 1411.00 162.50 L 1485.00 195.50 L 1546.00 238.50 L 1573.50 276.00 L 1573.50 300.00 L 1562.50 319.00 L 1452.00 411.50 L 1418.50 454.00 L 1403.50 486.00 L 1392.50 532.00 L 1394.00 546.50 L 1409.50 546.00 Z M 1160.50 271.00 L 1168.50 265.00 L 1184.00 145.50 L 1295.00 151.50 L 1391.00 172.50 L 1470.00 208.50 L 1544.00 265.50 L 1558.50 263.00 L 1500.00 212.50 L 1398.00 165.50 L 1302.00 145.50 L 1167.00 136.50 L 1139.50 266.00 L 1141.00 271.50 L 1160.50 271.00 Z M 1106.50 273.00 L 1132.50 270.00 L 1156.00 137.50 L 1044.00 143.50 L 964.00 159.50 L 879.00 193.50 L 783.50 248.00 L 816.00 240.50 L 894.00 197.50 L 960.00 170.50 L 1049.00 151.50 L 1135.00 145.50 L 1103.50 269.00 L 1106.50 273.00 Z M 673.50 279.00 L 939.50 143.00 L 927.00 140.50 L 848.00 178.50 L 673.50 279.00 Z M 1738.50 243.00 L 1754.00 241.50 L 1753.00 237.50 L 1700.00 210.50 L 1533.50 145.00 L 1610.00 191.50 L 1738.50 243.00 Z M 1200.50 267.00 L 1400.00 264.50 L 1407.50 190.00 L 1308.00 163.50 L 1193.00 155.50 L 1178.50 266.00 L 1200.50 267.00 Z M 853.50 284.00 L 1092.00 270.50 L 1122.50 158.00 L 1069.00 159.50 L 1000.00 170.50 L 945.00 186.50 L 882.00 214.50 L 831.50 243.00 L 848.50 259.00 L 852.50 275.00 L 846.50 283.00 L 853.50 284.00 Z M 1242.00 213.50 L 1240.00 206.50 L 1279.50 193.00 L 1242.00 213.50 Z M 1424.50 264.00 L 1523.50 261.00 L 1470.00 220.50 L 1419.00 194.50 L 1412.50 263.00 L 1424.50 264.00 Z M 1232.00 235.50 L 1227.50 233.00 L 1231.00 227.50 L 1303.00 195.50 L 1307.50 198.00 L 1232.00 235.50 Z M 966.00 224.50 L 962.00 218.50 L 999.00 201.50 L 1003.50 204.00 L 966.00 224.50 Z M 955.00 246.50 L 953.00 239.50 L 1031.50 208.00 L 1029.00 213.50 L 955.00 246.50 Z M 1212.00 227.50 L 1207.50 226.00 L 1210.00 220.50 L 1234.50 214.00 L 1212.00 227.50 Z M 938.00 237.50 L 931.50 236.00 L 933.00 231.50 L 957.50 223.00 L 958.00 227.50 L 938.00 237.50 Z M 801.50 286.00 L 834.00 281.50 L 844.00 270.50 L 782.00 275.50 L 781.00 268.50 L 840.50 261.00 L 819.00 247.50 L 781.00 258.50 L 764.50 271.00 L 764.50 278.00 L 779.00 286.50 L 801.50 286.00 Z M 1918.50 286.00 L 1936.00 273.50 L 1819.00 250.50 L 1765.50 252.00 L 1918.50 286.00 Z M 728.50 291.00 L 749.00 279.50 L 762.50 264.00 L 728.50 291.00 Z M 1131.50 511.00 L 1391.00 499.50 L 1410.50 454.00 L 1433.50 421.00 L 1557.50 314.00 L 1567.50 295.00 L 1565.50 274.00 L 1139.00 278.50 L 1128.00 343.50 L 1334.00 344.50 L 1415.00 348.50 L 1437.50 355.00 L 1126.00 350.50 L 1117.50 418.00 L 1116.50 507.00 L 1119.00 511.50 L 1131.50 511.00 Z M 1950.50 309.00 L 1974.50 294.00 L 1960.00 275.50 L 1925.50 291.00 L 1950.50 309.00 Z M 710.50 351.00 L 1117.00 344.50 L 1130.50 281.00 L 712.00 302.50 L 682.50 339.00 L 684.00 351.50 L 710.50 351.00 Z M 763.50 289.00 L 759.00 281.50 L 748.50 288.00 L 763.50 289.00 Z M 161.50 380.00 L 198.00 363.50 L 333.00 334.50 L 576.00 304.50 L 643.50 287.00 L 607.00 285.50 L 491.00 296.50 L 301.00 325.50 L 157.00 361.50 L 152.50 365.00 L 156.50 379.00 L 161.50 380.00 Z M 1021.00 333.50 L 1007.00 331.50 L 997.50 323.00 L 998.50 315.00 L 1008.00 308.50 L 1060.00 301.50 L 1087.50 309.00 L 1086.50 319.00 L 1075.00 327.50 L 1062.00 329.50 L 1058.00 321.50 L 1043.00 321.50 L 1023.00 324.50 L 1021.00 333.50 Z M 1444.00 333.50 L 1421.50 325.00 L 1420.50 316.00 L 1431.00 308.50 L 1483.00 301.50 L 1499.00 302.50 L 1510.50 310.00 L 1508.50 320.00 L 1498.00 327.50 L 1485.00 329.50 L 1481.00 321.50 L 1447.00 323.50 L 1444.00 333.50 Z M 1977.50 344.00 L 1980.50 309.00 L 1976.00 301.50 L 1954.50 316.00 L 1977.50 344.00 Z M 1979.50 397.00 L 1960.00 361.50 L 1901.00 335.50 L 1857.50 324.00 L 1873.00 315.50 L 1924.00 320.50 L 1914.00 310.50 L 1894.00 302.50 L 1866.00 302.50 L 1825.50 314.00 L 1912.00 369.50 L 1979.50 397.00 Z M 1013.50 325.00 L 1032.00 315.50 L 1064.00 314.50 L 1072.00 320.50 L 1080.50 312.00 L 1026.00 310.50 L 1004.50 319.00 L 1013.50 325.00 Z M 1436.50 325.00 L 1448.00 316.50 L 1487.00 314.50 L 1496.00 320.50 L 1504.50 313.00 L 1495.00 308.50 L 1449.00 310.50 L 1427.50 319.00 L 1436.50 325.00 Z M 1950.50 349.00 L 1940.00 333.50 L 1909.00 323.50 L 1889.50 324.00 L 1950.50 349.00 Z M 814.50 520.00 L 1109.00 511.50 L 1117.50 352.00 L 683.00 358.50 L 688.50 519.00 L 814.50 520.00 Z M 144.50 442.00 L 156.00 438.50 L 172.50 410.00 L 202.00 386.50 L 294.00 362.50 L 298.50 357.00 L 246.00 363.50 L 184.00 381.50 L 158.50 412.00 L 144.50 442.00 Z M 680.50 520.00 L 673.00 358.50 L 312.00 369.50 L 287.50 388.00 L 349.00 400.50 L 410.00 385.50 L 480.00 392.50 L 521.00 413.50 L 544.50 436.00 L 567.50 473.00 L 584.00 519.50 L 680.50 520.00 Z M 98.50 474.00 L 129.50 430.00 L 151.50 376.00 L 148.00 369.50 L 142.00 367.50 L 124.50 377.00 L 138.00 380.50 L 139.50 387.00 L 98.50 474.00 Z M 170.50 434.00 L 242.00 407.50 L 290.50 371.00 L 202.00 394.50 L 177.50 415.00 L 166.50 433.00 L 170.50 434.00 Z M 119.50 394.00 L 131.50 388.00 L 116.00 383.50 L 109.50 393.00 L 119.50 394.00 Z M 145.50 414.00 L 161.00 388.50 L 151.50 392.00 L 145.50 414.00 Z M 1722.50 582.00 L 1714.50 509.00 L 1689.50 453.00 L 1645.00 411.50 L 1589.00 394.50 L 1529.00 398.50 L 1479.00 423.50 L 1441.50 473.00 L 1420.50 552.00 L 1419.50 581.00 L 1443.50 581.00 L 1437.50 556.00 L 1441.50 503.00 L 1454.50 472.00 L 1482.00 438.50 L 1534.00 409.50 L 1589.00 405.50 L 1640.00 423.50 L 1678.50 458.00 L 1703.50 512.00 L 1705.50 552.00 L 1699.50 581.00 L 1722.50 582.00 Z M 261.50 601.00 L 265.50 539.00 L 278.50 487.00 L 301.50 443.00 L 338.00 405.50 L 278.00 395.50 L 249.00 415.50 L 210.00 432.50 L 137.00 455.50 L 126.00 450.50 L 95.50 485.00 L 99.50 554.00 L 94.00 562.50 L 119.00 575.50 L 239.00 575.50 L 238.00 582.50 L 135.50 584.00 L 181.00 594.50 L 261.50 601.00 Z M 578.50 582.00 L 577.50 546.00 L 567.50 501.00 L 538.50 445.00 L 490.00 407.50 L 437.00 395.50 L 401.00 396.50 L 366.00 405.50 L 337.00 421.50 L 317.50 440.00 L 288.50 490.00 L 273.50 562.00 L 275.00 582.50 L 296.50 581.00 L 289.50 539.00 L 294.50 502.00 L 310.50 467.00 L 337.00 436.50 L 387.00 409.50 L 442.00 405.50 L 491.00 422.50 L 531.50 458.00 L 556.50 513.00 L 558.50 550.00 L 551.50 581.00 L 578.50 582.00 Z M 106.50 414.00 L 121.00 411.50 L 125.50 402.00 L 106.00 402.50 L 101.50 413.00 L 106.50 414.00 Z M 432.50 663.00 L 487.00 646.50 L 519.50 619.00 L 542.50 578.00 L 548.50 530.00 L 533.50 480.00 L 502.00 442.50 L 458.00 419.50 L 409.00 415.50 L 364.00 430.50 L 328.50 460.00 L 305.50 502.00 L 300.50 552.00 L 317.50 603.00 L 347.00 636.50 L 389.00 658.50 L 432.50 663.00 Z M 1579.50 663.00 L 1631.00 648.50 L 1666.50 619.00 L 1691.50 572.00 L 1695.50 528.00 L 1678.50 476.00 L 1647.00 440.50 L 1606.00 419.50 L 1557.00 415.50 L 1511.00 430.50 L 1472.50 464.00 L 1452.50 503.00 L 1447.50 550.00 L 1462.50 599.00 L 1493.00 635.50 L 1533.00 657.50 L 1579.50 663.00 Z M 102.50 436.00 L 112.50 433.00 L 116.00 419.50 L 97.50 424.00 L 95.50 435.00 L 102.50 436.00 Z M 435.00 650.50 L 393.00 646.50 L 356.00 627.50 L 326.50 593.00 L 313.50 553.00 L 315.50 514.00 L 334.50 473.00 L 372.00 440.50 L 409.00 428.50 L 450.00 430.50 L 493.00 451.50 L 523.50 488.00 L 535.50 528.00 L 531.50 570.00 L 508.50 612.00 L 477.00 637.50 L 435.00 650.50 Z M 1582.00 650.50 L 1541.00 646.50 L 1501.00 625.50 L 1475.50 596.00 L 1460.50 552.00 L 1462.50 515.00 L 1479.50 476.00 L 1511.00 445.50 L 1556.00 428.50 L 1605.00 432.50 L 1643.00 453.50 L 1669.50 486.00 L 1682.50 527.00 L 1678.50 571.00 L 1657.50 610.00 L 1626.00 636.50 L 1582.00 650.50 Z M 429.50 640.00 L 466.00 631.50 L 496.50 610.00 L 517.50 579.00 L 525.50 532.00 L 511.50 488.00 L 489.00 461.50 L 455.00 442.50 L 412.00 438.50 L 377.00 449.50 L 344.50 477.00 L 328.50 506.00 L 323.50 550.00 L 334.50 586.00 L 360.00 617.50 L 396.00 636.50 L 429.50 640.00 Z M 1576.50 640.00 L 1611.00 632.50 L 1647.50 606.00 L 1668.50 568.00 L 1672.50 530.00 L 1659.50 489.00 L 1634.00 459.50 L 1595.00 440.50 L 1559.00 438.50 L 1521.00 451.50 L 1492.50 476.00 L 1474.50 510.00 L 1470.50 548.00 L 1477.50 577.00 L 1503.00 613.50 L 1534.00 633.50 L 1576.50 640.00 Z M 92.50 466.00 L 105.00 442.50 L 93.50 446.00 L 92.50 466.00 Z M 428.00 633.50 L 391.00 627.50 L 363.00 610.50 L 341.50 584.00 L 330.50 549.00 L 332.50 518.00 L 349.50 482.00 L 374.00 459.50 L 413.00 445.50 L 453.00 449.50 L 484.00 466.50 L 510.50 501.00 L 518.50 538.00 L 514.50 567.00 L 492.50 604.00 L 462.00 625.50 L 428.00 633.50 Z M 1575.00 633.50 L 1544.00 629.50 L 1508.00 608.50 L 1490.50 587.00 L 1477.50 548.00 L 1481.50 511.00 L 1497.50 481.00 L 1528.00 455.50 L 1560.00 445.50 L 1594.00 447.50 L 1630.00 465.50 L 1653.50 493.00 L 1665.50 533.00 L 1659.50 573.00 L 1641.50 602.00 L 1609.00 625.50 L 1575.00 633.50 Z M 426.50 626.00 L 432.50 624.00 L 436.00 573.50 L 470.00 612.50 L 482.50 604.00 L 457.50 559.00 L 463.00 556.50 L 503.00 573.50 L 509.50 558.00 L 462.50 539.00 L 509.50 519.00 L 502.00 505.50 L 464.00 522.50 L 457.50 520.00 L 483.50 476.00 L 472.00 466.50 L 436.00 505.50 L 432.50 454.00 L 418.00 452.50 L 412.00 505.50 L 378.00 465.50 L 365.50 475.00 L 390.50 520.00 L 386.00 522.50 L 344.00 505.50 L 338.50 521.00 L 380.00 533.50 L 384.50 542.00 L 339.50 559.00 L 345.00 573.50 L 386.00 556.50 L 391.50 559.00 L 365.50 602.00 L 377.00 612.50 L 405.50 576.00 L 413.00 573.50 L 415.50 624.00 L 426.50 626.00 Z M 1573.50 626.00 L 1579.50 624.00 L 1583.00 573.50 L 1617.00 612.50 L 1630.50 603.00 L 1604.50 559.00 L 1610.00 556.50 L 1650.00 573.50 L 1656.50 558.00 L 1616.00 545.50 L 1610.50 537.00 L 1656.50 519.00 L 1650.00 505.50 L 1611.00 522.50 L 1604.50 520.00 L 1630.50 476.00 L 1619.00 466.50 L 1583.00 505.50 L 1579.50 454.00 L 1565.00 452.50 L 1559.00 505.50 L 1526.00 465.50 L 1512.50 475.00 L 1538.50 519.00 L 1534.00 522.50 L 1491.00 505.50 L 1486.50 521.00 L 1527.00 533.50 L 1531.50 542.00 L 1485.50 558.00 L 1492.00 573.50 L 1537.50 558.00 L 1512.50 602.00 L 1524.00 612.50 L 1552.50 576.00 L 1561.00 574.50 L 1562.50 624.00 L 1573.50 626.00 Z M 404.50 481.00 L 403.00 454.50 L 388.50 461.00 L 404.50 481.00 Z M 1551.50 481.00 L 1550.00 454.50 L 1535.50 461.00 L 1551.50 481.00 Z M 444.50 482.00 L 459.50 462.00 L 449.00 455.50 L 442.50 457.00 L 444.50 482.00 Z M 1592.50 481.00 L 1606.50 462.00 L 1596.00 455.50 L 1590.50 457.00 L 1592.50 481.00 Z M 369.50 503.00 L 357.00 484.50 L 349.50 495.00 L 369.50 503.00 Z M 481.50 503.00 L 498.50 495.00 L 491.00 484.50 L 477.50 502.00 L 481.50 503.00 Z M 1517.50 504.00 L 1504.00 484.50 L 1497.50 495.00 L 1517.50 504.00 Z M 1626.50 504.00 L 1645.50 495.00 L 1638.00 484.50 L 1626.50 504.00 Z M 1743.50 583.00 L 1970.00 541.50 L 1985.00 519.50 L 2008.00 512.50 L 2014.50 500.00 L 1733.00 539.50 L 1734.50 582.00 L 1743.50 583.00 Z M 1125.50 551.00 L 1383.00 546.50 L 1390.50 508.00 L 1120.00 518.50 L 1125.50 551.00 Z M 195.00 565.50 L 152.00 562.50 L 131.00 554.50 L 122.50 544.00 L 124.50 531.00 L 152.50 516.00 L 112.00 518.50 L 110.50 514.00 L 154.00 507.50 L 185.00 516.50 L 221.50 557.00 L 220.00 562.50 L 195.00 565.50 Z M 89.50 552.00 L 92.50 521.00 L 88.00 517.50 L 89.50 552.00 Z M 425.00 560.50 L 410.00 554.50 L 403.50 543.00 L 406.50 528.00 L 419.00 518.50 L 437.00 522.50 L 445.50 537.00 L 441.50 551.00 L 425.00 560.50 Z M 705.50 559.00 L 1086.00 552.50 L 1115.50 548.00 L 1109.00 518.50 L 691.00 528.50 L 690.50 556.00 L 705.50 559.00 Z M 1572.00 560.50 L 1560.00 556.50 L 1550.50 542.00 L 1554.50 527.00 L 1567.00 518.50 L 1584.00 522.50 L 1592.50 536.00 L 1588.50 552.00 L 1572.00 560.50 Z M 193.50 536.00 L 182.00 522.50 L 147.00 524.50 L 130.50 535.00 L 193.50 536.00 Z M 1993.50 537.00 L 2002.00 522.50 L 1985.50 534.00 L 1993.50 537.00 Z M 659.50 560.00 L 684.50 557.00 L 681.00 528.50 L 584.50 529.00 L 591.00 560.50 L 659.50 560.00 Z M 427.50 549.00 L 434.50 536.00 L 422.00 528.50 L 413.50 540.00 L 419.00 548.50 L 427.50 549.00 Z M 1575.50 549.00 L 1582.50 537.00 L 1570.00 528.50 L 1561.50 542.00 L 1575.50 549.00 Z M 342.50 545.00 L 359.50 539.00 L 339.00 532.50 L 337.50 544.00 L 342.50 545.00 Z M 509.50 545.00 L 509.00 532.50 L 488.50 539.00 L 509.50 545.00 Z M 1490.50 545.00 L 1506.50 539.00 L 1486.00 532.50 L 1484.50 544.00 L 1490.50 545.00 Z M 1657.50 545.00 L 1657.00 532.50 L 1635.50 539.00 L 1657.50 545.00 Z M 201.50 558.00 L 211.50 555.00 L 202.00 543.50 L 131.50 545.00 L 159.00 556.50 L 201.50 558.00 Z M 695.50 600.00 L 1408.00 591.50 L 1408.00 581.50 L 1094.00 581.50 L 1092.50 577.00 L 1407.00 575.50 L 1410.50 558.00 L 592.00 570.50 L 592.00 585.50 L 980.00 575.50 L 984.50 578.00 L 981.00 583.50 L 603.00 591.50 L 592.00 592.50 L 592.00 600.50 L 695.50 600.00 Z M 358.50 594.00 L 369.00 574.50 L 350.50 583.00 L 358.50 594.00 Z M 491.50 594.00 L 498.50 583.00 L 479.00 574.50 L 491.50 594.00 Z M 1505.50 594.00 L 1516.00 574.50 L 1497.50 583.00 L 1505.50 594.00 Z M 1638.50 594.00 L 1645.50 583.00 L 1626.00 574.50 L 1638.50 594.00 Z M 404.50 623.00 L 404.00 596.50 L 388.50 617.00 L 404.50 623.00 Z M 447.50 623.00 L 459.50 616.00 L 444.00 596.50 L 442.50 622.00 L 447.50 623.00 Z M 1551.50 623.00 L 1551.00 596.50 L 1535.50 617.00 L 1551.50 623.00 Z M 1594.50 623.00 L 1607.50 617.00 L 1592.00 597.50 L 1590.50 622.00 L 1594.50 623.00 Z"/></g></svg>