<svg xmlns="http://www.w3.org/2000/svg" viewBox="0 0 48 29"><path d="M11.697 9.764h2.398l.474 1.487h1.981l-2.614-7.457-.04-.111h-1.928L9.292 11.25h1.922l.483-1.487Zm.516-1.583.699-2.138.681 2.138h-1.38Zm10.77 3.27c.864 0 1.585-.264 2.142-.785.552-.517.902-1.199 1.033-2.019l.032-.194h-1.81l-.032.126c-.09.348-.203.608-.34.78-.238.307-.58.454-1.046.454-.451 0-.813-.177-1.11-.544-.298-.372-.45-.95-.45-1.718 0-.773.146-1.375.432-1.786.277-.4.647-.593 1.128-.593.474 0 .823.134 1.06.412.13.154.242.397.333.722l.036.122h1.797l-.011-.176c-.023-.478-.197-.96-.519-1.437-.584-.842-1.513-1.269-2.755-1.269-.932 0-1.713.318-2.32.944-.695.714-1.046 1.737-1.046 3.038 0 1.204.309 2.17.916 2.869.614.7 1.465 1.055 2.53 1.055Zm8.304-.2h1.65l.894-4.368.09-.496.983 4.864h1.698l2.05-7.357.06-.211h-1.877l-.989 4.321-.053.267-.94-4.588h-1.85l-.838 4.302-.04.226-.993-4.4-.03-.128H29.16l2.092 7.446.036.122Zm-7.72-9.173L22.047.066 22 0h-1.973l1.7 2.078h1.841ZM0 15.671V29h2.165V17.856h43.67V29H48V15.67H0ZM39.77 2.783l.445.319.5-.66.482.66.444-.319-.482-.7.74-.229-.164-.523-.726.237V.722h-.604v.846l-.726-.237-.163.523.741.229-.487.7Z" fill="currentColor"/></svg>