<svg xmlns="http://www.w3.org/2000/svg" viewBox="0 0 48 29">
    <path d="M11.7 9.76h2.4l.47 1.5h1.98l-2.61-7.47-.04-.1h-1.93l-2.68 7.56h1.92zm.51-1.58.7-2.14.68 2.14zm10.77 3.27q1.31 0 2.14-.78.83-.79 1.04-2.02l.03-.2h-1.81l-.03.13q-.14.52-.34.78-.35.45-1.05.45-.67 0-1.1-.54-.45-.56-.46-1.72 0-1.16.43-1.79.41-.6 1.13-.59.71 0 1.06.41.2.24.33.73l.04.12h1.8l-.01-.18q-.04-.72-.52-1.44-.88-1.26-2.76-1.26a3 3 0 0 0-2.32.94 4.2 4.2 0 0 0-1.04 3.04q0 1.81.91 2.87a3.2 3.2 0 0 0 2.53 1.05m8.3-.2h1.66l.9-4.37.08-.5.98 4.87h1.7l2.05-7.36.06-.2h-1.88L35.85 8l-.06.27-.94-4.59H33l-.83 4.3-.05.23-.99-4.4-.03-.13h-1.94l2.1 7.45zm-7.71-9.17L22.05.07 22 0h-1.97l1.7 2.08zM0 15.68V29h2.17V17.86h43.67V29H48V15.67zm39.77-12.9.45.32.5-.66.48.66.44-.32-.48-.7.74-.23-.16-.52-.73.24V.72h-.6v.85l-.73-.24-.16.52.74.23z"/>
</svg>
