<svg xmlns="http://www.w3.org/2000/svg" viewBox="0 0 76 76" xml:space="preserve"><path d="M35.9 11.3h4.4c.5 0 .9-.4.9-.9s-.4-.9-.9-.9h-4.4v1.8zm0 4.2h4.5c.6 0 1-.4 1-1s-.4-1-1-1h-4.5v2zm7.1-3.2c.6.6 1 1.4 1 2.3 0 1.8-1.4 3.2-3.2 3.2h-7.3V7.3h7.2c1.7 0 3.1 1.4 3.1 3.1-.1.7-.4 1.4-.8 1.9zm1.7 18H42l-.8-1.8h-5.9l-.8 1.8h-2.7L37 19.8h2.4l5.3 10.5zm-6.5-7.8-1.8 3.8H40l-1.8-3.8zm3.6 10.1h3l-5.3 6.8v3.7H37v-3.7l-5.3-6.8h3l3.6 4.8 3.5-4.8zm13.9 0v2.3h-7v1.8h6.8V39h-6.8v2h7v2.3h-9.5V32.6h9.5zm7.7 6.5h-1.9v4H59V32.6h6.4c1.8 0 3.2 1.5 3.2 3.3 0 1.5-1 2.7-2.3 3.1l3.1 4.1h-3l-3-4zm1.8-4.3h-3.6v2h3.6c.6 0 1-.5 1-1s-.5-1-1-1zm-32.4 8.3h-2.7l-.8-1.8h-5.9l-.8 1.8h-2.7l5.3-10.5h2.4l5.2 10.5zm-6.5-7.8-1.8 3.8h3.7l-1.9-3.8zm-15.9 1.3h4.4c.5 0 .9-.4.9-.9s-.4-.9-.9-.9h-4.4v1.8zm0 4.2h4.5c.6 0 1-.4 1-1s-.4-1-1-1h-4.5v2zm7.1-3.2c.6.6 1 1.4 1 2.3 0 1.8-1.4 3.2-3.2 3.2H7.9V32.6h7.2c1.7 0 3.1 1.4 3.1 3.1 0 .7-.3 1.4-.7 1.9zM43 45.3v2.3h-7v1.8h6.8v2.3H36v2h7V56h-9.5V45.3H43zm-1.8 16.3c0-.6-.4-1-1-1h-4.3v2h4.3c.6 0 1-.4 1-1zm-7.8 7.3V58.4h7c1.8 0 3.2 1.5 3.2 3.3 0 1.4-.8 2.5-2 3l3.2 4.2h-3l-3-4h-2.9v4h-2.5z"/><path d="M38 5c18.2 0 33 14.8 33 33S56.2 71 38 71 5 56.2 5 38 19.8 5 38 5m0-5C17 0 0 17 0 38s17 38 38 38 38-17 38-38S59 0 38 0z"/></svg>