<svg xmlns="http://www.w3.org/2000/svg" viewBox="0 0 73.2 16">
    <path d="M71.8.6c.2 0 .3 0 .4.1.2.1.2.2.2.4 0 .1-.1.2-.2.3-.1 0-.1.1-.2.1.1 0 .2.1.3.2s.1.2.1.2v.3h-.3V2c0-.2 0-.3-.1-.4h-.5v.6h-.3V.6zm.2.3c-.1 0-.2-.1-.3-.1h-.2v.6h.5c.1 0 .2-.1.2-.2 0-.2-.1-.3-.2-.3m.8 1.5c-.3.3-.6.4-1 .4s-.7-.1-1-.4-.4-.6-.4-1 .1-.7.4-1 .6-.4 1-.4.7.1 1 .4.4.6.4 1-.1.7-.4 1M70.9.5c-.2.2-.4.5-.4.9 0 .3.1.6.4.9.2.2.5.4.9.4.3 0 .6-.1.9-.4.2-.3.3-.5.3-.9 0-.3-.1-.6-.4-.9-.2-.2-.5-.4-.9-.4a3 3 0 0 0-.8.4M20.7.1h7.4V2h-2.6v13.9h-2.2V2h-2.6zm10.6 0h2.1v13.8h5.4v2h-7.5zM5 7.4C6.4 7 6.9 5.5 6.9 4.3 6.9 1.5 5.6.1 2.8.1H0v15.8h3.5c2.2 0 3.9-1.8 3.9-4.3-.1-2.2-1-3.8-2.4-4.2M2 1.8h1.4c.3 0 1.6 1 1.6 2.4 0 1.1-.9 2.3-1.6 2.3L2 6.6zm1.3 12.3H2V8.3h1.3c.4 0 1.9.9 1.9 3.2 0 1.9-1.4 2.6-1.9 2.6M42 .1h7.4v1.8H44v4.7h5.4v1.9H44V14h5.4v1.9H42zm28.2 3.2-2 .8c0-1-.6-2.2-1.5-2.2-1.3 0-2.3 1.9-.6 3.7 1 1.1 2.9 2.8 3.6 3.8.6.9.7 1.7.7 2.6 0 2.3-1.7 4-3.7 4-1.2 0-3.8-.7-3.8-3.7l2-.5c0 1.5.9 2.3 1.8 2.3s1.5-.9 1.5-2.1c0-1.8-3.7-4.5-4.3-5.6-.3-.6-.9-1.6-.9-2.7C63 1.4 65 0 66.7 0c2.8 0 3.4 2.5 3.5 3.3M57.7 8.2c1.7-.4 2.4-1.9 2.4-3.7 0-2.3-1.1-4.4-4-4.4h-3.5v15.8h1.9V8.5h1l2.8 7.4h2.4zm-2.1-1.4h-1.1V1.9h1.1c1.9 0 2.5 1.3 2.5 2.6 0 1.8-1.1 2.3-2.5 2.3M13.8 16c-2.8 0-3.7-2-3.7-4.8V.1h2v11.1c0 1.3.4 2.8 1.7 2.8s1.7-1.5 1.7-2.8V.1h2v11.1c0 2.8-.9 4.8-3.7 4.8m0 0c-2.8 0-3.7-2-3.7-4.8V.1h2v11.1c0 1.3.4 2.8 1.7 2.8s1.7-1.5 1.7-2.8V.1h2v11.1c0 2.8-.9 4.8-3.7 4.8M70.2 3.3l-2 .8c0-1-.6-2.2-1.5-2.2-1.3 0-2.3 1.9-.6 3.7 1 1.1 2.9 2.8 3.6 3.8.6.9.7 1.7.7 2.6 0 2.3-1.7 4-3.7 4-1.2 0-3.8-.7-3.8-3.7l2-.5c0 1.5.9 2.3 1.8 2.3s1.5-.9 1.5-2.1c0-1.8-3.7-4.5-4.3-5.6-.3-.6-.9-1.6-.9-2.7C63 1.4 65 0 66.7 0c2.8 0 3.4 2.5 3.5 3.3M31.3.1h2.1v13.8h5.4v2h-7.5zM20.7.1h7.4V2h-2.6v13.9h-2.2V2h-2.6z"/>
</svg>
