<svg xmlns="http://www.w3.org/2000/svg" viewBox="0 0 120 38" xml:space="preserve"><path d="M31.56.5H10.5L0 19l10.5 18.5h21.06L42.06 19 31.56.5zm-1.21 2.02L39.71 19l-9.35 16.48H11.7L2.35 19 11.7 2.52h18.65zM19.49 3.9h9.6L20.5 18.24h-9.6L19.49 3.9zm1.02 15.15h-9.6l8.59 14.34h9.6l-8.59-14.34zm30.53 7.76V10.13h12.14v4.11h-7.09v2.68h5.67v4h-5.67v5.88l-5.05.01zm13.96 0V10.13h5.12v16.68H65zm9.07 0V10.13h12.7v3.93h-7.75v2.34h6.57v3.78h-6.57v2.62h8.06v4l-13.01.01zm29.97-10.95H99.2c-.19-.66-.5-1.16-.95-1.52-.45-.35-.98-.53-1.6-.53-.88 0-1.61.38-2.19 1.14-.58.76-.87 1.96-.87 3.62 0 1.62.29 2.79.87 3.53.58.73 1.33 1.09 2.26 1.09.72 0 1.34-.2 1.85-.61.52-.41.82-.86.92-1.35h-2.25v-3.6h7.02v9.18h-3.32l-.2-1.63c-.42.51-.78.87-1.08 1.09-.39.29-.88.53-1.46.71-.59.18-1.27.28-2.04.28-1.44 0-2.74-.32-3.89-.94-1.14-.64-2.06-1.63-2.75-2.98s-1.03-2.92-1.03-4.71c0-1.4.21-2.68.64-3.87.35-.97.89-1.86 1.59-2.61.71-.77 1.51-1.36 2.4-1.75 1.11-.48 2.32-.71 3.63-.71 1.46 0 2.74.31 3.84.93 1.1.62 1.96 1.46 2.56 2.53.41.72.71 1.63.89 2.71zm2.95 10.95V10.13h12.7v3.93h-7.75v2.34h6.57v3.78h-6.57v2.62H120v4c0 .01-13.01.01-13.01.01z"/></svg>