<svg xmlns="http://www.w3.org/2000/svg" viewBox="0 0 1464 267">
    <path d="M585.5 112.4c7.2-.6 14.7-.3 22-.3l.6 1a2160 2160 0 0 1-.2 132.2h82.4q.8 1 1 2.4c.9 3.9 1.3 13.4-.8 16.7-3.9 1.5-92.6.3-105.5.4l.6-1c1.2-2.4 1.8-145.9-.1-151.4m-162.5 0c7-.9 14.6-.3 21.7-.3q.6.8.9 2c1.2 4.4.7 71.4.2 80.1q-.2 1.5-1 2.7c5.3-3.9 80-80.8 82-84.7q13-.2 26.1 0v.3c-.5 2.1-60.9 65.4-64.9 68l.5.3a371 371 0 0 1 31.1 38l1 .7c4.2 3.6 36 41.8 36.2 45.2h-26l-.1-.7c-1.3-3.6-54.9-65-58-66.7-1 3.5-23.8 25.7-27.8 28l.5 1c1.4 4.3 1.3 34.6-.7 38.5H423l1-2c1.4-5 .2-34.2.2-41.2 0-34.3 1.2-70.7 0-104.7q0-2.4-1.2-4.5m-306.4 22.4a57 57 0 0 1 40-24c15.8-2.1 34-.2 47 9.7a53 53 0 0 1 19.2 36.6c1.8 13 .9 26.6.9 39.6v68l-22.4.1v-67.7c0-12.6 1.4-26.3-1-38.6a36 36 0 0 0-9.4-18.6 38 38 0 0 0-27.5-10 40 40 0 0 0-29 10.5 39 39 0 0 0-10 19.6c-3.1 14.1-1.7 30-1.7 44.5l.1 60.3h-21.5l-.1-64c0-13.8 1.3-29-1.5-42.5-1.4-7-4.3-13.9-9.4-19-7-7-17.3-9.5-27-9.4a41 41 0 0 0-29.5 11.3 40 40 0 0 0-10 20.2c-2.4 12.5-1 26.8-1 39.4v64H0V112.1q11-.2 21.9-.1l-.2 21.3A50 50 0 0 1 56 111.2a64 64 0 0 1 47.1 8c6 4.1 10.2 9.2 13.6 15.6M0 113.9v148.2c1.4-4.8 1.5-142 0-148.2"/>
    <path d="M0 114c1.5 6 1.4 143.2 0 148zm887.4-1.6c9-1.2 19.2-.4 28.3-.4 15.8 0 33.1-1.4 48.6 1a65 65 0 0 1 30 12.5 47 47 0 0 1 15.9 25.6 58 58 0 0 1-6 42.5 45 45 0 0 1-26.5 19.7l.4.4c4.5 4.3 31.5 42.2 34.6 48.3q.6 1.3.5 2.7h-24.1v-.8c-.4-2.5-30.3-44.4-33-46.4-11.1 2.9-34.3 1.2-46.5 1.2q.6 1 .8 2.2c1 5.1 1.1 40.8-.9 43.9q-11-.2-22.1 0l.4-.8c1-2.3 1.3-146.8-.4-151.6m22.5 18.6a490 490 0 0 1 0 67.4l-.4.8c16.2 0 55.7 3.5 68.3-8.2q.8-.7 1-1.8c4.9-2.9 8.4-8.7 9.7-14a38 38 0 0 0-3.8-28 32 32 0 0 0-19.6-14c-16.8-4-38-3-55.2-2.2m-132.4-20.7c16.6-.5 32.8.3 47.3 9.2a58 58 0 0 1 25.4 36.6q1.9 8.4 2.3 17c.8 15.4 0 31 .1 46.5 0 13.8 1.1 28.3 0 42q0 1.8-1 3.2h-22.4a6 6 0 0 0 .9-2.2c.9-5.2 1.2-36.5-1-40h-87.6q.8 1.2 1.1 2.6c1 4.7 1 36.5-1 39.5h-21.5c2.5-4 1.3-13.2 1.2-18v-42.1c0-23.4-2.9-49.7 11.5-69.9 11.2-15.6 26.3-21.3 44.7-24.4m1.3 20c-11.4 2.4-22 6.8-28.6 17-11.8 18-3.8 48.5-8.6 56h51.2c12 0 24.2-.3 36.3 0 3.3-6 1-37.4-1-44.8a38 38 0 0 0-18.3-23.4c-9.2-5-20.8-6.2-31-4.8m-461-20.1c13.9-.3 27.4.5 40.1 6.6a56 56 0 0 1 28.6 32.7 80 80 0 0 1 4 20.4c.7 9.8 1.2 90.8-.8 94.9q-10.7-.2-21.5 0 .3-21 .1-42.1h-87.5v42h-21.5V204c0-14.9-1.1-30.6 2-45.2A63 63 0 0 1 273 132c11.4-14.5 27-19.8 44.7-21.9m1.8 20a41 41 0 0 0-29 14.2c-12.6 15.8-9.7 40-9.8 58.9h87.5c.1-19.7 3.7-46.4-11.5-61.8a46 46 0 0 0-37.2-11.3m789.1-19.8c23.3-.6 44.6 3 62.9 18.4a75 75 0 0 1 26.4 51.4 80 80 0 0 1-17.7 59.3 82 82 0 0 1-58.3 27.2 86 86 0 0 1-55.2-15.8 76 76 0 0 1-30.2-51c-3-21.1 2-42.4 15-59.5 14.1-18.6 34.6-27 57.1-30m1 20c-17.2 3-31 9.7-41.2 24.3a60 60 0 0 0 3.4 71.9 57 57 0 0 0 10.4 9.3 63 63 0 0 0 39.9 10.5 56 56 0 0 0 37.1-16.5A59 59 0 0 0 1176 188c0-15.2-6.2-30.8-17-41.5a60 60 0 0 0-49.4-16.2M1356.4 0h105.3q1.1 1.6 1.2 3.5c1.2 18.1.1 37 .1 55.2 0 8 1.2 22.8-.2 30l-.8 2a25 25 0 0 1 .5 13.8q-.1.6-.5 1 .4 1.2.3 2.3a100 100 0 0 1-28.7 64.8c-33.2 33.1-74.5 30.2-117.6 30.1l.6-1c1.4-3.2 1-112.3.5-122.9q-.1-1.7-.8-3.5c19.5-.5 39.1 0 58.6 0 16.1-.1 32.4-.6 48.4.1l.6-1.5c1-3.4 1-9.3-.7-12.3l-107 .3c1-2.5 1.1-5.7 1-8.4 0-4-1.1-6.7-4-9.4a6 6 0 0 0-5-2c-7.5 4.1-3.4 13.6-6.2 19.6l-.1.2h-19.5q.6.7.8 1.6a17 17 0 0 1-.8 11.8h19.4q.6.9.8 1.9c1.5 6.7.3 32.3.3 40.8 0 26.7 1.2 54 0 80.7q0 2.2-1.2 4-26.3-.2-52.7.3c3.5-5.4-.2-98.8 2-115.6a97 97 0 0 1 10-31.6c14.8-28.5 42.6-45.4 73.2-52.6 5.8-1.4 17.9-1.8 21.8-3zm65.6 88.9c-31.1 1-62.4-.2-93.5.2 2.6 4.4 1.3 54.2 1.1 63l51.8.1c9.6 0 20.8 1.1 30.2-.9q4.1-.9 7-4c4.3-4.1 4.7-10.3 4.6-16 0-4.7.5-38.5-.2-41-.1-.4-.8-1-1-1.4M1366.5 0c6.8 1 13.8 1.4 20.6 3a102 102 0 0 1 56.4 37.4c8 10.5 20.9 36.2 18.7 49.5l-.2.8.8-2c1.4-7.2.2-22 .2-30 0-18.2 1.1-37 0-55.2a7 7 0 0 0-1.2-3.5z"/>
</svg>
