<svg xmlns="http://www.w3.org/2000/svg" viewBox="0 0 210 39">
    <path d="M163 32h21v7h-21zM20.2 14.1a18 18 0 0 0-7.4-2.9l-1.2-.2a7 7 0 0 1-2.9-1q-.6-.4-.7-1.2t.6-1.3q.6-.6 2-.5 1.5 0 2.9.7a4 4 0 0 1 1.5 2l.2.5L22 8.5l-.2-.7a11 11 0 0 0-7.1-6.3 14 14 0 0 0-7.8 0q-1.7.4-3 1.6-1.4 1-2.1 2.5A8 8 0 0 0 1.1 9q0 1.8.7 3.3.8 1.6 2 2.5 1.4 1 3.2 1.7 2 .6 4.3 1l1.1.3q2 .3 2.9 1.1.6.6.7 1.7 0 1-.8 1.7-.7.7-2.5.7-2 0-3.6-1a6 6 0 0 1-2-3l-.3-.6L0 20.2l.2.6a12 12 0 0 0 8 7.6 15 15 0 0 0 8.6 0q1.8-.6 3.2-1.7t2.2-2.8.8-3.6q0-4-2.8-6.2M73 4a13 13 0 0 0-4.5-3 16 16 0 0 0-11 0A13 13 0 0 0 53 4a14 14 0 0 0-3 4.4 16 16 0 0 0 0 11.4 13 13 0 0 0 3 4.4 13 13 0 0 0 4.5 2.9 16 16 0 0 0 11 0A13 13 0 0 0 73 24q1.9-2 3-4.4 2-5.6 0-11.3Q75 6 73 4M60.2 7a7 7 0 0 1 5.6 0 6 6 0 0 1 2.1 1.5 8 8 0 0 1 1.4 2.4q.9 3.2 0 6.3-.5 1.5-1.4 2.5a6 6 0 0 1-2.1 1.6q-2.8 1-5.6 0a6 6 0 0 1-2.1-1.6 7 7 0 0 1-1.4-2.5 10 10 0 0 1 0-6.3q.5-1.3 1.4-2.4t2.1-1.6m39 6.9a7 7 0 0 0 1.4-4.6q0-1.8-.6-3.3a7 7 0 0 0-2-2.6 9 9 0 0 0-3-1.7 13 13 0 0 0-4.1-.6H79v27h7V17.9h3.5L94.2 28h7.8l-5.6-11.7q1.6-1 2.8-2.5m-5.7-4.4q0 1-.6 1.6t-2 .6H86V7.3h4.8q1.5 0 2 .6t.6 1.5m9.5-2.1h7.9V28h7.2V7.3h7.9V1h-23zM129 28h7.2V17.1h11V11h-11V7.3H149V1h-20zm22-27h7v27h-7zm22 19-5.4-19H160l8.8 27h8.5l8.6-26.8.1-.2h-7.6zm23.3 1.7V17H208v-6.3h-11.7V7.3h13V1H189v27h21v-6.3zM44.3 3.4Q42.8 2.2 41 1.6a14 14 0 0 0-4.3-.6H25v27h7.4v-9.8h4.3q2.3 0 4.3-.7 1.8-.6 3.3-1.8 1.4-1.1 2-2.7t.7-3.4-.7-3.4a8 8 0 0 0-2-2.8m-4.9 6.2q0 1-.7 1.6-.5.7-2 .7h-4.3V7.3h4.3q1.2 0 2 .6.7.6.7 1.7"/>
</svg>
