<svg xmlns="http://www.w3.org/2000/svg" xml:space="preserve" viewBox="0 0 301 53">
    <path fill-rule="evenodd" d="M126.33 19.78v.69c-2.23-.15-2.59-.18-3.82-.18h-.24c-.99 0-2.02.06-3.85.18v-.69c2.14-.18 2.53-.42 2.44-2.47l-.55-14.51-6.47 17.22h-.48l-6.41-17.25-.54 14.45c-.09 2.23.39 2.38 2.35 2.56v.69c-1.17-.09-2.23-.18-2.89-.18-.87 0-1.81.09-2.86.18v-.69c2.05-.18 2.44-.42 2.53-2.53l.51-13.88c.09-2.05-.3-2.29-2.2-2.44V.24c1.29.09 2.14.15 2.95.15.78 0 1.5-.03 2.44-.09l5.45 14.93L120.35.3c.75.06 1.44.09 2.23.09.69 0 1.57-.06 2.92-.15v.69c-1.87.15-2.26.39-2.17 2.44l.51 13.88c.08 2.1.47 2.34 2.49 2.53m3.52-7.59h6.29c-.03-3.67-1.05-5.39-2.95-5.39-2.11 0-3.16 1.96-3.34 5.39m9.09 3.58c-.21 2.89-2.38 4.94-5.54 4.94-4.48 0-6.53-3.28-6.53-7.34 0-4.58 2.95-7.34 6.38-7.34 3.19 0 5.63 2.5 5.63 6.68v.27h-9.06v.36c0 4.24 1.23 6.44 4.21 6.44 2.17 0 3.91-1.63 4.12-4h.79zm12.19-7.13c-.12 1.05-.63 1.48-1.44 1.48-.93 0-1.48-.69-1.29-1.63.12-.63.06-1.41-.99-1.41-1.57 0-2.77 1.99-2.77 4.94v5.39c0 2.05.39 2.26 2.5 2.41v.66a42 42 0 0 0-3.64-.18h-.21c-1.02 0-2.08.06-3.31.18v-.66c1.72-.15 1.99-.45 1.99-2.29V9.3c0-1.93-.09-2.2-2.14-2.29v-.63a42 42 0 0 0 3.97-.21h.69v2.68c.63-1.78 1.9-2.83 3.79-2.83 2.22 0 3.03 1.29 2.85 2.62m12.31 7.13c-.18 3.07-2.26 4.94-5.15 4.94-4.03 0-6.23-3.37-6.23-7.31 0-4.64 2.92-7.37 6.62-7.37 1.47 0 2.59.54 3.37 1.26l.57-1.35h.51v5.12h-.57c-.54-2.86-1.69-4.24-3.76-4.24-2.62 0-3.82 2.65-3.82 6.5 0 4.15 1.14 6.47 3.91 6.47 1.87 0 3.55-1.44 3.76-4h.79zm4.81-3.58h6.29c-.03-3.67-1.05-5.39-2.95-5.39-2.1 0-3.16 1.96-3.34 5.39m9.09 3.58c-.21 2.89-2.38 4.94-5.54 4.94-4.48 0-6.53-3.28-6.53-7.34 0-4.58 2.95-7.34 6.38-7.34 3.19 0 5.63 2.5 5.63 6.68v.27h-9.06v.36c0 4.24 1.23 6.44 4.21 6.44 2.17 0 3.91-1.63 4.12-4h.79zm11.53-2.47c0-4.48-1.38-6.5-3.46-6.5-2.2 0-3.22 2.35-3.22 6.5s1.11 6.47 3.34 6.47c2.02.01 3.34-1.98 3.34-6.47m4.73 6.39v.63a42 42 0 0 0-3.97.21h-.69v-2.62c-.75 1.81-2.05 2.8-3.97 2.8-3.13 0-5.72-2.56-5.72-7.34 0-4.58 2.95-7.34 5.99-7.34 1.66 0 2.83.81 3.55 2.32V3.13c0-1.93-.09-2.2-2.14-2.29V.21a42 42 0 0 0 3.97-.21h.84v17.4c0 1.92.09 2.19 2.14 2.29m4.18-7.5h6.29c-.03-3.67-1.05-5.39-2.95-5.39-2.11 0-3.16 1.96-3.34 5.39m9.09 3.58c-.21 2.89-2.38 4.94-5.54 4.94-4.48 0-6.53-3.28-6.53-7.34 0-4.58 2.95-7.34 6.38-7.34 3.19 0 5.63 2.5 5.63 6.68v.27h-9.06v.36c0 4.24 1.23 6.44 4.21 6.44 2.17 0 3.91-1.63 4.12-4zm12.76.78c0 2.92-2.47 4.15-4.94 4.15a5.8 5.8 0 0 1-4-1.35l-.54 1.44h-.51v-5.12h.57c.36 2.56 1.96 4.24 4.39 4.24 2.05 0 3.04-1.02 3.04-2.38 0-1.44-1.08-1.99-2.59-2.59l-2.2-.87c-2.02-.78-3.19-2.14-3.19-4.09 0-2.65 2.35-3.97 4.64-3.97 1.5 0 2.68.51 3.46 1.2l.51-1.29h.45v4.51h-.57c-.42-1.99-1.54-3.64-3.82-3.64-1.66 0-2.68.9-2.68 2.17 0 1.41.93 2.02 2.56 2.68l2.17.87c1.27.52 3.25 1.52 3.25 4.04m2.23-3.7h6.83v-1.63h-6.83zm20.04 2.14q0-4.53-4.3-4.55h-3.1V18c0 .99.12 1.54 1.9 1.54h1.2q4.3 0 4.3-4.55m-7.4-13.82v8.4h1.9c3.1 0 4.48-1.38 4.48-4.21 0-2.77-1.38-4.18-4.51-4.18zm10.62 13.82c0 3.31-2.83 5.42-6.77 5.42h-9.24v-.69c2.05-.09 2.41-.36 2.41-2.38V3.37c0-2.02-.36-2.29-2.41-2.38V.3h7.92c4.3 0 6.89 1.93 6.89 4.82 0 2.32-1.78 4-4.33 4.7v.03c3.25.41 5.53 2.22 5.53 5.14m5.12-2.8h6.29c-.03-3.67-1.05-5.39-2.95-5.39-2.1 0-3.16 1.96-3.34 5.39m9.09 3.58c-.21 2.89-2.38 4.94-5.54 4.94-4.48 0-6.53-3.28-6.53-7.34 0-4.58 2.95-7.34 6.38-7.34 3.19 0 5.63 2.5 5.63 6.68v.27h-9.06v.36c0 4.24 1.23 6.44 4.21 6.44 2.17 0 3.91-1.63 4.12-4zm15.98 4.04v.66a34 34 0 0 0-3.31-.18h-.09c-.93 0-2.02.06-3.07.18v-.66c1.47-.15 1.81-.36 1.81-2.29v-7.8c0-2.05-.78-2.77-2.23-2.77-1.84 0-3.4 1.6-3.4 3.79v6.77c0 1.93.36 2.14 1.84 2.29v.66a28 28 0 0 0-3.07-.18h-.12c-1.02 0-2.08.06-3.31.18v-.66c1.72-.15 1.99-.45 1.99-2.29V9.3c0-1.93-.09-2.2-2.14-2.29v-.63a42 42 0 0 0 3.97-.21h.69v2.35c.66-1.5 2.17-2.5 4.15-2.5 2.77 0 4.3 1.72 4.3 4.61v6.89c.01 1.83.28 2.13 1.99 2.29m12.92-3.83-.93 4.42h-10.6v-.3l8.01-13.09h-2.53c-2.08 0-3.22.54-4.21 3.46h-.66l.9-4.18h9.84v.33l-8.04 13.06h3.28c1.93 0 3.28-.57 4.27-3.7zM110.68 51.73c4.61 0 7.1-2.59 7.1-9.18 0-6.53-2.47-9.18-7.01-9.18h-2.11v16.68c0 .75.03 1.69 1.6 1.69zm-7.41.18c2.05-.09 2.41-.36 2.41-2.38V35.56c0-2.02-.36-2.29-2.41-2.38v-.69h7.89c5.42 0 9.87 3.13 9.87 10.05s-4.45 10.05-9.81 10.05h-7.95zm27.84-3.79v-3.55q-.97.19-1.96.42c-2.53.57-3.07 1.84-3.07 3.76 0 2.08.9 2.98 2.26 2.98 1.51 0 2.77-1.27 2.77-3.61m4.7 3.76v.6c-.45.12-1.2.3-2.11.3-1.38 0-2.17-.69-2.17-2.08v-.57c-.63 1.87-2.14 2.77-4.06 2.77-2.83 0-4.3-1.63-4.3-3.94 0-3.01 1.69-3.88 5.09-4.61 1.29-.27 2.08-.45 2.86-.57v-2.14c0-1.9-.87-2.65-2.32-2.65-1.35 0-2.2.72-2.2 2.59 0 1.02-.57 1.38-1.32 1.38-.72 0-1.29-.42-1.29-1.23 0-1.93 2.23-3.52 4.88-3.52 3.22 0 4.94 1.81 4.94 4.33v7.65c-.02 1.36.58 1.75 2 1.69m9.09-1.12v.87a4.8 4.8 0 0 1-3.25 1.26c-2.02 0-3.19-1.23-3.19-3.88v-9.6h-2.38v-.72c2.44-.33 3.79-1.23 4.45-4.39h.6v4.18h3.58v.93h-3.58v9.84c0 1.72.48 2.35 1.6 2.35.84.01 1.54-.35 2.17-.84m9.72-2.64v-3.55q-.97.19-1.96.42c-2.53.57-3.07 1.84-3.07 3.76 0 2.08.9 2.98 2.26 2.98 1.51 0 2.77-1.27 2.77-3.61m4.69 3.76v.6c-.45.12-1.2.3-2.11.3-1.38 0-2.17-.69-2.17-2.08v-.57c-.63 1.87-2.14 2.77-4.06 2.77-2.83 0-4.3-1.63-4.3-3.94 0-3.01 1.69-3.88 5.09-4.61 1.29-.27 2.08-.45 2.86-.57v-2.14c0-1.9-.87-2.65-2.32-2.65-1.35 0-2.2.72-2.2 2.59 0 1.02-.57 1.38-1.32 1.38-.72 0-1.29-.42-1.29-1.23 0-1.93 2.23-3.52 4.88-3.52 3.22 0 4.94 1.81 4.94 4.33v7.65c-.01 1.36.59 1.75 2 1.69m14.75-.15c4.61 0 7.1-2.59 7.1-9.18 0-6.53-2.47-9.18-7.01-9.18h-2.11v16.68c0 .75.03 1.69 1.6 1.69zm-7.4.18c2.05-.09 2.41-.36 2.41-2.38V35.56c0-2.02-.36-2.29-2.41-2.38v-.69h7.89c5.42 0 9.87 3.13 9.87 10.05s-4.45 10.05-9.81 10.05h-7.95zm27.84-3.79v-3.55q-.97.19-1.96.42c-2.53.57-3.07 1.84-3.07 3.76 0 2.08.9 2.98 2.26 2.98 1.51 0 2.77-1.27 2.77-3.61m4.69 3.76v.6c-.45.12-1.2.3-2.11.3-1.38 0-2.17-.69-2.17-2.08v-.57c-.63 1.87-2.14 2.77-4.06 2.77-2.83 0-4.3-1.63-4.3-3.94 0-3.01 1.69-3.88 5.09-4.61 1.29-.27 2.08-.45 2.86-.57v-2.14c0-1.9-.87-2.65-2.32-2.65-1.35 0-2.2.72-2.2 2.59 0 1.02-.57 1.38-1.32 1.38-.72 0-1.29-.42-1.29-1.23 0-1.93 2.23-3.52 4.88-3.52 3.22 0 4.94 1.81 4.94 4.33v7.65c-.01 1.36.59 1.75 2 1.69m12.04-3.13c0 2.92-2.47 4.15-4.94 4.15a5.8 5.8 0 0 1-4-1.35l-.54 1.44h-.51v-5.12h.57c.36 2.56 1.96 4.24 4.39 4.24 2.05 0 3.04-1.02 3.04-2.38 0-1.44-1.08-1.99-2.59-2.59l-2.2-.87c-2.02-.78-3.19-2.14-3.19-4.09 0-2.65 2.35-3.97 4.64-3.97 1.5 0 2.68.51 3.46 1.2l.51-1.29h.45v4.51h-.57c-.42-1.99-1.54-3.64-3.82-3.64-1.66 0-2.68.9-2.68 2.17 0 1.41.93 2.02 2.56 2.68l2.17.87c1.27.52 3.25 1.51 3.25 4.04M227.67 52v.66a34 34 0 0 0-3.31-.18h-.12c-.93 0-2.02.06-3.07.18V52c1.5-.15 1.84-.36 1.84-2.29v-7.8c0-2.05-.78-2.77-2.26-2.77-1.84 0-3.37 1.6-3.37 3.79v6.77c0 1.93.33 2.14 1.81 2.29v.66a28 28 0 0 0-3.07-.18h-.09c-1.02 0-2.08.06-3.31.18V52c1.72-.15 1.99-.45 1.99-2.29V35.35c0-1.93-.09-2.2-2.14-2.29v-.63a42 42 0 0 0 3.97-.21h.84v8.19a4.4 4.4 0 0 1 4-2.2c2.77 0 4.3 1.72 4.3 4.61v6.89c0 1.84.27 2.14 1.99 2.29m11.5-6.35c0-4.12-1.08-6.5-3.34-6.5-2.02 0-3.34 2.02-3.34 6.5 0 4.3 1.29 6.47 3.46 6.47 2.22 0 3.22-2.38 3.22-6.47m2.95-.12c0 4.61-2.95 7.37-6.02 7.37q-2.53.01-4.24-2.11l-1.35 2.11h-.6V35.35c0-1.93-.09-2.2-2.14-2.29v-.63a42 42 0 0 0 3.97-.21h.84v8.43a4 4 0 0 1 3.85-2.44c3.1 0 5.69 2.56 5.69 7.32m11.76.03c0-4.36-1.02-6.56-3.43-6.56s-3.43 2.23-3.43 6.56c0 4.27 1.02 6.56 3.43 6.56s3.43-2.29 3.43-6.56m-9.81 0c0-4.67 2.86-7.34 6.38-7.34 3.49 0 6.38 2.68 6.38 7.34 0 4.64-2.89 7.34-6.38 7.34-3.52 0-6.38-2.71-6.38-7.34m22.63 2.56v-3.55q-.97.19-1.96.42c-2.53.57-3.07 1.84-3.07 3.76 0 2.08.9 2.98 2.26 2.98 1.51 0 2.77-1.27 2.77-3.61m4.7 3.76v.6c-.45.12-1.2.3-2.11.3-1.38 0-2.17-.69-2.17-2.08v-.57c-.63 1.87-2.14 2.77-4.06 2.77-2.83 0-4.3-1.63-4.3-3.94 0-3.01 1.69-3.88 5.09-4.61 1.29-.27 2.08-.45 2.86-.57v-2.14c0-1.9-.87-2.65-2.32-2.65-1.35 0-2.2.72-2.2 2.59 0 1.02-.57 1.38-1.32 1.38-.72 0-1.29-.42-1.29-1.23 0-1.93 2.23-3.52 4.88-3.52 3.22 0 4.94 1.81 4.94 4.33v7.65c-.02 1.36.59 1.75 2 1.69m13.27-11.05c-.12 1.05-.63 1.48-1.44 1.48-.93 0-1.48-.69-1.29-1.63.12-.63.06-1.41-.99-1.41-1.57 0-2.77 1.99-2.77 4.94v5.39c0 2.05.39 2.26 2.5 2.41v.66a42 42 0 0 0-3.64-.18h-.21c-1.02 0-2.08.06-3.31.18V52c1.72-.15 1.99-.45 1.99-2.29v-8.22c0-1.93-.09-2.2-2.14-2.29v-.63a42 42 0 0 0 3.97-.21h.69v2.68c.63-1.78 1.9-2.83 3.79-2.83 2.22 0 3.03 1.3 2.85 2.62m11.17 4.67c0-4.48-1.38-6.5-3.46-6.5-2.2 0-3.22 2.35-3.22 6.5s1.11 6.47 3.34 6.47c2.02 0 3.34-1.99 3.34-6.47m4.73 6.38v.63a42 42 0 0 0-3.97.21h-.69V50.1c-.75 1.81-2.05 2.8-3.97 2.8-3.13 0-5.72-2.56-5.72-7.34 0-4.58 2.95-7.34 5.99-7.34 1.66 0 2.83.81 3.55 2.32v-5.21c0-1.93-.09-2.2-2.14-2.29v-.64a42 42 0 0 0 3.97-.21h.84v17.4c0 1.93.09 2.2 2.14 2.29" clip-rule="evenodd"/>
    <linearGradient id="a" x1="129.37" x2="129.9" y1="46.79" y2="46.6" gradientTransform="matrix(71 0 0 -37.1429 -9170 1752.77)" gradientUnits="userSpaceOnUse">
        <stop offset="0" stop-color="#00aded"/>
        <stop offset="1" stop-color="#6468e7"/>
    </linearGradient>
    <path fill="url(#a)" fill-rule="evenodd" d="M40 1.06a10.6 10.6 0 0 0-9 0L2.75 14.39a4.63 4.63 0 0 0 0 8.46L31 36.19a10.6 10.6 0 0 0 9 0l28.25-13.34a4.63 4.63 0 0 0 0-8.46z" clip-rule="evenodd"/>
    <linearGradient id="b" x1="129.34" x2="129.87" y1="46.88" y2="46.8" gradientTransform="matrix(69.8317 0 0 -22.75 -9016.95 1105.55)" gradientUnits="userSpaceOnUse">
        <stop offset="0" stop-color="#00aded"/>
        <stop offset="1" stop-color="#6468e7"/>
    </linearGradient>
    <path fill="url(#b)" fill-rule="evenodd" d="M2.87 29.46c.44-.21.96-.21 1.4 0l26.22 12.43a10.4 10.4 0 0 0 8.86 0l26.22-12.43c.44-.21.96-.21 1.4 0l.16.08a4.57 4.57 0 0 1 0 8.35L39.34 51.06a10.4 10.4 0 0 1-8.86 0L2.71 37.89a4.57 4.57 0 0 1 0-8.35z" clip-rule="evenodd" opacity=".44"/>
</svg>
