<svg xmlns="http://www.w3.org/2000/svg" viewBox="0 0 168 40">
    <path d="M11.4 31q-3 0-6-1.2A9 9 0 0 1 0 21q0-2.8 1.5-5.3 1.6-2.3 4-3.5a14 14 0 0 1 6-1.2q3.2 0 6 1.2a9 9 0 0 1 5.5 8.9q0 2.9-1.4 5.3a10 10 0 0 1-4.2 3.4q-2.8 1.2-6 1.2m4.6-9.9q.2-2-1.2-3.6-1.3-1.5-3.2-1.4-2-.1-3.4 1.3A5 5 0 0 0 7 21q-.1 2 1.2 3.6Q9.5 26 11.5 26t3.3-1.4q1.4-1.5 1.2-3.5m31 0q0 4.8-2.8 7.5a10 10 0 0 1-10 2.3h-.5q-.3.3-.3.5v8q0 .6-.5.6h-5.3l-.6-.5V12.2q0-.5.6-.6H30l.4.2 1 1a9 9 0 0 1 5.4-1.8q4.7 0 7.5 2.6t2.7 7.5m-6.6 0q0-2-1.2-3.7-1.2-1.5-3-1.4-1.4 0-2.4.7-.3.2-.3.5v8q0 .3.3.5 1.2.6 2.5.6 1.9 0 3-1.4a6 6 0 0 0 1-3.8M59 9.7h3.2q.3 0 .5.4l.8 3.8-.1.4-.4.2h-4l-.5.5v6q0 1.1.6 2.1.8 1 1.8.8 1 0 2-.4h.6l2.4 2.8-.1.7-2.8 1.6q-1.2.4-2.4.4-3.2 0-5.7-2a7 7 0 0 1-2.3-5.3V15q0-.5-.4-.5h-1.7L50 14v-3.8q0-.5.5-.5h1.7q.3 0 .4-.5V5.3q0-.3.4-.5l5-.8.3.1.2.4v4.7q0 .5.5.5m47 1.8q1.6.3 2.8 1.2.3.3.2.7l-1.3 3.3-.3.3h-.4q-1.8-1-3.8-1-1.7 0-3 1.5-1.2 1.5-1 3.5t1.2 3.5 3 1.4a8 8 0 0 0 3.7-1h.4l.3.3 1.3 3.4q0 .4-.2.6-1.2.9-2.7 1.3t-3.2.4q-2.7 0-5.2-1.2-2.3-1.2-3.5-3.4a11 11 0 0 1-1.2-5.3q0-2.9 1.3-5.3 1.2-2.3 3.5-3.6 2.3-1.2 5-1.2 1.7 0 3.3.5m16.6-.5q2.8 0 5.2 1.3 2.2 1.3 3.1 3.6 1.2 2.4 1.1 5v1q-.1.8-1 .8H120q-.3 0-.5.3v.5q1 2.6 5 2.6a12 12 0 0 0 5.1-1.2h.5q.2 0 .3.2l1.4 3.3q.1.5-.2.7-1.5.9-3 1.3-2.2.6-4.6.6-5.5 0-8.7-2.6A9 9 0 0 1 112 21q0-2.8 1.3-5.3a9 9 0 0 1 3.8-3.5q2.5-1.4 5.5-1.3m-.2 5.1q-1.4 0-2.3.9-.8.7-1 1.7-.1.5.3.6h5.9q.6-.1.3-.6-.2-1-1-1.8-.8-1-2.2-.8m23.7.8q-1.5.8-3 2l-.1.4v11.1q0 .5-.5.6h-5q-.5 0-.5-.6V11.6q0-.5.5-.6h2.9q.3 0 .4.3l.6 2q.1.3.4.3l.4-.1c.7-.6 3.8-2.2 5.3-2.2.3 0 1.5-.2 1.5.5v4q0 .5-.4.6-1.3 0-2.5.5m15.8-5.2h3.3q.4 0 .5.4l.9 3.8a.5.5 0 0 1-.5.6h-4.2q-.5 0-.5.6v5.8q0 1.3.6 2.2.8 1 1.9.8 1 0 2-.4a.5.5 0 0 1 .7.3l1.4 3.4q0 .4-.2.6l-1.7.8q-1.3.4-2.6.4-3.2 0-6-2a7 7 0 0 1-2.3-5.3v-6.6q0-.5-.5-.6h-1.2l-.5-.5v-3.7q0-.5.5-.6h1.2q.5 0 .5-.5V7.3q0-.4.5-.5l5-.8a.5.5 0 0 1 .7.5v4.7zM77 8q0 1.6-1.2 2.8T73 12t-2.8-1.2A4 4 0 0 1 69 8q0-1.5 1.2-2.8T73 4a4 4 0 0 1 4 4m-5 20.4 3.3 2.6c1 .3 2.7-1.5 3-1.9L101 .6q.2-.2 0-.4 0-.2-.3-.2h-6.4q-.4 0-1 .3L72 27a1 1 0 0 0 0 1.4"/>
    <path d="M75.9 13.8v14.7c0 3.9 2.7.2 2.7.2s-2.5 4-5.3 1.5l-2-2.3c-.9-1-1.3-2.3-1.3-5.7v-8.4q0-.5.5-.5h4.8q.3 0 .4.2z"/>
</svg>
