<svg xmlns="http://www.w3.org/2000/svg" viewBox="0 0 76 76"><path fill="currentColor" d="M35.9 11.3h4.4q.8 0 .9-.9c.1-.9-.4-.9-.9-.9h-4.4zm0 4.2h4.5q1 0 1-1c0-1-.4-1-1-1h-4.5zm7.1-3.2q1 1 1 2.3c0 1.8-1.4 3.2-3.2 3.2h-7.3V7.3h7.2c1.7 0 3.1 1.4 3.1 3.1a4 4 0 0 1-.8 1.9m1.7 18H42l-.8-1.8h-5.9l-.8 1.8h-2.7L37 19.8h2.4zm-6.5-7.8-1.8 3.8H40zm3.6 10.1h3l-5.3 6.8v3.7H37v-3.7l-5.3-6.8h3l3.6 4.8zm13.9 0v2.3h-7v1.8h6.8V39h-6.8v2h7v2.3h-9.5V32.6zm7.7 6.5h-1.9v4H59V32.6h6.4c1.8 0 3.2 1.5 3.2 3.3q-.2 2.4-2.3 3.1l3.1 4.1h-3zm1.8-4.3h-3.6v2h3.6q1-.1 1-1-.1-1.2-1-1m-32.4 8.3h-2.7l-.8-1.8h-5.9l-.8 1.8h-2.7l5.3-10.5h2.4zm-6.5-7.8-1.8 3.8h3.7zm-15.9 1.3h4.4q.8 0 .9-.9c.1-.9-.4-.9-.9-.9h-4.4zm0 4.2h4.5q1 0 1-1c0-1-.4-1-1-1h-4.5zm7.1-3.2q1 1 1 2.3c0 1.8-1.4 3.2-3.2 3.2H7.9V32.6h7.2c1.7 0 3.1 1.4 3.1 3.1q0 1.1-.7 1.9M43 45.3v2.3h-7v1.8h6.8v2.3H36v2h7V56h-9.5V45.3zm-1.8 16.3q0-1-1-1h-4.3v2h4.3q1 0 1-1m-7.8 7.3V58.4h7c1.8 0 3.2 1.5 3.2 3.3q-.1 2.2-2 3l3.2 4.2h-3l-3-4h-2.9v4z"/><path fill="currentColor" d="M38 5a33 33 0 1 1 0 66 33 33 0 0 1 0-66m0-5a38 38 0 1 0 0 76 38 38 0 0 0 0-76"/></svg>