<svg xmlns="http://www.w3.org/2000/svg" viewBox="0 0 881 448"><path d="M720.38 217.47c5.18 5.95 7.9 14.01 7.93 22.02-.03 8-2.74 16.07-7.93 22.03a27 27 0 0 1-9.21 6.92 22 22 0 0 1-10.86 1.86c-7.3-.65-13.5-5.08-17.39-10.88-3.96-5.8-5.87-12.88-5.9-19.93.03-7.06 1.96-14.12 5.92-19.92 3.88-5.8 10.07-10.22 17.37-10.87 3.61-.32 7.38.3 10.85 1.85a27 27 0 0 1 9.22 6.91m-594.54-92.03c6.77-2.74 13.52-1.85 15.07 1.99q.16.42.24.89a14 14 0 0 0-3.75-.58c-2.45-.07-4.68.23-6.86.62q-3.27.62-6.36 1.58a41 41 0 0 0-6.02 2.33c2.1-.3 4.21-.35 6.3-.33q3.16.06 6.2.46c2.01.28 4 .68 5.7 1.31.83.3 1.58.69 2.05 1.08a20 20 0 0 1-6.96 4.54c-6.78 2.73-13.52 1.84-15.07-2s2.68-9.16 9.46-11.9m-94.5 148.75c0-5.43 1.1-9.82 2.43-9.82s2.42 4.4 2.42 9.82S35.1 284 33.77 284c-1.34 0-2.42-4.4-2.42-9.83m259 47.13c0-8.55 3.72-15.49 8.3-15.49s8.3 6.94 8.3 15.49-3.71 15.48-8.3 15.48c-4.58 0-8.3-6.93-8.3-15.48M206.64 92.17l-72.04 1.34c0-.9 3.14-9.2 11.9-11.45s49.82-6.73 52.96-4.03c3.14 2.69 7.18 14.14 7.18 14.14m258.81 261.98-13.97.14-13.97-.15c-4.65-.15-9.31-.2-13.97-.45-9.31-.4-18.62-.98-27.94-2.1a370 370 0 0 1 27.94-2.09c4.66-.25 9.32-.3 13.97-.45l13.97-.15 13.97.14c4.66.16 9.32.2 13.97.46 9.32.39 18.63.98 27.94 2.1a361 361 0 0 1-27.94 2.1c-4.65.25-9.3.3-13.97.45m-24.2-31.13c4.78-.25 9.55-.3 14.32-.45l14.3-.15 14.32.14c4.77.15 9.53.2 14.3.45 9.54.4 19.08.98 28.62 2.1a377 377 0 0 1-28.61 2.1c-4.78.26-9.54.3-14.31.45l-14.31.15-14.31-.15c-4.77-.15-9.54-.2-14.31-.46-9.54-.39-19.08-.97-28.62-2.09 9.54-1.11 19.08-1.7 28.62-2.09m323.3 42.33-79.17 3.47-79.16 4.06-39.56 2.24-28.62 1.8c-6.94-1.3-30.5-4.13-35.18-6.47-6.28-3.14-5.38-14.21-.44-14.51s16.6-.75 13.91-4.34c-2.7-3.6-24.69-8.08-24.69-8.08s6.29-9.88 13.47-11.22c7.18-1.35 29.17-1.8 32.31-3.6s-13.9-7.63-33.2-8.97c-.9-4.94 3.13-8.08 3.13-8.08l69.8-1.8S529 271.47 440.43 293.68c-14.3 3.6-56.5 43.32-55.15 71.6s100.54 19.07 115.35 18.17 25.58-5.83 37.25-5.83c2.09 0 2.49-.13 1.75-.36l27.1-.84 39.6-1.49c26.4-1.02 52.79-2.3 79.18-3.43 26.39-1.36 52.78-2.6 79.16-4.1 26.37-1.52 52.76-2.95 79.1-5.04l-39.6 1.42zm-171.92-51.9c13.47-1.35 195.25-11 205.35-8.3 10.1 2.68 34.79 43.08 36.24 46.45 1.46 3.36-127.13 8.97-160.12 11.22s-143.08 6.99-137.57 0c6.63-8.41 42.64-48.03 56.1-49.38m-130.4-105.45a17 17 0 0 1 5.29 12.32c0 4.62-1.95 9.19-5.3 12.32a17 17 0 0 1-12.32 4.63 17 17 0 0 1-11.64-5.31 16.9 16.9 0 0 1 0-23.28 16.8 16.8 0 0 1 11.64-5.3c4.44-.18 9 1.47 12.33 4.62M242.2 306.12q.33-2.78.77-5.55l.01-.06.14-.8a128 128 0 0 1 8.52-29.68c1.44 3.67 3.6 6.9 5.74 10.06a119 119 0 0 0 16.17 18.37 76 76 0 0 0 9.06 7.23 37 37 0 0 0-2.6 9.51 45 45 0 0 0-6.18-3.27 73 73 0 0 0-10.31-3.48q-5.25-1.35-10.66-2.01c-3.5-.4-7.03-.63-10.66-.32M19.3 285.95a9 9 0 0 0-1.48 3.62q-.17-2.53-.26-5.06-.43-9.8.05-19.6a27 27 0 0 0 5.36 3.89q1.52.85 3.09 1.6l2.22 1.04a61 61 0 0 0 .08 6.8 17 17 0 0 0-3.35 1.9q-1.66 1.2-3.1 2.64a21 21 0 0 0-2.6 3.17m1.52-20.64q-1.52-.54-3.2-.7.54-10.75 2.32-21.34l.17-.97c.26 1.74.72 3.41 1.2 5.06q.93 3.03 2.12 5.96a74 74 0 0 0 2.62 5.74c.9 1.78 1.88 3.52 3.04 5.2a48 48 0 0 0-.76 5.98q-.59-.73-1.26-1.34-1.38-1.23-2.96-2.11-1.58-.9-3.3-1.48m845.62 64.73c-1.03.88-2.32 1.28-3.52 1.8a49 49 0 0 1-3.73 1.16c-2.5.69-5.04 1.18-7.58 1.61a73 73 0 0 1-15.47.96 58 58 0 0 1 7.48-2.15 133 133 0 0 1 15.17-2.49c2.55-.33 5.12-.38 7.65-.89m-8.79-18.14c-2.98.56-5.99.9-9 1.19-6.01.5-12.04.64-18.12.12a66 66 0 0 1 8.93-1.77 176 176 0 0 1 17.95-1.63c3-.17 6-.16 9.03-.42-2.78 1.36-5.82 1.94-8.79 2.51m7 46.87c0 1.73-3.58 6.15-7.4 6.78-4.22.7-22.94 1.58-29.8 1.86l-2.78.12-.88 2.62a23 23 0 0 1-.66 1.68l-133.56 11.3q-1-1.02-1.9-2.12l-1.28-1.58-2.04.1c-5.9.28-144.68 6.85-155.03 7.52-8.82.57-17.33 4.48-22.42 6.82-1.2.55-2.24 1.03-2.94 1.3-5.6.81-62.09.34-96.74-.16l-2.72-.04-1.06 2.5q-.4.93-.89 1.92c-20.76-1.09-47.04-10.56-50.49-13.24-4.03-3.14-3.14-82.14-17.5-123.88-7.42-21.57-14.49-40.6-23.1-53.48q-3.38-.96-6.8-1.34a33 33 0 0 0-6.77-.19l-3.34.3c-1.11.08-2.2.41-3.28.6l-1.64.34c-.53.13-1.05.35-1.58.52-1.05.35-2.12.65-3.16 1.02-2.01.95-4.1 1.7-5.98 2.93-3.92 2.09-7.44 4.94-10.76 7.93-1.58 1.6-3.3 3.06-4.74 4.83l-2.24 2.55-2.08 2.7c-2.86 3.55-5.23 7.48-7.62 11.4-4.64 7.96-8.38 16.49-11.75 25.3a91 91 0 0 1 8.04-27.24 84 84 0 0 1 7.23-12.47q1.04-1.5 2.13-2.94l2.35-2.78c1.5-1.9 3.33-3.54 5.02-5.3 3.68-3.2 7.56-6.28 12-8.46 2.15-1.24 4.54-1.98 6.82-2.9q1.8-.5 3.6-.94c.6-.14 1.19-.31 1.8-.41l1.84-.22c1.24-.1 2.45-.35 3.68-.35q1.86.01 3.7.06a35 35 0 0 1 7.22 1.12q2.41.68 4.7 1.64c-7.7-10.6-16.7-16.32-28.25-14.7-25.59 3.6-37.7 41.75-44.89 73.62q-.73 3.28-1.3 7.06c1.23-13.62 3.33-27.19 6.94-40.34a134 134 0 0 1 6.73-19.26q2.07-4.65 4.65-9.03a62 62 0 0 1 5.87-8.2 43 43 0 0 1 7.32-6.8 35 35 0 0 1 8.78-4.52 35 35 0 0 1 9.74-1.53c3.27-.03 6.52.64 9.57 1.84 6.13 2.42 11.28 6.97 15.6 12.05 4.34 5.14 7.93 10.92 11.1 16.9 6.37 11.98 11.16 24.81 15.2 37.83 4.05 13.02 7.24 26.32 10.08 39.68 2.78 13.38 5.12 26.84 6.4 40.47a825 825 0 0 0 5.86 40.67 1089 1089 0 0 1-4.55-40.8c-1.01-13.67-3.14-27.28-5.67-40.75a388 388 0 0 0-9.77-40c-4-13.13-8.75-26.11-15.17-38.37-3.28-6.08-6.98-11.98-11.52-17.3-4.53-5.25-9.97-10.06-16.66-12.66a28 28 0 0 0-10.49-1.95 37 37 0 0 0-10.45 1.71 36 36 0 0 0-9.37 4.92 45 45 0 0 0-7.57 7.28c-4.46 5.4-7.8 11.54-10.5 17.88a133 133 0 0 0-6.45 19.6 217 217 0 0 0-5.67 40.68c-1.17 7.67-1.83 16.67-2.17 26.02q-12.72-1.7-25.28-4.1l-.03-1.77c.06-3.98.34-8 1.13-11.85q.29-1.44.73-2.83c.14-.42.26-1.01.39-1.55q.2-.82.26-1.6.2-1.56.23-3.1.09-1.54.07-3.07c.02-4.08-.14-8.12-.34-12.16-.43-8.09-1.07-16.14-1.63-24.18-.58-8.03-1.3-16.13-1.33-24.06.12-7.95 1.31-15.9 3.1-23.7.92-3.89 1.99-7.76 3.35-11.51a31 31 0 0 1 2.39-5.36c.6-1.14.74-2.18.88-3.21q.2-1.55.23-3.09c.06-2.96-.07-5.9-.26-8.82q12.19.47 24.34 1.27a618 618 0 0 1 40.18 3.79c13.33 1.77 26.6 3.96 39.66 7.16a187 187 0 0 1 27.6 8.79 15 15 0 0 0-2.52 2.46v-.01c-2.94 3.68-3.37 8.27-1.78 13.3q.17 2.63.68 5.22c.62 3.08 1.59 6.1 2.83 9a54 54 0 0 0 4.62 8.25c7.33 10.37 17.86 17.97 28.97 23.77 11.12 5.94 23.2 9.75 35.2 13.16a807 807 0 0 0 36.32 9.33 971 971 0 0 0 36.7 7.59 833 833 0 0 0 36.97 6.17 726 726 0 0 0 37.22 4.43c6.22.53 12.46.94 18.7 1.13a140 140 0 0 0 9.39-.01q2.34-.09 4.67-.38c.77-.13 1.56-.18 2.31-.4q.58-.13 1.13-.3l.66-.3a100 100 0 0 0 7.55 1.36c36.75 6.9 109.54 6.62 129.99 4.25 23.34-2.69 59.7-6.73 71.36-26.47 3-5.07 5.46-11.12 7.23-17.34-.74 5.94-.95 12.48 1.65 12.85 4.5.62 27.98-7.68 32.44-15.85a55 55 0 0 1 3.78 5.03c.26.86.98 2.91 3.08 8.85 3.48 9.87 9.52 26.96 12.59 37.03-14.07-12.18-44.34 10.71-43.94 15.2.82 9 5.35 44.94 25.14 56.11 4.18 2.36 9.18 1.2 13.02-.66a21 21 0 0 0-.23 2.46m-761.38-40.98q-.95-.3-2-.55l-1.86-.51v.09c-9.23-1.72-22.6-1.51-23.82-2.27-4.38-2.69-14.48-10.77-12.12-19.18.94-3.35 1.12-7.93.9-12.67 7.99 2.46 25.28 7.77 46.19 14.15q.35.9.71 1.77-.29-.86-.56-1.73c41.53 12.68 97.23 29.54 122.53 36.61.22 7.77.53 14.8.83 20.4zM8.68 208.82c1.26-12.15 15.9-59.07 18.02-63.75 1.1-1.85 8.82-7.6 14.46-11.8 8.13-6.05 16.54-12.3 20.1-16.86v-.01l3.22-.13 12.2-.65c8.13-.44 16.25-.93 24.39-1.22 8.12-.4 16.26-.6 24.4-.73q10.43-.15 20.88.08c2.53.34 5.6.43 9.35.17 19.97-1.34 49.37-1.25 50.72.95 1.34 2.2-1.13 16.33-2.92 16.56-1.8.22-9.2 8.87.9 10.27a130 130 0 0 0 11.52 1.21l.13 2.96q-7.4-.33-14.8-.53a952 952 0 0 0-40.7.15 822 822 0 0 0-49.96 2.99 46 46 0 0 0-.3-4.58c-.04-.51-.2-1.06-.3-1.58l-.3-.85c-.09-.19-.05-.18-.08-.22q-.02-.05-.02-.2a8 8 0 0 1 .6-2.6 48 48 0 0 1 2.51-5.35c1.87-3.52 3.97-6.93 6.22-10.24a80 80 0 0 1 3.54-4.84 37 37 0 0 1 1.94-2.28c.7-.7 1.39-1.49 2.34-1.82-.98.27-1.74 1.01-2.48 1.67a36 36 0 0 0-2.1 2.17 80 80 0 0 0-3.83 4.68 111 111 0 0 0-6.78 10.02 45 45 0 0 0-2.77 5.45c-.37.98-.79 1.92-.8 3.22-.05.26.17.86.23 1.04l.19.56c.06.47.18.9.21 1.39.14 1.49.16 3 .14 4.53a659 659 0 0 0-29.29 3.4 418 418 0 0 0-20.08 3.33c-6.65 1.29-13.3 2.78-19.71 5 3.3-.78 6.62-1.37 9.96-1.86l5.01-.71 5.03-.6q10.05-1.15 20.15-1.9c9.57-.78 19.15-1.36 28.74-1.84l-.18 2.5a129 129 0 0 1-1.56 11.8c-.17.98-.4 1.93-.6 2.88l-.8 2.9q-.74 3-1.19 6.01c-1.22 8.03-1.73 16.07-2.1 24.12q-.45 12.07-.16 24.16c.2 8.04.78 16.11 1.29 24.06.1 1.98.13 3.96-.05 5.87q-.13 1.44-.52 2.78c-.14.41-.27.74-.4 1.24l-1.54-.63-6.2-2.65a614 614 0 0 1-36.9-17.3 194 194 0 0 0-2.5-17.54c-2.02-10.29-4.66-20.56-9.26-30.12a39 39 0 0 0-4.2-6.78c-1.66-2.08-3.65-4.06-6.25-5.14a9 9 0 0 0-4.11-.58c-.68.07-1.36.1-2.03.2l-1.98.52a13.7 13.7 0 0 0-6.48 4.8c-3.22 4.4-4.3 9.8-4.89 14.98a86 86 0 0 0 .3 15.74 85 85 0 0 1 .36-15.66c.7-5.11 1.92-10.38 5.05-14.44a13 13 0 0 1 6.03-4.31l1.81-.47c.63-.08 1.26-.1 1.89-.16a8 8 0 0 1 3.6.52c2.27.96 4.13 2.8 5.7 4.8a38 38 0 0 1 4 6.59c4.6 9.31 7.23 19.53 9.45 29.72a205 205 0 0 1 2.67 15.45l.2 1.54-1-.52c-5.7-21.2-14.65-49.05-23.18-51.02C19.7 186.3 18 208.52 16.67 213.57c-1.04 3.9-1.48 41.37-1.62 58.2-4.3-13.76-7.65-50.65-6.37-62.95m54.99-95.5c5.76-7.42 15.35-19.76 25.56-32.07-9.52 14.99-16.68 29.3-16.68 29.3H91.4s17.55-46.8 26.44-60.58l1.13-1q1.23-1.06 2.48-2.1c-3.88 8.66-26.43 58.9-27.36 61.67 15.15 0 37.37-2.36 37.37-2.36-7.07-13.8 5.05-26.93 10.77-26.76s20.54-51.67 25.58-55.04c-4.72-.83-23.07 6.64-37.37 15.46a158 158 0 0 1 56.76-26.23q6.25-.06 11.58 2.55c6.56 3.24 10.38 8.83 11.77 12.98 1.32 3.97 5.92 23.59 10.37 42.56a3134 3134 0 0 0 7.38 30.97q-2.12 1.08-4.35 2.16l-.67-4.62c-.6-3.95-1.35-7.87-2.05-11.79-.8-3.9-1.56-7.82-2.44-11.71s-1.79-7.78-2.85-11.64c-2.03-7.93-8.1-31.02-11.42-37.67-4.04-8.08-20.2-8.08-29.29-6.4l-25.92 55.21s44.77-4.38 50.5-4.04 8.4 12.8 8.4 12.8l8.2-16.7q.63 4.32 1.37 8.63c.66 3.94 1.43 7.85 2.13 11.77l2.35 11.73 1 4.76c-7.44 3.52-15.2 6.27-18.18 2.24-5.84-7.85-72.26-5.16-72.26-5.16 1.68 3.54 2.48 9.1 11.24 11.09q-3.18-.22-6.36-.38a450 450 0 0 0-12.23-.33c-8.15-.09-16.3.13-24.45.43a772 772 0 0 0-24.4 1.53l-12.18 1.03-2.75.24zm-1.9 150.4c-.44-1.86-1.76-7.75-3.7-15.43q-.07-2.62-.27-5.26c11.23 7.16 23.03 13.46 35.01 19.29l6.12 2.95 3 1.34q.12 1.62.38 3.21c.3 2.02.74 4 1.22 5.95a165 165 0 0 0 6.38 19.48c-16.47-5.02-32.18-9.84-45.61-13.98a113 113 0 0 0-2.52-17.55m-5.29-21.53.75.49q.24 2.02.44 4.06-.56-2.22-1.19-4.55M25.94 299.7q-1.07 3.2-2.3 6.34c-.8 2.11-1.68 4.16-2.55 6.29-.08-2.32.35-4.6.83-6.8a70 70 0 0 1 4.26-12.9c.9-2.07 1.9-4.12 3.11-6.08-.32 2.29-.83 4.5-1.41 6.68a117 117 0 0 1-1.94 6.47m1.44 9.22a121 121 0 0 1 1.49-9.05c.62-3 1.35-5.98 2.35-8.9-.16 6.16-.83 12.2-1.54 18.24-.4 3.01-.77 6.03-1.25 9.04-.46 3-.92 6.02-1.6 9.03-.55-6.14-.17-12.28.55-18.36m6.81 22.28c-.42-.72-.5-1.59-.7-2.39q-.23-1.21-.4-2.44-.35-2.46-.58-4.92a161 161 0 0 1-.58-19.7c.1-3.28.28-6.57.7-9.86 1.03 6.55 1.38 13.1 1.61 19.65a269 269 0 0 1 .08 9.84l-.1 4.92-.08 2.46c0 .81-.13 1.67.05 2.44m11.87-23.5a36 36 0 0 1-2.83-4.97 61 61 0 0 1-3.97-10.57 36 36 0 0 1-1.14-5.6c1.1 1.59 2 3.26 2.83 4.96a62 62 0 0 1 3.97 10.57c.5 1.83.93 3.68 1.14 5.61m-15.23-49.33a99 99 0 0 1-4.14-16.5 107 107 0 0 1-1.08-8.42c-.2-2.82-.46-5.71.12-8.55.39 2.8 1.14 5.52 1.67 8.3.59 2.75 1.08 5.52 1.58 8.3.44 2.78.88 5.56 1.2 8.37.33 2.81.6 5.63.65 8.5m4.74-1.5a90 90 0 0 1-.19-9.48c.07-3.16.28-6.3.54-9.44.3-3.14.65-6.27 1.18-9.39a76 76 0 0 1 .92-4.66q.27-1.17.6-2.31c.26-.75.45-1.57.97-2.2-.3.73-.25 1.54-.33 2.31l-.12 2.35-.24 4.71a295 295 0 0 1-.67 9.4c-.6 6.25-1.3 12.5-2.66 18.71m2.43-1.45a49 49 0 0 1 2.97-10.5q.52-1.3 1.16-2.51.33-.61.71-1.21c.28-.37.5-.85.97-1.04-.27.34-.26.85-.37 1.28l-.23 1.34q-.24 1.33-.52 2.67a76 76 0 0 1-1.28 5.26c-1 3.48-2.17 6.9-3.83 10.22-.11-1.89.13-3.71.42-5.51m-21.4-15.26a85 85 0 0 1 1.16-13.1q1.04-6.52 3.22-12.82c1.56-4.13 3.38-8.33 6.7-11.63.84-.8 1.8-1.53 2.9-2 1.11-.5 2.4-.67 3.59-.47 2.4.52 4.09 2.27 5.24 4.1-1.54-1.52-3.38-2.92-5.38-2.97-1.98-.11-3.72 1.1-5.06 2.6a24 24 0 0 0-3.35 5.26 50 50 0 0 0-2.46 5.9 126 126 0 0 0-3.64 12.4 658 658 0 0 0-2.92 12.73m6.55 85.49c-2.98-6.45-4.5-13.34-5.73-20.21a172 172 0 0 1-2.17-20.82q-.37-10.47.3-20.92c.48-6.95 1.23-13.9 2.64-20.75 1.41-6.82 3.2-13.64 6.3-19.97.8-1.56 1.69-3.09 2.76-4.5 1.07-1.4 2.3-2.75 3.88-3.63a5.9 5.9 0 0 1 5.2-.44 10 10 0 0 1 3.97 3.37 10 10 0 0 0-4.09-3.05 5.4 5.4 0 0 0-4.76.65 12 12 0 0 0-3.49 3.6 28 28 0 0 0-2.44 4.5c-2.58 5.74-4.12 11.92-5.27 18.14a82 82 0 0 1 7.47 16.77 48 48 0 0 1 1.44 5.58c.8-3.83 2.02-6.53 3.44-7.29-.57-3.32-.9-6.66-1.16-10-.27-3.4-.39-6.8-.46-10.21-.03-3.41-.02-6.82.18-10.24q.12-2.55.4-5.11c.26-1.7.34-3.46 1.06-5.05-.21 1.67.02 3.38.08 5.08l.27 5.1q.23 5.08.32 10.18c.07 6.73.03 13.47-.65 20.23q.37-.2.77-.22c2.22 0 4.12 4.77 4.86 11.47q.5-1.2 1.22-2.16a14 14 0 0 1 3.97-3.66c.78-.48 1.61-.9 2.6-1.16a9 9 0 0 1-1.37 2.5 14 14 0 0 1-3.98 3.65 10 10 0 0 1-2.41 1.1 57 57 0 0 1 .16 10.06q1.05.15 1.97.48a15 15 0 0 1 4.8 2.74c.73.6 1.4 1.28 1.96 2.16a10 10 0 0 1-2.85-.59 15 15 0 0 1-5.94-3.86c-.42 4.86-1.43 8.84-2.75 10.99a134 134 0 0 1 3.67 16.76c.44 2.87.88 5.73 1.21 8.62l.5 4.32c.18 1.43.25 2.89.62 4.3-.85-1.24-1.24-2.69-1.73-4.07a70 70 0 0 1-1.17-4.23c-.7-2.84-1.24-5.7-1.71-8.57q-.7-4.3-1.1-8.66a79 79 0 0 1-.37-8.35c-.66 1.03-1.39 1.62-2.16 1.62-2.43 0-4.47-5.71-5.04-13.42a34 34 0 0 1-4.82 5.94 60 60 0 0 1-2.86 2.72c-.95.88-1.92 1.67-2.86 2.67q.47 7.69 1.67 15.29c1.1 6.78 2.66 13.53 5.27 19.82 1.36 3.06 3.01 6.2 5.62 8.08a5 5 0 0 0 4.35.86c1.5-.4 2.8-1.53 3.92-2.75 2.23-2.53 3.82-5.64 5.16-8.8a88 88 0 0 0 3.37-9.82c-.7 3.4-1.6 6.76-2.8 10.04-1.2 3.26-2.64 6.5-4.87 9.32-1.15 1.35-2.54 2.67-4.4 3.25-1.85.6-4 .2-5.54-.89-3.13-2.15-4.88-5.42-6.43-8.56m187.05-9.03c.4 1.98.83 3.97 1.43 5.91q.44 1.47 1.11 2.84.3.54.66 1.06c-27.23-7.99-67.02-20.03-103.22-31.08a178 178 0 0 1-5.37-19.85 74 74 0 0 1-1-5.88q-.14-1.13-.23-2.27l1.56.7 6.22 2.74 6.3 2.58 6.3 2.55 6.38 2.36c4.26 1.55 8.5 3.16 12.83 4.53l6.48 2.08q3.23 1.08 6.5 1.99c4.38 1.22 8.72 2.52 13.11 3.67l13.26 3.11c4.42 1.02 8.9 1.74 13.37 2.58a331 331 0 0 0 10.7 1.64l.1.9c.13 1.03.45 2.1.69 3.02q.35 1.45.64 2.91c.8 3.94 1.4 7.94 2.18 11.9m23 15.53c-5.3-1.5-11.96-3.42-19.63-5.66q-.37-.59-.64-1.2c-.4-.92-.67-1.89-.91-2.86a62 62 0 0 1-1.11-5.92c-.59-3.99-.99-8-1.6-12.02q-.22-1.5-.55-3.01c-.24-1.05-.48-1.92-.57-2.89l-.04-.48a278 278 0 0 0 25.03 2.2c-.33 10.73-.25 21.84.01 31.84m37.3 30a221 221 0 0 1-7.5 9.73c-2.58 3.21-5.31 6.2-7.88 9.57.5-4.3 2.45-8.2 4.34-11.91a92 92 0 0 1 6.69-10.56q3.66-5.03 7.89-9.63a70 70 0 0 1 9.25-8.52 87 87 0 0 1-5.9 11.08 166 166 0 0 1-6.89 10.24m4.74 27.82q.95-7.46 2.92-14.69 1.95-7.23 4.81-14.16a79 79 0 0 1 6.94-13.33c-.73 5-1.8 9.83-2.92 14.63q-1.71 7.19-3.63 14.26a708 708 0 0 1-3.97 14.15c-1.43 4.7-2.75 9.43-4.52 14.19a70 70 0 0 1 .37-15.05m24.42 19.43c.07.62.01 1.35.46 1.79-.36-.04-.57-.41-.76-.68q-.27-.45-.49-.9-.4-.93-.75-1.88c-.45-1.26-.79-2.55-1.15-3.83a93 93 0 0 1-1.6-7.73 169 169 0 0 1-2.03-31.22c.14-5.23.49-10.46 1.4-15.7a126 126 0 0 1 2.79 15.48c.69 5.17 1.13 10.34 1.47 15.52q.5 7.76.56 15.54c.05 2.6.02 5.19.04 7.78q-.03 1.95 0 3.9 0 .97.06 1.93m41.2-35.24a58 58 0 0 1-8.46-6.99 99 99 0 0 1-13.63-16.67 59 59 0 0 1-5.18-9.67 59 59 0 0 1 8.45 7 100 100 0 0 1 13.64 16.66 58 58 0 0 1 5.17 9.67m-52.29-77.76c-2.79-3.89-5.05-8-7.16-12.18q-3.1-6.3-5.53-12.88a110 110 0 0 1-4.07-13.47 68 68 0 0 1-1.2-7.02c-.1-1.2-.21-2.39-.19-3.6.03-1.2.07-2.5.65-3.6.03 1.2.43 2.26.83 3.35q.59 1.61 1.27 3.21c.86 2.13 1.8 4.24 2.68 6.38 1.77 4.26 3.5 8.55 5.08 12.9q2.41 6.5 4.41 13.18c1.3 4.48 2.52 9 3.23 13.73m20.82-17.05a128 128 0 0 1-4.55 14.7 99 99 0 0 1 .43-15.42q.7-7.65 2.18-15.16c1-5.02 2.2-10 3.83-14.89a69 69 0 0 1 2.78-7.26 41 41 0 0 1 1.84-3.48c.73-1.07 1.47-2.37 2.75-2.86-.47.48-.7 1.01-.88 1.63-.21.57-.34 1.2-.49 1.8q-.39 1.84-.7 3.7c-.44 2.48-.8 4.98-1.22 7.47q-1.16 7.48-2.63 14.93c-.98 4.96-2.05 9.92-3.34 14.84m5.16 11.36q1.97-4.58 4.57-8.81a61 61 0 0 1 5.86-8.06 38 38 0 0 1 3.58-3.6c.67-.56 1.33-1.11 2.07-1.59.74-.44 1.56-1.05 2.5-.94-.4.21-.6.54-.8.9-.22.32-.42.7-.6 1.05q-.56 1.08-1.08 2.2a212 212 0 0 1-2.17 4.37 124 124 0 0 1-4.77 8.49q-2.55 4.15-5.5 8.1a89 89 0 0 1-6.47 7.62c.33-3.5 1.57-6.65 2.81-9.73m-76.59 9.05.12-.63c2.5-13.56 6.72-26.92 13.6-38.97a87 87 0 0 1 12.4-17.04c4.86-5.09 10.48-9.56 16.85-12.67a42.5 42.5 0 0 1 20.5-4.33c3.5.15 6.97.8 10.28 1.87 3.3 1.1 6.44 2.61 9.36 4.45a42 42 0 0 0-19.67-4.9 40.4 40.4 0 0 0-19.25 5.26 54 54 0 0 0-8.3 5.66 68 68 0 0 0-7.18 7.04 86 86 0 0 0-11.31 16.68 111 111 0 0 0-3.54 7.49c3.05 2.51 6 5 8.79 7.68a142 142 0 0 1 16.1 18.31 82 82 0 0 1 6.12 9.63c2.72-6.07 6.95-10.36 11.84-11.55a112 112 0 0 1-3-15.72 168 168 0 0 1-1.3-16.17c-.17-5.4-.13-10.83.34-16.27q.3-4.07 1.04-8.14c.29-1.35.56-2.71.98-4.04.22-.67.44-1.33.74-1.98.31-.61.64-1.34 1.28-1.67-.4.55-.44 1.22-.5 1.88q-.07.99-.04 1.99.03 2 .18 4l.52 8q.58 8.02.84 16.05c.17 5.37.25 10.74.1 16.13a140 140 0 0 1-1.07 15.91q1.3-.32 2.66-.34c7.63 0 14.13 7.52 16.68 18.08a31 31 0 0 1 5.47-4.31 48 48 0 0 1 13.63-5.77c2.44-.58 4.93-1 7.64-.93a29 29 0 0 1-6 4.83 47 47 0 0 1-13.63 5.76 31 31 0 0 1-7 .92 42 42 0 0 1 .62 15.4q2.89-.02 5.68.31a62 62 0 0 1 16.5 4.32 38 38 0 0 1 7.71 4.21c-3.03.37-5.93.2-8.78-.11q-4.27-.52-8.4-1.6a62 62 0 0 1-8.1-2.74q-2.51-1.04-4.93-2.43c-1.45 7.61-4.92 13.83-9.43 17.2 2.38 4.15 4.33 8.42 6.18 12.72a240 240 0 0 1 5.21 13.53q2.4 6.83 4.5 13.73l2.1 6.9q.52 1.74 1.11 3.43c.4 1.13.78 2.27 1.51 3.26-1.14-.55-2.01-1.57-2.8-2.52-.82-.97-1.5-2.01-2.2-3.05a74 74 0 0 1-3.64-6.45c-2.2-4.4-4.04-8.92-5.65-13.5q-2.43-6.9-4.15-14a96 96 0 0 1-2.36-13.9 12.7 12.7 0 0 1-7.47 2.59c-8.35 0-15.33-8.98-17.28-21.1a66 66 0 0 1-8.03 5.3 122 122 0 0 1-9.25 4.72c-3.12 1.45-6.3 2.75-9.5 4l-4.82 1.82a34 34 0 0 0-2.42.94c-.85.3-1.54.7-2.4 1.12.38-.8.9-1.66 1.5-2.32.59-.74 1.26-1.35 1.91-1.98a36 36 0 0 1 4.25-3.32 63 63 0 0 1 9.24-5.15 75 75 0 0 1 9.84-3.7c3.1-.91 6.27-1.64 9.6-1.95a43 43 0 0 1-.27-10.42q-3.62-.55-7.2-1.21-5.25-.96-10.42-2.31-5.18-1.34-10.27-3.12a68 68 0 0 1-9.72-4.25 148 148 0 0 0-.67 28.1l.09 1.37q.2 2.63.51 5.25c1.49 13.43 4.98 26.66 10.76 38.78a82 82 0 0 0 10.68 16.93 58 58 0 0 0 6.92 7.13 47 47 0 0 0 8.01 5.77 43 43 0 0 0 9.03 3.86c3.16.9 6.43 1.36 9.71 1.44 6.6.2 13.18-1.56 19.17-4.54a59 59 0 0 0 16.08-12.25 95 95 0 0 0 12.25-16.48 83 83 0 0 1-11.2 17.42 61 61 0 0 1-15.89 13.61c-6.16 3.45-13.19 5.65-20.4 5.74-3.6.09-7.22-.33-10.72-1.2q-5.26-1.4-10.05-3.94a57 57 0 0 1-16.5-13.54 87 87 0 0 1-11.65-17.72c-6.25-12.69-9.9-26.47-11.54-40.4q-.4-3.65-.62-7.33l-.08-1.38a149 149 0 0 1 1.76-32.49zm-31.86-67.27c.62 8.06 1.27 16.1 1.77 24.13a202 202 0 0 1 .53 12.03q.04 1.5-.02 2.98a32 32 0 0 1-.35 4.32c-.09.45-.14.86-.3 1.4q-.42 1.52-.68 3.05a65 65 0 0 0-.8 12.25l.07 1.44q-4.8-.94-9.6-1.96a484 484 0 0 1-51.83-14.42c-4.3-1.31-8.5-2.87-12.73-4.37l-6.34-2.27-6.28-2.41-6.3-2.39-6.24-2.55-3.07-1.25c.1-.37.32-.9.48-1.36q.49-1.53.69-3.1c.26-2.08.27-4.13.24-6.16-.08-4.04-.3-8.04-.47-12.04q-.25-6-.34-12c-.1-8-.03-16.01.31-24s.82-15.98 1.93-23.85q.4-2.95 1.05-5.8l.75-2.93q.34-1.5.6-3.02a104 104 0 0 0 1.41-14.83l9.67-.45a1257 1257 0 0 1 96-.42c.04 2.94.02 5.88-.16 8.8-.08.99-.15 1.98-.31 2.94a8 8 0 0 1-.74 2.58 32 32 0 0 0-2.71 5.6c-1.52 3.8-2.72 7.68-3.77 11.61a107 107 0 0 0-3.64 24.16c-.07 8.21.65 16.22 1.18 24.3m-.07-222.27q3.56-.44 7.85-.76c16.44 8.58 18.8 54.62 28.24 72.6 9.28 17.71 15.64 22.73 16.11 23.09l-.46.31a34 34 0 0 0-4.28 3.32 12.5 12.5 0 0 0-3.2 4.4 7.4 7.4 0 0 0-.04 5.48c.64 1.77 1.8 3.25 3.06 4.57a16 16 0 0 0 4.45 3.24c3.29 1.61 6.77 2.65 10.23 3.67 6.94 2.01 14 3.49 21.02 5.07 7.04 1.54 14.07 3.07 21.07 4.72 14 3.23 27.95 6.88 41.35 12.04 6.68 2.59 13.23 5.6 19.31 9.41a59 59 0 0 1 8.03 5.96q-4.41-.1-8.28.12c-9.49.55-16.17 2.48-20.5 5.36-8.81-4.68-18.25-8.24-27.78-11.24-13.02-4-26.35-6.93-39.77-9.18-21.8-3.64-43.8-5.53-65.83-6.5q-.12-1.48-.28-2.96c3.67.13 6.39-.18 8.06-1.23 3.14-1.97 8.75-14.53 13.24-17.9s5.84-24.69 1.57-25.59c-1.4-.3-4.98 1.47-9.33 3.68-1.9-7.7-4.7-19.6-7.27-30.58-4.46-19-9.07-38.66-10.42-42.71-1.5-4.47-5.6-10.49-12.63-13.97a26 26 0 0 0-6.9-2.22q6.6-1.35 13.38-2.2m272.77 17.99c-73.91-16.8-233-13.23-248.58-13.02-.87-4.17-6.46-6.19-6.7-6.28 67.85-2.84 221.78 9.4 255.28 19.3m-8.67 23.67c8.53 1.9 60.6 25.92 90.22 55.54-6.19-3.14-72.04-7.62-81.13-7.02l-23.9-43.02c-3.6-13.7 6.28-7.4 14.81-5.5m-61.72 17.84c-7.4-6.06-25.36-5.83-25.36-5.83 2.02-2.25 3.15-7.4 18.4-6.73 4.5-2.25 2.03-5.17 5.62-5.17s9.2-1.12 11.44 3.6c2.25 4.7 22 43.98 19.75 44.43s-24.68.9-24.68-1.12 2.24-23.12-5.17-29.18M258.5 96.87c-3.15-6.29-17.74-37.7-14.15-41.3 0 0 65.3 6.06 70.25 11.68 4.93 5.6 2.24 22.44-2.25 22.21-4.49-.22-28.55-2.01-31.55 0-3.01 2.02-3.46 11-7.95 12.12s-11.22 1.57-14.36-4.71m357.3 5.03c6.81 5.15 9.95 12.69 10.56 17.57l.37 2.97 2.94.51c104 18.14 154.19 39.08 158.83 41.91.68.56 2.56 1.73 9.71 4.8a55 55 0 0 1 7.78 8.8c-11.03-4.32-22.77-6.59-34.44-8.42a462 462 0 0 0-38.58-3.83c-25.81-1.53-51.67-1.48-77.5-.96-25.81.77-51.62 2.06-77.36 4.18q-9.64.8-19.29 1.77c-6.42.66-12.85 1.3-19.26 2.26a94 94 0 0 0-11.4 2.37c-20.7-11.08-43.08-18.6-65.44-25.56-22.55-6.9-45.41-12.7-68.38-17.96a1627 1627 0 0 0-104.1-19.88c-11.58-1.75-23.15-3.55-34.77-4.99q1.16-.96 2.39-1.85l.58-.42c3.62-.05 68.5-.96 152.22-3.14 86.18-2.24 206.24 14.59 206.24 14.59s-9.49-8.45-24.13-20.24c9.22-.9 16.97.93 23.03 5.52m-71.8 107.99-2.02-.07 2-.23zm3.12 4.64-2.02-.1 2.01-.2zm264.13-16c-13.92-2.24-154.85-14.81-246.86-3.59-7.14.87-30.08 6.73-24.69 24.24q.3.95.66 1.94l.5-.05v.29l-.42-.01c5.97 16.2 24.74 39.02 49.06 50.17-21-6.41-43.8-17.37-57.9-24.38a53 53 0 0 0-4.92-6.3c-9.76-11.11-30.3-42.76-27.26-45.12s39.47 6.4 39.47 6.4l-21.18-5.94-16.6-4.65s-78.24-23.01-121.8-24.18a59 59 0 0 0-8.21-6.53c-6.06-3.96-12.6-7.1-19.29-9.82-13.41-5.4-27.42-9.05-41.43-12.39-14.03-3.27-28.22-5.85-42.11-9.47-3.45-.95-6.93-1.93-10.14-3.44a15 15 0 0 1-4.28-3 13 13 0 0 1-2.99-4.28 7 7 0 0 1-.12-5.07c.6-1.65 1.72-3.08 2.98-4.34a25 25 0 0 1 1.74-1.56c11.53 2.04 23.06 4.09 34.56 6.27q17.36 3.2 34.67 6.61c23.1 4.53 46.14 9.29 69.06 14.6 5.73 1.32 11.48 2.54 17.2 3.94l17.13 4.18c5.71 1.4 11.37 3 17.06 4.48l8.51 2.29 8.48 2.43c11.34 3.12 22.5 6.81 33.64 10.54l16.55 6.11 15.8 6.93a40 40 0 0 0-7.27 2.86q-1.03.69-2.04 1.4l-.88.9c-.3.28-.59.58-.79.96-1.05 1.33-1.31 3.1-1.29 4.71.17 3.3 1.48 6.31 1.86 9.52-.25-3.22-1.43-6.33-1.45-9.52.03-1.56.32-3.19 1.34-4.4q.3-.48.76-.87l.85-.8 1.98-1.28c5.74-2.77 12.21-3.74 18.56-4.55 12.77-1.53 25.66-2.4 38.52-3.27 25.73-1.68 51.5-3 77.27-3.55 25.77-.73 51.57-.76 77.32.34a467 467 0 0 1 38.5 3.07c6.4.72 12.76 1.8 19.08 3.02a139 139 0 0 1 15.69 4.29 85 85 0 0 1 8.48 14.4c1.97 4.36 3.1 8.14 3.38 11.14-1.47-3.12-3.68-5.18-6.74-5.67m3.36 12.68.04-.37 1.99.41zm-1.96 4.98.02-.4 2 .3zm-.67 5.33v-.46l2.02.23zm-1.85-16.73.03-.36 1.99.38zm1.86 22.36-.02-.45 2.03.1zm-9.83-22.44-3.97-.04.14-2.03 3.95.53zm1.5 23.49-4.18.36-.04-2.43 4.17.17zm-4.15-5.8.03-2.42 4.15.3-.02 1.9zm3.13-11.41.15-2.04 3.96.56-.12 1.54zm1.9 3.77-.06 1.7q-2.04.08-4.08.1l.08-2.2q2.03.17 4.07.4m-14.3-10.22-3.96-.1.18-3.07 3.96.37zm.88 24.53q-2.1.1-4.19.16v-3.53q2.08.03 4.17.13zm-4.08-6.31.06-3.53q2.07.08 4.15.21l-.06 3.24q-2.08.07-4.15.08m3.66-12.04.18-3.07 3.97.38-.18 2.8zm1.64 2.97-.1 3-4.07.03.1-3.3zm-13.99-9.45-3.97-.13.2-3.71 3.96.3zm.24 21.26-.02 3.9h-4.18l.04-3.97zm-4-2.77.08-3.97 4.14.12-.08 3.9zm4.17-12.34.19-3.71 3.98.29-.19 3.54zm1.37 2.6-.1 3.73-4.07-.02.1-3.89q2.02.07 4.07.18m-14.03 12.34-.06 3.97-4.17-.1.07-3.9zm.28-6.76-.1 3.97-4.14-.14.1-3.89zm.08-14.75-3.97-.16.2-3.98 3.96.22zm.37 6.14.18-3.98 3.98.2-.18 3.93zm1.08 2.61-.08 4.01q-2.03-.01-4.07-.08l.08-4q2.04 0 4.07.07m-14.3 12.76-.08 3.51q-2.1-.09-4.17-.24l.07-3.22q2.1-.06 4.17-.05m.34-6.84-.09 3.51q-2.07-.09-4.14-.25l.08-3.22q2.08-.06 4.15-.04m.64-15.2-3.96-.2.17-3.92 3.96.15zm.33 6.14.16-3.92 3.98.13-.17 3.98zm.8 2.97-.07 3.88-4.07-.15.06-3.72zm-14.61 13.17-.07 2.41-4.16-.38.05-1.88zm.4-6.86-.07 2.4-4.14-.37.05-1.89zm1.2-16.06-3.96-.25.14-3.54 3.97.08zm.29 6.14.13-3.54 3.98.06-.14 3.7zm.5 3.7-.06 3.3-4.06-.22.04-2.98zm-14.92 13.68-.02.45-2-.3zm2.25-24.33-3.96-.29.11-2.8 3.97.02zm-1.78 17.49-.02.45-2-.29zm2.02-11.33.1-2.79h3.98l-.1 3.06zm.2 4.87-.02 2.2-4.06-.3.02-1.7q2.03-.12 4.07-.2M719.15 207l.05-1.54 3.99-.12-.07 2.03zm-4.15-6.52.06-1.55 3.97-.1-.08 2.04zm-5.8 5.47 2.03-.13-.01.37zm-4.11-6.6 2.02-.11-.02.37zm-25.41.19v-.3l2.01.19zm-3.13 11.27 2.02.09-2.01.21zm-3.12-4.41v-.3l2.01.19zm-120.5 18.77.07 1.72-4.04-.05-.05-1.31zm-4.71-22.2 2-.23.02.29zm4.72 16.92.06 1.72-4.04-.05-.05-1.31zm-.86-9.8-.04-1.32 4.03-.35.06 1.72zm7.13 3.12.04 1.72-4.04-.1-.03-1.31zm-.87-9.98-.05-1.32 4.03-.35.06 1.72zm6.8 23.72h-4.04l-.09-2.42 4.04-.3zm-.1-8.01.1 2.73-4.04-.01-.09-2.41zm-.81-8.75-.1-2.42 4.04-.3.1 2.73zm7.1 2.2.06 2.74-4.04-.06-.06-2.41zm-.85-9.06-.1-2.42 4.04-.3.1 2.73zm6.8 23.54-4.04.03-.11-3.2 4.03-.25zm-.12-8.7.12 3.41-4.04.03-.11-3.2zm-.8-8.03-.1-3.2 4.03-.24.12 3.41zm7.08 1.6.1 3.42h-4.05l-.09-3.2zm-.83-8.45-.1-3.2 4.03-.25.12 3.41zm6.8 23.37-4.03.07-.13-3.7 4.04-.2zm-.12-9.11.13 3.83-4.04.06-.13-3.69zm-.79-7.58-.12-3.69 4.04-.2.12 3.83zm7.07 1.25.1 3.83-4.04.04-.1-3.7zm-.82-8.1-.12-3.7 4.04-.2.13 3.83zm6.8 23.23-4.04.1-.13-3.94 4.04-.15zm-.13-9.28.13 4-4.04.1-.13-3.94zm-.78-7.37-.13-3.94 4.04-.15.13 3.98zm7.06 1.13.1 3.99-4.04.08-.1-3.94zm-.82-7.99-.12-3.94 4.04-.15.13 3.99zm6.8 23.12-4.05.14-.11-4 4.04-.09zm-.12-9.23.12 3.95-4.05.14-.11-4zm-.8-7.38-.12-4 4.05-.1.12 3.96zm7.08 1.18.1 3.95-4.04.13-.1-4zm-.83-8.04-.12-4 4.05-.1.12 3.96zm6.8 23-4.05.19-.1-3.85 4.05-.03zm-.1-8.98.1 3.7-4.05.18-.1-3.84zm-.82-7.59-.1-3.84 4.05-.04.1 3.7zm7.1 1.41.1 3.7-4.06.18-.1-3.84zm-.85-8.27-.1-3.84 4.05-.04.1 3.7zm6.8 22.9-4.05.2-.08-3.43 4.05.01zm-.08-8.5.07 3.21-4.04.2-.08-3.42zm-.84-8.06-.08-3.42 4.05.01.07 3.21zm7.1 1.86.09 3.2-4.04.22-.1-3.42zm-.85-8.72-.08-3.42 4.05.01.07 3.21zm6.79 22.79-4.04.22-.05-2.74 4.05.09zm-.04-7.72.04 2.43-4.04.23-.05-2.74zm-.88-8.8-.05-2.76 4.05.1.04 2.42zm7.13 2.51.06 2.43-4.04.27-.07-2.75zm-.87-9.38-.06-2.74 4.06.08.04 2.43zm6.79 22.7-4.05.23-.01-1.73 4.05.17zm-.01-6.61v1.32l-4.04.23-.01-1.72zm-.91-9.92-.02-1.72 4.05.17.01 1.32zm7.15 3.42.04 1.33-4.04.32-.05-1.74zm3.9 7.23-2.02.1v-.29zm-4.8-17.5-.02-1.73 4.06.17v1.32zm-108.87 43.37-.02.37-2-.3zm4.38 5.62-.03.36-1.99-.36zm6.96 5.86-.04.37-1.98-.4zm-3.47-10.04.1-1.54 3.97-.01-.12 2.03zm8.58 4.42-.18 2.03-3.98-.6.14-1.54zm3.27-3.1.17-2.79 3.97.1-.18 3.06zm.82 14.76-.04.4-1.98-.4zm-1.6-4.29.16-1.54 3.87.15-.2 2.03zm8.32 10.03-.04.32-1.97-.46zm-3.02-14.3.24-2.78 4.01.21-.26 3.06zm35.99 3.59.31-3.98 4 .34-.3 3.92zm-.41 13.6 4.05.41-.43 3.52-4.05-.57zM614.03 249l.22-3.98 3.96.24-.2 3.92zm-1.87 12.43.36-3.9 3.86.32-.37 3.97zm.21 4.95.34-3.7 4.17.3-.34 3.86zm-8.02-4.26-.31 3.28-4.16-.54.28-2.97zm.47-5.21-.36 3.69-3.84-.45.33-3.53zm1.28-8.34-3.96-.26.22-3.91 3.96.19zm.77 6.61.32-3.9 4 .29-.32 3.97zm3.47 13.8-.37 2.87-4.03-.68.34-2.57zm-18.56-7.5-.2 2.19q-2.08-.3-4.15-.66l.16-1.68q2.1.05 4.2.15m1.43-5.38-.3 3.06-3.84-.52.28-2.78zm.99-8.34-3.96-.3.2-3.54 3.97.14zm.66 6.24.3-3.53 4 .25-.3 3.7zm3.27 13.86-.25 1.85-4.02-.79.2-1.4zm-219.5-64.84c0 1.56-.02 3.12-.14 4.67-.17 1.54-.33 3.09-.62 4.62-.31-1.54-.5-3.06-.7-4.59l-.63-4.54c-.48-3-.9-5.98-1.73-8.8-.75-2.83-1.86-5.56-3.76-7.53a9 9 0 0 0-3.54-2.18c-1.38-.5-2.93-.68-4.45-1.06 1.54-.21 3.1-.4 4.73-.23a9.5 9.5 0 0 1 4.62 1.88c2.74 2.15 4.13 5.35 4.99 8.4.48 1.54.65 3.1.94 4.66.1 1.57.3 3.13.3 4.7m23.22 4.72c0 1.56-.02 3.12-.14 4.67-.17 1.55-.33 3.1-.62 4.62-.31-1.53-.5-3.06-.7-4.59l-.63-4.53c-.48-3-.9-5.99-1.74-8.8-.74-2.84-1.86-5.56-3.76-7.54a9 9 0 0 0-3.54-2.18c-1.37-.5-2.92-.68-4.44-1.06a19 19 0 0 1 4.72-.22 9.5 9.5 0 0 1 4.63 1.87c2.74 2.15 4.12 5.35 4.99 8.4.47 1.54.64 3.1.93 4.67.11 1.56.31 3.12.3 4.69m23 5.33c0 1.56-.01 3.12-.14 4.67-.17 1.55-.33 3.1-.62 4.63-.31-1.54-.5-3.07-.7-4.59l-.63-4.54c-.48-3-.9-5.99-1.73-8.8-.75-2.83-1.86-5.56-3.76-7.53a9 9 0 0 0-3.54-2.18c-1.38-.5-2.93-.69-4.45-1.06 1.54-.22 3.1-.4 4.73-.23a9.4 9.4 0 0 1 4.62 1.88c2.74 2.15 4.13 5.35 4.99 8.39.48 1.54.65 3.11.94 4.67.1 1.57.3 3.13.3 4.7m42.66 7.22c.04 4.62-1.8 9.22-5.03 12.59a18.2 18.2 0 0 1-12.59 5.7 18.5 18.5 0 0 1-13.27-5.02 19 19 0 0 1-4.2-6.04 19 19 0 0 1-1.5-7.23c0-4.97 2.1-9.9 5.7-13.28a18.25 18.25 0 0 1 25.87.69 18.2 18.2 0 0 1 5.02 12.59m-85.34-44.67q11.45 1.42 22.87 3.1c15.23 2.3 30.4 5.14 45.3 9.23 7.44 2.12 14.83 4.5 21.9 7.8a58 58 0 0 1 10.16 5.92c3.14 2.44 5.9 5.04 8.76 7.68a208 208 0 0 1 16 16.71c2.47 2.97 4.85 6.02 6.98 9.25a40 40 0 0 1 2.9 5.03q.31.7.58 1.45l.01.05q.22.6.37 1.24c.2.92.3 2.02-.33 2.8.57-.82.4-1.86.14-2.75q-.43-1.36-1.14-2.6a41 41 0 0 0-3.11-4.81 107 107 0 0 0-7.38-8.79 211 211 0 0 0-20.77-19.79c-1.46-1.23-2.94-2.5-4.42-3.57a55 55 0 0 0-9.81-5.51c-6.9-3.13-14.2-5.47-21.56-7.52-14.73-4.1-29.81-7.02-44.91-9.78q-11.34-2.04-22.73-3.84l-22.75-3.76c7.66.72 15.3 1.6 22.94 2.46m-11.72 42.65c30.3 20.87 126.57 39.05 146.77 39.05 14.22 0 17.92-2.67 15.46-8.13 17.06 8.44 45.15 21.69 68.25 26.74l-.64.25c-.37.12-.76.17-1.14.26-.76.19-1.54.2-2.31.3q-2.32.19-4.66.17c-3.12.03-6.23-.13-9.34-.3-6.22-.39-12.42-1-18.61-1.72a745 745 0 0 1-37.04-5.17c-24.6-4-49.1-8.65-73.38-14.34a802 802 0 0 1-36.26-9.06c-12-3.28-23.84-7.08-34.92-12.64-11.04-5.48-21.47-12.74-28.84-22.69a54 54 0 0 1-4.77-7.91 44 44 0 0 1-3.05-8.73q-.32-1.36-.53-2.75c3.64 8.56 12.68 18.17 25 26.67m255.47 31.2.2-3.7 3.96.28-.18 3.55zm-2.2 13.03.34-3.97 3.86.37-.34 3.91zm1.49 1.14q2.09.15 4.17.35l-.34 4q-2.1-.16-4.18-.36zm9.47 7.8-.44 3.89-4.06-.5.44-3.83zm-3.79-14.5.28-3.7 4 .37-.25 3.54zm10.94-7.14-3.98-.05.15-3.08 3.96.33zm-6.52 13.56.3-3.7 3.86.4-.28 3.54zm2.41 1.39 4.17.41-.3 3.72-4.18-.26zm12.5 1.26 4.18.46-.22 2.98-4.2-.14zm-.43-16.24.08-2.04 3.96.4-.06 1.56zm-2.62 11.12 3.85.42-.2 2.8-3.88-.14zm-.32 11.82-.42 4-4.07-.43.43-4zm-3.9-15.23.21-3.07 4 .4-.18 2.8zm27.33 6.53.01-.38 2 .25zm-3.14-6.57.01-.36 2.01.24zm-.02 17.4 4.06.4-.26 3.4-4.09-.25zm-4.4-7.43q2.1.22 4.17.5l-.1 1.68q-2.1.03-4.2.02zm-.97-18.04.01-.37 2.02.24zm-6.72 8.35.11-2.04 4 .46-.08 1.55zm3.98 16.26-.35 3.85-4.08-.36.38-3.9zm-.43-9.73.13-2.04 3.84.47-.09 1.56zm18.66 4.93-2.02.14.02-.4zm6.12 7.3-.15 2.6-4.1-.1.19-2.9zm12.2 1.16-.05 1.42-4.1.07.08-1.87zm10.18.88-2.02.16v-.32zm22.27-24.2-.2-3.03 4.29-.45.22 3.35zm1.01 11.22.04.54-2.06-.13zm-2.8 7.68-2.07-.15 2.04-.37zm-2.66-11.59-.16-1.92 4.11-.6.2 2.45zm32.91-15.04-.23-4.06 3.92-.2.23 4zm-2.6 6.55-.26-4.07q2.15-.16 4.3-.27l.26 4.08q-2.15.15-4.3.26m-3.8 13.02-.24-3.56 4.18-.41.26 3.81zm2.63 3.13.29 3.8-4.46.2-.25-3.55zm-.44-13.05.34 4.03-4.14.31-.33-3.95zm-7.53-8.98-.25-3.99 3.92-.27.24 4.05zm-3.78 6.57-.25-3.78 4.3-.36.25 3.94zm-3.47 12.49-.15-2.16 4.17-.58.18 2.75zm1.95 4.44.19 2.74h-4.46l-.14-2.15zm.44-13.25.3 3.57q-2.07.15-4.15.2l-.27-3.28q2.05-.27 4.12-.49m-6.9-9.7-.24-3.6 3.92-.34.23 3.77zm35.25-2.02-.2-3.78 3.93-.12.18 3.61zm-1.44 6.49-.24-3.95 4.32-.18.22 3.8zm-5.92 7.3-.34-4.04 4.14-.31.34 3.96zm5.48 12.58q-2.23.21-4.45.37l-.33-4.06q2.2-.22 4.43-.38zm-3.7-6.6-.27-4.07q2.08-.16 4.18-.28l.28 4.06q-2.1.18-4.19.29m17.17-23.82 3.93-.04.13 2.85-3.91.33zm-.32 6.13 4.32-.08.17 3.04-4.3.4zm-.2 19.26.35 3.55-4.43.56-.35-3.81zm-.17-6.53.24 3.56-4.18.42-.26-3.82zm-5.86-2.31-.31-3.58q2.07-.14 4.15-.21l.28 3.29q-2.05.28-4.12.5m19.31-8.3-.1-2.25q2.15 0 4.32.06l.07 1.73a211 211 0 0 1-4.29.46m.05 16.4.26 2.14-4.4.81-.3-2.74zm-1-24.62 3.94.11.04 1.6-3.91.37zm-6 14.88-.22-2.46 4.17-.1.17 1.93q-2.06.33-4.12.63m6.1 3.79.15 2.16-4.17.59-.18-2.76zm8.25-6.32-2.03.43-.04-.47zm2.26 6.68-2.03.42-.04-.54zm-6.17-24.87a440 440 0 0 1-16.28 2.2 703 703 0 0 1-32.65 2.87q-9.46.6-18.93 1.05l-.04.65-.07.68a39.4 39.4 0 0 1-6.7 18.91 31 31 0 0 1-8.9 8.62 26.4 26.4 0 0 1-12.2 4.07c-4.4.32-8.97-.52-13.07-2.41a32 32 0 0 1-10.7-8.18c-5.09-5.93-8-13.48-8.74-21.17q-25.76-.19-51.52-1.7-16.35-.94-32.68-2.74-4.08-.48-8.15-1.04-4.07-.52-8.13-1.2c-5.4-.94-10.84-1.88-16.07-3.53l4.08.29 4.09.14q4.07.14 8.15.14c5.44.01 10.87.06 16.3-.05 10.87-.05 21.74-.28 32.6-.37q25.88-.36 51.75-.57a40 40 0 0 1 2.9-9.5l-.82.05v-.3l.9.09a36 36 0 0 1 5.31-8.38 32 32 0 0 1 10.71-8.18c4.11-1.9 8.7-2.74 13.1-2.42a26.4 26.4 0 0 1 12.2 4.08 29 29 0 0 1 6.48 5.6l.05-.01v.04q1.27 1.44 2.36 2.99a39 39 0 0 1 6.3 15.84l19.2.1 32.61.26c5.45.1 10.88.07 16.32.1 2.72-.02 5.44 0 8.15-.11 2.73-.03 5.43-.17 8.15-.53-5.19 1.84-10.67 2.68-16.06 3.61m7.39 6.78v-.39l2.05.18zm4.07 5.56-2.05.26-.02-.4zm9.37-71.04 2.6 3.03.78.37c.76.36 1.77.86 2.93 1.45 1.06 6.15 1.73 17.06-3.47 28.23q-.22-1.31-.52-2.5c.91-4.66-1.59-11.3-3.4-15.31a87 87 0 0 0-7.5-13.07l.67.24-.7-.28a70 70 0 0 0-6.59-8.26 722 722 0 0 0 15.2 6.1m11.08 63.54a40 40 0 0 0 4.44-5.78 46 46 0 0 0 3.46-6.39 41 41 0 0 0 2.5-6.76 39 39 0 0 0 1.44-7.03c.32-2.37.28-4.73-.03-7-.38-2.24-1.15-4.49-2.76-5.94a4.4 4.4 0 0 0-2.93-1.26 5.4 5.4 0 0 0-3.35 1.13 5.3 5.3 0 0 1 3.24-2.25 5.8 5.8 0 0 1 4.18.75c2.52 1.55 3.94 4.24 4.7 6.85 1.44 5.36.79 10.79-.6 15.87a39 39 0 0 1-7.32 13.89 30 30 0 0 1-5.7 5.41c-2.13 1.47-4.64 2.78-7.25 2.71 2.43-.82 4.3-2.44 5.98-4.2m-1.52-43.3q.57-3.51 1.27-7.04l.75-3.55c.28-1.2.57-2.35.7-3.62.75 1.1 1 2.42 1.27 3.64q.35 1.87.44 3.75.16 3.75-.44 7.48a31 31 0 0 1-2.12 7.25c-1.02 2.3-2.4 4.64-4.53 6.16a63 63 0 0 0 1.5-7.1zm53.31 90.7c-2.28-8.8-9.68-29.73-14.1-42.24-1.43-4.06-2.78-7.9-2.94-8.44-.2-.8-.65-2.6-8.95-12.3-.57-8.75-2.5-31.34-7.6-37.36-4.87-5.75-18.02-12.36-21.66-14.13l-2.8-3.26-.94-.37c-11.92-4.65-25.35-10.2-27.19-11.47q.2.15.3.26c-3.28-3.28-55.36-24.9-160.08-43.4a36 36 0 0 0-13.16-20.02c-7.97-6.02-18.4-8.42-30.22-6.97l-3.73-2.95c-18.92-15.06-63.23-50.3-103.13-64.29C450.81 9.75 262.04-4.86 205.03 2.18c-34.55 4.27-65.29 17.96-91.37 40.69-16.98 14.8-44.58 50.31-56.36 65.47l-2.4 3.09c-2.88 3.7-11.2 9.89-18.55 15.35-10.95 8.16-15.56 11.78-16.95 14.86-2.32 5.1-17.34 52.72-18.75 66.34-.96 9.34 1.2 61.27 10.3 73.46.34 65.15 21.59 71.84 24.03 72.4l.2.04c1.38.23 33.79 5.77 46.29 5.77 7.99-.33 17.43-12.13 22.38-24.09 1.82-2.91 3.38-5.69 4.6-7.97l120.61 33.3c6.5 27.01 25.36 71.6 57.99 78.57 15.45 3.3 40.18 7.85 59.19 7.85 6.52 0 12.37-.54 16.93-1.85 18.81-5.37 39.17-27.68 46.55-42.34 42.8.6 93.22 1.01 96.8-.28.99-.36 2.21-.93 3.76-1.64 4.58-2.1 12.25-5.62 19.57-6.1 9.62-.62 135.53-6.6 152.92-7.42 11.95 13.35 32.53 20.5 64.49 22.46 31.94 1.98 72.8-11.78 83.15-34.78 6.78-.3 23.57-1.08 28.17-1.85 7.14-1.18 14.15-8.5 14.15-14.72.03-.97.86-6.15 1.66-11.16 4-25.15 7.73-50.46 5.4-59.46" fill="currentColor"/></svg>