<?xml version="1.0" encoding="UTF-8"?><svg xmlns="http://www.w3.org/2000/svg" xmlns:xlink="http://www.w3.org/1999/xlink" width="2048px" height="730px" viewBox="0 0 2048 730" version="1.1"><title>car2</title><g id="car2" stroke="none" fill="none" fill-rule="evenodd" stroke-width="1"><g id="Group" transform="translate(1024, 365) scale(-1, 1) translate(-1024, -365)" fill="#000000"><path d="M1579,673.5 L1539,669.5 L1506,656.5 L1475.5,633 L1448,592.5 L1421,592.5 L1416,601.5 L1398,602.5 L636,611.5 L584,611.5 L578,592.5 L548,592.5 L527.5,625 L490,656.5 L449,671.5 L398,671.5 L343,646.5 L320.5,625 L299,592.5 L275,592.5 L273.5,608 L268,612.5 L210,608.5 L141,597.5 L78,568.5 L74.5,544 L80.5,458 L101.5,385 L115,369.5 L148.5,353 L156,321.5 L160.5,324 L160,350.5 L270,321.5 L412,296.5 L576,277.5 L655,274.5 L891,145.5 L949,120.5 L994,109.5 L1184,92.5 L1309,93.5 L1419,103.5 L1493,118.5 L1578,147.5 L1692,195.5 L1774,238.5 L1832,241.5 L1928,262.5 L1963,264.5 L1986.5,293 L1991.5,311 L1989.5,346 L2029.5,439 L2027.5,496 L2002,545.5 L1732,595.5 L1695,592.5 L1676.5,623 L1652,646.5 L1617,665.5 L1579,673.5 Z M1522.5,149 L1516,136.5 L1450,119.5 L1366,107.5 L1275,102.5 L1074,109.5 L980,122.5 L942.5,135 L954,138.5 L1106,113.5 L1223,110.5 L1415,124.5 L1522.5,149 Z M1409.5,546 L1424.5,488 L1443.5,449 L1472,416.5 L1509,394.5 L1552,384.5 L1604,386.5 L1637,396.5 L1678,420.5 L1846,394.5 L1882.5,375 L1885,365.5 L1812,318.5 L1632,316.5 L1630,309.5 L1811,311.5 L1839,296.5 L1896,292.5 L1924,304.5 L1951.5,330 L1993.5,397 L1997,411.5 L1976,407.5 L1894,371.5 L1881,386.5 L1851,400.5 L1683,426.5 L1714.5,478 L1731,532.5 L2018.5,488 L2020.5,448 L2004.5,409 L1966.5,341 L1921,296.5 L1895,285.5 L1731,252.5 L1607,201.5 L1535,161.5 L1447,136.5 L1230,117.5 L1120,119.5 L1003,134.5 L947,147.5 L815,212.5 L713,270.5 L624,302.5 L392,331.5 L305.5,349 L311,363.5 L673,352.5 L687.5,317 L755,258.5 L856,197.5 L953,155.5 L1023,139.5 L1118,130.5 L1242,132.5 L1337,143.5 L1411,162.5 L1485,195.5 L1546,238.5 L1573.5,276 L1573.5,300 L1562.5,319 L1452,411.5 L1418.5,454 L1403.5,486 L1392.5,532 L1394,546.5 L1409.5,546 Z M1160.5,271 L1168.5,265 L1184,145.5 L1295,151.5 L1391,172.5 L1470,208.5 L1544,265.5 L1558.5,263 L1500,212.5 L1398,165.5 L1302,145.5 L1167,136.5 L1139.5,266 L1141,271.5 L1160.5,271 Z M1106.5,273 L1132.5,270 L1156,137.5 L1044,143.5 L964,159.5 L879,193.5 L783.5,248 L816,240.5 L894,197.5 L960,170.5 L1049,151.5 L1135,145.5 L1103.5,269 L1106.5,273 Z M673.5,279 L939.5,143 L927,140.5 L848,178.5 L673.5,279 Z M1738.5,243 L1754,241.5 L1753,237.5 L1700,210.5 L1533.5,145 L1610,191.5 L1738.5,243 Z M1200.5,267 L1400,264.5 L1407.5,190 L1308,163.5 L1193,155.5 L1178.5,266 L1200.5,267 Z M853.5,284 L1092,270.5 L1122.5,158 L1069,159.5 L1000,170.5 L945,186.5 L882,214.5 L831.5,243 L848.5,259 L852.5,275 L846.5,283 L853.5,284 Z M1242,213.5 L1240,206.5 L1279.5,193 L1242,213.5 Z M1424.5,264 L1523.5,261 L1470,220.5 L1419,194.5 L1412.5,263 L1424.5,264 Z M1232,235.5 L1227.5,233 L1231,227.5 L1303,195.5 L1307.5,198 L1232,235.5 Z M966,224.5 L962,218.5 L999,201.5 L1003.5,204 L966,224.5 Z M955,246.5 L953,239.5 L1031.5,208 L1029,213.5 L955,246.5 Z M1212,227.5 L1207.5,226 L1210,220.5 L1234.5,214 L1212,227.5 Z M938,237.5 L931.5,236 L933,231.5 L957.5,223 L958,227.5 L938,237.5 Z M801.5,286 L834,281.5 L844,270.5 L782,275.5 L781,268.5 L840.5,261 L819,247.5 L781,258.5 L764.5,271 L764.5,278 L779,286.5 L801.5,286 Z M1918.5,286 L1936,273.5 L1819,250.5 L1765.5,252 L1918.5,286 Z M728.5,291 L749,279.5 L762.5,264 L728.5,291 Z M1131.5,511 L1391,499.5 L1410.5,454 L1433.5,421 L1557.5,314 L1567.5,295 L1565.5,274 L1139,278.5 L1128,343.5 L1334,344.5 L1415,348.5 L1437.5,355 L1126,350.5 L1117.5,418 L1116.5,507 L1119,511.5 L1131.5,511 Z M1950.5,309 L1974.5,294 L1960,275.5 L1925.5,291 L1950.5,309 Z M710.5,351 L1117,344.5 L1130.5,281 L712,302.5 L682.5,339 L684,351.5 L710.5,351 Z M763.5,289 L759,281.5 L748.5,288 L763.5,289 Z M161.5,380 L198,363.5 L333,334.5 L576,304.5 L643.5,287 L607,285.5 L491,296.5 L301,325.5 L157,361.5 L152.5,365 L156.5,379 L161.5,380 Z M1021,333.5 L1007,331.5 L997.5,323 L998.5,315 L1008,308.5 L1060,301.5 L1087.5,309 L1086.5,319 L1075,327.5 L1062,329.5 L1058,321.5 L1043,321.5 L1023,324.5 L1021,333.5 Z M1444,333.5 L1421.5,325 L1420.5,316 L1431,308.5 L1483,301.5 L1499,302.5 L1510.5,310 L1508.5,320 L1498,327.5 L1485,329.5 L1481,321.5 L1447,323.5 L1444,333.5 Z M1977.5,344 L1980.5,309 L1976,301.5 L1954.5,316 L1977.5,344 Z M1979.5,397 L1960,361.5 L1901,335.5 L1857.5,324 L1873,315.5 L1924,320.5 L1914,310.5 L1894,302.5 L1866,302.5 L1825.5,314 L1912,369.5 L1979.5,397 Z M1013.5,325 L1032,315.5 L1064,314.5 L1072,320.5 L1080.5,312 L1026,310.5 L1004.5,319 L1013.5,325 Z M1436.5,325 L1448,316.5 L1487,314.5 L1496,320.5 L1504.5,313 L1495,308.5 L1449,310.5 L1427.5,319 L1436.5,325 Z M1950.5,349 L1940,333.5 L1909,323.5 L1889.5,324 L1950.5,349 Z M814.5,520 L1109,511.5 L1117.5,352 L683,358.5 L688.5,519 L814.5,520 Z M144.5,442 L156,438.5 L172.5,410 L202,386.5 L294,362.5 L298.5,357 L246,363.5 L184,381.5 L158.5,412 L144.5,442 Z M680.5,520 L673,358.5 L312,369.5 L287.5,388 L349,400.5 L410,385.5 L480,392.5 L521,413.5 L544.5,436 L567.5,473 L584,519.5 L680.5,520 Z M98.5,474 L129.5,430 L151.5,376 L148,369.5 L142,367.5 L124.5,377 L138,380.5 L139.5,387 L98.5,474 Z M170.5,434 L242,407.5 L290.5,371 L202,394.5 L177.5,415 L166.5,433 L170.5,434 Z M119.5,394 L131.5,388 L116,383.5 L109.5,393 L119.5,394 Z M145.5,414 L161,388.5 L151.5,392 L145.5,414 Z M1722.5,582 L1714.5,509 L1689.5,453 L1645,411.5 L1589,394.5 L1529,398.5 L1479,423.5 L1441.5,473 L1420.5,552 L1419.5,581 L1443.5,581 L1437.5,556 L1441.5,503 L1454.5,472 L1482,438.5 L1534,409.5 L1589,405.5 L1640,423.5 L1678.5,458 L1703.5,512 L1705.5,552 L1699.5,581 L1722.5,582 Z M261.5,601 L265.5,539 L278.5,487 L301.5,443 L338,405.5 L278,395.5 L249,415.5 L210,432.5 L137,455.5 L126,450.5 L95.5,485 L99.5,554 L94,562.5 L119,575.5 L239,575.5 L238,582.5 L135.5,584 L181,594.5 L261.5,601 Z M578.5,582 L577.5,546 L567.5,501 L538.5,445 L490,407.5 L437,395.5 L401,396.5 L366,405.5 L337,421.5 L317.5,440 L288.5,490 L273.5,562 L275,582.5 L296.5,581 L289.5,539 L294.5,502 L310.5,467 L337,436.5 L387,409.5 L442,405.5 L491,422.5 L531.5,458 L556.5,513 L558.5,550 L551.5,581 L578.5,582 Z M106.5,414 L121,411.5 L125.5,402 L106,402.5 L101.5,413 L106.5,414 Z M432.5,663 L487,646.5 L519.5,619 L542.5,578 L548.5,530 L533.5,480 L502,442.5 L458,419.5 L409,415.5 L364,430.5 L328.5,460 L305.5,502 L300.5,552 L317.5,603 L347,636.5 L389,658.5 L432.5,663 Z M1579.5,663 L1631,648.5 L1666.5,619 L1691.5,572 L1695.5,528 L1678.5,476 L1647,440.5 L1606,419.5 L1557,415.5 L1511,430.5 L1472.5,464 L1452.5,503 L1447.5,550 L1462.5,599 L1493,635.5 L1533,657.5 L1579.5,663 Z M102.5,436 L112.5,433 L116,419.5 L97.5,424 L95.5,435 L102.5,436 Z M435,650.5 L393,646.5 L356,627.5 L326.5,593 L313.5,553 L315.5,514 L334.5,473 L372,440.5 L409,428.5 L450,430.5 L493,451.5 L523.5,488 L535.5,528 L531.5,570 L508.5,612 L477,637.5 L435,650.5 Z M1582,650.5 L1541,646.5 L1501,625.5 L1475.5,596 L1460.5,552 L1462.5,515 L1479.5,476 L1511,445.5 L1556,428.5 L1605,432.5 L1643,453.5 L1669.5,486 L1682.5,527 L1678.5,571 L1657.5,610 L1626,636.5 L1582,650.5 Z M429.5,640 L466,631.5 L496.5,610 L517.5,579 L525.5,532 L511.5,488 L489,461.5 L455,442.5 L412,438.5 L377,449.5 L344.5,477 L328.5,506 L323.5,550 L334.5,586 L360,617.5 L396,636.5 L429.5,640 Z M1576.5,640 L1611,632.5 L1647.5,606 L1668.5,568 L1672.5,530 L1659.5,489 L1634,459.5 L1595,440.5 L1559,438.5 L1521,451.5 L1492.5,476 L1474.5,510 L1470.5,548 L1477.5,577 L1503,613.5 L1534,633.5 L1576.5,640 Z M92.5,466 L105,442.5 L93.5,446 L92.5,466 Z M428,633.5 L391,627.5 L363,610.5 L341.5,584 L330.5,549 L332.5,518 L349.5,482 L374,459.5 L413,445.5 L453,449.5 L484,466.5 L510.5,501 L518.5,538 L514.5,567 L492.5,604 L462,625.5 L428,633.5 Z M1575,633.5 L1544,629.5 L1508,608.5 L1490.5,587 L1477.5,548 L1481.5,511 L1497.5,481 L1528,455.5 L1560,445.5 L1594,447.5 L1630,465.5 L1653.5,493 L1665.5,533 L1659.5,573 L1641.5,602 L1609,625.5 L1575,633.5 Z M426.5,626 L432.5,624 L436,573.5 L470,612.5 L482.5,604 L457.5,559 L463,556.5 L503,573.5 L509.5,558 L462.5,539 L509.5,519 L502,505.5 L464,522.5 L457.5,520 L483.5,476 L472,466.5 L436,505.5 L432.5,454 L418,452.5 L412,505.5 L378,465.5 L365.5,475 L390.5,520 L386,522.5 L344,505.5 L338.5,521 L380,533.5 L384.5,542 L339.5,559 L345,573.5 L386,556.5 L391.5,559 L365.5,602 L377,612.5 L405.5,576 L413,573.5 L415.5,624 L426.5,626 Z M1573.5,626 L1579.5,624 L1583,573.5 L1617,612.5 L1630.5,603 L1604.5,559 L1610,556.5 L1650,573.5 L1656.5,558 L1616,545.5 L1610.5,537 L1656.5,519 L1650,505.5 L1611,522.5 L1604.5,520 L1630.5,476 L1619,466.5 L1583,505.5 L1579.5,454 L1565,452.5 L1559,505.5 L1526,465.5 L1512.5,475 L1538.5,519 L1534,522.5 L1491,505.5 L1486.5,521 L1527,533.5 L1531.5,542 L1485.5,558 L1492,573.5 L1537.5,558 L1512.5,602 L1524,612.5 L1552.5,576 L1561,574.5 L1562.5,624 L1573.5,626 Z M404.5,481 L403,454.5 L388.5,461 L404.5,481 Z M1551.5,481 L1550,454.5 L1535.5,461 L1551.5,481 Z M444.5,482 L459.5,462 L449,455.5 L442.5,457 L444.5,482 Z M1592.5,481 L1606.5,462 L1596,455.5 L1590.5,457 L1592.5,481 Z M369.5,503 L357,484.5 L349.5,495 L369.5,503 Z M481.5,503 L498.5,495 L491,484.5 L477.5,502 L481.5,503 Z M1517.5,504 L1504,484.5 L1497.5,495 L1517.5,504 Z M1626.5,504 L1645.5,495 L1638,484.5 L1626.5,504 Z M1743.5,583 L1970,541.5 L1985,519.5 L2008,512.5 L2014.5,500 L1733,539.5 L1734.5,582 L1743.5,583 Z M1125.5,551 L1383,546.5 L1390.5,508 L1120,518.5 L1125.5,551 Z M195,565.5 L152,562.5 L131,554.5 L122.5,544 L124.5,531 L152.5,516 L112,518.5 L110.5,514 L154,507.5 L185,516.5 L221.5,557 L220,562.5 L195,565.5 Z M89.5,552 L92.5,521 L88,517.5 L89.5,552 Z M425,560.5 L410,554.5 L403.5,543 L406.5,528 L419,518.5 L437,522.5 L445.5,537 L441.5,551 L425,560.5 Z M705.5,559 L1086,552.5 L1115.5,548 L1109,518.5 L691,528.5 L690.5,556 L705.5,559 Z M1572,560.5 L1560,556.5 L1550.5,542 L1554.5,527 L1567,518.5 L1584,522.5 L1592.5,536 L1588.5,552 L1572,560.5 Z M193.5,536 L182,522.5 L147,524.5 L130.5,535 L193.5,536 Z M1993.5,537 L2002,522.5 L1985.5,534 L1993.5,537 Z M659.5,560 L684.5,557 L681,528.5 L584.5,529 L591,560.5 L659.5,560 Z M427.5,549 L434.5,536 L422,528.5 L413.5,540 L419,548.5 L427.5,549 Z M1575.5,549 L1582.5,537 L1570,528.5 L1561.5,542 L1575.5,549 Z M342.5,545 L359.5,539 L339,532.5 L337.5,544 L342.5,545 Z M509.5,545 L509,532.5 L488.5,539 L509.5,545 Z M1490.5,545 L1506.5,539 L1486,532.5 L1484.5,544 L1490.5,545 Z M1657.5,545 L1657,532.5 L1635.5,539 L1657.5,545 Z M201.5,558 L211.5,555 L202,543.5 L131.5,545 L159,556.5 L201.5,558 Z M695.5,600 L1408,591.5 L1408,581.5 L1094,581.5 L1092.5,577 L1407,575.5 L1410.5,558 L592,570.5 L592,585.5 L980,575.5 L984.5,578 L981,583.5 L603,591.5 L592,592.5 L592,600.5 L695.5,600 Z M358.5,594 L369,574.5 L350.5,583 L358.5,594 Z M491.5,594 L498.5,583 L479,574.5 L491.5,594 Z M1505.5,594 L1516,574.5 L1497.5,583 L1505.5,594 Z M1638.5,594 L1645.5,583 L1626,574.5 L1638.5,594 Z M404.5,623 L404,596.5 L388.5,617 L404.5,623 Z M447.5,623 L459.5,616 L444,596.5 L442.5,622 L447.5,623 Z M1551.5,623 L1551,596.5 L1535.5,617 L1551.5,623 Z M1594.5,623 L1607.5,617 L1592,597.5 L1590.5,622 L1594.5,623 Z" id="Shape"/></g></g></svg>