<svg xmlns="http://www.w3.org/2000/svg" viewBox="0 0 110 85"><path fill="currentColor" d="M109.991 60.238H.023c-.007-.122-.02-.24-.02-.359-.001-5.74-.01-11.48.01-17.218.003-.675.135-1.354.258-2.022.79-4.29 1.594-8.576 2.395-12.862q.1-.543.212-1.084c.065-.315.125-.36.452-.373.122-.005.246-.002.369-.002h27.122c.557 0 .578-.013.598-.572a5.4 5.4 0 0 0-.33-2.037 18 18 0 0 0-.658-1.537c-.491-1.05-1.337-1.773-2.285-2.39-1.258-.819-2.662-1.237-4.121-1.527a678 678 0 0 1-9.195-1.879c-1.278-.272-2.53-.657-3.713-1.233-2.306-1.123-3.501-2.996-3.77-5.506-.216-2.03.236-3.881 1.497-5.506 1.042-1.343 2.425-2.197 4.035-2.69 1.36-.417 2.76-.66 4.163-.878a34.6 34.6 0 0 1 6.587-.395c4.143.154 8.094 1.096 11.831 2.902a30.9 30.9 0 0 1 7.817 5.37c1.308 1.234 2.52 2.568 3.776 3.855.836.854 1.646 1.736 2.519 2.55a8.85 8.85 0 0 0 3.54 2.048c1.928.575 3.757.288 5.502-.668 1.16-.635 2.128-1.506 3.028-2.465 1.636-1.743 3.235-3.524 4.936-5.202C70.81 4.38 75.864 1.724 81.723.61c3.028-.575 6.082-.728 9.151-.527 1.371.09 2.745.206 4.101.418 1.98.31 3.778 1.077 5.272 2.454 1.427 1.315 2.206 2.95 2.39 4.874.093.982.103 1.961-.087 2.934-.359 1.833-1.447 3.098-3.076 3.948-1.16.605-2.404.97-3.669 1.256-3.344.76-6.691 1.507-10.046 2.22-1.464.31-2.844.776-4.052 1.675-1.306.971-2.292 2.186-2.807 3.746-.216.653-.317 1.325-.166 2.011.031.14.085.278.145.408.092.2.247.31.48.292.111-.01.224-.002.335-.002 8.862 0 17.724.002 26.585-.002.875 0 .775.131.887.726q1.251 6.624 2.508 13.248c.241 1.265.331 2.537.327 3.827-.022 5.215-.01 10.43-.01 15.644zM30.666 84.994V66.988h.374c2.204 0 4.409-.008 6.612.003 1.171.006 2.318.164 3.407.632 1.533.659 2.298 1.884 2.563 3.47.112.67.05 1.335-.111 1.993-.266 1.084-.97 1.808-1.916 2.334-.117.065-.24.12-.358.181-.008.004-.012.018-.028.045.168.053.333.103.497.16 1.793.614 2.887 2.098 2.935 3.987.043 1.643-.537 3.018-1.826 4.055-.761.612-1.68.882-2.631 1.006a16 16 0 0 1-1.972.134c-2.372.016-4.744.007-7.117.007zm4.084-3.658c.07.01.122.024.176.024.983 0 1.967.013 2.95-.008.581-.012 1.156-.1 1.704-.32q.704-.28.894-1.01a2.7 2.7 0 0 0 .018-1.292c-.113-.503-.414-.861-.907-1.032a5 5 0 0 0-.775-.207c-1.32-.224-2.653-.117-3.98-.128-.02 0-.04.018-.08.038zm.003-7.18c.098.01.173.024.25.025.705.001 1.41.02 2.114-.005.703-.024 1.408-.064 2.082-.305.433-.155.739-.44.832-.886.063-.3.072-.622.044-.928-.058-.62-.409-1.034-1.016-1.186-.4-.1-.81-.191-1.219-.208-.95-.038-1.901-.03-2.852-.038-.074 0-.148.022-.235.035zm-22.4-7.137v3.566H3.871v3.67h7.627v3.456H3.875v3.702h8.76v3.555H.022v-17.95zm65.174 17.96h-4.175l-1.621-3.855h-7.33l-.97 2.306q-.285.677-.568 1.358c-.049.12-.1.208-.26.208-1.32-.005-2.638-.003-4.018-.003.068-.17.121-.307.178-.442L64.05 72c.662-1.573 1.329-3.145 1.98-4.722.092-.222.207-.299.445-.296q1.595.017 3.189 0c.216 0 .333.054.424.273 2.444 5.82 4.897 11.637 7.348 17.455.034.08.056.164.09.267M65.85 77.743h4.432l-2.204-5.302zm17.547 3.723H92.4v3.5H77.993c-.006-.108-.018-.215-.019-.323-.001-.715.007-1.43-.005-2.144a.82.82 0 0 1 .196-.547q4.26-5.539 8.513-11.084c.08-.103.152-.212.27-.378h-8.68v-3.477h13.97c.01.086.027.161.027.235.002.77.01 1.541-.006 2.312a.8.8 0 0 1-.167.45c-2.793 3.644-5.594 7.282-8.393 10.922l-.338.447zm17.484.001h9.086v3.511h-14.41c-.006-.114-.016-.222-.017-.329-.002-.703.006-1.406-.005-2.11a.88.88 0 0 1 .199-.581q4.278-5.564 8.552-11.134c.066-.087.127-.178.234-.328h-8.662v-3.483h13.974v.82c0 .557-.009 1.116.005 1.673a.82.82 0 0 1-.192.549q-4.243 5.507-8.48 11.018c-.08.104-.155.214-.283.393zM16.24 67.005h3.877v14.378h7.381v3.592H16.24zm37.07.001h3.954v11.658c0 .976-.1 1.94-.441 2.862-.685 1.855-2.042 2.958-3.959 3.327-2.438.469-4.575-.204-6.41-1.86-.165-.15-.334-.293-.517-.453l2.066-2.91c.117.115.214.215.314.313.623.61 1.318 1.1 2.179 1.323 1.702.443 2.678-.615 2.781-2.014q.03-.417.03-.836l.002-10.95v-.46z"/></svg>