<svg xmlns="http://www.w3.org/2000/svg" viewBox="0 0 1090.6 283.5"><path fill="currentColor" d="M419.1 81.5h-53.7c1.2 16.2 7.8 20.8 16.5 20.8q10.2 0 13.5-7.8h23.1c-3.4 16.9-17.8 27.2-36.6 27.2-22.9 0-38.4-16.5-38.4-45.7 0-28.8 14.9-45.7 38.9-45.7 22.4 0 37 17.1 37 43.2 0 3 0 6-.3 8m-53-16.5h31.6c-1.6-11.5-7.6-15.3-15.3-15.3-8.3 0-14.2 3.7-16.3 15.3m96.6 35.7q3.3 0 6.4-.9v18.1c-3 1.2-7.3 2.3-11.9 2.3-14.9 0-22.9-8.5-22.9-22.4V.1h22.9v94.2c0 4.1 2.2 6.4 5.5 6.4m89.9-19.2H499c1.2 16.2 7.8 20.8 16.5 20.8q10.2 0 13.5-7.8h23.1c-3.4 16.9-17.8 27.2-36.6 27.2-22.9 0-38.4-16.5-38.4-45.7 0-28.8 14.9-45.7 38.9-45.7 22.4 0 37 17.1 37 43.2 0 3 0 6-.4 8M499.7 65h31.6c-1.6-11.5-7.6-15.3-15.3-15.3-8.3 0-14.2 3.7-16.3 15.3m103-34.7c21.5 0 34.1 13.5 36.6 32.3h-23.5c-1.4-7.3-5.5-11.4-13.1-11.4-10.3 0-15.3 8.7-15.3 24.7s5 24.7 15.3 24.7c7.6 0 11.7-4.1 13.1-11.4h23.5c-2.5 18.8-15.1 32.3-36.6 32.3-24.3 0-38.6-18.1-38.6-45.7.1-27.5 14.3-45.5 38.6-45.5m57.6 63.3V52.7h-14.6V33.2h14.6V19.3L679 2.1h4.3v31.1H705v19.5h-21.9v38q.2 9.7 10.3 9.8 5.1 0 9.8-1.2v17.9c-4.8 2.1-9.9 3-16.3 3-15.8 0-26.6-9.2-26.6-26.6m106.9-61v21q-3.5-.5-6.2-.4c-13.9 0-19.5 5.2-19.5 16.7v48.9h-22.9V33.2H740v10.5h1.1c4.1-7.6 11-11.9 20.1-11.9q3-.2 6 .8m5.9 43.4c0-27.7 15.1-45.7 39.6-45.7s39.6 17.9 39.6 45.7c0 27.7-15.1 45.7-39.6 45.7-24.5-.1-39.6-18-39.6-45.7m55.9 0c0-16-5.3-24.7-16.3-24.7S796.4 60 796.4 76s5.3 24.7 16.3 24.7S829 92 829 76m110-13.9v56.7h-22.9V65c0-8.3-3-13.7-11.2-13.7-8.7 0-14.6 6.7-14.6 17.2v50.3h-22.9V33.2h21.5v10.5h1.1a25 25 0 0 1 22.9-13.3c17.4-.1 26.1 10.8 26.1 31.7m18.8-62h22.9v20.4h-22.9zm0 33.1h22.9v85.6h-22.9zm76.7-2.9c21.5 0 34.1 13.5 36.6 32.3h-23.4c-1.4-7.3-5.5-11.4-13.1-11.4-10.3 0-15.3 8.7-15.3 24.7s5 24.7 15.3 24.7c7.6 0 11.7-4.1 13.1-11.4h23.4c-2.5 18.8-15.1 32.3-36.6 32.3-24.3 0-38.6-18.1-38.6-45.7.1-27.5 14.3-45.5 38.6-45.5M426.7 237.8c0 27.7-11.7 45.7-32.7 45.7-11.5 0-19-5.9-23.3-13.9h-1.2v11H348V162h22.9v41.7h1.1a25 25 0 0 1 22-11.5c21 0 32.7 17.7 32.7 45.6m-23.3 0c0-16-5.3-24.7-16.3-24.7s-16.3 8.9-16.3 24.7 5.3 24.7 16.3 24.7 16.3-8.7 16.3-24.7m110 5.5h-53.7c1.2 16.2 7.8 20.8 16.5 20.8q10.2 0 13.5-7.8h23.1c-3.4 16.9-17.8 27.2-36.6 27.2-22.9 0-38.4-16.5-38.4-45.7 0-28.8 14.9-45.7 38.9-45.7 22.4 0 37 17.1 37 43.2 0 3 0 6.1-.3 8m-53-16.5H492c-1.6-11.5-7.6-15.3-15.3-15.3-8.3 0-14.1 3.7-16.3 15.3m142.7 36.4v16.2a28 28 0 0 1-10.8 2.3c-6.7 0-14.7-2.7-17.1-10.8h-.9c-5.2 8-13.7 11.5-23.3 11.5-16.3 0-25.9-9.6-25.9-25.2 0-20.3 18.3-29.8 43.2-29.8h4.6V224c0-8.4-3.7-13.3-12.3-13.3-6.6 0-10.1 3.9-11.2 9.2h-21.9c1.8-17.4 14.9-27.7 33-27.7 22.7 0 34.6 13.3 34.6 33.4v33c0 3.6 1.8 5.2 4.3 5.2q2.4 0 3.7-.6m-46 2.1c10.1 0 15.8-8.3 15.8-18.5v-4.1h-4.6q-21.1 0-21.3 12.6c-.1 6.3 4.6 10 10.1 10m64.1-9.9v-40.9h-14.6V195h14.6v-13.9l18.7-17.2h4.3V195H666v19.5h-21.9v38q.2 9.7 10.3 9.8 5.2 0 9.8-1.2V279q-7 3-16.3 3c-15.9 0-26.7-9.2-26.7-26.6m53.6.9h21.3c1.2 6.4 5.3 8.9 11.4 8.9s9.9-3 9.9-8c0-5.2-3.9-7.5-9.6-9.1l-11.7-3c-12.4-3.4-20.3-11.2-20.3-26.1 0-14.7 12.1-26.6 31.6-26.6 18.1 0 30.2 10.5 32 27.5h-22q-1.4-9.2-9.9-9.2c-5.7 0-9.2 3.6-9.2 8s2.7 6.9 7.6 8l11.5 3q22 5.6 22.2 25.8c0 17.1-12.4 28.1-32.2 28.1-19.1-.1-31.2-10.1-32.6-27.3m150-27.2H845v-19.8h-20.1v19.8zM951.7 162h20.2v47.3h98.9c6.3 0 11.1 0 15.5 4.6 4.3 4.4 4.2 9.1 4.2 15.2v31.8c0 6.2.1 10.9-4.3 15.3s-9.2 4.4-15.5 4.4H804.2c-6.1 0-10.7.1-15.1-4.2-4.6-4.4-4.7-9.2-4.7-15.5v-79.2c0-6.1.1-10.7 4.4-15.1s9.2-4.6 15.5-4.6h107.9c6.6 0 11.9 0 16.3 4.9 3.9 4.3 3.9 8.6 3.9 14.4V229h-67.5v-19.8h47.3v-24.1q.1-1.5-.8-2.6c-.8-.9-1.8-.9-3.1-.9H808c-1.1 0-2-.1-2.8.7-1 .9-1 1.9-1 3.3v70.9c0 1.4.1 2.4 1.1 3.3q1.1 1 2.7.9h259c1.3 0 2.2 0 3.1-1s.8-1.9.8-3.2v-23.2c0-1.3.1-2.2-.7-3.2-.9-1-1.9-1.1-3.2-1.1H951.7zM56.1 185.2H0v-56.1h56.2v56.1zM0 0v95.4h16.8v-2.8c0-44.9 25.3-73 73-73h2.8v202.1c0 28.1-11.2 39.3-39.3 39.3h-8.4v19.6h145.9V261h-8.4c-28.1 0-39.3-11.2-39.3-39.3V19.6h2.8c47.7 0 73 28.1 73 73v2.8h16.8V0zm179.6 185.2h56.1v-56.1h-56.2z"/></svg>