<svg xmlns="http://www.w3.org/2000/svg" viewBox="0 0 120 38"><path fill="currentColor" d="M31.56.5H10.5L0 19l10.5 18.5h21.06L42.06 19zm-1.21 2.02L39.71 19l-9.35 16.48H11.7L2.35 19 11.7 2.52zM19.49 3.9h9.6L20.5 18.24h-9.6zm1.02 15.15h-9.6l8.59 14.34h9.6zm30.53 7.76V10.13h12.14v4.11h-7.09v2.68h5.67v4h-5.67v5.88zm13.96 0V10.13h5.12v16.68zm9.07 0V10.13h12.7v3.93h-7.75v2.34h6.57v3.78h-6.57v2.62h8.06v4zm29.97-10.95H99.2a3 3 0 0 0-.95-1.52 2.5 2.5 0 0 0-1.6-.53q-1.32 0-2.19 1.14-.87 1.13-.87 3.62 0 2.43.87 3.53a2.7 2.7 0 0 0 2.26 1.09q1.08 0 1.85-.61t.92-1.35h-2.25v-3.6h7.02v9.18h-3.32l-.2-1.63a7 7 0 0 1-1.08 1.09q-.59.44-1.46.71-.88.28-2.04.28a8 8 0 0 1-3.89-.94q-1.71-.96-2.75-2.98c-1.04-2.02-1.03-2.92-1.03-4.71q0-2.1.64-3.87a7.6 7.6 0 0 1 3.99-4.36 9 9 0 0 1 3.63-.71q2.19 0 3.84.93a6.6 6.6 0 0 1 2.56 2.53q.62 1.09.89 2.71m2.95 10.95V10.13h12.7v3.93h-7.75v2.34h6.57v3.78h-6.57v2.62H120v4z"/></svg>