<svg xmlns="http://www.w3.org/2000/svg" viewBox="0 0 532 369"><path fill="currentColor" d="M323.5 175.9a9 9 0 0 1 7 0 6.6 6.6 0 0 1 4.2 7.1v.5q-.4 3.2-3 5.3a8 8 0 0 1-5.8 1.1 7.6 7.6 0 0 1-6.3-8.8c.4-2.2 2-4 3.9-5.2m1.7 1a6 6 0 0 0-3.5 3.1 7 7 0 0 0 0 5.1 5 5 0 0 0 2.9 3 9 9 0 0 0 5.6 0l.6-.3v-.3l-.4-.2c-2-1.1-2.5-3.4-4.5-4.5-.2 1.3.2 2.8-.2 4l-.8.4c-1-2.3-.5-6.4-.6-9 1.9 0 4-.3 5.7.6q.8.6.9 1.4 0 .9-.6 1.6c-.3.4-1 1.2-1.2 1.7s2.1 3.2 2.5 3.7l1.6-3.5c0-2.8-1-4.5-2.8-6.5a10 10 0 0 0-5.2-.4m.4 5.4q1.6 0 3.1-.6.8-.3.9-1.1l-1-1c-1-.1-1.8-.4-2.6 0q-.5 1.3-.4 2.7M206.2 290.6c4.4.4 9 0 13.6 0q-.5 6.6-.3 13.2l-.4.4c-1 .3-11.1-.1-13.1 0 0-3.8-.7-10.3.2-13.6m-82 0c4.3.6 9.3 0 13.8 0q-.4 6.7 0 13.6-7-.4-14 0c0-3.6-.7-10.5.2-13.6m262.5-51 .7.2c.5 1.2.3 62.9-.1 64.4q-6-.3-12 0c-1.5-2.8.9-61.7-.7-64.5zm77.9 15.5 4.1-.3.2.3c.6 1.2.4 11.6 0 13a20 20 0 0 0-10 1 9 9 0 0 0-4 5.2c-1.6 5-.8 18-.7 23.8 0 1.8.2 4.2-.4 6v.1c-3.2-.7-9.7-.1-13.1 0l.2-.7q.3-1.3-.3-2.4l.2-.6c.4-1.3.4-39 .2-43.1l-.4-1.2h12.6l.3.7c.5 2.2.3 5.2-.9 7.2q1.4-1.2 2.3-2.8c2.8-3.8 5-5.4 9.7-6.2M366 239.6h.3l.3.5c.4 1 0 7.1 0 8.8v35.7c0 6.5-.3 13.2 0 19.7q-6-.4-12-.2l-.8-.2c-.6-1.5-.2-56.6-.2-64.2zm-33.4 16.6q6.6.2 13.1-.1c-.4 3.3-.1 6.7-.1 10v18.4c0 6.5-.4 13.3 0 19.8q-6-.4-12.2-.1 0-3.2.3-6.4l-1.8 2a17 17 0 0 1-12.4 5.4c-4.4.1-9-1-12.3-4a15 15 0 0 1-4-7.5c-1.1-5-.6-10.6-.6-15.7v-21.8q6.2.1 12.3 0l.6.2c.6.8-.4 27.1.2 31.2q.2 2.6 1.7 4.4a9 9 0 0 0 6 2.2q4 0 6.7-2.6a8 8 0 0 0 2.2-3.8c.8-3.8.3-8.2.3-12zM253 239.6q9 .3 17.9.1H299v11.6c-10.7 0-21.5.4-32.2-.1q.2 7.1 0 14.4c9.4-.5 18.8.2 28.2-.3l-.1 6.7.2 5.2c-9.3-.6-19 0-28.4-.1.4 8.9-.5 18.3.4 27a145 145 0 0 0-14.1 0c.2-21.4-.4-43 0-64.5m159.6 15.5c4.2-.3 9 .3 12.9 2.1 4.8 2.3 8 6.6 9.7 11.6 1 2.8 2.8 12.2 1.5 14.9-3.4-.6-7.3-.2-10.8-.2h-22c1.5 1.6 1.6 4.8 2.6 6.8a7 7 0 0 0 4.6 3.8c2.8 1 6.2 1 8.8-.3l.6-.4.6-.4.5-.5.5-.5.5-.5.3-.7q.1-.4.4-.6t.2-.7c4-.1 7.9.3 11.8 0h.8l.3.4c-.1 2.8-2.2 5.9-3.9 8a21 21 0 0 1-14 7.2c-6.5.7-13.7-.5-18.9-4.7-5-4.2-7.2-10.6-7.8-17-.7-7.2.2-15.4 5-21 4.1-5 9.7-6.7 15.8-7.3m0 10.7c-2.1.5-4.4 1-5.7 3s-1.2 4.6-2.3 6.4h19c.5-1.3-.1-3.5-.8-4.7a10 10 0 0 0-5.7-4.4 13 13 0 0 0-4.4-.3m-297-26.2.2.1c.7 1.6.2 10.8.2 13.3v32.8c0 6-.3 12.3.1 18.4q-6.9-.4-13.8 0v-17.9c0-3.6-.2-7.4.2-11-8.2.3-16.7 0-24.9 0 .5 9.5-.5 19.3.4 28.9q-4.7-.2-9.3-.1H64v-64.5c4.6.3 9.3 0 14 0-.4 8 .5 16.5-.3 24.4 8.3-.1 16.7-.4 25 0-.5-3-.3-6.3-.3-9.3l-.1-15zM311 159q.2.3.2.7-1.8 3.4-4 6.6t-4.7 6a56 56 0 0 1-38.6 18c-15 .9-30-3-41.5-13.1a68 68 0 0 1-14.8-18.1h40.1c21 0 42.2.4 63.2 0M256.7 64c21.2-.5 42.4 0 63.5-.1q-.3 6.4-.1 12.7v19.3c-5.5-.7-11.4-.3-17-.3h-73.8c-7.5 0-15-.3-22.5.1a54 54 0 0 1 8.7-12.4A58 58 0 0 1 256.7 64M146.1 239.6c7.7.6 17.4 0 25.2 0q5.7-.2 11.4.6c4.6.8 9.3 2.9 12 6.8 2.7 3.8 3.1 8.6 2.3 13s-3.2 7-6.8 9.5l2.2 1a14 14 0 0 1 6.4 8.6q2.2 8-1.8 15.2l-2.3 3a20 20 0 0 1-8.8 5.4c-5.6 1.7-12 1.4-17.7 1.4-7.3 0-14.7-.3-22 .1 0-21.5.3-43.1 0-64.6m13.6 36.2c0 5.4.6 11.4 0 16.8 5.3-.2 15 .6 19.7-.6a10 10 0 0 0 3.6-1.8q2.7-3 2.6-7.2a7 7 0 0 0-2.2-4.7c-4.7-4.1-17.5-2.3-23.7-2.5m0-25c0 4.5.4 9.5 0 14 6.4-.4 16.7 1.3 22-2 1.5-1.7 2.4-3.2 2.2-5.5a6 6 0 0 0-2-4.4c-4.3-3.5-16.7-1.8-22.2-2.1m159.6-139.5h.5l.1.1c.2.4.3 29.6 0 30.8l-.1.6h.3-.3v.2c-.5.3-107.5.1-119.7 0a56 56 0 0 1 1-31.7q7.6.2 15.4 0h27.1z"/></svg>