<svg xmlns="http://www.w3.org/2000/svg" viewBox="0 0 520 72"><path fill="none" d="M0 0h520v72H0z"/><path fill="currentColor" d="M140.3 43.3 117 5.7v-4h11.6l17.7 30.5 18.3-30.4h10.8v4l-23.3 37v27.7h-11.8zm321.5 23.3L483.3 35 463.5 5.7v-4h12l15.2 24 15.9-24h11.3v4l-20 29.2 21.7 31.7v4h-12l-17.2-26.2-17.3 26.1h-11.3zM0 1.8h11.8V31h28.5V1.8H52v68.7H40.3V41.3H11.8v29.2H0zm392.9 46V24.5c0-7.4-5-13.4-15.2-13.4s-15.3 6-15.3 13.4v23.3c0 7.4 5 13.4 15.3 13.4s15.2-6 15.2-13.4m-42.2-.5V25c0-15.7 10.5-24.8 27-24.8s27 9.1 27 24.8v22.2c0 15.6-10.5 24.7-27 24.7s-27-9.1-27-24.7m-85-13.2c6.8 0 10.8-3.3 10.8-11s-4-11-10.9-11H250v22zM238.1 1.8h29.6c13.5 0 20.7 8 20.7 21 0 9-4 16.5-12 20l12.8 23.8v4h-11.6l-14-26.6H250v26.4h-11.8z"/></svg>