<!DOCTYPE svg  PUBLIC '-//W3C//DTD SVG 1.1//EN'  'http://www.w3.org/Graphics/SVG/1.1/DTD/svg11.dtd'><svg enable-background="new 0 0 586.3 174.1" id="Layer_1" version="1.1" viewBox="0 0 586.3 174.1" xml:space="preserve" xmlns="http://www.w3.org/2000/svg" xmlns:xlink="http://www.w3.org/1999/xlink"><path d="M265.6,39c-0.2-0.5,0-1.1,0.5-1.3l10.7-4.8c0.5-0.2,1.1,0,1.3,0.5c0.2,0.5,0,1.1-0.5,1.3L267,39.5c-0.1,0.1-0.3,0.1-0.4,0.1  C266.2,39.6,265.8,39.4,265.6,39z M264.6,39.5c-0.2-0.5-0.8-0.7-1.3-0.5l-6.2,2.8c-0.5,0.2-0.7,0.8-0.5,1.3c0.2,0.4,0.5,0.6,0.9,0.6  c0.1,0,0.3,0,0.4-0.1l6.2-2.8C264.6,40.6,264.9,40,264.6,39.5z M285.3,34.3l-22.1,9.9c-0.5,0.2-0.7,0.8-0.5,1.3  c0.2,0.4,0.5,0.6,0.9,0.6c0.1,0,0.3,0,0.4-0.1l22.1-9.9c0.5-0.2,0.7-0.8,0.5-1.3C286.4,34.3,285.8,34.1,285.3,34.3z M349.4,36.3  c0.1,0,0.3,0,0.4-0.1l10.7-4.8c0.5-0.2,0.7-0.8,0.5-1.3c-0.2-0.5-0.8-0.7-1.3-0.5l-10.7,4.8c-0.5,0.2-0.7,0.8-0.5,1.3  C348.6,36.1,349,36.3,349.4,36.3z M340.3,40.5c0.1,0,0.3,0,0.4-0.1l6.2-2.8c0.5-0.2,0.7-0.8,0.5-1.3s-0.8-0.7-1.3-0.5l-6.2,2.8  c-0.5,0.2-0.7,0.8-0.5,1.3C339.5,40.3,339.9,40.5,340.3,40.5z M345.5,42.3c0.2,0.4,0.5,0.6,0.9,0.6c0.1,0,0.3,0,0.4-0.1l22.1-9.9  c0.5-0.2,0.7-0.8,0.5-1.3c-0.2-0.5-0.8-0.7-1.3-0.5L346,40.9C345.5,41.2,345.3,41.8,345.5,42.3z M585.4,120.4c0,0.1-0.1,0.3-0.1,0.4  l-3.1,7.1c0,0,0,0,0,0c0,0,0,0,0,0l-3.5,7c-0.2,0.4-0.6,0.7-1.1,0.8l-7.5,1.4c0,0,0,0,0,0c0,0,0,0,0,0l-74,13.6  c-0.5,0.1-0.9,0-1.3-0.4c-0.2-0.2-0.3-0.3-0.4-0.5h-8.9c-6.2,14.2-20.4,24.2-36.9,24.2s-30.7-10-36.9-24.2H403c0,0.7,0,1.1,0.1,1.2  c0,0.4-0.1,0.8-0.4,1.1s-0.7,0.5-1.1,0.5l-248.9,3c0,0,0,0,0,0c-0.4,0-0.8-0.2-1.1-0.5c-0.3-0.3-0.4-0.7-0.4-1.1  c0-0.1,0.1-1.6,0.1-4.1h-10c-6.2,14.2-20.4,24.2-36.9,24.2c-16.5,0-30.7-10-36.9-24.2h-8.5c0,2.5,0.2,4.1,0.2,4.1  c0,0.4-0.1,0.9-0.4,1.2c-0.3,0.3-0.7,0.5-1.1,0.5c-1.5-0.1-37-1.4-45-7.3c-7.1-5.3-11.2-5.5-11.3-5.5c-0.8,0-1.5-0.7-1.5-1.5  c-0.1-2-1.1-49.5,12.2-58.5c2-1.4,5.3-2.9,9.6-4.4l1.6-9c0.1-0.5,0.6-0.9,1.2-0.8c0.5,0.1,0.9,0.6,0.8,1.2L24,77.7  c24.6-8.3,77.7-18.3,132.3-22.5c4.3-0.3,8.7-0.5,12.9-0.5h4.5c5.9-3.5,69.7-40.9,91.4-47.1c13-3.7,47.6-7.6,83-7.6  c25.6,0,61.6,2,88,11.4c47.5,17,70.1,30.5,73.4,32.5c0.6,0,1.5-0.1,2.9-0.1c3.8,0,9.7,0.2,16.2,1.4c3,0.5,6.8,1.4,10.9,2.3  c8.8,2,18.7,4.2,23.8,4.2c0.7,0,1.4,0,1.8-0.1c0.4-0.1,0.8,0,1.1,0.2c0.2,0.1,5.8,3.5,7.8,11.6c0.8,3.4,0.4,5.1-0.1,6.6  c-0.5,2-1.1,4,2.3,11.7c1.6,3.7,3.1,7.3,4.4,10.6c1.8,4.5,3.5,8.8,4.5,9.9C587.2,104.8,586,115.8,585.4,120.4z M578.4,94.9  c-0.5-0.6-1.1-1.7-2.4-4.4c-4.2-8.8-14.1-29.4-31.7-32.8c-22.9-4.5-46.4-9.4-46.6-9.4l0,0l-0.3-0.1c-8.3-3.1-43.9-16.4-58-26.6  c-22.3-10.2-56.3-12.4-95-14c-40.1-1.7-79.4,7.8-81.5,8.3c-1.6,0.7-36.3,16.5-56.8,29.1c-20.7,12.8-33.9,15.1-35,15.3  c-8.5,4.5-29.3,6.5-52.6,8.7c-24.3,2.3-40.8,5.5-50,7.7c0.9,0.7,1.4,1.6,1.5,2.6c0.1,0.7,0,1.4-0.3,2.1c8-0.3,53.9-2,109.9-3.5  c0.1-1.5,0.1-2.7,0.3-3.6c1.6-12,43.8-40.7,79.2-53.8c34.9-12.9,94.8-10,124.3-4c32.8,6.7,62.7,26.7,65.7,38.9  c2.4,9.9-5.2,15.8-25.4,31.4c-2,1.5-4,3.1-6.3,4.9c-20.7,16.2-22.6,38.7-22.7,44.4l6-0.1c1.3-10.7,4.9-25,14.5-35.3  c8.2-8.8,19.3-13.2,33.1-13.2c12.7,0,23.1,3.7,31.1,10.9c6.8-0.9,48.9-6.8,54.2-8.6c5.3-1.8,7.9-3.8,9.7-7.5  c-11.8-6.8-21.6-13.9-22.3-14.4l-0.1-0.1L466.5,67c-0.6,0-1-0.5-1-1c0-0.6,0.5-1,1-1l54.2,0.7c0.7-1,4.8-5.8,22.2-5.8  c18.8,0,32.3,31.9,32.9,33.2l1,2.5l-2.6-0.4c-8.4-1.2-19.3-6.4-29.1-11.9c-2.1,4.1-5.1,6.4-10.9,8.4c-5.1,1.7-42.7,7-53,8.4  c0.2,0.2,0.4,0.4,0.6,0.6c8.7,9.2,12.6,21.5,14.2,31.4l86.4-12.6c0.8-6.5,1.1-13.9,0.3-15.1C581.6,102.9,580.2,99.5,578.4,94.9z   M541.4,68.9c8,2.1,17.4,6.5,22.2,8.8c-1.2-1.7-2.6-3.5-4-5.1C552.7,69.2,546,68.7,541.4,68.9z M556,68.9c-3.9-3.5-8.4-6-13.1-6  c-11.6,0-16.6,2.2-18.6,3.6c6.3,4.4,31.1,21.4,47.5,25.2c-1.2-2.5-3.2-6.4-5.9-10.6c0,0-0.1,0-0.1,0c-0.2-0.1-19.9-10.5-30.8-11.3  c0,0,0,0,0,0c-0.1,0-0.2,0-0.2-0.1c0,0-0.1,0-0.1,0c-0.1,0-0.1-0.1-0.2-0.1c0,0-0.1-0.1-0.1-0.1c0,0-0.1-0.1-0.1-0.1  c0-0.1-0.1-0.1-0.1-0.2c0,0,0,0,0,0c0-0.1,0-0.1,0-0.2c0-0.1,0-0.1,0-0.2c0,0,0,0,0,0c0-0.1,0-0.1,0.1-0.2c0-0.1,0-0.1,0.1-0.2  c0,0,0.1-0.1,0.1-0.1c0-0.1,0.1-0.1,0.2-0.2c0,0,0.1,0,0.1,0c0.1-0.1,0.2-0.1,0.3-0.1c0,0,0,0,0,0C535.3,67.6,544.8,65.1,556,68.9z   M105,87.8c14.2,0,25.7,4.6,34,13.6c7.2,7.9,11,18,13,26.7c9.2,0.2,19.1,0.3,29.6,0.4c-1-14.3-2.3-36.9-2.1-48.7  c-60.3,1.6-108.8,3.4-111,3.5c-1.2,1.8-3.2,3.7-5.7,5.6l19.8,3.5C89,89.4,96.5,87.8,105,87.8z M27.2,92.3c-3.4,5.1-6,9.4-7.5,12.8  c1.3-0.4,2.9-0.9,4.8-1.4c0.7-2.6,4.7-13.7,20-17.9c11.9-3.3,19.7-4.7,22.3-5.1c0.1-0.4,0.2-0.7,0.2-1c-0.1-0.5-0.7-0.9-1.4-1.2  c-2.5,0.5-15.5,2.9-25.3,5.3c-0.6,0.1-1.2,0.3-1.8,0.5l0,0.1L35,85.4C31.7,86.8,29.6,88.8,27.2,92.3z M26.9,102.9  c8.7-2.7,20.5-6.7,25.4-10c3.5-2.4,9.8-6.6,12.9-10c-3.6,0.7-10.5,2.1-20.1,4.7C32.7,91.1,28.3,99.4,26.9,102.9z M416.2,90.1  c2.2-1.7,4.3-3.3,6.3-4.9c19.5-15.1,26.8-20.8,24.7-29.4c-0.2-0.6-0.4-1.3-0.7-2l0,0.1l-19.5,0.1l0,0l-99.7,1.5l0-0.1l-8.8,0.3  c-1.5,7.9-2.8,15.1-3.6,19.6c41-0.2,75.7,0.3,92.5,2.2c0.5,0.1,0.9,0.6,0.9,1.1s-0.6,0.9-1.1,0.9c-16.8-1.9-51.5-2.4-92.6-2.2  c0,0.2-0.1,0.4-0.1,0.6c-1.5,9.9-3.4,31.7-2.2,47.8c43.4-1.6,77.5-3.4,82.6-3.6C397.5,112.5,403.4,100.1,416.2,90.1z M434.9,51  c-5.3-4.6-17.5-14.5-32.4-20.7l-1.7,21.2L434.9,51z M399.6,29.1c-18-6.7-39.2-10.1-64.9-10.2l-4.1,33.6l67.2-1L399.6,29.1z   M445.3,52c-7.1-10.9-32.5-27.5-62.3-33.5c-13.9-2.8-34.6-5-56.3-5.1c-0.9,4.4-4.7,23.7-7.9,40.4l8.6-0.3L332,16h1.3  c26.7,0,48.7,3.4,67.4,10.4c21.7,8.1,38.3,24.3,39,25l0.7,0.7L445.3,52z M324.7,13.4c-23.2,0-47.3,2.5-64.9,9  C235,31.5,209,47.2,194.2,59.7l2.8-0.2l7.2-5.2c0-0.5,0.1-1.1,0.4-1.6l0.1-0.2l0.2-0.1c0.3-0.3,8.6-7.9,16.8-7.9c0.1,0,0.1,0,0.2,0  c1.3-1,9.4-6.7,32.8-17c25.3-11.1,61-11.5,61.4-11.5l1.9,0L308,54.2l8.8-0.3C319.9,37.5,323.7,18.4,324.7,13.4z M200.7,59.3l6.7-0.4  c-1.1-0.6-2.1-1.4-2.7-2.5L200.7,59.3z M206.3,53.7c-0.2,0.6-0.2,1.2,0.1,1.7c0.8,1.6,3.6,2.6,4.7,2.8c0.3,0,1.2,0,2.6,0  c9.5,0,16-1.5,17.1-4c0.1-0.3,0.1-0.6,0.1-0.9L212,54.8c0,0-0.1,0-0.1,0c-0.5,0-1-0.4-1-0.9c0-0.6,0.4-1,0.9-1.1l18.2-1.4  c-0.5-0.7-1-1.4-1.6-2c-1.9-2-4.2-2.9-6.9-2.9C214.7,46.5,207.5,52.7,206.3,53.7z M230,57.7l75.1-4.3l8.9-34.3  c-7.8,0.2-36.9,1.8-58.2,11.2c-18.8,8.3-27,13.1-29.9,15c1.5,0.6,2.9,1.5,4.1,2.8c2.6,2.7,3.5,5,2.6,7C232.1,56.1,231.2,57,230,57.7  z M181.9,74.5c-0.1,0.9-0.2,2-0.2,3.3c42.1-1.1,89.8-2.2,131.2-2.4c0.7-4.4,2-11.6,3.6-19.5l-8.9,0.3l0,0.1l-116.9,6.6  C185.4,67.7,182.3,71.7,181.9,74.5z M181.6,79.8c-0.2,11.6,1.1,34.3,2.1,48.7c39.9,0,86.9-1.3,126.6-2.8  c-1.2-16.3,0.7-38.1,2.2-48.1c0-0.1,0-0.2,0-0.3C271.2,77.7,223.6,78.7,181.6,79.8z M154,140.5l28.5-0.5c-0.1-1.9-0.4-5.2-0.7-9.4  c-10.4,0-20.2-0.1-29.3-0.4c0.4,1.7,0.6,3.4,0.9,5C153.6,137,153.8,138.8,154,140.5z M312,137.6c-0.7-2.8-1.2-6.1-1.6-9.8  c-39.4,1.4-86.1,2.8-125.8,2.8c-0.3,0-0.5,0-0.8,0c0.3,4.3,0.5,7.6,0.7,9.4L312,137.6z M392.7,136.1c0.1-2.1,0.3-6.5,1.7-12  c-6.8,0.4-40,2-81.9,3.6c0.3,3.7,0.9,7.1,1.6,9.8L392.7,136.1z M175.4,57.2c5.6-1.7,16.1-5.5,29.7-13.9c17.8-11,46.1-24.3,54.6-28.2  l-3.6-1C229.9,25.3,181,53.9,175.4,57.2z M498.1,45.2l6.5-0.7c-8.1-4.6-29.7-15.9-68-29.7C438.4,18.6,456,29.8,498.1,45.2z   M571,64.2c-0.2-0.6-0.4-1.2-0.6-1.8l-7.3,4.4c3.3,3.5,6,7.3,8.3,11c-1.5-4.7-1-6.6-0.4-8.5C571.4,67.9,571.7,66.8,571,64.2z   M565,54.7c-0.5,0.1-1.1,0.1-1.7,0.1c-3.2,1.2-7.2,3.5-9.1,4.7c2.7,1.6,5.2,3.6,7.5,5.8l7.9-4.7l0.6,1C568.6,57.6,566,55.4,565,54.7  z M512.4,46.9c-0.9,0-1.6,0-2.1,0l-6.2,0.7c8.5,1.7,24.6,5,40.5,8.2c2.7,0.5,5.2,1.4,7.5,2.6c0.6-0.4,3.7-2.2,7-3.9  c-5.6-0.7-13.3-2.4-20.3-3.9c-4.1-0.9-7.9-1.8-10.8-2.3C521.8,47.1,516.1,46.9,512.4,46.9z M259.1,12.9l3.5,1  c3.5-0.9,42.3-10,81.8-8.3c36,1.5,67.9,3.5,90.4,12c-0.7-0.8-1.1-1.6-1.3-2.3c-0.1-0.5-0.1-1-0.1-1.5C407.7,4.9,373,3,348.2,3  C313,3,278.8,6.8,266,10.4C264,11,261.7,11.8,259.1,12.9z M22.5,81.4c0.6,0.4,1.1,0.8,1.4,1.4c0.7,1.1,0.7,2.5,0,4l5.8-1.9  c2.7-2.2,5.8-3.2,9.8-4.2c9.5-2.3,22.1-4.7,25.2-5.2c8.4-2.1,26-5.9,53.5-8.5c20.8-2,43.9-4.2,52-8.4c0.1-0.1,0.2-0.1,0.3-0.2  c0.4-0.2,0.8-0.5,1.1-0.7h-2.4c-4.2,0-8.5,0.2-12.7,0.5C96,62.9,44.1,73.6,22.5,81.4z M13.9,85.4C13.9,85.4,13.9,85.4,13.9,85.4  l4.5,1c0.3,0.1,0.5,0.2,0.7,0.5c0.1,0.2,0.2,0.5,0.1,0.8c-0.3,1-8,22.7-15.1,28.4c0,0,0,0,0,0c7.9-3.6,13.5-18.1,16.3-25.4  c0.7-1.9,1.3-3.4,1.8-4.3c0.5-1.1,0.6-1.9,0.2-2.5c-0.4-0.8-1.5-1.2-2.4-1.4C17.2,83.5,15.2,84.5,13.9,85.4z M5.1,137.2V128H4.8  c-0.6,0-1-0.4-1-1v-8.2H3.8C3.1,126.3,3,133.4,3,138.5L5.1,137.2z M7.4,96.8l6.5-1.2c0.5-1.2,1-2.4,1.4-3.4l-6.6,0.8  C8.3,94.1,7.8,95.4,7.4,96.8z M5.8,103.4l5-1c0.8-1.6,1.5-3.1,2.1-4.6l-6.2,1.1C6.5,100.4,6.1,101.9,5.8,103.4z M4.3,113.1  c1.8-2,3.7-5.1,5.4-8.4l-4.3,0.9C5,108,4.6,110.5,4.3,113.1z M9.7,90.8l6.5-0.8c0.3-0.8,0.5-1.4,0.7-1.9L12.1,87  C11.2,88,10.4,89.3,9.7,90.8z M56.2,152.6c-0.4-7.1-0.8-34,14.5-51c2.7-3,5.7-5.5,9.1-7.5l-18.5-3.3c-0.2,0-0.3-0.1-0.5-0.2  c-2.1,1.6-4.5,3.2-6.9,4.9c-8.5,5.8-35.3,13.1-36.4,13.4c-0.1,0-0.3,0.1-0.4,0.1c-0.4,0-0.8-0.2-1.1-0.5c-0.4-0.4-0.5-1-0.3-1.5  c1.2-3.8,4.3-9.3,9-16.2c0.6-0.9,1.3-1.8,1.9-2.5L23,89.3c-0.3,0.6-0.5,1.3-0.8,2.1c-3,7.9-8.3,21.6-16.4,26.1  c0,0.1,0.1,0.2,0.1,0.4v8.2h0.3c0.6,0,1,0.4,1,1v10.7c0,0.3-0.2,0.7-0.5,0.9L4,140.3c2,0.5,5,1.8,9,4.5h35.7c0.6,0,1,0.4,1,1  s-0.4,1-1,1H16.1C23.7,150.4,45.9,152.1,56.2,152.6z M141.7,133.9c0-20.5-16.7-37.2-37.2-37.2c-20.5,0-37.2,16.7-37.2,37.2  s16.7,37.2,37.2,37.2C125,171.1,141.7,154.4,141.7,133.9z M144.7,133.9c0,4.5-0.8,8.9-2.2,13h8.8c-0.3-10.5-2.6-30.4-14.5-43.4  c-7.8-8.4-18.5-12.7-31.8-12.7c-13.5,0-24.3,4.3-32,12.8c-11.8,13-13.7,32.8-13.9,43.3h7.3c-1.4-4.1-2.2-8.4-2.2-13  c0-22.2,18-40.2,40.2-40.2C126.6,93.7,144.7,111.7,144.7,133.9z M400,149.6c0-0.7,0-1.7,0-2.9h-94.2c-0.6,0-1-0.4-1-1s0.4-1,1-1H400  c0-1.7,0.1-3.6,0.3-5.8l-246.2,4.5c0.1,1.6,0.1,3.1,0.2,4.4l117.3-2.8c0.5,0,1,0.4,1,1c0,0.6-0.4,1-1,1l-117.3,2.8  c0,1.1,0,2-0.1,2.7L400,149.6z M485.8,133.9c0-20.5-16.7-37.2-37.2-37.2s-37.2,16.7-37.2,37.2s16.7,37.2,37.2,37.2  S485.8,154.4,485.8,133.9z M488.8,133.9c0,4.5-0.8,8.9-2.2,13h7.7c0-7.3-1.2-30-14.7-44.2c-7.7-8.1-18.3-12.3-31.4-12.3  c-13,0-23.4,4.1-30.9,12.3c-12.7,13.7-14.3,35.2-14.4,44.2h7.6c-1.4-4.1-2.2-8.4-2.2-13c0-22.2,18-40.2,40.2-40.2  S488.8,111.7,488.8,133.9z M497.4,147.5l71.2-13.1c2-7.7,8.8-8.6,11.3-8.6l1.8-4.2L496.4,134C497.3,140,497.4,144.9,497.4,147.5z   M578.4,128.9c-2.1,0.3-5,1.5-6.4,4.9l4.4-0.8L578.4,128.9z M43.6,139.2c0.2,0.3,0.3,0.6,0.2,0.9c-0.1,0.3-0.3,0.6-0.7,0.7  c-1.5,0.5-5.2,0.9-9.4,0.9c-6.3,0-13.7-0.9-17.4-3.5c-1.5-1.1-2.3-2.5-2.3-4c0,0,0,0,0,0l0,0c0,0,0,0,0,0c0-1.5,0.6-2.9,1.8-4  c2.3-2.2,6.7-3,10.3-3.3c-6.9-1.2-14.4,0.8-14.5,0.8c-0.5,0.1-1.1-0.2-1.2-0.7c-0.1-0.5,0.2-1.1,0.7-1.2c0.7-0.2,17.8-4.8,25.3,4.6  L43.6,139.2z M17.2,131.6c-0.5,0.5-0.8,1-1,1.5h19.9l-1.3-1.6c-0.9-1.2-2-2.1-3.3-2.8c-0.3,0-1,0-1.9,0  C26.3,128.7,19.9,129.1,17.2,131.6z M41.1,139.2l-3.3-4.1H16.3c0.2,0.5,0.6,1,1.2,1.4C22.3,140,35.7,140.1,41.1,139.2z M276.4,68.4  c-0.1-0.5,0-1.1,0.6-1.9c2.5-2.9,13.1-3.7,16.6-3.7c0.3,0,0.7,0,1,0c4.5,0,8.7,0.4,9,3.1c0.1,0.8-0.2,1.7-0.9,2.4  c-1.2,1.4-3.3,2.4-5.3,2.5c-0.8,0-1.3,0.1-1.5,0.1c-1.1,0-1.1-0.9-1.1-1c0-0.8,0.5-1,1-1.1c0,0,0.1-0.1,0.1-0.1  c-0.4-0.1-1.3-0.2-3-0.1c-0.9,0.1-1.7,0.1-2.5,0.2c-2.6,0.2-6.6,0.4-7.1,1.1c0,0,0.1,0.2,0.4,0.7c0.2,0.2,0.4,0.5,0.4,0.8  c0,0.6-0.4,1-1,1c0,0,0,0,0,0c0,0,0,0,0,0C282.9,72.4,277,72.2,276.4,68.4z M278.4,68.1c0.2,1.1,1.7,1.7,3,2c0-0.3,0-0.7,0.1-1  c0.7-1.8,4-2,8.8-2.3c0.8-0.1,1.6-0.1,2.5-0.2c0.6,0,1.1-0.1,1.6-0.1c1.3,0,3.1,0.1,3.6,1.4c0.1,0.2,0.1,0.5,0.1,0.7  c1.2-0.2,2.4-0.9,3.1-1.7c0.3-0.3,0.4-0.7,0.4-0.9c0-0.2-0.5-1.3-7-1.3c-0.3,0-0.6,0-0.9,0c-6,0.1-13.7,1.3-15.1,3  C278.4,68,278.4,68.1,278.4,68.1z M410,72.4c-0.3,0-6.2-0.2-6.8-4c-0.1-0.5,0-1.1,0.6-1.9c2.5-2.9,13.1-3.7,16.6-3.7  c0.3,0,0.7,0,1,0c4.5,0,8.7,0.4,9,3.1c0.1,0.8-0.2,1.7-0.9,2.4c-1.2,1.4-3.3,2.4-5.3,2.5c-0.8,0-1.3,0.1-1.5,0.1  c-1.1,0-1.1-0.9-1.1-1c0-0.8,0.5-1,1-1.1c0,0,0.1-0.1,0.1-0.1c-0.4-0.1-1.3-0.2-3-0.1c-0.9,0.1-1.7,0.1-2.5,0.2  c-2.6,0.2-6.6,0.4-7.1,1.1c0,0,0.1,0.2,0.4,0.7c0.2,0.2,0.4,0.5,0.4,0.8C411,71.9,410.6,72.4,410,72.4C410,72.4,410,72.4,410,72.4  C410,72.4,410,72.4,410,72.4z M417.2,66.8c0.8-0.1,1.6-0.1,2.5-0.2c0.6,0,1.1-0.1,1.6-0.1c1.3,0,3.1,0.1,3.6,1.4  c0.1,0.2,0.1,0.5,0.1,0.7c1.2-0.2,2.4-0.9,3.1-1.7c0.3-0.3,0.4-0.7,0.4-0.9c0-0.2-0.5-1.3-7-1.3c-0.3,0-0.6,0-0.9,0  c-6,0.1-13.7,1.3-15.1,3c-0.1,0.2-0.1,0.2-0.1,0.3c0.2,1.1,1.7,1.7,3,2c0-0.3,0-0.7,0.1-1C409.1,67.3,412.3,67.1,417.2,66.8z   M481.9,133.9c0,18.4-14.9,33.3-33.3,33.3s-33.3-14.9-33.3-33.3s14.9-33.3,33.3-33.3S481.9,115.5,481.9,133.9z M478.9,133.9  c0-16.7-13.6-30.3-30.3-30.3s-30.3,13.6-30.3,30.3s13.6,30.3,30.3,30.3S478.9,150.6,478.9,133.9z M476.7,133.9  c0,15.5-12.6,28.1-28.1,28.1s-28.1-12.6-28.1-28.1c0-15.5,12.6-28.1,28.1-28.1S476.7,118.4,476.7,133.9z M474.6,136.1  c0.1-0.7,0.1-1.5,0.1-2.2c0-0.8,0-1.6-0.1-2.3l-7.7,2.3L474.6,136.1C474.6,136.1,474.6,136.1,474.6,136.1z M463.8,123.9l7.3-3.1  c0,0,0,0,0,0c-0.8-1.4-1.7-2.6-2.7-3.8L463.8,123.9z M454.1,117.6l5.3-7.1c0.1-0.1,0.1-0.2,0.2-0.2c-1.7-0.8-3.6-1.4-5.5-1.9V117.6z   M437.5,110.2c0.1,0.1,0.1,0.1,0.2,0.2l5.3,7.1v-9.2C441.1,108.8,439.3,109.4,437.5,110.2z M426,120.8  C426,120.8,426,120.8,426,120.8l7.3,3.1l-4.7-6.9C427.7,118.2,426.8,119.5,426,120.8z M422.6,136.1l7.6-2.2l-7.6-2.3  c-0.1,0.8-0.1,1.5-0.1,2.3C422.5,134.6,422.5,135.4,422.6,136.1C422.6,136.1,422.6,136.1,422.6,136.1z M433.3,143.9L426,147  c0.8,1.3,1.7,2.6,2.7,3.8L433.3,143.9z M443,150.2l-5.3,7.1c-0.1,0.1-0.1,0.1-0.2,0.2c1.7,0.8,3.6,1.4,5.5,1.9V150.2z M448.6,160  c0.9,0,1.7,0,2.5-0.1c0-0.1,0-0.1,0-0.2v-14c0-0.6,0.4-1.2,1-1.4c0.6-0.2,1.3,0,1.7,0.5l8,10.8c0.2,0.2,0.2,0.4,0.3,0.7  c1.6-1,3-2.1,4.4-3.3c-0.2-0.1-0.3-0.2-0.4-0.4l-7.5-11.1c-0.4-0.5-0.3-1.3,0.1-1.8c0.4-0.5,1.1-0.7,1.7-0.4l12,5  c0.1,0,0.2,0.1,0.2,0.1c0.7-1.7,1.3-3.5,1.7-5.3c0,0-0.1,0-0.1,0c-0.1,0-0.3,0-0.4-0.1l-12.5-3.6c-0.6-0.2-1.1-0.8-1.1-1.4  c0-0.7,0.4-1.3,1.1-1.4l12.9-3.9c0,0,0.1,0,0.1,0c-0.4-1.8-0.9-3.5-1.6-5.1c-0.1,0-0.1,0.1-0.2,0.1l-12,5c-0.2,0.1-0.4,0.1-0.6,0.1  c-0.4,0-0.9-0.2-1.2-0.5c-0.4-0.5-0.5-1.2-0.1-1.8l7.5-11.1c0.1-0.2,0.3-0.3,0.4-0.4c-1.3-1.3-2.8-2.4-4.4-3.3  c0,0.3-0.1,0.5-0.3,0.7l-8,10.8c-0.3,0.4-0.7,0.6-1.2,0.6c-0.2,0-0.3,0-0.5-0.1c-0.6-0.2-1-0.8-1-1.4v-14c0-0.1,0-0.2,0-0.3  c-0.8-0.1-1.7-0.1-2.5-0.1c-0.9,0-1.7,0-2.6,0.1c0,0.1,0,0.2,0,0.2v14c0,0.6-0.4,1.2-1,1.4c-0.2,0.1-0.3,0.1-0.5,0.1  c-0.5,0-0.9-0.2-1.2-0.6l-8-10.8c-0.2-0.2-0.2-0.4-0.3-0.7c-1.6,1-3,2.1-4.4,3.3c0.1,0.1,0.3,0.2,0.4,0.4l7.5,11.1  c0.4,0.5,0.3,1.3-0.1,1.8c-0.3,0.4-0.7,0.5-1.2,0.5c-0.2,0-0.4,0-0.6-0.1l-12-5c-0.1,0-0.1-0.1-0.2-0.1c-0.7,1.6-1.2,3.3-1.6,5.1  c0,0,0,0,0,0l12.9,3.9c0.6,0.2,1.1,0.8,1.1,1.4c0,0.7-0.4,1.2-1.1,1.4l-12.5,3.6c-0.1,0-0.3,0.1-0.4,0.1c0,0,0,0,0,0  c0.4,1.8,0.9,3.6,1.7,5.3c0.1,0,0.1-0.1,0.2-0.1l12-5c0.6-0.3,1.3-0.1,1.7,0.4c0.4,0.5,0.5,1.2,0.1,1.8l-7.5,11.1  c-0.1,0.2-0.2,0.3-0.4,0.4c1.3,1.3,2.8,2.4,4.3,3.3c0-0.2,0.1-0.5,0.3-0.7l8-10.8c0.4-0.5,1.1-0.7,1.7-0.5c0.6,0.2,1,0.8,1,1.4v14  c0,0.1,0,0.1,0,0.2C446.9,159.9,447.7,160,448.6,160z M471.2,147C471.2,147,471.2,147,471.2,147l-7.4-3.1l4.7,6.9  C469.5,149.6,470.4,148.3,471.2,147z M459.4,157.3l-5.3-7.1v9.2c1.9-0.4,3.7-1,5.5-1.8C459.5,157.5,459.5,157.4,459.4,157.3z   M448.6,140.1c-3.4,0-6.2-2.8-6.2-6.2c0-3.4,2.8-6.2,6.2-6.2s6.2,2.8,6.2,6.2C454.9,137.3,452.1,140.1,448.6,140.1z M451.9,133.9  c0-1.8-1.5-3.2-3.2-3.2s-3.2,1.5-3.2,3.2s1.5,3.2,3.2,3.2S451.9,135.7,451.9,133.9z M137.8,133.9c0,18.4-14.9,33.3-33.3,33.3  s-33.3-14.9-33.3-33.3s14.9-33.3,33.3-33.3S137.8,115.5,137.8,133.9z M134.8,133.9c0-16.7-13.6-30.3-30.3-30.3s-30.3,13.6-30.3,30.3  s13.6,30.3,30.3,30.3S134.8,150.6,134.8,133.9z M132.6,133.9c0,15.5-12.6,28.1-28.1,28.1c-15.5,0-28.1-12.6-28.1-28.1  c0-15.5,12.6-28.1,28.1-28.1C120,105.8,132.6,118.4,132.6,133.9z M130.5,136.1c0.1-0.7,0.1-1.5,0.1-2.2c0-0.8,0-1.6-0.1-2.3  l-7.7,2.3L130.5,136.1C130.4,136.1,130.4,136.1,130.5,136.1z M119.7,123.9l7.3-3.1c0,0,0,0,0,0c-0.8-1.4-1.7-2.6-2.7-3.8  L119.7,123.9z M110,117.6l5.3-7.1c0.1-0.1,0.1-0.2,0.2-0.2c-1.7-0.8-3.6-1.4-5.5-1.9V117.6z M93.4,110.2c0.1,0.1,0.1,0.1,0.2,0.2  l5.3,7.1v-9.2C97,108.8,95.1,109.4,93.4,110.2z M81.9,120.8C81.9,120.8,81.9,120.8,81.9,120.8l7.3,3.1l-4.7-6.9  C83.5,118.2,82.6,119.5,81.9,120.8z M78.5,136.1l7.6-2.2l-7.6-2.3c-0.1,0.8-0.1,1.5-0.1,2.3C78.4,134.6,78.4,135.4,78.5,136.1  C78.5,136.1,78.5,136.1,78.5,136.1z M89.2,143.9l-7.3,3.1c0.8,1.3,1.7,2.6,2.7,3.8L89.2,143.9z M98.9,150.2l-5.3,7.1  c-0.1,0.1-0.1,0.1-0.2,0.2c1.7,0.8,3.6,1.4,5.5,1.9V150.2z M104.5,160c0.9,0,1.7,0,2.5-0.1c0-0.1,0-0.1,0-0.2v-14  c0-0.6,0.4-1.2,1-1.4c0.6-0.2,1.3,0,1.7,0.5l8,10.8c0.2,0.2,0.2,0.4,0.3,0.7c1.6-1,3-2.1,4.4-3.3c-0.2-0.1-0.3-0.2-0.4-0.4  l-7.5-11.1c-0.4-0.5-0.3-1.3,0.1-1.8c0.4-0.5,1.1-0.7,1.7-0.4l12,5c0.1,0,0.2,0.1,0.2,0.1c0.7-1.7,1.3-3.5,1.7-5.3c0,0-0.1,0-0.1,0  c-0.1,0-0.3,0-0.4-0.1l-12.5-3.6c-0.6-0.2-1.1-0.8-1.1-1.4c0-0.7,0.4-1.3,1.1-1.4l12.9-3.9c0,0,0.1,0,0.1,0  c-0.4-1.8-0.9-3.5-1.6-5.1c-0.1,0-0.1,0.1-0.2,0.1l-12,5c-0.2,0.1-0.4,0.1-0.6,0.1c-0.4,0-0.9-0.2-1.2-0.5c-0.4-0.5-0.5-1.2-0.1-1.8  l7.5-11.1c0.1-0.2,0.3-0.3,0.4-0.4c-1.3-1.3-2.8-2.4-4.4-3.3c0,0.3-0.1,0.5-0.3,0.7l-8,10.8c-0.3,0.4-0.7,0.6-1.2,0.6  c-0.2,0-0.3,0-0.5-0.1c-0.6-0.2-1-0.8-1-1.4v-14c0-0.1,0-0.2,0-0.3c-0.8-0.1-1.7-0.1-2.5-0.1c-0.9,0-1.7,0-2.6,0.1  c0,0.1,0,0.2,0,0.2v14c0,0.6-0.4,1.2-1,1.4c-0.2,0.1-0.3,0.1-0.5,0.1c-0.5,0-0.9-0.2-1.2-0.6l-8-10.8c-0.2-0.2-0.2-0.4-0.3-0.7  c-1.6,1-3,2.1-4.4,3.3c0.1,0.1,0.3,0.2,0.4,0.4l7.5,11.1c0.4,0.5,0.3,1.3-0.1,1.8c-0.3,0.4-0.7,0.5-1.2,0.5c-0.2,0-0.4,0-0.6-0.1  l-12-5c-0.1,0-0.1-0.1-0.2-0.1c-0.7,1.6-1.2,3.3-1.6,5.1c0,0,0,0,0,0l12.9,3.9c0.6,0.2,1.1,0.8,1.1,1.4c0,0.7-0.4,1.2-1.1,1.4  L79.3,139c-0.1,0-0.3,0.1-0.4,0.1c0,0,0,0,0,0c0.4,1.8,0.9,3.6,1.7,5.3c0.1,0,0.1-0.1,0.2-0.1l12-5c0.6-0.3,1.3-0.1,1.7,0.4  c0.4,0.5,0.5,1.2,0.1,1.8L87,152.5c-0.1,0.2-0.2,0.3-0.4,0.4c1.3,1.3,2.8,2.4,4.3,3.3c0-0.2,0.1-0.5,0.3-0.7l8-10.8  c0.4-0.5,1.1-0.7,1.7-0.5c0.6,0.2,1,0.8,1,1.4v14c0,0.1,0,0.1,0,0.2C102.7,159.9,103.6,160,104.5,160z M127,147  C127,147,127,147,127,147l-7.4-3.1l4.7,6.9C125.4,149.6,126.3,148.3,127,147z M115.3,157.3l-5.3-7.1v9.2c1.9-0.4,3.7-1,5.5-1.8  C115.4,157.5,115.3,157.4,115.3,157.3z M104.5,140.1c-3.4,0-6.2-2.8-6.2-6.2c0-3.4,2.8-6.2,6.2-6.2c3.4,0,6.2,2.8,6.2,6.2  C110.7,137.3,107.9,140.1,104.5,140.1z M107.7,133.9c0-1.8-1.5-3.2-3.2-3.2s-3.2,1.5-3.2,3.2s1.5,3.2,3.2,3.2  S107.7,135.7,107.7,133.9z"/></svg>
