<!DOCTYPE svg  PUBLIC '-//W3C//DTD SVG 1.1//EN'  'http://www.w3.org/Graphics/SVG/1.1/DTD/svg11.dtd'><svg enable-background="new 0 0 503.6 162.8" id="Layer_1" version="1.1" viewBox="0 0 503.6 162.8" xml:space="preserve" xmlns="http://www.w3.org/2000/svg" xmlns:xlink="http://www.w3.org/1999/xlink"><path d="M174.7,49.5c0-0.6,0.4-1,0.9-1.1l14.3-1c0.5,0,1,0.4,1.1,0.9c0,0.6-0.4,1-0.9,1.1l-14.3,1c0,0,0,0-0.1,0  C175.1,50.4,174.7,50,174.7,49.5z M503.6,102.8v10.8c0,0.4,0,0.9-0.1,1.2c-0.3,1.5-1.3,4.6-4.4,7.9v2.4c0,4.5-3.6,8.1-8.1,8.1h-14.5  c-14.7,3.1-27.9,5.7-34.7,7.1c-0.4,0.1-0.8,0.1-1.3,0.1c-2.1,0-3.9-1-5.1-2.5h-9.6c-4.7,14.4-18.2,24.9-34.2,24.9  s-29.5-10.5-34.2-24.9h-7.9c-0.8,2.7-3.2,4.6-6.1,4.6l-221.6,2.3c0,0-0.1,0-0.1,0c-3,0-5.6-2.1-6.3-4.9h-10.4  c-5.3,13.3-18.3,22.8-33.5,22.8s-28.2-9.5-33.5-22.8h-9.2c-1.1,1.8-3.2,3.1-5.5,3.1c-0.7,0-1.4-0.1-2.1-0.3l-12.6-4.3  c-5.2-1.8-8.7-6.6-8.7-12.2v-10.9c0-5.7,1.1-11.3,3.4-16.6l1.4-3.3c0.1-0.2,0.2-0.5,0.2-0.7L6,88.9c1.6-8.7,8.1-15.8,16.6-18.2  c6.6-1.9,14.4-3.6,22.9-5.3c24-4.7,77.1-14.5,87.5-16.4c1-0.2,2-0.1,3,0.2l3.7,1.1c0.9,0.3,1.9,0.2,2.7-0.3  C154.2,43,214.4,8.4,257.4,2.2C267.7,0.7,278,0,288,0c23.1,0,42.4,3.8,59.7,8.1c0,0,0.1-0.1,0.1-0.1c0.1-0.1,3.1-2,7-1.1  c1.2,0.3,2.8-0.6,4.5-2.4c0.5-0.6,1.4-0.7,2-0.3c0.7,0.4,1,1.1,0.8,1.9l-1.4,5.4c0.1,0,0.2,0.1,0.3,0.1c1.6,0.4,3.2,0.8,4.8,1.3  c11,2.9,24,7.8,37.8,13c21.7,8.3,44.1,16.8,63.4,19.1c0.1,0,0.2,0,0.3,0l13.4,0.8c2.9,0.2,5.3,2.3,5.9,5.1l1.5,6.9  c0.1,0.3,0.2,0.7,0.4,1c1.1,1.9,4.7,8.9,5,17.4l0.3,7.3c0,1,0.5,2,1.4,2.6l0.1,0.1C500.5,90.1,503.6,96.3,503.6,102.8z M489.6,69.4  l-9.3,0.6c1.3,1.8,4.3,4.9,10.3,6.7l0-0.4C490.5,73.8,490.1,71.5,489.6,69.4z M486.1,60.5c-3.4,0.3-13.4,1.2-18.2,1.3  c-1,0-1.9,0.1-2.7,0.3c-1,0.2-1.2,1-1.3,1.3c-0.2,0.7,0.1,1.4,0.6,1.9l16.4,13c3,2.4,6.4,4.3,10,5.6c0-0.1,0-0.1,0-0.2l-0.2-4.8  c-9.9-2.7-12.8-8.7-13-9.2c0,0,0,0,0,0c0,0,0,0,0,0c0,0,0-0.1,0-0.1c0-0.1,0-0.1-0.1-0.2c0,0,0,0,0,0c0-0.1,0-0.1,0-0.2  c0-0.1,0-0.1,0-0.2c0-0.1,0.1-0.1,0.1-0.2c0-0.1,0.1-0.1,0.1-0.2c0,0,0.1-0.1,0.1-0.1c0.1,0,0.1-0.1,0.2-0.1c0,0,0,0,0,0  c0.1,0,0.1,0,0.2,0c0.1,0,0.1,0,0.2,0l10.6-0.7C488,64.2,486.7,61.7,486.1,60.5z M463.1,90.9c8.8-1.5,15-7.5,16.9-9.5  c-0.3-0.3-0.7-0.5-1-0.8l-16.4-13c-1.5-1.2-2.1-3.1-1.7-4.9c0.1-0.4,0.2-0.7,0.4-1l-156.4,9.6c-1.2,17.1-11.9,47-14.8,54.9l57.1-1.1  c0.2,0,0.5,0,0.7,0.1c2.8-16.4,12.4-40.7,44-40.7c13.9,0,23.5,4.5,30.2,10.9C426.7,94.9,453.1,92.5,463.1,90.9z M145.9,128.9  l142.1-2.8c2.3-6.3,13.6-37.6,14.9-54.8l-161.2,9.9c-0.5,4.9-0.6,10.6,0,17.1c2.4,22.8,4.1,30.1,4.1,30.2  C145.9,128.6,145.9,128.8,145.9,128.9z M146.6,62.2c-0.7,1.3-3.4,7.3-4.7,17L303,69.3c0.1-2.1-0.1-3.9-0.4-5.3  c-2.2-9.3-3-13.6-3.3-15.6L151,62.1c0,0-0.1,0-0.1,0c0,0,0,0,0,0h0c0,0,0,0,0,0c0,0,0,0,0,0c-0.2,0-0.3,0-0.5-0.1  c-0.1,0-0.2-0.1-0.3-0.2c0,0-0.1,0-0.1-0.1L146.6,62.2z M167.4,48.2c-0.7,0.3-1.5,0.8-2.6,1.5c-3.6,2.5-7.7,6.4-10.2,9l144.2-13.4  l3.6-33.5c-15.9-1.9-29.3-1.3-50.7,1.8c-24.8,3.6-56.3,18.9-68.3,25.1c2.5,0.2,5.2,0.6,6.5,1.5c4.9,3.2,4.7,12.1,4.7,12.4  c0,0.7-0.5,1.2-1.1,1.4c-0.4,0.1-10.8,2.8-20.3,1.8c-3.4-0.4-5.5-1.6-6.2-3.5C166.4,50.9,166.8,49.4,167.4,48.2z M301.8,45.1  c7.7-0.6,38.6-2.9,59.5-4.2c16.2-1,24-4.2,27.2-6c-7.1-3.1-29.3-12.3-56.5-17.9c-10.4-2.1-18.9-3.7-26.7-4.8L301.8,45.1z M350.9,8.8  c2.7,0.7,5.4,1.4,8,2.1l1.1-4.3c-2,1.8-3.9,2.6-5.6,2.2C353.1,8.5,351.8,8.6,350.9,8.8z M142,53.3l-5.8,8.2l13.3-1.7c0,0,0,0,0,0  c0,0,0.1-0.1,0.1-0.1c0,0,0,0,0,0c0.3-0.3,7.2-8.2,13.5-12.4c3-2,5.3-2.8,6.9-2.4c1.1,0.3,1.5,1,1.6,1.3c0.3,0.6,0.1,1.2-0.3,1.7  c-0.8,0.9-1.9,2.6-1.6,3.6c0.3,0.7,1.6,1.3,3.7,1.5c7.2,0.8,15.2-0.8,18.1-1.4c-0.1-2.6-0.9-7.1-3.3-8.7c-1.4-0.9-7-1.3-10.5-1.2  c0,0,0,0,0,0c-0.7,0-1.3-0.5-1.5-1.1c-0.2-0.7,0.1-1.4,0.7-1.7c0.4-0.2,42.6-23.4,74.2-28c33.4-4.8,47.4-3.6,81.4,3.4  c33.4,6.9,59.3,19,59.6,19.2c0.4,0.2,0.7,0.6,0.8,1.1c0.1,0.5-0.1,1-0.4,1.3c-0.3,0.3-6.6,6.7-31.1,8.3c-21.7,1.4-54,3.8-60.2,4.2  c0.3,1.9,1.1,6.2,3.2,15.3c0.4,1.6,0.5,3.5,0.4,5.7l158.4-9.7c0.3-0.2,0.7-0.3,1.1-0.4c1-0.2,2.1-0.3,3.3-0.3  c4.4-0.1,13.6-0.8,17.3-1.2l-1.3-6.1c-0.3-1.5-1.6-2.6-3.2-2.7l-13.4-0.8c-0.1,0-0.3,0-0.4,0c-19.6-2.4-42.2-11-64.1-19.3  c-13.7-5.2-26.6-10.1-37.5-12.9c-1.6-0.4-3.2-0.8-4.8-1.3C340,9.1,316.8,3,288,3c-9.9,0-20.1,0.7-30.2,2.2  c-42.5,6.1-102.2,40.5-113.7,47.3C143.4,52.9,142.7,53.1,142,53.3z M9.2,88.4c3.5-7.1,8.5-10,14.2-12.5c5.9-2.6,12.8-2.9,15.5-2.9  c0.5,0,0.8,0,0.8,0c0.4,0,0.7,0.2,1,0.4l93-11.6l6-8.5c-0.2,0-0.4-0.1-0.6-0.2l-3.7-1.1c-0.5-0.2-1.1-0.2-1.6-0.1  c-10.4,1.9-63.6,11.7-87.5,16.4C37.6,70,30,71.8,23.4,73.6C16.4,75.6,10.9,81.3,9.2,88.4z M38.4,76c-2.4,0-8.7,0.3-13.8,2.7  c-6.3,2.8-11.4,5.8-14.5,15.4c4.7-1,12.3-3.2,14.2-6.8c1.5-2.9,4.8-4.4,8-5.8C36.8,79.5,38.8,78.3,38.4,76z M3.2,128.4h2.8  c2.5,0,4.5-1.7,5.2-3.9H3v1.8C3,127,3.1,127.7,3.2,128.4z M3,115.4v0.5h5.2c2.5,0,4.5-1.7,5.2-3.9H3.2C3.1,113.1,3,114.2,3,115.4z   M26.9,136.8c0.5-8.8,2.5-21.6,8.8-32.4c8-13.7,20.6-20.7,37.5-20.7c16.6,0,28.9,7.5,36.7,22.4c4.1,7.8,6.2,16.4,7.3,23.4  c0.1,0,0.2,0,0.3,0l26.4-0.5c-0.1-0.3-1.8-7.5-4.2-30.4c-0.7-6.5-0.6-12.3-0.1-17.2l-30.5,1.9c0,0,0,0-0.1,0c-0.5,0-1-0.4-1-0.9  c0-0.6,0.4-1,0.9-1.1l30.8-1.9c1.1-8.5,3.2-14.2,4.4-16.8L41.4,75.3c0.9,5-3.8,7.2-7.7,8.9c-2.7,1.2-5.5,2.5-6.6,4.5  c-3.4,6.4-17.2,8.5-18.8,8.8c-0.1,0-0.1,0-0.2,0c-0.3,0-0.6-0.1-0.8-0.2L6.1,100c-1.2,2.9-2.1,5.9-2.6,9H15c0.8,0,1.5,0.7,1.5,1.5  c0,4.7-3.8,8.4-8.4,8.4H3v2.6h9.9c0.8,0,1.5,0.7,1.5,1.5c0,4.7-3.8,8.4-8.4,8.4H4.4c1.2,1.9,3,3.4,5.2,4.2l12.6,4.3  c0.4,0.1,0.7,0.2,1.1,0.2C25.2,140.1,26.8,138.6,26.9,136.8z M104.6,126.8c0-18.2-14.8-33-33-33s-33,14.8-33,33s14.8,33,33,33  S104.6,145,104.6,126.8z M107.6,126.8c0,3.5-0.5,6.9-1.5,10.2h9c-1.3-16.5-8-50.3-41.9-50.3c-15,0-40.6,6.5-43.4,50.3h7.2  c-0.9-3.2-1.5-6.6-1.5-10.2c0-19.8,16.1-36,36-36S107.6,107,107.6,126.8z M346.8,136.2c0-0.4,0-0.9,0.1-1.4h-65c-0.6,0-1-0.4-1-1  s0.4-1,1-1H347c0.1-1.5,0.3-3.1,0.5-4.9c-0.1,0-0.1,0-0.2,0l-229.6,4.5c0.1,1,0.2,2,0.3,3h102.2c0.6,0,1,0.4,1,1s-0.4,1-1,1h-102  c0,0.4,0.1,0.8,0.1,1.2c0.1,1.8,1.6,3.2,3.4,3.2v1.5l0-1.5l221.6-2.3C345.2,139.5,346.7,138.1,346.8,136.2z M424.6,126.8  c0-18.2-14.8-33-33-33s-33,14.8-33,33s14.8,33,33,33S424.6,145,424.6,126.8z M434.1,134.9c0-0.2-0.1-0.4-0.1-0.6  c-0.7-14.1-6.1-46.8-42.1-46.8c-35.6,0-41.4,32.1-42.1,47.5h6.7c-0.6-2.6-0.9-5.3-0.9-8.1c0-19.8,16.1-36,36-36s36,16.1,36,36  c0,2.8-0.3,5.5-0.9,8.1H434.1z M496,125.4c-2.2,1.7-5.1,3.3-8.7,4.8h3.7C493.7,130.2,495.9,128.1,496,125.4z M500.6,102.8  c0-5.6-2.7-10.9-7.1-14.2l-0.1-0.1c-0.5-0.4-1-0.9-1.4-1.4l-0.1,0.2l-0.1,0c-3.7-1.1-7.1-2.7-10.3-4.8c-1.8,2.1-8.4,8.7-18.2,10.3  c-9.2,1.5-32.2,3.7-39.5,4.3c8.5,9.4,11.6,22,12.7,31.3l35.5-7.6c0.5-0.1,1.1,0.2,1.2,0.8c0.1,0.5-0.2,1.1-0.8,1.2l-35.6,7.6  c0,0-0.1,0-0.1,0c0.1,1.3,0.2,2.6,0.3,3.7c0.1,1.8,1.6,3.3,3.4,3.3c0.2,0,0.5,0,0.7-0.1c6.8-1.3,20.1-4,34.8-7.1c0,0,0,0,0,0  c0.6-0.1,1.3-0.3,1.9-0.4c19.3-4.1,22.3-13.7,22.7-15.6c0-0.2,0.1-0.4,0.1-0.6V102.8z M263.4,63.8c-0.1-0.5,0-1.1,0.5-1.9  c2.4-3,13-4,16.5-4.1c0.8,0,1.5,0,2.2,0c3.7,0,7.5,0.3,7.8,2.9c0.1,0.8-0.2,1.7-0.8,2.5c-1.1,1.4-3.2,2.5-5.2,2.6  c-0.9,0.1-1.4,0.1-1.5,0.1c-0.5,0-1-0.4-1.1-0.9c0-0.8,0.5-1,1-1.1c0,0,0.1-0.1,0.1-0.1c-0.2-0.1-0.6-0.1-1.3-0.1  c-0.5,0-1,0-1.7,0.1c-0.8,0.1-1.7,0.2-2.5,0.2c-2.6,0.2-6.6,0.6-7.1,1.3c0,0,0.1,0.2,0.5,0.7c0.2,0.2,0.4,0.5,0.4,0.8  c0,0.6-0.4,1-1,1c0,0,0,0,0,0c0,0,0,0,0,0C270,67.6,264,67.5,263.4,63.8z M265.4,63.5c0.2,1.1,1.7,1.7,3.1,2c-0.1-0.3,0-0.7,0.1-1  c0.7-1.8,3.9-2.1,8.8-2.5c0.8-0.1,1.6-0.1,2.5-0.2c0.7-0.1,1.3-0.1,1.9-0.1c1.2,0,2.9,0.1,3.3,1.4c0.1,0.2,0.1,0.5,0.1,0.7  c1.2-0.3,2.4-0.9,3.1-1.8c0.3-0.4,0.4-0.7,0.4-0.9c0-0.2-0.4-1.2-5.8-1.2c-0.7,0-1.4,0-2.1,0c-6,0.2-13.6,1.6-15,3.4  C265.4,63.4,265.4,63.4,265.4,63.5z M253.7,30.5c0.1,0,0.3,0,0.4-0.1l11.2-5.1c0.5-0.2,0.7-0.8,0.5-1.3c-0.2-0.5-0.8-0.7-1.3-0.5  l-11.2,5.1c-0.5,0.2-0.7,0.8-0.5,1.3C253,30.2,253.4,30.5,253.7,30.5z M244.2,34.8c0.1,0,0.3,0,0.4-0.1l6.5-3  c0.5-0.2,0.7-0.8,0.5-1.3c-0.2-0.5-0.8-0.7-1.3-0.5l-6.5,3c-0.5,0.2-0.7,0.8-0.5,1.3C243.5,34.6,243.9,34.8,244.2,34.8z M249.7,36.7  c0.2,0.4,0.5,0.6,0.9,0.6c0.1,0,0.3,0,0.4-0.1l23.2-10.4c0.5-0.2,0.7-0.8,0.5-1.3c-0.2-0.5-0.8-0.7-1.3-0.5l-23.2,10.4  C249.7,35.6,249.5,36.2,249.7,36.7z M321.5,30.2c0.1,0,0.3,0,0.4-0.1l8.5-4.1c0.5-0.2,0.7-0.8,0.5-1.3c-0.2-0.5-0.8-0.7-1.3-0.5  l-8.5,4.1c-0.5,0.2-0.7,0.8-0.5,1.3C320.8,30,321.1,30.2,321.5,30.2z M320.1,29.9c-0.2-0.5-0.8-0.7-1.3-0.5l-5,2.4  c-0.5,0.2-0.7,0.8-0.5,1.3c0.2,0.4,0.5,0.6,0.9,0.6c0.1,0,0.3,0,0.4-0.1l5-2.4C320.2,31,320.4,30.4,320.1,29.9z M336.8,26.3  l-17.7,8.4c-0.5,0.2-0.7,0.8-0.5,1.3c0.2,0.4,0.5,0.6,0.9,0.6c0.1,0,0.3,0,0.4-0.1l17.7-8.4c0.5-0.2,0.7-0.8,0.5-1.3  C337.9,26.2,337.3,26,336.8,26.3z M102.1,126.8c0,16.8-13.7,30.5-30.5,30.5s-30.5-13.7-30.5-30.5s13.7-30.5,30.5-30.5  S102.1,110,102.1,126.8z M99.1,126.8c0-15.1-12.3-27.5-27.5-27.5s-27.5,12.3-27.5,27.5s12.3,27.5,27.5,27.5S99.1,142,99.1,126.8z   M82.7,147.5c0.2,0.4,0.3,0.8,0.2,1.2c-0.1,0.4-0.4,0.7-0.8,0.9c-3.3,1.5-6.8,2.3-10.4,2.3c-3.6,0-7.1-0.8-10.4-2.2  c-0.4-0.2-0.7-0.5-0.8-0.9c-0.1-0.4-0.1-0.9,0.2-1.2l7.4-12.2c0.4-0.6,1.1-0.9,1.7-0.7c1.3,0.4,2.6,0.4,3.9,0.1  c0.6-0.2,1.3,0.1,1.6,0.7L82.7,147.5z M79.2,147.6l-5.9-9.7c-1.1,0.2-2.2,0.1-3.3-0.1l-5.9,9.7C68.9,149.4,74.4,149.4,79.2,147.6z   M72.9,119l1.1-15.5c0-0.4,0.2-0.8,0.6-1.1c0.3-0.3,0.8-0.4,1.2-0.3c8.4,1.4,15.4,6.9,18.8,14.7c0.2,0.4,0.2,0.8,0,1.2  c-0.2,0.4-0.5,0.7-0.9,0.8l-14,5.3c-0.2,0.1-0.4,0.1-0.5,0.1c-0.5,0-1-0.2-1.2-0.7c-1-1.4-2.4-2.5-4-3  C73.3,120.3,72.9,119.7,72.9,119z M76,118.1c1.5,0.6,2.7,1.6,3.8,2.8l11.4-4.3c-3-5.6-8.1-9.7-14.3-11.2L76,118.1z M96.7,126.9  c0,6.5-2.5,12.7-7.1,17.5c-0.3,0.3-0.7,0.5-1.1,0.5c0,0,0,0,0,0c-0.4,0-0.8-0.2-1.1-0.5L77.9,134c-0.5-0.5-0.5-1.4-0.1-1.9  c0.8-1.1,1.4-2.4,1.5-3.8c0.1-0.7,0.6-1.2,1.3-1.3l14.5-2.4c0.4-0.1,0.9,0,1.2,0.3c0.3,0.3,0.5,0.7,0.5,1.1l0,0.2  C96.7,126.5,96.7,126.7,96.7,126.9z M93.7,127.9L82,129.8c-0.2,1.1-0.6,2.1-1.2,3l7.7,8.2C91.7,137.3,93.5,132.8,93.7,127.9z   M48.6,118c-0.2-0.4-0.2-0.8,0-1.2c3.2-7.2,9.6-12.6,17.3-14.4c0.4-0.1,0.8,0,1.2,0.2c0.3,0.2,0.6,0.6,0.6,1l2.2,15.5  c0.1,0.7-0.3,1.3-0.9,1.6c-1.4,0.6-2.6,1.6-3.4,2.9c-0.3,0.4-0.8,0.7-1.3,0.7c-0.2,0-0.4,0-0.5-0.1l-14.4-5.4  C49.1,118.7,48.7,118.4,48.6,118z M52,116.6l11.8,4.4c0.8-1,1.8-1.9,3-2.5L65,105.8C59.4,107.5,54.7,111.4,52,116.6z M65.6,133.8  l-9.8,10.6c-0.3,0.3-0.7,0.5-1.1,0.5c0,0,0,0,0,0c-0.4,0-0.8-0.2-1.1-0.5c-4.6-4.7-7.2-11-7.2-17.6c0-0.1,0-0.3,0-0.4l0-0.2  c0-0.4,0.2-0.8,0.5-1.1c0.3-0.3,0.8-0.4,1.2-0.3l14.9,2.3c0.7,0.1,1.2,0.6,1.3,1.3c0.1,1.2,0.6,2.4,1.3,3.5  C66.2,132.5,66.1,133.2,65.6,133.8z M62.7,132.6c-0.4-0.8-0.8-1.7-1-2.6l-12.1-1.9c0.3,4.8,2.1,9.4,5.2,13.1L62.7,132.6z   M71.6,122.4c2.8,0,5,2.2,5,5s-2.2,5-5,5c-2.8,0-5-2.2-5-5S68.9,122.4,71.6,122.4z M69.6,127.4c0,1.1,0.9,2,2,2c1.1,0,2-0.9,2-2  s-0.9-2-2-2C70.5,125.4,69.6,126.3,69.6,127.4z M422.1,126.8c0,16.8-13.7,30.5-30.5,30.5s-30.5-13.7-30.5-30.5s13.7-30.5,30.5-30.5  S422.1,110,422.1,126.8z M419.1,126.8c0-15.1-12.3-27.5-27.5-27.5s-27.5,12.3-27.5,27.5s12.3,27.5,27.5,27.5S419.1,142,419.1,126.8z   M402.7,147.5c0.2,0.4,0.3,0.8,0.2,1.2c-0.1,0.4-0.4,0.7-0.8,0.9c-3.3,1.5-6.8,2.3-10.4,2.3c-3.6,0-7.1-0.8-10.4-2.2  c-0.4-0.2-0.7-0.5-0.8-0.9c-0.1-0.4-0.1-0.9,0.2-1.2l7.4-12.2c0.4-0.6,1.1-0.9,1.7-0.7c1.3,0.4,2.6,0.4,3.9,0.1  c0.6-0.2,1.3,0.1,1.6,0.7L402.7,147.5z M399.2,147.6l-5.9-9.7c-1.1,0.2-2.2,0.1-3.3-0.1l-5.9,9.7  C388.9,149.4,394.4,149.4,399.2,147.6z M392.9,119l1.1-15.5c0-0.4,0.2-0.8,0.6-1.1c0.3-0.3,0.8-0.4,1.2-0.3  c8.4,1.4,15.4,6.9,18.8,14.7c0.2,0.4,0.2,0.8,0,1.2c-0.2,0.4-0.5,0.7-0.9,0.8l-14,5.3c-0.2,0.1-0.4,0.1-0.5,0.1  c-0.5,0-1-0.2-1.2-0.7c-1-1.4-2.4-2.5-4-3C393.3,120.3,392.9,119.7,392.9,119z M396,118.1c1.5,0.6,2.7,1.6,3.8,2.8l11.4-4.3  c-3-5.6-8.1-9.7-14.3-11.2L396,118.1z M416.7,126.9c0,6.5-2.5,12.7-7.1,17.5c-0.3,0.3-0.7,0.5-1.1,0.5c0,0,0,0,0,0  c-0.4,0-0.8-0.2-1.1-0.5l-9.6-10.2c-0.5-0.5-0.5-1.4-0.1-1.9c0.8-1.1,1.4-2.4,1.5-3.8c0.1-0.7,0.6-1.2,1.3-1.3l14.5-2.4  c0.4-0.1,0.9,0,1.2,0.3c0.3,0.3,0.5,0.7,0.5,1.1l0,0.2C416.7,126.5,416.7,126.7,416.7,126.9z M413.7,127.9l-11.6,1.9  c-0.2,1.1-0.6,2.1-1.2,3l7.7,8.2C411.7,137.3,413.5,132.8,413.7,127.9z M368.6,118c-0.2-0.4-0.2-0.8,0-1.2  c3.2-7.2,9.6-12.6,17.3-14.4c0.4-0.1,0.8,0,1.2,0.2c0.3,0.2,0.6,0.6,0.6,1l2.2,15.5c0.1,0.7-0.3,1.3-0.9,1.6  c-1.4,0.6-2.6,1.6-3.4,2.9c-0.3,0.4-0.8,0.7-1.3,0.7c-0.2,0-0.4,0-0.5-0.1l-14.4-5.4C369.1,118.7,368.7,118.4,368.6,118z M372,116.6  l11.8,4.4c0.8-1,1.8-1.9,3-2.5l-1.8-12.7C379.4,107.5,374.7,111.4,372,116.6z M385.6,133.8l-9.8,10.6c-0.3,0.3-0.7,0.5-1.1,0.5  c0,0,0,0,0,0c-0.4,0-0.8-0.2-1.1-0.5c-4.6-4.7-7.2-11-7.2-17.6c0-0.1,0-0.3,0-0.4l0-0.2c0-0.4,0.2-0.8,0.5-1.1  c0.3-0.3,0.8-0.4,1.2-0.3l14.9,2.3c0.7,0.1,1.2,0.6,1.3,1.3c0.1,1.2,0.6,2.4,1.3,3.5C386.2,132.5,386.1,133.2,385.6,133.8z   M382.7,132.6c-0.4-0.8-0.8-1.7-1-2.6l-12.1-1.9c0.3,4.8,2.1,9.4,5.2,13.1L382.7,132.6z M391.6,122.4c2.8,0,5,2.2,5,5s-2.2,5-5,5  s-5-2.2-5-5S388.9,122.4,391.6,122.4z M389.6,127.4c0,1.1,0.9,2,2,2s2-0.9,2-2s-0.9-2-2-2S389.6,126.3,389.6,127.4z"/></svg>
