
<svg width="570px" height="167px" viewBox="0 0 570 167" version="1.1" xmlns="http://www.w3.org/2000/svg" xmlns:xlink="http://www.w3.org/1999/xlink">

    <g id="Page-1" stroke="none" stroke-width="1" fill="none" fill-rule="evenodd">
        <g id="mercedes-benz-car-01" transform="translate(319, 250) scale(-1, 1) translate(-319, -250)translate(69, 0)" fill="currentColor" fill-rule="nonzero">
            <path d="M104.3,96.9 C87.1,96.9 73.2,110.8 73.2,128 C73.2,145.2 87.1,159.1 104.3,159.1 C121.5,159.1 135.4,145.2 135.4,128 C135.4,110.9 121.5,96.9 104.3,96.9 Z M104.3,156.9 C88.3,156.9 75.4,144 75.4,128 C75.4,112 88.3,99.1 104.3,99.1 C120.3,99.1 133.2,112 133.2,128 C133.2,144 120.3,156.9 104.3,156.9 Z M129,117.8 C128.8,117.4 128.4,117.1 128,117.1 C127.8,117.1 127.5,117.2 127.4,117.3 L112.7,125.7 C112.1,124.3 111.4,123 110.5,121.9 L125.1,113.4 C125.2,113.4 125.2,113.3 125.3,113.3 C125.3,113.3 125.3,113.3 125.3,113.3 C125.3,113.3 125.3,113.3 125.3,113.3 C125.8,113 125.9,112.3 125.6,111.8 C125.6,111.8 125.6,111.8 125.6,111.7 C121.3,106.1 115,102.5 108,101.5 C108,101.5 107.9,101.5 107.9,101.5 C107.9,101.5 107.8,101.5 107.8,101.5 C107.8,101.5 107.8,101.5 107.8,101.5 C107.8,101.5 107.8,101.5 107.8,101.5 C107.2,101.5 106.7,102 106.8,102.6 L106.8,119.7 C106.1,119.6 105.5,119.4 104.6,119.4 C103.6,119.4 103.1,119.6 102.4,119.7 L102.4,102.6 C102.4,102 101.9,101.5 101.3,101.5 C101.3,101.5 101.3,101.5 101.3,101.5 C101.2,101.5 101.2,101.5 101.1,101.5 C101.1,101.5 101.1,101.5 101,101.5 C94.1,102.4 87.9,106 83.6,111.5 C83.5,111.6 83.5,111.6 83.5,111.7 C83.2,112.2 83.3,112.9 83.8,113.2 C83.8,113.2 83.9,113.2 83.9,113.3 L98.6,121.8 C97.7,123 96.9,124.3 96.4,125.6 L81.7,117.2 C81.7,117.2 81.7,117.2 81.6,117.2 C81.6,117.2 81.6,117.2 81.6,117.2 C81.6,117.2 81.6,117.2 81.6,117.2 C81.4,117.1 81.2,117 81,117 C80.6,117 80.2,117.3 80,117.7 C77.4,124.1 77.3,131.3 79.9,137.8 C79.9,137.9 80,137.9 80,138 C80.2,138.6 80.8,138.9 81.4,138.7 C81.5,138.7 81.5,138.6 81.6,138.6 L96.3,130.1 C96.3,130.1 97.6,132.8 98.5,133.9 L83.7,142.4 C83.2,142.7 83,143.4 83.2,143.9 C83.3,144.1 83.4,144.2 83.6,144.3 C87.9,149.7 94,153.2 100.8,154.2 C100.9,154.2 100.9,154.2 101,154.2 C101.6,154.3 102.2,153.8 102.2,153.2 C102.2,153.2 102.2,153.1 102.2,153.1 L102.2,136.1 C102.9,136.2 103.7,136.4 104.4,136.4 C105.1,136.4 105.9,136.2 106.6,136.1 L106.6,153.1 C106.6,153.7 107.1,154.2 107.7,154.2 C107.8,154.2 107.9,154.2 108.1,154.1 C108.1,154.1 108.1,154.1 108.1,154.1 C108.2,154.1 108.3,154.1 108.3,154.1 C115.1,153.1 121.3,149.5 125.5,144 C125.8,143.6 125.8,143.1 125.5,142.7 C125.5,142.7 125.5,142.7 125.5,142.7 C125.5,142.7 125.5,142.6 125.4,142.6 C125.3,142.5 125.2,142.4 125.1,142.3 L110.5,133.9 C111.4,132.7 112.2,131.4 112.7,130.1 L127.3,138.5 C127.4,138.5 127.4,138.6 127.5,138.6 C127.5,138.6 127.6,138.6 127.6,138.6 C127.6,138.6 127.6,138.6 127.6,138.6 C127.6,138.6 127.7,138.6 127.7,138.6 C127.8,138.6 127.9,138.6 127.9,138.6 C128,138.6 128,138.6 128.1,138.6 C128.1,138.6 128.1,138.6 128.1,138.6 C128.1,138.6 128.1,138.6 128.1,138.6 C128.1,138.6 128.2,138.6 128.2,138.6 C128.3,138.6 128.3,138.5 128.4,138.5 C128.4,138.5 128.5,138.5 128.5,138.4 C128.5,138.4 128.5,138.4 128.5,138.4 C128.5,138.4 128.6,138.4 128.6,138.3 C128.6,138.3 128.6,138.3 128.6,138.3 C128.6,138.3 128.7,138.3 128.7,138.2 C128.8,138.1 128.9,138 128.9,137.9 C131.7,131.7 131.7,124.4 129,117.8 Z M81.3,136.2 C79.4,130.9 79.4,125.2 81.3,119.9 L95.4,128 L81.3,136.2 Z M108.8,104 C114.3,105 119.3,107.9 122.9,112.1 L108.8,120.2 L108.8,104 Z M85.8,112.2 C89.4,107.9 94.4,105.1 99.9,104.1 L99.9,120.4 L85.8,112.2 Z M85.8,143.9 L99.9,135.7 L99.9,152 C94.4,151 89.4,148.1 85.8,143.9 Z M122.9,143.9 C119.3,148.2 114.3,151 108.8,152 L108.8,135.7 L122.9,143.9 Z M110.6,129.9 C110.6,129.9 110.6,130 110.6,130 C109.8,132.6 107.3,134.6 104.4,134.6 C100.8,134.6 97.9,131.7 97.9,128.1 C97.9,124.5 100.8,121.6 104.4,121.6 C106.2,121.6 107.8,122.3 109,123.5 C109,123.6 109.1,123.7 109.2,123.7 C110.2,124.9 110.9,126.4 110.9,128 C110.8,128.7 110.7,129.3 110.6,129.9 Z M127.3,136.2 L113.2,128.1 L127.3,120 C129.2,125.2 129.2,130.9 127.3,136.2 Z M459.1,117.8 C458.9,117.4 458.5,117.1 458.1,117.1 C457.9,117.1 457.6,117.2 457.5,117.3 L442.8,125.7 C442.2,124.3 441.5,123 440.6,121.9 L455.2,113.4 C455.3,113.4 455.3,113.3 455.4,113.3 C455.4,113.3 455.4,113.3 455.4,113.3 C455.4,113.3 455.4,113.3 455.4,113.3 C455.9,113 456,112.3 455.7,111.8 C455.7,111.8 455.7,111.8 455.7,111.7 C451.4,106.1 445.1,102.5 438.1,101.5 C438.1,101.5 438,101.5 438,101.5 C438,101.5 437.9,101.5 437.9,101.5 C437.9,101.5 437.9,101.5 437.9,101.5 C437.9,101.5 437.9,101.5 437.9,101.5 C437.3,101.5 436.8,102 436.9,102.6 L436.9,119.7 C436.2,119.6 435.6,119.4 434.7,119.4 C433.7,119.4 433.2,119.6 432.5,119.7 L432.5,102.6 C432.5,102 432,101.5 431.4,101.5 C431.4,101.5 431.4,101.5 431.4,101.5 C431.3,101.5 431.3,101.5 431.2,101.5 C431.2,101.5 431.2,101.5 431.1,101.5 C424.2,102.4 418,106 413.7,111.5 C413.6,111.6 413.6,111.6 413.6,111.7 C413.3,112.2 413.4,112.9 413.9,113.2 C413.9,113.2 414,113.2 414,113.3 L428.7,121.8 C427.8,123 427,124.3 426.5,125.6 L411.8,117.2 C411.8,117.2 411.8,117.2 411.7,117.2 C411.7,117.2 411.7,117.2 411.7,117.2 C411.7,117.2 411.7,117.2 411.7,117.2 C411.5,117.1 411.3,117 411.1,117 C410.7,117 410.3,117.3 410.1,117.7 C407.5,124.1 407.4,131.3 410,137.8 C410,137.9 410.1,137.9 410.1,138 C410.3,138.6 410.9,138.9 411.5,138.7 C411.6,138.7 411.6,138.6 411.7,138.6 L426.4,130.1 C426.4,130.1 427.7,132.8 428.6,133.9 L413.8,142.4 C413.3,142.7 413.1,143.4 413.3,143.9 C413.4,144.1 413.5,144.2 413.7,144.3 C418,149.7 424.1,153.2 430.9,154.2 C431,154.2 431,154.2 431.1,154.2 C431.7,154.3 432.3,153.8 432.3,153.2 C432.3,153.2 432.3,153.1 432.3,153.1 L432.3,136.1 C433,136.2 433.8,136.4 434.5,136.4 C435.3,136.4 436,136.2 436.7,136.1 L436.7,153.1 C436.7,153.7 437.2,154.2 437.8,154.2 C437.9,154.2 438,154.2 438.2,154.1 C438.2,154.1 438.2,154.1 438.2,154.1 C438.3,154.1 438.4,154.1 438.4,154.1 C445.2,153.1 451.4,149.5 455.6,144 C455.9,143.6 455.9,143.1 455.6,142.7 C455.6,142.7 455.6,142.7 455.6,142.7 C455.6,142.7 455.6,142.6 455.5,142.6 C455.4,142.5 455.3,142.4 455.2,142.3 L440.6,133.9 C441.5,132.7 442.3,131.4 442.8,130.1 L457.4,138.5 C457.5,138.5 457.5,138.6 457.6,138.6 C457.6,138.6 457.7,138.6 457.7,138.6 C457.7,138.6 457.7,138.6 457.7,138.6 C457.7,138.6 457.8,138.6 457.8,138.6 C457.9,138.6 458,138.6 458,138.6 C458.1,138.6 458.1,138.6 458.2,138.6 C458.2,138.6 458.2,138.6 458.2,138.6 C458.2,138.6 458.2,138.6 458.2,138.6 C458.2,138.6 458.3,138.6 458.3,138.6 C458.4,138.6 458.4,138.5 458.5,138.5 C458.5,138.5 458.6,138.5 458.6,138.4 C458.6,138.4 458.6,138.4 458.6,138.4 C458.6,138.4 458.7,138.4 458.7,138.3 C458.7,138.3 458.7,138.3 458.7,138.3 C458.7,138.3 458.8,138.3 458.8,138.2 C458.9,138.1 459,138 459,137.9 C461.9,131.7 461.8,124.4 459.1,117.8 Z M411.5,136.2 C409.6,130.9 409.6,125.2 411.5,119.9 L425.6,128 L411.5,136.2 Z M439,104 C444.5,105 449.5,107.9 453.1,112.1 L439,120.2 L439,104 Z M416,112.2 C419.6,107.9 424.6,105.1 430.1,104.1 L430.1,120.4 L416,112.2 Z M416,143.9 L430.1,135.7 L430.1,152 C424.6,151 419.6,148.1 416,143.9 Z M453.1,143.9 C449.5,148.2 444.5,151 439,152 L439,135.7 L453.1,143.9 Z M440.7,129.9 C440.7,129.9 440.7,130 440.7,130 C439.9,132.6 437.4,134.6 434.5,134.6 C430.9,134.6 428,131.7 428,128.1 C428,124.5 430.9,121.6 434.5,121.6 C436.3,121.6 437.9,122.3 439.1,123.5 C439.1,123.6 439.2,123.7 439.3,123.7 C440.3,124.9 441,126.4 441,128 C441,128.7 440.9,129.3 440.7,129.9 Z M457.5,136.2 L443.4,128.1 L457.5,120 C459.4,125.2 459.4,130.9 457.5,136.2 Z M434.5,96.9 C417.3,96.9 403.4,110.8 403.4,128 C403.4,145.2 417.3,159.1 434.5,159.1 C451.7,159.1 465.6,145.2 465.6,128 C465.6,110.9 451.7,96.9 434.5,96.9 Z M434.5,156.9 C418.5,156.9 405.6,144 405.6,128 C405.6,112 418.5,99.1 434.5,99.1 C450.5,99.1 463.4,112 463.4,128 C463.4,144 450.5,156.9 434.5,156.9 Z M562.9,92.6 L560.3,90.4 L560.3,84.3 C560.3,78.7 556.2,71.1 554.4,67.9 L559.5,65.6 C560.2,65.3 560.6,64.4 560.3,63.7 L554.6,50.1 C554.4,49.5 553.8,49.1 553.1,49.2 L546.8,49.5 C546.7,49.5 546.7,49.5 546.6,49.5 C541.3,49.5 518.2,42.9 506.8,39.4 C506.6,39.3 506.4,39.3 506.3,39.3 L501.5,39.6 C496.9,37.8 441.8,16.7 423.4,11.7 C404.8,6.8 360.1,0 324.2,0 C293.2,0 267.3,4 240.3,12.8 C217.3,20.3 165.2,49 164.7,49.3 L162.6,50.4 C161.6,50.9 160.5,51 159.3,50.6 C157.7,50 155.9,49.7 154.2,49.9 C141.5,50.9 98.4,54.5 77.7,58.7 C63.5,61.6 29.3,68.7 17.2,72.9 C16.6,73.1 15.9,73.3 15.3,73.6 C15.3,73.6 15.3,73.6 15.3,73.6 L15.3,73.6 C9.4,75.9 6.1,78.2 4.6,79.5 C4,79.9 3.8,80.8 4,81.6 C4.2,82.4 4.9,83 5.7,83.2 L8.4,83.7 L7.6,84.5 L5.3,84 C4.9,83.9 4.5,84 4.1,84.2 C3.8,84.4 3.5,84.8 3.5,85.2 L-2.82933399e-14,104.8 C-0.1,105.4 0.2,106.1 0.8,106.4 L3.9,108 C3.4,108 2.9,108.3 2.7,108.8 L1,111.9 C0.9,112.1 0.8,112.4 0.8,112.6 L0.8,125.4 C0.8,126.2 1.5,126.9 2.3,126.9 L7,126.9 L7,132.6 L1.4,136.6 C1.4,136.6 1.4,136.6 1.3,136.7 C1.3,136.7 1.2,136.8 1.2,136.8 C1.2,136.8 1.1,136.9 1.1,136.9 C1.1,136.9 1,137 1,137 C1,137 1,137.1 0.9,137.1 C0.9,137.2 0.8,137.2 0.8,137.3 C0.8,137.3 0.8,137.4 0.8,137.4 C0.8,137.5 0.8,137.5 0.8,137.6 C0.8,137.6 0.8,137.6 0.8,137.7 C0.8,137.7 0.8,137.8 0.8,137.8 C0.8,137.8 0.8,137.9 0.8,137.9 C0.8,137.9 0.8,137.9 0.8,138 C0.8,138 0.8,138.1 0.8,138.1 C0.8,138.2 0.8,138.2 0.8,138.3 C0.8,138.3 0.8,138.4 0.8,138.4 C0.8,138.5 0.8,138.5 0.9,138.6 C0.9,138.6 0.9,138.7 1,138.7 C1,138.7 1.1,138.8 1.1,138.8 C1.1,138.8 1.1,138.8 1.1,138.9 C1.1,138.9 1.1,138.9 1.2,139 C1.2,139 1.2,139 1.2,139 C3.7,141.7 15.7,144.8 19.4,145.7 C19.5,145.7 19.6,145.7 19.7,145.7 L61.1,147.5 C61.1,147.5 61.1,147.5 61.2,147.5 C61.2,147.5 61.3,147.5 61.3,147.5 C61.8,147.5 62.2,147.2 62.4,146.9 C62.6,146.6 62.7,146.2 62.6,145.9 C62.6,145.7 62.5,145.5 62.4,145.4 C62.3,144.9 62.1,143.7 62,141.9 L68.2,141.9 C73.7,156.5 87.8,167 104.3,167 C120.8,167 134.9,156.6 140.4,141.9 L150,141.9 C150,142.9 150,143.5 150,143.6 C150,144 150.1,144.4 150.4,144.7 C150.7,145 151.1,145.2 151.5,145.2 L390.5,145.2 C390.9,145.2 391.3,145 391.6,144.7 C391.9,144.4 392,144 392,143.5 C392,143.5 391.9,142.9 391.9,141.9 L398.2,141.9 C398.3,141.9 398.3,141.9 398.4,141.9 C403.9,156.5 418,167 434.5,167 C451,167 465.1,156.6 470.6,141.9 L479.3,141.9 C479.4,141.9 479.4,141.9 479.5,141.9 C479.6,142.1 479.7,142.4 479.9,142.5 C480.2,142.8 480.7,142.9 481.1,142.8 L546.7,133.4 L546.8,133.5 L546.9,133.4 L552.9,132.5 C559.7,131.5 565,126.4 566.3,119.7 L568.4,108.6 C569.5,102.4 567.4,96.5 562.9,92.6 Z M517.1,74.1 C514.3,72 506,65.7 505,63.6 C505.6,63.4 507.3,63.2 512,63.6 C513.3,63.7 514.7,63.8 516.2,64 C529.3,65.1 551.2,66.8 555.1,76.2 L555.1,76.2 C555.3,76.7 555.5,77.2 555.7,77.7 C553.7,76.1 550.7,74.3 546.1,72.7 C538.2,70.1 521.6,68.2 520.9,68.1 C520.5,68.1 520,68.3 519.9,68.7 C519.7,69.1 519.9,69.6 520.2,69.9 C521,70.5 538.9,84.1 557.2,84.1 C557.2,84.1 557.2,84.1 557.2,84.1 C557.3,84.1 557.3,84.1 557.4,84.1 C557.4,84.2 557.4,84.3 557.4,84.4 L557.4,87.6 C551.3,86.9 529.9,83.8 517.1,74.1 Z M557,82.1 C543.9,82.1 530.6,74.5 524.6,70.6 C530.1,71.3 540,72.8 545.4,74.6 C553.5,77.2 556.1,80.5 557,82.1 Z M556.8,63.6 L551.5,66 C551.1,66.2 550.8,66.5 550.7,66.9 C550.6,67.3 550.6,67.6 550.8,68 C549.3,67.2 547.6,66.5 545.9,65.8 C545.6,65.5 545.3,65.1 545.1,64.6 C544.2,62.9 542.4,61.4 540.1,60 L552.2,52.4 L556.8,63.6 Z M546.5,52.5 C546.6,52.5 546.7,52.5 546.9,52.5 L548.5,52.4 L538.1,59 C530.9,55.5 519.7,52.9 508.8,50.4 C505.7,49.7 502.7,49 499.8,48.3 C497.7,47.8 495.2,47.1 492.6,46.2 L502,42.5 L506.1,42.2 C509.5,43.3 539.6,52.5 546.5,52.5 Z M411.4,17.1 L416.2,13.2 C417.7,13.5 419.1,13.9 420.4,14.2 L416.1,18.4 C414.6,17.9 413,17.5 411.4,17.1 Z M422.7,14.7 C439.9,19.4 488.2,37.8 498.6,41.7 L489.6,45.2 C478.5,41.6 464,36 450.9,31 C440.3,26.9 430.2,23 422.6,20.4 C421.3,19.9 419.9,19.5 418.4,19 L422.7,14.7 Z M413.7,12.6 L408.9,16.5 C384.7,10.8 346.4,6.1 314.6,6.7 C290.8,7.2 269.6,10.1 251.5,15.2 L249.1,13.2 C273.1,6.2 296.6,3 324.2,3 C355.1,3 392.4,8.1 413.7,12.6 Z M246.8,13.9 L249.2,15.9 C247.2,16.5 245.3,17.1 243.4,17.7 L240.7,15.8 C240.9,15.7 241,15.7 241.2,15.6 C243.1,15.1 245,14.5 246.8,13.9 Z M172.2,52.5 L166.6,51.7 C171.8,48.8 215.9,24.8 238.4,16.6 L241.2,18.6 C227.6,24.1 177,50.1 172.2,52.5 Z M78.4,61.6 C99.4,57.3 145.5,53.6 154.5,52.8 C155.8,52.7 157.1,52.9 158.4,53.4 C160.1,54 162,54 163.6,53.3 L170.9,54.4 L168.6,59.1 C158.8,59.7 144.4,60.6 130,61.6 C107.6,63 69.2,71.9 60.4,74 C60.2,74 59.9,73.9 59.7,73.9 C59.4,73.9 59.1,73.9 58.8,73.9 C52.7,73.9 37.7,79.2 31.7,82 C30.8,80.8 29.5,79.3 28,78.3 C26.6,77.3 23.2,76.1 20.2,75.1 C33.7,70.8 65,64.3 78.4,61.6 Z M183.4,57.3 C184.9,56.4 197.5,48.3 214.4,39.5 C213.6,40.6 213.1,41.9 212.9,43.2 L187.9,56.4 L208.7,54.6 L207.4,56.3 L207.4,56.6 C207.4,56.7 207.4,56.9 207.5,57.2 L182.8,58.1 C183,57.9 183.2,57.6 183.4,57.3 Z M431.8,53.9 C432.8,62.6 424,69.2 413.9,76.8 C409.8,79.9 405.6,83.1 401.9,86.6 C384.9,79.3 348.1,75.7 307,73.6 C307.5,68.4 308.2,63.5 309.1,59.4 L309.7,56.1 C351.4,55.4 423.1,54.1 431.8,53.9 Z M364.7,129.1 L364.7,129.1 L305.8,130.4 C305.7,128.7 305.7,125.8 305.6,122.2 L383.6,120.3 C381.7,124.8 378.6,127.4 374.1,128.2 C371.1,128.7 367.5,129 364.7,129.1 Z M137.5,97.1 C129.3,88.5 118.2,84.2 104.5,84.2 C99,84.2 93.9,84.9 89.4,86.3 C87.6,84.7 82.9,81.1 76,78.9 C88.7,76.8 127,71.2 176.2,71.7 C174.3,82.9 174.3,96.6 174.4,107 C174.4,108.2 174.4,109.4 174.4,110.5 C174.4,115.6 174.9,119.8 175.5,123.2 L157.7,123.6 C157.1,123.6 156.7,124.1 156.7,124.6 C156.7,125.1 157.2,125.6 157.7,125.6 C157.7,125.6 157.7,125.6 157.7,125.6 L175.9,125.2 C176.8,129 177.9,131.6 178.6,133.1 L152.6,133.7 C151.6,123.8 148.2,108.2 137.5,97.1 Z M176.299174,110.6 C176.299174,109.5 176.299174,108.3 176.299174,107 C176.299174,97.1 176.2,83 178.2,71.7 C181.9,71.8 185.6,71.8 189.4,72 C200.7,72.4 213.2,72.7 226.4,73 C251.5,73.6 279,74.3 304.9,75.5 C303.5,90.8 303.5,108.7 303.6,120.2 L177.5,123.2 C176.8,119.9 176.299174,115.7 176.299174,110.6 Z M180.9,133.1 C180.3,132.1 179,129.6 178,125.2 L303.7,122.2 C303.8,125.9 303.8,128.7 303.9,130.4 L180.9,133.1 Z M384.6,117.7 C384.5,117.9 384.5,118.1 384.4,118.3 L305.6,120.2 C305.5,108.7 305.5,90.8 306.9,75.7 C347.2,77.7 383.3,81.2 400.4,88.2 C391.8,96.9 387.1,109 384.6,117.7 Z M310.1,54.2 L310.6,51.4 L318.8,13.3 C344.6,13.3 368.9,17.2 389,24.8 C408.5,32.2 419.1,39.6 424.5,44.4 C428.3,47.8 430.2,50.5 431,51.9 C419.8,52.1 350.8,53.4 310.1,54.2 Z M308.7,51 L308.1,54.2 C300.9,54.3 294.6,54.5 289.9,54.6 C260.3,55.2 230.8,56.3 224.1,56.6 C224.4,55.7 224.5,54.8 224.6,54.1 L300.7,50.9 C301.3,50.9 301.9,50.4 302.1,49.8 L311.1,17.5 C311.2,17 311.1,16.6 310.8,16.2 C310.5,15.8 310.1,15.6 309.6,15.6 C262.9,16.3 229.7,34.5 227.1,35.9 C226.1,35.7 225.1,35.5 224,35.5 C223.4,35.5 222.7,35.6 222.1,35.6 C238.1,27.7 256.6,20.1 272.7,17.3 C287.5,14.7 302.4,13.3 316.8,13.2 L308.7,51 Z M212.8,46.6 C212.9,47.3 213,47.9 213.1,48.5 L211,51.4 L202.4,52.2 L212.8,46.6 Z M209.9,57.6 C209.9,57.5 209.8,57.5 209.8,57.5 C209.6,57.3 209.5,57.2 209.5,57 L215.4,48.9 L215.2,48.4 C215.1,48.1 212.8,40.6 219.5,38.3 C221,37.8 222.6,37.5 224.1,37.5 C229.4,37.5 233.2,40.7 233.5,45.3 L222,45.3 C221.4,45.3 221,45.7 221,46.3 C221,46.9 221.4,47.3 222,47.3 L233.3,47.3 C232.9,48.8 231.8,49.9 229.9,50.6 C227.8,51.5 225.3,51.5 224.3,51.5 C224,51.5 223.7,51.5 223.7,51.5 L222.6,51.4 L222.7,52.5 C222.7,52.5 222.9,56.3 220.9,58.4 C219.8,59.5 218.3,59.9 216.4,59.7 C212.5,59.3 210.7,58.3 209.9,57.6 Z M235.3,46.6 C235.3,46.5 235.4,46.4 235.4,46.4 C235.4,46.4 235.4,46.3 235.4,46.3 C235.4,46.2 235.4,46.1 235.4,46 C235.4,42.3 233.6,39.3 230.7,37.4 C236.8,34.2 266.1,19.7 307.6,18.7 L299.4,48 L233.4,50.8 C234.6,49.6 235.2,48.2 235.3,46.6 Z M181.6,60.3 L208.8,59.3 C210,60.3 212.1,61.3 216,61.8 C216.5,61.9 216.9,61.9 217.3,61.9 C219.3,61.9 221,61.2 222.2,59.9 C222.6,59.5 222.9,59 223.2,58.6 C227.4,58.4 258.6,57.2 289.9,56.6 C294.6,56.5 300.7,56.4 307.7,56.3 L307.2,59.2 C306.3,63.4 305.6,68.3 305.1,73.7 C279.1,72.4 251.6,71.8 226.4,71.2 C213.2,70.9 200.7,70.6 189.4,70.2 C185.7,70.1 182.1,70 178.6,69.9 C179.3,66.1 180.3,62.9 181.6,60.3 Z M176.5,69.7 C121.4,69.1 79.7,76.1 72.3,77.5 L71.9,77.3 C71.7,77.2 68.7,75.9 65.1,74.9 C78.3,71.8 110.5,64.8 130.1,63.5 C151.8,62.1 173.5,60.7 179.3,60.4 C178.1,63.1 177.2,66.3 176.5,69.7 Z M22.7,100.6 C23.6,98.5 24.5,96.5 25.3,94.7 C26.6,93.8 29.5,92.1 36.3,88.7 C49.8,81.9 58.8,81.7 63.1,82.3 L52.1,89.6 C47.6,92.6 42.6,94.8 37.3,96.2 C30.8,97.8 25.9,99.3 22.7,100.6 Z M65.5,80.7 C62,79.8 52,78.5 35.4,86.9 C31.7,88.8 29,90.2 27.1,91.3 C28.9,88.1 30.5,85.9 31.7,85.3 C36.1,82.9 52.8,76.9 58.8,76.9 C59,76.9 59.2,76.9 59.4,76.9 C62.4,77.2 65.8,78.3 68,79.1 L65.5,80.7 Z M13.5,84.6 C14.1,84.7 14.6,85.1 14.9,85.6 C15.2,86.1 15.3,86.7 15.1,87.3 L13.5,92.5 L10,92.4 L11.2,86.8 C11.3,86.3 11.2,85.8 10.8,85.5 L11.9,84.3 L13.5,84.6 Z M7.6,95.3 C7.8,95.4 7.9,95.4 8.1,95.4 L12.6,95.5 L11.9,97.7 L7.3,97.6 C7.2,97.6 7,97.6 6.9,97.7 L5.3,96.7 L7.6,95.3 Z M8.6,100.6 L11,100.6 L10,103.8 C9.6,105.1 8.8,106.1 7.8,106.8 L8.6,100.6 Z M6.1,87.3 L7.9,87.7 L6.7,93.5 L4.9,94.6 L6.1,87.3 Z M4.2,98.3 L5.8,99.3 L5,105.1 L3.2,104.2 L4.2,98.3 Z M3.8,112.9 L3.8,112.9 L6,113.4 L6,123.7 L3.8,123.7 L3.8,112.9 Z M15.9,128.5 L10,130.1 L10,128.5 L16.4,126.8 C16.2,127.3 16.1,127.9 15.9,128.5 Z M10,126.4 L10,125.3 C10,125.1 9.9,124.9 9.9,124.7 L16.3,123 C16.4,123.5 16.6,124 16.6,124.7 L10,126.4 Z M7.9,123.1 L7.9,121.7 L13.8,121.5 L7.9,123.1 Z M8.6,139.2 L17.8,139.2 L22.9,142.6 L19.8,142.5 C16.1,141.5 11.9,140.3 8.6,139.2 Z M28.8,142.8 L19.1,136.4 C18.9,136.2 18.6,136.1 18.3,136.1 L6.9,136.1 L9.3,134.3 C9.7,134 9.9,133.6 9.9,133.1 L9.9,132.1 L14.9,130.8 C14.8,131.1 14.6,131.3 14.5,131.6 C14.2,132.1 14.4,132.7 14.9,133 C15.1,133.1 15.2,133.1 15.4,133.1 C15.8,133.1 16.1,132.9 16.3,132.6 C21,124.2 17,120.1 16.9,120 C16.9,120 16.8,120 16.8,119.9 C16.6,119.6 16.3,119.4 16,119.4 C16,119.4 16,119.4 16,119.4 L8.1,119.6 L8.1,111.9 L4.8,111 L4.9,110.9 C8.6,110.8 11.8,108.4 12.9,104.8 L18,88.2 C18.4,86.8 18.2,85.3 17.5,84 C16.7,82.8 15.5,81.9 14,81.6 L8,80.5 C9.7,79.3 12.6,77.6 17,76 C20.4,77.1 25.4,78.7 26.9,79.8 C28,80.6 29.1,81.8 29.9,82.8 C25.7,85.5 21.2,96 18.8,102.1 C18.7,102.4 18.7,102.8 18.7,103.1 C14.4,106.7 12.1,112.8 12,113.2 C11.8,113.7 12.1,114.3 12.6,114.5 C12.7,114.5 12.8,114.6 12.9,114.6 C13.3,114.6 13.7,114.3 13.8,113.9 C13.8,113.8 16,107.9 20,104.6 C20.1,104.6 20.3,104.7 20.5,104.7 C20.8,104.7 21.1,104.6 21.4,104.5 C23.9,103.1 29.6,101.2 37.9,99.1 C43.5,97.7 48.8,95.3 53.6,92.1 L72,80 C79.2,81.6 84.5,85.1 87,87.1 C78.8,90.1 72.2,95.5 67.4,103.3 C58.2,118.2 58.4,137.6 59.2,144.2 L28.8,142.8 Z M104.3,163.6 C84.7,163.6 68.8,147.7 68.8,128.1 C68.8,108.5 84.7,92.6 104.3,92.6 C123.9,92.6 139.8,108.5 139.8,128.1 C139.8,147.7 123.9,163.6 104.3,163.6 Z M141.4,138.5 C142.3,135.2 142.9,131.7 142.9,128.1 C142.9,106.9 125.6,89.6 104.4,89.6 C83.2,89.6 65.9,106.9 65.9,128.1 C65.9,131.7 66.4,135.2 67.4,138.5 L62,138.5 C61.9,129.8 63.2,114.4 71.6,102.6 C78.9,92.4 90,87.2 104.6,87.2 C117.4,87.2 127.8,91.2 135.4,99.2 C147.1,111.4 149.5,130 150,138.6 L141.4,138.6 L141.4,138.5 Z M153,141.7 C153,140.4 153,138.3 152.7,135.7 L359.1,131.2 C359.2,131.2 359.4,131.2 359.7,131.2 C361.8,131.2 368.8,131.1 374.3,130.1 C380.4,129 384.4,125.1 386.3,118.2 C388.8,109.3 393.7,96.9 402.6,88.4 C406.4,84.8 410.7,81.5 415,78.3 C425.5,70.4 435.4,62.9 433.5,52.6 C433.5,52.6 433.5,52.6 433.5,52.5 C433.5,52.5 433.5,52.5 433.5,52.4 C433.3,51.8 428,37.3 389.6,22.7 C356.9,10.3 315.2,7.6 272.2,15.2 C234,21.9 182.5,55.2 182,55.6 C182,55.6 181.9,55.7 181.9,55.7 C181.9,55.7 181.8,55.8 181.8,55.8 C181.8,55.8 181.8,55.8 181.8,55.9 C181.8,55.9 181.8,55.9 181.8,55.9 C181.5,56.3 181.2,56.7 180.9,57.2 C180.6,57.6 180.3,58 180.1,58.2 C178.9,58.3 175.6,58.5 170.8,58.8 L173.1,54.2 C177.6,51.9 233.8,23.1 243.6,19.7 C263.2,12.9 287.1,9.2 314.6,8.6 C353.1,7.8 401.2,14.9 421.9,22.1 C429.5,24.7 439.5,28.6 450.1,32.7 C468.8,39.9 488.1,47.4 499.3,50.1 C502.2,50.8 505.2,51.5 508.3,52.2 C522.5,55.4 538.5,59.1 542.8,64.7 C534.4,62.3 524.3,61.5 516.4,60.9 C514.9,60.8 513.5,60.7 512.2,60.5 C508.6,60.2 505.9,60.1 504.2,60.6 L445.6,56.7 C445,56.7 444.6,57.1 444.5,57.6 C444.4,58.1 444.9,58.6 445.4,58.7 L501.9,62.5 C501,65 503.9,67.9 515.2,76.5 C518.2,78.7 521.5,80.6 525,82.2 C524.1,83.6 522.3,85.5 519.4,86.8 C511.9,90.1 466.3,90.1 458.5,90.1 C451.8,85.6 443.8,83.3 434.8,83.3 C421.2,83.3 410.3,87.7 402.5,96.4 C388.6,111.8 388.7,135.2 389,141.6 L153,141.6 L153,141.7 Z M434.5,163.6 C414.9,163.6 399,147.7 399,128.1 C399,108.5 414.9,92.6 434.5,92.6 C454.1,92.6 470,108.5 470,128.1 C470,147.7 454.1,163.6 434.5,163.6 Z M434.5,89.5 C413.3,89.5 396,106.8 396,128 C396,131.6 396.5,135.1 397.5,138.4 L391.9,138.4 C391.9,129.8 393.2,111.1 404.7,98.4 C412,90.4 422.1,86.3 434.8,86.3 C452.5,86.3 465.4,95.4 473.1,113.4 C477.5,123.6 478.9,133.8 479.3,138.5 L471.6,138.5 C472.5,135.2 473.1,131.7 473.1,128.1 C473.1,106.8 455.8,89.5 434.5,89.5 Z M552.5,129.2 L549.9,129.6 L558.8,119.5 C559.2,119 559.9,118.7 560.5,118.6 L563.4,118.2 L563.3,118.8 C562.4,124.3 558,128.4 552.5,129.2 Z M565.5,107.7 L564.1,115.1 L560.2,115.6 C558.8,115.8 557.5,116.5 556.6,117.5 L545.4,130.2 L482.3,139.2 C482.1,136.7 481.6,131.6 480.1,125.5 L536.9,120.8 C537.4,120.8 537.9,120.3 537.8,119.7 C537.8,119.2 537.3,118.7 536.7,118.8 L479.6,123.5 C478.7,119.9 477.4,116.1 475.8,112.2 C472.1,103.6 467.2,96.9 461.2,92.1 C461.4,92.1 461.6,92.1 461.8,92.1 C475.1,92.1 513,91.8 520.2,88.6 C523.8,87 525.8,84.6 526.9,83 C539.3,88.3 552.9,90.1 557.3,90.5 L557.3,91 C557.3,91.4 557.5,91.9 557.8,92.1 L560.9,94.7 C562.2,95.8 563.2,97.1 564,98.6 L483.4,105.7 C482.9,105.7 482.4,106.2 482.5,106.8 C482.5,107.3 483,107.7 483.5,107.7 C483.5,107.7 483.6,107.7 483.6,107.7 L564.8,100.5 C565.7,102.9 565.9,105.3 565.5,107.7 Z M42.1,119.4 L42.1,119.4 L42.1,119.4 C41.4,118.7 40.5,118.2 39.6,117.7 C36.7,116.4 33.6,115.7 30.6,115.7 C30.3,115.7 30.1,115.7 29.8,115.7 C29.8,115.7 29.7,115.7 29.7,115.7 L29.7,115.7 C29.5,115.7 24.3,115.7 21.4,116.9 C20.9,117.1 20.6,117.7 20.8,118.2 C21,118.6 21.3,118.8 21.7,118.8 C21.8,118.8 21.9,118.8 22.1,118.7 C22.9,118.4 24,118.1 25.1,118 C23.9,122.3 23.7,129.6 30.8,132.4 C37,134.9 42.1,135.3 44.5,135.3 C45.7,135.3 46.4,135.2 46.4,135.2 C46.9,135.1 47.3,134.7 47.3,134.2 C47.3,133.9 47.3,124.1 42.1,119.4 Z M30.6,117.8 C31.4,117.8 32.2,117.9 32.9,118 L26.8,119.4 C26.9,118.9 27,118.4 27.1,118.1 C27.8,118 29,117.8 30.6,117.8 Z M41.5,121.6 C41.9,122.1 42.3,122.6 42.6,123.1 L27.2,126.6 C27,126.1 26.8,125.6 26.7,125 L41.5,121.6 Z M39.6,120 L26.5,123.1 C26.5,122.5 26.5,122 26.6,121.5 L37.3,119 C37.8,119.2 38.3,119.4 38.9,119.6 C39.1,119.7 39.3,119.8 39.6,120 Z M28.4,128.5 L43.5,125 C43.7,125.5 43.9,125.9 44,126.4 L29.8,129.8 C29.2,129.4 28.8,128.9 28.4,128.5 Z M44.9,129.9 L35.5,132 C34.6,131.7 33.7,131.4 32.7,131.1 L44.6,128.3 C44.7,128.9 44.8,129.4 44.9,129.9 Z M40.1,133.1 L45.2,132 C45.3,132.6 45.3,133.1 45.3,133.5 C44.3,133.4 42.5,133.4 40.1,133.1 Z M324,16 C323.3,16 322.7,16.5 322.6,17.2 L317.2,48.6 C317.1,49 317.2,49.5 317.5,49.8 C317.8,50.1 318.2,50.3 318.6,50.3 C318.6,50.3 318.6,50.3 318.6,50.3 L422.7,49.7 C423.3,49.7 423.9,49.3 424.1,48.7 C424.3,48.1 424.1,47.4 423.6,47 C423.4,46.9 382.8,14.8 324,16 Z M325.3,19 C326,19 326.7,19 327.3,19 C354.6,19 377.7,26.2 394.2,33.7 L394.2,47.1 L320.3,47.5 L325.3,19 Z M397.3,47 L397.3,35 C407,39.6 414.2,44.1 418.2,46.9 L397.3,47 Z M268.3,35.6 C268.1,35.1 268.3,34.5 268.8,34.3 L279.5,29.5 C280,29.3 280.6,29.5 280.8,30 C281,30.5 280.8,31.1 280.3,31.3 L269.6,36.1 C269.5,36.2 269.3,36.2 269.2,36.2 C268.8,36.2 268.4,36 268.3,35.6 Z M259.2,39.8 C259,39.3 259.2,38.7 259.7,38.5 L265.9,35.7 C266.4,35.5 267,35.7 267.2,36.2 C267.4,36.7 267.2,37.3 266.7,37.5 L260.5,40.3 C260.4,40.4 260.2,40.4 260.1,40.4 C259.7,40.4 259.4,40.2 259.2,39.8 Z M265.8,40.8 L287.9,30.9 C288.4,30.7 289,30.9 289.2,31.4 C289.4,31.9 289.2,32.5 288.7,32.7 L266.6,42.6 C266.5,42.7 266.3,42.7 266.2,42.7 C265.8,42.7 265.5,42.5 265.3,42.1 C265.1,41.6 265.3,41 265.8,40.8 Z M343.4,35.6 C343.2,35.1 343.4,34.5 343.9,34.3 L354.6,29.5 C355.1,29.3 355.7,29.5 355.9,30 C356.1,30.5 355.9,31.1 355.4,31.3 L344.7,36.1 C344.6,36.2 344.4,36.2 344.3,36.2 C343.9,36.2 343.6,36 343.4,35.6 Z M341.9,37.5 L335.7,40.3 C335.6,40.4 335.4,40.4 335.3,40.4 C334.9,40.4 334.6,40.2 334.4,39.8 C334.2,39.3 334.4,38.7 334.9,38.5 L341.1,35.7 C341.6,35.5 342.2,35.7 342.4,36.2 C342.6,36.6 342.4,37.2 341.9,37.5 Z M363.9,32.7 L341.8,42.6 C341.7,42.7 341.5,42.7 341.4,42.7 C341,42.7 340.7,42.5 340.5,42.1 C340.3,41.6 340.5,41 341,40.8 L363.1,30.9 C363.6,30.7 364.2,30.9 364.4,31.4 C364.6,31.9 364.4,32.5 363.9,32.7 Z M283,67.7 C283,67.7 283,67.7 283,67.7 C283.1,67.7 283.1,67.7 283,67.7 C283.6,67.7 284.1,67.3 284.1,66.7 C284.1,66.4 284,66.1 283.7,65.9 C283.3,65.4 283.3,65.2 283.3,65.2 C283.8,64.5 287.8,64.3 290.4,64.2 C291.2,64.2 292.1,64.1 292.9,64.1 C293.4,64.1 293.8,64.1 294.1,64.1 C295,64.1 295.5,64.2 295.8,64.3 C295.8,64.3 295.7,64.4 295.7,64.4 C295.2,64.5 294.6,64.7 294.7,65.5 C294.7,65.7 294.8,66.5 295.9,66.5 C296.1,66.5 296.5,66.5 297.3,66.5 C299.3,66.4 301.4,65.4 302.6,64.1 C303.3,63.3 303.6,62.5 303.5,61.7 C303.2,58.9 298.7,58.5 293.8,58.5 L293.6,58.5 C290.1,58.5 279.5,59.2 276.9,62.1 C276.3,62.8 276.2,63.5 276.3,63.9 C276.8,67.4 282.8,67.7 283,67.7 Z M278.4,63.2 C279.9,61.5 287.6,60.3 293.5,60.3 L293.7,60.3 C300.7,60.3 301.4,61.4 301.4,61.7 C301.4,61.9 301.3,62.3 301,62.6 C300.3,63.4 299.1,64 297.9,64.3 C297.9,64.1 297.9,63.8 297.8,63.6 C297.3,62.3 295.6,62.1 294.1,62.1 C293.7,62.1 293.2,62.1 292.7,62.1 C291.9,62.2 291,62.2 290.2,62.2 C285.3,62.5 282.1,62.6 281.4,64.4 C281.3,64.7 281.2,65 281.3,65.4 C279.9,65.1 278.4,64.5 278.3,63.3 C278.3,63.4 278.3,63.3 278.4,63.2 Z M395.8,61.6 C396.2,65.4 402.1,65.8 402.4,65.9 C402.4,65.9 402.4,65.9 402.5,65.9 C402.5,65.9 402.5,65.9 402.5,65.9 C403.1,65.9 403.5,65.5 403.5,64.9 C403.5,64.6 403.4,64.3 403.2,64.1 C402.8,63.6 402.8,63.4 402.8,63.4 C403.3,62.7 407.3,62.7 409.9,62.6 C410.7,62.6 411.6,62.6 412.4,62.5 C414.1,62.4 415,62.6 415.3,62.7 C415.3,62.7 415.2,62.8 415.2,62.8 C414.7,62.9 414.1,63.1 414.1,63.8 C414.1,64.8 415.1,64.8 415.7,64.8 C415.9,64.8 416.2,64.8 416.6,64.8 C418.6,64.8 420.7,63.9 422,62.5 C422.7,61.7 423,60.9 423,60.1 C422.8,57.4 418.9,56.8 413.2,56.6 C412.8,56.6 412.3,56.6 411.9,56.6 C411.4,56.6 399.2,56.6 396.4,59.7 C395.9,60.5 395.8,61.2 395.8,61.6 Z M397.9,61.2 C399.3,59.7 406.1,58.8 411.9,58.8 C412.3,58.8 412.8,58.8 413.2,58.8 C420.4,59 421.1,60.1 421.1,60.4 C421.1,60.6 421,61 420.6,61.3 C419.9,62.1 418.7,62.7 417.4,62.9 C417.4,62.7 417.4,62.4 417.3,62.2 C416.8,60.8 414.8,60.6 413,60.6 C412.7,60.6 412.5,60.6 412.2,60.6 C411.4,60.6 410.5,60.6 409.7,60.7 C404.8,60.8 401.6,60.9 400.8,62.7 C400.7,63 400.6,63.3 400.6,63.7 C399.3,63.4 397.8,62.7 397.7,61.5 C397.8,61.4 397.8,61.3 397.9,61.2 Z" id="Shape"></path>
        </g>
    </g>
</svg>
