
<svg width="317px" height="179px" viewBox="0 0 317 179" version="1.1" xmlns="http://www.w3.org/2000/svg" xmlns:xlink="http://www.w3.org/1999/xlink">

    <g id="Page-1" stroke="none" stroke-width="1" fill="none" fill-rule="evenodd">
        <g id="mercedes-benz-car-04" transform="translate(409, -160) scale(-1, 1) translate(-409, 160)translate(159, -410)" fill="currentColor" fill-rule="nonzero">
            <path d="M497.4,447.8 C497.2,447.3 497.4,446.7 497.9,446.5 L508.6,441.7 C509.1,441.5 509.7,441.7 509.9,442.2 C510.1,442.7 509.9,443.3 509.4,443.5 L498.7,448.3 C498.6,448.4 498.4,448.4 498.3,448.4 C497.9,448.4 497.5,448.2 497.4,447.8 Z M496.3,448.4 C496.1,447.9 495.5,447.7 495,447.9 L488.8,450.7 C488.3,450.9 488.1,451.5 488.3,452 C488.5,452.4 488.8,452.6 489.2,452.6 C489.3,452.6 489.5,452.6 489.6,452.5 L495.8,449.7 C496.3,449.5 496.6,448.9 496.3,448.4 Z M517.1,443.1 L495,453 C494.5,453.2 494.3,453.8 494.5,454.3 C494.7,454.7 495,454.9 495.4,454.9 C495.5,454.9 495.7,454.9 495.8,454.8 L517.9,444.9 C518.4,444.7 518.6,444.1 518.4,443.6 C518.2,443.1 517.6,442.9 517.1,443.1 Z M656.6,552.7 C657.1,553.4 657.7,554.4 657.7,556.1 C657.7,557.1 657.3,558.8 654.7,559.6 C653.6,560 652.2,560.1 650.5,560.1 C650.5,560.1 650.5,560.1 650.5,560.1 C649.3,560.1 648.4,560 648.1,560 L642.4,560 C642.4,560 642.3,560 642.3,560 C640.1,576.1 626.3,588.6 609.6,588.6 C594.3,588.6 581.4,578.1 577.6,563.9 L570.3,563.9 C570.3,564.5 570.3,564.9 570.3,564.9 C570.3,565.3 570.2,565.7 569.9,566 C569.6,566.3 569.2,566.5 568.8,566.5 L435.1,571.4 C435.1,571.4 435.1,571.4 435,571.4 C434.6,571.4 434.2,571.2 433.9,571 C433.6,570.7 433.4,570.3 433.5,569.9 C433.5,567.8 433.5,565.8 433.4,563.9 L426.6,563.9 C422.9,578.1 410,588.6 394.6,588.6 C379.3,588.6 366.4,578.1 362.6,563.9 L357.1,563.9 C355.5,567.4 353.3,568.2 351.7,568.2 C351.2,568.2 350.9,568.1 350.6,568.1 C345.6,568 343.2,563.4 342.7,560.9 C342.6,560.5 342.7,560 343,559.6 L345.6,556.2 L345.6,547.9 L343.3,545.3 C343.1,545 342.9,544.7 342.9,544.3 L342.9,529.4 C342.7,528.2 341.7,521.7 345.2,511.1 C345.6,509.9 346.2,508.7 347.1,507.4 C347.2,507.3 347.2,507.2 347.3,507 C355.3,495 379.6,477.6 380.8,476.8 C381,476.7 381.2,476.6 381.4,476.5 L390.8,474.7 C421.5,449.3 472.7,417.8 473.2,417.5 C473.5,417.3 474,417.2 474.3,417.3 L481.3,419 C483.4,418.1 491,415.4 516,412 C521.7,411.2 529.1,410.8 538.1,410.8 C571,410.8 615.4,416 615.9,416 C616.2,416 616.6,416.2 616.8,416.5 C632,432.5 642.5,458.7 644.1,462.9 C648.5,465.6 647.1,471.6 646.7,473.1 L647.4,478.4 C647.4,478.4 647.4,478.5 647.4,478.5 C647.4,478.7 648.5,497.8 649.3,506 C650,513.8 655,521 655.1,521.1 C655.2,521.2 655.3,521.4 655.3,521.5 C656.9,527 655.2,536.8 654.5,540.5 C655.7,541 657.2,541.8 657.9,543.4 C658.6,545 658.3,546.8 657,548.7 C655.8,551.5 656.1,551.9 656.6,552.7 Z M646.8,506.4 C646.8,506.4 646.8,506.4 646.8,506.4 C643.5,504 630.4,496.1 607.5,502.4 C584,508.8 577.6,510.7 576.3,511.1 C565,525 554.3,537.8 547.5,545.1 L570.2,543.4 C572,537.3 575.1,530.8 580.1,525.5 C587.5,517.6 597.8,513.6 610.7,513.6 C631,513.6 640.6,525.9 645.1,536.2 C645.3,536.7 645.5,537.1 645.7,537.6 L652.6,537.6 C653.3,533.4 654.1,526.7 653.1,522.8 C652,521.4 647.5,514.3 646.8,506.4 Z M569.5,545.4 L545.3,547.2 C542.9,549.6 541.2,551.1 540.4,551.3 C535.7,552.7 486.8,556.4 458.1,558.5 C457.7,558.5 457.3,558.5 456.9,558.5 C451.7,558.5 446.9,556.1 443.8,552.1 L435.6,553.3 C436.2,556.7 436.6,560.2 436.7,563.9 L567.5,558.4 C567.7,555 568.2,550.4 569.5,545.4 Z M394.9,515 C395.2,515 395.6,515 396,515 C406.1,515 415.6,519 422.7,526.3 C428.9,532.6 433.1,541.2 435.2,551.5 L442.6,550.4 C442.2,549.7 441.8,549 441.5,548.2 C438.5,540.8 434.9,529.7 432.9,515.9 C432.9,515.9 432.9,515.9 432.9,515.9 C432.9,515.9 432.9,515.9 432.9,515.9 C432.5,513.1 432.1,510.1 431.9,507 C388.1,506 358.6,523.7 349,530.5 C348.2,531.4 347.3,532.2 346.4,532.7 L346.4,543.8 L348.7,546.4 C348.9,546.7 349.1,547 349.1,547.4 L349.1,551.3 L356.7,550.5 C356.7,531.5 373.8,515.6 394.9,515 Z M346.3,529.3 L346.3,529.9 C346.7,529.6 347.1,529.3 347.6,529 C350.8,525.1 352.9,517.9 353.8,513.9 L348,513.9 C345.2,523.5 346.3,529 346.3,529 C346.3,529 346.3,529.2 346.3,529.3 Z M348.6,511.8 L354.8,511.8 C389.2,496.7 425,497.6 431.4,497.9 C431.3,492.4 431.4,486.6 432,480.5 L388.6,485.6 C388.8,487.9 387.1,490.7 383.6,494.1 C371.8,505.6 353.7,508.8 349.8,509.3 C349.3,510.2 348.9,511.1 348.6,511.8 Z M483.8,425.2 L481.8,422.1 C481.8,422.1 481.7,422.1 481.7,422.1 L481.1,422 C467.6,426.6 420.4,464.6 409.5,473.5 L420.8,472.1 C424.7,468.7 466.2,431.7 483.8,425.2 Z M437,460.9 C435.6,466.9 434.7,472.7 434.1,478.3 L553.6,464.3 C553.7,463.8 553.9,463.4 554.1,462.9 L444.5,475 C444.3,475 444.1,475 443.8,475 C442.1,475 440.4,474.2 439.2,472.9 C437.9,471.4 437.4,469.3 438,467.4 C438,467.4 438,467.3 438,467.3 L439.1,464.3 C439.1,464.3 439.1,464.2 439.1,464.2 L439.2,463.8 C439.2,463.8 439.2,463.7 439.3,463.7 C439.5,463.2 439.7,462.7 440,462.2 C441.8,458.9 444,456.6 446.4,455.4 C447.6,454.3 455.2,447.2 465.6,440 C472.7,435.1 479.4,431.2 485.8,428.4 L484.9,427 C473.9,430.7 451.9,448.3 437,460.9 C437,460.8 437,460.8 437,460.9 Z M594.9,427.5 C594.8,427.5 588,426.7 573.3,425.7 C578.5,430.8 580.8,441.9 581.4,462.8 C582.2,488.4 534.9,536.7 532.9,538.7 C532.7,538.9 532.5,539 532.3,539 L446.1,551.9 C449,555.1 453.4,557 458,556.6 C506,553.1 536.6,550.5 539.9,549.5 C540.5,549.3 542,548 544.2,545.7 C544.2,545.6 544.3,545.6 544.3,545.6 C553.7,535.8 576.4,508.3 606.3,470.4 C608.4,467.8 611.2,466 614.4,465.2 C613,461.8 605.1,442.8 595.1,427.7 C595,427.5 595,427.5 594.9,427.5 Z M444.7,550 L531.7,537 C534.4,534.2 560.1,507.5 572.6,484.2 L435,516.3 C437,529.6 440.5,540.2 443.4,547.4 C443.7,548.3 444.2,549.2 444.7,550 Z M351.7,526.2 C364.3,518.2 392.3,504.1 431.7,504.9 C431.6,503.3 431.5,501.6 431.4,500 C425.8,499.7 390.2,498.6 355.9,513.6 C355.5,515.3 354.2,521.2 351.7,526.2 Z M570,433.7 C567.7,428.1 559.7,425.5 549.4,424.5 L546.7,460.7 L556.7,459.6 C560.9,455.9 568.2,454.7 573.6,454.4 C573.7,453.6 574.7,445.6 570,433.7 Z M555.4,465.3 C555.6,471 570.7,473.2 577.4,473.6 C578.8,469.7 579.5,466 579.4,462.8 C579.3,460.5 579.2,458.4 579.1,456.3 C575,456.2 557.4,456.2 555.4,465.3 Z M565,425.1 C568.8,426.9 571.5,429.3 572.8,432.6 C577.3,444 576.9,451.9 576.6,454.3 C577.6,454.3 578.4,454.3 579.1,454.3 C578,436.9 575.2,428.4 569.7,425.4 C568.2,425.3 566.6,425.2 565,425.1 Z M506.8,425.6 C484.7,427.4 460.1,447.3 451.5,454.8 C454.6,455.6 457.1,458.6 458.6,463.3 C459.5,466.2 459.5,468.5 458.5,470.4 L543.6,461 L546.4,424.2 C533.9,423.4 518.8,424.6 506.8,425.6 Z M442.7,463.6 C442.5,464 442.3,464.5 442.1,464.9 L442,465.1 C441.6,466.3 441.6,467.3 442,468.1 C443.3,470.3 447.8,470.9 449.4,471 C449.5,471 449.5,471 449.6,471 C449.6,471 450.1,471.1 450.8,471.1 C452.1,471.1 454.5,470.9 455.6,469.4 C456.2,468.6 456.4,467.3 456.1,465.7 L449,465.7 C448.4,465.7 448,465.3 448,464.7 C448,464.1 448.4,463.7 449,463.7 L455.6,463.7 C454.3,459.8 452.1,457.6 449.8,457.6 C449.2,457.6 448.5,457.8 447.9,458 C447.9,458 447.9,458 447.9,458 C446,458.9 444.2,460.8 442.7,463.6 Z M433.9,480.3 C432.7,492.8 433.3,504.3 434.7,514.4 L573.8,481.9 C574.9,479.7 575.8,477.6 576.7,475.6 C571.5,475.2 555.1,473.5 553.5,466.4 L433.9,480.3 Z M642.7,465.4 C642.6,465.3 642.4,465.2 642.3,465.1 L617.3,466.6 C613.6,466.8 610.2,468.6 607.9,471.5 C599.5,482.2 588.8,495.6 578.5,508.4 C582.3,507.3 590.3,505 607,500.5 C628.5,494.6 641.6,500.6 646.6,503.8 C646.3,500.5 646,496.3 645.8,492.3 C645.4,493.9 644.6,495.3 643.5,496.5 C641.9,498.1 639.9,498.9 637.6,498.9 C637.6,498.9 637.6,498.9 637.6,498.9 C630.6,498.9 622.9,491.6 622.6,491.2 C622,490.6 622,489.7 622.5,489.1 C627.5,483.6 631.7,481.6 634.8,480.9 C632.1,480.3 629.1,479 626.6,477.9 C625.3,477.3 624.1,476.8 623.2,476.5 C622.7,476.3 622.3,475.9 622.2,475.4 C622.1,474.9 622.3,474.3 622.7,474 C623.5,473.2 630.9,466.6 636.6,466.6 C636.7,466.6 636.8,466.6 636.9,466.6 C637,466.6 637.1,466.6 637.2,466.6 C639.2,466.8 642.1,467.9 642.9,473 C643.4,476 643.1,478.2 641.8,479.7 C641.2,480.4 640.4,480.8 639.5,481.1 C639.5,481.1 639.6,481.1 639.6,481.1 C642.2,481.8 644.4,483.7 645.4,486.4 C645.4,486.5 645.4,486.6 645.5,486.6 C645.2,482.5 645.1,479.4 645,479 L644.3,473.4 C644.3,473.2 644.3,472.9 644.4,472.7 C644.2,472.6 646,467 642.7,465.4 Z M637.2,469.6 C635.5,471.3 634.6,472.9 634.7,474.4 C634.8,476.3 636.2,477.7 636.8,478.2 C637,478.2 637.2,478.2 637.4,478.2 C638.8,478.2 639.2,477.7 639.3,477.6 C639.9,476.9 640,475.4 639.7,473.4 C639.3,470.7 638.2,469.8 637.2,469.6 Z M631.7,474.6 C631.6,473.2 632,471.8 632.7,470.5 C630.4,471.5 628.1,473.2 626.3,474.5 C626.7,474.7 627.1,474.9 627.6,475.1 C629.1,475.7 630.7,476.5 632.3,477 C632,476.3 631.8,475.5 631.7,474.6 Z M633.9,487.3 C633.9,486 634.3,484.9 635,483.8 C632.7,484.3 629.5,485.9 625.6,489.9 C627.8,491.8 633,495.7 637.4,495.7 C637.8,495.7 638.2,495.7 638.5,495.6 C636.5,493.9 633.8,490.8 633.9,487.3 Z M642.5,487.4 C641.8,485.7 640.6,484.6 639.1,484 C637.7,485 637,486.1 636.9,487.4 C636.8,489.9 639.6,492.7 641.4,494.2 C643,492.5 643.5,489.8 642.5,487.4 Z M615.5,419.1 C613.1,418.8 602.8,417.7 589.3,416.5 C603.4,432.5 615.4,462 616.4,464.6 C616.7,464.6 616.9,464.5 617.2,464.5 L641.4,463.1 C639,457.2 629.1,433.6 615.5,419.1 Z M483.8,421.6 L487.7,427.6 C494.4,424.8 500.8,423.1 506.6,422.6 C520.2,421.5 533.3,420.7 544.3,421.2 C544.5,421.1 544.8,421 545.1,421 C571.8,422.3 587.2,423.7 592.9,424.2 C590.8,421.3 588.7,418.6 586.5,416.3 C571.8,415.1 554,414 538.8,414 C529.9,414 522.6,414.4 517.1,415.1 C494.1,418.2 486.2,420.6 483.8,421.6 Z M395.4,475.2 L405.8,473.9 C405.8,473.9 405.9,473.8 405.9,473.8 C408.2,471.9 459.2,430 477.8,421.2 L474.7,420.4 C469.3,423.8 424.4,451.7 395.4,475.2 Z M380.2,481.2 C383.2,481 386,481.6 387.5,483.2 C387.6,483.3 387.7,483.5 387.8,483.6 L432,478.4 C432.5,473.4 433.3,468.1 434.5,462.8 C427.1,469.1 422,473.6 421.9,473.8 C421.9,473.8 421.8,473.8 421.8,473.9 C421.8,473.9 421.7,474 421.7,474 C421.6,474 421.6,474.1 421.5,474.1 C421.5,474.1 421.4,474.1 421.4,474.1 L392,477.6 L382.8,479.4 C382.3,479.7 381.4,480.3 380.2,481.2 Z M352.3,505.9 C358.7,504.6 372.3,500.9 381.5,492 C385.4,488.2 386,486 385.3,485.3 C383.6,483.4 376.2,484.3 373.7,486.3 C366.7,491.7 357.5,499.4 352.3,505.9 Z M356.5,552.5 L349,553.3 L349,556.8 C349,557.1 348.9,557.5 348.7,557.7 L346.2,560.9 C346.7,562.2 348.1,565.1 351.2,565.1 C351.4,565.1 351.6,565.1 351.7,565.2 C351.7,565.2 351.8,565.2 352,565.2 C354,565.2 356.2,561.8 356.5,552.5 Z M425,555.5 C425,538.9 411.5,525.4 394.9,525.4 C378.3,525.4 364.8,538.9 364.8,555.5 C364.8,572.1 378.3,585.6 394.9,585.6 C411.5,585.6 425,572.1 425,555.5 Z M433.5,560.9 C432.4,547.1 428,535.9 420.5,528.3 C413.7,521.4 404.6,517.6 394.9,517.9 C375.4,518.4 359.4,533.2 359.4,550.7 C359.4,555.1 359,558.4 358.4,560.9 L362.2,560.9 C361.9,559.1 361.8,557.3 361.8,555.5 C361.8,537.3 376.6,522.4 394.9,522.4 C413.1,522.4 428,537.2 428,555.5 C428,557.3 427.8,559.1 427.6,560.9 L433.5,560.9 Z M567.4,563.6 C567.4,562.8 567.4,561.8 567.4,560.5 L436.8,566 C436.8,566.8 436.8,567.6 436.8,568.4 L567.4,563.6 Z M639.7,555.5 C639.7,538.9 626.2,525.4 609.6,525.4 C593,525.4 579.5,538.9 579.5,555.5 C579.5,572.1 593,585.6 609.6,585.6 C626.2,585.6 639.7,572.1 639.7,555.5 Z M642.7,555.5 C642.7,556 642.7,556.5 642.7,557 L646.8,557 C646.6,553.7 645.8,545.4 642.2,537.3 C636.2,523.5 625.6,516.5 610.6,516.5 C598.6,516.5 589,520.2 582.2,527.5 C572.3,538.1 570.7,553.7 570.4,561 L577,561 C576.7,559.2 576.6,557.4 576.6,555.6 C576.6,537.4 591.4,522.5 609.7,522.5 C628,522.5 642.7,537.3 642.7,555.5 Z M655.6,544.8 C655.2,543.8 653.5,543.3 652.9,543.2 C652.5,543.1 652.1,542.9 651.9,542.5 C651.7,542.1 651.6,541.7 651.7,541.3 C651.7,541.3 651.9,540.6 652.1,539.5 L646.3,539.5 C649,547.1 649.6,554.1 649.8,557 C650.1,557 650.3,557 650.6,557 C650.6,557 650.6,557 650.6,557 C651.9,557 653.1,556.9 653.8,556.6 C654.4,556.4 654.7,556.2 654.7,555.9 C654.7,555.1 654.5,554.7 654.1,554.2 C652.9,552.3 652.7,550.7 654.9,547.2 C655.4,546.6 655.9,545.5 655.6,544.8 Z M419.1,555.5 C419.1,568.8 408.3,579.7 394.9,579.7 C381.6,579.7 370.7,568.9 370.7,555.5 C370.7,542.2 381.5,531.3 394.9,531.3 C408.2,531.4 419.1,542.2 419.1,555.5 Z M415.9,555.5 C415.9,543.9 406.5,534.5 394.9,534.5 C383.3,534.5 373.9,543.9 373.9,555.5 C373.9,567.1 383.3,576.5 394.9,576.5 C406.5,576.5 415.9,567.1 415.9,555.5 Z M403.5,570.6 C403.7,571 403.8,571.4 403.7,571.8 C403.6,572.2 403.3,572.5 402.9,572.7 C400.4,573.8 397.8,574.4 395,574.4 C392.3,574.4 389.6,573.8 387.2,572.7 C386.8,572.5 386.5,572.2 386.4,571.8 C386.3,571.4 386.3,570.9 386.6,570.6 L392.1,561.6 C392.5,561 393.2,560.7 393.8,560.9 C394.7,561.2 395.6,561.2 396.5,561 C397.1,560.8 397.8,561.1 398.1,561.7 L403.5,570.6 Z M400,570.7 L396,564.2 C395.3,564.3 394.6,564.3 394,564.2 L390,570.8 C393.2,571.8 396.7,571.8 400,570.7 Z M412.3,547.9 C412.5,548.3 412.5,548.7 412.3,549.1 C412.1,549.5 411.8,549.8 411.4,549.9 L401.1,553.8 C400.9,553.9 400.7,553.9 400.6,553.9 C400.1,553.9 399.6,553.7 399.4,553.2 C398.7,552.2 397.8,551.5 396.6,551.1 C395.9,550.9 395.5,550.3 395.5,549.6 L396.3,538.2 C396.3,537.8 396.5,537.4 396.9,537.1 C397.2,536.8 397.7,536.7 398.1,536.8 C404.4,537.9 409.7,542.1 412.3,547.9 Z M408.8,547.7 C406.7,544 403.3,541.3 399.2,540.1 L398.6,548.7 C399.5,549.2 400.4,549.8 401.1,550.6 L408.8,547.7 Z M412.1,553.5 C412.5,553.4 413,553.5 413.3,553.8 C413.6,554.1 413.8,554.5 413.8,554.9 L413.8,555 C413.8,555.1 413.8,555.3 413.8,555.4 C413.8,560.3 411.9,565 408.5,568.6 C408.2,568.9 407.8,569.1 407.4,569.1 C407.4,569.1 407.4,569.1 407.4,569.1 C407,569.1 406.6,568.9 406.3,568.6 L399.2,561 C398.7,560.5 398.7,559.6 399.1,559.1 C399.7,558.3 400,557.5 400.1,556.5 C400.2,555.8 400.7,555.3 401.4,555.2 L412.1,553.5 Z M410.8,556.8 L402.9,558.1 C402.7,558.7 402.5,559.4 402.2,559.9 L407.4,565.4 C409.4,563 410.6,560 410.8,556.8 Z M377.6,549.1 C377.4,548.7 377.4,548.3 377.6,547.9 C380,542.4 384.9,538.4 390.6,537 C391,536.9 391.4,537 391.8,537.2 C392.1,537.4 392.4,537.8 392.4,538.2 L394,549.6 C394.1,550.3 393.7,550.9 393.1,551.2 C392.1,551.6 391.3,552.3 390.8,553.2 C390.5,553.6 390,553.9 389.5,553.9 C389.3,553.9 389.1,553.9 389,553.8 L378.4,549.8 C378,549.8 377.7,549.5 377.6,549.1 Z M381,547.7 L389,550.7 C389.6,550.1 390.2,549.5 390.9,549.1 L389.7,540.4 C386,541.8 382.9,544.4 381,547.7 Z M390.8,560.9 L383.6,568.8 C383.3,569.1 382.9,569.3 382.5,569.3 C382.5,569.3 382.5,569.3 382.5,569.3 C382.1,569.3 381.7,569.1 381.4,568.8 C377.9,565.2 376,560.5 376,555.5 L376,555.1 C376,554.7 376.2,554.3 376.5,554 C376.8,553.7 377.3,553.6 377.7,553.7 L388.7,555.4 C389.4,555.5 389.9,556 390,556.7 C390.1,557.5 390.4,558.4 390.9,559.1 C391.3,559.6 391.3,560.4 390.8,560.9 Z M387.8,559.7 C387.6,559.2 387.4,558.7 387.2,558.2 L379,556.9 C379.3,560.1 380.5,563 382.4,565.5 L387.8,559.7 Z M394.9,551.8 C397.2,551.8 399,553.6 399,555.9 C399,558.2 397.2,560 394.9,560 C392.6,560 390.8,558.2 390.8,555.9 C390.8,553.6 392.7,551.8 394.9,551.8 Z M393.9,555.9 C393.9,556.5 394.4,557 395,557 C395.6,557 396.1,556.5 396.1,555.9 C396.1,555.3 395.6,554.8 395,554.8 C394.4,554.8 393.9,555.3 393.9,555.9 Z M633.6,555.5 C633.6,568.7 622.8,579.5 609.6,579.5 C596.4,579.5 585.6,568.7 585.6,555.5 C585.6,542.3 596.4,531.5 609.6,531.5 C622.8,531.5 633.6,542.3 633.6,555.5 Z M630.5,555.5 C630.5,544 621.1,534.6 609.6,534.6 C598.1,534.6 588.7,544 588.7,555.5 C588.7,567 598.1,576.4 609.6,576.4 C621.1,576.4 630.5,567 630.5,555.5 Z M618.2,570.6 C618.4,571 618.5,571.4 618.4,571.8 C618.3,572.2 618,572.5 617.6,572.7 C615.1,573.8 612.5,574.4 609.7,574.4 C607,574.4 604.3,573.8 601.9,572.7 C601.5,572.5 601.2,572.2 601.1,571.8 C601,571.4 601,570.9 601.3,570.6 L606.8,561.6 C607.2,561 607.9,560.7 608.5,560.9 C609.4,561.2 610.3,561.2 611.2,561 C611.8,560.8 612.5,561.1 612.8,561.7 L618.2,570.6 Z M614.7,570.7 L610.7,564.2 C610,564.3 609.3,564.3 608.7,564.2 L604.7,570.8 C607.9,571.8 611.5,571.8 614.7,570.7 Z M627,547.9 C627.2,548.3 627.2,548.7 627,549.1 C626.8,549.5 626.5,549.8 626.1,549.9 L615.8,553.8 C615.6,553.9 615.4,553.9 615.3,553.9 C614.8,553.9 614.3,553.7 614.1,553.2 C613.4,552.2 612.5,551.5 611.3,551.1 C610.6,550.9 610.2,550.3 610.2,549.6 L611,538.2 C611,537.8 611.2,537.4 611.6,537.1 C611.9,536.8 612.4,536.7 612.8,536.8 C619.1,537.9 624.4,542.1 627,547.9 Z M623.6,547.7 C621.5,544 618.1,541.3 614,540.1 L613.4,548.7 C614.3,549.2 615.2,549.8 615.9,550.6 L623.6,547.7 Z M626.8,553.5 C627.2,553.4 627.7,553.5 628,553.8 C628.3,554.1 628.5,554.5 628.5,554.9 L628.5,555 C628.5,555.1 628.5,555.3 628.5,555.4 C628.5,560.3 626.6,565 623.2,568.6 C622.9,568.9 622.5,569.1 622.1,569.1 C622.1,569.1 622.1,569.1 622.1,569.1 C621.7,569.1 621.3,568.9 621,568.6 L613.9,561 C613.4,560.5 613.4,559.6 613.8,559.1 C614.4,558.3 614.7,557.5 614.8,556.5 C614.9,555.8 615.4,555.3 616.1,555.2 L626.8,553.5 Z M625.5,556.8 L617.6,558.1 C617.4,558.7 617.2,559.4 616.9,559.9 L622.1,565.4 C624.1,563 625.3,560 625.5,556.8 Z M592.3,549.1 C592.1,548.7 592.1,548.3 592.3,547.9 C594.7,542.4 599.6,538.4 605.3,537 C605.7,536.9 606.1,537 606.5,537.2 C606.8,537.4 607.1,537.8 607.1,538.2 L608.7,549.6 C608.8,550.3 608.4,550.9 607.8,551.2 C606.8,551.6 606,552.3 605.5,553.2 C605.2,553.6 604.7,553.9 604.2,553.9 C604,553.9 603.8,553.9 603.7,553.8 L593.1,549.8 C592.7,549.8 592.4,549.5 592.3,549.1 Z M595.7,547.7 L603.7,550.7 C604.3,550.1 604.9,549.5 605.6,549.1 L604.4,540.4 C600.8,541.8 597.6,544.4 595.7,547.7 Z M605.5,560.9 L598.3,568.8 C598,569.1 597.6,569.3 597.2,569.3 C597.2,569.3 597.2,569.3 597.2,569.3 C596.8,569.3 596.4,569.1 596.1,568.8 C592.6,565.2 590.7,560.5 590.7,555.5 C590.7,555.4 590.7,555.3 590.7,555.2 L590.7,555.1 C590.7,554.7 590.9,554.3 591.2,554 C591.5,553.7 592,553.6 592.4,553.7 L603.4,555.4 C604.1,555.5 604.6,556 604.7,556.7 C604.8,557.5 605.1,558.4 605.6,559.1 C606,559.6 606,560.4 605.5,560.9 Z M602.6,559.7 C602.4,559.2 602.2,558.7 602,558.2 L593.8,556.9 C594.1,560.1 595.3,563 597.2,565.5 L602.6,559.7 Z M609.7,551.8 C612,551.8 613.8,553.6 613.8,555.9 C613.8,558.2 612,560 609.7,560 C607.4,560 605.6,558.2 605.6,555.9 C605.6,553.6 607.4,551.8 609.7,551.8 Z M608.6,555.9 C608.6,556.5 609.1,557 609.7,557 C610.3,557 610.8,556.5 610.8,555.9 C610.8,555.3 610.3,554.8 609.7,554.8 C609.1,554.8 608.6,555.3 608.6,555.9 Z M558.3,464.7 C558.3,461.2 562.9,458.5 568.7,458.5 C574.5,458.5 579.1,461.2 579.1,464.7 C579.1,468.2 574.5,470.9 568.7,470.9 C562.9,470.9 558.3,468.2 558.3,464.7 Z M560.4,465.3 C560.5,465.7 560.7,466 561,466.4 C568.1,463.8 574.6,464.5 577,465 C577,464.9 577,464.9 577,464.8 C577,464.5 576.9,464.3 576.8,464 C574.9,463.6 567.4,462.7 560.4,465.3 Z M568.7,468.9 C571.9,468.9 574.5,467.9 575.9,466.7 C573.5,466.4 568.4,466 563,467.7 C564.5,468.4 566.4,468.9 568.7,468.9 Z M568.7,460.5 C565.3,460.5 562.6,461.5 561.3,462.8 C566.4,461.3 571.2,461.3 574.3,461.6 C572.8,461 570.9,460.5 568.7,460.5 Z" id="Shape"></path>
        </g>
    </g>
</svg>
