
<svg width="560px" height="205px" viewBox="0 0 560 205" version="1.1" xmlns="http://www.w3.org/2000/svg" xmlns:xlink="http://www.w3.org/1999/xlink">

    <g id="Page-1" stroke="none" stroke-width="1" fill="none" fill-rule="evenodd">
        <g id="mercedes-benz-car-08" transform="translate(309, 251) scale(-1, 1) translate(-309, -251)translate(59, 1)" fill="currentColor" fill-rule="nonzero">
            <path d="M553.2,117.1 C552.4,117.1 550.2,114.1 548.8,110.2 L548.8,102.6 C548.8,102.2 548.7,101.9 548.4,101.6 L546.8,99.9 L546.8,82.5 L548.9,82.5 C549.7,82.5 550.3,81.9 550.4,81.2 C550.5,80.5 550.1,79.9 549.5,79.6 C549.2,79.1 549.1,77.3 549,76.3 C548.9,75.2 548.8,74.2 548.6,73.4 C548.1,71.2 544.1,63 543.4,61.5 C540.9,50.3 525.4,18.9 525.3,18.6 C524.8,17.7 525.2,16.7 525.9,15.1 C526.4,13.8 527,12.5 526.8,11.1 C526.6,9.7 526.4,7.3 497.6,8.4 C488.9,0.2 460.1,0.2 424.1,0.1 C417.1,0.1 409.8,0.1 402.5,1.17128529e-14 C357.5,-0.4 319.6,1.8 288.4,4 C273.9,5 264.7,8 258.9,10.9 C258.9,10.9 258.9,10.9 258.8,10.9 C258.4,10.9 254.7,10.8 237.8,14.5 C219.3,18.5 184.8,39.9 171.8,48 L170.4,48.8 C159.7,55.4 142.7,66 140.2,67.6 C138.5,67.7 131.6,68.2 125.7,68.3 C119.7,68.4 82.1,74.3 60.2,78.5 C35.6,83 21.3,85.8 14.9,88.8 C9.8,91.2 7.1,96.3 7,96.5 C6.8,97 6.8,97.5 7,97.9 C7.3,98.3 7.7,98.6 8.2,98.6 L10.9,98.7 L10.2,100.4 L7.4,99.8 C6.6,99.6 5.9,100.1 5.7,100.9 L0.4,121.4 C0.3,121.8 0.4,122.3 0.7,122.7 C1,123.1 1.4,123.3 1.9,123.3 L4.7,123.3 C2.8,124.8 1,125.4 1,125.4 C0.4,125.6 6.64052147e-15,126.2 6.64052147e-15,126.8 L6.64052147e-15,143.5 C-0.1,144.6 -0.6,153.7 9.2,161.3 C19.1,169 40.2,172.2 41.1,172.4 C41.2,172.4 41.2,172.4 41.3,172.4 C41.7,172.4 42,172.3 42.3,172 C42.6,171.7 42.8,171.3 42.8,170.8 C42.8,170.7 42.8,168.2 43.1,164.3 L52.1,164.3 C53.5,186.4 71.9,203.9 94.4,203.9 C116.9,203.9 135.3,186.4 136.7,164.3 L148,164.3 C148.3,167 148.3,168.7 148.3,168.7 C148.3,169.5 149,170.2 149.8,170.2 L378.9,170.2 C379.7,170.2 380.4,169.5 380.4,168.7 C380.4,168.7 380.4,167 380.6,164.3 L390.1,164.3 C391.5,186.4 409.9,203.9 432.4,203.9 C454.9,203.9 473.3,186.4 474.7,164.3 L484.6,164.3 C484.7,166 484.8,167 484.8,167 C484.8,167.4 485,167.8 485.3,168.1 C485.6,168.4 486,168.5 486.4,168.5 C508.9,167.7 527.5,165 541.5,160.3 C551.8,156.9 558.7,147.3 558.7,136.4 L558.7,123.4 C558.7,119.6 556.5,117.1 553.2,117.1 Z M553.9,145.3 L549.7,146.7 C548.1,147.2 546.8,148.2 545.8,149.6 L540.2,157.7 C538.5,158.3 536.7,158.8 534.8,159.3 C537.9,156.5 541.5,152.6 543.7,148.4 C545.5,145 548.8,142.6 552.6,142.2 L555.1,141.9 C554.7,143.1 554.3,144.2 553.9,145.3 Z M538.8,100.7 L514.1,102.1 L512.1,98.1 L538.3,96.6 L538.8,100.7 Z M432.1,105.9 C403.8,105.9 390.4,123.1 384.2,137.5 C381.6,143.5 380,149.4 379,154.5 L371.3,154.7 C371.9,149.4 375.7,126.1 393.7,110.1 C400.4,104.2 404.4,98.6 406.8,93.7 L505.1,87.4 C504.9,88.8 505,90.2 505.7,91.5 L511.8,103.9 C510.8,104.3 508.3,104.9 502,105.2 C490.4,105.7 456.9,107.7 449.3,108.2 C444.2,106.8 438.5,105.9 432.1,105.9 Z M144.2,137.7 C140,128.5 132.8,118.2 120.5,112 L158.2,109.6 C158.1,130.8 162.3,155 163.3,160.7 L150.7,161.1 C149.9,155.1 148.2,146.4 144.2,137.7 Z M69.1,112.2 L46.6,112.2 C49.4,111 52.1,109.5 54.5,107.7 C65.5,99.7 65.2,98.1 65.1,97.1 C65,96.5 64.7,96.1 64.2,95.8 L62,94.5 L161.2,85.6 C159.2,91.4 158.3,99.2 158.2,107.6 L116.6,110.2 C110.5,107.8 103.3,106.3 94.8,106.3 C85,106.4 76.4,108.3 69.1,112.2 Z M37.7,96.2 L52.2,92.4 C52.2,92.4 52.3,92.4 52.3,92.4 C52.4,92.4 52.5,92.4 52.5,92.5 C52.5,92.5 52.6,92.5 52.6,92.6 L55.3,94.2 L45.8,96.2 C41.9,97 38.3,97.8 34.7,100.4 C34.3,100.7 34,100.9 33.6,101.2 C29.4,104.5 26.4,108.2 24.5,112.6 L23.2,115.5 C23.1,115.5 23.1,115.5 23,115.5 C22.4,115.6 21.8,115.7 21.3,115.8 L25.7,106.3 C28,101.3 32.4,97.6 37.7,96.2 Z M260.4,17.7 C260.4,17.7 260.4,17.7 260.4,17.7 C270.3,16.3 289.5,14 316.8,13 C354.9,11.6 481,11.5 501.1,11.5 C502.7,13.5 506.7,19 510.4,26.7 C514,34 522.4,53 526.5,62.3 L513.9,63.3 C513.4,63.3 512.9,63.8 513,64.4 C513,64.9 513.5,65.3 514,65.3 C514,65.3 514.1,65.3 514.1,65.3 L527.4,64.2 C527.8,65.1 528.1,65.8 528.4,66.4 L507.5,83.6 C506.8,84.2 506.3,84.8 505.9,85.6 L407.8,91.8 C411.5,82.9 409.8,76.7 409.5,75.8 L408.2,67.8 C448.6,65.4 480.9,63.6 489.8,63.2 C492,63.1 493.9,61.8 494.9,59.8 C495.9,57.8 495.7,55.5 494.4,53.7 C483.9,39.2 470.7,21.3 467.5,18.9 C464.6,16.7 417.8,15.2 375.8,15.1 C348.4,15 282.4,15.5 259.4,21.5 C241.1,26.3 220.4,35.8 201.2,48.2 C190.5,55.1 181,62.4 173.9,69.2 L162.1,69.2 C162.3,69.1 162.5,68.9 162.8,68.7 C174.6,60.6 210.4,36.1 230,27.4 C242.8,21.5 249.3,19.4 260.4,17.7 Z M410.7,6.2 L410.7,8.6 C404,8.6 397.3,8.7 390.6,8.7 L390.6,6.1 C397.2,6.1 404,6.2 410.7,6.2 Z M422.7,6.4 C434.8,6.6 446.2,6.8 454.5,6.7 C465,6.6 470.6,7.5 473.5,8.5 C456.8,8.5 435.1,8.6 412.7,8.7 L412.7,6.3 C416,6.3 419.4,6.4 422.7,6.4 Z M388.6,8.8 C358.9,9 331.3,9.4 316.6,9.9 C300.4,10.5 287,11.6 276.7,12.6 C287.4,8.5 312.9,7.9 334.1,7.4 C342.3,7.2 350,7 356.3,6.6 C365.3,6.1 376.6,5.9 388.6,6 L388.6,8.8 Z M522.5,20 C522.8,20.6 523.2,21.5 523.8,22.6 C522.9,23 522.1,23.6 521.5,24.5 C520.5,26 520.4,27.8 521.1,29.4 L532.3,55.6 C533.1,57.5 535,58.8 537.1,58.8 C537.2,58.8 537.3,58.8 537.4,58.8 L539.4,58.7 C539.7,59.6 539.9,60.4 540.1,61.1 L528.6,62 C524.6,53 515.8,33.3 512.2,25.7 C511.6,24.6 511.1,23.5 510.5,22.4 L522.6,15.1 C522,16.6 521.7,18.3 522.5,20 Z M538.4,55.7 L537.2,55.8 C536.3,55.9 535.4,55.3 535,54.5 L523.8,28.3 C523.5,27.6 523.6,26.8 524,26.2 C524.3,25.8 524.6,25.5 525.1,25.4 C528.8,33.1 535,46.6 538.4,55.7 Z M510.2,94.1 L537.8,92.6 L538,94.5 L511.1,96 L510.2,94.1 Z M509.3,92.2 L508.4,90.4 C507.6,88.9 508,87 509.3,85.9 L514,82 L536.6,81 L537.7,90.7 L509.3,92.2 Z M518.7,78 L536.1,77 C536.1,77 536.1,77.1 536.1,77.1 L536.3,78.9 L516.5,79.8 L518.7,78 Z M535.5,75.1 L521.4,75.9 L529.7,69.1 L533.4,72.7 C533.5,72.8 533.5,72.8 533.6,72.9 C534.4,73.4 535,74.2 535.5,75.1 Z M283.3,148.4 L163.9,152.1 C162.3,141.8 160.1,124.7 160.2,109.5 L282.9,101.7 C282.4,105.8 282,108.9 281.9,110.5 C281.3,118.2 281.3,136.1 283.3,148.4 Z M160.2,107.5 C160.3,98.9 161.2,91 163.4,85.5 L183.3,83.7 C184.4,84 185.6,84.2 187.1,84.2 C187.7,84.2 188.4,84.2 189.2,84.1 C191.6,83.9 193.8,83.2 195.6,82.1 C208.5,80.5 244.3,77.9 286.8,75.1 C285.4,84.4 284.2,93.1 283.3,99.7 L160.2,107.5 Z M259.7,23.3 C267.1,21.3 279.7,19.9 295.2,18.9 C294.4,23.9 290.4,49.8 287,73 C245.7,75.7 210.9,78.2 198.3,79.8 C198.4,79.7 198.5,79.6 198.6,79.4 C199.1,78.8 199.5,78.1 199.8,77.4 C199.8,77.4 199.9,77.4 199.9,77.4 L278.6,70.2 C279.3,70.1 279.8,69.6 279.9,69 L288.5,24.9 C288.6,24.5 288.5,24 288.2,23.7 C287.9,23.4 287.5,23.1 287.1,23.1 C286.5,23.1 272.9,22.7 253.9,28.1 C234.6,33.5 197.4,56.9 195.8,57.9 L187.4,63.8 C187.4,63.8 187.4,63.8 187.3,63.8 C179.2,65.5 177.3,75.9 177.3,76.3 C177.3,76.5 177.3,76.6 177.3,76.8 C177.8,78.6 178.6,80.5 180.2,81.9 L164.3,83.3 C164.6,82.7 164.9,82.1 165.3,81.6 C181.8,56.9 232.3,30.6 259.7,23.3 Z M398,17.1 L405.7,65.8 C369.2,67.9 326.5,70.5 289,72.9 C292.6,48.9 296.7,22 297.2,18.8 C326.4,17 365.1,16.7 398,17.1 Z M400.1,17.1 C435.3,17.6 463.6,19 466.2,20.4 C468.5,22.1 478.1,34.6 492.6,54.7 C493.5,55.9 493.6,57.4 493,58.7 C492.4,60 491.1,60.9 489.6,61 C480.7,61.5 448.2,63.3 407.8,65.6 L400.1,17.1 Z M179.3,76.5 C179.6,75.1 181.5,67.1 187.7,65.8 C189.6,65.4 191.1,65.2 192.4,65.2 C195.8,65.2 197.6,66.5 198.4,69.8 L187.2,70.6 C186.6,70.6 186.2,71.1 186.3,71.7 C186.3,72.2 186.8,72.6 187.3,72.6 C187.3,72.6 187.3,72.6 187.4,72.6 L198.8,71.8 C198.8,72.3 198.9,72.8 198.9,73.2 L189,74 C188.4,74 188,74.5 188.1,75.1 C188.1,75.6 188.6,76 189.1,76 C189.1,76 189.2,76 189.2,76 L198.7,75.3 C198.6,75.5 198.6,75.7 198.5,75.9 C198.2,76.7 197.8,77.5 197.2,78.2 C195.5,80.4 192.6,81.7 189.1,82.1 C188.4,82.2 187.8,82.2 187.2,82.2 C182.2,82.2 180.4,79.9 179.3,76.5 Z M200.7,71.2 C200.1,66.1 197.7,63.6 193.5,63.2 L197.6,60.3 C198,60.1 236,36.2 254.9,30.9 C269.5,26.8 281.1,26.1 285.4,26.1 L277.3,67.3 L200.8,74.3 C200.8,73.4 200.8,72.3 200.7,71.2 Z M288.7,75 C326.6,72.5 369.4,70 406.1,67.8 L407.4,76.1 C407.4,76.2 407.4,76.2 407.4,76.3 C407.4,76.4 409.6,82.6 405.4,91.9 L285.2,99.5 C286.1,92.9 287.4,84.2 288.7,75 Z M158.9,71.1 L171.7,71.1 C168.3,74.5 165.6,77.7 163.7,80.6 C163.1,81.5 162.6,82.5 162.1,83.6 L59.2,92.9 L55.3,90.7 C64.6,88.6 88.8,83.3 107.4,80.9 C130.7,77.9 152.9,74.7 158.9,71.1 Z M26.3,113.4 C28.1,109.2 30.8,105.8 34.8,102.7 C35.1,102.4 35.5,102.2 35.8,101.9 C39.1,99.5 42.4,98.8 46.1,98 L57.8,95.5 L61.6,97.7 C60.8,98.7 58.6,100.8 52.6,105.2 C44.3,111.3 32.8,113.7 25.4,115 L26.3,113.4 Z M165.3,160.6 C165.1,159.5 164.7,157.2 164.2,154.1 L283.6,150.4 C284.1,153.1 284.7,155.4 285.4,157.2 L165.3,160.6 Z M287.5,157.1 C286.8,155.4 286.1,153.1 285.6,150.3 L359.3,148 C359.9,148 360.3,147.5 360.3,147 C360.3,146.4 359.8,146 359.3,146 L285.3,148.3 C283.5,136.7 283.2,119.3 283.9,110.6 C284,109 284.4,105.8 285,101.5 L404.4,94 C402.1,98.4 398.3,103.4 392.3,108.7 C373.5,125.4 369.8,149.9 369.2,154.8 L287.5,157.1 Z M542,102.2 C542,102.1 542,102 542,101.9 L539.1,76.8 C539,76.1 538.9,75.4 538.6,74.8 L545.7,74.8 C545.8,75.3 545.8,76 545.9,76.6 C546,77.6 546.1,78.6 546.3,79.5 L545.3,79.5 C544.5,79.5 543.8,80.2 543.8,81 L543.8,100.5 C543.8,100.9 543.9,101.2 544.2,101.5 L545.8,103.2 L545.8,106.5 C544.4,104.8 542.9,103.2 542,102.2 Z M545.2,72.8 L537.6,72.8 C537,71.9 536.2,71.1 535.3,70.5 L530.7,66 C530.5,65.8 530.3,65.7 530.1,65.7 C529.9,65.3 529.7,64.7 529.3,64 L540.6,63.1 C542.2,66.1 544.2,70.4 545.2,72.8 Z M523.7,12 C523.7,12 523.7,12.1 523.7,12.1 L509.5,20.7 C507.2,16.5 505,13.4 503.6,11.4 C503.7,11.4 503.8,11.4 503.8,11.4 L503.8,11.4 C504.1,11.4 504.4,11.3 504.6,11.2 C513.3,11.1 521.5,11.3 523.7,12 Z M288.5,6 C319.6,3.8 357.5,1.6 402.4,2 C409.7,2.1 417,2.1 424,2.1 C456,2.1 484.1,2.2 494.3,8.4 C490,8.4 484.3,8.4 477.6,8.4 C475.6,6.6 470,4.5 454.4,4.6 C446.2,4.7 434.8,4.5 422.7,4.3 C411.9,4.1 400.5,4 389.6,3.9 C389.6,3.9 389.6,3.9 389.6,3.9 C389.6,3.9 389.6,3.9 389.6,3.9 C377.2,3.9 365.5,4 356.2,4.5 C349.9,4.9 342.2,5.1 334,5.3 C303.1,6.1 278.7,7.2 271.6,13.1 C263.9,14 258.4,14.8 255.2,15.3 C256.1,14.6 257.2,13.9 258.6,13.2 C263.6,10.6 272.8,7.2 288.5,6 Z M238.4,17.4 C247.1,15.5 251.3,14.7 253.3,14.4 C251.3,16 250.4,17.2 250.1,17.6 C245.1,18.8 240.4,20.5 234.2,23.1 L226.2,21.4 C230.8,19.6 234.9,18.2 238.4,17.4 Z M172,51.3 L173.4,50.5 C183.2,44.4 205.2,30.8 223.1,22.8 L231.1,24.5 C230.4,24.8 229.7,25.1 228.9,25.5 C209.1,34.4 173.2,58.9 161.4,67 C160,68 159,68.7 158.3,69.1 L143.9,68.8 C149.4,65.4 162.9,56.9 172,51.3 Z M16.2,91.5 C22.3,88.7 36.4,86 60.8,81.4 C84,77 120.5,71.3 125.8,71.3 C130.8,71.2 136.6,70.9 139.3,70.7 C139.4,70.7 139.5,70.8 139.6,70.8 L154,71 C145,73.8 125.7,76.5 107.2,78.9 C85.3,81.7 55.8,88.5 51.6,89.5 C51.5,89.5 51.5,89.5 51.4,89.5 L36.9,93.3 C32.9,94.4 29.3,96.6 26.6,99.6 L19,99.6 C19.3,98.7 19.5,98.1 19.5,98 C19.7,97.6 19.6,97.1 19.3,96.7 C19,96.3 18.6,96.1 18.1,96.1 L11,95.8 C12.2,94.3 13.9,92.5 16.2,91.5 Z M13.1,98.8 L16,98.9 C15.3,100.9 14.1,104.4 12.9,107.9 L14,102.7 C14.1,102.3 14,101.9 13.8,101.6 C13.6,101.3 13.2,101 12.8,101 L12.3,100.9 L13.1,98.8 Z M9.9,110.9 C10.2,111.2 10.6,111.4 11,111.3 L11.4,111.3 L10.6,113.5 L9.1,113.5 C8.9,113.5 8.6,113.6 8.4,113.7 L6.5,112.5 L9.9,110.9 Z M8.3,103.1 L10.7,103.6 L9.6,108.8 L6.4,110.3 L8.3,103.1 Z M5.5,114.2 L7.5,115.4 L6.2,120.3 L3.9,120.3 L5.5,114.2 Z M9.3,130.6 C9.4,130.6 9.5,130.7 9.6,130.8 C9.7,130.9 9.8,131 9.7,131.3 L9.6,131.7 L3,135.4 L3,134.3 L9.3,130.6 Z M8.7,135.7 L3,138.9 L3,137.7 L9,134.2 L8.7,135.7 Z M8.2,138.3 L7.7,140.7 C7.6,141 7.4,141.1 7.1,141.1 L3.2,141.1 L8.2,138.3 Z M3,132 L3,130.6 L5.4,130.6 L3,132 Z M5,151.9 L11.3,152.7 C11.4,152.7 11.4,152.7 11.5,152.7 C12.1,152.7 12.8,153.3 13.2,154.2 C14.5,157.6 16.6,160.7 18.5,163.1 C15.7,161.9 13.1,160.5 11.1,159 C8,156.6 6.2,154.2 5,151.9 Z M24.4,165.4 C24,165 23,164 21.9,162.7 L33.8,165.7 C33.9,165.7 34,165.7 34,165.7 C34.4,165.7 34.9,165.4 35,164.9 C35.1,164.4 34.8,163.8 34.3,163.7 L19.8,160 C18.3,158 16.8,155.6 15.8,153.1 C15,151 13.3,149.7 11.5,149.7 L3.6,148.7 C2.8,146 3,144 3,143.9 C3,143.8 3,143.8 3,143.7 L3,143.2 L7.1,143.2 C8.3,143.2 9.4,142.3 9.6,141.2 L11.6,131.7 C11.8,130.9 11.6,130.2 11.1,129.6 C10.6,129 9.9,128.6 9.1,128.6 L3,128.6 L3,127.9 C5,126.9 9.6,124.3 11.8,119.2 C13.6,115 16.6,106.4 18.3,101.5 L25,101.5 C24.2,102.6 23.6,103.7 23,104.9 L17.5,116.7 C13.6,118.6 11.9,123 11.8,123.2 C11.5,124 11.9,124.8 12.7,125.1 C12.9,125.2 13.1,125.2 13.2,125.2 C13.8,125.2 14.4,124.8 14.6,124.2 C14.6,124.2 16,120.5 19.1,119.3 C19.1,119.3 19.2,119.3 19.2,119.3 C19.4,119.2 19.6,119.2 19.8,119.1 C20.6,118.9 21.8,118.7 23.5,118.4 C27.9,117.7 34.7,116.5 41.5,114.2 L65.7,114.2 C62.9,116 60.3,118.1 57.9,120.6 C41.8,137 40.1,162.2 39.9,169.1 C37,168.7 30.7,167.4 24.4,165.4 Z M94.5,201 C72.8,201 55.1,183.3 55.1,161.6 C55.1,139.9 72.8,122.2 94.5,122.2 C116.2,122.2 133.9,139.9 133.9,161.6 C133.9,183.4 116.2,201 94.5,201 Z M136.9,161.4 C136.8,138.1 117.8,119.3 94.5,119.3 C71.2,119.3 52.3,138.2 52.1,161.4 L43.5,161.4 C44.8,151 48.6,134.3 60,122.7 C68.7,113.8 80.4,109.4 94.7,109.4 C116.7,109.4 132.4,119.3 141.4,138.9 C145.2,147.2 146.9,155.6 147.7,161.4 L136.9,161.4 Z M151.3,167.3 C151.3,166.3 151.1,164.8 151,163 L378.7,156.5 C377.9,161.4 377.6,165.3 377.5,167.3 L151.3,167.3 Z M432.5,201 C410.8,201 393.1,183.3 393.1,161.6 C393.1,139.9 410.8,122.2 432.5,122.2 C454.2,122.2 471.9,139.9 471.9,161.6 C471.8,183.4 454.2,201 432.5,201 Z M474.8,161.4 C474.7,138.1 455.7,119.3 432.4,119.3 C409.1,119.3 390.2,138.2 390,161.4 L381,161.4 C381.7,155.6 383.3,147.1 387,138.7 C395.6,118.9 410.8,108.9 432.1,108.9 C453.5,108.9 468.8,118.6 477.8,137.8 C482,146.7 483.7,155.8 484.4,161.4 L474.8,161.4 Z M486.6,156.4 L527.8,153.8 C528.4,153.8 528.8,153.3 528.7,152.7 C528.6,152.1 528.2,151.7 527.6,151.8 L486.1,154.4 C485,149.2 483.3,143 480.4,136.6 C476,126.9 468,115.8 454,110 C466,109.3 492,107.7 502,107.3 C510.3,107 512.9,106 513.8,105 L540.5,103.5 C542,105.1 544.5,107.9 545.8,109.8 L545.8,110.4 C545.8,110.6 545.8,110.8 545.9,110.9 C546.7,113 549.6,120 553.2,120 C555.2,120 555.7,121.8 555.7,123.4 L555.7,136.4 C555.7,137.2 555.6,137.9 555.6,138.7 L552.2,139.1 C547.4,139.7 543.1,142.6 540.9,147 C537.5,153.6 529.5,159.8 528.1,160.8 C516.7,163.3 503.2,164.8 487.8,165.4 C487.7,163.7 487.4,160.5 486.6,156.4 Z M543.5,156.3 L547.4,150.8 C548.1,149.8 549.1,149.1 550.2,148.7 L552.5,147.9 C550.4,151.4 547.3,154.4 543.5,156.3 Z M303.7,22.3 C303,22.3 302.4,22.9 302.3,23.6 L297.9,66.8 C297.9,67.2 298,67.7 298.3,68 C298.6,68.3 299,68.5 299.4,68.5 C299.4,68.5 299.5,68.5 299.5,68.5 L397.4,62.7 C397.8,62.7 398.2,62.5 398.5,62.2 C398.8,61.9 398.9,61.5 398.8,61 L393.1,21.8 C393,21.1 392.4,20.5 391.7,20.5 C391.6,20.5 383.3,20.2 369.9,20.2 C354.3,20.2 330.2,20.6 303.7,22.3 Z M395.5,59.8 L301,65.4 L305.1,25.2 C331,23.6 354.5,23.2 369.7,23.2 C380,23.2 387.4,23.4 390.2,23.4 L395.5,59.8 Z M469.9,32.1 C465.2,25.4 454,21.6 446,21.5 L407.3,20.7 C406.8,20.7 406.4,20.9 406.1,21.3 C405.8,21.7 405.7,22.1 405.8,22.6 L414.6,59.9 C414.8,60.6 415.4,61.1 416.1,61.1 C416.1,61.1 416.1,61.1 416.2,61.1 L478.1,58.6 C480.1,58.5 481.9,57.4 482.8,55.6 C483.7,53.8 483.5,51.7 482.4,50 L469.9,32.1 Z M480,54.1 C479.6,54.9 478.8,55.4 477.9,55.5 L417.2,58 L409.1,23.7 L445.9,24.5 C453.3,24.6 463.4,28.1 467.4,33.8 L479.8,51.5 C480.3,52.3 480.4,53.2 480,54.1 Z M33.9,127.7 L19.4,127.7 C18.8,127.7 18.4,128.1 18.4,128.7 C18.4,129.3 18.8,129.7 19.4,129.7 L21.1,129.7 L18.7,142.3 C17.8,142.1 17.1,142 17.1,142 C16.6,141.9 16,142.2 15.9,142.7 C15.8,143.2 16.1,143.8 16.6,143.9 C16.8,144 19.2,144.6 22.1,144.6 C25.3,144.6 29.1,143.7 30.5,140.2 C32.5,135.2 34.7,129.2 34.7,129.1 C34.8,128.8 34.8,128.5 34.6,128.2 C34.5,127.8 34.2,127.7 33.9,127.7 Z M32.4,129.7 C32.2,130.1 32.1,130.6 31.9,131.2 C31.8,131.2 31.7,131.1 31.6,131.1 L22.9,131.1 L23.2,129.7 L32.4,129.7 Z M30.5,134.8 C30.4,134.8 30.3,134.8 30.3,134.8 L22.3,134.8 L22.6,133.1 L31.2,133.1 C31,133.6 30.7,134.2 30.5,134.8 Z M29,138.6 C28.9,138.6 28.9,138.6 28.8,138.6 L21.5,138.6 L21.8,136.9 L29.7,136.9 C29.5,137.4 29.3,138 29,138.6 Z M20.8,142.5 L21.2,140.5 L28,140.5 C26.4,142.5 23.3,142.7 20.8,142.5 Z M94.5,129.2 C76.6,129.2 62,143.8 62,161.7 C62,179.6 76.6,194.2 94.5,194.2 C112.4,194.2 127,179.6 127,161.7 C127,143.7 112.4,129.2 94.5,129.2 Z M94.5,191.1 C78.2,191.1 65,177.9 65,161.6 C65,145.3 78.2,132.1 94.5,132.1 C110.8,132.1 124,145.3 124,161.6 C124,177.9 110.8,191.1 94.5,191.1 Z M98.4,171 C98.1,170.4 97.4,170.2 96.8,170.3 C95.3,170.7 93.9,170.6 92.5,170.2 C91.8,170 91.1,170.3 90.8,170.9 L82.9,183.9 C82.7,184.3 82.6,184.7 82.7,185.1 C82.8,185.5 83.1,185.8 83.5,186 C87,187.6 90.7,188.4 94.6,188.4 C98.5,188.4 102.2,187.6 105.7,186 C106.1,185.8 106.4,185.5 106.5,185.1 C106.6,184.7 106.6,184.2 106.3,183.9 L98.4,171 Z M86.3,183.9 L92.8,173.3 C94,173.5 95.2,173.6 96.4,173.4 L102.9,183.9 C97.6,185.9 91.6,185.9 86.3,183.9 Z M99,135.3 C98.6,135.2 98.2,135.3 97.8,135.6 C97.5,135.9 97.3,136.3 97.2,136.7 L96,153.3 C96,154 96.4,154.6 97.1,154.8 C98.9,155.3 100.4,156.5 101.5,158 C101.8,158.4 102.3,158.7 102.7,158.7 C102.9,158.7 103.1,158.7 103.2,158.6 L118.1,153 C118.5,152.9 118.8,152.6 119,152.2 C119.2,151.8 119.2,151.4 119,151 C115.4,142.6 107.9,136.8 99,135.3 Z M103.3,155.4 C102.2,154.1 100.8,153 99.2,152.3 L100.2,138.6 C106.9,140.2 112.5,144.6 115.7,150.7 L103.3,155.4 Z M102.8,163.3 C102.7,164.8 102.1,166.2 101.2,167.4 C100.8,168 100.8,168.8 101.3,169.3 L111.6,180.3 C111.9,180.6 112.3,180.8 112.7,180.8 C112.7,180.8 112.7,180.8 112.7,180.8 C113.1,180.8 113.5,180.6 113.8,180.3 C118.7,175.3 121.3,168.7 121.3,161.7 C121.3,161.5 121.3,161.3 121.3,161.1 L121.3,160.9 C121.3,160.5 121.1,160.1 120.8,159.8 C120.5,159.5 120,159.4 119.6,159.5 L104.1,162 C103.4,162.1 102.9,162.6 102.8,163.3 Z M105.6,164.7 L118.3,162.6 C118.1,167.9 116.1,172.9 112.7,176.9 L104.3,168 C104.9,167.1 105.4,165.9 105.6,164.7 Z M70.9,153 L86.3,158.8 C86.5,158.9 86.7,158.9 86.8,158.9 C87.3,158.9 87.8,158.7 88.1,158.2 C89,156.8 90.3,155.7 91.8,155.1 C92.4,154.8 92.8,154.2 92.7,153.5 L90.3,136.9 C90.2,136.5 90,136.1 89.7,135.9 C89.4,135.7 88.9,135.6 88.5,135.7 C80.3,137.6 73.4,143.3 70.1,151 C69.9,151.4 69.9,151.8 70.1,152.2 C70.2,152.5 70.5,152.8 70.9,153 Z M87.5,139 L89.5,152.8 C88.2,153.5 87.1,154.4 86.2,155.5 L73.4,150.7 C76.4,145.1 81.5,140.8 87.5,139 Z M88.2,167.1 C87.4,166 86.9,164.7 86.8,163.4 C86.7,162.7 86.2,162.2 85.5,162.1 L69.5,159.7 C69.1,159.6 68.6,159.8 68.3,160 C68,160.3 67.8,160.7 67.8,161.1 L67.8,161.3 C67.8,161.4 67.8,161.6 67.8,161.7 C67.8,168.7 70.5,175.4 75.4,180.4 C75.7,180.7 76.1,180.9 76.5,180.9 C76.5,180.9 76.5,180.9 76.5,180.9 C76.9,180.9 77.3,180.7 77.6,180.4 L88.1,169 C88.5,168.5 88.6,167.7 88.2,167.1 Z M76.5,177.1 C73.1,173.1 71.1,168.1 70.8,162.8 L84,164.8 C84.2,165.8 84.6,166.8 85.1,167.7 L76.5,177.1 Z M89.3,162.2 C89.3,165.1 91.7,167.4 94.5,167.4 C97.3,167.4 99.7,165 99.7,162.2 C99.7,159.4 97.3,157 94.5,157 C91.7,157 89.3,159.3 89.3,162.2 Z M94.6,160 C95.8,160 96.8,161 96.8,162.2 C96.8,163.4 95.8,164.4 94.6,164.4 C93.4,164.4 92.4,163.4 92.4,162.2 C92.4,161 93.3,160 94.6,160 Z M432.5,129.2 C414.6,129.2 400,143.8 400,161.7 C400,179.6 414.6,194.2 432.5,194.2 C450.4,194.2 465,179.6 465,161.7 C464.9,143.7 450.4,129.2 432.5,129.2 Z M432.5,191.1 C416.2,191.1 403,177.9 403,161.6 C403,145.3 416.2,132.1 432.5,132.1 C448.8,132.1 462,145.3 462,161.6 C461.9,177.9 448.7,191.1 432.5,191.1 Z M436.3,171 C436,170.4 435.3,170.2 434.7,170.3 C433.2,170.7 431.8,170.6 430.4,170.2 C429.7,170 429,170.3 428.7,170.9 L420.8,183.9 C420.6,184.3 420.5,184.7 420.6,185.1 C420.7,185.5 421,185.8 421.4,186 C424.9,187.6 428.6,188.4 432.5,188.4 C436.4,188.4 440.1,187.6 443.6,186 C444,185.8 444.3,185.5 444.4,185.1 C444.5,184.7 444.5,184.2 444.2,183.9 L436.3,171 Z M424.2,183.9 L430.7,173.3 C431.9,173.5 433.1,173.6 434.3,173.4 L440.8,183.9 C435.5,185.9 429.5,185.9 424.2,183.9 Z M436.9,135.3 C436.5,135.2 436.1,135.3 435.7,135.6 C435.4,135.9 435.2,136.3 435.1,136.7 L433.9,153.3 C433.9,154 434.3,154.6 435,154.8 C436.8,155.3 438.3,156.5 439.4,158 C439.7,158.4 440.2,158.7 440.6,158.7 C440.8,158.7 441,158.7 441.1,158.6 L456,153 C456.4,152.9 456.7,152.6 456.9,152.2 C457.1,151.8 457.1,151.4 456.9,151 C453.3,142.6 445.8,136.8 436.9,135.3 Z M441.2,155.4 C440.1,154.1 438.7,153 437.1,152.3 L438.1,138.6 C444.8,140.2 450.4,144.6 453.6,150.7 L441.2,155.4 Z M440.7,163.3 C440.6,164.8 440,166.2 439.1,167.4 C438.7,168 438.7,168.8 439.2,169.3 L449.5,180.3 C449.8,180.6 450.2,180.8 450.6,180.8 C450.6,180.8 450.6,180.8 450.6,180.8 C451,180.8 451.4,180.6 451.7,180.3 C456.6,175.3 459.2,168.7 459.2,161.7 C459.2,161.5 459.2,161.3 459.2,161.1 L459.2,160.9 C459.2,160.5 459,160.1 458.7,159.8 C458.4,159.5 457.9,159.4 457.5,159.5 L442,162 C441.3,162.1 440.8,162.6 440.7,163.3 Z M443.5,164.7 L456.2,162.6 C456,168 454,173 450.6,177 L442.2,168.1 C442.9,167.1 443.3,165.9 443.5,164.7 Z M408.8,153 L424.2,158.8 C424.4,158.9 424.6,158.9 424.7,158.9 C425.2,158.9 425.7,158.7 426,158.2 C426.9,156.8 428.2,155.7 429.7,155.1 C430.3,154.8 430.7,154.2 430.6,153.5 L428.2,136.9 C428.1,136.5 427.9,136.1 427.6,135.9 C427.3,135.7 426.8,135.6 426.4,135.7 C418.2,137.6 411.3,143.3 408,151 C407.8,151.4 407.8,151.8 408,152.2 C408.1,152.5 408.4,152.8 408.8,153 Z M425.5,139 L427.5,152.8 C426.2,153.5 425.1,154.4 424.2,155.5 L411.4,150.7 C414.3,145.1 419.4,140.8 425.5,139 Z M426.1,167.1 C425.3,166 424.8,164.7 424.7,163.4 C424.6,162.7 424.1,162.2 423.4,162.1 L407.4,159.7 C407,159.6 406.5,159.8 406.2,160 C405.9,160.3 405.7,160.7 405.7,161.1 L405.7,161.3 C405.7,161.4 405.7,161.6 405.7,161.7 C405.7,168.7 408.4,175.4 413.3,180.4 C413.6,180.7 414,180.9 414.4,180.9 C414.4,180.9 414.4,180.9 414.4,180.9 C414.8,180.9 415.2,180.7 415.5,180.4 L426,169 C426.5,168.5 426.5,167.7 426.1,167.1 Z M414.4,177.1 C411,173.1 409,168.1 408.7,162.8 L421.9,164.8 C422.1,165.8 422.5,166.8 423,167.7 L414.4,177.1 Z M427.3,162.2 C427.3,165.1 429.7,167.4 432.5,167.4 C435.3,167.4 437.7,165 437.7,162.2 C437.7,159.4 435.3,157 432.5,157 C429.7,157 427.3,159.3 427.3,162.2 Z M432.5,160 C433.7,160 434.7,161 434.7,162.2 C434.7,163.4 433.7,164.4 432.5,164.4 C431.3,164.4 430.3,163.4 430.3,162.2 C430.3,161 431.3,160 432.5,160 Z M244,51.6 C243.8,51.1 244,50.5 244.5,50.3 L255.2,45.5 C255.7,45.3 256.3,45.5 256.5,46 C256.7,46.5 256.5,47.1 256,47.3 L245.3,52.1 C245.2,52.2 245,52.2 244.9,52.2 C244.5,52.2 244.1,52 244,51.6 Z M234.9,55.8 C234.7,55.3 234.9,54.7 235.4,54.5 L241.6,51.7 C242.1,51.5 242.7,51.7 242.9,52.2 C243.1,52.7 242.9,53.3 242.4,53.5 L236.2,56.3 C236.1,56.4 235.9,56.4 235.8,56.4 C235.4,56.4 235.1,56.1 234.9,55.8 Z M241.5,56.8 L263.6,46.9 C264.1,46.7 264.7,46.9 264.9,47.4 C265.1,47.9 264.9,48.5 264.4,48.7 L242.3,58.6 C242.2,58.7 242,58.7 241.9,58.7 C241.5,58.7 241.2,58.5 241,58.1 C240.8,57.6 241,57 241.5,56.8 Z M339.2,43.9 C339,43.4 339.2,42.8 339.7,42.6 L350.4,37.8 C350.9,37.6 351.5,37.8 351.7,38.3 C351.9,38.8 351.7,39.4 351.2,39.6 L340.5,44.4 C340.4,44.5 340.2,44.5 340.1,44.5 C339.7,44.5 339.4,44.3 339.2,43.9 Z M337.7,45.8 L331.5,48.6 C331.4,48.7 331.2,48.7 331.1,48.7 C330.7,48.7 330.4,48.5 330.2,48.1 C330,47.6 330.2,47 330.7,46.8 L336.9,44 C337.4,43.8 338,44 338.2,44.5 C338.4,45 338.2,45.6 337.7,45.8 Z M360.2,39.7 C360.4,40.2 360.2,40.8 359.7,41 L337.6,50.9 C337.5,51 337.3,51 337.2,51 C336.8,51 336.5,50.8 336.3,50.4 C336.1,49.9 336.3,49.3 336.8,49.1 L358.9,39.2 C359.4,39 360,39.2 360.2,39.7 Z M434.4,39.4 C434.2,38.9 434.4,38.3 434.9,38.1 L445.6,33.3 C446.1,33.1 446.7,33.3 446.9,33.8 C447.1,34.3 446.9,34.9 446.4,35.1 L435.7,39.9 C435.6,40 435.4,40 435.3,40 C434.9,40 434.5,39.8 434.4,39.4 Z M432.8,41.3 L426.6,44.1 C426.5,44.2 426.3,44.2 426.2,44.2 C425.8,44.2 425.5,44 425.3,43.6 C425.1,43.1 425.3,42.5 425.8,42.3 L432,39.5 C432.5,39.3 433.1,39.5 433.3,40 C433.5,40.5 433.3,41 432.8,41.3 Z M455.4,35.2 C455.6,35.7 455.4,36.3 454.9,36.5 L432.8,46.4 C432.7,46.5 432.5,46.5 432.4,46.5 C432,46.5 431.7,46.3 431.5,45.9 C431.3,45.4 431.5,44.8 432,44.6 L454.1,34.7 C454.5,34.5 455.1,34.7 455.4,35.2 Z M280.5,83.1 C280.4,82.9 280.2,82.7 279.9,82.6 C279.6,82.5 271.8,79.7 259.6,81.7 C254.4,82.6 251.6,84.1 251,86.2 C250.4,88.4 252.4,90.1 252.4,90.2 C252.4,90.2 252.5,90.2 252.5,90.2 C252.6,90.3 252.7,90.3 252.8,90.3 C252.9,90.3 252.9,90.3 253,90.3 C253,90.3 253.1,90.3 253.1,90.3 C253.2,90.3 253.9,90.3 254.9,90.3 C258.3,90.3 265.6,90.2 270.9,89.3 C270.9,89.3 271,89.3 271,89.3 C271.1,89.3 271.2,89.3 271.3,89.2 C273.1,88.9 274.6,88.5 275.6,88 C275.6,88 275.7,87.9 275.7,87.9 C279.5,86.2 280.5,83.7 280.5,83.6 C280.6,83.7 280.6,83.4 280.5,83.1 Z M255,88.5 C255.8,87.6 258.1,87.3 264.4,86.7 C268.2,86.4 269.3,87.2 269.6,87.5 C269.6,87.5 269.7,87.6 269.7,87.6 C265.2,88.3 258.9,88.5 255,88.5 Z M271.8,87.4 C271.7,87.1 271.5,86.7 271.3,86.4 C270.2,85 267.9,84.5 264.3,84.8 C257.8,85.4 254.4,85.7 253.1,87.7 C253,87.4 252.9,87.1 253,86.8 C253.2,86.2 254.2,84.7 260,83.7 C263.1,83.2 265.9,83 268.3,83 C272.9,83 276.3,83.7 278,84.1 C277.2,85.1 275.4,86.6 271.8,87.4 Z M402,76.6 C401.9,76.4 401.7,76.2 401.4,76.1 C401.1,76 393.3,73.2 381.1,75.2 C375.9,76.1 373.1,77.6 372.5,79.7 C371.9,81.9 373.9,83.6 373.9,83.7 C373.9,83.7 374,83.7 374,83.7 C374.1,83.8 374.2,83.8 374.3,83.8 C374.4,83.8 374.4,83.8 374.5,83.8 C374.5,83.8 374.6,83.8 374.6,83.8 C374.7,83.8 375.4,83.8 376.4,83.8 C379.8,83.8 387.1,83.7 392.3,82.8 C392.3,82.8 392.4,82.8 392.4,82.8 C392.5,82.8 392.6,82.8 392.7,82.7 C394.5,82.4 396,82 397,81.5 C397,81.5 397.1,81.4 397.1,81.4 C400.9,79.7 401.9,77.2 401.9,77.1 C402.1,77.1 402.1,76.8 402,76.6 Z M376.5,81.9 C377.3,81 379.6,80.7 385.9,80.1 C389.7,79.8 390.8,80.6 391.1,80.9 C391.1,80.9 391.2,81 391.2,81 C386.6,81.8 380.4,81.9 376.5,81.9 Z M393.3,80.8 C393.2,80.5 393,80.1 392.8,79.8 C391.7,78.4 389.4,77.9 385.8,78.2 C379.3,78.8 375.9,79.1 374.6,81.1 C374.5,80.8 374.4,80.5 374.5,80.2 C374.7,79.6 375.7,78.1 381.5,77.1 C384.6,76.6 387.4,76.4 389.8,76.4 C394.4,76.4 397.8,77.1 399.5,77.5 C398.7,78.5 396.9,80 393.3,80.8 Z" id="Shape"></path>
        </g>
    </g>
</svg>
