
<svg width="588px" height="175px" viewBox="0 0 588 175" version="1.1" xmlns="http://www.w3.org/2000/svg" xmlns:xlink="http://www.w3.org/1999/xlink">

    <g id="Page-1" stroke="none" stroke-width="1" fill="none" fill-rule="evenodd">
        <g id="mercedes-benz-car-10" transform="translate(337, 250) scale(-1, 1) translate(-337, -250)translate(87, 0)" fill="currentColor" fill-rule="nonzero">
            <path d="M265.6,39 C265.4,38.5 265.6,37.9 266.1,37.7 L276.8,32.9 C277.3,32.7 277.9,32.9 278.1,33.4 C278.3,33.9 278.1,34.5 277.6,34.7 L267,39.5 C266.9,39.6 266.7,39.6 266.6,39.6 C266.2,39.6 265.8,39.4 265.6,39 Z M264.6,39.5 C264.4,39 263.8,38.8 263.3,39 L257.1,41.8 C256.6,42 256.4,42.6 256.6,43.1 C256.8,43.5 257.1,43.7 257.5,43.7 C257.6,43.7 257.8,43.7 257.9,43.6 L264.1,40.8 C264.6,40.6 264.9,40 264.6,39.5 Z M285.3,34.3 L263.2,44.2 C262.7,44.4 262.5,45 262.7,45.5 C262.9,45.9 263.2,46.1 263.6,46.1 C263.7,46.1 263.9,46.1 264,46 L286.1,36.1 C286.6,35.9 286.8,35.3 286.6,34.8 C286.4,34.3 285.8,34.1 285.3,34.3 Z M349.4,36.3 C349.5,36.3 349.7,36.3 349.8,36.2 L360.5,31.4 C361,31.2 361.2,30.6 361,30.1 C360.8,29.6 360.2,29.4 359.7,29.6 L349,34.4 C348.5,34.6 348.3,35.2 348.5,35.7 C348.6,36.1 349,36.3 349.4,36.3 Z M340.3,40.5 C340.4,40.5 340.6,40.5 340.7,40.4 L346.9,37.6 C347.4,37.4 347.6,36.8 347.4,36.3 C347.2,35.8 346.6,35.6 346.1,35.8 L339.9,38.6 C339.4,38.8 339.2,39.4 339.4,39.9 C339.5,40.3 339.9,40.5 340.3,40.5 Z M345.5,42.3 C345.7,42.7 346,42.9 346.4,42.9 C346.5,42.9 346.7,42.9 346.8,42.8 L368.9,32.9 C369.4,32.7 369.6,32.1 369.4,31.6 C369.2,31.1 368.6,30.9 368.1,31.1 L346,40.9 C345.5,41.2 345.3,41.8 345.5,42.3 Z M585.4,120.4 C585.4,120.5 585.3,120.7 585.3,120.8 L582.2,127.9 C582.2,127.9 582.2,127.9 582.2,127.9 C582.2,127.9 582.2,127.9 582.2,127.9 L578.7,134.9 C578.5,135.3 578.1,135.6 577.6,135.7 L570.1,137.1 C570.1,137.1 570.1,137.1 570.1,137.1 C570.1,137.1 570.1,137.1 570.1,137.1 L496.1,150.7 C495.6,150.8 495.2,150.7 494.8,150.3 C494.6,150.1 494.5,150 494.4,149.8 L485.5,149.8 C479.3,164 465.1,174 448.6,174 C432.1,174 417.9,164 411.7,149.8 L403,149.8 C403,150.5 403,150.9 403.1,151 C403.1,151.4 403,151.8 402.7,152.1 C402.4,152.4 402,152.6 401.6,152.6 L152.7,155.6 C152.7,155.6 152.7,155.6 152.7,155.6 C152.3,155.6 151.9,155.4 151.6,155.1 C151.3,154.8 151.2,154.4 151.2,154 C151.2,153.9 151.3,152.4 151.3,149.9 L141.3,149.9 C135.1,164.1 120.9,174.1 104.4,174.1 C87.9,174.1 73.7,164.1 67.5,149.9 L59,149.9 C59,152.4 59.2,154 59.2,154 C59.2,154.4 59.1,154.9 58.8,155.2 C58.5,155.5 58.1,155.7 57.7,155.7 C56.2,155.6 20.7,154.3 12.7,148.4 C5.6,143.1 1.5,142.9 1.4,142.9 C0.6,142.9 -0.1,142.2 -0.1,141.4 C-0.2,139.4 -1.2,91.9 12.1,82.9 C14.1,81.5 17.4,80 21.7,78.5 L23.3,69.5 C23.4,69 23.9,68.6 24.5,68.7 C25,68.8 25.4,69.3 25.3,69.9 L24,77.7 C48.6,69.4 101.7,59.4 156.3,55.2 C160.6,54.9 165,54.7 169.2,54.7 L173.7,54.7 C179.6,51.2 243.4,13.8 265.1,7.6 C278.1,3.9 312.7,0 348.1,0 C373.7,0 409.7,2 436.1,11.4 C483.6,28.4 506.2,41.9 509.5,43.9 C510.1,43.9 511,43.8 512.4,43.8 C516.2,43.8 522.1,44 528.6,45.2 C531.6,45.7 535.4,46.6 539.5,47.5 C548.3,49.5 558.2,51.7 563.3,51.7 C564,51.7 564.7,51.7 565.1,51.6 C565.5,51.5 565.9,51.6 566.2,51.8 C566.4,51.9 572,55.3 574,63.4 C574.8,66.8 574.4,68.5 573.9,70 C573.4,72 572.8,74 576.2,81.7 C577.8,85.4 579.3,89 580.6,92.3 C582.4,96.8 584.1,101.1 585.1,102.2 C587.2,104.8 586,115.8 585.4,120.4 Z M578.4,94.9 C577.9,94.3 577.3,93.2 576,90.5 C571.8,81.7 561.9,61.1 544.3,57.7 C521.4,53.2 497.9,48.3 497.7,48.3 L497.7,48.3 L497.4,48.2 C489.1,45.1 453.5,31.8 439.4,21.6 C417.1,11.4 383.1,9.2 344.4,7.6 C304.3,5.9 265,15.4 262.9,15.9 C261.3,16.6 226.6,32.4 206.1,45 C185.4,57.8 172.2,60.1 171.1,60.3 C162.6,64.8 141.8,66.8 118.5,69 C94.2,71.3 77.7,74.5 68.5,76.7 C69.4,77.4 69.9,78.3 70,79.3 C70.1,80 70,80.7 69.7,81.4 C77.7,81.1 123.6,79.4 179.6,77.9 C179.7,76.4 179.7,75.2 179.9,74.3 C181.5,62.3 223.7,33.6 259.1,20.5 C294,7.6 353.9,10.5 383.4,16.5 C416.2,23.2 446.1,43.2 449.1,55.4 C451.5,65.3 443.9,71.2 423.7,86.8 C421.7,88.3 419.7,89.9 417.4,91.7 C396.7,107.9 394.8,130.4 394.7,136.1 L400.7,136 C402,125.3 405.6,111 415.2,100.7 C423.4,91.9 434.5,87.5 448.3,87.5 C461,87.5 471.4,91.2 479.4,98.4 C486.2,97.5 528.3,91.6 533.6,89.8 C538.9,88 541.5,86 543.3,82.3 C531.5,75.5 521.7,68.4 521,67.9 L520.9,67.8 L466.5,67 C465.9,67 465.5,66.5 465.5,66 C465.5,65.4 466,65 466.5,65 L520.7,65.7 C521.4,64.7 525.5,59.9 542.9,59.9 C561.7,59.9 575.2,91.8 575.8,93.1 L576.8,95.6 L574.2,95.2 C565.8,94 554.9,88.8 545.1,83.3 C543,87.4 540,89.7 534.2,91.7 C529.1,93.4 491.5,98.7 481.2,100.1 C481.4,100.3 481.6,100.5 481.8,100.7 C490.5,109.9 494.4,122.2 496,132.1 L582.4,119.5 C583.2,113 583.5,105.6 582.7,104.4 C581.6,102.9 580.2,99.5 578.4,94.9 Z M541.4,68.9 C549.4,71 558.8,75.4 563.6,77.7 C562.4,76 561,74.2 559.6,72.6 C552.7,69.2 546,68.7 541.4,68.9 Z M556,68.9 C552.1,65.4 547.6,62.9 542.9,62.9 C531.3,62.9 526.3,65.1 524.3,66.5 C530.6,70.9 555.4,87.9 571.8,91.7 C570.6,89.2 568.6,85.3 565.9,81.1 C565.9,81.1 565.8,81.1 565.8,81.1 C565.6,81 545.9,70.6 535,69.8 C535,69.8 535,69.8 535,69.8 C534.9,69.8 534.8,69.8 534.8,69.7 C534.8,69.7 534.7,69.7 534.7,69.7 C534.6,69.7 534.6,69.6 534.5,69.6 C534.5,69.6 534.4,69.5 534.4,69.5 C534.4,69.5 534.3,69.4 534.3,69.4 C534.3,69.3 534.2,69.3 534.2,69.2 C534.2,69.2 534.2,69.2 534.2,69.2 C534.2,69.1 534.2,69.1 534.2,69 C534.2,68.9 534.2,68.9 534.2,68.8 C534.2,68.8 534.2,68.8 534.2,68.8 C534.2,68.7 534.2,68.7 534.3,68.6 C534.3,68.5 534.3,68.5 534.4,68.4 C534.4,68.4 534.5,68.3 534.5,68.3 C534.5,68.2 534.6,68.2 534.7,68.1 C534.7,68.1 534.8,68.1 534.8,68.1 C534.9,68 535,68 535.1,68 C535.1,68 535.1,68 535.1,68 C535.3,67.6 544.8,65.1 556,68.9 Z M105,87.8 C119.2,87.8 130.7,92.4 139,101.4 C146.2,109.3 150,119.4 152,128.1 C161.2,128.3 171.1,128.4 181.6,128.5 C180.6,114.2 179.3,91.6 179.5,79.8 C119.2,81.4 70.7,83.2 68.5,83.3 C67.3,85.1 65.3,87 62.8,88.9 L82.6,92.4 C89,89.4 96.5,87.8 105,87.8 Z M27.2,92.3 C23.8,97.4 21.2,101.7 19.7,105.1 C21,104.7 22.6,104.2 24.5,103.7 C25.2,101.1 29.2,90 44.5,85.8 C56.4,82.5 64.2,81.1 66.8,80.7 C66.9,80.3 67,80 67,79.7 C66.9,79.2 66.3,78.8 65.6,78.5 C63.1,79 50.1,81.4 40.3,83.8 C39.7,83.9 39.1,84.1 38.5,84.3 L38.5,84.4 L35,85.4 C31.7,86.8 29.6,88.8 27.2,92.3 Z M26.9,102.9 C35.6,100.2 47.4,96.2 52.3,92.9 C55.8,90.5 62.1,86.3 65.2,82.9 C61.6,83.6 54.7,85 45.1,87.6 C32.7,91.1 28.3,99.4 26.9,102.9 Z M416.2,90.1 C418.4,88.4 420.5,86.8 422.5,85.2 C442,70.1 449.3,64.4 447.2,55.8 C447,55.2 446.8,54.5 446.5,53.8 L446.5,53.9 L427,54 L427,54 L327.3,55.5 L327.3,55.4 L318.5,55.7 C317,63.6 315.7,70.8 314.9,75.3 C355.9,75.1 390.6,75.6 407.4,77.5 C407.9,77.6 408.3,78.1 408.3,78.6 C408.3,79.1 407.7,79.5 407.2,79.5 C390.4,77.6 355.7,77.1 314.6,77.3 C314.6,77.5 314.5,77.7 314.5,77.9 C313,87.8 311.1,109.6 312.3,125.7 C355.7,124.1 389.8,122.3 394.9,122.1 C397.5,112.5 403.4,100.1 416.2,90.1 Z M434.9,51 C429.6,46.4 417.4,36.5 402.5,30.3 L400.8,51.5 L434.9,51 Z M399.6,29.1 C381.6,22.4 360.4,19 334.7,18.9 L330.6,52.5 L397.8,51.5 L399.6,29.1 Z M445.3,52 C438.2,41.1 412.8,24.5 383,18.5 C369.1,15.7 348.4,13.5 326.7,13.4 C325.8,17.8 322,37.1 318.8,53.8 L327.4,53.5 L332,16 L333.3,16 C360,16 382,19.4 400.7,26.4 C422.4,34.5 439,50.7 439.7,51.4 L440.4,52.1 L445.3,52 Z M324.7,13.4 C301.5,13.4 277.4,15.9 259.8,22.4 C235,31.5 209,47.2 194.2,59.7 L197,59.5 L204.2,54.3 C204.2,53.8 204.3,53.2 204.6,52.7 L204.7,52.5 L204.9,52.4 C205.2,52.1 213.5,44.5 221.7,44.5 C221.8,44.5 221.8,44.5 221.9,44.5 C223.2,43.5 231.3,37.8 254.7,27.5 C280,16.4 315.7,16 316.1,16 L318,16 L308,54.2 L316.8,53.9 C319.9,37.5 323.7,18.4 324.7,13.4 Z M200.7,59.3 L207.4,58.9 C206.3,58.3 205.3,57.5 204.7,56.4 L200.7,59.3 Z M206.3,53.7 C206.1,54.3 206.1,54.9 206.4,55.4 C207.2,57 210,58 211.1,58.2 C211.4,58.2 212.3,58.2 213.7,58.2 C223.2,58.2 229.7,56.7 230.8,54.2 C230.9,53.9 230.9,53.6 230.9,53.3 L212,54.8 C212,54.8 211.9,54.8 211.9,54.8 C211.4,54.8 210.9,54.4 210.9,53.9 C210.9,53.3 211.3,52.9 211.8,52.8 L230,51.4 C229.5,50.7 229,50 228.4,49.4 C226.5,47.4 224.2,46.5 221.5,46.5 C214.7,46.5 207.5,52.7 206.3,53.7 Z M230,57.7 L305.1,53.4 L314,19.1 C306.2,19.3 277.1,20.9 255.8,30.3 C237,38.6 228.8,43.4 225.9,45.3 C227.4,45.9 228.8,46.8 230,48.1 C232.6,50.8 233.5,53.1 232.6,55.1 C232.1,56.1 231.2,57 230,57.7 Z M181.9,74.5 C181.8,75.4 181.7,76.5 181.7,77.8 C223.8,76.7 271.5,75.6 312.9,75.4 C313.6,71 314.9,63.8 316.5,55.9 L307.6,56.2 L307.6,56.3 L190.7,62.9 C185.4,67.7 182.3,71.7 181.9,74.5 Z M181.6,79.8 C181.4,91.4 182.7,114.1 183.7,128.5 C223.6,128.5 270.6,127.2 310.3,125.7 C309.1,109.4 311,87.6 312.5,77.6 C312.5,77.5 312.5,77.4 312.5,77.3 C271.2,77.7 223.6,78.7 181.6,79.8 Z M154,140.5 L182.5,140 C182.4,138.1 182.1,134.8 181.8,130.6 C171.4,130.6 161.6,130.5 152.5,130.2 C152.9,131.9 153.1,133.6 153.4,135.2 C153.6,137 153.8,138.8 154,140.5 Z M312,137.6 C311.3,134.8 310.8,131.5 310.4,127.8 C271,129.2 224.3,130.6 184.6,130.6 C184.3,130.6 184.1,130.6 183.8,130.6 C184.1,134.9 184.3,138.2 184.5,140 L312,137.6 Z M392.7,136.1 C392.8,134 393,129.6 394.4,124.1 C387.6,124.5 354.4,126.1 312.5,127.7 C312.8,131.4 313.4,134.8 314.1,137.5 L392.7,136.1 Z M175.4,57.2 C181,55.5 191.5,51.7 205.1,43.3 C222.9,32.3 251.2,19 259.7,15.1 L256.1,14.1 C229.9,25.3 181,53.9 175.4,57.2 Z M498.1,45.2 L504.6,44.5 C496.5,39.9 474.9,28.6 436.6,14.8 C438.4,18.6 456,29.8 498.1,45.2 Z M571,64.2 C570.8,63.6 570.6,63 570.4,62.4 L563.1,66.8 C566.4,70.3 569.1,74.1 571.4,77.8 C569.9,73.1 570.4,71.2 571,69.3 C571.4,67.9 571.7,66.8 571,64.2 Z M565,54.7 C564.5,54.8 563.9,54.8 563.3,54.8 C560.1,56 556.1,58.3 554.2,59.5 C556.9,61.1 559.4,63.1 561.7,65.3 L569.6,60.6 L570.2,61.6 C568.6,57.6 566,55.4 565,54.7 Z M512.4,46.9 C511.5,46.9 510.8,46.9 510.3,46.9 L504.1,47.6 C512.6,49.3 528.7,52.6 544.6,55.8 C547.3,56.3 549.8,57.2 552.1,58.4 C552.7,58 555.8,56.2 559.1,54.5 C553.5,53.8 545.8,52.1 538.8,50.6 C534.7,49.7 530.9,48.8 528,48.3 C521.8,47.1 516.1,46.9 512.4,46.9 Z M259.1,12.9 L262.6,13.9 C266.1,13 304.9,3.9 344.4,5.6 C380.4,7.1 412.3,9.1 434.8,17.6 C434.1,16.8 433.7,16 433.5,15.3 C433.4,14.8 433.4,14.3 433.4,13.8 C407.7,4.9 373,3 348.2,3 C313,3 278.8,6.8 266,10.4 C264,11 261.7,11.8 259.1,12.9 Z M22.5,81.4 C23.1,81.8 23.6,82.2 23.9,82.8 C24.6,83.9 24.6,85.3 23.9,86.8 L29.7,84.9 C32.4,82.7 35.5,81.7 39.5,80.7 C49,78.4 61.6,76 64.7,75.5 C73.1,73.4 90.7,69.6 118.2,67 C139,65 162.1,62.8 170.2,58.6 C170.3,58.5 170.4,58.5 170.5,58.4 C170.9,58.2 171.3,57.9 171.6,57.7 L169.2,57.7 C165,57.7 160.7,57.9 156.5,58.2 C96,62.9 44.1,73.6 22.5,81.4 Z M13.9,85.4 C13.9,85.4 13.9,85.4 13.9,85.4 L18.4,86.4 C18.7,86.5 18.9,86.6 19.1,86.9 C19.2,87.1 19.3,87.4 19.2,87.7 C18.9,88.7 11.2,110.4 4.1,116.1 C4.1,116.1 4.1,116.1 4.1,116.1 C12,112.5 17.6,98 20.4,90.7 C21.1,88.8 21.7,87.3 22.2,86.4 C22.7,85.3 22.8,84.5 22.4,83.9 C22,83.1 20.9,82.7 20,82.5 C17.2,83.5 15.2,84.5 13.9,85.4 Z M5.1,137.2 L5.1,128 L4.8,128 C4.2,128 3.8,127.6 3.8,127 L3.8,118.8 L3.8,118.8 C3.1,126.3 3,133.4 3,138.5 L5.1,137.2 Z M7.4,96.8 L13.9,95.6 C14.4,94.4 14.9,93.2 15.3,92.2 L8.7,93 C8.3,94.1 7.8,95.4 7.4,96.8 Z M5.8,103.4 L10.8,102.4 C11.6,100.8 12.3,99.3 12.9,97.8 L6.7,98.9 C6.5,100.4 6.1,101.9 5.8,103.4 Z M4.3,113.1 C6.1,111.1 8,108 9.7,104.7 L5.4,105.6 C5,108 4.6,110.5 4.3,113.1 Z M9.7,90.8 L16.2,90 C16.5,89.2 16.7,88.6 16.9,88.1 L12.1,87 C11.2,88 10.4,89.3 9.7,90.8 Z M56.2,152.6 C55.8,145.5 55.4,118.6 70.7,101.6 C73.4,98.6 76.4,96.1 79.8,94.1 L61.3,90.8 C61.1,90.8 61,90.7 60.8,90.6 C58.7,92.2 56.3,93.8 53.9,95.5 C45.4,101.3 18.6,108.6 17.5,108.9 C17.4,108.9 17.2,109 17.1,109 C16.7,109 16.3,108.8 16,108.5 C15.6,108.1 15.5,107.5 15.7,107 C16.9,103.2 20,97.7 24.7,90.8 C25.3,89.9 26,89 26.6,88.3 L23,89.3 C22.7,89.9 22.5,90.6 22.2,91.4 C19.2,99.3 13.9,113 5.8,117.5 C5.8,117.6 5.9,117.7 5.9,117.9 L5.9,126.1 L6.2,126.1 C6.8,126.1 7.2,126.5 7.2,127.1 L7.2,137.8 C7.2,138.1 7,138.5 6.7,138.7 L4,140.3 C6,140.8 9,142.1 13,144.8 L48.7,144.8 C49.3,144.8 49.7,145.2 49.7,145.8 C49.7,146.4 49.3,146.8 48.7,146.8 L16.1,146.8 C23.7,150.4 45.9,152.1 56.2,152.6 Z M141.7,133.9 C141.7,113.4 125,96.7 104.5,96.7 C84,96.7 67.3,113.4 67.3,133.9 C67.3,154.4 84,171.1 104.5,171.1 C125,171.1 141.7,154.4 141.7,133.9 Z M144.7,133.9 C144.7,138.4 143.9,142.8 142.5,146.9 L151.3,146.9 C151,136.4 148.7,116.5 136.8,103.5 C129,95.1 118.3,90.8 105,90.8 C91.5,90.8 80.7,95.1 73,103.6 C61.2,116.6 59.3,136.4 59.1,146.9 L66.4,146.9 C65,142.8 64.2,138.5 64.2,133.9 C64.2,111.7 82.2,93.7 104.4,93.7 C126.6,93.7 144.7,111.7 144.7,133.9 Z M400,149.6 C400,148.9 400,147.9 400,146.7 L305.8,146.7 C305.2,146.7 304.8,146.3 304.8,145.7 C304.8,145.1 305.2,144.7 305.8,144.7 L400,144.7 C400,143 400.1,141.1 400.3,138.9 L154.1,143.4 C154.2,145 154.2,146.5 154.3,147.8 L271.6,145 C272.1,145 272.6,145.4 272.6,146 C272.6,146.6 272.2,147 271.6,147 L154.3,149.8 C154.3,150.9 154.3,151.8 154.2,152.5 L400,149.6 Z M485.8,133.9 C485.8,113.4 469.1,96.7 448.6,96.7 C428.1,96.7 411.4,113.4 411.4,133.9 C411.4,154.4 428.1,171.1 448.6,171.1 C469.1,171.1 485.8,154.4 485.8,133.9 Z M488.8,133.9 C488.8,138.4 488,142.8 486.6,146.9 L494.3,146.9 C494.3,139.6 493.1,116.9 479.6,102.7 C471.9,94.6 461.3,90.4 448.2,90.4 C435.2,90.4 424.8,94.5 417.3,102.7 C404.6,116.4 403,137.9 402.9,146.9 L410.5,146.9 C409.1,142.8 408.3,138.5 408.3,133.9 C408.3,111.7 426.3,93.7 448.5,93.7 C470.7,93.7 488.8,111.7 488.8,133.9 Z M497.4,147.5 L568.6,134.4 C570.6,126.7 577.4,125.8 579.9,125.8 L581.7,121.6 L496.4,134 C497.3,140 497.4,144.9 497.4,147.5 Z M578.4,128.9 C576.3,129.2 573.4,130.4 572,133.8 L576.4,133 L578.4,128.9 Z M43.6,139.2 C43.8,139.5 43.9,139.8 43.8,140.1 C43.7,140.4 43.5,140.7 43.1,140.8 C41.6,141.3 37.9,141.7 33.7,141.7 C27.4,141.7 20,140.8 16.3,138.2 C14.8,137.1 14,135.7 14,134.2 C14,134.2 14,134.2 14,134.2 L14,134.2 C14,134.2 14,134.2 14,134.2 C14,132.7 14.6,131.3 15.8,130.2 C18.1,128 22.5,127.2 26.1,126.9 C19.2,125.7 11.7,127.7 11.6,127.7 C11.1,127.8 10.5,127.5 10.4,127 C10.3,126.5 10.6,125.9 11.1,125.8 C11.8,125.6 28.9,121 36.4,130.4 L43.6,139.2 Z M17.2,131.6 C16.7,132.1 16.4,132.6 16.2,133.1 L36.1,133.1 L34.8,131.5 C33.9,130.3 32.8,129.4 31.5,128.7 C31.2,128.7 30.5,128.7 29.6,128.7 C26.3,128.7 19.9,129.1 17.2,131.6 Z M41.1,139.2 L37.8,135.1 L16.3,135.1 C16.5,135.6 16.9,136.1 17.5,136.5 C22.3,140 35.7,140.1 41.1,139.2 Z M276.4,68.4 C276.3,67.9 276.4,67.3 277,66.5 C279.5,63.6 290.1,62.8 293.6,62.8 C293.9,62.8 294.3,62.8 294.6,62.8 C299.1,62.8 303.3,63.2 303.6,65.9 C303.7,66.7 303.4,67.6 302.7,68.3 C301.5,69.7 299.4,70.7 297.4,70.8 C296.6,70.8 296.1,70.9 295.9,70.9 C294.8,70.9 294.8,70 294.8,69.9 C294.8,69.1 295.3,68.9 295.8,68.8 C295.8,68.8 295.9,68.7 295.9,68.7 C295.5,68.6 294.6,68.5 292.9,68.6 C292,68.7 291.2,68.7 290.4,68.8 C287.8,69 283.8,69.2 283.3,69.9 C283.3,69.9 283.4,70.1 283.7,70.6 C283.9,70.8 284.1,71.1 284.1,71.4 C284.1,72 283.7,72.4 283.1,72.4 C283.1,72.4 283.1,72.4 283.1,72.4 C283.1,72.4 283.1,72.4 283.1,72.4 C282.9,72.4 277,72.2 276.4,68.4 Z M278.4,68.1 C278.6,69.2 280.1,69.8 281.4,70.1 C281.4,69.8 281.4,69.4 281.5,69.1 C282.2,67.3 285.5,67.1 290.3,66.8 C291.1,66.7 291.9,66.7 292.8,66.6 C293.4,66.6 293.9,66.5 294.4,66.5 C295.7,66.5 297.5,66.6 298,67.9 C298.1,68.1 298.1,68.4 298.1,68.6 C299.3,68.4 300.5,67.7 301.2,66.9 C301.5,66.6 301.6,66.2 301.6,66 C301.6,65.8 301.1,64.7 294.6,64.7 C294.3,64.7 294,64.7 293.7,64.7 C287.7,64.8 280,66 278.6,67.7 C278.4,68 278.4,68.1 278.4,68.1 Z M410,72.4 C409.7,72.4 403.8,72.2 403.2,68.4 C403.1,67.9 403.2,67.3 403.8,66.5 C406.3,63.6 416.9,62.8 420.4,62.8 C420.7,62.8 421.1,62.8 421.4,62.8 C425.9,62.8 430.1,63.2 430.4,65.9 C430.5,66.7 430.2,67.6 429.5,68.3 C428.3,69.7 426.2,70.7 424.2,70.8 C423.4,70.8 422.9,70.9 422.7,70.9 C421.6,70.9 421.6,70 421.6,69.9 C421.6,69.1 422.1,68.9 422.6,68.8 C422.6,68.8 422.7,68.7 422.7,68.7 C422.3,68.6 421.4,68.5 419.7,68.6 C418.8,68.7 418,68.7 417.2,68.8 C414.6,69 410.6,69.2 410.1,69.9 C410.1,69.9 410.2,70.1 410.5,70.6 C410.7,70.8 410.9,71.1 410.9,71.4 C411,71.9 410.6,72.4 410,72.4 C410,72.4 410,72.4 410,72.4 C410,72.4 410,72.4 410,72.4 Z M417.2,66.8 C418,66.7 418.8,66.7 419.7,66.6 C420.3,66.6 420.8,66.5 421.3,66.5 C422.6,66.5 424.4,66.6 424.9,67.9 C425,68.1 425,68.4 425,68.6 C426.2,68.4 427.4,67.7 428.1,66.9 C428.4,66.6 428.5,66.2 428.5,66 C428.5,65.8 428,64.7 421.5,64.7 C421.2,64.7 420.9,64.7 420.6,64.7 C414.6,64.8 406.9,66 405.5,67.7 C405.4,67.9 405.4,67.9 405.4,68 C405.6,69.1 407.1,69.7 408.4,70 C408.4,69.7 408.4,69.3 408.5,69 C409.1,67.3 412.3,67.1 417.2,66.8 Z M481.9,133.9 C481.9,152.3 467,167.2 448.6,167.2 C430.2,167.2 415.3,152.3 415.3,133.9 C415.3,115.5 430.2,100.6 448.6,100.6 C467,100.6 481.9,115.5 481.9,133.9 Z M478.9,133.9 C478.9,117.2 465.3,103.6 448.6,103.6 C431.9,103.6 418.3,117.2 418.3,133.9 C418.3,150.6 431.9,164.2 448.6,164.2 C465.3,164.2 478.9,150.6 478.9,133.9 Z M476.7,133.9 C476.7,149.4 464.1,162 448.6,162 C433.1,162 420.5,149.4 420.5,133.9 C420.5,118.4 433.1,105.8 448.6,105.8 C464.1,105.8 476.7,118.4 476.7,133.9 Z M474.6,136.1 C474.7,135.4 474.7,134.6 474.7,133.9 C474.7,133.1 474.7,132.3 474.6,131.6 L466.9,133.9 L474.6,136.1 C474.6,136.1 474.6,136.1 474.6,136.1 Z M463.8,123.9 L471.1,120.8 C471.1,120.8 471.1,120.8 471.1,120.8 C470.3,119.4 469.4,118.2 468.4,117 L463.8,123.9 Z M454.1,117.6 L459.4,110.5 C459.5,110.4 459.5,110.3 459.6,110.3 C457.9,109.5 456,108.9 454.1,108.4 L454.1,117.6 Z M437.5,110.2 C437.6,110.3 437.6,110.3 437.7,110.4 L443,117.5 L443,108.3 C441.1,108.8 439.3,109.4 437.5,110.2 Z M426,120.8 C426,120.8 426,120.8 426,120.8 L433.3,123.9 L428.6,117 C427.7,118.2 426.8,119.5 426,120.8 Z M422.6,136.1 L430.2,133.9 L422.6,131.6 C422.5,132.4 422.5,133.1 422.5,133.9 C422.5,134.6 422.5,135.4 422.6,136.1 C422.6,136.1 422.6,136.1 422.6,136.1 Z M433.3,143.9 L426,147 C426.8,148.3 427.7,149.6 428.7,150.8 L433.3,143.9 Z M443,150.2 L437.7,157.3 C437.6,157.4 437.6,157.4 437.5,157.5 C439.2,158.3 441.1,158.9 443,159.4 L443,150.2 Z M448.6,160 C449.5,160 450.3,160 451.1,159.9 C451.1,159.8 451.1,159.8 451.1,159.7 L451.1,145.7 C451.1,145.1 451.5,144.5 452.1,144.3 C452.7,144.1 453.4,144.3 453.8,144.8 L461.8,155.6 C462,155.8 462,156 462.1,156.3 C463.7,155.3 465.1,154.2 466.5,153 C466.3,152.9 466.2,152.8 466.1,152.6 L458.6,141.5 C458.2,141 458.3,140.2 458.7,139.7 C459.1,139.2 459.8,139 460.4,139.3 L472.4,144.3 C472.5,144.3 472.6,144.4 472.6,144.4 C473.3,142.7 473.9,140.9 474.3,139.1 C474.3,139.1 474.2,139.1 474.2,139.1 C474.1,139.1 473.9,139.1 473.8,139 L461.3,135.4 C460.7,135.2 460.2,134.6 460.2,134 C460.2,133.3 460.6,132.7 461.3,132.6 L474.2,128.7 C474.2,128.7 474.3,128.7 474.3,128.7 C473.9,126.9 473.4,125.2 472.7,123.6 C472.6,123.6 472.6,123.7 472.5,123.7 L460.5,128.7 C460.3,128.8 460.1,128.8 459.9,128.8 C459.5,128.8 459,128.6 458.7,128.3 C458.3,127.8 458.2,127.1 458.6,126.5 L466.1,115.4 C466.2,115.2 466.4,115.1 466.5,115 C465.2,113.7 463.7,112.6 462.1,111.7 C462.1,112 462,112.2 461.8,112.4 L453.8,123.2 C453.5,123.6 453.1,123.8 452.6,123.8 C452.4,123.8 452.3,123.8 452.1,123.7 C451.5,123.5 451.1,122.9 451.1,122.3 L451.1,108.3 C451.1,108.2 451.1,108.1 451.1,108 C450.3,107.9 449.4,107.9 448.6,107.9 C447.7,107.9 446.9,107.9 446,108 C446,108.1 446,108.2 446,108.2 L446,122.2 C446,122.8 445.6,123.4 445,123.6 C444.8,123.7 444.7,123.7 444.5,123.7 C444,123.7 443.6,123.5 443.3,123.1 L435.3,112.3 C435.1,112.1 435.1,111.9 435,111.6 C433.4,112.6 432,113.7 430.6,114.9 C430.7,115 430.9,115.1 431,115.3 L438.5,126.4 C438.9,126.9 438.8,127.7 438.4,128.2 C438.1,128.6 437.7,128.7 437.2,128.7 C437,128.7 436.8,128.7 436.6,128.6 L424.6,123.6 C424.5,123.6 424.5,123.5 424.4,123.5 C423.7,125.1 423.2,126.8 422.8,128.6 C422.8,128.6 422.8,128.6 422.8,128.6 L435.7,132.5 C436.3,132.7 436.8,133.3 436.8,133.9 C436.8,134.6 436.4,135.1 435.7,135.3 L423.2,138.9 C423.1,138.9 422.9,139 422.8,139 C422.8,139 422.8,139 422.8,139 C423.2,140.8 423.7,142.6 424.5,144.3 C424.6,144.3 424.6,144.2 424.7,144.2 L436.7,139.2 C437.3,138.9 438,139.1 438.4,139.6 C438.8,140.1 438.9,140.8 438.5,141.4 L431,152.5 C430.9,152.7 430.8,152.8 430.6,152.9 C431.9,154.2 433.4,155.3 434.9,156.2 C434.9,156 435,155.7 435.2,155.5 L443.2,144.7 C443.6,144.2 444.3,144 444.9,144.2 C445.5,144.4 445.9,145 445.9,145.6 L445.9,159.6 C445.9,159.7 445.9,159.7 445.9,159.8 C446.9,159.9 447.7,160 448.6,160 Z M471.2,147 C471.2,147 471.2,147 471.2,147 L463.8,143.9 L468.5,150.8 C469.5,149.6 470.4,148.3 471.2,147 Z M459.4,157.3 L454.1,150.2 L454.1,159.4 C456,159 457.8,158.4 459.6,157.6 C459.5,157.5 459.5,157.4 459.4,157.3 Z M448.6,140.1 C445.2,140.1 442.4,137.3 442.4,133.9 C442.4,130.5 445.2,127.7 448.6,127.7 C452,127.7 454.8,130.5 454.8,133.9 C454.9,137.3 452.1,140.1 448.6,140.1 Z M451.9,133.9 C451.9,132.1 450.4,130.7 448.7,130.7 C447,130.7 445.5,132.2 445.5,133.9 C445.5,135.6 447,137.1 448.7,137.1 C450.4,137.1 451.9,135.7 451.9,133.9 Z M137.8,133.9 C137.8,152.3 122.9,167.2 104.5,167.2 C86.1,167.2 71.2,152.3 71.2,133.9 C71.2,115.5 86.1,100.6 104.5,100.6 C122.9,100.6 137.8,115.5 137.8,133.9 Z M134.8,133.9 C134.8,117.2 121.2,103.6 104.5,103.6 C87.8,103.6 74.2,117.2 74.2,133.9 C74.2,150.6 87.8,164.2 104.5,164.2 C121.2,164.2 134.8,150.6 134.8,133.9 Z M132.6,133.9 C132.6,149.4 120,162 104.5,162 C89,162 76.4,149.4 76.4,133.9 C76.4,118.4 89,105.8 104.5,105.8 C120,105.8 132.6,118.4 132.6,133.9 Z M130.5,136.1 C130.6,135.4 130.6,134.6 130.6,133.9 C130.6,133.1 130.6,132.3 130.5,131.6 L122.8,133.9 L130.5,136.1 C130.4,136.1 130.4,136.1 130.5,136.1 Z M119.7,123.9 L127,120.8 C127,120.8 127,120.8 127,120.8 C126.2,119.4 125.3,118.2 124.3,117 L119.7,123.9 Z M110,117.6 L115.3,110.5 C115.4,110.4 115.4,110.3 115.5,110.3 C113.8,109.5 111.9,108.9 110,108.4 L110,117.6 Z M93.4,110.2 C93.5,110.3 93.5,110.3 93.6,110.4 L98.9,117.5 L98.9,108.3 C97,108.8 95.1,109.4 93.4,110.2 Z M81.9,120.8 C81.9,120.8 81.9,120.8 81.9,120.8 L89.2,123.9 L84.5,117 C83.5,118.2 82.6,119.5 81.9,120.8 Z M78.5,136.1 L86.1,133.9 L78.5,131.6 C78.4,132.4 78.4,133.1 78.4,133.9 C78.4,134.6 78.4,135.4 78.5,136.1 C78.5,136.1 78.5,136.1 78.5,136.1 Z M89.2,143.9 L81.9,147 C82.7,148.3 83.6,149.6 84.6,150.8 L89.2,143.9 Z M98.9,150.2 L93.6,157.3 C93.5,157.4 93.5,157.4 93.4,157.5 C95.1,158.3 97,158.9 98.9,159.4 L98.9,150.2 Z M104.5,160 C105.4,160 106.2,160 107,159.9 C107,159.8 107,159.8 107,159.7 L107,145.7 C107,145.1 107.4,144.5 108,144.3 C108.6,144.1 109.3,144.3 109.7,144.8 L117.7,155.6 C117.9,155.8 117.9,156 118,156.3 C119.6,155.3 121,154.2 122.4,153 C122.2,152.9 122.1,152.8 122,152.6 L114.5,141.5 C114.1,141 114.2,140.2 114.6,139.7 C115,139.2 115.7,139 116.3,139.3 L128.3,144.3 C128.4,144.3 128.5,144.4 128.5,144.4 C129.2,142.7 129.8,140.9 130.2,139.1 C130.2,139.1 130.1,139.1 130.1,139.1 C130,139.1 129.8,139.1 129.7,139 L117.2,135.4 C116.6,135.2 116.1,134.6 116.1,134 C116.1,133.3 116.5,132.7 117.2,132.6 L130.1,128.7 C130.1,128.7 130.2,128.7 130.2,128.7 C129.8,126.9 129.3,125.2 128.6,123.6 C128.5,123.6 128.5,123.7 128.4,123.7 L116.4,128.7 C116.2,128.8 116,128.8 115.8,128.8 C115.4,128.8 114.9,128.6 114.6,128.3 C114.2,127.8 114.1,127.1 114.5,126.5 L122,115.4 C122.1,115.2 122.3,115.1 122.4,115 C121.1,113.7 119.6,112.6 118,111.7 C118,112 117.9,112.2 117.7,112.4 L109.7,123.2 C109.4,123.6 109,123.8 108.5,123.8 C108.3,123.8 108.2,123.8 108,123.7 C107.4,123.5 107,122.9 107,122.3 L107,108.3 C107,108.2 107,108.1 107,108 C106.2,107.9 105.3,107.9 104.5,107.9 C103.6,107.9 102.8,107.9 101.9,108 C101.9,108.1 101.9,108.2 101.9,108.2 L101.9,122.2 C101.9,122.8 101.5,123.4 100.9,123.6 C100.7,123.7 100.6,123.7 100.4,123.7 C99.9,123.7 99.5,123.5 99.2,123.1 L91.2,112.3 C91,112.1 91,111.9 90.9,111.6 C89.3,112.6 87.9,113.7 86.5,114.9 C86.6,115 86.8,115.1 86.9,115.3 L94.4,126.4 C94.8,126.9 94.7,127.7 94.3,128.2 C94,128.6 93.6,128.7 93.1,128.7 C92.9,128.7 92.7,128.7 92.5,128.6 L80.5,123.6 C80.4,123.6 80.4,123.5 80.3,123.5 C79.6,125.1 79.1,126.8 78.7,128.6 C78.7,128.6 78.7,128.6 78.7,128.6 L91.6,132.5 C92.2,132.7 92.7,133.3 92.7,133.9 C92.7,134.6 92.3,135.1 91.6,135.3 L79.3,139 C79.2,139 79,139.1 78.9,139.1 C78.9,139.1 78.9,139.1 78.9,139.1 C79.3,140.9 79.8,142.7 80.6,144.4 C80.7,144.4 80.7,144.3 80.8,144.3 L92.8,139.3 C93.4,139 94.1,139.2 94.5,139.7 C94.9,140.2 95,140.9 94.6,141.5 L87,152.5 C86.9,152.7 86.8,152.8 86.6,152.9 C87.9,154.2 89.4,155.3 90.9,156.2 C90.9,156 91,155.7 91.2,155.5 L99.2,144.7 C99.6,144.2 100.3,144 100.9,144.2 C101.5,144.4 101.9,145 101.9,145.6 L101.9,159.6 C101.9,159.7 101.9,159.7 101.9,159.8 C102.7,159.9 103.6,160 104.5,160 Z M127,147 C127,147 127,147 127,147 L119.6,143.9 L124.3,150.8 C125.4,149.6 126.3,148.3 127,147 Z M115.3,157.3 L110,150.2 L110,159.4 C111.9,159 113.7,158.4 115.5,157.6 C115.4,157.5 115.3,157.4 115.3,157.3 Z M104.5,140.1 C101.1,140.1 98.3,137.3 98.3,133.9 C98.3,130.5 101.1,127.7 104.5,127.7 C107.9,127.7 110.7,130.5 110.7,133.9 C110.7,137.3 107.9,140.1 104.5,140.1 Z M107.7,133.9 C107.7,132.1 106.2,130.7 104.5,130.7 C102.8,130.7 101.3,132.2 101.3,133.9 C101.3,135.6 102.8,137.1 104.5,137.1 C106.2,137.1 107.7,135.7 107.7,133.9 Z" id="Shape"></path>
        </g>
    </g>
</svg>
