<?xml version="1.0" ?><!DOCTYPE svg  PUBLIC '-//W3C//DTD SVG 1.1//EN'  'http://www.w3.org/Graphics/SVG/1.1/DTD/svg11.dtd'><svg enable-background="new 0 0 558.7 204" id="Layer_1" version="1.1" viewBox="0 0 558.7 204" xml:space="preserve" xmlns="http://www.w3.org/2000/svg" xmlns:xlink="http://www.w3.org/1999/xlink"><path d="M553.2,117.1c-0.8,0-3-3-4.4-6.9v-7.6c0-0.4-0.1-0.7-0.4-1l-1.6-1.7V82.5h2.1c0.8,0,1.4-0.6,1.5-1.3  c0.1-0.7-0.3-1.3-0.9-1.6c-0.3-0.5-0.4-2.3-0.5-3.3c-0.1-1.1-0.2-2.1-0.4-2.9c-0.5-2.2-4.5-10.4-5.2-11.9  c-2.5-11.2-18-42.6-18.1-42.9c-0.5-0.9-0.1-1.9,0.6-3.5c0.5-1.3,1.1-2.6,0.9-4c-0.2-1.4-0.4-3.8-29.2-2.7  c-8.7-8.2-37.5-8.2-73.5-8.3c-7,0-14.3,0-21.6-0.1c-45-0.4-82.9,1.8-114.1,4c-14.5,1-23.7,4-29.5,6.9c0,0,0,0-0.1,0  c-0.4,0-4.1-0.1-21,3.6c-18.5,4-53,25.4-66,33.5l-1.4,0.8c-10.7,6.6-27.7,17.2-30.2,18.8c-1.7,0.1-8.6,0.6-14.5,0.7  c-6,0.1-43.6,6-65.5,10.2C35.6,83,21.3,85.8,14.9,88.8c-5.1,2.4-7.8,7.5-7.9,7.7c-0.2,0.5-0.2,1,0,1.4c0.3,0.4,0.7,0.7,1.2,0.7  l2.7,0.1l-0.7,1.7l-2.8-0.6c-0.8-0.2-1.5,0.3-1.7,1.1l-5.3,20.5c-0.1,0.4,0,0.9,0.3,1.3s0.7,0.6,1.2,0.6h2.8  c-1.9,1.5-3.7,2.1-3.7,2.1c-0.6,0.2-1,0.8-1,1.4l0,16.7c-0.1,1.1-0.6,10.2,9.2,17.8c9.9,7.7,31,10.9,31.9,11.1c0.1,0,0.1,0,0.2,0  c0.4,0,0.7-0.1,1-0.4c0.3-0.3,0.5-0.7,0.5-1.2c0-0.1,0-2.6,0.3-6.5h9c1.4,22.1,19.8,39.6,42.3,39.6s40.9-17.5,42.3-39.6h11.3  c0.3,2.7,0.3,4.4,0.3,4.4c0,0.8,0.7,1.5,1.5,1.5h229.1c0.8,0,1.5-0.7,1.5-1.5c0,0,0-1.7,0.2-4.4h9.5c1.4,22.1,19.8,39.6,42.3,39.6  s40.9-17.5,42.3-39.6h9.9c0.1,1.7,0.2,2.7,0.2,2.7c0,0.4,0.2,0.8,0.5,1.1c0.3,0.3,0.7,0.4,1.1,0.4c22.5-0.8,41.1-3.5,55.1-8.2  c10.3-3.4,17.2-13,17.2-23.9v-13C558.7,119.6,556.5,117.1,553.2,117.1z M553.9,145.3l-4.2,1.4c-1.6,0.5-2.9,1.5-3.9,2.9l-5.6,8.1  c-1.7,0.6-3.5,1.1-5.4,1.6c3.1-2.8,6.7-6.7,8.9-10.9c1.8-3.4,5.1-5.8,8.9-6.2l2.5-0.3C554.7,143.1,554.3,144.2,553.9,145.3z   M538.8,100.7l-24.7,1.4l-2-4l26.2-1.5L538.8,100.7z M432.1,105.9c-28.3,0-41.7,17.2-47.9,31.6c-2.6,6-4.2,11.9-5.2,17l-7.7,0.2  c0.6-5.3,4.4-28.6,22.4-44.6c6.7-5.9,10.7-11.5,13.1-16.4l98.3-6.3c-0.2,1.4-0.1,2.8,0.6,4.1l6.1,12.4c-1,0.4-3.5,1-9.8,1.3  c-11.6,0.5-45.1,2.5-52.7,3C444.2,106.8,438.5,105.9,432.1,105.9z M144.2,137.7c-4.2-9.2-11.4-19.5-23.7-25.7l37.7-2.4  c-0.1,21.2,4.1,45.4,5.1,51.1l-12.6,0.4C149.9,155.1,148.2,146.4,144.2,137.7z M69.1,112.2H46.6c2.8-1.2,5.5-2.7,7.9-4.5  c11-8,10.7-9.6,10.6-10.6c-0.1-0.6-0.4-1-0.9-1.3L62,94.5l99.2-8.9c-2,5.8-2.9,13.6-3,22l-41.6,2.6c-6.1-2.4-13.3-3.9-21.8-3.9  C85,106.4,76.4,108.3,69.1,112.2z M37.7,96.2l14.5-3.8c0,0,0.1,0,0.1,0c0.1,0,0.2,0,0.2,0.1c0,0,0.1,0,0.1,0.1l2.7,1.6l-9.5,2  c-3.9,0.8-7.5,1.6-11.1,4.2c-0.4,0.3-0.7,0.5-1.1,0.8c-4.2,3.3-7.2,7-9.1,11.4l-1.3,2.9c-0.1,0-0.1,0-0.2,0  c-0.6,0.1-1.2,0.2-1.7,0.3l4.4-9.5C28,101.3,32.4,97.6,37.7,96.2z M260.4,17.7C260.4,17.7,260.4,17.7,260.4,17.7  c9.9-1.4,29.1-3.7,56.4-4.7c38.1-1.4,164.2-1.5,184.3-1.5c1.6,2,5.6,7.5,9.3,15.2c3.6,7.3,12,26.3,16.1,35.6l-12.6,1  c-0.5,0-1,0.5-0.9,1.1c0,0.5,0.5,0.9,1,0.9c0,0,0.1,0,0.1,0l13.3-1.1c0.4,0.9,0.7,1.6,1,2.2l-20.9,17.2c-0.7,0.6-1.2,1.2-1.6,2  l-98.1,6.2c3.7-8.9,2-15.1,1.7-16l-1.3-8c40.4-2.4,72.7-4.2,81.6-4.6c2.2-0.1,4.1-1.4,5.1-3.4c1-2,0.8-4.3-0.5-6.1  c-10.5-14.5-23.7-32.4-26.9-34.8c-2.9-2.2-49.7-3.7-91.7-3.8c-27.4-0.1-93.4,0.4-116.4,6.4c-18.3,4.8-39,14.3-58.2,26.7  c-10.7,6.9-20.2,14.2-27.3,21h-11.8c0.2-0.1,0.4-0.3,0.7-0.5c11.8-8.1,47.6-32.6,67.2-41.3C242.8,21.5,249.3,19.4,260.4,17.7z   M410.7,6.2v2.4c-6.7,0-13.4,0.1-20.1,0.1V6.1C397.2,6.1,404,6.2,410.7,6.2z M422.7,6.4c12.1,0.2,23.5,0.4,31.8,0.3  c10.5-0.1,16.1,0.8,19,1.8c-16.7,0-38.4,0.1-60.8,0.2V6.3C416,6.3,419.4,6.4,422.7,6.4z M388.6,8.8c-29.7,0.2-57.3,0.6-72,1.1  c-16.2,0.6-29.6,1.7-39.9,2.7c10.7-4.1,36.2-4.7,57.4-5.2c8.2-0.2,15.9-0.4,22.2-0.8c9-0.5,20.3-0.7,32.3-0.6V8.8z M522.5,20  c0.3,0.6,0.7,1.5,1.3,2.6c-0.9,0.4-1.7,1-2.3,1.9c-1,1.5-1.1,3.3-0.4,4.9l11.2,26.2c0.8,1.9,2.7,3.2,4.8,3.2c0.1,0,0.2,0,0.3,0  l2-0.1c0.3,0.9,0.5,1.7,0.7,2.4L528.6,62c-4-9-12.8-28.7-16.4-36.3c-0.6-1.1-1.1-2.2-1.7-3.3l12.1-7.3C522,16.6,521.7,18.3,522.5,20  z M538.4,55.7l-1.2,0.1c-0.9,0.1-1.8-0.5-2.2-1.3l-11.2-26.2c-0.3-0.7-0.2-1.5,0.2-2.1c0.3-0.4,0.6-0.7,1.1-0.8  C528.8,33.1,535,46.6,538.4,55.7z M510.2,94.1l27.6-1.5l0.2,1.9l-26.9,1.5L510.2,94.1z M509.3,92.2l-0.9-1.8  c-0.8-1.5-0.4-3.4,0.9-4.5L514,82l22.6-1l1.1,9.7L509.3,92.2z M518.7,78l17.4-1c0,0,0,0.1,0,0.1l0.2,1.8l-19.8,0.9L518.7,78z   M535.5,75.1l-14.1,0.8l8.3-6.8l3.7,3.6c0.1,0.1,0.1,0.1,0.2,0.2C534.4,73.4,535,74.2,535.5,75.1z M283.3,148.4l-119.4,3.7  c-1.6-10.3-3.8-27.4-3.7-42.6l122.7-7.8c-0.5,4.1-0.9,7.2-1,8.8C281.3,118.2,281.3,136.1,283.3,148.4z M160.2,107.5  c0.1-8.6,1-16.5,3.2-22l19.9-1.8c1.1,0.3,2.3,0.5,3.8,0.5c0.6,0,1.3,0,2.1-0.1c2.4-0.2,4.6-0.9,6.4-2c12.9-1.6,48.7-4.2,91.2-7  c-1.4,9.3-2.6,18-3.5,24.6L160.2,107.5z M259.7,23.3c7.4-2,20-3.4,35.5-4.4c-0.8,5-4.8,30.9-8.2,54.1c-41.3,2.7-76.1,5.2-88.7,6.8  c0.1-0.1,0.2-0.2,0.3-0.4c0.5-0.6,0.9-1.3,1.2-2c0,0,0.1,0,0.1,0l78.7-7.2c0.7-0.1,1.2-0.6,1.3-1.2l8.6-44.1c0.1-0.4,0-0.9-0.3-1.2  c-0.3-0.3-0.7-0.6-1.1-0.6c-0.6,0-14.2-0.4-33.2,5c-19.3,5.4-56.5,28.8-58.1,29.8l-8.4,5.9c0,0,0,0-0.1,0c-8.1,1.7-10,12.1-10,12.5  c0,0.2,0,0.3,0,0.5c0.5,1.8,1.3,3.7,2.9,5.1l-15.9,1.4c0.3-0.6,0.6-1.2,1-1.7C181.8,56.9,232.3,30.6,259.7,23.3z M398,17.1l7.7,48.7  c-36.5,2.1-79.2,4.7-116.7,7.1c3.6-24,7.7-50.9,8.2-54.1C326.4,17,365.1,16.7,398,17.1z M400.1,17.1c35.2,0.5,63.5,1.9,66.1,3.3  c2.3,1.7,11.9,14.2,26.4,34.3c0.9,1.2,1,2.7,0.4,4c-0.6,1.3-1.9,2.2-3.4,2.3c-8.9,0.5-41.4,2.3-81.8,4.6L400.1,17.1z M179.3,76.5  c0.3-1.4,2.2-9.4,8.4-10.7c1.9-0.4,3.4-0.6,4.7-0.6c3.4,0,5.2,1.3,6,4.6l-11.2,0.8c-0.6,0-1,0.5-0.9,1.1c0,0.5,0.5,0.9,1,0.9  c0,0,0,0,0.1,0l11.4-0.8c0,0.5,0.1,1,0.1,1.4l-9.9,0.8c-0.6,0-1,0.5-0.9,1.1c0,0.5,0.5,0.9,1,0.9c0,0,0.1,0,0.1,0l9.5-0.7  c-0.1,0.2-0.1,0.4-0.2,0.6c-0.3,0.8-0.7,1.6-1.3,2.3c-1.7,2.2-4.6,3.5-8.1,3.9c-0.7,0.1-1.3,0.1-1.9,0.1  C182.2,82.2,180.4,79.9,179.3,76.5z M200.7,71.2c-0.6-5.1-3-7.6-7.2-8l4.1-2.9c0.4-0.2,38.4-24.1,57.3-29.4  c14.6-4.1,26.2-4.8,30.5-4.8l-8.1,41.2l-76.5,7C200.8,73.4,200.8,72.3,200.7,71.2z M288.7,75c37.9-2.5,80.7-5,117.4-7.2l1.3,8.3  c0,0.1,0,0.1,0,0.2c0,0.1,2.2,6.3-2,15.6l-120.2,7.6C286.1,92.9,287.4,84.2,288.7,75z M158.9,71.1h12.8c-3.4,3.4-6.1,6.6-8,9.5  c-0.6,0.9-1.1,1.9-1.6,3L59.2,92.9l-3.9-2.2c9.3-2.1,33.5-7.4,52.1-9.8C130.7,77.9,152.9,74.7,158.9,71.1z M26.3,113.4  c1.8-4.2,4.5-7.6,8.5-10.7c0.3-0.3,0.7-0.5,1-0.8c3.3-2.4,6.6-3.1,10.3-3.9l11.7-2.5l3.8,2.2c-0.8,1-3,3.1-9,7.5  c-8.3,6.1-19.8,8.5-27.2,9.8L26.3,113.4z M165.3,160.6c-0.2-1.1-0.6-3.4-1.1-6.5l119.4-3.7c0.5,2.7,1.1,5,1.8,6.8L165.3,160.6z   M287.5,157.1c-0.7-1.7-1.4-4-1.9-6.8l73.7-2.3c0.6,0,1-0.5,1-1c0-0.6-0.5-1-1-1l-74,2.3c-1.8-11.6-2.1-29-1.4-37.7  c0.1-1.6,0.5-4.8,1.1-9.1L404.4,94c-2.3,4.4-6.1,9.4-12.1,14.7c-18.8,16.7-22.5,41.2-23.1,46.1L287.5,157.1z M542,102.2  c0-0.1,0-0.2,0-0.3l-2.9-25.1c-0.1-0.7-0.2-1.4-0.5-2h7.1c0.1,0.5,0.1,1.2,0.2,1.8c0.1,1,0.2,2,0.4,2.9h-1c-0.8,0-1.5,0.7-1.5,1.5  v19.5c0,0.4,0.1,0.7,0.4,1l1.6,1.7v3.3C544.4,104.8,542.9,103.2,542,102.2z M545.2,72.8h-7.6c-0.6-0.9-1.4-1.7-2.3-2.3l-4.6-4.5  c-0.2-0.2-0.4-0.3-0.6-0.3c-0.2-0.4-0.4-1-0.8-1.7l11.3-0.9C542.2,66.1,544.2,70.4,545.2,72.8z M523.7,12c0,0,0,0.1,0,0.1l-14.2,8.6  c-2.3-4.2-4.5-7.3-5.9-9.3c0.1,0,0.2,0,0.2,0h0c0.3,0,0.6-0.1,0.8-0.2C513.3,11.1,521.5,11.3,523.7,12z M288.5,6  c31.1-2.2,69-4.4,113.9-4c7.3,0.1,14.6,0.1,21.6,0.1c32,0,60.1,0.1,70.3,6.3c-4.3,0-10,0-16.7,0c-2-1.8-7.6-3.9-23.2-3.8  c-8.2,0.1-19.6-0.1-31.7-0.3c-10.8-0.2-22.2-0.3-33.1-0.4c0,0,0,0,0,0c0,0,0,0,0,0c-12.4,0-24.1,0.1-33.4,0.6  c-6.3,0.4-14,0.6-22.2,0.8c-30.9,0.8-55.3,1.9-62.4,7.8c-7.7,0.9-13.2,1.7-16.4,2.2c0.9-0.7,2-1.4,3.4-2.1  C263.6,10.6,272.8,7.2,288.5,6z M238.4,17.4c8.7-1.9,12.9-2.7,14.9-3c-2,1.6-2.9,2.8-3.2,3.2c-5,1.2-9.7,2.9-15.9,5.5l-8-1.7  C230.8,19.6,234.9,18.2,238.4,17.4z M172,51.3l1.4-0.8c9.8-6.1,31.8-19.7,49.7-27.7l8,1.7c-0.7,0.3-1.4,0.6-2.2,1  c-19.8,8.9-55.7,33.4-67.5,41.5c-1.4,1-2.4,1.7-3.1,2.1l-14.4-0.3C149.4,65.4,162.9,56.9,172,51.3z M16.2,91.5  c6.1-2.8,20.2-5.5,44.6-10.1c23.2-4.4,59.7-10.1,65-10.1c5-0.1,10.8-0.4,13.5-0.6c0.1,0,0.2,0.1,0.3,0.1L154,71  c-9,2.8-28.3,5.5-46.8,7.9c-21.9,2.8-51.4,9.6-55.6,10.6c-0.1,0-0.1,0-0.2,0l-14.5,3.8c-4,1.1-7.6,3.3-10.3,6.3H19  c0.3-0.9,0.5-1.5,0.5-1.6c0.2-0.4,0.1-0.9-0.2-1.3c-0.3-0.4-0.7-0.6-1.2-0.6l-7.1-0.3C12.2,94.3,13.9,92.5,16.2,91.5z M13.1,98.8  l2.9,0.1c-0.7,2-1.9,5.5-3.1,9l1.1-5.2c0.1-0.4,0-0.8-0.2-1.1c-0.2-0.3-0.6-0.6-1-0.6l-0.5-0.1L13.1,98.8z M9.9,110.9  c0.3,0.3,0.7,0.5,1.1,0.4l0.4,0l-0.8,2.2l-1.5,0c-0.2,0-0.5,0.1-0.7,0.2l-1.9-1.2L9.9,110.9z M8.3,103.1l2.4,0.5l-1.1,5.2l-3.2,1.5  L8.3,103.1z M5.5,114.2l2,1.2l-1.3,4.9H3.9L5.5,114.2z M9.3,130.6c0.1,0,0.2,0.1,0.3,0.2c0.1,0.1,0.2,0.2,0.1,0.5l-0.1,0.4L3,135.4  l0-1.1L9.3,130.6z M8.7,135.7L3,138.9l0-1.2l6-3.5L8.7,135.7z M8.2,138.3l-0.5,2.4c-0.1,0.3-0.3,0.4-0.6,0.4H3.2L8.2,138.3z M3,132  l0-1.4h2.4L3,132z M5,151.9l6.3,0.8c0.1,0,0.1,0,0.2,0c0.6,0,1.3,0.6,1.7,1.5c1.3,3.4,3.4,6.5,5.3,8.9c-2.8-1.2-5.4-2.6-7.4-4.1  C8,156.6,6.2,154.2,5,151.9z M24.4,165.4c-0.4-0.4-1.4-1.4-2.5-2.7l11.9,3c0.1,0,0.2,0,0.2,0c0.4,0,0.9-0.3,1-0.8  c0.1-0.5-0.2-1.1-0.7-1.2l-14.5-3.7c-1.5-2-3-4.4-4-6.9c-0.8-2.1-2.5-3.4-4.3-3.4l-7.9-1C2.8,146,3,144,3,143.9c0-0.1,0-0.1,0-0.2  l0-0.5h4.1c1.2,0,2.3-0.9,2.5-2l2-9.5c0.2-0.8,0-1.5-0.5-2.1c-0.5-0.6-1.2-1-2-1H3l0-0.7c2-1,6.6-3.6,8.8-8.7  c1.8-4.2,4.8-12.8,6.5-17.7H25c-0.8,1.1-1.4,2.2-2,3.4l-5.5,11.8c-3.9,1.9-5.6,6.3-5.7,6.5c-0.3,0.8,0.1,1.6,0.9,1.9  c0.2,0.1,0.4,0.1,0.5,0.1c0.6,0,1.2-0.4,1.4-1c0,0,1.4-3.7,4.5-4.9c0,0,0.1,0,0.1,0c0.2-0.1,0.4-0.1,0.6-0.2c0.8-0.2,2-0.4,3.7-0.7  c4.4-0.7,11.2-1.9,18-4.2h24.2c-2.8,1.8-5.4,3.9-7.8,6.4c-16.1,16.4-17.8,41.6-18,48.5C37,168.7,30.7,167.4,24.4,165.4z M94.5,201  c-21.7,0-39.4-17.7-39.4-39.4c0-21.7,17.7-39.4,39.4-39.4s39.4,17.7,39.4,39.4C133.9,183.4,116.2,201,94.5,201z M136.9,161.4  c-0.1-23.3-19.1-42.1-42.4-42.1s-42.2,18.9-42.4,42.1h-8.6c1.3-10.4,5.1-27.1,16.5-38.7c8.7-8.9,20.4-13.3,34.7-13.3  c22,0,37.7,9.9,46.7,29.5c3.8,8.3,5.5,16.7,6.3,22.5H136.9z M151.3,167.3c0-1-0.2-2.5-0.3-4.3l227.7-6.5c-0.8,4.9-1.1,8.8-1.2,10.8  H151.3z M432.5,201c-21.7,0-39.4-17.7-39.4-39.4c0-21.7,17.7-39.4,39.4-39.4s39.4,17.7,39.4,39.4C471.8,183.4,454.2,201,432.5,201z   M474.8,161.4c-0.1-23.3-19.1-42.1-42.4-42.1s-42.2,18.9-42.4,42.1H381c0.7-5.8,2.3-14.3,6-22.7c8.6-19.8,23.8-29.8,45.1-29.8  c21.4,0,36.7,9.7,45.7,28.9c4.2,8.9,5.9,18,6.6,23.6H474.8z M486.6,156.4l41.2-2.6c0.6,0,1-0.5,0.9-1.1s-0.5-1-1.1-0.9l-41.5,2.6  c-1.1-5.2-2.8-11.4-5.7-17.8C476,126.9,468,115.8,454,110c12-0.7,38-2.3,48-2.7c8.3-0.3,10.9-1.3,11.8-2.3l26.7-1.5  c1.5,1.6,4,4.4,5.3,6.3v0.6c0,0.2,0,0.4,0.1,0.5c0.8,2.1,3.7,9.1,7.3,9.1c2,0,2.5,1.8,2.5,3.4v13c0,0.8-0.1,1.5-0.1,2.3l-3.4,0.4  c-4.8,0.6-9.1,3.5-11.3,7.9c-3.4,6.6-11.4,12.8-12.8,13.8c-11.4,2.5-24.9,4-40.3,4.6C487.7,163.7,487.4,160.5,486.6,156.4z   M543.5,156.3l3.9-5.5c0.7-1,1.7-1.7,2.8-2.1l2.3-0.8C550.4,151.4,547.3,154.4,543.5,156.3z M303.7,22.3c-0.7,0-1.3,0.6-1.4,1.3  l-4.4,43.2c0,0.4,0.1,0.9,0.4,1.2c0.3,0.3,0.7,0.5,1.1,0.5c0,0,0.1,0,0.1,0l97.9-5.8c0.4,0,0.8-0.2,1.1-0.5c0.3-0.3,0.4-0.7,0.3-1.2  l-5.7-39.2c-0.1-0.7-0.7-1.3-1.4-1.3c-0.1,0-8.4-0.3-21.8-0.3C354.3,20.2,330.2,20.6,303.7,22.3z M395.5,59.8l-94.5,5.6l4.1-40.2  c25.9-1.6,49.4-2,64.6-2c10.3,0,17.7,0.2,20.5,0.2L395.5,59.8z M469.9,32.1c-4.7-6.7-15.9-10.5-23.9-10.6l-38.7-0.8  c-0.5,0-0.9,0.2-1.2,0.6c-0.3,0.4-0.4,0.8-0.3,1.3l8.8,37.3c0.2,0.7,0.8,1.2,1.5,1.2c0,0,0,0,0.1,0l61.9-2.5c2-0.1,3.8-1.2,4.7-3  c0.9-1.8,0.7-3.9-0.4-5.6L469.9,32.1z M480,54.1c-0.4,0.8-1.2,1.3-2.1,1.4l-60.7,2.5l-8.1-34.3l36.8,0.8c7.4,0.1,17.5,3.6,21.5,9.3  l12.4,17.7C480.3,52.3,480.4,53.2,480,54.1z M33.9,127.7H19.4c-0.6,0-1,0.4-1,1s0.4,1,1,1h1.7l-2.4,12.6c-0.9-0.2-1.6-0.3-1.6-0.3  c-0.5-0.1-1.1,0.2-1.2,0.7c-0.1,0.5,0.2,1.1,0.7,1.2c0.2,0.1,2.6,0.7,5.5,0.7c3.2,0,7-0.9,8.4-4.4c2-5,4.2-11,4.2-11.1  c0.1-0.3,0.1-0.6-0.1-0.9C34.5,127.8,34.2,127.7,33.9,127.7z M32.4,129.7c-0.2,0.4-0.3,0.9-0.5,1.5c-0.1,0-0.2-0.1-0.3-0.1h-8.7  l0.3-1.4H32.4z M30.5,134.8c-0.1,0-0.2,0-0.2,0h-8l0.3-1.7h8.6C31,133.6,30.7,134.2,30.5,134.8z M29,138.6c-0.1,0-0.1,0-0.2,0h-7.3  l0.3-1.7h7.9C29.5,137.4,29.3,138,29,138.6z M20.8,142.5l0.4-2H28C26.4,142.5,23.3,142.7,20.8,142.5z M94.5,129.2  c-17.9,0-32.5,14.6-32.5,32.5c0,17.9,14.6,32.5,32.5,32.5s32.5-14.6,32.5-32.5C127,143.7,112.4,129.2,94.5,129.2z M94.5,191.1  c-16.3,0-29.5-13.2-29.5-29.5c0-16.3,13.2-29.5,29.5-29.5s29.5,13.2,29.5,29.5C124,177.9,110.8,191.1,94.5,191.1z M98.4,171  c-0.3-0.6-1-0.8-1.6-0.7c-1.5,0.4-2.9,0.3-4.3-0.1c-0.7-0.2-1.4,0.1-1.7,0.7l-7.9,13c-0.2,0.4-0.3,0.8-0.2,1.2s0.4,0.7,0.8,0.9  c3.5,1.6,7.2,2.4,11.1,2.4c3.9,0,7.6-0.8,11.1-2.4c0.4-0.2,0.7-0.5,0.8-0.9s0.1-0.9-0.2-1.2L98.4,171z M86.3,183.9l6.5-10.6  c1.2,0.2,2.4,0.3,3.6,0.1l6.5,10.5C97.6,185.9,91.6,185.9,86.3,183.9z M99,135.3c-0.4-0.1-0.8,0-1.2,0.3c-0.3,0.3-0.5,0.7-0.6,1.1  l-1.2,16.6c0,0.7,0.4,1.3,1.1,1.5c1.8,0.5,3.3,1.7,4.4,3.2c0.3,0.4,0.8,0.7,1.2,0.7c0.2,0,0.4,0,0.5-0.1l14.9-5.6  c0.4-0.1,0.7-0.4,0.9-0.8c0.2-0.4,0.2-0.8,0-1.2C115.4,142.6,107.9,136.8,99,135.3z M103.3,155.4c-1.1-1.3-2.5-2.4-4.1-3.1l1-13.7  c6.7,1.6,12.3,6,15.5,12.1L103.3,155.4z M102.8,163.3c-0.1,1.5-0.7,2.9-1.6,4.1c-0.4,0.6-0.4,1.4,0.1,1.9l10.3,11  c0.3,0.3,0.7,0.5,1.1,0.5c0,0,0,0,0,0c0.4,0,0.8-0.2,1.1-0.5c4.9-5,7.5-11.6,7.5-18.6c0-0.2,0-0.4,0-0.6l0-0.2  c0-0.4-0.2-0.8-0.5-1.1s-0.8-0.4-1.2-0.3l-15.5,2.5C103.4,162.1,102.9,162.6,102.8,163.3z M105.6,164.7l12.7-2.1  c-0.2,5.3-2.2,10.3-5.6,14.3l-8.4-8.9C104.9,167.1,105.4,165.9,105.6,164.7z M70.9,153l15.4,5.8c0.2,0.1,0.4,0.1,0.5,0.1  c0.5,0,1-0.2,1.3-0.7c0.9-1.4,2.2-2.5,3.7-3.1c0.6-0.3,1-0.9,0.9-1.6l-2.4-16.6c-0.1-0.4-0.3-0.8-0.6-1c-0.3-0.2-0.8-0.3-1.2-0.2  c-8.2,1.9-15.1,7.6-18.4,15.3c-0.2,0.4-0.2,0.8,0,1.2C70.2,152.5,70.5,152.8,70.9,153z M87.5,139l2,13.8c-1.3,0.7-2.4,1.6-3.3,2.7  l-12.8-4.8C76.4,145.1,81.5,140.8,87.5,139z M88.2,167.1c-0.8-1.1-1.3-2.4-1.4-3.7c-0.1-0.7-0.6-1.2-1.3-1.3l-16-2.4  c-0.4-0.1-0.9,0.1-1.2,0.3c-0.3,0.3-0.5,0.7-0.5,1.1l0,0.2c0,0.1,0,0.3,0,0.4c0,7,2.7,13.7,7.6,18.7c0.3,0.3,0.7,0.5,1.1,0.5  c0,0,0,0,0,0c0.4,0,0.8-0.2,1.1-0.5L88.1,169C88.5,168.5,88.6,167.7,88.2,167.1z M76.5,177.1c-3.4-4-5.4-9-5.7-14.3l13.2,2  c0.2,1,0.6,2,1.1,2.9L76.5,177.1z M89.3,162.2c0,2.9,2.4,5.2,5.2,5.2s5.2-2.4,5.2-5.2s-2.4-5.2-5.2-5.2S89.3,159.3,89.3,162.2z   M94.6,160c1.2,0,2.2,1,2.2,2.2s-1,2.2-2.2,2.2s-2.2-1-2.2-2.2S93.3,160,94.6,160z M432.5,129.2c-17.9,0-32.5,14.6-32.5,32.5  c0,17.9,14.6,32.5,32.5,32.5s32.5-14.6,32.5-32.5C464.9,143.7,450.4,129.2,432.5,129.2z M432.5,191.1c-16.3,0-29.5-13.2-29.5-29.5  c0-16.3,13.2-29.5,29.5-29.5s29.5,13.2,29.5,29.5C461.9,177.9,448.7,191.1,432.5,191.1z M436.3,171c-0.3-0.6-1-0.8-1.6-0.7  c-1.5,0.4-2.9,0.3-4.3-0.1c-0.7-0.2-1.4,0.1-1.7,0.7l-7.9,13c-0.2,0.4-0.3,0.8-0.2,1.2s0.4,0.7,0.8,0.9c3.5,1.6,7.2,2.4,11.1,2.4  c3.9,0,7.6-0.8,11.1-2.4c0.4-0.2,0.7-0.5,0.8-0.9s0.1-0.9-0.2-1.2L436.3,171z M424.2,183.9l6.5-10.6c1.2,0.2,2.4,0.3,3.6,0.1  l6.5,10.5C435.5,185.9,429.5,185.9,424.2,183.9z M436.9,135.3c-0.4-0.1-0.8,0-1.2,0.3c-0.3,0.3-0.5,0.7-0.6,1.1l-1.2,16.6  c0,0.7,0.4,1.3,1.1,1.5c1.8,0.5,3.3,1.7,4.4,3.2c0.3,0.4,0.8,0.7,1.2,0.7c0.2,0,0.4,0,0.5-0.1l14.9-5.6c0.4-0.1,0.7-0.4,0.9-0.8  c0.2-0.4,0.2-0.8,0-1.2C453.3,142.6,445.8,136.8,436.9,135.3z M441.2,155.4c-1.1-1.3-2.5-2.4-4.1-3.1l1-13.7  c6.7,1.6,12.3,6,15.5,12.1L441.2,155.4z M440.7,163.3c-0.1,1.5-0.7,2.9-1.6,4.1c-0.4,0.6-0.4,1.4,0.1,1.9l10.3,11  c0.3,0.3,0.7,0.5,1.1,0.5c0,0,0,0,0,0c0.4,0,0.8-0.2,1.1-0.5c4.9-5,7.5-11.6,7.5-18.6c0-0.2,0-0.4,0-0.6l0-0.2  c0-0.4-0.2-0.8-0.5-1.1c-0.3-0.3-0.8-0.4-1.2-0.3L442,162C441.3,162.1,440.8,162.6,440.7,163.3z M443.5,164.7l12.7-2.1  C456,168,454,173,450.6,177l-8.4-8.9C442.9,167.1,443.3,165.9,443.5,164.7z M408.8,153l15.4,5.8c0.2,0.1,0.4,0.1,0.5,0.1  c0.5,0,1-0.2,1.3-0.7c0.9-1.4,2.2-2.5,3.7-3.1c0.6-0.3,1-0.9,0.9-1.6l-2.4-16.6c-0.1-0.4-0.3-0.8-0.6-1c-0.3-0.2-0.8-0.3-1.2-0.2  c-8.2,1.9-15.1,7.6-18.4,15.3c-0.2,0.4-0.2,0.8,0,1.2C408.1,152.5,408.4,152.8,408.8,153z M425.5,139l2,13.8  c-1.3,0.7-2.4,1.6-3.3,2.7l-12.8-4.8C414.3,145.1,419.4,140.8,425.5,139z M426.1,167.1c-0.8-1.1-1.3-2.4-1.4-3.7  c-0.1-0.7-0.6-1.2-1.3-1.3l-16-2.4c-0.4-0.1-0.9,0.1-1.2,0.3c-0.3,0.3-0.5,0.7-0.5,1.1l0,0.2c0,0.1,0,0.3,0,0.4  c0,7,2.7,13.7,7.6,18.7c0.3,0.3,0.7,0.5,1.1,0.5c0,0,0,0,0,0c0.4,0,0.8-0.2,1.1-0.5L426,169C426.5,168.5,426.5,167.7,426.1,167.1z   M414.4,177.1c-3.4-4-5.4-9-5.7-14.3l13.2,2c0.2,1,0.6,2,1.1,2.9L414.4,177.1z M427.3,162.2c0,2.9,2.4,5.2,5.2,5.2s5.2-2.4,5.2-5.2  s-2.4-5.2-5.2-5.2S427.3,159.3,427.3,162.2z M432.5,160c1.2,0,2.2,1,2.2,2.2s-1,2.2-2.2,2.2s-2.2-1-2.2-2.2S431.3,160,432.5,160z   M244,51.6c-0.2-0.5,0-1.1,0.5-1.3l10.7-4.8c0.5-0.2,1.1,0,1.3,0.5c0.2,0.5,0,1.1-0.5,1.3l-10.7,4.8c-0.1,0.1-0.3,0.1-0.4,0.1  C244.5,52.2,244.1,52,244,51.6z M234.9,55.8c-0.2-0.5,0-1.1,0.5-1.3l6.2-2.8c0.5-0.2,1.1,0,1.3,0.5c0.2,0.5,0,1.1-0.5,1.3l-6.2,2.8  c-0.1,0.1-0.3,0.1-0.4,0.1C235.4,56.4,235.1,56.1,234.9,55.8z M241.5,56.8l22.1-9.9c0.5-0.2,1.1,0,1.3,0.5c0.2,0.5,0,1.1-0.5,1.3  l-22.1,9.9c-0.1,0.1-0.3,0.1-0.4,0.1c-0.4,0-0.7-0.2-0.9-0.6C240.8,57.6,241,57,241.5,56.8z M339.2,43.9c-0.2-0.5,0-1.1,0.5-1.3  l10.7-4.8c0.5-0.2,1.1,0,1.3,0.5c0.2,0.5,0,1.1-0.5,1.3l-10.7,4.8c-0.1,0.1-0.3,0.1-0.4,0.1C339.7,44.5,339.4,44.3,339.2,43.9z   M337.7,45.8l-6.2,2.8c-0.1,0.1-0.3,0.1-0.4,0.1c-0.4,0-0.7-0.2-0.9-0.6c-0.2-0.5,0-1.1,0.5-1.3l6.2-2.8c0.5-0.2,1.1,0,1.3,0.5  C338.4,45,338.2,45.6,337.7,45.8z M360.2,39.7c0.2,0.5,0,1.1-0.5,1.3l-22.1,9.9c-0.1,0.1-0.3,0.1-0.4,0.1c-0.4,0-0.7-0.2-0.9-0.6  c-0.2-0.5,0-1.1,0.5-1.3l22.1-9.9C359.4,39,360,39.2,360.2,39.7z M434.4,39.4c-0.2-0.5,0-1.1,0.5-1.3l10.7-4.8  c0.5-0.2,1.1,0,1.3,0.5c0.2,0.5,0,1.1-0.5,1.3l-10.7,4.8c-0.1,0.1-0.3,0.1-0.4,0.1C434.9,40,434.5,39.8,434.4,39.4z M432.8,41.3  l-6.2,2.8c-0.1,0.1-0.3,0.1-0.4,0.1c-0.4,0-0.7-0.2-0.9-0.6c-0.2-0.5,0-1.1,0.5-1.3l6.2-2.8c0.5-0.2,1.1,0,1.3,0.5  S433.3,41,432.8,41.3z M455.4,35.2c0.2,0.5,0,1.1-0.5,1.3l-22.1,9.9c-0.1,0.1-0.3,0.1-0.4,0.1c-0.4,0-0.7-0.2-0.9-0.6  c-0.2-0.5,0-1.1,0.5-1.3l22.1-9.9C454.5,34.5,455.1,34.7,455.4,35.2z M280.5,83.1c-0.1-0.2-0.3-0.4-0.6-0.5  c-0.3-0.1-8.1-2.9-20.3-0.9c-5.2,0.9-8,2.4-8.6,4.5c-0.6,2.2,1.4,3.9,1.4,4c0,0,0.1,0,0.1,0c0.1,0.1,0.2,0.1,0.3,0.1  c0.1,0,0.1,0,0.2,0c0,0,0.1,0,0.1,0c0.1,0,0.8,0,1.8,0c3.4,0,10.7-0.1,16-1c0,0,0.1,0,0.1,0c0.1,0,0.2,0,0.3-0.1  c1.8-0.3,3.3-0.7,4.3-1.2c0,0,0.1-0.1,0.1-0.1c3.8-1.7,4.8-4.2,4.8-4.3C280.6,83.7,280.6,83.4,280.5,83.1z M255,88.5  c0.8-0.9,3.1-1.2,9.4-1.8c3.8-0.3,4.9,0.5,5.2,0.8c0,0,0.1,0.1,0.1,0.1C265.2,88.3,258.9,88.5,255,88.5z M271.8,87.4  c-0.1-0.3-0.3-0.7-0.5-1c-1.1-1.4-3.4-1.9-7-1.6c-6.5,0.6-9.9,0.9-11.2,2.9c-0.1-0.3-0.2-0.6-0.1-0.9c0.2-0.6,1.2-2.1,7-3.1  c3.1-0.5,5.9-0.7,8.3-0.7c4.6,0,8,0.7,9.7,1.1C277.2,85.1,275.4,86.6,271.8,87.4z M402,76.6c-0.1-0.2-0.3-0.4-0.6-0.5  c-0.3-0.1-8.1-2.9-20.3-0.9c-5.2,0.9-8,2.4-8.6,4.5c-0.6,2.2,1.4,3.9,1.4,4c0,0,0.1,0,0.1,0c0.1,0.1,0.2,0.1,0.3,0.1  c0.1,0,0.1,0,0.2,0c0,0,0.1,0,0.1,0c0.1,0,0.8,0,1.8,0c3.4,0,10.7-0.1,15.9-1c0,0,0.1,0,0.1,0c0.1,0,0.2,0,0.3-0.1  c1.8-0.3,3.3-0.7,4.3-1.2c0,0,0.1-0.1,0.1-0.1c3.8-1.7,4.8-4.2,4.8-4.3C402.1,77.1,402.1,76.8,402,76.6z M376.5,81.9  c0.8-0.9,3.1-1.2,9.4-1.8c3.8-0.3,4.9,0.5,5.2,0.8c0,0,0.1,0.1,0.1,0.1C386.6,81.8,380.4,81.9,376.5,81.9z M393.3,80.8  c-0.1-0.3-0.3-0.7-0.5-1c-1.1-1.4-3.4-1.9-7-1.6c-6.5,0.6-9.9,0.9-11.2,2.9c-0.1-0.3-0.2-0.6-0.1-0.9c0.2-0.6,1.2-2.1,7-3.1  c3.1-0.5,5.9-0.7,8.3-0.7c4.6,0,8,0.7,9.7,1.1C398.7,78.5,396.9,80,393.3,80.8z"/></svg>