
<svg width="585px" height="174px" viewBox="0 0 585 174" version="1.1" xmlns="http://www.w3.org/2000/svg" xmlns:xlink="http://www.w3.org/1999/xlink">

    <g id="Page-1" stroke="none" stroke-width="1" fill="none" fill-rule="evenodd">
        <g id="mercedes-benz-car-06" transform="translate(335, 250) scale(-1, 1) translate(-335, -250)translate(85, 0)" fill="currentColor" fill-rule="nonzero">
            <path d="M290.4,35.9 C290.2,35.4 290.4,34.8 290.9,34.6 L301.6,29.8 C302.1,29.6 302.7,29.8 302.9,30.3 C303.1,30.8 302.9,31.4 302.4,31.6 L291.7,36.4 C291.6,36.5 291.4,36.5 291.3,36.5 C291,36.5 290.6,36.2 290.4,35.9 Z M289.4,36.4 C289.2,35.9 288.6,35.7 288.1,35.9 L281.9,38.7 C281.4,38.9 281.2,39.5 281.4,40 C281.6,40.4 281.9,40.6 282.3,40.6 C282.4,40.6 282.6,40.6 282.7,40.5 L288.9,37.7 C289.4,37.5 289.6,36.9 289.4,36.4 Z M310.1,31.1 L288,41.1 C287.5,41.3 287.3,41.9 287.5,42.4 C287.7,42.8 288,43 288.4,43 C288.5,43 288.7,43 288.8,42.9 L311,33 C311.5,32.8 311.7,32.2 311.5,31.7 C311.2,31.1 310.6,30.9 310.1,31.1 Z M366.3,35.9 C366.4,35.9 366.6,35.9 366.7,35.8 L377.4,31 C377.9,30.8 378.1,30.2 377.9,29.7 C377.7,29.2 377.1,29 376.6,29.2 L365.9,34 C365.4,34.2 365.2,34.8 365.4,35.3 C365.5,35.7 365.9,35.9 366.3,35.9 Z M356.3,39.5 C356.5,39.9 356.8,40.1 357.2,40.1 C357.3,40.1 357.5,40.1 357.6,40 L363.8,37.2 C364.3,37 364.5,36.4 364.3,35.9 C364.1,35.4 363.5,35.2 363,35.4 L356.8,38.2 C356.3,38.4 356.1,39 356.3,39.5 Z M362.4,41.8 C362.6,42.2 362.9,42.4 363.3,42.4 C363.4,42.4 363.6,42.4 363.7,42.3 L385.8,32.4 C386.3,32.2 386.5,31.6 386.3,31.1 C386.1,30.6 385.5,30.4 385,30.6 L362.9,40.5 C362.4,40.7 362.2,41.3 362.4,41.8 Z M582.4,118.2 L581.2,118.8 C582,120 582.9,121.8 583,123.3 C583,123.3 583,123.3 583,123.4 C583,123.4 583,123.5 583,123.5 C583,123.5 583,123.5 583,123.6 C583,123.7 583,123.7 583,123.8 C582.9,125.6 581.3,127.2 580,128.4 C579.7,128.7 579.3,129 579.1,129.3 L579.1,132.5 C579.1,133.1 578.7,133.7 578.1,133.9 C578,134 573.4,135.6 566,137.9 C565.9,137.9 565.9,137.9 565.8,138 C550.3,142.7 522.8,150 499,150 C498.6,150 498.2,149.8 497.9,149.5 C497.6,149.2 497.5,148.8 497.5,148.3 C497.5,148.3 497.5,148.3 497.5,148.3 L489.5,148.3 C483.6,163.2 469.1,173.7 452.1,173.7 C435.2,173.7 420.6,163.2 414.7,148.3 C414.6,148.3 414.5,148.3 414.5,148.3 L407.3,148.3 C407.5,149.1 407.7,150 407.9,150.8 C408,151.2 407.9,151.7 407.6,152.1 C407.3,152.5 406.9,152.7 406.4,152.7 L157.9,152.7 C157.5,152.7 157.1,152.5 156.8,152.2 C156.5,151.9 156.4,151.5 156.4,151.1 C156.4,151 156.5,150 156.5,148.4 L148.6,148.4 C148.5,148.4 148.4,148.4 148.3,148.4 C142.4,163.3 127.9,173.8 110.9,173.8 C94,173.8 79.5,163.3 73.5,148.4 L67.5,148.4 C67.7,149.2 67.9,150 68.2,150.8 C68.4,151.3 68.3,151.8 68,152.2 C67.7,152.6 67.3,152.8 66.8,152.8 C66.8,152.8 66.8,152.8 66.7,152.8 L26,150.5 C24.3,150.4 22.7,149.9 21.3,149.1 L3.6,145.8 C3,145.7 2.6,145.3 2.5,144.7 C2.4,144.1 2.8,143.6 3.4,143.4 L9.9,141.5 C9.5,141.4 9,141.2 8.6,141.1 L3.7,139.9 C3.1,139.7 2.6,139.2 2.6,138.5 C2.6,137.8 2.9,137.2 3.6,137 C4.9,136.5 5.9,135.5 6.4,134.2 C6.9,132.9 6.9,131.6 6.3,130.3 L4.9,127.3 C4.8,127.1 4.8,126.9 4.8,126.7 L4.8,121.8 L1.5,121.8 C0.7,121.8 0,121.1 0,120.3 L0,118 C0,117.3 0.4,116.7 1.1,116.6 C1.1,116.6 2.1,116.3 3.5,115.6 L1.8,114.8 C1.2,114.5 0.9,114 0.9,113.4 L2,95.1 C2,94.6 2.3,94.1 2.8,93.9 L7.5,91.5 L3.3,90.3 C2.8,90.1 2.3,89.7 2.2,89.1 C2.1,88.5 2.3,88 2.8,87.6 C3.6,87 23.6,72.8 78.6,62.5 C130.6,52.7 177.1,51.5 182,51.4 C187,48.2 241.2,14.1 276.8,6.3 C296,2.1 316.4,0 337.8,0 C365.4,0 394.4,3.5 424.1,10.3 C467.8,20.4 511.9,41.3 516.7,43.6 C517.6,43.5 519.4,43.3 522.1,43.3 C524.8,43.3 527.5,43.5 530.2,43.9 C532,44.2 534.4,44.6 537.2,45.2 C544.8,46.6 555.3,48.6 561.6,48.6 C563.1,48.6 564.3,48.5 565.1,48.3 C565.5,48.2 565.9,48.3 566.3,48.5 C566.7,48.7 566.9,49.1 566.9,49.5 C567.4,52.7 568.7,58.4 570.3,60.2 C573,63.2 573.8,65.7 573.9,65.8 C574,66.2 574,66.7 573.8,67 C573.6,67.3 573.4,67.5 573.1,67.6 C575.2,71.3 579.4,79.4 579.4,83.9 L579.4,89.7 C580.6,91.2 584.2,95.9 584.4,100.7 C584.6,106 583.3,116.5 583.3,116.9 C583.1,117.5 582.9,117.9 582.4,118.2 Z M492.6,107 L579.2,94.7 C578,92.7 576.8,91.3 576.7,91.3 C576.7,91.3 576.7,91.3 576.7,91.3 L572.6,91.3 C572.2,91.3 571.8,91 571.6,90.6 C571.6,90.5 570.1,85.6 567.1,79.7 C560.3,79.4 540.3,78.4 532.8,77.6 C531.1,77.4 529.4,77 527.9,76.5 C525.4,80.6 516,84.8 499.9,88.9 C491.6,91.1 483.6,92.7 479.3,93.5 C482.1,95.4 484.7,97.6 487,100.1 C489,102.3 490.6,104.6 492.1,107.1 C492.4,107.1 492.5,107.1 492.6,107 Z M110.9,86.6 L111.5,86.6 C125.3,86.6 136.4,91.1 144.5,99.8 C153.5,109.6 157.1,123 158.4,132.5 C158.7,134.3 158.8,136 159,137.6 L193.4,137.6 C192.1,129.2 186.6,90.3 188.9,71.7 C186.9,71.8 185.1,71.8 183.4,71.9 C131.2,73.1 81.4,82.2 73.4,83.8 C73,84.5 72.6,85.2 72.1,85.9 L86,92.8 C93.2,88.8 101.5,86.7 110.9,86.6 Z M24.1,101.8 C25.3,98.8 27.1,95.6 30.2,94.5 C41,90.4 58,85.4 65.6,83.2 C65.1,83.2 64.5,83.2 63.9,83.2 C57.4,83.2 45.6,84.9 26.7,93.3 C25.1,94 24,95.6 24.1,97.4 C24.1,99 24.1,100.4 24.1,101.8 Z M69.9,84 C67.2,84.8 44.3,91.2 30.9,96.3 C26.7,97.9 25.1,104.5 24.6,107.5 C34.7,104.7 61.9,95.9 69.9,84 Z M191.4,69.7 C207.5,69.1 232,67.9 261.7,66.4 C288.4,65.1 318.9,63.5 350.1,62.2 C347.9,57 345,54.2 344.6,53.8 C344.2,53.8 343.8,53.8 343.5,53.8 C320.2,54.5 242.6,57.8 239.3,58 C237.7,58.3 236.2,58.4 234.7,58.4 L231.2,61.9 C231,62.1 230.8,62.2 230.5,62.2 L217.3,62.2 C216.9,62.2 216.6,62 216.4,61.6 C216.2,61.2 216.3,60.8 216.5,60.5 L218,58.7 L197.2,60 C194.5,62.6 192.7,65 192,67.1 C191.7,67.9 191.5,68.7 191.4,69.7 Z M219.5,60.1 L230.2,60.1 L232.1,58.2 C227.4,57.8 224.7,56.3 223.5,55.4 L219.5,60.1 Z M220.5,49.8 C220.5,49.8 220.5,49.8 220.5,49.8 L215.8,52.6 L220.9,52.2 C220.6,51.4 220.4,50.6 220.5,49.8 Z M247.5,51.7 C248.2,50.7 248.5,49.6 248.5,48.4 L235.9,48.4 L235.9,46.4 L248.2,46.4 C248.1,46 248,45.7 247.9,45.3 C246.5,41.6 243.7,39.7 239.6,39.7 C235.6,39.7 231.4,41.5 229.1,43.3 C228.6,43.7 228.2,44 227.7,44.4 C225.1,46.3 222.7,48.1 222.5,50.1 C222.4,51.1 222.9,52.2 224,53.5 C224,53.5 226.5,56.2 233.4,56.5 C233.7,56.5 234.1,56.5 234.5,56.5 C239,56.4 245.1,55.2 247.5,51.7 Z M346.8,46.9 L429.9,43 C418.7,37.5 389.6,24.8 354.6,20.2 L346.8,46.9 Z M351.6,19.9 C323.6,16.7 283.2,17.4 242.5,38 C245.3,38.7 248.1,40.4 249.7,44.6 C250.7,47.2 250.7,49.5 249.9,51.5 L343.6,47.1 L351.6,19.9 Z M246,55.7 C265.5,54.9 321.6,52.5 342.2,51.9 L342.7,50.2 L249.5,54.5 C249.5,54.5 248.4,54.5 247.6,54.5 C247.1,54.9 246.6,55.3 246,55.7 Z M434.6,47.6 C439,47.2 440.7,46.3 440.8,45.5 C441.1,42.5 427.4,33.8 395.7,23.7 C366.8,14.5 345.9,13.3 315.1,14.2 C271.8,15.5 219.2,40.5 199.5,57.8 L219.8,56.5 L220.9,55.2 L209.9,56 C209.9,56 209.8,56 209.8,56 C209.2,56 208.6,55.6 208.4,55 C208.2,54.3 208.4,53.6 209,53.3 L228.3,41.3 C228.3,41.3 228.4,41.3 228.4,41.3 C230.1,40.1 232.4,39 235,38.4 C236.3,37.8 237.7,37.2 238,37 C281.5,14.1 325.4,13.7 354.5,17.4 C400.2,23.2 436,42.9 436.3,43.1 C436.9,43.4 437.2,44.1 437,44.8 C436.8,45.5 436.3,45.9 435.6,46 L345.9,50 L345.4,51.8 C370.6,51 417.7,48.9 434.6,47.6 Z M337.3,64.9 L337.1,64.9 C331.1,64.9 323.4,66.1 322,67.8 C321.9,68 321.9,68 321.9,68.1 C322.1,69.2 323.6,69.9 324.9,70.2 C324.9,69.9 324.9,69.5 325,69.2 C325.8,67.4 329,67.2 333.8,67 C334.6,67 335.4,66.9 336.3,66.9 C336.8,66.9 337.3,66.9 337.7,66.9 C339.2,66.9 341,67.1 341.4,68.4 C341.5,68.6 341.5,68.9 341.5,69.1 C342.7,68.9 343.9,68.2 344.6,67.4 C344.9,67.1 345.1,66.7 345,66.5 C345,65.9 344.4,64.9 337.3,64.9 Z M191,71.7 C188.6,89.8 194.4,130 195.5,137.6 C246.5,137.4 331.3,129.3 339.3,128.5 C340.8,124.5 350.1,99.9 352.4,82 C353.4,74.5 352.4,68.6 350.8,64.1 C349.2,64.2 347.6,64.2 346,64.3 C346.6,64.7 346.9,65.3 347,66 C347.1,66.8 346.8,67.7 346.1,68.4 C344.9,69.8 342.8,70.7 340.8,70.8 C340,70.8 339.6,70.8 339.4,70.8 C338.3,70.8 338.2,70 338.2,69.8 C338.2,69 338.8,68.8 339.2,68.7 C339.2,68.7 339.3,68.6 339.3,68.6 C339,68.5 338.5,68.4 337.6,68.4 C337.2,68.4 336.8,68.4 336.4,68.4 C335.5,68.5 334.7,68.5 333.9,68.5 C331.3,68.6 327.3,68.8 326.8,69.5 C326.8,69.5 326.9,69.7 327.2,70.2 C327.4,70.4 327.6,70.7 327.6,71 C327.6,71.6 327.2,72 326.6,72 C326.6,72 326.6,72 326.6,72 C326.6,72 326.6,72 326.6,72 C326.3,72 320.4,71.7 319.9,67.9 C319.8,67.4 319.9,66.8 320.5,66.1 C320.8,65.7 321.2,65.4 321.8,65.1 C300.7,66.1 280.3,67.1 261.9,68 C231.8,69.9 207.2,71.1 191,71.7 Z M159.5,142.4 L403.5,139.8 C403.3,135.1 403.7,130.4 404.6,125.8 L342.5,125.8 C341.6,128.3 341,129.8 341,129.9 C340.9,130.2 340.5,130.5 340.2,130.5 C339.3,130.6 248.1,139.6 194.8,139.6 L159.3,139.6 C159.4,140.6 159.4,141.6 159.5,142.4 Z M414.5,103.5 C420.7,95.5 432.1,86.1 451.8,86.1 L452.3,86.1 C461.9,86.2 470.1,88.2 477,92 C490,89.7 521.2,82.8 526.2,75.8 C520.4,73.4 516.7,69.5 516.5,69.3 C516.2,68.9 516,68.4 516.1,68 C516.6,65.7 519.6,63.3 538.3,62.8 C544.3,62.6 550.2,62.7 554.1,62.8 C554,62.7 553.8,62.6 553.7,62.5 C515.2,58.2 432,60.6 353,64 C354.5,68.7 355.4,74.7 354.4,82.3 C352.6,96.4 346.5,114.5 343.2,123.7 L405,123.7 C406.8,116.3 410,109.3 414.5,103.5 Z M569.3,76.8 C569.8,76.7 570.1,76.6 570.1,76.6 C570.4,76 569,73.6 567.5,72 L565.6,72.9 C566.3,74 567,75.2 567.6,76.3 C567.7,76.5 567.8,76.6 567.9,76.8 C568.7,76.8 569.2,76.8 569.3,76.8 Z M557.5,65.9 C557.4,65.9 557.3,65.9 557.1,65.9 C539.1,65.2 522.9,66.2 519.5,68.2 C520.4,69 522,70.3 524.1,71.5 L562.2,71.5 C560.8,69.5 559.3,67.7 557.6,65.9 L557.5,65.9 Z M528.4,73.4 C529.9,74 531.6,74.4 533.3,74.6 C540.2,75.4 557.8,76.2 565.6,76.6 C565,75.5 564.4,74.5 563.7,73.4 L528.4,73.4 Z M566.1,70.5 C564.9,68.9 564.3,67.1 564,65.9 L560.4,65.9 C561.9,67.6 563.3,69.4 564.6,71.2 L566.1,70.5 Z M564.3,51.5 C564.1,51.5 563.8,51.5 563.6,51.6 L547.8,57.4 C548.2,57.5 548.6,57.7 549,57.8 C552.1,58.9 554.9,60.8 557.3,63 C557.8,63 558.1,63 558.2,63 L565.2,63 C566,63 566.6,63.6 566.7,64.3 C566.7,64.3 567.1,67.6 569.2,69.6 C569.2,69.6 574.1,74.4 572.9,77.7 C572.6,78.6 571.7,79.7 569.5,79.9 C569.5,79.9 569.5,79.9 569.5,79.9 C571.6,84.3 572.9,87.9 573.4,89.4 L576.3,89.4 L576.3,84 C576.3,79.9 571.3,70.6 569.4,67.4 C569.1,67 569.1,66.5 569.3,66 C569.5,65.6 569.8,65.3 570.2,65.2 C569.7,64.4 569,63.3 568,62.2 C566,59.8 564.8,54.2 564.3,51.5 Z M522.1,46.3 C519.3,46.3 517.4,46.6 516.9,46.6 C516.1,46.9 512.7,48 507.2,48 C506.4,48 505.6,48 504.8,47.9 C509.6,51.8 518.2,52.6 527.1,53.6 C533,54.2 539,54.8 544.6,56.3 L558,51.4 C551.5,50.9 543.1,49.3 536.7,48.1 C533.9,47.6 531.5,47.1 529.8,46.9 C527.2,46.5 524.6,46.3 522.1,46.3 Z M456.3,29.9 C471.2,35.5 489.3,41.3 498.1,44 C504.2,45.3 509,45.1 512,44.7 C501.7,39.9 471.8,26.6 439.4,17.4 C440,19.8 442.9,24.8 456.3,29.9 Z M267.6,11.9 L273.7,13.7 C308,3.8 340.9,5.6 371.4,9.1 C406.3,13.1 427.8,19.1 439.4,23.3 C438.8,22.6 438.3,22 437.8,21.3 C436.6,19.3 436.2,17.7 436.2,16.6 C431.9,15.4 427.6,14.3 423.4,13.4 C393.9,6.4 365.1,3 337.8,3 C316.7,3 296.4,5.1 277.6,9.2 C274.4,9.9 271,10.8 267.6,11.9 Z M264.2,13 C235.4,22.8 200.8,43.3 188.2,51 C196.8,49 208.2,43.1 221,36.5 C235.8,28.8 252.6,20.2 270.1,14.7 L264.2,13 Z M25.8,79.8 C29,80.2 34.5,80.2 43.9,78.4 C64.3,74.6 102.7,68.9 126.2,66.3 L127.4,66.2 C148.7,63.8 167.3,61.7 179.3,54.4 C167.5,54.8 125.6,56.6 79.3,65.3 C55.1,69.9 37.7,75.2 25.8,79.8 Z M4.5,103.8 L4.4,105.2 L9.4,105.4 L9.4,105.5 L10.3,105.5 C10.4,105.5 10.5,105.5 10.6,105.5 C10.7,104.7 10.8,104 10.9,103.2 L8.3,102.3 C8,102.2 7.7,102 7.6,101.8 L4.5,103.8 Z M4,112.5 L5.1,113 L6.5,107.3 L4.4,107.2 L4,112.5 Z M9.2,108.5 L8.5,111.4 C9.1,110.6 9.6,109.6 9.9,108.5 L9.2,108.5 Z M11.3,92.5 L10.1,92.2 C10.1,92.3 10.1,92.4 10.1,92.6 L10.1,99.9 L11,100.2 C11.3,96.8 11.3,94 11.3,92.5 Z M5,96.1 L4.7,101.3 L7.2,99.6 L7.2,95 L5,96.1 Z M7,144.3 L18.4,146.4 C16.8,144.9 14.9,143.6 12.9,142.5 L7,144.3 Z M64.8,149.3 C64.3,147.2 63.9,144.9 63.6,142.6 L32.4,142.6 C31.8,142.6 31.4,142.2 31.4,141.6 C31.4,141 31.8,140.6 32.4,140.6 L63.4,140.6 C62.6,129.2 65.3,115.5 72.9,104.8 C76,100.4 79.8,96.8 84.1,94 L71,87.5 C58.9,102 23.1,111.1 21.5,111.5 L21.3,111.5 C13.4,115.9 14,124.2 14,124.3 C14,124.9 13.6,125.3 13.1,125.4 C13.1,125.4 13,125.4 13,125.4 C12.5,125.4 12,125 12,124.5 C12,124.4 11.4,115.6 19.1,110.5 L19.8,109.3 C20.7,107.7 21.1,103.4 21,97.3 C21,94.3 22.7,91.6 25.4,90.4 C44.8,81.9 57,80.1 63.8,80.1 C70,80.1 72.6,81.5 72.9,81.7 L73.1,81.8 C81.1,80.3 131.1,71.1 183.4,69.9 C185.2,69.9 187.1,69.8 189.3,69.7 C189.5,68.7 189.7,67.8 189.9,66.9 L189.9,66.9 C189.9,66.7 190,66.6 190.1,66.4 C190.1,66.4 190.1,66.4 190.1,66.4 L190.1,66.4 C193.2,58 211.1,45 235.1,33.7 C262.8,20.7 291.9,12.8 315.1,12.1 C346.1,11.2 367.2,12.4 396.4,21.7 C418.3,28.7 443.6,39.1 442.8,45.6 C442.6,47.8 439.9,49 434.8,49.4 C418.3,50.7 373,52.7 347.4,53.5 C348.7,55 350.8,57.8 352.4,61.9 C428.7,58.6 509.1,56.2 549.5,59.8 C549.2,59.6 548.8,59.5 548.4,59.4 C541.9,57 534.3,56.2 526.9,55.4 C516.9,54.4 507.5,53.4 502.4,48.3 C500.5,47.7 475.1,40 455.4,32.5 C450.9,30.8 447.1,28.9 444.2,27 C434.8,23.1 412.6,15.6 371.3,10.9 C340.2,7.3 306.6,5.5 271.8,16.2 C254.1,21.6 237,30.4 222,38.2 C206.7,46.1 193.4,53 184,53.6 C183.7,53.8 183.5,53.9 183.5,53.9 C183.4,53.9 183.4,54 183.3,54 C171.1,63.1 151,65.4 127.7,68 L126.5,68.1 C103,70.7 64.6,76.4 44.3,80.2 C37.7,81.6 33,82 29.5,82 C26,82 23.8,81.6 22.4,81.1 C15,84.1 10.2,86.6 7.4,88.2 L13.1,89.9 C13.7,90.1 14.1,90.6 14.2,91.3 C14.2,91.6 14.5,99.9 13.1,107.9 C12,114.2 6.8,117.4 3.9,118.7 L6.1,118.7 C6.9,118.7 7.6,119.4 7.6,120.2 L7.6,126.3 L8.9,129 C9.8,131 9.9,133.3 9.1,135.3 C8.7,136.2 8.2,137 7.6,137.7 L9.3,138.1 C14,139.3 18.5,142 21.5,145.4 C22.6,146.7 24.3,147.4 26.1,147.5 L64.8,149.3 Z M148.1,133.3 C148.1,112.8 131.4,96.1 110.9,96.1 C90.4,96.1 73.7,112.8 73.7,133.3 C73.7,153.8 90.4,170.5 110.9,170.5 C131.4,170.5 148.1,153.8 148.1,133.3 Z M151.1,133.3 C151.1,137.4 150.5,141.4 149.3,145.1 L156.4,145.1 C156.2,135.3 154.3,114.9 142.3,101.9 C134.8,93.8 124.4,89.6 111.5,89.6 L110.9,89.6 C95.5,89.8 83.1,95.6 75.3,106.6 C67,118.2 64.9,133.7 66.9,145.2 C67,145.2 67.1,145.2 67.2,145.2 L72.5,145.2 C71.3,141.5 70.7,137.5 70.7,133.4 C70.7,111.2 88.7,93.2 110.9,93.2 C133.1,93.1 151.1,111.1 151.1,133.3 Z M404.7,149.4 C404.2,146.9 403.8,144.4 403.6,141.8 L159.5,144.4 C159.5,146.5 159.5,148.2 159.5,149.4 L404.7,149.4 Z M489.4,133.3 C489.4,112.8 472.7,96.1 452.2,96.1 C431.7,96.1 415,112.8 415,133.3 C415,153.8 431.7,170.5 452.2,170.5 C472.7,170.5 489.4,153.8 489.4,133.3 Z M497.8,145.1 C498,137.3 497.4,116.1 485,102.2 C477.3,93.6 466.3,89.2 452.3,89.1 L451.9,89.1 C437.3,89.1 425.2,94.7 417,105.4 C408.7,116.1 405.1,131.2 407.1,145.2 C407.2,145.2 407.2,145.2 407.3,145.2 L414,145.2 C412.8,141.5 412.2,137.5 412.2,133.4 C412.2,111.2 430.2,93.2 452.4,93.2 C474.6,93.2 492.6,111.2 492.6,133.4 C492.6,137.5 492,141.5 490.8,145.2 L497.8,145.2 L497.8,145.1 Z M577.9,126.2 C577.9,126.1 577.9,126.1 577.9,126.2 L569.6,128.6 L567.9,134.1 C571.9,132.8 574.8,131.8 576.2,131.3 L576.2,128.8 C576.1,127.9 576.8,127.2 577.9,126.2 Z M581.3,100.9 C581.3,99.4 580.8,98 580.2,96.6 L493.3,109 C495.5,113.1 497.1,117.5 498.2,121.7 L562,113.7 C562.5,113.6 563,114 563.1,114.6 C563.2,115.1 562.8,115.6 562.2,115.7 L498.6,123.7 C501,133.9 500.8,143.1 500.6,146.8 C523.3,146.5 549.1,139.8 564.2,135.2 L566.8,127 C567,126.5 567.3,126.2 567.8,126 L579.6,122.5 C579.2,121.4 578.3,120.1 577.7,119.3 C577.4,119 577.3,118.5 577.4,118.1 C577.5,117.7 577.8,117.3 578.2,117.1 L580.2,116 C580.6,113.4 581.5,105.2 581.3,100.9 Z M38.4,135.6 C34.8,135.6 31.3,134.1 28.8,131.4 C27.5,130 25.7,127.1 25,125.2 C21.3,126.5 18.7,127.5 18.6,127.5 C18.1,127.7 17.5,127.5 17.3,126.9 C17.1,126.4 17.3,125.8 17.9,125.6 C18.7,125.3 36.5,118.2 45.3,118.2 C52.7,118.2 56.2,125.1 58.3,129.2 C59,130.6 58.9,132.1 58.2,133.4 C57.4,134.7 56,135.5 54.5,135.5 L50,135.5 L50,135.5 L50,135.5 L38.4,135.5 L38.4,135.6 Z M42.9,120.5 C41.9,120.6 40.7,120.8 39.5,121 L28.9,128.3 C29.2,128.8 29.5,129.2 29.8,129.6 L42.9,120.5 Z M31.3,131 C31.7,131.4 32.2,131.7 32.6,132 L48.4,121 C47.8,120.8 47.1,120.6 46.4,120.5 L31.3,131 Z M34.7,133 C35.4,133.2 36.1,133.4 36.8,133.5 L51.7,123.1 C51.3,122.7 50.8,122.3 50.4,122 L34.7,133 Z M40.2,133.6 L43,133.6 L54,125.9 C53.7,125.4 53.4,125 53.1,124.6 L40.2,133.6 Z M46.5,133.6 L49.4,133.6 L55.9,129.1 C55.6,128.6 55.4,128.1 55.1,127.7 L46.5,133.6 Z M56.7,130.9 L52.9,133.6 L54.5,133.6 C55.3,133.6 56,133.2 56.5,132.5 C56.7,132 56.8,131.5 56.7,130.9 Z M26.8,124.6 C27,125.1 27.4,125.8 27.9,126.7 L34.1,122.4 C31.6,123 29.1,123.8 26.8,124.6 Z M136.6,143.9 C136.5,144 136.5,144.2 136.4,144.3 C136.4,144.3 136.3,144.3 136.3,144.4 C136.3,144.4 136.3,144.4 136.3,144.4 C136.3,144.4 136.2,144.4 136.2,144.5 C136.2,144.5 136.2,144.5 136.2,144.5 C136.2,144.5 136.1,144.5 136.1,144.6 C136,144.6 136,144.7 135.9,144.7 C135.9,144.7 135.8,144.7 135.8,144.7 C135.8,144.7 135.8,144.7 135.8,144.7 C135.8,144.7 135.8,144.7 135.8,144.7 C135.7,144.7 135.7,144.7 135.6,144.7 C135.5,144.7 135.4,144.7 135.4,144.7 C135.4,144.7 135.3,144.7 135.3,144.7 C135.3,144.7 135.3,144.7 135.3,144.7 C135.3,144.7 135.2,144.7 135.2,144.7 C135.1,144.7 135.1,144.6 135,144.6 L119.8,135.8 C119.2,137.2 118.4,138.6 117.5,139.8 L132.7,148.5 C132.8,148.6 133,148.7 133.1,148.8 C133.1,148.8 133.1,148.9 133.2,148.9 C133.2,148.9 133.2,148.9 133.2,148.9 C133.5,149.3 133.5,149.9 133.2,150.3 C128.8,156 122.4,159.8 115.3,160.8 C115.2,160.8 115.1,160.8 115,160.8 C115,160.8 115,160.8 115,160.8 C114.9,160.8 114.8,160.9 114.6,160.9 C114,160.9 113.5,160.4 113.5,159.7 L113.5,142 C112.7,142.1 112,142.3 111.2,142.3 C110.4,142.3 109.6,142.1 108.9,142 L108.9,159.7 C108.9,159.7 108.9,159.8 108.9,159.8 C108.8,160.4 108.3,160.9 107.6,160.8 C107.5,160.8 107.4,160.8 107.4,160.8 C100.3,159.8 93.9,156.1 89.5,150.5 C89.3,150.4 89.2,150.2 89.1,150 C88.8,149.4 89,148.7 89.6,148.4 L105,139.5 C104,138.3 102.7,135.5 102.7,135.5 L87,144.4 C86.9,144.4 86.9,144.5 86.8,144.5 C86.2,144.7 85.5,144.4 85.3,143.8 C85.3,143.7 85.2,143.7 85.2,143.6 C82.5,136.9 82.5,129.4 85.3,122.7 C85.5,122.3 85.9,122 86.3,122 C86.5,122 86.7,122.1 86.9,122.2 C86.9,122.2 86.9,122.2 86.9,122.2 C86.9,122.2 86.9,122.2 86.9,122.2 C86.9,122.2 86.9,122.2 87,122.2 L102.3,131 C102.9,129.5 103.7,128.2 104.6,127 L89.3,118.1 C89.3,118.1 89.2,118.1 89.2,118 C88.7,117.6 88.5,116.9 88.9,116.4 C88.9,116.3 89,116.3 89,116.2 C93.4,110.5 99.9,106.8 107.1,105.8 C107.1,105.8 107.2,105.8 107.2,105.8 C107.3,105.8 107.4,105.8 107.4,105.8 C107.4,105.8 107.4,105.8 107.4,105.8 C108,105.8 108.6,106.3 108.5,107 L108.5,124.8 C109.3,124.7 109.8,124.5 110.8,124.5 C111.8,124.5 112.4,124.7 113.1,124.8 L113.1,107 C113.1,106.4 113.6,105.9 114.2,105.8 C114.2,105.8 114.2,105.8 114.2,105.8 C114.2,105.8 114.2,105.8 114.2,105.8 C114.2,105.8 114.3,105.8 114.3,105.8 C114.3,105.8 114.4,105.8 114.4,105.8 C121.7,106.8 128.3,110.6 132.7,116.4 C132.7,116.4 132.7,116.4 132.7,116.5 C133.1,117 132.9,117.7 132.4,118.1 C132.4,118.1 132.4,118.1 132.4,118.1 C132.4,118.1 132.4,118.1 132.4,118.1 C132.3,118.1 132.3,118.2 132.2,118.2 L117,127 C118,128.2 118.7,129.5 119.3,131 L134.6,122.2 C134.8,122.1 135,122 135.3,122 C135.8,122 136.2,122.3 136.4,122.7 C139.4,129.4 139.4,137.1 136.6,143.9 Z M101.7,133.2 L87,124.8 C85.1,130.3 85.1,136.3 87,141.7 L101.7,133.2 Z M115.6,125.2 L130.3,116.7 C126.5,112.3 121.3,109.3 115.6,108.2 L115.6,125.2 L115.6,125.2 Z M106.3,125.3 L106.3,108.3 C100.6,109.4 95.4,112.3 91.6,116.8 L106.3,125.3 Z M106.3,158.2 L106.3,141.2 L91.6,149.7 C95.4,154.2 100.6,157.2 106.3,158.2 Z M115.5,141.3 L115.5,158.3 C121.2,157.2 126.4,154.2 130.2,149.8 L115.5,141.3 Z M117.7,133.3 C117.7,131.6 117,130 115.9,128.8 C115.8,128.7 115.7,128.7 115.7,128.6 C114.5,127.4 112.8,126.6 110.9,126.6 C107.2,126.6 104.1,129.6 104.1,133.4 C104.1,137.2 107.1,140.2 110.9,140.2 C113.9,140.2 116.5,138.2 117.4,135.5 C117.4,135.5 117.4,135.4 117.4,135.4 C117.6,134.6 117.7,133.9 117.7,133.3 Z M134.9,124.8 L120.2,133.3 L134.9,141.8 C136.8,136.3 136.8,130.3 134.9,124.8 Z M143.3,133.3 C143.3,151.2 128.8,165.7 110.9,165.7 C93,165.7 78.5,151.2 78.5,133.3 C78.5,115.4 93,100.9 110.9,100.9 C128.8,100.9 143.3,115.4 143.3,133.3 Z M141,133.3 C141,116.7 127.6,103.2 110.9,103.2 C94.3,103.2 80.8,116.6 80.8,133.3 C80.8,150 94.2,163.4 110.9,163.4 C127.6,163.3 141,149.9 141,133.3 Z M477.9,143.9 C477.8,144 477.8,144.2 477.7,144.3 C477.7,144.3 477.6,144.3 477.6,144.4 C477.6,144.4 477.6,144.4 477.6,144.4 C477.6,144.4 477.5,144.4 477.5,144.5 C477.5,144.5 477.5,144.5 477.5,144.5 C477.5,144.5 477.4,144.5 477.4,144.6 C477.3,144.6 477.3,144.7 477.2,144.7 C477.2,144.7 477.1,144.7 477.1,144.7 C477.1,144.7 477.1,144.7 477.1,144.7 C477.1,144.7 477.1,144.7 477.1,144.7 C477,144.7 477,144.7 476.9,144.7 C476.8,144.7 476.7,144.7 476.7,144.7 C476.7,144.7 476.6,144.7 476.6,144.7 C476.6,144.7 476.6,144.7 476.6,144.7 C476.6,144.7 476.5,144.7 476.5,144.7 C476.4,144.7 476.4,144.6 476.3,144.6 L461.1,135.8 C460.5,137.2 459.7,138.6 458.8,139.8 L474,148.5 C474.1,148.6 474.3,148.7 474.4,148.8 C474.4,148.8 474.4,148.9 474.5,148.9 C474.5,148.9 474.5,148.9 474.5,148.9 C474.8,149.3 474.8,149.9 474.5,150.3 C470.1,156 463.7,159.8 456.6,160.8 C456.5,160.8 456.4,160.8 456.3,160.8 C456.3,160.8 456.3,160.8 456.3,160.8 C456.2,160.8 456.1,160.9 455.9,160.9 C455.3,160.9 454.8,160.4 454.8,159.7 L454.8,142 C454,142.1 453.3,142.3 452.5,142.3 C451.7,142.3 450.9,142.1 450.2,142 L450.2,159.7 C450.2,159.7 450.2,159.8 450.2,159.8 C450.1,160.4 449.6,160.9 448.9,160.8 C448.8,160.8 448.7,160.8 448.7,160.8 C441.6,159.8 435.2,156.1 430.8,150.5 C430.6,150.4 430.5,150.2 430.4,150 C430.1,149.4 430.3,148.7 430.9,148.4 L446.3,139.5 C445.3,138.3 444,135.5 444,135.5 L428.6,144.4 C428.5,144.4 428.5,144.5 428.4,144.5 C427.8,144.7 427.1,144.4 426.9,143.8 C426.9,143.7 426.8,143.7 426.8,143.6 C424.1,136.9 424.1,129.4 426.9,122.7 C427.1,122.3 427.5,122 427.9,122 C428.1,122 428.3,122.1 428.5,122.2 C428.5,122.2 428.5,122.2 428.5,122.2 C428.5,122.2 428.5,122.2 428.5,122.2 C428.5,122.2 428.5,122.2 428.6,122.2 L443.9,131 C444.5,129.5 445.3,128.2 446.2,127 L430.9,118.1 C430.9,118.1 430.8,118.1 430.8,118 C430.3,117.6 430.1,116.9 430.5,116.4 C430.5,116.3 430.6,116.3 430.6,116.2 C435,110.5 441.5,106.8 448.7,105.8 C448.7,105.8 448.8,105.8 448.8,105.8 C448.9,105.8 449,105.8 449,105.8 C449,105.8 449,105.8 449,105.8 C449.6,105.8 450.2,106.3 450.1,107 L450.1,124.8 C450.9,124.7 451.4,124.5 452.4,124.5 C453.4,124.5 454,124.7 454.7,124.8 L454.7,107 C454.7,106.4 455.2,105.9 455.8,105.8 C455.8,105.8 455.8,105.8 455.8,105.8 C455.8,105.8 455.8,105.8 455.8,105.8 C455.8,105.8 455.9,105.8 455.9,105.8 C455.9,105.8 456,105.8 456,105.8 C463.3,106.8 469.9,110.6 474.3,116.4 C474.3,116.4 474.3,116.4 474.3,116.5 C474.7,117 474.5,117.7 474,118.1 C474,118.1 474,118.1 474,118.1 C474,118.1 474,118.1 474,118.1 C473.9,118.1 473.9,118.2 473.8,118.2 L458.6,127 C459.6,128.2 460.3,129.5 460.9,131 L476.2,122.2 C476.4,122.1 476.6,122 476.9,122 C477.4,122 477.8,122.3 478,122.7 C480.7,129.4 480.7,137.1 477.9,143.9 Z M443,133.2 L428.3,124.8 C426.4,130.3 426.4,136.3 428.3,141.7 L443,133.2 Z M456.9,125.2 L471.6,116.7 C467.8,112.3 462.6,109.3 456.9,108.2 L456.9,125.2 Z M447.6,125.3 L447.6,108.3 C441.9,109.4 436.7,112.3 432.9,116.8 L447.6,125.3 Z M447.6,158.2 L447.6,141.2 L432.9,149.7 C436.7,154.2 441.9,157.2 447.6,158.2 Z M456.8,141.3 L456.8,158.3 C462.5,157.2 467.7,154.2 471.5,149.8 L456.8,141.3 Z M459,133.3 C459,131.6 458.3,130 457.2,128.8 C457.1,128.7 457,128.7 457,128.6 C455.8,127.4 454.1,126.6 452.2,126.6 C448.5,126.6 445.4,129.6 445.4,133.4 C445.4,137.1 448.4,140.2 452.2,140.2 C455.2,140.2 457.8,138.2 458.7,135.5 C458.7,135.5 458.7,135.4 458.7,135.4 C458.9,134.6 459,133.9 459,133.3 Z M476.2,124.8 L461.5,133.3 L476.2,141.8 C478.1,136.3 478.1,130.3 476.2,124.8 Z M484.6,133.3 C484.6,151.2 470.1,165.7 452.2,165.7 C434.3,165.7 419.8,151.2 419.8,133.3 C419.8,115.4 434.3,100.9 452.2,100.9 C470.1,100.9 484.6,115.4 484.6,133.3 Z M482.3,133.3 C482.3,116.7 468.9,103.2 452.2,103.2 C435.6,103.2 422.1,116.6 422.1,133.3 C422.1,150 435.5,163.4 452.2,163.4 C468.9,163.3 482.3,149.9 482.3,133.3 Z" id="Shape"></path>
        </g>
    </g>
</svg>
