<?xml version="1.0" encoding="UTF-8"?>
<svg width="505px" height="163px" viewBox="0 0 505 163" version="1.1" xmlns="http://www.w3.org/2000/svg" xmlns:xlink="http://www.w3.org/1999/xlink">
    <title> mercedes-benz-car-09</title>
    <g id="Page-1" stroke="none" stroke-width="1" fill="none" fill-rule="evenodd">
        <g id="-mercedes-benz-car-09" transform="translate(254, 250) scale(-1, 1) translate(-254, -250)translate(4, 0)" fill="#000000" fill-rule="nonzero">
            <path d="M174.7,49.5 C174.7,48.9 175.1,48.5 175.6,48.4 L189.9,47.4 C190.4,47.4 190.9,47.8 191,48.3 C191,48.9 190.6,49.3 190.1,49.4 L175.8,50.4 C175.8,50.4 175.8,50.4 175.7,50.4 C175.1,50.4 174.7,50 174.7,49.5 Z M503.6,102.8 L503.6,113.6 C503.6,114 503.6,114.5 503.5,114.8 C503.2,116.3 502.2,119.4 499.1,122.7 L499.1,125.1 C499.1,129.6 495.5,133.2 491,133.2 L476.5,133.2 C461.8,136.3 448.6,138.9 441.8,140.3 C441.4,140.4 441,140.4 440.5,140.4 C438.4,140.4 436.6,139.4 435.4,137.9 L425.8,137.9 C421.1,152.3 407.6,162.8 391.6,162.8 C375.6,162.8 362.1,152.3 357.4,137.9 L349.5,137.9 C348.7,140.6 346.3,142.5 343.4,142.5 L121.8,144.8 C121.8,144.8 121.7,144.8 121.7,144.8 C118.7,144.8 116.1,142.7 115.4,139.9 L105,139.9 C99.7,153.2 86.7,162.7 71.5,162.7 C56.3,162.7 43.3,153.2 38,139.9 L28.8,139.9 C27.7,141.7 25.6,143 23.3,143 C22.6,143 21.9,142.9 21.2,142.7 L8.6,138.4 C3.4,136.6 -0.1,131.8 -0.1,126.2 L-0.1,115.3 C-0.1,109.6 1,104 3.3,98.7 L4.7,95.4 C4.8,95.2 4.9,94.9 4.9,94.7 L6,88.9 C7.6,80.2 14.1,73.1 22.6,70.7 C29.2,68.8 37,67.1 45.5,65.4 C69.5,60.7 122.6,50.9 133,49 C134,48.8 135,48.9 136,49.2 L139.7,50.3 C140.6,50.6 141.6,50.5 142.4,50 C154.2,43 214.4,8.4 257.4,2.2 C267.7,0.7 278,0 288,0 C311.1,0 330.4,3.8 347.7,8.1 C347.7,8.1 347.8,8 347.8,8 C347.9,7.9 350.9,6 354.8,6.9 C356,7.2 357.6,6.3 359.3,4.5 C359.8,3.9 360.7,3.8 361.3,4.2 C362,4.6 362.3,5.3 362.1,6.1 L360.7,11.5 C360.8,11.5 360.9,11.6 361,11.6 C362.6,12 364.2,12.4 365.8,12.9 C376.8,15.8 389.8,20.7 403.6,25.9 C425.3,34.2 447.7,42.7 467,45 C467.1,45 467.2,45 467.3,45 L480.7,45.8 C483.6,46 486,48.1 486.6,50.9 L488.1,57.8 C488.2,58.1 488.3,58.5 488.5,58.8 C489.6,60.7 493.2,67.7 493.5,76.2 L493.8,83.5 C493.8,84.5 494.3,85.5 495.2,86.1 L495.3,86.2 C500.5,90.1 503.6,96.3 503.6,102.8 Z M489.6,69.4 L480.3,70 C481.6,71.8 484.6,74.9 490.6,76.7 L490.6,76.3 C490.5,73.8 490.1,71.5 489.6,69.4 Z M486.1,60.5 C482.7,60.8 472.7,61.7 467.9,61.8 C466.9,61.8 466,61.9 465.2,62.1 C464.2,62.3 464,63.1 463.9,63.4 C463.7,64.1 464,64.8 464.5,65.3 L480.9,78.3 C483.9,80.7 487.3,82.6 490.9,83.9 C490.9,83.8 490.9,83.8 490.9,83.7 L490.7,78.9 C480.8,76.2 477.9,70.2 477.7,69.7 C477.7,69.7 477.7,69.7 477.7,69.7 C477.7,69.7 477.7,69.7 477.7,69.7 C477.7,69.7 477.7,69.6 477.7,69.6 C477.7,69.5 477.7,69.5 477.6,69.4 C477.6,69.4 477.6,69.4 477.6,69.4 C477.6,69.3 477.6,69.3 477.6,69.2 C477.6,69.1 477.6,69.1 477.6,69 C477.6,68.9 477.7,68.9 477.7,68.8 C477.7,68.7 477.8,68.7 477.8,68.6 C477.8,68.6 477.9,68.5 477.9,68.5 C478,68.5 478,68.4 478.1,68.4 C478.1,68.4 478.1,68.4 478.1,68.4 C478.2,68.4 478.2,68.4 478.3,68.4 C478.4,68.4 478.4,68.4 478.5,68.4 L489.1,67.7 C488,64.2 486.7,61.7 486.1,60.5 Z M463.1,90.9 C471.9,89.4 478.1,83.4 480,81.4 C479.7,81.1 479.3,80.9 479,80.6 L462.6,67.6 C461.1,66.4 460.5,64.5 460.9,62.7 C461,62.3 461.1,62 461.3,61.7 L304.9,71.3 C303.7,88.4 293,118.3 290.1,126.2 L347.2,125.1 C347.4,125.1 347.7,125.1 347.9,125.2 C350.7,108.8 360.3,84.5 391.9,84.5 C405.8,84.5 415.4,89 422.1,95.4 C426.7,94.9 453.1,92.5 463.1,90.9 Z M145.9,128.9 L288,126.1 C290.3,119.8 301.6,88.5 302.9,71.3 L141.7,81.2 C141.2,86.1 141.1,91.8 141.7,98.3 C144.1,121.1 145.8,128.4 145.8,128.5 C145.9,128.6 145.9,128.8 145.9,128.9 Z M146.6,62.2 C145.9,63.5 143.2,69.5 141.9,79.2 L303,69.3 C303.1,67.2 302.9,65.4 302.6,64 C300.4,54.7 299.6,50.4 299.3,48.4 L151,62.1 C151,62.1 150.9,62.1 150.9,62.1 C150.9,62.1 150.9,62.1 150.9,62.1 L150.9,62.1 C150.9,62.1 150.9,62.1 150.9,62.1 C150.9,62.1 150.9,62.1 150.9,62.1 C150.7,62.1 150.6,62.1 150.4,62 C150.3,62 150.2,61.9 150.1,61.8 C150.1,61.8 150,61.8 150,61.7 L146.6,62.2 Z M167.4,48.2 C166.7,48.5 165.9,49 164.8,49.7 C161.2,52.2 157.1,56.1 154.6,58.7 L298.8,45.3 L302.4,11.8 C286.5,9.9 273.1,10.5 251.7,13.6 C226.9,17.2 195.4,32.5 183.4,38.7 C185.9,38.9 188.6,39.3 189.9,40.2 C194.8,43.4 194.6,52.3 194.6,52.6 C194.6,53.3 194.1,53.8 193.5,54 C193.1,54.1 182.7,56.8 173.2,55.8 C169.8,55.4 167.7,54.2 167,52.3 C166.4,50.9 166.8,49.4 167.4,48.2 Z M301.8,45.1 C309.5,44.5 340.4,42.2 361.3,40.9 C377.5,39.9 385.3,36.7 388.5,34.9 C381.4,31.8 359.2,22.6 332,17 C321.6,14.9 313.1,13.3 305.3,12.2 L301.8,45.1 Z M350.9,8.8 C353.6,9.5 356.3,10.2 358.9,10.9 L360,6.6 C358,8.4 356.1,9.2 354.4,8.8 C353.1,8.5 351.8,8.6 350.9,8.8 Z M142,53.3 L136.2,61.5 L149.5,59.8 C149.5,59.8 149.5,59.8 149.5,59.8 C149.5,59.8 149.6,59.7 149.6,59.7 C149.6,59.7 149.6,59.7 149.6,59.7 C149.9,59.4 156.8,51.5 163.1,47.3 C166.1,45.3 168.4,44.5 170,44.9 C171.1,45.2 171.5,45.9 171.6,46.2 C171.9,46.8 171.7,47.4 171.3,47.9 C170.5,48.8 169.4,50.5 169.7,51.5 C170,52.2 171.3,52.8 173.4,53 C180.6,53.8 188.6,52.2 191.5,51.6 C191.4,49 190.6,44.5 188.2,42.9 C186.8,42 181.2,41.6 177.7,41.7 C177.7,41.7 177.7,41.7 177.7,41.7 C177,41.7 176.4,41.2 176.2,40.6 C176,39.9 176.3,39.2 176.9,38.9 C177.3,38.7 219.5,15.5 251.1,10.9 C284.5,6.1 298.5,7.3 332.5,14.3 C365.9,21.2 391.8,33.3 392.1,33.5 C392.5,33.7 392.8,34.1 392.9,34.6 C393,35.1 392.8,35.6 392.5,35.9 C392.2,36.2 385.9,42.6 361.4,44.2 C339.7,45.6 307.4,48 301.2,48.4 C301.5,50.3 302.3,54.6 304.4,63.7 C304.8,65.3 304.9,67.2 304.8,69.4 L463.2,59.7 C463.5,59.5 463.9,59.4 464.3,59.3 C465.3,59.1 466.4,59 467.6,59 C472,58.9 481.2,58.2 484.9,57.8 L483.6,51.7 C483.3,50.2 482,49.1 480.4,49 L467,48.2 C466.9,48.2 466.7,48.2 466.6,48.2 C447,45.8 424.4,37.2 402.5,28.9 C388.8,23.7 375.9,18.8 365,16 C363.4,15.6 361.8,15.2 360.2,14.7 C340,9.1 316.8,3 288,3 C278.1,3 267.9,3.7 257.8,5.2 C215.3,11.3 155.6,45.7 144.1,52.5 C143.4,52.9 142.7,53.1 142,53.3 Z M9.2,88.4 C12.7,81.3 17.7,78.4 23.4,75.9 C29.3,73.3 36.2,73 38.9,73 C39.4,73 39.7,73 39.7,73 C40.1,73 40.4,73.2 40.7,73.4 L133.7,61.8 L139.7,53.3 C139.5,53.3 139.3,53.2 139.1,53.1 L135.4,52 C134.9,51.8 134.3,51.8 133.8,51.9 C123.4,53.8 70.2,63.6 46.3,68.3 C37.6,70 30,71.8 23.4,73.6 C16.4,75.6 10.9,81.3 9.2,88.4 Z M38.4,76 C36,76 29.7,76.3 24.6,78.7 C18.3,81.5 13.2,84.5 10.1,94.1 C14.8,93.1 22.4,90.9 24.3,87.3 C25.8,84.4 29.1,82.9 32.3,81.5 C36.8,79.5 38.8,78.3 38.4,76 Z M3.2,128.4 L6,128.4 C8.5,128.4 10.5,126.7 11.2,124.5 L3,124.5 L3,126.3 C3,127 3.1,127.7 3.2,128.4 Z M3,115.4 L3,115.9 L8.2,115.9 C10.7,115.9 12.7,114.2 13.4,112 L3.2,112 C3.1,113.1 3,114.2 3,115.4 Z M26.9,136.8 C27.4,128 29.4,115.2 35.7,104.4 C43.7,90.7 56.3,83.7 73.2,83.7 C89.8,83.7 102.1,91.2 109.9,106.1 C114,113.9 116.1,122.5 117.2,129.5 C117.3,129.5 117.4,129.5 117.5,129.5 L143.9,129 C143.8,128.7 142.1,121.5 139.7,98.6 C139,92.1 139.1,86.3 139.6,81.4 L109.1,83.3 C109.1,83.3 109.1,83.3 109,83.3 C108.5,83.3 108,82.9 108,82.4 C108,81.8 108.4,81.4 108.9,81.3 L139.7,79.4 C140.8,70.9 142.9,65.2 144.1,62.6 L41.4,75.3 C42.3,80.3 37.6,82.5 33.7,84.2 C31,85.4 28.2,86.7 27.1,88.7 C23.7,95.1 9.9,97.2 8.3,97.5 C8.2,97.5 8.2,97.5 8.1,97.5 C7.8,97.5 7.5,97.4 7.3,97.3 L6.1,100 C4.9,102.9 4,105.9 3.5,109 L15,109 C15.8,109 16.5,109.7 16.5,110.5 C16.5,115.2 12.7,118.9 8.1,118.9 L3,118.9 L3,121.5 L12.9,121.5 C13.7,121.5 14.4,122.2 14.4,123 C14.4,127.7 10.6,131.4 6,131.4 L4.4,131.4 C5.6,133.3 7.4,134.8 9.6,135.6 L22.2,139.9 C22.6,140 22.9,140.1 23.3,140.1 C25.2,140.1 26.8,138.6 26.9,136.8 Z M104.6,126.8 C104.6,108.6 89.8,93.8 71.6,93.8 C53.4,93.8 38.6,108.6 38.6,126.8 C38.6,145 53.4,159.8 71.6,159.8 C89.8,159.8 104.6,145 104.6,126.8 Z M107.6,126.8 C107.6,130.3 107.1,133.7 106.1,137 L115.1,137 C113.8,120.5 107.1,86.7 73.2,86.7 C58.2,86.7 32.6,93.2 29.8,137 L37,137 C36.1,133.8 35.5,130.4 35.5,126.8 C35.5,107 51.6,90.8 71.5,90.8 C91.4,90.8 107.6,107 107.6,126.8 Z M346.8,136.2 C346.8,135.8 346.8,135.3 346.9,134.8 L281.9,134.8 C281.3,134.8 280.9,134.4 280.9,133.8 C280.9,133.2 281.3,132.8 281.9,132.8 L347,132.8 C347.1,131.3 347.3,129.7 347.5,127.9 C347.4,127.9 347.4,127.9 347.3,127.9 L117.7,132.4 C117.8,133.4 117.9,134.4 118,135.4 L220.2,135.4 C220.8,135.4 221.2,135.8 221.2,136.4 C221.2,137 220.8,137.4 220.2,137.4 L118.2,137.4 C118.2,137.8 118.3,138.2 118.3,138.6 C118.4,140.4 119.9,141.8 121.7,141.8 L121.7,143.3 L121.7,141.8 L343.3,139.5 C345.2,139.5 346.7,138.1 346.8,136.2 Z M424.6,126.8 C424.6,108.6 409.8,93.8 391.6,93.8 C373.4,93.8 358.6,108.6 358.6,126.8 C358.6,145 373.4,159.8 391.6,159.8 C409.8,159.8 424.6,145 424.6,126.8 Z M434.1,134.9 C434.1,134.7 434,134.5 434,134.3 C433.3,120.2 427.9,87.5 391.9,87.5 C356.3,87.5 350.5,119.6 349.8,135 L356.5,135 C355.9,132.4 355.6,129.7 355.6,126.9 C355.6,107.1 371.7,90.9 391.6,90.9 C411.5,90.9 427.6,107 427.6,126.9 C427.6,129.7 427.3,132.4 426.7,135 L434.1,135 L434.1,134.9 Z M496,125.4 C493.8,127.1 490.9,128.7 487.3,130.2 L491,130.2 C493.7,130.2 495.9,128.1 496,125.4 Z M500.6,102.8 C500.6,97.2 497.9,91.9 493.5,88.6 L493.4,88.5 C492.9,88.1 492.4,87.6 492,87.1 L491.9,87.3 L491.8,87.3 C488.1,86.2 484.7,84.6 481.5,82.5 C479.7,84.6 473.1,91.2 463.3,92.8 C454.1,94.3 431.1,96.5 423.8,97.1 C432.3,106.5 435.4,119.1 436.5,128.4 L472,120.8 C472.5,120.7 473.1,121 473.2,121.6 C473.3,122.1 473,122.7 472.4,122.8 L436.8,130.4 C436.8,130.4 436.7,130.4 436.7,130.4 C436.8,131.7 436.9,133 437,134.1 C437.1,135.9 438.6,137.4 440.4,137.4 C440.6,137.4 440.9,137.4 441.1,137.3 C447.9,136 461.2,133.3 475.9,130.2 C475.9,130.2 475.9,130.2 475.9,130.2 C476.5,130.1 477.2,129.9 477.8,129.8 C497.1,125.7 500.1,116.1 500.5,114.2 C500.5,114 500.6,113.8 500.6,113.6 L500.6,102.8 L500.6,102.8 Z M263.4,63.8 C263.3,63.3 263.4,62.7 263.9,61.9 C266.3,58.9 276.9,57.9 280.4,57.8 C281.2,57.8 281.9,57.8 282.6,57.8 C286.3,57.8 290.1,58.1 290.4,60.7 C290.5,61.5 290.2,62.4 289.6,63.2 C288.5,64.6 286.4,65.7 284.4,65.8 C283.5,65.9 283,65.9 282.9,65.9 C282.4,65.9 281.9,65.5 281.8,65 C281.8,64.2 282.3,64 282.8,63.9 C282.8,63.9 282.9,63.8 282.9,63.8 C282.7,63.7 282.3,63.7 281.6,63.7 C281.1,63.7 280.6,63.7 279.9,63.8 C279.1,63.9 278.2,64 277.4,64 C274.8,64.2 270.8,64.6 270.3,65.3 C270.3,65.3 270.4,65.5 270.8,66 C271,66.2 271.2,66.5 271.2,66.8 C271.2,67.4 270.8,67.8 270.2,67.8 C270.2,67.8 270.2,67.8 270.2,67.8 C270.2,67.8 270.2,67.8 270.2,67.8 C270,67.6 264,67.5 263.4,63.8 Z M265.4,63.5 C265.6,64.6 267.1,65.2 268.5,65.5 C268.4,65.2 268.5,64.8 268.6,64.5 C269.3,62.7 272.5,62.4 277.4,62 C278.2,61.9 279,61.9 279.9,61.8 C280.6,61.7 281.2,61.7 281.8,61.7 C283,61.7 284.7,61.8 285.1,63.1 C285.2,63.3 285.2,63.6 285.2,63.8 C286.4,63.5 287.6,62.9 288.3,62 C288.6,61.6 288.7,61.3 288.7,61.1 C288.7,60.9 288.3,59.9 282.9,59.9 C282.2,59.9 281.5,59.9 280.8,59.9 C274.8,60.1 267.2,61.5 265.8,63.3 C265.4,63.4 265.4,63.4 265.4,63.5 Z M253.7,30.5 C253.8,30.5 254,30.5 254.1,30.4 L265.3,25.3 C265.8,25.1 266,24.5 265.8,24 C265.6,23.5 265,23.3 264.5,23.5 L253.3,28.6 C252.8,28.8 252.6,29.4 252.8,29.9 C253,30.2 253.4,30.5 253.7,30.5 Z M244.2,34.8 C244.3,34.8 244.5,34.8 244.6,34.7 L251.1,31.7 C251.6,31.5 251.8,30.9 251.6,30.4 C251.4,29.9 250.8,29.7 250.3,29.9 L243.8,32.9 C243.3,33.1 243.1,33.7 243.3,34.2 C243.5,34.6 243.9,34.8 244.2,34.8 Z M249.7,36.7 C249.9,37.1 250.2,37.3 250.6,37.3 C250.7,37.3 250.9,37.3 251,37.2 L274.2,26.8 C274.7,26.6 274.9,26 274.7,25.5 C274.5,25 273.9,24.8 273.4,25 L250.2,35.4 C249.7,35.6 249.5,36.2 249.7,36.7 Z M321.5,30.2 C321.6,30.2 321.8,30.2 321.9,30.1 L330.4,26 C330.9,25.8 331.1,25.2 330.9,24.7 C330.7,24.2 330.1,24 329.6,24.2 L321.1,28.3 C320.6,28.5 320.4,29.1 320.6,29.6 C320.8,30 321.1,30.2 321.5,30.2 Z M320.1,29.9 C319.9,29.4 319.3,29.2 318.8,29.4 L313.8,31.8 C313.3,32 313.1,32.6 313.3,33.1 C313.5,33.5 313.8,33.7 314.2,33.7 C314.3,33.7 314.5,33.7 314.6,33.6 L319.6,31.2 C320.2,31 320.4,30.4 320.1,29.9 Z M336.8,26.3 L319.1,34.7 C318.6,34.9 318.4,35.5 318.6,36 C318.8,36.4 319.1,36.6 319.5,36.6 C319.6,36.6 319.8,36.6 319.9,36.5 L337.6,28.1 C338.1,27.9 338.3,27.3 338.1,26.8 C337.9,26.2 337.3,26 336.8,26.3 Z M102.1,126.8 C102.1,143.6 88.4,157.3 71.6,157.3 C54.8,157.3 41.1,143.6 41.1,126.8 C41.1,110 54.8,96.3 71.6,96.3 C88.4,96.3 102.1,110 102.1,126.8 Z M99.1,126.8 C99.1,111.7 86.8,99.3 71.6,99.3 C56.4,99.3 44.1,111.6 44.1,126.8 C44.1,142 56.4,154.3 71.6,154.3 C86.8,154.3 99.1,142 99.1,126.8 Z M82.7,147.5 C82.9,147.9 83,148.3 82.9,148.7 C82.8,149.1 82.5,149.4 82.1,149.6 C78.8,151.1 75.3,151.9 71.7,151.9 C68.1,151.9 64.6,151.1 61.3,149.7 C60.9,149.5 60.6,149.2 60.5,148.8 C60.4,148.4 60.4,147.9 60.7,147.6 L68.1,135.4 C68.5,134.8 69.2,134.5 69.8,134.7 C71.1,135.1 72.4,135.1 73.7,134.8 C74.3,134.6 75,134.9 75.3,135.5 L82.7,147.5 Z M79.2,147.6 L73.3,137.9 C72.2,138.1 71.1,138 70,137.8 L64.1,147.5 C68.9,149.4 74.4,149.4 79.2,147.6 Z M72.9,119 L74,103.5 C74,103.1 74.2,102.7 74.6,102.4 C74.9,102.1 75.4,102 75.8,102.1 C84.2,103.5 91.2,109 94.6,116.8 C94.8,117.2 94.8,117.6 94.6,118 C94.4,118.4 94.1,118.7 93.7,118.8 L79.7,124.1 C79.5,124.2 79.3,124.2 79.2,124.2 C78.7,124.2 78.2,124 78,123.5 C77,122.1 75.6,121 74,120.5 C73.3,120.3 72.9,119.7 72.9,119 Z M76,118.1 C77.5,118.7 78.7,119.7 79.8,120.9 L91.2,116.6 C88.2,111 83.1,106.9 76.9,105.4 L76,118.1 Z M96.7,126.9 C96.7,133.4 94.2,139.6 89.6,144.4 C89.3,144.7 88.9,144.9 88.5,144.9 C88.5,144.9 88.5,144.9 88.5,144.9 C88.1,144.9 87.7,144.7 87.4,144.4 L77.9,134 C77.4,133.5 77.4,132.6 77.8,132.1 C78.6,131 79.2,129.7 79.3,128.3 C79.4,127.6 79.9,127.1 80.6,127 L95.1,124.6 C95.5,124.5 96,124.6 96.3,124.9 C96.6,125.2 96.8,125.6 96.8,126 L96.8,126.2 C96.7,126.5 96.7,126.7 96.7,126.9 Z M93.7,127.9 L82,129.8 C81.8,130.9 81.4,131.9 80.8,132.8 L88.5,141 C91.7,137.3 93.5,132.8 93.7,127.9 Z M48.6,118 C48.4,117.6 48.4,117.2 48.6,116.8 C51.8,109.6 58.2,104.2 65.9,102.4 C66.3,102.3 66.7,102.4 67.1,102.6 C67.4,102.8 67.7,103.2 67.7,103.6 L69.9,119.1 C70,119.8 69.6,120.4 69,120.7 C67.6,121.3 66.4,122.3 65.6,123.6 C65.3,124 64.8,124.3 64.3,124.3 C64.1,124.3 63.9,124.3 63.8,124.2 L49.4,118.8 C49.1,118.7 48.7,118.4 48.6,118 Z M52,116.6 L63.8,121 C64.6,120 65.6,119.1 66.8,118.5 L65,105.8 C59.4,107.5 54.7,111.4 52,116.6 Z M65.6,133.8 L55.8,144.4 C55.5,144.7 55.1,144.9 54.7,144.9 C54.7,144.9 54.7,144.9 54.7,144.9 C54.3,144.9 53.9,144.7 53.6,144.4 C49,139.7 46.4,133.4 46.4,126.8 C46.4,126.7 46.4,126.5 46.4,126.4 L46.4,126.2 C46.4,125.8 46.6,125.4 46.9,125.1 C47.2,124.8 47.7,124.7 48.1,124.8 L63,127.1 C63.7,127.2 64.2,127.7 64.3,128.4 C64.4,129.6 64.9,130.8 65.6,131.9 C66.2,132.5 66.1,133.2 65.6,133.8 Z M62.7,132.6 C62.3,131.8 61.9,130.9 61.7,130 L49.6,128.1 C49.9,132.9 51.7,137.5 54.8,141.2 L62.7,132.6 Z M71.6,122.4 C74.4,122.4 76.6,124.6 76.6,127.4 C76.6,130.2 74.4,132.4 71.6,132.4 C68.8,132.4 66.6,130.2 66.6,127.4 C66.6,124.6 68.9,122.4 71.6,122.4 Z M69.6,127.4 C69.6,128.5 70.5,129.4 71.6,129.4 C72.7,129.4 73.6,128.5 73.6,127.4 C73.6,126.3 72.7,125.4 71.6,125.4 C70.5,125.4 69.6,126.3 69.6,127.4 Z M422.1,126.8 C422.1,143.6 408.4,157.3 391.6,157.3 C374.8,157.3 361.1,143.6 361.1,126.8 C361.1,110 374.8,96.3 391.6,96.3 C408.4,96.3 422.1,110 422.1,126.8 Z M419.1,126.8 C419.1,111.7 406.8,99.3 391.6,99.3 C376.4,99.3 364.1,111.6 364.1,126.8 C364.1,142 376.4,154.3 391.6,154.3 C406.8,154.3 419.1,142 419.1,126.8 Z M402.7,147.5 C402.9,147.9 403,148.3 402.9,148.7 C402.8,149.1 402.5,149.4 402.1,149.6 C398.8,151.1 395.3,151.9 391.7,151.9 C388.1,151.9 384.6,151.1 381.3,149.7 C380.9,149.5 380.6,149.2 380.5,148.8 C380.4,148.4 380.4,147.9 380.7,147.6 L388.1,135.4 C388.5,134.8 389.2,134.5 389.8,134.7 C391.1,135.1 392.4,135.1 393.7,134.8 C394.3,134.6 395,134.9 395.3,135.5 L402.7,147.5 Z M399.2,147.6 L393.3,137.9 C392.2,138.1 391.1,138 390,137.8 L384.1,147.5 C388.9,149.4 394.4,149.4 399.2,147.6 Z M392.9,119 L394,103.5 C394,103.1 394.2,102.7 394.6,102.4 C394.9,102.1 395.4,102 395.8,102.1 C404.2,103.5 411.2,109 414.6,116.8 C414.8,117.2 414.8,117.6 414.6,118 C414.4,118.4 414.1,118.7 413.7,118.8 L399.7,124.1 C399.5,124.2 399.3,124.2 399.2,124.2 C398.7,124.2 398.2,124 398,123.5 C397,122.1 395.6,121 394,120.5 C393.3,120.3 392.9,119.7 392.9,119 Z M396,118.1 C397.5,118.7 398.7,119.7 399.8,120.9 L411.2,116.6 C408.2,111 403.1,106.9 396.9,105.4 L396,118.1 Z M416.7,126.9 C416.7,133.4 414.2,139.6 409.6,144.4 C409.3,144.7 408.9,144.9 408.5,144.9 C408.5,144.9 408.5,144.9 408.5,144.9 C408.1,144.9 407.7,144.7 407.4,144.4 L397.8,134.2 C397.3,133.7 397.3,132.8 397.7,132.3 C398.5,131.2 399.1,129.9 399.2,128.5 C399.3,127.8 399.8,127.3 400.5,127.2 L415,124.8 C415.4,124.7 415.9,124.8 416.2,125.1 C416.5,125.4 416.7,125.8 416.7,126.2 L416.7,126.4 C416.7,126.5 416.7,126.7 416.7,126.9 Z M413.7,127.9 L402.1,129.8 C401.9,130.9 401.5,131.9 400.9,132.8 L408.6,141 C411.7,137.3 413.5,132.8 413.7,127.9 Z M368.6,118 C368.4,117.6 368.4,117.2 368.6,116.8 C371.8,109.6 378.2,104.2 385.9,102.4 C386.3,102.3 386.7,102.4 387.1,102.6 C387.4,102.8 387.7,103.2 387.7,103.6 L389.9,119.1 C390,119.8 389.6,120.4 389,120.7 C387.6,121.3 386.4,122.3 385.6,123.6 C385.3,124 384.8,124.3 384.3,124.3 C384.1,124.3 383.9,124.3 383.8,124.2 L369.4,118.8 C369.1,118.7 368.7,118.4 368.6,118 Z M372,116.6 L383.8,121 C384.6,120 385.6,119.1 386.8,118.5 L385,105.8 C379.4,107.5 374.7,111.4 372,116.6 Z M385.6,133.8 L375.8,144.4 C375.5,144.7 375.1,144.9 374.7,144.9 C374.7,144.9 374.7,144.9 374.7,144.9 C374.3,144.9 373.9,144.7 373.6,144.4 C369,139.7 366.4,133.4 366.4,126.8 C366.4,126.7 366.4,126.5 366.4,126.4 L366.4,126.2 C366.4,125.8 366.6,125.4 366.9,125.1 C367.2,124.8 367.7,124.7 368.1,124.8 L383,127.1 C383.7,127.2 384.2,127.7 384.3,128.4 C384.4,129.6 384.9,130.8 385.6,131.9 C386.2,132.5 386.1,133.2 385.6,133.8 Z M382.7,132.6 C382.3,131.8 381.9,130.9 381.7,130 L369.6,128.1 C369.9,132.9 371.7,137.5 374.8,141.2 L382.7,132.6 Z M391.6,122.4 C394.4,122.4 396.6,124.6 396.6,127.4 C396.6,130.2 394.4,132.4 391.6,132.4 C388.8,132.4 386.6,130.2 386.6,127.4 C386.6,124.6 388.9,122.4 391.6,122.4 Z M389.6,127.4 C389.6,128.5 390.5,129.4 391.6,129.4 C392.7,129.4 393.6,128.5 393.6,127.4 C393.6,126.3 392.7,125.4 391.6,125.4 C390.5,125.4 389.6,126.3 389.6,127.4 Z" id="Shape"></path>
        </g>
    </g>
</svg>