<?xml version="1.0" ?><!DOCTYPE svg  PUBLIC '-//W3C//DTD SVG 1.1//EN'  'http://www.w3.org/Graphics/SVG/1.1/DTD/svg11.dtd'><svg enable-background="new 0 0 601.6 163.5" id="Layer_1" version="1.1" viewBox="0 0 601.6 163.5" xml:space="preserve" xmlns="http://www.w3.org/2000/svg" xmlns:xlink="http://www.w3.org/1999/xlink"><path d="M601.4,93.1l-17.2-33.7l-1.6-6.5c-0.1-0.6-0.6-1-1.1-1.1l-69.9-15.6c-0.1,0-0.2,0-0.3,0h-3.7c-4.3-2.7-39.5-24.6-61.2-29.7  l0,0l-0.2,0c-1-0.2-2-0.4-3-0.6C441.9,5.5,417.5,0,379.4,0c-23.3,0-43.4,2.7-56.1,4.9c-8.5,1.5-16.7,4.4-24.3,8.5  c-16.5,9-45.7,25.5-58,35.3c-0.4,0-1,0-1.8,0l0,0v0c-0.1,0-0.2,0-0.3,0c-13.3,0-60.6,0.4-110.8,4.9C62.7,59.5,20.2,69.8,1.9,84.4  c-0.7,0.5-1,1.3-0.9,2.2c0.1,0.8,0.7,1.6,1.5,1.9l8.3,3.3c1.2,0.5,2,1.7,2,3l-0.2,6.5l-2.2-0.5l-1.6-9c-0.1-0.4-0.3-0.8-0.6-1  c-0.3-0.2-0.8-0.3-1.2-0.2l-5.8,1.3C0.4,92,0,92.7,0,93.4l1.4,22.9c0,0.6,0.4,1.1,1,1.3l5.2,1.9c0.2,0.1,0.3,0.1,0.5,0.1  c0.3,0,0.6-0.1,0.9-0.3c0.4-0.3,0.6-0.7,0.6-1.2V109h2.8l-0.2,6.4c-0.1,3-2.3,5.5-5.3,5.9l-1.6,0.2c-0.8,0.1-1.5,0.6-2,1.2  c-0.5,0.7-0.6,1.5-0.4,2.3l0.7,2.7c0.1,0.4,0,0.8-0.4,1l-0.7,0.5c-0.8,0.5-1.3,1.4-1.4,2.3c-0.1,0.9,0.1,1.9,0.7,2.6l0.7,0.9  c0.9,1.2,2.3,1.9,3.8,1.9h10.2c0.2,0.5,0.4,1.1,0.7,1.7l-6,1.6c-1.5,0.4-2.7,1.4-3.3,2.8c-0.6,1.4-0.6,3,0.1,4.4l0.4,0.8h16.1  c1.2,0.8,2.6,1.3,4.1,1.3c3.3,0,8.3-0.3,13.7-0.6c5.6-0.3,11.3-0.7,15.2-0.7h15.5c0,0,0,0,0,0c0.8,0,1.5-0.7,1.5-1.5  c0-0.1,0-0.2,0-0.4c0-0.5-0.1-1.9-0.2-3.9h11.5c7.3,12.6,20.9,21,36.4,21s29.1-8.5,36.4-21H171c0,1.6-0.1,2.9-0.2,4  c0,0.4,0.1,0.8,0.4,1.1c0.3,0.3,0.7,0.5,1.1,0.5H419c0,0,0,0,0,0c0.8,0,1.5-0.7,1.5-1.5c0-0.2,0-0.3-0.1-0.4  c-0.1-0.5-0.2-1.8-0.4-3.6h12.7c7.4,12.6,21.1,21,36.7,21s29.3-8.5,36.7-21h10.3c-1.6,1.4-2.8,2.4-3.2,2.7c-0.6,0.3-1,0.9-1,1.6  c0.1,1.4,0.2,1.6,11.3,2.8c0.2,0,0.4,0,0.6-0.1l59.1-17.2c0.4-0.1,0.7-0.3,0.9-0.7l8.2-13.9c0.5-0.8,0.5-1.8,0.2-2.7  c-0.4-0.9-1.2-1.5-2.2-1.7c-0.4-0.1-0.6-0.3-0.7-0.5c-0.1-0.1-0.2-0.4-0.1-0.8l2.8-9.5c0.5-1.6,2-2.7,3.7-2.7h1.2  c2.4,0,4.4-2,4.4-4.4v-1.7C601.6,93.5,601.5,93.3,601.4,93.1z M470.8,70l-0.3,0c-11.9,0-22,2.7-30.1,7.9L420,79  c2.7-8.7,4.8-18.7,5.1-29.1c28.4,0.7,89.2,3.2,117.5,12.4l-17.2,1.5c-1.2,0.1-2.2,0.9-2.5,2.1c-0.3,1.2,0.1,2.3,1.1,3l0.2,0.1  c1.9,1.3,3.9,2.6,6,3.6l-32.2,5.6C485.7,70.3,472.6,70,470.8,70z M235.1,112.7c0.2,0.3,0.1,0.5,0,0.6s-0.2,0.3-0.5,0.3h-3.1  c-1.5,0-3-0.2-4.4-0.6l6.7-2.3L235.1,112.7z M224.4,111.8c-1.2-0.6-2.3-1.5-3.3-2.4l9.9-3.3l1.8,2.8L224.4,111.8z M219.6,107.8  c-0.2-0.2-0.4-0.5-0.6-0.8l-1.4-2.1l10.5-3.4l1.8,2.9L219.6,107.8z M216.4,103.2l-1.9-2.8l10.6-3.5l1.8,2.9L216.4,103.2z   M213.4,98.7l-1.9-2.8l10.8-3.6l1.8,2.9L213.4,98.7z M221.2,90.5l-10.9,3.6l-1.9-2.8l5.3-1.8l6.7-0.3L221.2,90.5z M204,83.9  c0.2-0.4,0.5-0.6,1-0.6h4l-4.9,1.6C203.9,84.7,203.8,84.3,204,83.9z M205.2,86.7l9.5-3.2c1.4,0.4,2.6,1.2,3.5,2.3l-4.9,1.6l-7.3,0.3  L205.2,86.7z M220.3,85.3c-1.5-2.5-4.2-4-7.1-4H205c-1.1,0-2.2,0.6-2.7,1.6s-0.5,2.2,0.2,3.2l1.2,1.8l-4.2,0.2l-2.9-4.2  c-0.4-1-0.4-2.1,0.2-3.1c0.6-1,1.6-1.6,2.7-1.6L258,77c0,0.7-0.1,1.3-0.1,2c-0.1,2.3-0.1,4.5-0.1,6.6l-36.3,1.5L220.3,85.3z   M259.9,79.1c0-0.7,0.1-1.5,0.1-2.2l112.2-4c0.8,0,1.5-0.7,1.4-1.6s-0.7-1.5-1.6-1.4l-111.8,4c0.7-6.2,2.3-11.4,4.9-15.5  c2.3-3.7,6.3-6,10.7-6.3l0.4,0l0,0l135.3-2.4l0,0c0.1,0,0.1,0,0.2,0c2.2,0,6.1,0.1,11.3,0.2c-0.2,10.8-2.5,21-5.4,29.9  c0,0,0,0,0,0.1c-3,9.2-6.7,16.9-9.5,22c-4.5,8.4-13.3,13.7-22.8,13.9l-108.1,2.5h-10.6c-3.8,0-6.8-3-6.9-6.8  C259.6,105.3,259.5,93,259.9,79.1z M411.9,26.1c0,0,0,0.1,0,0.1l-1.7,20.5L299,48.7c0,0,0-0.1,0-0.1c0-0.1,0-0.2,0-0.2  c0.3-1.1,0.8-1.3,1.3-1.3l2.5-0.1c3.3-0.1,8.3-0.2,11.5-0.3l0.9,0c4.5-0.1,10.2-0.3,10.2-5.2c0-3.6-2.7-8.6-8.4-10.7  c3.5-3.4,17.1-15.4,34-15.4h51.8c2.7,0,5.3,1.2,7.1,3.3C411.6,20.6,412.4,23.4,411.9,26.1z M323.3,39.9h-14c-0.6,0-1,0.4-1,1  s0.4,1,1,1h14.1c-0.4,2.3-3.5,2.6-8.2,2.7l-0.9,0c-3.2,0.1-8.1,0.2-11.5,0.3l-2.5,0.1c-0.9,0-2.6,0.4-3.2,2.9c0,0.2-0.1,0.3-0.1,0.5  c0,0.1-0.1,0.3-0.3,0.4l-3.7,0.1c0.8-1.9,2.4-4.8,5.8-5.9c1.5-0.5,2.6-1.7,2.9-3.3c0.7-3.4,2.7-7.4,8.7-7.8c0.3,0,0.7,0,1,0  C318.6,31.8,322.5,36.2,323.3,39.9z M526.2,66.8l17.4-1.5c1-0.1,2.1-0.1,3.1-0.1c4.6,0,9.2,0.9,13.4,2.6c-7.7-0.3-19.6,0.5-22.7,0.7  c-0.1,0-0.1,0-0.1,0c-0.1,0-0.2,0-0.2,0.1c-0.1,0-0.1,0.1-0.2,0.1c0,0-0.1,0.1-0.1,0.1c-0.1,0.1-0.1,0.1-0.1,0.2  c0,0-0.1,0.1-0.1,0.1c0,0,0,0,0,0c0,0.1,0,0.1,0,0.2c0,0.1,0,0.1,0,0.2c0,0,0,0,0,0c0,0,0,0.1,0,0.1c0,0.1,0,0.2,0.1,0.2  c0,0.1,0.1,0.1,0.1,0.1c0,0.1,0.1,0.1,0.1,0.2c0.1,0,0.1,0.1,0.2,0.1c0,0,0.1,0.1,0.1,0.1c4.2,1.5,29.4,4.6,35.2,5.3l2.3,2l-22-1.6  C543.2,75.4,534,72.2,526.2,66.8z M565.7,70.5c1.3,0.8,2.6,1.8,3.9,2.8c-6-0.7-17-2.1-24.5-3.3c8.8-0.4,18.5-0.6,20.2,0.4  C565.4,70.5,565.6,70.5,565.7,70.5z M575.5,80.7l0.2,0c0,0,0,0,0,0c1.1,0,2.1-0.7,2.5-1.7c0.4-1,0.1-2.2-0.8-2.9l-5.1-4.4  c-6.8-5.9-15.4-9.3-24.4-9.5c-14.1-5.8-41.3-9.9-80.7-12.4c-16.3-1-31.5-1.5-42.2-1.8c0-19.2,0.1-36.8,0.1-42.1  c6.3,0.8,11,1.6,14,2.2c0.8,6.7,8.5,12.5,14.2,16.9l1.3,1c10.3,7.9,19.8,12.9,30.8,16.1l0-0.1l0,0c0,0,0.1,0,0.1,0l0,0.1  c7.2,1.9,17.2,4,27.8,6.3c21.1,4.5,45,9.7,51.8,13.8c4.1,2.5,7.4,5.8,10.2,8.7c3.8,3.9,7.1,7.3,11.4,7.3c1.6,0,2.4-0.8,2.8-1.4  l4.1,8l-10.6,1.9c-4.2,0.7-8.5-0.9-11.3-4.2l-1.6-1.9L575.5,80.7z M579.2,54.8c-0.2-0.1-0.5-0.3-0.7-0.6l0.6,0.1L579.2,54.8z   M513.9,46.3c-8-1.7-15.6-3.4-22-4.9c6.8-0.5,17-1.4,20.6-2l64,14.3c-3.7,0.9-11.3,2.2-20.8,2.5C545,53,529.3,49.6,513.9,46.3z   M485.6,38.9c-10.3-3.1-19.3-7.9-29.1-15.4l-1.4-1c-4.6-3.5-11.4-8.7-12.8-13.8l3.6,0.7c18.9,4.4,49.4,22.7,58.1,28  C496.6,38.1,487.3,38.8,485.6,38.9z M581.5,60.6l6.4,12.7c0.2,1,0.2,1.8-0.1,2.3c-0.1,0.1-0.2,0.4-1,0.4c-3.4,0-6.3-3-10-6.7  c-2.9-3-6.2-6.4-10.6-9c-1.3-0.8-3.1-1.6-5.4-2.4c8.9-0.7,17.3-2.2,19.1-3.3l1.4,5.7C581.4,60.4,581.5,60.5,581.5,60.6z M323.9,7.9  C336.5,5.7,356.4,3,379.4,3c18,0,32.9,1.2,43.7,2.5c0,5,0,22.9-0.1,42.3c-4.3-0.1-7.7-0.1-10-0.2l1.8-21.2c0.6-3.5-0.4-7.1-2.7-9.9  c-2.3-2.8-5.7-4.3-9.3-4.3h-51.8c-20.8,0-36.4,16.6-37.1,17.3c-0.1,0.1-0.2,0.2-0.2,0.4c-1.1-0.1-2.2-0.2-3.4-0.1  c-8,0.4-10.1,6.7-10.6,9.4c-0.2,0.8-0.8,1.5-1.6,1.8c-4.6,1.5-6.6,5.7-7.3,7.9L280.8,49l39.3-30.9c1.1-0.9,1.7-2.4,1.3-3.8  c-0.3-1.4-1.4-2.5-2.9-2.9l-5-0.9C316.9,9.4,320.4,8.5,323.9,7.9z M300.5,16.1c3-1.6,6.1-3.1,9.2-4.3l8.3,1.5  c0.7,0.2,1.2,0.7,1.3,1.4c0.2,0.7-0.1,1.4-0.6,1.8L277.5,49l-1.6,0L246,48.8C259.4,39,285.4,24.4,300.5,16.1z M239.2,51.7l30,0.3  c-2.3,1.3-4.2,3.1-5.7,5.3c-2.8,4.4-4.6,10.1-5.3,16.7l-58.9,2.1c-2.1,0.1-4.1,1.3-5.2,3.1c-1.1,1.8-1.2,4.1-0.3,6  c0,0.1,0.1,0.1,0.1,0.2l1.9,2.8l-36.4,1.5c-0.7-0.8-1.4-1.6-2.1-2.4c-8.8-9.3-20.7-14.1-35.6-14.1c-0.4,0-0.9,0-1.3,0  c-13.9,0.3-25.1,5.1-33.4,14.3c-1.3,1.5-2.5,3-3.6,4.6l0,0l-31.4,2.7c-0.3-1-0.5-3,2.2-5.9c2.6-2.7,13.3-8.9,28.6-16.5  c1-0.5,1.5-1.5,1.4-2.6c-0.1-1.1-1-1.9-2-2.1l-1.7-0.3c10.3-2.6,34-8.3,52.4-11.2c49.9-4.3,96.4-4.5,105.9-4.5  C239,51.7,239.1,51.7,239.2,51.7z M49,95.2l-17.3,1.5c0.2-0.8,0.6-1.9,1.4-3.2L49.1,92C48.8,93.2,48.8,94.3,49,95.2z M49.9,89.9  l-15.5,1.4c2.2-2.8,5.9-6.2,12.2-9.4C61.2,74.6,73.7,70.4,76,69.6l4.3,0.8C70.8,75.2,55.8,83,52.1,86.9C51.1,88,50.4,89,49.9,89.9z   M75.8,66.6l-0.4,0.1c0,0,0,0-0.1,0c-0.2,0.1-0.4,0.1-0.5,0.1c-0.1,0-0.1,0.1-0.2,0.1c-3.1,1-14.7,5-28.3,11.8  c-1.6,0.2-4.1,0.4-6.7,0.2c-4.4-0.3-11-2-15.1-3.2c22.2-8.4,53.9-13.8,86.2-17.4C94.7,61.8,79.9,65.5,75.8,66.6L75.8,66.6z   M6.1,93.8l1.2,7.2l-3.7,3.3l-0.6-9.8L6.1,93.8z M4.3,115.1L3.9,108h2.7v7.9L4.3,115.1z M8,106C8,106,8,106,8,106L8,106l-3.3,0  l3.3-3c0.2,0.2,0.4,0.3,0.7,0.4l3.8,0.9l-0.1,1.7H8z M10.5,144.3c0.3-0.6,0.8-1,1.4-1.1l6.6-1.7c0.7,1.3,1.6,2.6,2.6,3.9H10.4  C10.3,144.9,10.4,144.6,10.5,144.3z M71.2,145.2H57.3c-3.9,0-9.7,0.4-15.3,0.7c-5.3,0.3-10.3,0.6-13.5,0.6c-4.6,0-8.5-8.4-9.7-11.6  c-0.2-0.6-0.8-1-1.4-1H6.2c-0.5,0-1.1-0.3-1.4-0.7l-0.7-0.9C4,132.2,4,132.1,4,132c0-0.1,0.1-0.2,0.2-0.3l0.7-0.5  c1.3-0.9,2-2.6,1.5-4.2l-0.7-2.5l1.5-0.2c4.4-0.6,7.7-4.3,7.9-8.8l0.6-20.7c0.1-2.6-1.5-4.9-3.9-5.9L4.7,86  c4.4-3.3,10.2-6.4,16.9-9.1c3.2,1,12.2,3.6,18,4C40.3,81,41,81,41.8,81c0.1,0,0.2,0,0.3,0c-13.8,8.1-13.7,17-13.7,17.4l0,1.6l53-4.6  c-5.8,9.9-8.3,21.2-9.4,29.9C70.9,134.4,71.1,142,71.2,145.2z M122.1,160.5c-21.6,0-39.1-17.5-39.1-39.1s17.5-39.1,39.1-39.1  s39.1,17.5,39.1,39.1S143.7,160.5,122.1,160.5z M164.2,121.4c0-23.2-18.9-42.1-42.1-42.1S80,98.1,80,121.4c0,6.5,1.5,12.6,4.1,18.1  h-10c0.1-11.7,2-35.1,15.2-49.9c7.7-8.6,18.2-13,31.2-13.3c0.4,0,0.8,0,1.2,0c14,0,25.2,4.4,33.4,13.1c7.4,7.9,12.4,19.3,14.6,33.7  c1,6.2,1.3,11.9,1.3,16.4h-10.9C162.8,134,164.2,127.8,164.2,121.4z M161,91.7l35.9-1.5l5.7,7.7l0.1,0.2c0,0,0,0,0,0.1l11.2,15.3  c3.6,4.9,9.9,8.2,15.5,8.2c0.3,0,0.6,0,0.9,0l23.2-0.5c0.8,0,1.5-0.7,1.5-1.5c0-0.8-0.8-1.5-1.5-1.5l-23.3,0.5  c-4.8,0.3-10.7-2.6-13.9-7L205,96.2l-4.2-6.1l4.2-0.2l12.4,18.3c3.2,4.7,8.5,7.5,14.1,7.5h3.1c1,0,1.8-0.5,2.3-1.4  c0.5-0.8,0.4-1.8-0.1-2.7l-14.1-22.5l35.1-1.5c-0.1,10.2-0.1,18.9,0,23.7c0.1,4.8,4.1,8.8,8.9,8.8l10.7,0l108.1-2.5  c10.3-0.2,19.7-5.9,24.6-14.9c2.7-5.1,6.4-12.6,9.4-21.7l18-1c-2.3,1.8-4.4,3.8-6.3,6c-10,11.7-13.2,27.5-14,38.8  c0,0.6-0.1,1.3-0.1,1.9l-243.2,3.9C172.8,118.9,169.7,103.6,161,91.7z M174,142.6l196.3-2.9c8.4-0.2,16.7,1.6,24.3,5.2H173.9  C174,144.3,174,143.5,174,142.6z M399.2,145l-3.7-1.8c-7.8-3.8-16.5-5.7-25.2-5.5L174,140.6c0-2,0-4.3-0.2-6.9l242.8-3.9  c-0.2,7,0.2,12.5,0.5,15.2H399.2z M469.5,160.5c-21.8,0-39.6-17.8-39.6-39.6s17.8-39.6,39.6-39.6s39.6,17.8,39.6,39.6  S491.3,160.5,469.5,160.5z M512.1,120.9c0-23.5-19.1-42.6-42.6-42.6s-42.6,19.1-42.6,42.6c0,6.6,1.5,12.9,4.3,18.6h-11.3  c-0.6-11.7,0-35.7,13.4-51.4c8.6-10,21.1-15,37.3-15l0.2,0c2.1,0,20.5,0.4,33.4,14.4c10,10.9,14.1,27.3,12.2,48.5l-0.4,2.9  c0,0.2,0,0.3,0,0.5h-8.2C510.5,133.8,512.1,127.5,512.1,120.9z M598.6,95.5c0,0.7-0.6,1.4-1.4,1.4h-1.2c-2.2,0-4.2,1-5.4,2.7  c-33-2.1-64.2,7.9-64.6,8c-0.5,0.2-0.8,0.7-0.6,1.3c0.1,0.4,0.5,0.7,1,0.7c0.1,0,0.2,0,0.3,0c0.3-0.1,30.6-9.8,62.9-8  c0,0.1-0.1,0.2-0.1,0.2l-2.7,8.9l-7.8,0c-0.3,0-0.6,0.2-0.8,0.4l-9.4,13.4c-0.3,0.5-0.2,1.1,0.2,1.4c0.2,0.1,0.4,0.2,0.6,0.2  c0.3,0,0.6-0.1,0.8-0.4l9.1-13l6.9,0c0,0.6,0.2,1.2,0.5,1.8c0.6,1,1.5,1.7,2.7,1.8l-7.9,13.4l-58.2,17c-2.2-0.3-4.6-0.6-6.3-0.8  c1.5-1.3,3.9-3.4,7.5-6.7c0.3-0.3,0.5-0.7,0.5-1.1c16-6.6,40.5-8.3,40.8-8.3c0.6,0,1-0.5,0.9-1.1c0-0.6-0.5-1-1.1-0.9  c-0.3,0-26.2,1.8-42.4,8.9c0,0,0,0,0,0l-4.3,0.9l0.1-0.9c2-22.2-2.3-39.3-12.9-50.9c-1.9-2.1-4-4-6.1-5.5l33-5.8  c6.1,2.7,12.6,4.4,19.3,4.9l14.8,1.1l2.9,3.4c2.7,3.3,6.7,5.1,10.8,5.1c0.8,0,1.5-0.1,2.3-0.2l11.2-2l3.9,7.7V95.5z M357,30.4  c-0.2-0.5,0-1.1,0.5-1.3l10.7-4.8c0.5-0.2,1.1,0,1.3,0.5c0.2,0.5,0,1.1-0.5,1.3l-10.7,4.8c-0.1,0.1-0.3,0.1-0.4,0.1  C357.5,31,357.1,30.7,357,30.4z M355.4,32.2l-6.2,2.8c-0.1,0.1-0.3,0.1-0.4,0.1c-0.4,0-0.7-0.2-0.9-0.6c-0.2-0.5,0-1.1,0.5-1.3  l6.2-2.8c0.5-0.2,1.1,0,1.3,0.5C356.2,31.4,355.9,32,355.4,32.2z M378,26.1c0.2,0.5,0,1.1-0.5,1.3l-22.1,9.9  c-0.1,0.1-0.3,0.1-0.4,0.1c-0.4,0-0.7-0.2-0.9-0.6c-0.2-0.5,0-1.1,0.5-1.3l22.1-9.9C377.2,25.4,377.8,25.6,378,26.1z M47.3,104.9  c-0.1-0.8-0.8-1.4-1.6-1.3l-21.7,1.9c-0.8,0.1-1.4,0.8-1.4,1.6c0.1,0.8,0.8,1.4,1.6,1.4l9.2-0.8v11.3l-15.6,5.7  c-0.5,0.2-0.7,0.6-0.6,1.1c0.1,0.5,0.5,0.8,1,0.8c0,0,0,0,0,0c18.5-0.4,24.7-6.2,26.8-10C47,113.6,47.8,109.7,47.3,104.9z   M36.4,118.4v-0.9l5.5-1.9C40.1,117.4,37.8,118.1,36.4,118.4z M43.6,112.8l-7.2,2.5v-3.5l8-2.7C44.3,110.5,44,111.7,43.6,112.8z   M44.4,106.7c0,0.1,0,0.3,0,0.4l-8.1,2.7v-2.4L44.4,106.7z M33.6,120.9c0.3,0.4,0.7,0.6,1.2,0.6c0,0,0,0,0,0c0.1,0,0.3,0,0.6,0  c-2.6,1.1-6,2-10.4,2.5L33.6,120.9z M34.5,133c-0.3-0.4-0.7-0.6-1.2-0.6h-4c0,0,0,0,0,0h-5.4c-0.8,0-1.5,0.7-1.5,1.5  s0.7,1.5,1.5,1.5H28c0.4,2,1.3,3.5,2.7,4.7c2.2,1.8,5.2,2.1,6.8,2.1c0.7,0,1.2-0.1,1.3-0.1c0.5-0.1,1-0.4,1.2-0.9  c0.2-0.5,0.1-1.1-0.2-1.5L34.5,133z M32.7,137.9c-0.7-0.6-1.3-1.4-1.6-2.4h1.5l2.9,3.7C34.5,138.9,33.5,138.5,32.7,137.9z   M572.2,129h4.6c0.3,0,0.6-0.1,0.8-0.4l9.1-10.8c0.2-0.3,0.3-0.6,0.2-0.9l-0.8-2.6c-0.1-0.4-0.5-0.7-1-0.7h-3.8  c-0.3,0-0.6,0.2-0.8,0.4l-9.2,13.3c-0.2,0.3-0.2,0.7-0.1,1C571.5,128.8,571.9,129,572.2,129z M582,115.7h2.5l0.4,1.3l-8.5,10h-2.3  L582,115.7z M122.1,84.6c-20.3,0-36.8,16.5-36.8,36.8c0,20.3,16.5,36.8,36.8,36.8s36.8-16.5,36.8-36.8  C158.9,101.1,142.4,84.6,122.1,84.6z M122.1,155.1c-18.6,0-33.8-15.2-33.8-33.8s15.2-33.8,33.8-33.8s33.8,15.2,33.8,33.8  S140.7,155.1,122.1,155.1z M122.4,109.9L122.4,109.9c1.7,0,3.2-0.9,4-2.4l7.3-14.5l-1.3-0.7c-4.3-2.3-9.3-2.1-10-2.1  c-0.7,0-5.7-0.2-10,2.1l-1.3,0.7l7.3,14.5C119.2,108.9,120.7,109.9,122.4,109.9z M121.8,93.1c0.3,0,0.5,0,0.5,0l0.1,0l0.1,0  c0,0,0.2,0,0.5,0c1.2,0,4,0.1,6.6,1.2l-5.9,11.8c-0.2,0.5-0.7,0.8-1.3,0.8h0c-0.5,0-1-0.3-1.3-0.8l-5.9-11.8  C117.8,93.3,120.6,93.1,121.8,93.1z M109.3,116.3c1.4,0,2.7-0.6,3.5-1.8c1-1.3,1.2-3.1,0.5-4.6l-7-14.6l-1.3,0.6  c-4.4,2-7.3,6-7.8,6.6c-0.5,0.6-3.6,4.5-4.4,9.2l-0.2,1.4l15.9,3C108.8,116.3,109,116.3,109.3,116.3z M99.5,104.4l0.1-0.1  c0,0,2.1-3.1,5.3-5l5.7,11.9c0.2,0.5,0.2,1.1-0.2,1.5c-0.3,0.4-0.9,0.6-1.4,0.5l-13-2.5C97.1,107.2,99.5,104.4,99.5,104.4z   M111.2,124.2c-0.4-1.6-1.7-2.8-3.4-3.2l-15.9-3.3l-0.3,1.4c-1.1,4.7,0.3,9.5,0.6,10.2c0.2,0.7,1.3,5.6,4.6,9.1l1,1.1l12.1-10.8  C111.1,127.5,111.6,125.8,111.2,124.2z M107.8,126.4l-9.8,8.8c-2.2-3-3-6.6-3-6.6l0-0.2c0,0-1.2-3.5-0.8-7.2l12.9,2.7  c0.5,0.1,1,0.5,1.1,1.1C108.4,125.5,108.2,126.1,107.8,126.4z M117.8,132c-1.5-0.7-3.3-0.5-4.6,0.6l-12.7,10.1l0.9,1.2  c2.9,3.8,7.5,5.8,8.2,6.1c0.6,0.3,4.6,2.3,9,2.3c0.3,0,0.6,0,0.9,0l1.5-0.1l-0.6-16.2C120.4,134.2,119.4,132.7,117.8,132z   M111,147.2l-0.2-0.1c0,0-3.5-1.4-6-4l10.3-8.2c0.4-0.3,1-0.4,1.5-0.2c0.5,0.2,0.8,0.7,0.8,1.2l0.5,13.2  C114.3,149,111,147.3,111,147.2z M131.2,114.6c0.8,1.1,2.1,1.7,3.5,1.7c0.3,0,0.6,0,0.8-0.1l15.9-3l-0.2-1.4  c-0.8-4.7-3.9-8.6-4.4-9.2c-0.4-0.6-3.4-4.7-7.8-6.6l-1.3-0.6l-7,14.6C130,111.4,130.2,113.2,131.2,114.6z M133.4,111.2l5.7-11.9  c3.2,1.9,5.3,4.9,5.3,5l0.1,0.1c0,0,2.4,2.8,3.5,6.4l-13,2.5c-0.5,0.1-1.1-0.1-1.4-0.6C133.3,112.3,133.2,111.7,133.4,111.2z   M152.5,119.1l-0.3-1.4l-15.9,3.3c-1.6,0.3-2.9,1.6-3.4,3.2c-0.4,1.6,0.1,3.3,1.3,4.5l12.1,10.8l1-1.1c3.3-3.5,4.5-8.4,4.6-9.1  C152.2,128.6,153.6,123.8,152.5,119.1z M149.1,128.4l0,0.2c0,0-0.8,3.6-3,6.6l-9.8-8.8c-0.4-0.4-0.6-0.9-0.4-1.5  c0.1-0.5,0.6-0.9,1.1-1l12.9-2.7C150.3,124.9,149.1,128.4,149.1,128.4z M126.2,132c-1.5,0.7-2.5,2.2-2.6,3.9l-0.6,16.2l1.5,0.1  c0.3,0,0.6,0,0.9,0c4.4,0,8.4-1.9,9-2.3c0.7-0.3,5.3-2.2,8.2-6.1l0.9-1.2l-12.7-10.1C129.6,131.5,127.8,131.3,126.2,132z   M133.3,147.2l-0.2,0.1c0,0-3.3,1.7-7,1.9l0.5-13.2c0-0.5,0.3-1,0.9-1.3c0.2-0.1,0.4-0.1,0.6-0.1c0.3,0,0.6,0.1,0.9,0.3l10.3,8.2  C136.8,145.8,133.3,147.2,133.3,147.2z M130.2,121.4c0-4.5-3.6-8.1-8.1-8.1s-8.1,3.6-8.1,8.1s3.6,8.1,8.1,8.1  S130.2,125.8,130.2,121.4z M122.1,126.5c-2.8,0-5.1-2.3-5.1-5.1s2.3-5.1,5.1-5.1s5.1,2.3,5.1,5.1S124.9,126.5,122.1,126.5z   M469.5,83.7c-20.5,0-37.2,16.7-37.2,37.2s16.7,37.2,37.2,37.2s37.2-16.7,37.2-37.2S490,83.7,469.5,83.7z M469.5,155.1  c-18.9,0-34.2-15.3-34.2-34.2s15.3-34.2,34.2-34.2s34.2,15.3,34.2,34.2S488.3,155.1,469.5,155.1z M469.8,109.2L469.8,109.2  c1.7,0,3.2-0.9,4-2.5l7.4-14.6l-1.3-0.7c-4.3-2.3-9.4-2.2-10.1-2.1c-0.7,0-5.8-0.2-10.1,2.1l-1.3,0.7l7.4,14.6  C466.6,108.3,468.1,109.2,469.8,109.2z M469.2,92.3c0.3,0,0.5,0,0.6,0l0.1,0l0.1,0c0,0,0.2,0,0.6,0c1.2,0,4,0.1,6.7,1.2l-6,11.9  c-0.3,0.5-0.8,0.8-1.3,0.8h0c-0.6,0-1.1-0.3-1.3-0.8l-6-11.9C465.2,92.4,468,92.3,469.2,92.3z M456.6,115.7  C456.6,115.7,456.6,115.7,456.6,115.7c1.4,0,2.7-0.7,3.6-1.8c1-1.3,1.2-3.1,0.5-4.7l-7.1-14.8l-1.3,0.6c-4.4,2-7.4,6.1-7.9,6.7  c-0.5,0.6-3.7,4.5-4.5,9.3l-0.2,1.4l16.1,3.1C456,115.7,456.3,115.7,456.6,115.7z M446.6,103.7l0.1-0.1c0,0,2.1-3.1,5.4-5l5.8,12.1  c0.2,0.5,0.2,1.1-0.2,1.6c-0.3,0.4-0.9,0.6-1.4,0.5l-13.1-2.5C444.2,106.6,446.6,103.7,446.6,103.7z M458.4,123.7  c-0.4-1.6-1.7-2.9-3.4-3.2l-16-3.3l-0.3,1.4c-1.1,4.7,0.3,9.6,0.6,10.3c0.2,0.7,1.4,5.7,4.7,9.2l1,1.1l12.2-10.9  C458.3,127.1,458.8,125.4,458.4,123.7z M455.1,126l-10,8.9c-2.2-3-3-6.7-3-6.7l0-0.2c0,0-1.2-3.6-0.8-7.3l13.1,2.7  c0.5,0.1,1,0.5,1.1,1.1C455.6,125.1,455.5,125.6,455.1,126z M465.1,131.6c-1.5-0.7-3.4-0.5-4.6,0.6l-12.8,10.2l0.9,1.2  c2.9,3.9,7.6,5.9,8.3,6.1c0.6,0.3,4.7,2.3,9.1,2.3c0.3,0,0.6,0,0.9,0l1.5-0.1l-0.6-16.4C467.7,133.9,466.7,132.4,465.1,131.6z   M458.2,147.1L458,147c0,0-3.5-1.4-6.1-4.1l10.4-8.4c0.4-0.3,1-0.4,1.6-0.2c0.5,0.2,0.8,0.7,0.9,1.3l0.5,13.4  C461.5,148.8,458.2,147.1,458.2,147.1z M478.7,114c0.8,1.1,2.2,1.7,3.5,1.7c0.3,0,0.6,0,0.8-0.1l16.1-3.1l-0.2-1.4  c-0.8-4.8-4-8.7-4.5-9.3c-0.4-0.6-3.4-4.7-7.9-6.7l-1.3-0.6l-7.1,14.8C477.5,110.8,477.7,112.6,478.7,114z M480.9,110.6l5.8-12.1  c3.2,1.9,5.3,5,5.4,5l0.1,0.1c0,0,2.5,2.9,3.5,6.5l-13.1,2.5c-0.5,0.1-1.1-0.1-1.5-0.6C480.8,111.7,480.7,111.1,480.9,110.6z   M500.2,118.6l-0.3-1.4l-16,3.3c-1.7,0.3-3,1.6-3.4,3.2c-0.4,1.6,0.1,3.4,1.3,4.5l12.2,10.9l1-1.1c3.3-3.5,4.5-8.5,4.7-9.2  C499.9,128.2,501.3,123.3,500.2,118.6z M496.8,128l0,0.2c0,0-0.8,3.7-3,6.7l-10-8.9c-0.4-0.4-0.6-0.9-0.4-1.5  c0.1-0.5,0.6-0.9,1.1-1.1l13.1-2.7C498,124.4,496.8,128,496.8,128z M473.7,131.7c-1.5,0.7-2.5,2.2-2.6,3.9l-0.6,16.4l1.5,0.1  c0.3,0,0.6,0,0.9,0c4.5,0,8.5-2,9.1-2.3c0.7-0.3,5.4-2.3,8.3-6.1l0.9-1.2l-12.8-10.2C477.1,131.2,475.3,130.9,473.7,131.7z   M480.8,147l-0.2,0.1c0,0-3.4,1.7-7.1,2l0.5-13.4c0-0.6,0.3-1,0.9-1.3c0.2-0.1,0.4-0.1,0.6-0.1c0.3,0,0.7,0.1,0.9,0.3l10.4,8.4  C484.3,145.6,480.8,147,480.8,147z M477.7,120.9c0-4.5-3.7-8.2-8.2-8.2s-8.2,3.7-8.2,8.2s3.7,8.2,8.2,8.2S477.7,125.4,477.7,120.9z   M469.5,126c-2.9,0-5.2-2.3-5.2-5.2s2.3-5.2,5.2-5.2s5.2,2.3,5.2,5.2S472.3,126,469.5,126z"/></svg>