<!DOCTYPE svg  PUBLIC '-//W3C//DTD SVG 1.1//EN'  'http://www.w3.org/Graphics/SVG/1.1/DTD/svg11.dtd'><svg enable-background="new 0 0 458.5 157" id="Layer_1" version="1.1" viewBox="0 0 458.5 157" xml:space="preserve" xmlns="http://www.w3.org/2000/svg" xmlns:xlink="http://www.w3.org/1999/xlink"><path d="M220.9,35c-0.2-0.5,0-1.1,0.5-1.3l10.7-4.8c0.5-0.2,1.1,0,1.3,0.5c0.2,0.5,0,1.1-0.5,1.3l-10.7,4.8  c-0.1,0.1-0.3,0.1-0.4,0.1C221.5,35.6,221.1,35.4,220.9,35z M219.9,35.5c-0.2-0.5-0.8-0.7-1.3-0.5l-6.2,2.8  c-0.5,0.2-0.7,0.8-0.5,1.3c0.2,0.4,0.5,0.6,0.9,0.6c0.1,0,0.3,0,0.4-0.1l6.2-2.8C219.9,36.6,220.1,36,219.9,35.5z M240.6,30.3  l-22.1,9.9c-0.5,0.2-0.7,0.8-0.5,1.3c0.2,0.4,0.5,0.6,0.9,0.6c0.1,0,0.3,0,0.4-0.1l22.1-9.9c0.5-0.2,0.7-0.8,0.5-1.3  C241.7,30.3,241.1,30.1,240.6,30.3z M307.8,32.3c0.1,0,0.3,0,0.4-0.1l10.7-4.8c0.5-0.2,0.7-0.8,0.5-1.3c-0.2-0.5-0.8-0.7-1.3-0.5  l-10.7,4.8c-0.5,0.2-0.7,0.8-0.5,1.3C307.1,32.1,307.5,32.3,307.8,32.3z M298.8,36.5c0.1,0,0.3,0,0.4-0.1l6.2-2.8  c0.5-0.2,0.7-0.8,0.5-1.3c-0.2-0.5-0.8-0.7-1.3-0.5l-6.2,2.8c-0.5,0.2-0.7,0.8-0.5,1.3C298,36.3,298.4,36.5,298.8,36.5z M304,38.3  c0.2,0.4,0.5,0.6,0.9,0.6c0.1,0,0.3,0,0.4-0.1l22.1-9.9c0.5-0.2,0.7-0.8,0.5-1.3c-0.2-0.5-0.8-0.7-1.3-0.5l-22.1,9.9  C304,37.2,303.8,37.8,304,38.3z M458.5,95.1v22.8c0,0.1,0,0.3-0.1,0.4c-0.1,0.5-3.4,11.5-12,12.3c-7.5,0.7-21,2.6-21.1,2.7  c-0.4,0.1-0.9-0.1-1.2-0.4c-0.3-0.3-0.5-0.7-0.5-1.2c0,0,0-0.3,0-0.7h-6.7c-3.7,14.9-17.1,26-33.2,26c-14.5,0-26.8-9-31.8-21.8h-6.5  c0,0.9,0,1.6,0.1,2c0,0.4-0.1,0.8-0.4,1.1c-0.3,0.3-0.7,0.5-1.1,0.5l-204.6,1.5c-0.5,0-0.8-0.2-1.1-0.5c-0.3-0.3-0.4-0.7-0.4-1.2  c0-0.1,0.1-1.4,0.2-3.5h-8.6c-0.1,0-0.2,0-0.2,0c-5,12.7-17.4,21.8-31.8,21.8c-14.5,0-26.8-9-31.8-21.8h-7.6c0,1.7,0.1,2.8,0.1,3.3  c0,0.1,0,0.2,0,0.4c0,0.8-0.7,1.5-1.5,1.5c0,0,0,0,0,0s0,0,0,0c-1.1,0-28.1-0.4-35.7-2.5c-7.4-2.1-19.2-6.7-19.7-6.9  c-0.4-0.2-0.8-0.5-0.9-1c-0.1-0.4-0.1-0.9,0.2-1.3l1.6-2.3v-8.5l-0.8-0.1c0,0,0,0,0,0c-0.2,0-0.3-0.1-0.5-0.1c0,0,0,0-0.1,0  c-0.1-0.1-0.3-0.2-0.4-0.3c0,0,0,0,0-0.1c-0.1-0.1-0.2-0.3-0.2-0.4c0,0,0,0,0,0C0,116.7,0,116.5,0,116.3c0,0,0,0,0,0v-12.2  c0-0.5,0.2-0.9,0.6-1.2l2.1-1.6c0-0.1,0-0.1,0-0.2c-1.7-1-2.6-2.9-2.3-4.9l1.4-9.4l0.7-5.7c0.2-1.4,1.2-2.6,2.6-2.9L6,78.1  c-0.3-0.2-0.5-0.6-0.6-1c-0.1-0.5,0.1-0.9,0.4-1.3L6,75.8c5.2-5.3,11.7-9.2,18.9-11.2c19.3-5.5,57.2-14.9,94.6-16.6c0,0,0.1,0,0.1,0  c0,0,2.8,0.1,6.3,0.1c7.5,0,12.8-0.6,14.7-1.5c0.8-0.4,2.6-1.5,5.1-3c11.6-7,38.7-23.4,62.3-31.3C237.2,2.6,289.8,0,313.5,0  c1.8,0,3.5,0,5.1,0c33.1,0.5,91.9,9.9,105.2,15.7c0.5,0.2,0.9,0.8,0.9,1.3c0,0.6-0.3,1.1-0.8,1.4l-5.1,2.5l24.6,25.9c0,0,0,0,0,0  l7.5,7.9c0.2,0.2,0.3,0.5,0.4,0.7l1.2,6.4c0.1,0.4,0,0.9-0.3,1.2s-0.7,0.5-1.2,0.5H448c0.1,1.8,0.2,3.6,0.2,5.2l0.8,13.4l1.3,0.7  c0.5,0.2,0.8,0.7,0.8,1.3l0.2,3.5L458,94C458.3,94.2,458.5,94.6,458.5,95.1z M448.2,85.2l-1.3-0.6c-0.5-0.2-0.8-0.7-0.8-1.3  l-0.4-7.2c-1.4-0.1-4.6-0.5-8.5-1.5c-1.4,3.4-6.6,13-22.6,20.8c6.4,7.4,9.5,16.6,10.9,23.9c5.4-0.8,24.4-3.7,30-4.9V95.7l-6.6-6.3  c-0.3-0.3-0.4-0.6-0.5-1L448.2,85.2z M355.6,94.2c7.1-7.5,16.9-11.3,29-11.3c11.8,0,21.4,3.7,28.6,11c15.3-7.4,20.6-16.5,22.1-19.8  c-3.2-0.9-6.6-2.3-9.7-4.3l-10.3-7.1c-4.9,1.4-25.8,7.6-51.1,14.9c-0.9,1.1-1.7,2.1-2.6,3.2c-9.6,11.5-19.5,23.4-22.3,41.8l4-0.1  C344.6,113.4,347.8,102.4,355.6,94.2z M140.9,128.3l8.7-0.3c-0.4-2-1.6-9.1-2.8-18c-4.2-0.1-7.4-0.2-9.3-0.3c1.6,4.7,2.5,9.2,3,13.1  C140.7,124.7,140.8,126.6,140.9,128.3z M98.2,81.7c12.8,0,23,4.1,30.3,12.1c3.8,4.2,6.4,9,8.2,13.9c1.7,0.1,5.1,0.2,9.7,0.3  c-1.6-12.4-3-27.6-1.9-38c-39.6,1.8-73.7,5.1-80.2,5.8c-0.1,0.1-0.1,0.2-0.2,0.2l-6.8,6.8l13.9,7.7C78.3,84.7,87.3,81.7,98.2,81.7z   M23,92.7c-0.2-1.1-0.2-2.7,0.6-4.4c1.8-4.3,7.1-7.7,15.7-10.2l17.5-5c-1.6-0.7-3.3-1.2-5.4-1.2c-2.2,0-4.8,0.5-7.8,1.6l-14.2,5.3  c-4.5,1.7-7.9,5.2-9.5,9.7l-1.8,5.1L23,92.7z M45.6,88.6c1.4-0.3,2.7-0.9,3.8-2l11.4-11.4c-0.5-0.3-1-0.6-1.4-0.9L39.9,80  c-9.9,2.8-13.3,6.5-14.4,9c-0.6,1.4-0.6,2.5-0.5,3.3L45.6,88.6z M364.5,74c5.8-7.1,11-15,14.4-20.3c2.2-3.4,1.6-7.7-1.5-11.1  c-26.8-29.8-77.5-29.4-96.6-29.3c-0.9,0-1.7,0-2.5,0L272.7,47l9.2-0.5l3.3-29.3c0.1-0.7,0.7-1.3,1.4-1.3c0.1,0,2.4-0.2,6.3-0.2  c16.8,0,58.3,2.8,82,28.5c0.4,0.4,0.5,1.1,0.3,1.6c-0.2,0.5-0.8,0.9-1.3,0.9l-87.6,2.5L272,50.1c-2.4,3.9-4.2,9.8-5.4,16.6  c28,0.3,51.3,1.1,61.5,2.6c0.5,0.1,0.9,0.6,0.8,1.1s-0.6,0.9-1.1,0.8c-10.1-1.5-33.4-2.3-61.5-2.6c-1.8,10.9-2.4,23.8-2.5,34.6  c20-4.8,63.8-17.2,99.3-27.4C363.5,75.2,364,74.6,364.5,74z M286.1,46.3l1.8-0.1c0.1,0,0.3,0,0.4,0l52.9-1.5V26.4  C329,22,313.2,18.7,293,18.7c-2.1,0-3.8,0-4.8,0.1L285,46.3L286.1,46.3z M344.1,27.6v17l26.2-0.8C365.5,39.2,357.1,32.8,344.1,27.6z   M276.3,13.3c-14.9,0.1-49.9,1.8-77.5,14.7c-2,0.9-3.9,1.8-5.8,2.7c-7.3,3.4-13.8,6.4-19.6,9.4c0.3,0,0.5,0,0.8,0c1,0,2,0.1,2.9,0.1  c0,0,0.1,0,0.1-0.1c25.8-12.8,48.6-18.7,63.1-21.4c15.7-2.9,25.3-2.9,25.7-2.9c0.5,0,0.9,0.2,1.2,0.6c0.3,0.4,0.4,0.8,0.3,1.2  l-6.4,29.9l9.6-0.5L276.3,13.3z M258,47.8l6.2-28.9c-8,0.3-41.2,2.7-82.4,22.4c2.8,1.1,4.3,3,4.4,5.5c0,0.4,0,0.9,0,1.3  c0.1,2.1,0.1,4.3-0.3,6l68.1-5.9c0.2-0.1,0.4-0.2,0.7-0.2L258,47.8z M162.7,53c0-0.5,0.1-1.3,0.2-2.3c-2,1.4-4.5,3.4-6.5,5.1  L162.7,53z M159.1,56.8l4.4-0.3c0.1,0,13.1-0.8,18.2-1c2.1-0.1,2.6-1.6,2.6-5h-11.9c-0.6,0-1-0.4-1-1s0.4-1,1-1h11.9  c0-0.1,0-0.2,0-0.3c0-0.4,0-0.9,0-1.3c-0.1-4.3-7-4.8-10-4.8c-1.1,0-2.3,0.1-3.5,0.2c-5.9,0.6-6.1,11.3-6.1,11.4  c0,0.4-0.2,0.7-0.6,0.9L159.1,56.8z M164.4,45.3c-4.8,3.1-8.7,6.2-11.7,9.8c2.6-2.3,8-6.9,11.1-8.3l0,0  C164,46.2,164.2,45.7,164.4,45.3z M147.2,66.5c-0.1,0.5-0.2,1-0.3,1.5c11.5-0.5,23.5-0.9,35.4-1c27.1-0.3,56.6-0.5,82.3-0.2  c1.3-7.1,2.9-12.6,5-16.5l-10.3,0.6l-74.7,6.5c0,0-1.6,0.1-2.7,0.2c-0.1,0-0.1,0-0.2,0c-5,0.3-18,1-18.1,1l-10,0.7c0,0,0,0-0.1,0  c0,0-0.1,0-0.1,0l-3.8,0.3C148.6,61.6,147.7,64,147.2,66.5z M146.6,70c-1.2,10.1,0.3,25.6,1.9,38.1c26.7,0.7,87.3,1.6,112.2-4.1  c0.3-0.1,0.7-0.2,1-0.2c0-3,0.1-6.2,0.2-9.5c0.4-10,1.1-18.5,2.3-25.6c-25.6-0.3-55-0.1-81.9,0.2C170.3,69,158.3,69.4,146.6,70z   M262,124.8c-0.1-3-0.4-10.2-0.3-19c-0.2,0-0.4,0.1-0.5,0.1c-16.3,3.7-47.8,4.7-75.2,4.7c-14.5,0-27.8-0.3-37.2-0.5  c1.3,9.4,2.6,16.7,2.8,17.9L262,124.8z M337.2,122.6c2.8-19.1,12.9-31.3,22.8-43.1c0.3-0.3,0.5-0.6,0.7-0.9  c-35.3,10.1-77.8,22.2-97,26.8c-0.1,9.1,0.2,16.4,0.3,19.4L337.2,122.6z M444.8,61.8c-1.3-0.5-3.3-0.5-4.9-0.3  c-0.2,0-0.3,0.1-0.3,0.1c0,0.2,0.2,0.8,1.1,2.2c0.7,1.2,2.9,1.8,4.4,2l-0.2-3.6c0-0.1,0-0.1,0-0.2C444.8,62,444.8,61.9,444.8,61.8z   M444.1,59.6c-0.3-0.7-0.8-1.4-1.3-2c-2.9-1.9-6-1.7-8.8-1.2c-1.2,0.2-1.4,0.7-1.5,0.8c-0.7,1.3,0.8,4.7,2.2,7.9  c2,4.2,7.5,5.7,10.4,6.1c0-0.7,0-1.5,0-2.3l-0.1-1c-1.6-0.2-4.9-0.8-6.3-3c-1.1-1.9-1.7-3.1-1.2-4.1c0.3-0.6,0.9-1,1.9-1.1  C440.1,59.5,442.1,59.3,444.1,59.6z M434.2,54.2l-16.7,0.6c-1.8,0.1-4.4,1.7-4.4,2.5c0,0.2,0.1,0.3,0.2,0.4l13.9,9.5  c5.1,3.2,11.3,4.7,15.3,5.4c-3.3-0.9-7.7-2.7-9.5-6.8c-2.2-4.6-3.2-7.7-2.2-9.7c0.5-1,1.5-1.6,2.9-1.9  C433.8,54.3,434,54.3,434.2,54.2z M448.3,56.5l-6.8-7.1c-2-0.1-8.9-0.9-17.5-4c-0.3,0-0.6-0.1-0.9-0.3c-10.8-4.1-24.1-12.1-34-27.5  c-37.9-7.6-115.9-18.8-178,0.8c-2.7,1.3-6.2,3-10.2,4.8c-11.8,5.6-27.9,13.2-36.7,17.8c-12.1,6.3-18.9,7.6-21.6,7.9  c-0.3,0.2-0.5,0.3-0.7,0.4c-1.4,0.7-3.7,1.2-7,1.5c-6.6,6.1-15.2,10.1-24.4,11.5c-3.6,0.5-7.6,1-11.5,1.4c-3.2,0.4-6.5,0.8-9.5,1.2  c-10.3,1.4-23.7,3.7-32.2,5.2c2,0.8,3.7,1.9,5.7,3.2l0.8,0.5c0.1,0.1,0.2,0.1,0.3,0.2c6.4-0.6,40.7-4,80.7-5.8  c0.1-0.7,0.2-1.3,0.4-2c3.6-17.1,20.9-25.1,46.9-37.2c1.9-0.9,3.8-1.8,5.8-2.7c28.7-13.4,65.2-14.9,79.5-14.9c1,0,2.1,0,3.3,0  c19.3-0.1,70.7-0.5,98.1,30c3.7,4.2,4.4,9.3,1.7,13.5c-3.3,5.3-8.5,13-14.2,20.1c21.9-6.3,40.2-11.7,46.7-13.6l-1.5-1.1  c-0.9-0.6-1.5-1.7-1.5-2.8c0-3.3,4.7-5.5,7.3-5.6l18.3-0.6h0c5.8,0,10.7,4,11.9,9.5h1.5L448.3,56.5z M147.8,45.7  c3.5-1,8.6-2.9,15.5-6.5c8.8-4.6,25-12.3,36.8-17.8c4-1.9,7.6-3.6,10.3-4.9l-2.4-1C185.4,23.1,159.5,38.6,147.8,45.7z M419.4,17.3  c-6.7-2.2-18-4.6-30.9-6.7c1,1.9,2.1,3.8,3.2,5.5c10.9,2.2,18.1,4.1,20.1,4.6L419.4,17.3z M436.9,44.4c-2.4-0.2-7.9-1.2-12.9-6.8  c-4.2-4.7-8.3-9.2-10.6-11.6c1.1,6.3,8,13.5,11.3,16.4c5.6,2.1,10.4,3.1,13.6,3.5L436.9,44.4z M393.3,18.4  c7.2,10.2,15.9,16.7,24,20.8c-3.9-4.5-8.1-11-6.8-16.8C407.9,21.7,401.9,20.2,393.3,18.4z M415.7,22.2l-2.3,1c1.2,1.3,6.6,7,12,13.1  c3.2,3.6,6.7,5.2,9.2,5.8L415.7,22.2z M313.5,3c-23,0-73.3,2.4-102.6,11.5l1.6,0.7c0.1,0.1,0.2,0.1,0.3,0.3c0.2,0,0.3,0.1,0.5,0.1  c61-18.2,136.3-7.8,174.4-0.3c-1-1.6-1.9-3.3-2.8-5.1c0-0.1-0.1-0.1-0.1-0.2c-23.1-3.7-50.5-6.7-66.3-6.9C316.9,3,315.2,3,313.5,3z   M25.7,67.4c-0.1,0-0.1,0-0.2,0.1c3.8,0.9,8.6,2.6,11.2,5.4l6-2.2c3.4-1.2,6.2-1.8,8.8-1.8c0.3,0,0.6,0,1,0c7.3-1.3,24.4-4.3,37-6  c3.1-0.4,6.4-0.8,9.6-1.2c3.9-0.4,7.9-0.9,11.4-1.4c7.9-1.2,15.4-4.4,21.3-9.3c-1.7,0.1-3.7,0.1-5.8,0.1c-3.3,0-5.9-0.1-6.3-0.1  C82.5,52.6,44.8,62,25.7,67.4z M4.7,87.3l-0.4,2.9l2.8,0.5c0.1,0,0.2,0,0.2,0l3.7,0.7l0.1-0.3c0-0.2,0.1-0.3,0.1-0.5L8,89.4  c-0.7-0.2-1.1-0.9-1-1.6l0.8-5.9l-2.3,0.3L4.7,87.3z M5.3,93.4l-1.4-0.2l-0.5,3.4c-0.1,0.9,0.3,1.7,1,2.1l0,0L5.3,93.4z M7.6,98  c0.8-0.9,1.6-2.1,2.4-3.8l-1.7-0.3l0,0L7.6,98z M13.2,80.9c-0.2-0.3-0.8-0.6-2.2-0.7c0,0,0,0,0,0.1l-0.9,6.7l2.1,0.7  C13.2,84.3,13.8,81.8,13.2,80.9z M15.5,127.9l-1.2,0.8l3.8,2.4L15.5,127.9z M14.2,126.3l-1.1-1.4l-2.4,1.6l1.7,1.1L14.2,126.3z   M11.8,123.3l-1-1.3l-5.4,3.8H8L11.8,123.3z M9.6,120.5l-0.9-1.1l-3.6,2.4v1.8L9.6,120.5z M7.4,117.9L7.4,117.9l-2.3,0v1.6  L7.4,117.9z M4.1,128.8c3.2,1.2,9.9,3.8,15.3,5.4l-10.2-6.4H4.7L4.1,128.8z M55,137.4c-0.1-2.6-0.2-8,0.7-14.6  c1.2-8.4,4.2-20.2,12.2-29c0.6-0.7,1.2-1.3,1.9-1.9l-13.8-7.6l-4.4,4.4c-1.5,1.5-3.3,2.4-5.4,2.8l-29.4,5.3  c-1.9,1.7-4.7,4.8-5.6,8.2c-0.1,0.4-0.5,0.7-1,0.7c-0.1,0-0.2,0-0.3,0c-0.5-0.1-0.9-0.7-0.7-1.2c1-3.6,3.6-6.7,5.6-8.7  c-0.2-0.4-0.3-0.9-0.2-1.4l2.5-7.1c1.9-5.3,6-9.5,11.3-11.5l6.2-2.3c-3.1-2.6-9.1-4.2-12.7-4.9c-4.6,1.8-8.8,4.5-12.4,7.8l1.1,0.6  c1.8,0.1,4,0.4,5.1,2c1.5,2.1,0.8,5.2-1,10.9c0,0,0,0,0,0c0,0,0,0,0,0c-0.2,0.6-0.4,1.2-0.6,1.8l-0.1,0.4c-0.1,0.5-0.3,0.9-0.4,1.3  c0,0,0,0,0,0c-2.3,6.3-5.6,8.4-7.6,9.1L3,104.9v9.9l5.1,0c0.5,0,0.9,0.2,1.2,0.6l16.4,20.3C34.2,136.9,49.9,137.3,55,137.4z   M128.6,122.8c0-17.2-14-31.2-31.2-31.2s-31.2,14-31.2,31.2s14,31.2,31.2,31.2S128.6,140,128.6,122.8z M131.6,122.8  c0,3.3-0.5,6.4-1.3,9.4h7.8c-0.1-9-1.9-25.5-11.8-36.4c-6.7-7.4-16.1-11.1-28-11.1c-11.9,0-21.4,3.8-28.2,11.2  c-10,10.9-11.9,27.4-12.1,36.4h6.6c-0.9-3-1.3-6.2-1.3-9.4c0-18.8,15.3-34.2,34.2-34.2S131.6,104,131.6,122.8z M342.4,135.9  c0-1.3,0-3.1,0.1-5.3l-54.5,1.9c0,0,0,0,0,0c-0.5,0-1-0.4-1-1c0-0.6,0.4-1,1-1l54.6-1.9c0.1-1,0.2-2,0.3-3.1l-201.8,5.9  c0,0.3,0,0.7,0,1l113.1-2.3c0.6,0,1,0.4,1,1c0,0.6-0.4,1-1,1l-113.2,2.3c0,1.3-0.1,2.3-0.1,3.1L342.4,135.9z M414.9,122.8  c0-17.2-14-31.2-31.2-31.2c-17.2,0-31.2,14-31.2,31.2s14,31.2,31.2,31.2C401,154,414.9,140,414.9,122.8z M423.5,128  c-0.5-6.9-2.6-21.9-12.4-32c-6.6-6.7-15.5-10.1-26.5-10.1c-11.3,0-20.3,3.5-26.8,10.4c-10.3,10.8-12.1,27.3-12.3,36h5.5  c-0.9-3-1.3-6.2-1.3-9.4c0-18.8,15.3-34.2,34.2-34.2c18.8,0,34.2,15.3,34.2,34.2c0,1.8-0.1,3.5-0.4,5.2H423.5z M426.6,130  c3.1-0.4,10-1.4,15.7-2l11.4-11.2c-7.4,1.4-23,3.8-28,4.5C426.4,125,426.6,128.1,426.6,130z M455.3,118l-9.8,9.6  c0.2,0,0.4,0,0.6-0.1C451.7,127,454.6,120.2,455.3,118z M51.1,125.6c0.3,0.4,0.2,1.1-0.2,1.4c-0.2,0.1-0.4,0.2-0.6,0.2  c-0.3,0-0.6-0.1-0.8-0.4c-0.3-0.4-0.6-0.8-0.9-1.2H36c-6.1,0-11.6-3.9-13.6-9.7l-1.1-3.2c-2,0.1-4,0.3-6.1,0.6  c-0.5,0.1-1.1-0.3-1.1-0.8c-0.1-0.5,0.3-1.1,0.8-1.1c2.4-0.4,4.8-0.6,7-0.6c0.1,0,0.2,0,0.2,0c11.3-0.2,20.5,4.2,27.7,13.2  c0.1,0,0.1,0.1,0.1,0.2C50.3,124.6,50.7,125.1,51.1,125.6z M36.1,115.5l-8,5.4c0.9,0.8,2,1.4,3.1,1.9l8.2-5.4  C38.3,116.6,37.2,116,36.1,115.5z M26.8,113c-1.1-0.1-2.3-0.2-3.5-0.2l0.7,2.1L26.8,113z M26.6,119.4l7.2-4.8  c-1.3-0.5-2.7-0.9-4.2-1.2l-4.9,3.3C25.3,117.7,25.9,118.6,26.6,119.4z M36,123.7h3.4l4.5-3c-0.9-0.8-1.8-1.5-2.7-2.2l-7.5,5  C34.5,123.6,35.2,123.7,36,123.7z M46.9,123.7c-0.5-0.6-1-1.1-1.5-1.6l-2.4,1.6H46.9z M411,122.8c0,15-12.2,27.3-27.3,27.3  s-27.3-12.2-27.3-27.3s12.2-27.3,27.3-27.3S411,107.8,411,122.8z M408,122.8c0-13.4-10.9-24.3-24.3-24.3s-24.3,10.9-24.3,24.3  s10.9,24.3,24.3,24.3S408,136.2,408,122.8z M393.8,141.2c0.2,0.4,0.3,0.8,0.2,1.2s-0.4,0.7-0.8,0.9c-3,1.4-6.1,2-9.4,2  c-3.2,0-6.4-0.7-9.3-2c-0.4-0.2-0.7-0.5-0.8-0.9c-0.1-0.4-0.1-0.9,0.2-1.2l6.6-10.8c0.4-0.6,1.1-0.9,1.7-0.7  c1.1,0.3,2.2,0.4,3.4,0.1c0.6-0.2,1.3,0.1,1.6,0.7L393.8,141.2z M390.3,141.2l-5.1-8.3c-0.9,0.1-1.9,0.1-2.8-0.1l-5.1,8.4  C381.5,142.7,386.1,142.7,390.3,141.2z M384.8,115.8l1-13.8c0-0.4,0.2-0.8,0.6-1.1c0.3-0.3,0.8-0.4,1.2-0.3  c7.5,1.3,13.8,6.2,16.9,13.2c0.2,0.4,0.2,0.8,0,1.2c-0.2,0.4-0.5,0.7-0.9,0.8l-12.4,4.7c-0.2,0.1-0.4,0.1-0.5,0.1  c-0.5,0-1-0.2-1.2-0.7c-0.8-1.2-2.1-2.2-3.5-2.6C385.2,117.1,384.8,116.5,384.8,115.8z M387.9,114.9c1.2,0.6,2.3,1.4,3.2,2.4  l9.8-3.7c-2.6-4.8-7-8.3-12.3-9.7L387.9,114.9z M406.3,122.8c0,5.9-2.3,11.4-6.3,15.7c-0.3,0.3-0.7,0.5-1.1,0.5c0,0,0,0,0,0  c-0.4,0-0.8-0.2-1.1-0.5l-8.6-9.1c-0.5-0.5-0.5-1.4-0.1-1.9c0.7-1,1.2-2.1,1.3-3.3c0.1-0.7,0.6-1.2,1.3-1.3l12.9-2.1  c0.4-0.1,0.9,0,1.2,0.3c0.3,0.3,0.5,0.7,0.5,1.1l0,0.2C406.3,122.5,406.3,122.7,406.3,122.8z M403.3,124l-10.1,1.6  c-0.2,0.9-0.5,1.7-1,2.5l6.6,7.1C401.5,132,403,128.1,403.3,124z M363.1,115c-0.2-0.4-0.2-0.8,0-1.2c2.8-6.5,8.6-11.3,15.5-12.9  c0.4-0.1,0.8,0,1.2,0.2c0.3,0.2,0.6,0.6,0.6,1l2,13.8c0.1,0.7-0.3,1.3-0.9,1.6c-1.2,0.5-2.2,1.4-3,2.5c-0.3,0.4-0.8,0.7-1.3,0.7  c-0.2,0-0.4,0-0.5-0.1l-12.8-4.8C363.6,115.7,363.3,115.4,363.1,115z M366.6,113.6l10.2,3.8c0.7-0.9,1.6-1.6,2.5-2.1l-1.6-11  C373,105.8,369,109.2,366.6,113.6z M378.6,129.1l-8.7,9.5c-0.3,0.3-0.7,0.5-1.1,0.5c0,0,0,0,0,0c-0.4,0-0.8-0.2-1.1-0.5  c-4.1-4.2-6.4-9.8-6.4-15.7c0-0.1,0-0.2,0-0.4l0-0.2c0-0.4,0.2-0.8,0.5-1.1c0.3-0.3,0.8-0.4,1.2-0.3l13.3,2c0.7,0.1,1.2,0.6,1.3,1.3  c0.1,1.1,0.5,2.1,1.1,3C379.1,127.8,379.1,128.6,378.6,129.1z M375.6,127.9c-0.4-0.7-0.6-1.4-0.8-2.2l-10.5-1.6  c0.3,4.1,1.8,8,4.5,11.2L375.6,127.9z M383.8,118.7c2.5,0,4.6,2.1,4.6,4.6s-2.1,4.6-4.6,4.6c-2.5,0-4.6-2.1-4.6-4.6  S381.3,118.7,383.8,118.7z M382.2,123.3c0,0.9,0.7,1.6,1.6,1.6c0.9,0,1.6-0.7,1.6-1.6c0-0.9-0.7-1.6-1.6-1.6  C382.9,121.7,382.2,122.4,382.2,123.3z M124.7,122.8c0,15-12.2,27.3-27.3,27.3c-15,0-27.3-12.2-27.3-27.3s12.2-27.3,27.3-27.3  C112.4,95.5,124.7,107.8,124.7,122.8z M121.7,122.8c0-13.4-10.9-24.3-24.3-24.3c-13.4,0-24.3,10.9-24.3,24.3s10.9,24.3,24.3,24.3  C110.8,147.1,121.7,136.2,121.7,122.8z M107.4,141.2c0.2,0.4,0.3,0.8,0.2,1.2s-0.4,0.7-0.8,0.9c-3,1.4-6.1,2-9.4,2  c-3.2,0-6.4-0.7-9.3-2c-0.4-0.2-0.7-0.5-0.8-0.9c-0.1-0.4-0.1-0.9,0.2-1.2l6.6-10.8c0.4-0.6,1.1-0.9,1.7-0.7  c1.1,0.3,2.2,0.4,3.4,0.1c0.6-0.2,1.3,0.1,1.6,0.7L107.4,141.2z M103.9,141.2l-5.1-8.3c-0.9,0.1-1.9,0.1-2.8-0.1l-5.1,8.4  C95.1,142.7,99.8,142.7,103.9,141.2z M98.4,115.8l1-13.8c0-0.4,0.2-0.8,0.6-1.1c0.3-0.3,0.8-0.4,1.2-0.3c7.5,1.3,13.8,6.2,16.9,13.2  c0.2,0.4,0.2,0.8,0,1.2c-0.2,0.4-0.5,0.7-0.9,0.8l-12.4,4.7c-0.2,0.1-0.4,0.1-0.5,0.1c-0.5,0-1-0.2-1.2-0.7  c-0.8-1.2-2.1-2.2-3.5-2.6C98.8,117.1,98.4,116.5,98.4,115.8z M101.5,114.9c1.2,0.6,2.3,1.4,3.2,2.4l9.8-3.7  c-2.6-4.8-7-8.3-12.3-9.7L101.5,114.9z M119.9,122.8c0,5.9-2.3,11.4-6.3,15.7c-0.3,0.3-0.7,0.5-1.1,0.5c0,0,0,0,0,0  c-0.4,0-0.8-0.2-1.1-0.5l-8.6-9.1c-0.5-0.5-0.5-1.4-0.1-1.9c0.7-1,1.2-2.1,1.3-3.3c0.1-0.7,0.6-1.2,1.3-1.3l12.9-2.1  c0.4-0.1,0.9,0,1.2,0.3c0.3,0.3,0.5,0.7,0.5,1.1l0,0.2C119.9,122.5,119.9,122.7,119.9,122.8z M116.9,124l-10.1,1.6  c-0.2,0.9-0.5,1.7-1,2.5l6.6,7.1C115.1,132,116.6,128.1,116.9,124z M76.8,115c-0.2-0.4-0.2-0.8,0-1.2c2.8-6.5,8.6-11.3,15.5-12.9  c0.4-0.1,0.8,0,1.2,0.2c0.3,0.2,0.6,0.6,0.6,1l2,13.8c0.1,0.7-0.3,1.3-0.9,1.6c-1.2,0.5-2.2,1.4-3,2.5c-0.3,0.4-0.8,0.7-1.3,0.7  c-0.2,0-0.4,0-0.5-0.1l-12.8-4.8C77.2,115.7,76.9,115.4,76.8,115z M80.2,113.6l10.2,3.8c0.7-0.9,1.6-1.6,2.5-2.1l-1.6-11  C86.6,105.8,82.6,109.2,80.2,113.6z M92.2,129.1l-8.7,9.5c-0.3,0.3-0.7,0.5-1.1,0.5c0,0,0,0,0,0c-0.4,0-0.8-0.2-1.1-0.5  c-4.1-4.2-6.4-9.8-6.4-15.7c0-0.1,0-0.2,0-0.4l0-0.2c0-0.4,0.2-0.8,0.5-1.1c0.3-0.3,0.8-0.4,1.2-0.3l13.3,2c0.7,0.1,1.2,0.6,1.3,1.3  c0.1,1.1,0.5,2.1,1.1,3C92.7,127.8,92.7,128.6,92.2,129.1z M89.2,127.9c-0.4-0.7-0.6-1.4-0.8-2.2l-10.5-1.6c0.3,4.1,1.8,8,4.5,11.2  L89.2,127.9z M97.4,118.7c2.5,0,4.6,2.1,4.6,4.6s-2.1,4.6-4.6,4.6s-4.6-2.1-4.6-4.6S94.9,118.7,97.4,118.7z M95.8,123.3  c0,0.9,0.7,1.6,1.6,1.6s1.6-0.7,1.6-1.6c0-0.9-0.7-1.6-1.6-1.6S95.8,122.4,95.8,123.3z M234.5,60.3c0.6-2.2,3.4-3.6,8.6-4.5  c12.2-2.1,19.9,0.7,20.3,0.9c0.2,0.1,0.5,0.3,0.6,0.5c0.1,0.2,0.1,0.5,0,0.8c-0.1,0.1-1,2.6-4.8,4.3c0,0-0.1,0.1-0.1,0.1  c-1,0.5-2.5,0.9-4.3,1.2c-0.1,0-0.2,0-0.3,0.1c0,0-0.1,0-0.1,0c-5.3,0.8-12.6,1-15.9,1c-1,0-1.6,0-1.8,0c0,0-0.1,0-0.1,0  c-0.1,0-0.1,0-0.2,0c-0.1,0-0.2-0.1-0.3-0.1c0,0-0.1,0-0.1,0C235.8,64.2,233.9,62.5,234.5,60.3z M253.2,61.7c0,0,0-0.1-0.1-0.1  c-0.3-0.4-1.4-1.2-5.2-0.8c-6.3,0.6-8.6,0.9-9.4,1.8C242.3,62.6,248.5,62.4,253.2,61.7z M236.5,61.7c1.2-2,4.6-2.4,11.2-2.9  c3.6-0.3,5.9,0.2,7,1.6c0.3,0.4,0.4,0.7,0.5,1c3.6-0.8,5.4-2.3,6.2-3.2c-1.7-0.4-5-1.1-9.7-1.1c-2.5,0-5.3,0.2-8.3,0.7  c-5.8,1-6.8,2.5-7,3.1C236.3,61.1,236.4,61.5,236.5,61.7z M364.5,55.1c0.1,0.2,0.1,0.5,0,0.8c-0.1,0.1-1,2.6-4.8,4.3  c0,0-0.1,0.1-0.1,0.1c-1,0.5-2.5,0.9-4.3,1.2c-0.1,0-0.2,0-0.3,0.1c0,0-0.1,0-0.1,0c-5.3,0.8-12.6,1-16,1c-1,0-1.6,0-1.8,0  c0,0-0.1,0-0.1,0c-0.1,0-0.1,0-0.2,0c-0.1,0-0.2-0.1-0.3-0.1c0,0-0.1,0-0.1,0c-0.1-0.1-2.1-1.8-1.4-4c0.6-2.2,3.4-3.6,8.6-4.5  c12.2-2.1,19.9,0.7,20.3,0.9C364.2,54.7,364.4,54.9,364.5,55.1z M353.7,59.7c0,0,0-0.1-0.1-0.1c-0.3-0.4-1.4-1.2-5.2-0.8  c-6.3,0.6-8.6,0.9-9.4,1.8C342.9,60.5,349.1,60.3,353.7,59.7z M362,56.1c-1.7-0.4-5-1.1-9.7-1.1c-2.5,0-5.3,0.2-8.3,0.7  c-5.8,1-6.8,2.5-7,3.1c-0.1,0.3,0,0.6,0.1,0.9c1.2-2.1,4.6-2.4,11.2-2.9c3.6-0.3,5.9,0.2,7,1.6c0.3,0.4,0.4,0.7,0.5,1  C359.4,58.5,361.2,57.1,362,56.1z"/></svg>
