
<svg width="459px" height="157px" viewBox="0 0 459 157" version="1.1" xmlns="http://www.w3.org/2000/svg" xmlns:xlink="http://www.w3.org/1999/xlink">

    <g id="Page-1" stroke="none" stroke-width="1" fill="none" fill-rule="evenodd">
        <g id="mercedes-benz-car-07" transform="translate(209, 250) scale(-1, 1) translate(-209, -250)translate(-41, 0)" fill="currentColor" fill-rule="nonzero">
            <path d="M220.9,35 C220.7,34.5 220.9,33.9 221.4,33.7 L232.1,28.9 C232.6,28.7 233.2,28.9 233.4,29.4 C233.6,29.9 233.4,30.5 232.9,30.7 L222.2,35.5 C222.1,35.6 221.9,35.6 221.8,35.6 C221.5,35.6 221.1,35.4 220.9,35 Z M219.9,35.5 C219.7,35 219.1,34.8 218.6,35 L212.4,37.8 C211.9,38 211.7,38.6 211.9,39.1 C212.1,39.5 212.4,39.7 212.8,39.7 C212.9,39.7 213.1,39.7 213.2,39.6 L219.4,36.8 C219.9,36.6 220.1,36 219.9,35.5 Z M240.6,30.3 L218.5,40.2 C218,40.4 217.8,41 218,41.5 C218.2,41.9 218.5,42.1 218.9,42.1 C219,42.1 219.2,42.1 219.3,42 L241.4,32.1 C241.9,31.9 242.1,31.3 241.9,30.8 C241.7,30.3 241.1,30.1 240.6,30.3 Z M307.8,32.3 C307.9,32.3 308.1,32.3 308.2,32.2 L318.9,27.4 C319.4,27.2 319.6,26.6 319.4,26.1 C319.2,25.6 318.6,25.4 318.1,25.6 L307.4,30.4 C306.9,30.6 306.7,31.2 306.9,31.7 C307.1,32.1 307.5,32.3 307.8,32.3 Z M298.8,36.5 C298.9,36.5 299.1,36.5 299.2,36.4 L305.4,33.6 C305.9,33.4 306.1,32.8 305.9,32.3 C305.7,31.8 305.1,31.6 304.6,31.8 L298.4,34.6 C297.9,34.8 297.7,35.4 297.9,35.9 C298,36.3 298.4,36.5 298.8,36.5 Z M304,38.3 C304.2,38.7 304.5,38.9 304.9,38.9 C305,38.9 305.2,38.9 305.3,38.8 L327.4,28.9 C327.9,28.7 328.1,28.1 327.9,27.6 C327.7,27.1 327.1,26.9 326.6,27.1 L304.5,37 C304,37.2 303.8,37.8 304,38.3 Z M458.5,95.1 L458.5,117.9 C458.5,118 458.5,118.2 458.4,118.3 C458.3,118.8 455,129.8 446.4,130.6 C438.9,131.3 425.4,133.2 425.3,133.3 C424.9,133.4 424.4,133.2 424.1,132.9 C423.8,132.6 423.6,132.2 423.6,131.7 C423.6,131.7 423.6,131.4 423.6,131 L416.9,131 C413.2,145.9 399.8,157 383.7,157 C369.2,157 356.9,148 351.9,135.2 L345.4,135.2 C345.4,136.1 345.4,136.8 345.5,137.2 C345.5,137.6 345.4,138 345.1,138.3 C344.8,138.6 344.4,138.8 344,138.8 L139.4,140.3 C138.9,140.3 138.6,140.1 138.3,139.8 C138,139.5 137.9,139.1 137.9,138.6 C137.9,138.5 138,137.2 138.1,135.1 L129.5,135.1 C129.4,135.1 129.3,135.1 129.3,135.1 C124.3,147.8 111.9,156.9 97.5,156.9 C83,156.9 70.7,147.9 65.7,135.1 L58.1,135.1 C58.1,136.8 58.2,137.9 58.2,138.4 C58.2,138.5 58.2,138.6 58.2,138.8 C58.2,139.6 57.5,140.3 56.7,140.3 C56.7,140.3 56.7,140.3 56.7,140.3 C56.7,140.3 56.7,140.3 56.7,140.3 C55.6,140.3 28.6,139.9 21,137.8 C13.6,135.7 1.8,131.1 1.3,130.9 C0.9,130.7 0.5,130.4 0.4,129.9 C0.3,129.5 0.3,129 0.6,128.6 L2.2,126.3 L2.2,117.8 L1.4,117.7 C1.4,117.7 1.4,117.7 1.4,117.7 C1.2,117.7 1.1,117.6 0.9,117.6 C0.9,117.6 0.9,117.6 0.8,117.6 C0.7,117.5 0.5,117.4 0.4,117.3 C0.4,117.3 0.4,117.3 0.4,117.2 C0.3,117.1 0.2,116.9 0.2,116.8 C0.2,116.8 0.2,116.8 0.2,116.8 C0,116.7 0,116.5 0,116.3 C0,116.3 0,116.3 0,116.3 L0,104.1 C0,103.6 0.2,103.2 0.6,102.9 L2.7,101.3 C2.7,101.2 2.7,101.2 2.7,101.1 C1,100.1 0.1,98.2 0.4,96.2 L1.8,86.8 L2.5,81.1 C2.7,79.7 3.7,78.5 5.1,78.2 L6,78.1 C5.7,77.9 5.5,77.5 5.4,77.1 C5.3,76.6 5.5,76.2 5.8,75.8 L6,75.8 C11.2,70.5 17.7,66.6 24.9,64.6 C44.2,59.1 82.1,49.7 119.5,48 C119.5,48 119.6,48 119.6,48 C119.6,48 122.4,48.1 125.9,48.1 C133.4,48.1 138.7,47.5 140.6,46.6 C141.4,46.2 143.2,45.1 145.7,43.6 C157.3,36.6 184.4,20.2 208,12.3 C237.2,2.6 289.8,0 313.5,0 C315.3,0 317,0 318.6,0 C351.7,0.5 410.5,9.9 423.8,15.7 C424.3,15.9 424.7,16.5 424.7,17 C424.7,17.6 424.4,18.1 423.9,18.4 L418.8,20.9 L443.4,46.8 C443.4,46.8 443.4,46.8 443.4,46.8 L450.9,54.7 C451.1,54.9 451.2,55.2 451.3,55.4 L452.5,61.8 C452.6,62.2 452.5,62.7 452.2,63 C451.9,63.3 451.5,63.5 451,63.5 L448,63.5 C448.1,65.3 448.2,67.1 448.2,68.7 L449,82.1 L450.3,82.8 C450.8,83 451.1,83.5 451.1,84.1 L451.3,87.6 L458,94 C458.3,94.2 458.5,94.6 458.5,95.1 Z M448.2,85.2 L446.9,84.6 C446.4,84.4 446.1,83.9 446.1,83.3 L445.7,76.1 C444.3,76 441.1,75.6 437.2,74.6 C435.8,78 430.6,87.6 414.6,95.4 C421,102.8 424.1,112 425.5,119.3 C430.9,118.5 449.9,115.6 455.5,114.4 L455.5,95.7 L448.9,89.4 C448.6,89.1 448.5,88.8 448.4,88.4 L448.2,85.2 Z M355.6,94.2 C362.7,86.7 372.5,82.9 384.6,82.9 C396.4,82.9 406,86.6 413.2,93.9 C428.5,86.5 433.8,77.4 435.3,74.1 C432.1,73.2 428.7,71.8 425.6,69.8 L415.3,62.7 C410.4,64.1 389.5,70.3 364.2,77.6 C363.3,78.7 362.5,79.7 361.6,80.8 C352,92.3 342.1,104.2 339.3,122.6 L343.3,122.5 C344.6,113.4 347.8,102.4 355.6,94.2 Z M140.9,128.3 L149.6,128 C149.2,126 148,118.9 146.8,110 C142.6,109.9 139.4,109.8 137.5,109.7 C139.1,114.4 140,118.9 140.5,122.8 C140.7,124.7 140.8,126.6 140.9,128.3 Z M98.2,81.7 C111,81.7 121.2,85.8 128.5,93.8 C132.3,98 134.9,102.8 136.7,107.7 C138.4,107.8 141.8,107.9 146.4,108 C144.8,95.6 143.4,80.4 144.5,70 C104.9,71.8 70.8,75.1 64.3,75.8 C64.2,75.9 64.2,76 64.1,76 L57.3,82.8 L71.2,90.5 C78.3,84.7 87.3,81.7 98.2,81.7 Z M23,92.7 C22.8,91.6 22.8,90 23.6,88.3 C25.4,84 30.7,80.6 39.3,78.1 L56.8,73.1 C55.2,72.4 53.5,71.9 51.4,71.9 C49.2,71.9 46.6,72.4 43.6,73.5 L29.4,78.8 C24.9,80.5 21.5,84 19.9,88.5 L18.1,93.6 L23,92.7 Z M45.6,88.6 C47,88.3 48.3,87.7 49.4,86.6 L60.8,75.2 C60.3,74.9 59.8,74.6 59.4,74.3 L39.9,80 C30,82.8 26.6,86.5 25.5,89 C24.9,90.4 24.9,91.5 25,92.3 L45.6,88.6 Z M364.5,74 C370.3,66.9 375.5,59 378.9,53.7 C381.1,50.3 380.5,46 377.4,42.6 C350.6,12.8 299.9,13.2 280.8,13.3 C279.9,13.3 279.1,13.3 278.3,13.3 L272.7,47 L281.9,46.5 L285.2,17.2 C285.3,16.5 285.9,15.9 286.6,15.9 C286.7,15.9 289,15.7 292.9,15.7 C309.7,15.7 351.2,18.5 374.9,44.2 C375.3,44.6 375.4,45.3 375.2,45.8 C375,46.3 374.4,46.7 373.9,46.7 L286.3,49.2 L272,50.1 C269.6,54 267.8,59.9 266.6,66.7 C294.6,67 317.9,67.8 328.1,69.3 C328.6,69.4 329,69.9 328.9,70.4 C328.8,70.9 328.3,71.3 327.8,71.2 C317.7,69.7 294.4,68.9 266.3,68.6 C264.5,79.5 263.9,92.4 263.8,103.2 C283.8,98.4 327.6,86 363.1,75.8 C363.5,75.2 364,74.6 364.5,74 Z M286.1,46.3 L287.9,46.2 C288,46.2 288.2,46.2 288.3,46.2 L341.2,44.7 L341.2,26.4 C329,22 313.2,18.7 293,18.7 C290.9,18.7 289.2,18.7 288.2,18.8 L285,46.3 L286.1,46.3 Z M344.1,27.6 L344.1,44.6 L370.3,43.8 C365.5,39.2 357.1,32.8 344.1,27.6 Z M276.3,13.3 C261.4,13.4 226.4,15.1 198.8,28 C196.8,28.9 194.9,29.8 193,30.7 C185.7,34.1 179.2,37.1 173.4,40.1 C173.7,40.1 173.9,40.1 174.2,40.1 C175.2,40.1 176.2,40.2 177.1,40.2 C177.1,40.2 177.2,40.2 177.2,40.1 C203,27.3 225.8,21.4 240.3,18.7 C256,15.8 265.6,15.8 266,15.8 C266.5,15.8 266.9,16 267.2,16.4 C267.5,16.8 267.6,17.2 267.5,17.6 L261.1,47.5 L270.7,47 L276.3,13.3 Z M258,47.8 L264.2,18.9 C256.2,19.2 223,21.6 181.8,41.3 C184.6,42.4 186.1,44.3 186.2,46.8 C186.2,47.2 186.2,47.7 186.2,48.1 C186.3,50.2 186.3,52.4 185.9,54.1 L254,48.2 C254.2,48.1 254.4,48 254.7,48 L258,47.8 Z M162.7,53 C162.7,52.5 162.8,51.7 162.9,50.7 C160.9,52.1 158.4,54.1 156.4,55.8 L162.7,53 Z M159.1,56.8 L163.5,56.5 C163.6,56.5 176.6,55.7 181.7,55.5 C183.8,55.4 184.3,53.9 184.3,50.5 L172.4,50.5 C171.8,50.5 171.4,50.1 171.4,49.5 C171.4,48.9 171.8,48.5 172.4,48.5 L184.3,48.5 C184.3,48.4 184.3,48.3 184.3,48.2 C184.3,47.8 184.3,47.3 184.3,46.9 C184.2,42.6 177.3,42.1 174.3,42.1 C173.2,42.1 172,42.2 170.8,42.3 C164.9,42.9 164.7,53.6 164.7,53.7 C164.7,54.1 164.5,54.4 164.1,54.6 L159.1,56.8 Z M164.4,45.3 C159.6,48.4 155.7,51.5 152.7,55.1 C155.3,52.8 160.7,48.2 163.8,46.8 L163.8,46.8 C164,46.2 164.2,45.7 164.4,45.3 Z M147.2,66.5 C147.1,67 147,67.5 146.9,68 C158.4,67.5 170.4,67.1 182.3,67 C209.4,66.7 238.9,66.5 264.6,66.8 C265.9,59.7 267.5,54.2 269.6,50.3 L259.3,50.9 L184.6,57.4 C184.6,57.4 183,57.5 181.9,57.6 C181.8,57.6 181.8,57.6 181.7,57.6 C176.7,57.9 163.7,58.6 163.6,58.6 L153.6,59.3 C153.6,59.3 153.6,59.3 153.5,59.3 C153.5,59.3 153.4,59.3 153.4,59.3 L149.6,59.6 C148.6,61.6 147.7,64 147.2,66.5 Z M146.6,70 C145.4,80.1 146.9,95.6 148.5,108.1 C175.2,108.8 235.8,109.7 260.7,104 C261,103.9 261.4,103.8 261.7,103.8 C261.7,100.8 261.8,97.6 261.9,94.3 C262.3,84.3 263,75.8 264.2,68.7 C238.6,68.4 209.2,68.6 182.3,68.9 C170.3,69 158.3,69.4 146.6,70 Z M262,124.8 C261.9,121.8 261.6,114.6 261.7,105.8 C261.5,105.8 261.3,105.9 261.2,105.9 C244.9,109.6 213.4,110.6 186,110.6 C171.5,110.6 158.2,110.3 148.8,110.1 C150.1,119.5 151.4,126.8 151.6,128 L262,124.8 Z M337.2,122.6 C340,103.5 350.1,91.3 360,79.5 C360.3,79.2 360.5,78.9 360.7,78.6 C325.4,88.7 282.9,100.8 263.7,105.4 C263.6,114.5 263.9,121.8 264,124.8 L337.2,122.6 Z M444.8,61.8 C443.5,61.3 441.5,61.3 439.9,61.5 C439.7,61.5 439.6,61.6 439.6,61.6 C439.6,61.8 439.8,62.4 440.7,63.8 C441.4,65 443.6,65.6 445.1,65.8 L444.9,62.2 C444.9,62.1 444.9,62.1 444.9,62 C444.8,62 444.8,61.9 444.8,61.8 Z M444.1,59.6 C443.8,58.9 443.3,58.2 442.8,57.6 C439.9,55.7 436.8,55.9 434,56.4 C432.8,56.6 432.6,57.1 432.5,57.2 C431.8,58.5 433.3,61.9 434.7,65.1 C436.7,69.3 442.2,70.8 445.1,71.2 C445.1,70.5 445.1,69.7 445.1,68.9 L445,67.9 C443.4,67.7 440.1,67.1 438.7,64.9 C437.6,63 437,61.8 437.5,60.8 C437.8,60.2 438.4,59.8 439.4,59.7 C440.1,59.5 442.1,59.3 444.1,59.6 Z M434.2,54.2 L417.5,54.8 C415.7,54.9 413.1,56.5 413.1,57.3 C413.1,57.5 413.2,57.6 413.3,57.7 L427.2,67.2 C432.3,70.4 438.5,71.9 442.5,72.6 C439.2,71.7 434.8,69.9 433,65.8 C430.8,61.2 429.8,58.1 430.8,56.1 C431.3,55.1 432.3,54.5 433.7,54.2 C433.8,54.3 434,54.3 434.2,54.2 Z M448.3,56.5 L441.5,49.4 C439.5,49.3 432.6,48.5 424,45.4 C423.7,45.4 423.4,45.3 423.1,45.1 C412.3,41 399,33 389.1,17.6 C351.2,10 273.2,-1.2 211.1,18.4 C208.4,19.7 204.9,21.4 200.9,23.2 C189.1,28.8 173,36.4 164.2,41 C152.1,47.3 145.3,48.6 142.6,48.9 C142.3,49.1 142.1,49.2 141.9,49.3 C140.5,50 138.2,50.5 134.9,50.8 C128.3,56.9 119.7,60.9 110.5,62.3 C106.9,62.8 102.9,63.3 99,63.7 C95.8,64.1 92.5,64.5 89.5,64.9 C79.2,66.3 65.8,68.6 57.3,70.1 C59.3,70.9 61,72 63,73.3 L63.8,73.8 C63.9,73.9 64,73.9 64.1,74 C70.5,73.4 104.8,70 144.8,68.2 C144.9,67.5 145,66.9 145.2,66.2 C148.8,49.1 166.1,41.1 192.1,29 C194,28.1 195.9,27.2 197.9,26.3 C226.6,12.9 263.1,11.4 277.4,11.4 C278.4,11.4 279.5,11.4 280.7,11.4 C300,11.3 351.4,10.9 378.8,41.4 C382.5,45.6 383.2,50.7 380.5,54.9 C377.2,60.2 372,67.9 366.3,75 C388.2,68.7 406.5,63.3 413,61.4 L411.5,60.3 C410.6,59.7 410,58.6 410,57.5 C410,54.2 414.7,52 417.3,51.9 L435.6,51.3 L435.6,51.3 C441.4,51.3 446.3,55.3 447.5,60.8 L449,60.8 L448.3,56.5 Z M147.8,45.7 C151.3,44.7 156.4,42.8 163.3,39.2 C172.1,34.6 188.3,26.9 200.1,21.4 C204.1,19.5 207.7,17.8 210.4,16.5 L208,15.5 C185.4,23.1 159.5,38.6 147.8,45.7 Z M419.4,17.3 C412.7,15.1 401.4,12.7 388.5,10.6 C389.5,12.5 390.6,14.4 391.7,16.1 C402.6,18.3 409.8,20.2 411.8,20.7 L419.4,17.3 Z M436.9,44.4 C434.5,44.2 429,43.2 424,37.6 C419.8,32.9 415.7,28.4 413.4,26 C414.5,32.3 421.4,39.5 424.7,42.4 C430.3,44.5 435.1,45.5 438.3,45.9 L436.9,44.4 Z M393.3,18.4 C400.5,28.6 409.2,35.1 417.3,39.2 C413.4,34.7 409.2,28.2 410.5,22.4 C407.9,21.7 401.9,20.2 393.3,18.4 Z M415.7,22.2 L413.4,23.2 C414.6,24.5 420,30.2 425.4,36.3 C428.6,39.9 432.1,41.5 434.6,42.1 L415.7,22.2 Z M313.5,3 C290.5,3 240.2,5.4 210.9,14.5 L212.5,15.2 C212.6,15.3 212.7,15.3 212.8,15.5 C213,15.5 213.1,15.6 213.3,15.6 C274.3,-2.6 349.6,7.8 387.7,15.3 C386.7,13.7 385.8,12 384.9,10.2 C384.9,10.1 384.8,10.1 384.8,10 C361.7,6.3 334.3,3.3 318.5,3.1 C316.9,3 315.2,3 313.5,3 Z M25.7,67.4 C25.6,67.4 25.6,67.4 25.5,67.5 C29.3,68.4 34.1,70.1 36.7,72.9 L42.7,70.7 C46.1,69.5 48.9,68.9 51.5,68.9 C51.8,68.9 52.1,68.9 52.5,68.9 C59.8,67.6 76.9,64.6 89.5,62.9 C92.6,62.5 95.9,62.1 99.1,61.7 C103,61.3 107,60.8 110.5,60.3 C118.4,59.1 125.9,55.9 131.8,51 C130.1,51.1 128.1,51.1 126,51.1 C122.7,51.1 120.1,51 119.7,51 C82.5,52.6 44.8,62 25.7,67.4 Z M4.7,87.3 L4.3,90.2 L7.1,90.7 C7.2,90.7 7.3,90.7 7.3,90.7 L11,91.4 L11.1,91.1 C11.1,90.9 11.2,90.8 11.2,90.6 L8,89.4 C7.3,89.2 6.9,88.5 7,87.8 L7.8,81.9 L5.5,82.2 L4.7,87.3 Z M5.3,93.4 L3.9,93.2 L3.4,96.6 C3.3,97.5 3.7,98.3 4.4,98.7 L4.4,98.7 L5.3,93.4 Z M7.6,98 C8.4,97.1 9.2,95.9 10,94.2 L8.3,93.9 L8.3,93.9 L7.6,98 Z M13.2,80.9 C13,80.6 12.4,80.3 11,80.2 C11,80.2 11,80.2 11,80.3 L10.1,87 L12.2,87.7 C13.2,84.3 13.8,81.8 13.2,80.9 Z M15.5,127.9 L14.3,128.7 L18.1,131.1 L15.5,127.9 Z M14.2,126.3 L13.1,124.9 L10.7,126.5 L12.4,127.6 L14.2,126.3 Z M11.8,123.3 L10.8,122 L5.4,125.8 L8,125.8 L11.8,123.3 Z M9.6,120.5 L8.7,119.4 L5.1,121.8 L5.1,123.6 L9.6,120.5 Z M7.4,117.9 L7.4,117.9 L5.1,117.9 L5.1,119.5 L7.4,117.9 Z M4.1,128.8 C7.3,130 14,132.6 19.4,134.2 L9.2,127.8 L4.7,127.8 L4.1,128.8 Z M55,137.4 C54.9,134.8 54.8,129.4 55.7,122.8 C56.9,114.4 59.9,102.6 67.9,93.8 C68.5,93.1 69.1,92.5 69.8,91.9 L56,84.3 L51.6,88.7 C50.1,90.2 48.3,91.1 46.2,91.5 L16.8,96.8 C14.9,98.5 12.1,101.6 11.2,105 C11.1,105.4 10.7,105.7 10.2,105.7 C10.1,105.7 10,105.7 9.9,105.7 C9.4,105.6 9,105 9.2,104.5 C10.2,100.9 12.8,97.8 14.8,95.8 C14.6,95.4 14.5,94.9 14.6,94.4 L17.1,87.3 C19,82 23.1,77.8 28.4,75.8 L34.6,73.5 C31.5,70.9 25.5,69.3 21.9,68.6 C17.3,70.4 13.1,73.1 9.5,76.4 L10.6,77 C12.4,77.1 14.6,77.4 15.7,79 C17.2,81.1 16.5,84.2 14.7,89.9 C14.7,89.9 14.7,89.9 14.7,89.9 C14.7,89.9 14.7,89.9 14.7,89.9 C14.5,90.5 14.3,91.1 14.1,91.7 L14,92.1 C13.9,92.6 13.7,93 13.6,93.4 C13.6,93.4 13.6,93.4 13.6,93.4 C11.3,99.7 8,101.8 6,102.5 L3,104.9 L3,114.8 L8.1,114.8 C8.6,114.8 9,115 9.3,115.4 L25.7,135.7 C34.2,136.9 49.9,137.3 55,137.4 Z M128.6,122.8 C128.6,105.6 114.6,91.6 97.4,91.6 C80.2,91.6 66.2,105.6 66.2,122.8 C66.2,140 80.2,154 97.4,154 C114.6,154 128.6,140 128.6,122.8 Z M131.6,122.8 C131.6,126.1 131.1,129.2 130.3,132.2 L138.1,132.2 C138,123.2 136.2,106.7 126.3,95.8 C119.6,88.4 110.2,84.7 98.3,84.7 C86.4,84.7 76.9,88.5 70.1,95.9 C60.1,106.8 58.2,123.3 58,132.3 L64.6,132.3 C63.7,129.3 63.3,126.1 63.3,122.9 C63.3,104.1 78.6,88.7 97.5,88.7 C116.4,88.7 131.6,104 131.6,122.8 Z M342.4,135.9 C342.4,134.6 342.4,132.8 342.5,130.6 L288,132.5 C288,132.5 288,132.5 288,132.5 C287.5,132.5 287,132.1 287,131.5 C287,130.9 287.4,130.5 288,130.5 L342.6,128.6 C342.7,127.6 342.8,126.6 342.9,125.5 L141.1,131.4 C141.1,131.7 141.1,132.1 141.1,132.4 L254.2,130.1 C254.8,130.1 255.2,130.5 255.2,131.1 C255.2,131.7 254.8,132.1 254.2,132.1 L141,134.4 C141,135.7 140.9,136.7 140.9,137.5 L342.4,135.9 Z M414.9,122.8 C414.9,105.6 400.9,91.6 383.7,91.6 C366.5,91.6 352.5,105.6 352.5,122.8 C352.5,140 366.5,154 383.7,154 C401,154 414.9,140 414.9,122.8 Z M423.5,128 C423,121.1 420.9,106.1 411.1,96 C404.5,89.3 395.6,85.9 384.6,85.9 C373.3,85.9 364.3,89.4 357.8,96.3 C347.5,107.1 345.7,123.6 345.5,132.3 L351,132.3 C350.1,129.3 349.7,126.1 349.7,122.9 C349.7,104.1 365,88.7 383.9,88.7 C402.7,88.7 418.1,104 418.1,122.9 C418.1,124.7 418,126.4 417.7,128.1 L423.5,128.1 L423.5,128 Z M426.6,130 C429.7,129.6 436.6,128.6 442.3,128 L453.7,116.8 C446.3,118.2 430.7,120.6 425.7,121.3 C426.4,125 426.6,128.1 426.6,130 Z M455.3,118 L445.5,127.6 C445.7,127.6 445.9,127.6 446.1,127.5 C451.7,127 454.6,120.2 455.3,118 Z M51.1,125.6 C51.4,126 51.3,126.7 50.9,127 C50.7,127.1 50.5,127.2 50.3,127.2 C50,127.2 49.7,127.1 49.5,126.8 C49.2,126.4 48.9,126 48.6,125.6 L36,125.6 C29.9,125.6 24.4,121.7 22.4,115.9 L21.3,112.7 C19.3,112.8 17.3,113 15.2,113.3 C14.7,113.4 14.1,113 14.1,112.5 C14,112 14.4,111.4 14.9,111.4 C17.3,111 19.7,110.8 21.9,110.8 C22,110.8 22.1,110.8 22.1,110.8 C33.4,110.6 42.6,115 49.8,124 C49.9,124 49.9,124.1 49.9,124.2 C50.3,124.6 50.7,125.1 51.1,125.6 Z M36.1,115.5 L28.1,120.9 C29,121.7 30.1,122.3 31.2,122.8 L39.4,117.4 C38.3,116.6 37.2,116 36.1,115.5 Z M26.8,113 C25.7,112.9 24.5,112.8 23.3,112.8 L24,114.9 L26.8,113 Z M26.6,119.4 L33.8,114.6 C32.5,114.1 31.1,113.7 29.6,113.4 L24.7,116.7 C25.3,117.7 25.9,118.6 26.6,119.4 Z M36,123.7 L39.4,123.7 L43.9,120.7 C43,119.9 42.1,119.2 41.2,118.5 L33.7,123.5 C34.5,123.6 35.2,123.7 36,123.7 Z M46.9,123.7 C46.4,123.1 45.9,122.6 45.4,122.1 L43,123.7 L46.9,123.7 Z M411,122.8 C411,137.8 398.8,150.1 383.7,150.1 C368.6,150.1 356.4,137.9 356.4,122.8 C356.4,107.7 368.6,95.5 383.7,95.5 C398.8,95.5 411,107.8 411,122.8 Z M408,122.8 C408,109.4 397.1,98.5 383.7,98.5 C370.3,98.5 359.4,109.4 359.4,122.8 C359.4,136.2 370.3,147.1 383.7,147.1 C397.1,147.1 408,136.2 408,122.8 Z M393.8,141.2 C394,141.6 394.1,142 394,142.4 C393.9,142.8 393.6,143.1 393.2,143.3 C390.2,144.7 387.1,145.3 383.8,145.3 C380.6,145.3 377.4,144.6 374.5,143.3 C374.1,143.1 373.8,142.8 373.7,142.4 C373.6,142 373.6,141.5 373.9,141.2 L380.5,130.4 C380.9,129.8 381.6,129.5 382.2,129.7 C383.3,130 384.4,130.1 385.6,129.8 C386.2,129.6 386.9,129.9 387.2,130.5 L393.8,141.2 Z M390.3,141.2 L385.2,132.9 C384.3,133 383.3,133 382.4,132.8 L377.3,141.2 C381.5,142.7 386.1,142.7 390.3,141.2 Z M384.8,115.8 L385.8,102 C385.8,101.6 386,101.2 386.4,100.9 C386.7,100.6 387.2,100.5 387.6,100.6 C395.1,101.9 401.4,106.8 404.5,113.8 C404.7,114.2 404.7,114.6 404.5,115 C404.3,115.4 404,115.7 403.6,115.8 L391.2,120.5 C391,120.6 390.8,120.6 390.7,120.6 C390.2,120.6 389.7,120.4 389.5,119.9 C388.7,118.7 387.4,117.7 386,117.3 C385.2,117.1 384.8,116.5 384.8,115.8 Z M387.9,114.9 C389.1,115.5 390.2,116.3 391.1,117.3 L400.9,113.6 C398.3,108.8 393.9,105.3 388.6,103.9 L387.9,114.9 Z M406.3,122.8 C406.3,128.7 404,134.2 400,138.5 C399.7,138.8 399.3,139 398.9,139 C398.9,139 398.9,139 398.9,139 C398.5,139 398.1,138.8 397.8,138.5 L389.2,129.4 C388.7,128.9 388.7,128 389.1,127.5 C389.8,126.5 390.3,125.4 390.4,124.2 C390.5,123.5 391,123 391.7,122.9 L404.6,120.8 C405,120.7 405.5,120.8 405.8,121.1 C406.1,121.4 406.3,121.8 406.3,122.2 L406.3,122.4 C406.3,122.5 406.3,122.7 406.3,122.8 Z M403.3,124 L393.2,125.6 C393,126.5 392.7,127.3 392.2,128.1 L398.8,135.2 C401.5,132 403,128.1 403.3,124 Z M363.1,115 C362.9,114.6 362.9,114.2 363.1,113.8 C365.9,107.3 371.7,102.5 378.6,100.9 C379,100.8 379.4,100.9 379.8,101.1 C380.1,101.3 380.4,101.7 380.4,102.1 L382.4,115.9 C382.5,116.6 382.1,117.2 381.5,117.5 C380.3,118 379.3,118.9 378.5,120 C378.2,120.4 377.7,120.7 377.2,120.7 C377,120.7 376.8,120.7 376.7,120.6 L363.9,115.8 C363.6,115.7 363.3,115.4 363.1,115 Z M366.6,113.6 L376.8,117.4 C377.5,116.5 378.4,115.8 379.3,115.3 L377.7,104.3 C373,105.8 369,109.2 366.6,113.6 Z M378.6,129.1 L369.9,138.6 C369.6,138.9 369.2,139.1 368.8,139.1 C368.8,139.1 368.8,139.1 368.8,139.1 C368.4,139.1 368,138.9 367.7,138.6 C363.6,134.4 361.3,128.8 361.3,122.9 C361.3,122.8 361.3,122.7 361.3,122.5 L361.3,122.3 C361.3,121.9 361.5,121.5 361.8,121.2 C362.1,120.9 362.6,120.8 363,120.9 L376.3,122.9 C377,123 377.5,123.5 377.6,124.2 C377.7,125.3 378.1,126.3 378.7,127.2 C379.1,127.8 379.1,128.6 378.6,129.1 Z M375.6,127.9 C375.2,127.2 375,126.5 374.8,125.7 L364.3,124.1 C364.6,128.2 366.1,132.1 368.8,135.3 L375.6,127.9 Z M383.8,118.7 C386.3,118.7 388.4,120.8 388.4,123.3 C388.4,125.8 386.3,127.9 383.8,127.9 C381.3,127.9 379.2,125.8 379.2,123.3 C379.2,120.8 381.3,118.7 383.8,118.7 Z M382.2,123.3 C382.2,124.2 382.9,124.9 383.8,124.9 C384.7,124.9 385.4,124.2 385.4,123.3 C385.4,122.4 384.7,121.7 383.8,121.7 C382.9,121.7 382.2,122.4 382.2,123.3 Z M124.7,122.8 C124.7,137.8 112.5,150.1 97.4,150.1 C82.4,150.1 70.1,137.9 70.1,122.8 C70.1,107.7 82.3,95.5 97.4,95.5 C112.4,95.5 124.7,107.8 124.7,122.8 Z M121.7,122.8 C121.7,109.4 110.8,98.5 97.4,98.5 C84,98.5 73.1,109.4 73.1,122.8 C73.1,136.2 84,147.1 97.4,147.1 C110.8,147.1 121.7,136.2 121.7,122.8 Z M107.4,141.2 C107.6,141.6 107.7,142 107.6,142.4 C107.5,142.8 107.2,143.1 106.8,143.3 C103.8,144.7 100.7,145.3 97.4,145.3 C94.2,145.3 91,144.6 88.1,143.3 C87.7,143.1 87.4,142.8 87.3,142.4 C87.2,142 87.2,141.5 87.5,141.2 L94.1,130.4 C94.5,129.8 95.2,129.5 95.8,129.7 C96.9,130 98,130.1 99.2,129.8 C99.8,129.6 100.5,129.9 100.8,130.5 L107.4,141.2 Z M103.9,141.2 L98.8,132.9 C97.9,133 96.9,133 96,132.8 L90.9,141.2 C95.1,142.7 99.8,142.7 103.9,141.2 Z M98.4,115.8 L99.4,102 C99.4,101.6 99.6,101.2 100,100.9 C100.3,100.6 100.8,100.5 101.2,100.6 C108.7,101.9 115,106.8 118.1,113.8 C118.3,114.2 118.3,114.6 118.1,115 C117.9,115.4 117.6,115.7 117.2,115.8 L104.8,120.5 C104.6,120.6 104.4,120.6 104.3,120.6 C103.8,120.6 103.3,120.4 103.1,119.9 C102.3,118.7 101,117.7 99.6,117.3 C98.8,117.1 98.4,116.5 98.4,115.8 Z M101.5,114.9 C102.7,115.5 103.8,116.3 104.7,117.3 L114.5,113.6 C111.9,108.8 107.5,105.3 102.2,103.9 L101.5,114.9 Z M119.9,122.8 C119.9,128.7 117.6,134.2 113.6,138.5 C113.3,138.8 112.9,139 112.5,139 C112.5,139 112.5,139 112.5,139 C112.1,139 111.7,138.8 111.4,138.5 L102.8,129.4 C102.3,128.9 102.3,128 102.7,127.5 C103.4,126.5 103.9,125.4 104,124.2 C104.1,123.5 104.6,123 105.3,122.9 L118.2,120.8 C118.6,120.7 119.1,120.8 119.4,121.1 C119.7,121.4 119.9,121.8 119.9,122.2 L119.9,122.4 C119.9,122.5 119.9,122.7 119.9,122.8 Z M116.9,124 L106.8,125.6 C106.6,126.5 106.3,127.3 105.8,128.1 L112.4,135.2 C115.1,132 116.6,128.1 116.9,124 Z M76.8,115 C76.6,114.6 76.6,114.2 76.8,113.8 C79.6,107.3 85.4,102.5 92.3,100.9 C92.7,100.8 93.1,100.9 93.5,101.1 C93.8,101.3 94.1,101.7 94.1,102.1 L96.1,115.9 C96.2,116.6 95.8,117.2 95.2,117.5 C94,118 93,118.9 92.2,120 C91.9,120.4 91.4,120.7 90.9,120.7 C90.7,120.7 90.5,120.7 90.4,120.6 L77.6,115.8 C77.2,115.7 76.9,115.4 76.8,115 Z M80.2,113.6 L90.4,117.4 C91.1,116.5 92,115.8 92.9,115.3 L91.3,104.3 C86.6,105.8 82.6,109.2 80.2,113.6 Z M92.2,129.1 L83.5,138.6 C83.2,138.9 82.8,139.1 82.4,139.1 C82.4,139.1 82.4,139.1 82.4,139.1 C82,139.1 81.6,138.9 81.3,138.6 C77.2,134.4 74.9,128.8 74.9,122.9 C74.9,122.8 74.9,122.7 74.9,122.5 L74.9,122.3 C74.9,121.9 75.1,121.5 75.4,121.2 C75.7,120.9 76.2,120.8 76.6,120.9 L89.9,122.9 C90.6,123 91.1,123.5 91.2,124.2 C91.3,125.3 91.7,126.3 92.3,127.2 C92.7,127.8 92.7,128.6 92.2,129.1 Z M89.2,127.9 C88.8,127.2 88.6,126.5 88.4,125.7 L77.9,124.1 C78.2,128.2 79.7,132.1 82.4,135.3 L89.2,127.9 Z M97.4,118.7 C99.9,118.7 102,120.8 102,123.3 C102,125.8 99.9,127.9 97.4,127.9 C94.9,127.9 92.8,125.8 92.8,123.3 C92.8,120.8 94.9,118.7 97.4,118.7 Z M95.8,123.3 C95.8,124.2 96.5,124.9 97.4,124.9 C98.3,124.9 99,124.2 99,123.3 C99,122.4 98.3,121.7 97.4,121.7 C96.5,121.7 95.8,122.4 95.8,123.3 Z M234.5,60.3 C235.1,58.1 237.9,56.7 243.1,55.8 C255.3,53.7 263,56.5 263.4,56.7 C263.6,56.8 263.9,57 264,57.2 C264.1,57.4 264.1,57.7 264,58 C263.9,58.1 263,60.6 259.2,62.3 C259.2,62.3 259.1,62.4 259.1,62.4 C258.1,62.9 256.6,63.3 254.8,63.6 C254.7,63.6 254.6,63.6 254.5,63.7 C254.5,63.7 254.4,63.7 254.4,63.7 C249.1,64.5 241.8,64.7 238.5,64.7 C237.5,64.7 236.9,64.7 236.7,64.7 C236.7,64.7 236.6,64.7 236.6,64.7 C236.5,64.7 236.5,64.7 236.4,64.7 C236.3,64.7 236.2,64.6 236.1,64.6 C236.1,64.6 236,64.6 236,64.6 C235.8,64.2 233.9,62.5 234.5,60.3 Z M253.2,61.7 C253.2,61.7 253.2,61.6 253.1,61.6 C252.8,61.2 251.7,60.4 247.9,60.8 C241.6,61.4 239.3,61.7 238.5,62.6 C242.3,62.6 248.5,62.4 253.2,61.7 Z M236.5,61.7 C237.7,59.7 241.1,59.3 247.7,58.8 C251.3,58.5 253.6,59 254.7,60.4 C255,60.8 255.1,61.1 255.2,61.4 C258.8,60.6 260.6,59.1 261.4,58.2 C259.7,57.8 256.4,57.1 251.7,57.1 C249.2,57.1 246.4,57.3 243.4,57.8 C237.6,58.8 236.6,60.3 236.4,60.9 C236.3,61.1 236.4,61.5 236.5,61.7 Z M364.5,55.1 C364.6,55.3 364.6,55.6 364.5,55.9 C364.4,56 363.5,58.5 359.7,60.2 C359.7,60.2 359.6,60.3 359.6,60.3 C358.6,60.8 357.1,61.2 355.3,61.5 C355.2,61.5 355.1,61.5 355,61.6 C355,61.6 354.9,61.6 354.9,61.6 C349.6,62.4 342.3,62.6 338.9,62.6 C337.9,62.6 337.3,62.6 337.1,62.6 C337.1,62.6 337,62.6 337,62.6 C336.9,62.6 336.9,62.6 336.8,62.6 C336.7,62.6 336.6,62.5 336.5,62.5 C336.5,62.5 336.4,62.5 336.4,62.5 C336.3,62.4 334.3,60.7 335,58.5 C335.6,56.3 338.4,54.9 343.6,54 C355.8,51.9 363.5,54.7 363.9,54.9 C364.2,54.7 364.4,54.9 364.5,55.1 Z M353.7,59.7 C353.7,59.7 353.7,59.6 353.6,59.6 C353.3,59.2 352.2,58.4 348.4,58.8 C342.1,59.4 339.8,59.7 339,60.6 C342.9,60.5 349.1,60.3 353.7,59.7 Z M362,56.1 C360.3,55.7 357,55 352.3,55 C349.8,55 347,55.2 344,55.7 C338.2,56.7 337.2,58.2 337,58.8 C336.9,59.1 337,59.4 337.1,59.7 C338.3,57.6 341.7,57.3 348.3,56.8 C351.9,56.5 354.2,57 355.3,58.4 C355.6,58.8 355.7,59.1 355.8,59.4 C359.4,58.5 361.2,57.1 362,56.1 Z" id="Shape"></path>
        </g>
    </g>
</svg>
