<?xml version="1.0" ?><!DOCTYPE svg  PUBLIC '-//W3C//DTD SVG 1.1//EN'  'http://www.w3.org/Graphics/SVG/1.1/DTD/svg11.dtd'><svg enable-background="new 0 0 584.4 173.5" id="Layer_1" version="1.1" viewBox="0 0 584.4 173.5" xml:space="preserve" xmlns="http://www.w3.org/2000/svg" xmlns:xlink="http://www.w3.org/1999/xlink"><path d="M290.4,35.9c-0.2-0.5,0-1.1,0.5-1.3l10.7-4.8c0.5-0.2,1.1,0,1.3,0.5c0.2,0.5,0,1.1-0.5,1.3l-10.7,4.8  c-0.1,0.1-0.3,0.1-0.4,0.1C291,36.5,290.6,36.2,290.4,35.9z M289.4,36.4c-0.2-0.5-0.8-0.7-1.3-0.5l-6.2,2.8  c-0.5,0.2-0.7,0.8-0.5,1.3c0.2,0.4,0.5,0.6,0.9,0.6c0.1,0,0.3,0,0.4-0.1l6.2-2.8C289.4,37.5,289.6,36.9,289.4,36.4z M310.1,31.1  L288,41.1c-0.5,0.2-0.7,0.8-0.5,1.3c0.2,0.4,0.5,0.6,0.9,0.6c0.1,0,0.3,0,0.4-0.1L311,33c0.5-0.2,0.7-0.8,0.5-1.3  C311.2,31.1,310.6,30.9,310.1,31.1z M366.3,35.9c0.1,0,0.3,0,0.4-0.1l10.7-4.8c0.5-0.2,0.7-0.8,0.5-1.3c-0.2-0.5-0.8-0.7-1.3-0.5  L365.9,34c-0.5,0.2-0.7,0.8-0.5,1.3C365.5,35.7,365.9,35.9,366.3,35.9z M356.3,39.5c0.2,0.4,0.5,0.6,0.9,0.6c0.1,0,0.3,0,0.4-0.1  l6.2-2.8c0.5-0.2,0.7-0.8,0.5-1.3c-0.2-0.5-0.8-0.7-1.3-0.5l-6.2,2.8C356.3,38.4,356.1,39,356.3,39.5z M362.4,41.8  c0.2,0.4,0.5,0.6,0.9,0.6c0.1,0,0.3,0,0.4-0.1l22.1-9.9c0.5-0.2,0.7-0.8,0.5-1.3c-0.2-0.5-0.8-0.7-1.3-0.5l-22.1,9.9  C362.4,40.7,362.2,41.3,362.4,41.8z M582.4,118.2l-1.2,0.6c0.8,1.2,1.7,3,1.8,4.5c0,0,0,0,0,0.1c0,0,0,0.1,0,0.1c0,0,0,0,0,0.1  c0,0.1,0,0.1,0,0.2c-0.1,1.8-1.7,3.4-3,4.6c-0.3,0.3-0.7,0.6-0.9,0.9v3.2c0,0.6-0.4,1.2-1,1.4c-0.1,0.1-4.7,1.7-12.1,4  c-0.1,0-0.1,0-0.2,0.1c-15.5,4.7-43,12-66.8,12c-0.4,0-0.8-0.2-1.1-0.5s-0.4-0.7-0.4-1.2c0,0,0,0,0,0h-8  c-5.9,14.9-20.4,25.4-37.4,25.4c-16.9,0-31.5-10.5-37.4-25.4c-0.1,0-0.2,0-0.2,0h-7.2c0.2,0.8,0.4,1.7,0.6,2.5  c0.1,0.4,0,0.9-0.3,1.3c-0.3,0.4-0.7,0.6-1.2,0.6H157.9c-0.4,0-0.8-0.2-1.1-0.5c-0.3-0.3-0.4-0.7-0.4-1.1c0-0.1,0.1-1.1,0.1-2.7  h-7.9c-0.1,0-0.2,0-0.3,0c-5.9,14.9-20.4,25.4-37.4,25.4c-16.9,0-31.4-10.5-37.4-25.4h-6c0.2,0.8,0.4,1.6,0.7,2.4  c0.2,0.5,0.1,1-0.2,1.4c-0.3,0.4-0.7,0.6-1.2,0.6c0,0,0,0-0.1,0L26,150.5c-1.7-0.1-3.3-0.6-4.7-1.4l-17.7-3.3  c-0.6-0.1-1-0.5-1.1-1.1c-0.1-0.6,0.3-1.1,0.9-1.3l6.5-1.9c-0.4-0.1-0.9-0.3-1.3-0.4l-4.9-1.2c-0.6-0.2-1.1-0.7-1.1-1.4  c0-0.7,0.3-1.3,1-1.5c1.3-0.5,2.3-1.5,2.8-2.8c0.5-1.3,0.5-2.6-0.1-3.9l-1.4-3c-0.1-0.2-0.1-0.4-0.1-0.6v-4.9H1.5  c-0.8,0-1.5-0.7-1.5-1.5V118c0-0.7,0.4-1.3,1.1-1.4c0,0,1-0.3,2.4-1l-1.7-0.8c-0.6-0.3-0.9-0.8-0.9-1.4L2,95.1c0-0.5,0.3-1,0.8-1.2  l4.7-2.4l-4.2-1.2c-0.5-0.2-1-0.6-1.1-1.2c-0.1-0.6,0.1-1.1,0.6-1.5c0.8-0.6,20.8-14.8,75.8-25.1c52-9.8,98.5-11,103.4-11.1  c5-3.2,59.2-37.3,94.8-45.1C296,2.1,316.4,0,337.8,0c27.6,0,56.6,3.5,86.3,10.3c43.7,10.1,87.8,31,92.6,33.3  c0.9-0.1,2.7-0.3,5.4-0.3c2.7,0,5.4,0.2,8.1,0.6c1.8,0.3,4.2,0.7,7,1.3c7.6,1.4,18.1,3.4,24.4,3.4c1.5,0,2.7-0.1,3.5-0.3  c0.4-0.1,0.8,0,1.2,0.2c0.4,0.2,0.6,0.6,0.6,1c0.5,3.2,1.8,8.9,3.4,10.7c2.7,3,3.5,5.5,3.6,5.6c0.1,0.4,0.1,0.9-0.1,1.2  c-0.2,0.3-0.4,0.5-0.7,0.6c2.1,3.7,6.3,11.8,6.3,16.3v5.8c1.2,1.5,4.8,6.2,5,11c0.2,5.3-1.1,15.8-1.1,16.2  C583.1,117.5,582.9,117.9,582.4,118.2z M492.6,107l86.6-12.3c-1.2-2-2.4-3.4-2.5-3.4c0,0,0,0,0,0h-4.1c-0.4,0-0.8-0.3-1-0.7  c0-0.1-1.5-5-4.5-10.9c-6.8-0.3-26.8-1.3-34.3-2.1c-1.7-0.2-3.4-0.6-4.9-1.1c-2.5,4.1-11.9,8.3-28,12.4c-8.3,2.2-16.3,3.8-20.6,4.6  c2.8,1.9,5.4,4.1,7.7,6.6c2,2.2,3.6,4.5,5.1,7C492.4,107.1,492.5,107.1,492.6,107z M110.9,86.6l0.6,0c13.8,0,24.9,4.5,33,13.2  c9,9.8,12.6,23.2,13.9,32.7c0.3,1.8,0.4,3.5,0.6,5.1h34.4c-1.3-8.4-6.8-47.3-4.5-65.9c-2,0.1-3.8,0.1-5.5,0.2  c-52.2,1.2-102,10.3-110,11.9c-0.4,0.7-0.8,1.4-1.3,2.1l13.9,6.9C93.2,88.8,101.5,86.7,110.9,86.6z M24.1,101.8c1.2-3,3-6.2,6.1-7.3  C41,90.4,58,85.4,65.6,83.2c-0.5,0-1.1,0-1.7,0c-6.5,0-18.3,1.7-37.2,10.1c-1.6,0.7-2.7,2.3-2.6,4.1C24.1,99,24.1,100.4,24.1,101.8z   M69.9,84c-2.7,0.8-25.6,7.2-39,12.3c-4.2,1.6-5.8,8.2-6.3,11.2C34.7,104.7,61.9,95.9,69.9,84z M191.4,69.7  c16.1-0.6,40.6-1.8,70.3-3.3c26.7-1.3,57.2-2.9,88.4-4.2c-2.2-5.2-5.1-8-5.5-8.4c-0.4,0-0.8,0-1.1,0c-23.3,0.7-100.9,4-104.2,4.2  c-1.6,0.3-3.1,0.4-4.6,0.4l-3.5,3.5c-0.2,0.2-0.4,0.3-0.7,0.3h-13.2c-0.4,0-0.7-0.2-0.9-0.6c-0.2-0.4-0.1-0.8,0.1-1.1l1.5-1.8  L197.2,60c-2.7,2.6-4.5,5-5.2,7.1C191.7,67.9,191.5,68.7,191.4,69.7z M219.5,60.1h10.7l1.9-1.9c-4.7-0.4-7.4-1.9-8.6-2.8L219.5,60.1  z M220.5,49.8C220.5,49.8,220.5,49.8,220.5,49.8l-4.7,2.8l5.1-0.4C220.6,51.4,220.4,50.6,220.5,49.8z M247.5,51.7c0.7-1,1-2.1,1-3.3  h-12.6v-2h12.3c-0.1-0.4-0.2-0.7-0.3-1.1c-1.4-3.7-4.2-5.6-8.3-5.6c-4,0-8.2,1.8-10.5,3.6c-0.5,0.4-0.9,0.7-1.4,1.1  c-2.6,1.9-5,3.7-5.2,5.7c-0.1,1,0.4,2.1,1.5,3.4c0,0,2.5,2.7,9.4,3c0.3,0,0.7,0,1.1,0C239,56.4,245.1,55.2,247.5,51.7z M346.8,46.9  l83.1-3.9c-11.2-5.5-40.3-18.2-75.3-22.8L346.8,46.9z M351.6,19.9c-28-3.2-68.4-2.5-109.1,18.1c2.8,0.7,5.6,2.4,7.2,6.6  c1,2.6,1,4.9,0.2,6.9l93.7-4.4L351.6,19.9z M246,55.7c19.5-0.8,75.6-3.2,96.2-3.8l0.5-1.7l-93.2,4.3c0,0-1.1,0-1.9,0  C247.1,54.9,246.6,55.3,246,55.7z M434.6,47.6c4.4-0.4,6.1-1.3,6.2-2.1c0.3-3-13.4-11.7-45.1-21.8c-28.9-9.2-49.8-10.4-80.6-9.5  c-43.3,1.3-95.9,26.3-115.6,43.6l20.3-1.3l1.1-1.3l-11,0.8c0,0-0.1,0-0.1,0c-0.6,0-1.2-0.4-1.4-1c-0.2-0.7,0-1.4,0.6-1.7l19.3-12  c0,0,0.1,0,0.1,0c1.7-1.2,4-2.3,6.6-2.9c1.3-0.6,2.7-1.2,3-1.4c43.5-22.9,87.4-23.3,116.5-19.6c45.7,5.8,81.5,25.5,81.8,25.7  c0.6,0.3,0.9,1,0.7,1.7c-0.2,0.7-0.7,1.1-1.4,1.2L345.9,50l-0.5,1.8C370.6,51,417.7,48.9,434.6,47.6z M337.3,64.9l-0.2,0  c-6,0-13.7,1.2-15.1,2.9c-0.1,0.2-0.1,0.2-0.1,0.3c0.2,1.1,1.7,1.8,3,2.1c0-0.3,0-0.7,0.1-1c0.8-1.8,4-2,8.8-2.2  c0.8,0,1.6-0.1,2.5-0.1c0.5,0,1,0,1.4,0c1.5,0,3.3,0.2,3.7,1.5c0.1,0.2,0.1,0.5,0.1,0.7c1.2-0.2,2.4-0.9,3.1-1.7  c0.3-0.3,0.5-0.7,0.4-0.9C345,65.9,344.4,64.9,337.3,64.9z M191,71.7c-2.4,18.1,3.4,58.3,4.5,65.9c51-0.2,135.8-8.3,143.8-9.1  c1.5-4,10.8-28.6,13.1-46.5c1-7.5,0-13.4-1.6-17.9c-1.6,0.1-3.2,0.1-4.8,0.2c0.6,0.4,0.9,1,1,1.7c0.1,0.8-0.2,1.7-0.9,2.4  c-1.2,1.4-3.3,2.3-5.3,2.4c-0.8,0-1.2,0-1.4,0c-1.1,0-1.2-0.8-1.2-1c0-0.8,0.6-1,1-1.1c0,0,0.1-0.1,0.1-0.1  c-0.3-0.1-0.8-0.2-1.7-0.2c-0.4,0-0.8,0-1.2,0c-0.9,0.1-1.7,0.1-2.5,0.1c-2.6,0.1-6.6,0.3-7.1,1c0,0,0.1,0.2,0.4,0.7  c0.2,0.2,0.4,0.5,0.4,0.8c0,0.6-0.4,1-1,1c0,0,0,0,0,0c0,0,0,0,0,0c-0.3,0-6.2-0.3-6.7-4.1c-0.1-0.5,0-1.1,0.6-1.8  c0.3-0.4,0.7-0.7,1.3-1c-21.1,1-41.5,2-59.9,2.9C231.8,69.9,207.2,71.1,191,71.7z M159.5,142.4l244-2.6c-0.2-4.7,0.2-9.4,1.1-14  h-62.1c-0.9,2.5-1.5,4-1.5,4.1c-0.1,0.3-0.5,0.6-0.8,0.6c-0.9,0.1-92.1,9.1-145.4,9.1h-35.5C159.4,140.6,159.4,141.6,159.5,142.4z   M414.5,103.5c6.2-8,17.6-17.4,37.3-17.4l0.5,0c9.6,0.1,17.8,2.1,24.7,5.9c13-2.3,44.2-9.2,49.2-16.2c-5.8-2.4-9.5-6.3-9.7-6.5  c-0.3-0.4-0.5-0.9-0.4-1.3c0.5-2.3,3.5-4.7,22.2-5.2c6-0.2,11.9-0.1,15.8,0c-0.1-0.1-0.3-0.2-0.4-0.3C515.2,58.2,432,60.6,353,64  c1.5,4.7,2.4,10.7,1.4,18.3c-1.8,14.1-7.9,32.2-11.2,41.4H405C406.8,116.3,410,109.3,414.5,103.5z M569.3,76.8  c0.5-0.1,0.8-0.2,0.8-0.2c0.3-0.6-1.1-3-2.6-4.6l-1.9,0.9c0.7,1.1,1.4,2.3,2,3.4c0.1,0.2,0.2,0.3,0.3,0.5  C568.7,76.8,569.2,76.8,569.3,76.8z M557.5,65.9c-0.1,0-0.2,0-0.4,0c-18-0.7-34.2,0.3-37.6,2.3c0.9,0.8,2.5,2.1,4.6,3.3h38.1  c-1.4-2-2.9-3.8-4.6-5.6H557.5z M528.4,73.4c1.5,0.6,3.2,1,4.9,1.2c6.9,0.8,24.5,1.6,32.3,2c-0.6-1.1-1.2-2.1-1.9-3.2H528.4z   M566.1,70.5c-1.2-1.6-1.8-3.4-2.1-4.6h-3.6c1.5,1.7,2.9,3.5,4.2,5.3L566.1,70.5z M564.3,51.5c-0.2,0-0.5,0-0.7,0.1l-15.8,5.8  c0.4,0.1,0.8,0.3,1.2,0.4c3.1,1.1,5.9,3,8.3,5.2c0.5,0,0.8,0,0.9,0h7c0.8,0,1.4,0.6,1.5,1.3c0,0,0.4,3.3,2.5,5.3  c0,0,4.9,4.8,3.7,8.1c-0.3,0.9-1.2,2-3.4,2.2c0,0,0,0,0,0c2.1,4.4,3.4,8,3.9,9.5h2.9V84c0-4.1-5-13.4-6.9-16.6  c-0.3-0.4-0.3-0.9-0.1-1.4c0.2-0.4,0.5-0.7,0.9-0.8c-0.5-0.8-1.2-1.9-2.2-3C566,59.8,564.8,54.2,564.3,51.5z M522.1,46.3  c-2.8,0-4.7,0.3-5.2,0.3c-0.8,0.3-4.2,1.4-9.7,1.4c-0.8,0-1.6,0-2.4-0.1c4.8,3.9,13.4,4.7,22.3,5.7c5.9,0.6,11.9,1.2,17.5,2.7  l13.4-4.9c-6.5-0.5-14.9-2.1-21.3-3.3c-2.8-0.5-5.2-1-6.9-1.2C527.2,46.5,524.6,46.3,522.1,46.3z M456.3,29.9  c14.9,5.6,33,11.4,41.8,14.1c6.1,1.3,10.9,1.1,13.9,0.7c-10.3-4.8-40.2-18.1-72.6-27.3C440,19.8,442.9,24.8,456.3,29.9z M267.6,11.9  l6.1,1.8c34.3-9.9,67.2-8.1,97.7-4.6c34.9,4,56.4,10,68,14.2c-0.6-0.7-1.1-1.3-1.6-2c-1.2-2-1.6-3.6-1.6-4.7  c-4.3-1.2-8.6-2.3-12.8-3.2C393.9,6.4,365.1,3,337.8,3c-21.1,0-41.4,2.1-60.2,6.2C274.4,9.9,271,10.8,267.6,11.9z M264.2,13  c-28.8,9.8-63.4,30.3-76,38c8.6-2,20-7.9,32.8-14.5c14.8-7.7,31.6-16.3,49.1-21.8L264.2,13z M25.8,79.8c3.2,0.4,8.7,0.4,18.1-1.4  c20.4-3.8,58.8-9.5,82.3-12.1l1.2-0.1c21.3-2.4,39.9-4.5,51.9-11.8c-11.8,0.4-53.7,2.2-100,10.9C55.1,69.9,37.7,75.2,25.8,79.8z   M4.5,103.8l-0.1,1.4l5,0.2l0,0.1l0.9,0c0.1,0,0.2,0,0.3,0c0.1-0.8,0.2-1.5,0.3-2.3l-2.6-0.9c-0.3-0.1-0.6-0.3-0.7-0.5L4.5,103.8z   M4,112.5l1.1,0.5l1.4-5.7l-2.1-0.1L4,112.5z M9.2,108.5l-0.7,2.9c0.6-0.8,1.1-1.8,1.4-2.9L9.2,108.5z M11.3,92.5l-1.2-0.3  c0,0.1,0,0.2,0,0.4l0,7.3l0.9,0.3C11.3,96.8,11.3,94,11.3,92.5z M5,96.1l-0.3,5.2l2.5-1.7l0-4.6L5,96.1z M7,144.3l11.4,2.1  c-1.6-1.5-3.5-2.8-5.5-3.9L7,144.3z M64.8,149.3c-0.5-2.1-0.9-4.4-1.2-6.7H32.4c-0.6,0-1-0.4-1-1s0.4-1,1-1h31  c-0.8-11.4,1.9-25.1,9.5-35.8c3.1-4.4,6.9-8,11.2-10.8L71,87.5c-12.1,14.5-47.9,23.6-49.5,24l-0.2,0c-7.9,4.4-7.3,12.7-7.3,12.8  c0,0.6-0.4,1-0.9,1.1c0,0-0.1,0-0.1,0c-0.5,0-1-0.4-1-0.9c0-0.1-0.6-8.9,7.1-14l0.7-1.2c0.9-1.6,1.3-5.9,1.2-12c0-3,1.7-5.7,4.4-6.9  c19.4-8.5,31.6-10.3,38.4-10.3c6.2,0,8.8,1.4,9.1,1.6l0.2,0.1c8-1.5,58-10.7,110.3-11.9c1.8,0,3.7-0.1,5.9-0.2  c0.2-1,0.4-1.9,0.6-2.8l0,0c0-0.2,0.1-0.3,0.2-0.5c0,0,0,0,0,0l0,0c3.1-8.4,21-21.4,45-32.7c27.7-13,56.8-20.9,80-21.6  c31-0.9,52.1,0.3,81.3,9.6c21.9,7,47.2,17.4,46.4,23.9c-0.2,2.2-2.9,3.4-8,3.8c-16.5,1.3-61.8,3.3-87.4,4.1c1.3,1.5,3.4,4.3,5,8.4  c76.3-3.3,156.7-5.7,197.1-2.1c-0.3-0.2-0.7-0.3-1.1-0.4c-6.5-2.4-14.1-3.2-21.5-4c-10-1-19.4-2-24.5-7.1c-1.9-0.6-27.3-8.3-47-15.8  c-4.5-1.7-8.3-3.6-11.2-5.5c-9.4-3.9-31.6-11.4-72.9-16.1c-31.1-3.6-64.7-5.4-99.5,5.3c-17.7,5.4-34.8,14.2-49.8,22  c-15.3,7.9-28.6,14.8-38,15.4c-0.3,0.2-0.5,0.3-0.5,0.3c-0.1,0-0.1,0.1-0.2,0.1c-12.2,9.1-32.3,11.4-55.6,14l-1.2,0.1  c-23.5,2.6-61.9,8.3-82.2,12.1C37.7,81.6,33,82,29.5,82c-3.5,0-5.7-0.4-7.1-0.9c-7.4,3-12.2,5.5-15,7.1l5.7,1.7  c0.6,0.2,1,0.7,1.1,1.4c0,0.3,0.3,8.6-1.1,16.6c-1.1,6.3-6.3,9.5-9.2,10.8h2.2c0.8,0,1.5,0.7,1.5,1.5v6.1l1.3,2.7  c0.9,2,1,4.3,0.2,6.3c-0.4,0.9-0.9,1.7-1.5,2.4l1.7,0.4c4.7,1.2,9.2,3.9,12.2,7.3c1.1,1.3,2.8,2,4.6,2.1L64.8,149.3z M148.1,133.3  c0-20.5-16.7-37.2-37.2-37.2s-37.2,16.7-37.2,37.2s16.7,37.2,37.2,37.2S148.1,153.8,148.1,133.3z M151.1,133.3  c0,4.1-0.6,8.1-1.8,11.8h7.1c-0.2-9.8-2.1-30.2-14.1-43.2c-7.5-8.1-17.9-12.3-30.8-12.3l-0.6,0c-15.4,0.2-27.8,6-35.6,17  c-8.3,11.6-10.4,27.1-8.4,38.6c0.1,0,0.2,0,0.3,0h5.3c-1.2-3.7-1.8-7.7-1.8-11.8c0-22.2,18-40.2,40.2-40.2  C133.1,93.1,151.1,111.1,151.1,133.3z M404.7,149.4c-0.5-2.5-0.9-5-1.1-7.6l-244.1,2.6c0,2.1,0,3.8,0,5H404.7z M489.4,133.3  c0-20.5-16.7-37.2-37.2-37.2S415,112.8,415,133.3s16.7,37.2,37.2,37.2S489.4,153.8,489.4,133.3z M497.8,145.1  c0.2-7.8-0.4-29-12.8-42.9c-7.7-8.6-18.7-13-32.7-13.1l-0.4,0c-14.6,0-26.7,5.6-34.9,16.3c-8.3,10.7-11.9,25.8-9.9,39.8  c0.1,0,0.1,0,0.2,0h6.7c-1.2-3.7-1.8-7.7-1.8-11.8c0-22.2,18-40.2,40.2-40.2s40.2,18,40.2,40.2c0,4.1-0.6,8.1-1.8,11.8H497.8z   M577.9,126.2C577.9,126.1,577.9,126.1,577.9,126.2l-8.3,2.4l-1.7,5.5c4-1.3,6.9-2.3,8.3-2.8v-2.5  C576.1,127.9,576.8,127.2,577.9,126.2z M581.3,100.9c0-1.5-0.5-2.9-1.1-4.3L493.3,109c2.2,4.1,3.8,8.5,4.9,12.7l63.8-8  c0.5-0.1,1,0.3,1.1,0.9c0.1,0.5-0.3,1-0.9,1.1l-63.6,8c2.4,10.2,2.2,19.4,2,23.1c22.7-0.3,48.5-7,63.6-11.6l2.6-8.2  c0.2-0.5,0.5-0.8,1-1l11.8-3.5c-0.4-1.1-1.3-2.4-1.9-3.2c-0.3-0.3-0.4-0.8-0.3-1.2c0.1-0.4,0.4-0.8,0.8-1l2-1.1  C580.6,113.4,581.5,105.2,581.3,100.9z M38.4,135.6c-3.6,0-7.1-1.5-9.6-4.2c-1.3-1.4-3.1-4.3-3.8-6.2c-3.7,1.3-6.3,2.3-6.4,2.3  c-0.5,0.2-1.1,0-1.3-0.6c-0.2-0.5,0-1.1,0.6-1.3c0.8-0.3,18.6-7.4,27.4-7.4c7.4,0,10.9,6.9,13,11c0.7,1.4,0.6,2.9-0.1,4.2  c-0.8,1.3-2.2,2.1-3.7,2.1H50l0,0l0,0H38.4z M42.9,120.5c-1,0.1-2.2,0.3-3.4,0.5l-10.6,7.3c0.3,0.5,0.6,0.9,0.9,1.3L42.9,120.5z   M31.3,131c0.4,0.4,0.9,0.7,1.3,1l15.8-11c-0.6-0.2-1.3-0.4-2-0.5L31.3,131z M34.7,133c0.7,0.2,1.4,0.4,2.1,0.5l14.9-10.4  c-0.4-0.4-0.9-0.8-1.3-1.1L34.7,133z M40.2,133.6H43l11-7.7c-0.3-0.5-0.6-0.9-0.9-1.3L40.2,133.6z M46.5,133.6h2.9l6.5-4.5  c-0.3-0.5-0.5-1-0.8-1.4L46.5,133.6z M56.7,130.9l-3.8,2.7h1.6c0.8,0,1.5-0.4,2-1.1C56.7,132,56.8,131.5,56.7,130.9z M26.8,124.6  c0.2,0.5,0.6,1.2,1.1,2.1l6.2-4.3C31.6,123,29.1,123.8,26.8,124.6z M136.6,143.9c-0.1,0.1-0.1,0.3-0.2,0.4c0,0-0.1,0-0.1,0.1  c0,0,0,0,0,0c0,0-0.1,0-0.1,0.1c0,0,0,0,0,0c0,0-0.1,0-0.1,0.1c-0.1,0-0.1,0.1-0.2,0.1c0,0-0.1,0-0.1,0c0,0,0,0,0,0c0,0,0,0,0,0  c-0.1,0-0.1,0-0.2,0c-0.1,0-0.2,0-0.2,0c0,0-0.1,0-0.1,0c0,0,0,0,0,0c0,0-0.1,0-0.1,0c-0.1,0-0.1-0.1-0.2-0.1l-15.2-8.8  c-0.6,1.4-1.4,2.8-2.3,4l15.2,8.7c0.1,0.1,0.3,0.2,0.4,0.3c0,0,0,0.1,0.1,0.1c0,0,0,0,0,0c0.3,0.4,0.3,1,0,1.4  c-4.4,5.7-10.8,9.5-17.9,10.5c-0.1,0-0.2,0-0.3,0c0,0,0,0,0,0c-0.1,0-0.2,0.1-0.4,0.1c-0.6,0-1.1-0.5-1.1-1.2v-17.7  c-0.8,0.1-1.5,0.3-2.3,0.3c-0.8,0-1.6-0.2-2.3-0.3v17.7c0,0,0,0.1,0,0.1c-0.1,0.6-0.6,1.1-1.3,1c-0.1,0-0.2,0-0.2,0  c-7.1-1-13.5-4.7-17.9-10.3c-0.2-0.1-0.3-0.3-0.4-0.5c-0.3-0.6-0.1-1.3,0.5-1.6l15.4-8.9c-1-1.2-2.3-4-2.3-4L87,144.4  c-0.1,0-0.1,0.1-0.2,0.1c-0.6,0.2-1.3-0.1-1.5-0.7c0-0.1-0.1-0.1-0.1-0.2c-2.7-6.7-2.7-14.2,0.1-20.9c0.2-0.4,0.6-0.7,1-0.7  c0.2,0,0.4,0.1,0.6,0.2c0,0,0,0,0,0c0,0,0,0,0,0c0,0,0,0,0.1,0l15.3,8.8c0.6-1.5,1.4-2.8,2.3-4l-15.3-8.9c0,0-0.1,0-0.1-0.1  c-0.5-0.4-0.7-1.1-0.3-1.6c0-0.1,0.1-0.1,0.1-0.2c4.4-5.7,10.9-9.4,18.1-10.4c0,0,0.1,0,0.1,0c0.1,0,0.2,0,0.2,0c0,0,0,0,0,0  c0.6,0,1.2,0.5,1.1,1.2v17.8c0.8-0.1,1.3-0.3,2.3-0.3c1,0,1.6,0.2,2.3,0.3v-17.8c0-0.6,0.5-1.1,1.1-1.2c0,0,0,0,0,0c0,0,0,0,0,0  c0,0,0.1,0,0.1,0c0,0,0.1,0,0.1,0c7.3,1,13.9,4.8,18.3,10.6c0,0,0,0,0,0.1c0.4,0.5,0.2,1.2-0.3,1.6c0,0,0,0,0,0c0,0,0,0,0,0  c-0.1,0-0.1,0.1-0.2,0.1l-15.2,8.8c1,1.2,1.7,2.5,2.3,4l15.3-8.8c0.2-0.1,0.4-0.2,0.7-0.2c0.5,0,0.9,0.3,1.1,0.7  C139.4,129.4,139.4,137.1,136.6,143.9z M101.7,133.2L87,124.8c-1.9,5.5-1.9,11.5,0,16.9L101.7,133.2z M115.6,125.2l14.7-8.5  c-3.8-4.4-9-7.4-14.7-8.5V125.2z M106.3,125.3l0-17c-5.7,1.1-10.9,4-14.7,8.5L106.3,125.3z M106.3,158.2l0-17l-14.7,8.5  C95.4,154.2,100.6,157.2,106.3,158.2z M115.5,141.3l0,17c5.7-1.1,10.9-4.1,14.7-8.5L115.5,141.3z M117.7,133.3  c0-1.7-0.7-3.3-1.8-4.5c-0.1-0.1-0.2-0.1-0.2-0.2c-1.2-1.2-2.9-2-4.8-2c-3.7,0-6.8,3-6.8,6.8s3,6.8,6.8,6.8c3,0,5.6-2,6.5-4.7  c0,0,0-0.1,0-0.1C117.6,134.6,117.7,133.9,117.7,133.3z M134.9,124.8l-14.7,8.5l14.7,8.5C136.8,136.3,136.8,130.3,134.9,124.8z   M143.3,133.3c0,17.9-14.5,32.4-32.4,32.4c-17.9,0-32.4-14.5-32.4-32.4s14.5-32.4,32.4-32.4C128.8,100.9,143.3,115.4,143.3,133.3z   M141,133.3c0-16.6-13.4-30.1-30.1-30.1c-16.6,0-30.1,13.4-30.1,30.1s13.4,30.1,30.1,30.1C127.6,163.3,141,149.9,141,133.3z   M477.9,143.9c-0.1,0.1-0.1,0.3-0.2,0.4c0,0-0.1,0-0.1,0.1c0,0,0,0,0,0c0,0-0.1,0-0.1,0.1c0,0,0,0,0,0c0,0-0.1,0-0.1,0.1  c-0.1,0-0.1,0.1-0.2,0.1c0,0-0.1,0-0.1,0c0,0,0,0,0,0c0,0,0,0,0,0c-0.1,0-0.1,0-0.2,0c-0.1,0-0.2,0-0.2,0c0,0-0.1,0-0.1,0  c0,0,0,0,0,0c0,0-0.1,0-0.1,0c-0.1,0-0.1-0.1-0.2-0.1l-15.2-8.8c-0.6,1.4-1.4,2.8-2.3,4l15.2,8.7c0.1,0.1,0.3,0.2,0.4,0.3  c0,0,0,0.1,0.1,0.1c0,0,0,0,0,0c0.3,0.4,0.3,1,0,1.4c-4.4,5.7-10.8,9.5-17.9,10.5c-0.1,0-0.2,0-0.3,0c0,0,0,0,0,0  c-0.1,0-0.2,0.1-0.4,0.1c-0.6,0-1.1-0.5-1.1-1.2v-17.7c-0.8,0.1-1.5,0.3-2.3,0.3c-0.8,0-1.6-0.2-2.3-0.3v17.7c0,0,0,0.1,0,0.1  c-0.1,0.6-0.6,1.1-1.3,1c-0.1,0-0.2,0-0.2,0c-7.1-1-13.5-4.7-17.9-10.3c-0.2-0.1-0.3-0.3-0.4-0.5c-0.3-0.6-0.1-1.3,0.5-1.6l15.4-8.9  c-1-1.2-2.3-4-2.3-4l-15.4,8.9c-0.1,0-0.1,0.1-0.2,0.1c-0.6,0.2-1.3-0.1-1.5-0.7c0-0.1-0.1-0.1-0.1-0.2c-2.7-6.7-2.7-14.2,0.1-20.9  c0.2-0.4,0.6-0.7,1-0.7c0.2,0,0.4,0.1,0.6,0.2c0,0,0,0,0,0c0,0,0,0,0,0c0,0,0,0,0.1,0l15.3,8.8c0.6-1.5,1.4-2.8,2.3-4l-15.3-8.9  c0,0-0.1,0-0.1-0.1c-0.5-0.4-0.7-1.1-0.3-1.6c0-0.1,0.1-0.1,0.1-0.2c4.4-5.7,10.9-9.4,18.1-10.4c0,0,0.1,0,0.1,0c0.1,0,0.2,0,0.2,0  c0,0,0,0,0,0c0.6,0,1.2,0.5,1.1,1.2v17.8c0.8-0.1,1.3-0.3,2.3-0.3c1,0,1.6,0.2,2.3,0.3v-17.8c0-0.6,0.5-1.1,1.1-1.2c0,0,0,0,0,0  c0,0,0,0,0,0c0,0,0.1,0,0.1,0c0,0,0.1,0,0.1,0c7.3,1,13.9,4.8,18.3,10.6c0,0,0,0,0,0.1c0.4,0.5,0.2,1.2-0.3,1.6c0,0,0,0,0,0  c0,0,0,0,0,0c-0.1,0-0.1,0.1-0.2,0.1l-15.2,8.8c1,1.2,1.7,2.5,2.3,4l15.3-8.8c0.2-0.1,0.4-0.2,0.7-0.2c0.5,0,0.9,0.3,1.1,0.7  C480.7,129.4,480.7,137.1,477.9,143.9z M443,133.2l-14.7-8.4c-1.9,5.5-1.9,11.5,0,16.9L443,133.2z M456.9,125.2l14.7-8.5  c-3.8-4.4-9-7.4-14.7-8.5V125.2z M447.6,125.3l0-17c-5.7,1.1-10.9,4-14.7,8.5L447.6,125.3z M447.6,158.2l0-17l-14.7,8.5  C436.7,154.2,441.9,157.2,447.6,158.2z M456.8,141.3l0,17c5.7-1.1,10.9-4.1,14.7-8.5L456.8,141.3z M459,133.3c0-1.7-0.7-3.3-1.8-4.5  c-0.1-0.1-0.2-0.1-0.2-0.2c-1.2-1.2-2.9-2-4.8-2c-3.7,0-6.8,3-6.8,6.8c0,3.7,3,6.8,6.8,6.8c3,0,5.6-2,6.5-4.7c0,0,0-0.1,0-0.1  C458.9,134.6,459,133.9,459,133.3z M476.2,124.8l-14.7,8.5l14.7,8.5C478.1,136.3,478.1,130.3,476.2,124.8z M484.6,133.3  c0,17.9-14.5,32.4-32.4,32.4c-17.9,0-32.4-14.5-32.4-32.4s14.5-32.4,32.4-32.4C470.1,100.9,484.6,115.4,484.6,133.3z M482.3,133.3  c0-16.6-13.4-30.1-30.1-30.1c-16.6,0-30.1,13.4-30.1,30.1s13.4,30.1,30.1,30.1C468.9,163.3,482.3,149.9,482.3,133.3z"/></svg>