<?xml version="1.0" ?><!DOCTYPE svg  PUBLIC '-//W3C//DTD SVG 1.1//EN'  'http://www.w3.org/Graphics/SVG/1.1/DTD/svg11.dtd'><svg enable-background="new 0 0 568.7 166.6" id="Layer_1" version="1.1" viewBox="0 0 568.7 166.6" xml:space="preserve" xmlns="http://www.w3.org/2000/svg" xmlns:xlink="http://www.w3.org/1999/xlink"><path d="M104.3,96.9c-17.2,0-31.1,13.9-31.1,31.1c0,17.2,13.9,31.1,31.1,31.1s31.1-13.9,31.1-31.1  C135.4,110.9,121.5,96.9,104.3,96.9z M104.3,156.9c-16,0-28.9-12.9-28.9-28.9c0-16,12.9-28.9,28.9-28.9c16,0,28.9,12.9,28.9,28.9  C133.2,144,120.3,156.9,104.3,156.9z M129,117.8c-0.2-0.4-0.6-0.7-1-0.7c-0.2,0-0.5,0.1-0.6,0.2l-14.7,8.4c-0.6-1.4-1.3-2.7-2.2-3.8  l14.6-8.5c0.1,0,0.1-0.1,0.2-0.1c0,0,0,0,0,0c0,0,0,0,0,0c0.5-0.3,0.6-1,0.3-1.5c0,0,0,0,0-0.1c-4.3-5.6-10.6-9.2-17.6-10.2  c0,0-0.1,0-0.1,0c0,0-0.1,0-0.1,0c0,0,0,0,0,0c0,0,0,0,0,0c-0.6,0-1.1,0.5-1,1.1v17.1c-0.7-0.1-1.3-0.3-2.2-0.3  c-1,0-1.5,0.2-2.2,0.3v-17.1c0-0.6-0.5-1.1-1.1-1.1c0,0,0,0,0,0c-0.1,0-0.1,0-0.2,0c0,0,0,0-0.1,0c-6.9,0.9-13.1,4.5-17.4,10  c-0.1,0.1-0.1,0.1-0.1,0.2c-0.3,0.5-0.2,1.2,0.3,1.5c0,0,0.1,0,0.1,0.1l14.7,8.5c-0.9,1.2-1.7,2.5-2.2,3.8l-14.7-8.4c0,0,0,0-0.1,0  c0,0,0,0,0,0c0,0,0,0,0,0c-0.2-0.1-0.4-0.2-0.6-0.2c-0.4,0-0.8,0.3-1,0.7c-2.6,6.4-2.7,13.6-0.1,20.1c0,0.1,0.1,0.1,0.1,0.2  c0.2,0.6,0.8,0.9,1.4,0.7c0.1,0,0.1-0.1,0.2-0.1l14.7-8.5c0,0,1.3,2.7,2.2,3.8l-14.8,8.5c-0.5,0.3-0.7,1-0.5,1.5  c0.1,0.2,0.2,0.3,0.4,0.4c4.3,5.4,10.4,8.9,17.2,9.9c0.1,0,0.1,0,0.2,0c0.6,0.1,1.2-0.4,1.2-1c0,0,0-0.1,0-0.1v-17  c0.7,0.1,1.5,0.3,2.2,0.3s1.5-0.2,2.2-0.3v17c0,0.6,0.5,1.1,1.1,1.1c0.1,0,0.2,0,0.4-0.1c0,0,0,0,0,0c0.1,0,0.2,0,0.2,0  c6.8-1,13-4.6,17.2-10.1c0.3-0.4,0.3-0.9,0-1.3c0,0,0,0,0,0c0,0,0-0.1-0.1-0.1c-0.1-0.1-0.2-0.2-0.3-0.3l-14.6-8.4  c0.9-1.2,1.7-2.5,2.2-3.8l14.6,8.4c0.1,0,0.1,0.1,0.2,0.1c0,0,0.1,0,0.1,0c0,0,0,0,0,0c0,0,0.1,0,0.1,0c0.1,0,0.2,0,0.2,0  c0.1,0,0.1,0,0.2,0c0,0,0,0,0,0c0,0,0,0,0,0c0,0,0.1,0,0.1,0c0.1,0,0.1-0.1,0.2-0.1c0,0,0.1,0,0.1-0.1c0,0,0,0,0,0  c0,0,0.1,0,0.1-0.1c0,0,0,0,0,0c0,0,0.1,0,0.1-0.1c0.1-0.1,0.2-0.2,0.2-0.3C131.7,131.7,131.7,124.4,129,117.8z M81.3,136.2  c-1.9-5.3-1.9-11,0-16.3l14.1,8.1L81.3,136.2z M108.8,104c5.5,1,10.5,3.9,14.1,8.1l-14.1,8.1V104z M85.8,112.2  c3.6-4.3,8.6-7.1,14.1-8.1l0,16.3L85.8,112.2z M85.8,143.9l14.1-8.2l0,16.3C94.4,151,89.4,148.1,85.8,143.9z M122.9,143.9  c-3.6,4.3-8.6,7.1-14.1,8.1l0-16.3L122.9,143.9z M110.6,129.9c0,0,0,0.1,0,0.1c-0.8,2.6-3.3,4.6-6.2,4.6c-3.6,0-6.5-2.9-6.5-6.5  c0-3.6,2.9-6.5,6.5-6.5c1.8,0,3.4,0.7,4.6,1.9c0,0.1,0.1,0.2,0.2,0.2c1,1.2,1.7,2.7,1.7,4.3C110.8,128.7,110.7,129.3,110.6,129.9z   M127.3,136.2l-14.1-8.1l14.1-8.1C129.2,125.2,129.2,130.9,127.3,136.2z M459.1,117.8c-0.2-0.4-0.6-0.7-1-0.7  c-0.2,0-0.5,0.1-0.6,0.2l-14.7,8.4c-0.6-1.4-1.3-2.7-2.2-3.8l14.6-8.5c0.1,0,0.1-0.1,0.2-0.1c0,0,0,0,0,0c0,0,0,0,0,0  c0.5-0.3,0.6-1,0.3-1.5c0,0,0,0,0-0.1c-4.3-5.6-10.6-9.2-17.6-10.2c0,0-0.1,0-0.1,0c0,0-0.1,0-0.1,0c0,0,0,0,0,0c0,0,0,0,0,0  c-0.6,0-1.1,0.5-1,1.1v17.1c-0.7-0.1-1.3-0.3-2.2-0.3c-1,0-1.5,0.2-2.2,0.3v-17.1c0-0.6-0.5-1.1-1.1-1.1c0,0,0,0,0,0  c-0.1,0-0.1,0-0.2,0c0,0,0,0-0.1,0c-6.9,0.9-13.1,4.5-17.4,10c-0.1,0.1-0.1,0.1-0.1,0.2c-0.3,0.5-0.2,1.2,0.3,1.5c0,0,0.1,0,0.1,0.1  l14.7,8.5c-0.9,1.2-1.7,2.5-2.2,3.8l-14.7-8.4c0,0,0,0-0.1,0c0,0,0,0,0,0c0,0,0,0,0,0c-0.2-0.1-0.4-0.2-0.6-0.2  c-0.4,0-0.8,0.3-1,0.7c-2.6,6.4-2.7,13.6-0.1,20.1c0,0.1,0.1,0.1,0.1,0.2c0.2,0.6,0.8,0.9,1.4,0.7c0.1,0,0.1-0.1,0.2-0.1l14.7-8.5  c0,0,1.3,2.7,2.2,3.8l-14.8,8.5c-0.5,0.3-0.7,1-0.5,1.5c0.1,0.2,0.2,0.3,0.4,0.4c4.3,5.4,10.4,8.9,17.2,9.9c0.1,0,0.1,0,0.2,0  c0.6,0.1,1.2-0.4,1.2-1c0,0,0-0.1,0-0.1v-17c0.7,0.1,1.5,0.3,2.2,0.3c0.8,0,1.5-0.2,2.2-0.3v17c0,0.6,0.5,1.1,1.1,1.1  c0.1,0,0.2,0,0.4-0.1c0,0,0,0,0,0c0.1,0,0.2,0,0.2,0c6.8-1,13-4.6,17.2-10.1c0.3-0.4,0.3-0.9,0-1.3c0,0,0,0,0,0c0,0,0-0.1-0.1-0.1  c-0.1-0.1-0.2-0.2-0.3-0.3l-14.6-8.4c0.9-1.2,1.7-2.5,2.2-3.8l14.6,8.4c0.1,0,0.1,0.1,0.2,0.1c0,0,0.1,0,0.1,0c0,0,0,0,0,0  c0,0,0.1,0,0.1,0c0.1,0,0.2,0,0.2,0c0.1,0,0.1,0,0.2,0c0,0,0,0,0,0c0,0,0,0,0,0c0,0,0.1,0,0.1,0c0.1,0,0.1-0.1,0.2-0.1  c0,0,0.1,0,0.1-0.1c0,0,0,0,0,0c0,0,0.1,0,0.1-0.1c0,0,0,0,0,0c0,0,0.1,0,0.1-0.1c0.1-0.1,0.2-0.2,0.2-0.3  C461.9,131.7,461.8,124.4,459.1,117.8z M411.5,136.2c-1.9-5.3-1.9-11,0-16.3l14.1,8.1L411.5,136.2z M439,104  c5.5,1,10.5,3.9,14.1,8.1l-14.1,8.1V104z M416,112.2c3.6-4.3,8.6-7.1,14.1-8.1l0,16.3L416,112.2z M416,143.9l14.1-8.2l0,16.3  C424.6,151,419.6,148.1,416,143.9z M453.1,143.9c-3.6,4.3-8.6,7.1-14.1,8.1l0-16.3L453.1,143.9z M440.7,129.9c0,0,0,0.1,0,0.1  c-0.8,2.6-3.3,4.6-6.2,4.6c-3.6,0-6.5-2.9-6.5-6.5c0-3.6,2.9-6.5,6.5-6.5c1.8,0,3.4,0.7,4.6,1.9c0,0.1,0.1,0.2,0.2,0.2  c1,1.2,1.7,2.7,1.7,4.3C441,128.7,440.9,129.3,440.7,129.9z M457.5,136.2l-14.1-8.1l14.1-8.1C459.4,125.2,459.4,130.9,457.5,136.2z   M434.5,96.9c-17.2,0-31.1,13.9-31.1,31.1c0,17.2,13.9,31.1,31.1,31.1c17.2,0,31.1-13.9,31.1-31.1  C465.6,110.9,451.7,96.9,434.5,96.9z M434.5,156.9c-16,0-28.9-12.9-28.9-28.9c0-16,12.9-28.9,28.9-28.9c16,0,28.9,12.9,28.9,28.9  C463.4,144,450.5,156.9,434.5,156.9z M562.9,92.6l-2.6-2.2v-6.1c0-5.6-4.1-13.2-5.9-16.4l5.1-2.3c0.7-0.3,1.1-1.2,0.8-1.9l-5.7-13.6  c-0.2-0.6-0.8-1-1.5-0.9l-6.3,0.3c-0.1,0-0.1,0-0.2,0c-5.3,0-28.4-6.6-39.8-10.1c-0.2-0.1-0.4-0.1-0.5-0.1l-4.8,0.3  c-4.6-1.8-59.7-22.9-78.1-27.9C404.8,6.8,360.1,0,324.2,0c-31,0-56.9,4-83.9,12.8c-23,7.5-75.1,36.2-75.6,36.5l-2.1,1.1  c-1,0.5-2.1,0.6-3.3,0.2c-1.6-0.6-3.4-0.9-5.1-0.7c-12.7,1-55.8,4.6-76.5,8.8c-14.2,2.9-48.4,10-60.5,14.2c-0.6,0.2-1.3,0.4-1.9,0.7  c0,0,0,0,0,0l0,0c-5.9,2.3-9.2,4.6-10.7,5.9C4,79.9,3.8,80.8,4,81.6c0.2,0.8,0.9,1.4,1.7,1.6l2.7,0.5l-0.8,0.8L5.3,84  c-0.4-0.1-0.8,0-1.2,0.2c-0.3,0.2-0.6,0.6-0.6,1L0,104.8c-0.1,0.6,0.2,1.3,0.8,1.6l3.1,1.6c-0.5,0-1,0.3-1.2,0.8l-1.7,3.1  c-0.1,0.2-0.2,0.5-0.2,0.7v12.8c0,0.8,0.7,1.5,1.5,1.5H7v5.7l-5.6,4c0,0,0,0-0.1,0.1c0,0-0.1,0.1-0.1,0.1c0,0-0.1,0.1-0.1,0.1  c0,0-0.1,0.1-0.1,0.1c0,0,0,0.1-0.1,0.1c0,0.1-0.1,0.1-0.1,0.2c0,0,0,0.1,0,0.1c0,0.1,0,0.1,0,0.2c0,0,0,0,0,0.1c0,0,0,0.1,0,0.1  c0,0,0,0.1,0,0.1c0,0,0,0,0,0.1c0,0,0,0.1,0,0.1c0,0.1,0,0.1,0,0.2c0,0,0,0.1,0,0.1c0,0.1,0,0.1,0.1,0.2c0,0,0,0.1,0.1,0.1  c0,0,0.1,0.1,0.1,0.1c0,0,0,0,0,0.1c0,0,0,0,0.1,0.1c0,0,0,0,0,0c2.5,2.7,14.5,5.8,18.2,6.7c0.1,0,0.2,0,0.3,0l41.4,1.8  c0,0,0,0,0.1,0c0,0,0.1,0,0.1,0c0.5,0,0.9-0.3,1.1-0.6c0.2-0.3,0.3-0.7,0.2-1c0-0.2-0.1-0.4-0.2-0.5c-0.1-0.5-0.3-1.7-0.4-3.5h6.2  c5.5,14.6,19.6,25.1,36.1,25.1c16.5,0,30.6-10.4,36.1-25.1h9.6c0,1,0,1.6,0,1.7c0,0.4,0.1,0.8,0.4,1.1s0.7,0.5,1.1,0.5h239  c0.4,0,0.8-0.2,1.1-0.5c0.3-0.3,0.4-0.7,0.4-1.2c0,0-0.1-0.6-0.1-1.6h6.3c0.1,0,0.1,0,0.2,0c5.5,14.6,19.6,25.1,36.1,25.1  c16.5,0,30.6-10.4,36.1-25.1h8.7c0.1,0,0.1,0,0.2,0c0.1,0.2,0.2,0.5,0.4,0.6c0.3,0.3,0.8,0.4,1.2,0.3l65.6-9.4l0.1,0.1l0.1-0.1  l6-0.9c6.8-1,12.1-6.1,13.4-12.8l2.1-11.1C569.5,102.4,567.4,96.5,562.9,92.6z M517.1,74.1c-2.8-2.1-11.1-8.4-12.1-10.5  c0.6-0.2,2.3-0.4,7,0c1.3,0.1,2.7,0.2,4.2,0.4c13.1,1.1,35,2.8,38.9,12.2l0,0c0.2,0.5,0.4,1,0.6,1.5c-2-1.6-5-3.4-9.6-5  c-7.9-2.6-24.5-4.5-25.2-4.6c-0.4,0-0.9,0.2-1,0.6c-0.2,0.4,0,0.9,0.3,1.2c0.8,0.6,18.7,14.2,37,14.2c0,0,0,0,0,0c0.1,0,0.1,0,0.2,0  c0,0.1,0,0.2,0,0.3v3.2C551.3,86.9,529.9,83.8,517.1,74.1z M557,82.1c-13.1,0-26.4-7.6-32.4-11.5c5.5,0.7,15.4,2.2,20.8,4  C553.5,77.2,556.1,80.5,557,82.1z M556.8,63.6l-5.3,2.4c-0.4,0.2-0.7,0.5-0.8,0.9c-0.1,0.4-0.1,0.7,0.1,1.1  c-1.5-0.8-3.2-1.5-4.9-2.2c-0.3-0.3-0.6-0.7-0.8-1.2c-0.9-1.7-2.7-3.2-5-4.6l12.1-7.6L556.8,63.6z M546.5,52.5c0.1,0,0.2,0,0.4,0  l1.6-0.1L538.1,59c-7.2-3.5-18.4-6.1-29.3-8.6c-3.1-0.7-6.1-1.4-9-2.1c-2.1-0.5-4.6-1.2-7.2-2.1l9.4-3.7l4.1-0.3  C509.5,43.3,539.6,52.5,546.5,52.5z M411.4,17.1l4.8-3.9c1.5,0.3,2.9,0.7,4.2,1l-4.3,4.2C414.6,17.9,413,17.5,411.4,17.1z   M422.7,14.7c17.2,4.7,65.5,23.1,75.9,27l-9,3.5C478.5,41.6,464,36,450.9,31c-10.6-4.1-20.7-8-28.3-10.6c-1.3-0.5-2.7-0.9-4.2-1.4  L422.7,14.7z M413.7,12.6l-4.8,3.9c-24.2-5.7-62.5-10.4-94.3-9.8c-23.8,0.5-45,3.4-63.1,8.5l-2.4-2C273.1,6.2,296.6,3,324.2,3  C355.1,3,392.4,8.1,413.7,12.6z M246.8,13.9l2.4,2c-2,0.6-3.9,1.2-5.8,1.8l-2.7-1.9c0.2-0.1,0.3-0.1,0.5-0.2  C243.1,15.1,245,14.5,246.8,13.9z M172.2,52.5l-5.6-0.8c5.2-2.9,49.3-26.9,71.8-35.1l2.8,2C227.6,24.1,177,50.1,172.2,52.5z   M78.4,61.6c21-4.3,67.1-8,76.1-8.8c1.3-0.1,2.6,0.1,3.9,0.6c1.7,0.6,3.6,0.6,5.2-0.1l7.3,1.1l-2.3,4.7c-9.8,0.6-24.2,1.5-38.6,2.5  C107.6,63,69.2,71.9,60.4,74c-0.2,0-0.5-0.1-0.7-0.1c-0.3,0-0.6,0-0.9,0c-6.1,0-21.1,5.3-27.1,8.1c-0.9-1.2-2.2-2.7-3.7-3.7  c-1.4-1-4.8-2.2-7.8-3.2C33.7,70.8,65,64.3,78.4,61.6z M183.4,57.3c1.5-0.9,14.1-9,31-17.8c-0.8,1.1-1.3,2.4-1.5,3.7l-25,13.2  l20.8-1.8l-1.3,1.7l0,0.3c0,0.1,0,0.3,0.1,0.6l-24.7,0.9C183,57.9,183.2,57.6,183.4,57.3z M431.8,53.9c1,8.7-7.8,15.3-17.9,22.9  c-4.1,3.1-8.3,6.3-12,9.8c-17-7.3-53.8-10.9-94.9-13c0.5-5.2,1.2-10.1,2.1-14.2l0.6-3.3C351.4,55.4,423.1,54.1,431.8,53.9z   M364.7,129.1L364.7,129.1l-58.9,1.3c-0.1-1.7-0.1-4.6-0.2-8.2l78-1.9c-1.9,4.5-5,7.1-9.5,7.9C371.1,128.7,367.5,129,364.7,129.1z   M137.5,97.1c-8.2-8.6-19.3-12.9-33-12.9c-5.5,0-10.6,0.7-15.1,2.1c-1.8-1.6-6.5-5.2-13.4-7.4c12.7-2.1,51-7.7,100.2-7.2  c-1.9,11.2-1.9,24.9-1.8,35.3c0,1.2,0,2.4,0,3.5c0,5.1,0.5,9.3,1.1,12.7l-17.8,0.4c-0.6,0-1,0.5-1,1c0,0.5,0.5,1,1,1c0,0,0,0,0,0  l18.2-0.4c0.9,3.8,2,6.4,2.7,7.9l-26,0.6C151.6,123.8,148.2,108.2,137.5,97.1z M176.3,110.6c0-1.1,0-2.3,0-3.6  c0-9.9-0.1-24,1.9-35.3c3.7,0.1,7.4,0.1,11.2,0.3c11.3,0.4,23.8,0.7,37,1c25.1,0.6,52.6,1.3,78.5,2.5c-1.4,15.3-1.4,33.2-1.3,44.7  l-126.1,3C176.8,119.9,176.3,115.7,176.3,110.6z M180.9,133.1c-0.6-1-1.9-3.5-2.9-7.9l125.7-3c0.1,3.7,0.1,6.5,0.2,8.2L180.9,133.1z   M384.6,117.7c-0.1,0.2-0.1,0.4-0.2,0.6l-78.8,1.9c-0.1-11.5-0.1-29.4,1.3-44.5c40.3,2,76.4,5.5,93.5,12.5  C391.8,96.9,387.1,109,384.6,117.7z M310.1,54.2l0.5-2.8l8.2-38.1c25.8,0,50.1,3.9,70.2,11.5c19.5,7.4,30.1,14.8,35.5,19.6  c3.8,3.4,5.7,6.1,6.5,7.5C419.8,52.1,350.8,53.4,310.1,54.2z M308.7,51l-0.6,3.2c-7.2,0.1-13.5,0.3-18.2,0.4  c-29.6,0.6-59.1,1.7-65.8,2c0.3-0.9,0.4-1.8,0.5-2.5l76.1-3.2c0.6,0,1.2-0.5,1.4-1.1l9-32.3c0.1-0.5,0-0.9-0.3-1.3  c-0.3-0.4-0.7-0.6-1.2-0.6c-46.7,0.7-79.9,18.9-82.5,20.3c-1-0.2-2-0.4-3.1-0.4c-0.6,0-1.3,0.1-1.9,0.1c16-7.9,34.5-15.5,50.6-18.3  c14.8-2.6,29.7-4,44.1-4.1L308.7,51z M212.8,46.6c0.1,0.7,0.2,1.3,0.3,1.9l-2.1,2.9l-8.6,0.8L212.8,46.6z M209.9,57.6  c0-0.1-0.1-0.1-0.1-0.1c-0.2-0.2-0.3-0.3-0.3-0.5l5.9-8.1l-0.2-0.5c-0.1-0.3-2.4-7.8,4.3-10.1c1.5-0.5,3.1-0.8,4.6-0.8  c5.3,0,9.1,3.2,9.4,7.8h-11.5c-0.6,0-1,0.4-1,1s0.4,1,1,1h11.3c-0.4,1.5-1.5,2.6-3.4,3.3c-2.1,0.9-4.6,0.9-5.6,0.9  c-0.3,0-0.6,0-0.6,0l-1.1-0.1l0.1,1.1c0,0,0.2,3.8-1.8,5.9c-1.1,1.1-2.6,1.5-4.5,1.3C212.5,59.3,210.7,58.3,209.9,57.6z M235.3,46.6  c0-0.1,0.1-0.2,0.1-0.2c0,0,0-0.1,0-0.1c0-0.1,0-0.2,0-0.3c0-3.7-1.8-6.7-4.7-8.6c6.1-3.2,35.4-17.7,76.9-18.7l-8.2,29.3l-66,2.8  C234.6,49.6,235.2,48.2,235.3,46.6z M181.6,60.3l27.2-1c1.2,1,3.3,2,7.2,2.5c0.5,0.1,0.9,0.1,1.3,0.1c2,0,3.7-0.7,4.9-2  c0.4-0.4,0.7-0.9,1-1.3c4.2-0.2,35.4-1.4,66.7-2c4.7-0.1,10.8-0.2,17.8-0.3l-0.5,2.9c-0.9,4.2-1.6,9.1-2.1,14.5  c-26-1.3-53.5-1.9-78.7-2.5c-13.2-0.3-25.7-0.6-37-1c-3.7-0.1-7.3-0.2-10.8-0.3C179.3,66.1,180.3,62.9,181.6,60.3z M176.5,69.7  c-55.1-0.6-96.8,6.4-104.2,7.8l-0.4-0.2c-0.2-0.1-3.2-1.4-6.8-2.4c13.2-3.1,45.4-10.1,65-11.4c21.7-1.4,43.4-2.8,49.2-3.1  C178.1,63.1,177.2,66.3,176.5,69.7z M22.7,100.6c0.9-2.1,1.8-4.1,2.6-5.9c1.3-0.9,4.2-2.6,11-6c13.5-6.8,22.5-7,26.8-6.4l-11,7.3  c-4.5,3-9.5,5.2-14.8,6.6C30.8,97.8,25.9,99.3,22.7,100.6z M65.5,80.7C62,79.8,52,78.5,35.4,86.9c-3.7,1.9-6.4,3.3-8.3,4.4  c1.8-3.2,3.4-5.4,4.6-6c4.4-2.4,21.1-8.4,27.1-8.4c0.2,0,0.4,0,0.6,0c3,0.3,6.4,1.4,8.6,2.2L65.5,80.7z M13.5,84.6  c0.6,0.1,1.1,0.5,1.4,1c0.3,0.5,0.4,1.1,0.2,1.7l-1.6,5.2L10,92.4l1.2-5.6c0.1-0.5,0-1-0.4-1.3l1.1-1.2L13.5,84.6z M7.6,95.3  c0.2,0.1,0.3,0.1,0.5,0.1l4.5,0.1l-0.7,2.2l-4.6-0.1c-0.1,0-0.3,0-0.4,0.1l-1.6-1L7.6,95.3z M8.6,100.6l2.4,0l-1,3.2  c-0.4,1.3-1.2,2.3-2.2,3L8.6,100.6z M6.1,87.3l1.8,0.4l-1.2,5.8l-1.8,1.1L6.1,87.3z M4.2,98.3l1.6,1L5,105.1l-1.8-0.9L4.2,98.3z   M3.8,112.9L3.8,112.9l2.2,0.5v10.3H3.8V112.9z M15.9,128.5l-5.9,1.6v-1.6l6.4-1.7C16.2,127.3,16.1,127.9,15.9,128.5z M10,126.4  v-1.1c0-0.2-0.1-0.4-0.1-0.6l6.4-1.7c0.1,0.5,0.3,1,0.3,1.7L10,126.4z M7.9,123.1v-1.4l5.9-0.2L7.9,123.1z M8.6,139.2h9.2l5.1,3.4  l-3.1-0.1C16.1,141.5,11.9,140.3,8.6,139.2z M28.8,142.8l-9.7-6.4c-0.2-0.2-0.5-0.3-0.8-0.3H6.9l2.4-1.8c0.4-0.3,0.6-0.7,0.6-1.2v-1  l5-1.3c-0.1,0.3-0.3,0.5-0.4,0.8c-0.3,0.5-0.1,1.1,0.4,1.4c0.2,0.1,0.3,0.1,0.5,0.1c0.4,0,0.7-0.2,0.9-0.5  c4.7-8.4,0.7-12.5,0.6-12.6c0,0-0.1,0-0.1-0.1c-0.2-0.3-0.5-0.5-0.8-0.5c0,0,0,0,0,0l-7.9,0.2v-7.7L4.8,111l0.1-0.1  c3.7-0.1,6.9-2.5,8-6.1L18,88.2c0.4-1.4,0.2-2.9-0.5-4.2c-0.8-1.2-2-2.1-3.5-2.4l-6-1.1c1.7-1.2,4.6-2.9,9-4.5  c3.4,1.1,8.4,2.7,9.9,3.8c1.1,0.8,2.2,2,3,3c-4.2,2.7-8.7,13.2-11.1,19.3c-0.1,0.3-0.1,0.7-0.1,1c-4.3,3.6-6.6,9.7-6.7,10.1  c-0.2,0.5,0.1,1.1,0.6,1.3c0.1,0,0.2,0.1,0.3,0.1c0.4,0,0.8-0.3,0.9-0.7c0-0.1,2.2-6,6.2-9.3c0.1,0,0.3,0.1,0.5,0.1  c0.3,0,0.6-0.1,0.9-0.2c2.5-1.4,8.2-3.3,16.5-5.4c5.6-1.4,10.9-3.8,15.7-7l18.4-12.1c7.2,1.6,12.5,5.1,15,7.1  c-8.2,3-14.8,8.4-19.6,16.2c-9.2,14.9-9,34.3-8.2,40.9L28.8,142.8z M104.3,163.6c-19.6,0-35.5-15.9-35.5-35.5s15.9-35.5,35.5-35.5  c19.6,0,35.5,15.9,35.5,35.5S123.9,163.6,104.3,163.6z M141.4,138.5c0.9-3.3,1.5-6.8,1.5-10.4c0-21.2-17.3-38.5-38.5-38.5  c-21.2,0-38.5,17.3-38.5,38.5c0,3.6,0.5,7.1,1.5,10.4H62c-0.1-8.7,1.2-24.1,9.6-35.9c7.3-10.2,18.4-15.4,33-15.4  c12.8,0,23.2,4,30.8,12c11.7,12.2,14.1,30.8,14.6,39.4H141.4z M153,141.7c0-1.3,0-3.4-0.3-6l206.4-4.5c0.1,0,0.3,0,0.6,0  c2.1,0,9.1-0.1,14.6-1.1c6.1-1.1,10.1-5,12-11.9c2.5-8.9,7.4-21.3,16.3-29.8c3.8-3.6,8.1-6.9,12.4-10.1  c10.5-7.9,20.4-15.4,18.5-25.7c0,0,0,0,0-0.1c0,0,0,0,0-0.1c-0.2-0.6-5.5-15.1-43.9-29.7c-32.7-12.4-74.4-15.1-117.4-7.5  c-38.2,6.7-89.7,40-90.2,40.4c0,0-0.1,0.1-0.1,0.1c0,0-0.1,0.1-0.1,0.1c0,0,0,0,0,0.1c0,0,0,0,0,0c-0.3,0.4-0.6,0.8-0.9,1.3  c-0.3,0.4-0.6,0.8-0.8,1c-1.2,0.1-4.5,0.3-9.3,0.6l2.3-4.6c4.5-2.3,60.7-31.1,70.5-34.5c19.6-6.8,43.5-10.5,71-11.1  c38.5-0.8,86.6,6.3,107.3,13.5c7.6,2.6,17.6,6.5,28.2,10.6c18.7,7.2,38,14.7,49.2,17.4c2.9,0.7,5.9,1.4,9,2.1  c14.2,3.2,30.2,6.9,34.5,12.5c-8.4-2.4-18.5-3.2-26.4-3.8c-1.5-0.1-2.9-0.2-4.2-0.4c-3.6-0.3-6.3-0.4-8,0.1l-58.6-3.9  c-0.6,0-1,0.4-1.1,0.9s0.4,1,0.9,1.1l56.5,3.8c-0.9,2.5,2,5.4,13.3,14c3,2.2,6.3,4.1,9.8,5.7c-0.9,1.4-2.7,3.3-5.6,4.6  c-7.5,3.3-53.1,3.3-60.9,3.3c-6.7-4.5-14.7-6.8-23.7-6.8c-13.6,0-24.5,4.4-32.3,13.1c-13.9,15.4-13.8,38.8-13.5,45.2H153z   M434.5,163.6c-19.6,0-35.5-15.9-35.5-35.5s15.9-35.5,35.5-35.5s35.5,15.9,35.5,35.5S454.1,163.6,434.5,163.6z M434.5,89.5  c-21.2,0-38.5,17.3-38.5,38.5c0,3.6,0.5,7.1,1.5,10.4h-5.6c0-8.6,1.3-27.3,12.8-40c7.3-8,17.4-12.1,30.1-12.1  c17.7,0,30.6,9.1,38.3,27.1c4.4,10.2,5.8,20.4,6.2,25.1h-7.7c0.9-3.3,1.5-6.8,1.5-10.4C473.1,106.8,455.8,89.5,434.5,89.5z   M552.5,129.2l-2.6,0.4l8.9-10.1c0.4-0.5,1.1-0.8,1.7-0.9l2.9-0.4l-0.1,0.6C562.4,124.3,558,128.4,552.5,129.2z M565.5,107.7  l-1.4,7.4l-3.9,0.5c-1.4,0.2-2.7,0.9-3.6,1.9l-11.2,12.7l-63.1,9c-0.2-2.5-0.7-7.6-2.2-13.7l56.8-4.7c0.5,0,1-0.5,0.9-1.1  c0-0.5-0.5-1-1.1-0.9l-57.1,4.7c-0.9-3.6-2.2-7.4-3.8-11.3c-3.7-8.6-8.6-15.3-14.6-20.1c0.2,0,0.4,0,0.6,0c13.3,0,51.2-0.3,58.4-3.5  c3.6-1.6,5.6-4,6.7-5.6c12.4,5.3,26,7.1,30.4,7.5v0.5c0,0.4,0.2,0.9,0.5,1.1l3.1,2.6c1.3,1.1,2.3,2.4,3.1,3.9l-80.6,7.1  c-0.5,0-1,0.5-0.9,1.1c0,0.5,0.5,0.9,1,0.9c0,0,0.1,0,0.1,0l81.2-7.2C565.7,102.9,565.9,105.3,565.5,107.7z M42.1,119.4L42.1,119.4  L42.1,119.4c-0.7-0.7-1.6-1.2-2.5-1.7c-2.9-1.3-6-2-9-2c-0.3,0-0.5,0-0.8,0c0,0-0.1,0-0.1,0h0c-0.2,0-5.4,0-8.3,1.2  c-0.5,0.2-0.8,0.8-0.6,1.3c0.2,0.4,0.5,0.6,0.9,0.6c0.1,0,0.2,0,0.4-0.1c0.8-0.3,1.9-0.6,3-0.7c-1.2,4.3-1.4,11.6,5.7,14.4  c6.2,2.5,11.3,2.9,13.7,2.9c1.2,0,1.9-0.1,1.9-0.1c0.5-0.1,0.9-0.5,0.9-1C47.3,133.9,47.3,124.1,42.1,119.4z M30.6,117.8  c0.8,0,1.6,0.1,2.3,0.2l-6.1,1.4c0.1-0.5,0.2-1,0.3-1.3C27.8,118,29,117.8,30.6,117.8z M41.5,121.6c0.4,0.5,0.8,1,1.1,1.5l-15.4,3.5  c-0.2-0.5-0.4-1-0.5-1.6L41.5,121.6z M39.6,120l-13.1,3.1c0-0.6,0-1.1,0.1-1.6l10.7-2.5c0.5,0.2,1,0.4,1.6,0.6  C39.1,119.7,39.3,119.8,39.6,120z M28.4,128.5l15.1-3.5c0.2,0.5,0.4,0.9,0.5,1.4l-14.2,3.4C29.2,129.4,28.8,128.9,28.4,128.5z   M44.9,129.9l-9.4,2.1c-0.9-0.3-1.8-0.6-2.8-0.9l11.9-2.8C44.7,128.9,44.8,129.4,44.9,129.9z M40.1,133.1l5.1-1.1  c0.1,0.6,0.1,1.1,0.1,1.5C44.3,133.4,42.5,133.4,40.1,133.1z M324,16c-0.7,0-1.3,0.5-1.4,1.2l-5.4,31.4c-0.1,0.4,0,0.9,0.3,1.2  c0.3,0.3,0.7,0.5,1.1,0.5c0,0,0,0,0,0l104.1-0.6c0.6,0,1.2-0.4,1.4-1s0-1.3-0.5-1.7C423.4,46.9,382.8,14.8,324,16z M325.3,19  c0.7,0,1.4,0,2,0c27.3,0,50.4,7.2,66.9,14.7v13.4l-73.9,0.4L325.3,19z M397.3,47v-12c9.7,4.6,16.9,9.1,20.9,11.9L397.3,47z   M268.3,35.6c-0.2-0.5,0-1.1,0.5-1.3l10.7-4.8c0.5-0.2,1.1,0,1.3,0.5c0.2,0.5,0,1.1-0.5,1.3l-10.7,4.8c-0.1,0.1-0.3,0.1-0.4,0.1  C268.8,36.2,268.4,36,268.3,35.6z M259.2,39.8c-0.2-0.5,0-1.1,0.5-1.3l6.2-2.8c0.5-0.2,1.1,0,1.3,0.5c0.2,0.5,0,1.1-0.5,1.3  l-6.2,2.8c-0.1,0.1-0.3,0.1-0.4,0.1C259.7,40.4,259.4,40.2,259.2,39.8z M265.8,40.8l22.1-9.9c0.5-0.2,1.1,0,1.3,0.5  c0.2,0.5,0,1.1-0.5,1.3l-22.1,9.9c-0.1,0.1-0.3,0.1-0.4,0.1c-0.4,0-0.7-0.2-0.9-0.6C265.1,41.6,265.3,41,265.8,40.8z M343.4,35.6  c-0.2-0.5,0-1.1,0.5-1.3l10.7-4.8c0.5-0.2,1.1,0,1.3,0.5c0.2,0.5,0,1.1-0.5,1.3l-10.7,4.8c-0.1,0.1-0.3,0.1-0.4,0.1  C343.9,36.2,343.6,36,343.4,35.6z M341.9,37.5l-6.2,2.8c-0.1,0.1-0.3,0.1-0.4,0.1c-0.4,0-0.7-0.2-0.9-0.6c-0.2-0.5,0-1.1,0.5-1.3  l6.2-2.8c0.5-0.2,1.1,0,1.3,0.5C342.6,36.6,342.4,37.2,341.9,37.5z M363.9,32.7l-22.1,9.9c-0.1,0.1-0.3,0.1-0.4,0.1  c-0.4,0-0.7-0.2-0.9-0.6c-0.2-0.5,0-1.1,0.5-1.3l22.1-9.9c0.5-0.2,1.1,0,1.3,0.5C364.6,31.9,364.4,32.5,363.9,32.7z M283,67.7  C283,67.7,283,67.7,283,67.7C283.1,67.7,283.1,67.7,283,67.7c0.6,0,1.1-0.4,1.1-1c0-0.3-0.1-0.6-0.4-0.8c-0.4-0.5-0.4-0.7-0.4-0.7  c0.5-0.7,4.5-0.9,7.1-1c0.8,0,1.7-0.1,2.5-0.1c0.5,0,0.9,0,1.2,0c0.9,0,1.4,0.1,1.7,0.2c0,0-0.1,0.1-0.1,0.1c-0.5,0.1-1.1,0.3-1,1.1  c0,0.2,0.1,1,1.2,1c0.2,0,0.6,0,1.4,0c2-0.1,4.1-1.1,5.3-2.4c0.7-0.8,1-1.6,0.9-2.4c-0.3-2.8-4.8-3.2-9.7-3.2l-0.2,0  c-3.5,0-14.1,0.7-16.7,3.6c-0.6,0.7-0.7,1.4-0.6,1.8C276.8,67.4,282.8,67.7,283,67.7z M278.4,63.2c1.5-1.7,9.2-2.9,15.1-2.9l0.2,0  c7,0,7.7,1.1,7.7,1.4c0,0.2-0.1,0.6-0.4,0.9c-0.7,0.8-1.9,1.4-3.1,1.7c0-0.2,0-0.5-0.1-0.7c-0.5-1.3-2.2-1.5-3.7-1.5  c-0.4,0-0.9,0-1.4,0c-0.8,0.1-1.7,0.1-2.5,0.1c-4.9,0.3-8.1,0.4-8.8,2.2c-0.1,0.3-0.2,0.6-0.1,1c-1.4-0.3-2.9-0.9-3-2.1  C278.3,63.4,278.3,63.3,278.4,63.2z M395.8,61.6c0.4,3.8,6.3,4.2,6.6,4.3c0,0,0,0,0.1,0c0,0,0,0,0,0c0.6,0,1-0.4,1-1  c0-0.3-0.1-0.6-0.3-0.8c-0.4-0.5-0.4-0.7-0.4-0.7c0.5-0.7,4.5-0.7,7.1-0.8c0.8,0,1.7,0,2.5-0.1c1.7-0.1,2.6,0.1,2.9,0.2  c0,0-0.1,0.1-0.1,0.1c-0.5,0.1-1.1,0.3-1.1,1c0,1,1,1,1.6,1c0.2,0,0.5,0,0.9,0c2,0,4.1-0.9,5.4-2.3c0.7-0.8,1-1.6,1-2.4  c-0.2-2.7-4.1-3.3-9.8-3.5c-0.4,0-0.9,0-1.3,0c-0.5,0-12.7,0-15.5,3.1C395.9,60.5,395.8,61.2,395.8,61.6z M397.9,61.2  c1.4-1.5,8.2-2.4,14-2.4c0.4,0,0.9,0,1.3,0c7.2,0.2,7.9,1.3,7.9,1.6c0,0.2-0.1,0.6-0.5,0.9c-0.7,0.8-1.9,1.4-3.2,1.6  c0-0.2,0-0.5-0.1-0.7c-0.5-1.4-2.5-1.6-4.3-1.6c-0.3,0-0.5,0-0.8,0c-0.8,0-1.7,0-2.5,0.1c-4.9,0.1-8.1,0.2-8.9,2  c-0.1,0.3-0.2,0.6-0.2,1c-1.3-0.3-2.8-1-2.9-2.2C397.8,61.4,397.8,61.3,397.9,61.2z"/></svg>