<?xml version="1.0" ?><!DOCTYPE svg  PUBLIC '-//W3C//DTD SVG 1.1//EN'  'http://www.w3.org/Graphics/SVG/1.1/DTD/svg11.dtd'><svg enable-background="new 343 410.9 315.7 177.6" id="Layer_1" version="1.1" viewBox="343 410.9 315.7 177.6" xml:space="preserve" xmlns="http://www.w3.org/2000/svg" xmlns:xlink="http://www.w3.org/1999/xlink"><path d="M497.4,447.8c-0.2-0.5,0-1.1,0.5-1.3l10.7-4.8c0.5-0.2,1.1,0,1.3,0.5c0.2,0.5,0,1.1-0.5,1.3l-10.7,4.8  c-0.1,0.1-0.3,0.1-0.4,0.1C497.9,448.4,497.5,448.2,497.4,447.8z M496.3,448.4c-0.2-0.5-0.8-0.7-1.3-0.5l-6.2,2.8  c-0.5,0.2-0.7,0.8-0.5,1.3c0.2,0.4,0.5,0.6,0.9,0.6c0.1,0,0.3,0,0.4-0.1l6.2-2.8C496.3,449.5,496.6,448.9,496.3,448.4z M517.1,443.1  l-22.1,9.9c-0.5,0.2-0.7,0.8-0.5,1.3c0.2,0.4,0.5,0.6,0.9,0.6c0.1,0,0.3,0,0.4-0.1l22.1-9.9c0.5-0.2,0.7-0.8,0.5-1.3  C518.2,443.1,517.6,442.9,517.1,443.1z M656.6,552.7c0.5,0.7,1.1,1.7,1.1,3.4c0,1-0.4,2.7-3,3.5c-1.1,0.4-2.5,0.5-4.2,0.5  c0,0,0,0,0,0c-1.2,0-2.1-0.1-2.4-0.1h-5.7c0,0-0.1,0-0.1,0c-2.2,16.1-16,28.6-32.7,28.6c-15.3,0-28.2-10.5-32-24.7h-7.3  c0,0.6,0,1,0,1c0,0.4-0.1,0.8-0.4,1.1s-0.7,0.5-1.1,0.5l-133.7,4.9c0,0,0,0-0.1,0c-0.4,0-0.8-0.2-1.1-0.4c-0.3-0.3-0.5-0.7-0.4-1.1  c0-2.1,0-4.1-0.1-6h-6.8c-3.7,14.2-16.6,24.7-32,24.7c-15.3,0-28.2-10.5-32-24.7h-5.5c-1.6,3.5-3.8,4.3-5.4,4.3  c-0.5,0-0.8-0.1-1.1-0.1c-5-0.1-7.4-4.7-7.9-7.2c-0.1-0.4,0-0.9,0.3-1.3l2.6-3.4v-8.3l-2.3-2.6c-0.2-0.3-0.4-0.6-0.4-1v-14.9  c-0.2-1.2-1.2-7.7,2.3-18.3c0.4-1.2,1-2.4,1.9-3.7c0.1-0.1,0.1-0.2,0.2-0.4c8-12,32.3-29.4,33.5-30.2c0.2-0.1,0.4-0.2,0.6-0.3  l9.4-1.8c30.7-25.4,81.9-56.9,82.4-57.2c0.3-0.2,0.8-0.3,1.1-0.2l7,1.7c2.1-0.9,9.7-3.6,34.7-7c5.7-0.8,13.1-1.2,22.1-1.2  c32.9,0,77.3,5.2,77.8,5.2c0.3,0,0.7,0.2,0.9,0.5c15.2,16,25.7,42.2,27.3,46.4c4.4,2.7,3,8.7,2.6,10.2l0.7,5.3c0,0,0,0.1,0,0.1  c0,0.2,1.1,19.3,1.9,27.5c0.7,7.8,5.7,15,5.8,15.1c0.1,0.1,0.2,0.3,0.2,0.4c1.6,5.5-0.1,15.3-0.8,19c1.2,0.5,2.7,1.3,3.4,2.9  c0.7,1.6,0.4,3.4-0.9,5.3C655.8,551.5,656.1,551.9,656.6,552.7z M646.8,506.4C646.8,506.4,646.8,506.4,646.8,506.4  c-3.3-2.4-16.4-10.3-39.3-4c-23.5,6.4-29.9,8.3-31.2,8.7c-11.3,13.9-22,26.7-28.8,34l22.7-1.7c1.8-6.1,4.9-12.6,9.9-17.9  c7.4-7.9,17.7-11.9,30.6-11.9c20.3,0,29.9,12.3,34.4,22.6c0.2,0.5,0.4,0.9,0.6,1.4h6.9c0.7-4.2,1.5-10.9,0.5-14.8  C652,521.4,647.5,514.3,646.8,506.4z M569.5,545.4l-24.2,1.8c-2.4,2.4-4.1,3.9-4.9,4.1c-4.7,1.4-53.6,5.1-82.3,7.2  c-0.4,0-0.8,0-1.2,0c-5.2,0-10-2.4-13.1-6.4l-8.2,1.2c0.6,3.4,1,6.9,1.1,10.6l130.8-5.5C567.7,555,568.2,550.4,569.5,545.4z   M394.9,515c0.3,0,0.7,0,1.1,0c10.1,0,19.6,4,26.7,11.3c6.2,6.3,10.4,14.9,12.5,25.2l7.4-1.1c-0.4-0.7-0.8-1.4-1.1-2.2  c-3-7.4-6.6-18.5-8.6-32.3c0,0,0,0,0,0c0,0,0,0,0,0c-0.4-2.8-0.8-5.8-1-8.9c-43.8-1-73.3,16.7-82.9,23.5c-0.8,0.9-1.7,1.7-2.6,2.2  v11.1l2.3,2.6c0.2,0.3,0.4,0.6,0.4,1v3.9l7.6-0.8C356.7,531.5,373.8,515.6,394.9,515z M346.3,529.3v0.6c0.4-0.3,0.8-0.6,1.3-0.9  c3.2-3.9,5.3-11.1,6.2-15.1h-5.8c-2.8,9.6-1.7,15.1-1.7,15.1C346.3,529,346.3,529.2,346.3,529.3z M348.6,511.8h6.2  c34.4-15.1,70.2-14.2,76.6-13.9c-0.1-5.5,0-11.3,0.6-17.4l-43.4,5.1c0.2,2.3-1.5,5.1-5,8.5c-11.8,11.5-29.9,14.7-33.8,15.2  C349.3,510.2,348.9,511.1,348.6,511.8z M483.8,425.2l-2-3.1c0,0-0.1,0-0.1,0l-0.6-0.1c-13.5,4.6-60.7,42.6-71.6,51.5l11.3-1.4  C424.7,468.7,466.2,431.7,483.8,425.2z M437,460.9c-1.4,6-2.3,11.8-2.9,17.4l119.5-14c0.1-0.5,0.3-0.9,0.5-1.4L444.5,475  c-0.2,0-0.4,0-0.7,0c-1.7,0-3.4-0.8-4.6-2.1c-1.3-1.5-1.8-3.6-1.2-5.5c0,0,0-0.1,0-0.1l1.1-3c0,0,0-0.1,0-0.1l0.1-0.4  c0,0,0-0.1,0.1-0.1c0.2-0.5,0.4-1,0.7-1.5c1.8-3.3,4-5.6,6.4-6.8c1.2-1.1,8.8-8.2,19.2-15.4c7.1-4.9,13.8-8.8,20.2-11.6l-0.9-1.4  C473.9,430.7,451.9,448.3,437,460.9C437,460.8,437,460.8,437,460.9z M594.9,427.5c-0.1,0-6.9-0.8-21.6-1.8  c5.2,5.1,7.5,16.2,8.1,37.1c0.8,25.6-46.5,73.9-48.5,75.9c-0.2,0.2-0.4,0.3-0.6,0.3l-86.2,12.9c2.9,3.2,7.3,5.1,11.9,4.7  c48-3.5,78.6-6.1,81.9-7.1c0.6-0.2,2.1-1.5,4.3-3.8c0-0.1,0.1-0.1,0.1-0.1c9.4-9.8,32.1-37.3,62-75.2c2.1-2.6,4.9-4.4,8.1-5.2  c-1.4-3.4-9.3-22.4-19.3-37.5C595,427.5,595,427.5,594.9,427.5z M444.7,550l87-13c2.7-2.8,28.4-29.5,40.9-52.8L435,516.3  c2,13.3,5.5,23.9,8.4,31.1C443.7,548.3,444.2,549.2,444.7,550z M351.7,526.2c12.6-8,40.6-22.1,80-21.3c-0.1-1.6-0.2-3.3-0.3-4.9  c-5.6-0.3-41.2-1.4-75.5,13.6C355.5,515.3,354.2,521.2,351.7,526.2z M570,433.7c-2.3-5.6-10.3-8.2-20.6-9.2l-2.7,36.2l10-1.1  c4.2-3.7,11.5-4.9,16.9-5.2C573.7,453.6,574.7,445.6,570,433.7z M555.4,465.3c0.2,5.7,15.3,7.9,22,8.3c1.4-3.9,2.1-7.6,2-10.8  c-0.1-2.3-0.2-4.4-0.3-6.5C575,456.2,557.4,456.2,555.4,465.3z M565,425.1c3.8,1.8,6.5,4.2,7.8,7.5c4.5,11.4,4.1,19.3,3.8,21.7  c1,0,1.8,0,2.5,0c-1.1-17.4-3.9-25.9-9.4-28.9C568.2,425.3,566.6,425.2,565,425.1z M506.8,425.6c-22.1,1.8-46.7,21.7-55.3,29.2  c3.1,0.8,5.6,3.8,7.1,8.5c0.9,2.9,0.9,5.2-0.1,7.1l85.1-9.4l2.8-36.8C533.9,423.4,518.8,424.6,506.8,425.6z M442.7,463.6  c-0.2,0.4-0.4,0.9-0.6,1.3l-0.1,0.2c-0.4,1.2-0.4,2.2,0,3c1.3,2.2,5.8,2.8,7.4,2.9c0.1,0,0.1,0,0.2,0c0,0,0.5,0.1,1.2,0.1  c1.3,0,3.7-0.2,4.8-1.7c0.6-0.8,0.8-2.1,0.5-3.7H449c-0.6,0-1-0.4-1-1s0.4-1,1-1h6.6c-1.3-3.9-3.5-6.1-5.8-6.1  c-0.6,0-1.3,0.2-1.9,0.4c0,0,0,0,0,0C446,458.9,444.2,460.8,442.7,463.6z M433.9,480.3c-1.2,12.5-0.6,24,0.8,34.1l139.1-32.5  c1.1-2.2,2-4.3,2.9-6.3c-5.2-0.4-21.6-2.1-23.2-9.2L433.9,480.3z M642.7,465.4c-0.1-0.1-0.3-0.2-0.4-0.3l-25,1.5  c-3.7,0.2-7.1,2-9.4,4.9c-8.4,10.7-19.1,24.1-29.4,36.9c3.8-1.1,11.8-3.4,28.5-7.9c21.5-5.9,34.6,0.1,39.6,3.3  c-0.3-3.3-0.6-7.5-0.8-11.5c-0.4,1.6-1.2,3-2.3,4.2c-1.6,1.6-3.6,2.4-5.9,2.4c0,0,0,0,0,0c-7,0-14.7-7.3-15-7.7  c-0.6-0.6-0.6-1.5-0.1-2.1c5-5.5,9.2-7.5,12.3-8.2c-2.7-0.6-5.7-1.9-8.2-3c-1.3-0.6-2.5-1.1-3.4-1.4c-0.5-0.2-0.9-0.6-1-1.1  c-0.1-0.5,0.1-1.1,0.5-1.4c0.8-0.8,8.2-7.4,13.9-7.4c0.1,0,0.2,0,0.3,0c0.1,0,0.2,0,0.3,0c2,0.2,4.9,1.3,5.7,6.4  c0.5,3,0.2,5.2-1.1,6.7c-0.6,0.7-1.4,1.1-2.3,1.4c0,0,0.1,0,0.1,0c2.6,0.7,4.8,2.6,5.8,5.3c0,0.1,0,0.2,0.1,0.2  c-0.3-4.1-0.4-7.2-0.5-7.6l-0.7-5.6c0-0.2,0-0.5,0.1-0.7C644.2,472.6,646,467,642.7,465.4z M637.2,469.6c-1.7,1.7-2.6,3.3-2.5,4.8  c0.1,1.9,1.5,3.3,2.1,3.8c0.2,0,0.4,0,0.6,0c1.4,0,1.8-0.5,1.9-0.6c0.6-0.7,0.7-2.2,0.4-4.2C639.3,470.7,638.2,469.8,637.2,469.6z   M631.7,474.6c-0.1-1.4,0.3-2.8,1-4.1c-2.3,1-4.6,2.7-6.4,4c0.4,0.2,0.8,0.4,1.3,0.6c1.5,0.6,3.1,1.4,4.7,1.9  C632,476.3,631.8,475.5,631.7,474.6z M633.9,487.3c0-1.3,0.4-2.4,1.1-3.5c-2.3,0.5-5.5,2.1-9.4,6.1c2.2,1.9,7.4,5.8,11.8,5.8  c0.4,0,0.8,0,1.1-0.1C636.5,493.9,633.8,490.8,633.9,487.3z M642.5,487.4c-0.7-1.7-1.9-2.8-3.4-3.4c-1.4,1-2.1,2.1-2.2,3.4  c-0.1,2.5,2.7,5.3,4.5,6.8C643,492.5,643.5,489.8,642.5,487.4z M615.5,419.1c-2.4-0.3-12.7-1.4-26.2-2.6  c14.1,16,26.1,45.5,27.1,48.1c0.3,0,0.5-0.1,0.8-0.1l24.2-1.4C639,457.2,629.1,433.6,615.5,419.1z M483.8,421.6l3.9,6  c6.7-2.8,13.1-4.5,18.9-5c13.6-1.1,26.7-1.9,37.7-1.4c0.2-0.1,0.5-0.2,0.8-0.2c26.7,1.3,42.1,2.7,47.8,3.2c-2.1-2.9-4.2-5.6-6.4-7.9  c-14.7-1.2-32.5-2.3-47.7-2.3c-8.9,0-16.2,0.4-21.7,1.1C494.1,418.2,486.2,420.6,483.8,421.6z M395.4,475.2l10.4-1.3  c0,0,0.1-0.1,0.1-0.1c2.3-1.9,53.3-43.8,71.9-52.6l-3.1-0.8C469.3,423.8,424.4,451.7,395.4,475.2z M380.2,481.2c3-0.2,5.8,0.4,7.3,2  c0.1,0.1,0.2,0.3,0.3,0.4l44.2-5.2c0.5-5,1.3-10.3,2.5-15.6c-7.4,6.3-12.5,10.8-12.6,11c0,0-0.1,0-0.1,0.1c0,0-0.1,0.1-0.1,0.1  c-0.1,0-0.1,0.1-0.2,0.1c0,0-0.1,0-0.1,0l-29.4,3.5l-9.2,1.8C382.3,479.7,381.4,480.3,380.2,481.2z M352.3,505.9  c6.4-1.3,20-5,29.2-13.9c3.9-3.8,4.5-6,3.8-6.7c-1.7-1.9-9.1-1-11.6,1C366.7,491.7,357.5,499.4,352.3,505.9z M356.5,552.5l-7.5,0.8  v3.5c0,0.3-0.1,0.7-0.3,0.9l-2.5,3.2c0.5,1.3,1.9,4.2,5,4.2c0.2,0,0.4,0,0.5,0.1c0,0,0.1,0,0.3,0C354,565.2,356.2,561.8,356.5,552.5  z M425,555.5c0-16.6-13.5-30.1-30.1-30.1c-16.6,0-30.1,13.5-30.1,30.1c0,16.6,13.5,30.1,30.1,30.1C411.5,585.6,425,572.1,425,555.5z   M433.5,560.9c-1.1-13.8-5.5-25-13-32.6c-6.8-6.9-15.9-10.7-25.6-10.4c-19.5,0.5-35.5,15.3-35.5,32.8c0,4.4-0.4,7.7-1,10.2h3.8  c-0.3-1.8-0.4-3.6-0.4-5.4c0-18.2,14.8-33.1,33.1-33.1c18.2,0,33.1,14.8,33.1,33.1c0,1.8-0.2,3.6-0.4,5.4H433.5z M567.4,563.6  c0-0.8,0-1.8,0-3.1L436.8,566c0,0.8,0,1.6,0,2.4L567.4,563.6z M639.7,555.5c0-16.6-13.5-30.1-30.1-30.1s-30.1,13.5-30.1,30.1  c0,16.6,13.5,30.1,30.1,30.1S639.7,572.1,639.7,555.5z M642.7,555.5c0,0.5,0,1,0,1.5h4.1c-0.2-3.3-1-11.6-4.6-19.7  c-6-13.8-16.6-20.8-31.6-20.8c-12,0-21.6,3.7-28.4,11c-9.9,10.6-11.5,26.2-11.8,33.5h6.6c-0.3-1.8-0.4-3.6-0.4-5.4  c0-18.2,14.8-33.1,33.1-33.1S642.7,537.3,642.7,555.5z M655.6,544.8c-0.4-1-2.1-1.5-2.7-1.6c-0.4-0.1-0.8-0.3-1-0.7  s-0.3-0.8-0.2-1.2c0,0,0.2-0.7,0.4-1.8h-5.8c2.7,7.6,3.3,14.6,3.5,17.5c0.3,0,0.5,0,0.8,0c0,0,0,0,0,0c1.3,0,2.5-0.1,3.2-0.4  c0.6-0.2,0.9-0.4,0.9-0.7c0-0.8-0.2-1.2-0.6-1.7c-1.2-1.9-1.4-3.5,0.8-7C655.4,546.6,655.9,545.5,655.6,544.8z M419.1,555.5  c0,13.3-10.8,24.2-24.2,24.2c-13.3,0-24.2-10.8-24.2-24.2c0-13.3,10.8-24.2,24.2-24.2C408.2,531.4,419.1,542.2,419.1,555.5z   M415.9,555.5c0-11.6-9.4-21-21-21s-21,9.4-21,21c0,11.6,9.4,21,21,21S415.9,567.1,415.9,555.5z M403.5,570.6  c0.2,0.4,0.3,0.8,0.2,1.2s-0.4,0.7-0.8,0.9c-2.5,1.1-5.1,1.7-7.9,1.7c-2.7,0-5.4-0.6-7.8-1.7c-0.4-0.2-0.7-0.5-0.8-0.9  s-0.1-0.9,0.2-1.2l5.5-9c0.4-0.6,1.1-0.9,1.7-0.7c0.9,0.3,1.8,0.3,2.7,0.1c0.6-0.2,1.3,0.1,1.6,0.7L403.5,570.6z M400,570.7l-4-6.5  c-0.7,0.1-1.4,0.1-2,0l-4,6.6C393.2,571.8,396.7,571.8,400,570.7z M412.3,547.9c0.2,0.4,0.2,0.8,0,1.2c-0.2,0.4-0.5,0.7-0.9,0.8  l-10.3,3.9c-0.2,0.1-0.4,0.1-0.5,0.1c-0.5,0-1-0.2-1.2-0.7c-0.7-1-1.6-1.7-2.8-2.1c-0.7-0.2-1.1-0.8-1.1-1.5l0.8-11.4  c0-0.4,0.2-0.8,0.6-1.1c0.3-0.3,0.8-0.4,1.2-0.3C404.4,537.9,409.7,542.1,412.3,547.9z M408.8,547.7c-2.1-3.7-5.5-6.4-9.6-7.6  l-0.6,8.6c0.9,0.5,1.8,1.1,2.5,1.9L408.8,547.7z M412.1,553.5c0.4-0.1,0.9,0,1.2,0.3s0.5,0.7,0.5,1.1l0,0.1c0,0.1,0,0.3,0,0.4  c0,4.9-1.9,9.6-5.3,13.2c-0.3,0.3-0.7,0.5-1.1,0.5c0,0,0,0,0,0c-0.4,0-0.8-0.2-1.1-0.5l-7.1-7.6c-0.5-0.5-0.5-1.4-0.1-1.9  c0.6-0.8,0.9-1.6,1-2.6c0.1-0.7,0.6-1.2,1.3-1.3L412.1,553.5z M410.8,556.8l-7.9,1.3c-0.2,0.6-0.4,1.3-0.7,1.8l5.2,5.5  C409.4,563,410.6,560,410.8,556.8z M377.6,549.1c-0.2-0.4-0.2-0.8,0-1.2c2.4-5.5,7.3-9.5,13-10.9c0.4-0.1,0.8,0,1.2,0.2  c0.3,0.2,0.6,0.6,0.6,1l1.6,11.4c0.1,0.7-0.3,1.3-0.9,1.6c-1,0.4-1.8,1.1-2.3,2c-0.3,0.4-0.8,0.7-1.3,0.7c-0.2,0-0.4,0-0.5-0.1  l-10.6-4C378,549.8,377.7,549.5,377.6,549.1z M381,547.7l8,3c0.6-0.6,1.2-1.2,1.9-1.6l-1.2-8.7C386,541.8,382.9,544.4,381,547.7z   M390.8,560.9l-7.2,7.9c-0.3,0.3-0.7,0.5-1.1,0.5c0,0,0,0,0,0c-0.4,0-0.8-0.2-1.1-0.5c-3.5-3.6-5.4-8.3-5.4-13.3l0-0.4  c0-0.4,0.2-0.8,0.5-1.1c0.3-0.3,0.8-0.4,1.2-0.3l11,1.7c0.7,0.1,1.2,0.6,1.3,1.3c0.1,0.8,0.4,1.7,0.9,2.4  C391.3,559.6,391.3,560.4,390.8,560.9z M387.8,559.7c-0.2-0.5-0.4-1-0.6-1.5l-8.2-1.3c0.3,3.2,1.5,6.1,3.4,8.6L387.8,559.7z   M394.9,551.8c2.3,0,4.1,1.8,4.1,4.1s-1.8,4.1-4.1,4.1s-4.1-1.8-4.1-4.1S392.7,551.8,394.9,551.8z M393.9,555.9  c0,0.6,0.5,1.1,1.1,1.1c0.6,0,1.1-0.5,1.1-1.1s-0.5-1.1-1.1-1.1C394.4,554.8,393.9,555.3,393.9,555.9z M633.6,555.5  c0,13.2-10.8,24-24,24s-24-10.8-24-24s10.8-24,24-24S633.6,542.3,633.6,555.5z M630.5,555.5c0-11.5-9.4-20.9-20.9-20.9  s-20.9,9.4-20.9,20.9c0,11.5,9.4,20.9,20.9,20.9S630.5,567,630.5,555.5z M618.2,570.6c0.2,0.4,0.3,0.8,0.2,1.2s-0.4,0.7-0.8,0.9  c-2.5,1.1-5.1,1.7-7.9,1.7c-2.7,0-5.4-0.6-7.8-1.7c-0.4-0.2-0.7-0.5-0.8-0.9s-0.1-0.9,0.2-1.2l5.5-9c0.4-0.6,1.1-0.9,1.7-0.7  c0.9,0.3,1.8,0.3,2.7,0.1c0.6-0.2,1.3,0.1,1.6,0.7L618.2,570.6z M614.7,570.7l-4-6.5c-0.7,0.1-1.4,0.1-2,0l-4,6.6  C607.9,571.8,611.5,571.8,614.7,570.7z M627,547.9c0.2,0.4,0.2,0.8,0,1.2c-0.2,0.4-0.5,0.7-0.9,0.8l-10.3,3.9  c-0.2,0.1-0.4,0.1-0.5,0.1c-0.5,0-1-0.2-1.2-0.7c-0.7-1-1.6-1.7-2.8-2.1c-0.7-0.2-1.1-0.8-1.1-1.5l0.8-11.4c0-0.4,0.2-0.8,0.6-1.1  c0.3-0.3,0.8-0.4,1.2-0.3C619.1,537.9,624.4,542.1,627,547.9z M623.6,547.7c-2.1-3.7-5.5-6.4-9.6-7.6l-0.6,8.6  c0.9,0.5,1.8,1.1,2.5,1.9L623.6,547.7z M626.8,553.5c0.4-0.1,0.9,0,1.2,0.3s0.5,0.7,0.5,1.1l0,0.1c0,0.1,0,0.3,0,0.4  c0,4.9-1.9,9.6-5.3,13.2c-0.3,0.3-0.7,0.5-1.1,0.5c0,0,0,0,0,0c-0.4,0-0.8-0.2-1.1-0.5l-7.1-7.6c-0.5-0.5-0.5-1.4-0.1-1.9  c0.6-0.8,0.9-1.6,1-2.6c0.1-0.7,0.6-1.2,1.3-1.3L626.8,553.5z M625.5,556.8l-7.9,1.3c-0.2,0.6-0.4,1.3-0.7,1.8l5.2,5.5  C624.1,563,625.3,560,625.5,556.8z M592.3,549.1c-0.2-0.4-0.2-0.8,0-1.2c2.4-5.5,7.3-9.5,13-10.9c0.4-0.1,0.8,0,1.2,0.2  c0.3,0.2,0.6,0.6,0.6,1l1.6,11.4c0.1,0.7-0.3,1.3-0.9,1.6c-1,0.4-1.8,1.1-2.3,2c-0.3,0.4-0.8,0.7-1.3,0.7c-0.2,0-0.4,0-0.5-0.1  l-10.6-4C592.7,549.8,592.4,549.5,592.3,549.1z M595.7,547.7l8,3c0.6-0.6,1.2-1.2,1.9-1.6l-1.2-8.7  C600.8,541.8,597.6,544.4,595.7,547.7z M605.5,560.9l-7.2,7.9c-0.3,0.3-0.7,0.5-1.1,0.5c0,0,0,0,0,0c-0.4,0-0.8-0.2-1.1-0.5  c-3.5-3.6-5.4-8.3-5.4-13.3c0-0.1,0-0.2,0-0.3l0-0.1c0-0.4,0.2-0.8,0.5-1.1c0.3-0.3,0.8-0.4,1.2-0.3l11,1.7c0.7,0.1,1.2,0.6,1.3,1.3  c0.1,0.8,0.4,1.7,0.9,2.4C606,559.6,606,560.4,605.5,560.9z M602.6,559.7c-0.2-0.5-0.4-1-0.6-1.5l-8.2-1.3c0.3,3.2,1.5,6.1,3.4,8.6  L602.6,559.7z M609.7,551.8c2.3,0,4.1,1.8,4.1,4.1s-1.8,4.1-4.1,4.1s-4.1-1.8-4.1-4.1S607.4,551.8,609.7,551.8z M608.6,555.9  c0,0.6,0.5,1.1,1.1,1.1s1.1-0.5,1.1-1.1s-0.5-1.1-1.1-1.1S608.6,555.3,608.6,555.9z M558.3,464.7c0-3.5,4.6-6.2,10.4-6.2  s10.4,2.7,10.4,6.2c0,3.5-4.6,6.2-10.4,6.2S558.3,468.2,558.3,464.7z M560.4,465.3c0.1,0.4,0.3,0.7,0.6,1.1c7.1-2.6,13.6-1.9,16-1.4  c0-0.1,0-0.1,0-0.2c0-0.3-0.1-0.5-0.2-0.8C574.9,463.6,567.4,462.7,560.4,465.3z M568.7,468.9c3.2,0,5.8-1,7.2-2.2  c-2.4-0.3-7.5-0.7-12.9,1C564.5,468.4,566.4,468.9,568.7,468.9z M568.7,460.5c-3.4,0-6.1,1-7.4,2.3c5.1-1.5,9.9-1.5,13-1.2  C572.8,461,570.9,460.5,568.7,460.5z"/></svg>