<?xml version="1.0" ?><!DOCTYPE svg  PUBLIC '-//W3C//DTD SVG 1.1//EN'  'http://www.w3.org/Graphics/SVG/1.1/DTD/svg11.dtd'><svg enable-background="new 0 348.1 1000 304" id="Layer_1" version="1.1" viewBox="0 348.1 1000 304" xml:space="preserve" xmlns="http://www.w3.org/2000/svg" xmlns:xlink="http://www.w3.org/1999/xlink"><path d="M477.9,410.1c-0.4-0.9,0-2,0.9-2.4l19.5-8.8c0.9-0.4,2,0,2.4,0.9c0.4,0.9,0,2-0.9,2.4l-19.5,8.8c-0.2,0.2-0.5,0.2-0.7,0.2  C478.8,411.2,478.3,410.8,477.9,410.1z M476.1,411c-0.4-0.9-1.5-1.3-2.4-0.9l-11.3,5.1c-0.9,0.4-1.3,1.5-0.9,2.4  c0.4,0.7,0.9,1.1,1.6,1.1c0.2,0,0.5,0,0.7-0.2l11.3-5.1C476.1,413,476.5,411.9,476.1,411z M513.9,401.5l-40.3,18.1  c-0.9,0.4-1.3,1.5-0.9,2.4c0.4,0.7,0.9,1.1,1.6,1.1c0.2,0,0.5,0,0.7-0.2l40.3-18.1c0.9-0.4,1.3-1.5,0.9-2.4  C515.9,401.5,514.8,401,513.9,401.5z M643.9,407.5c0.2,0,0.5,0,0.7-0.2l19.5-8.8c0.9-0.4,1.3-1.5,0.9-2.4c-0.4-0.9-1.5-1.3-2.4-0.9  l-19.5,8.8c-0.9,0.4-1.3,1.5-0.9,2.4C642.4,407.2,643.1,407.5,643.9,407.5z M625.6,414.1c0.4,0.7,0.9,1.1,1.6,1.1  c0.2,0,0.5,0,0.7-0.2l11.3-5.1c0.9-0.4,1.3-1.5,0.9-2.4c-0.4-0.9-1.5-1.3-2.4-0.9l-11.3,5.1C625.6,412.1,625.3,413.2,625.6,414.1z   M636.8,418.3c0.4,0.7,0.9,1.1,1.6,1.1c0.2,0,0.5,0,0.7-0.2l40.3-18.1c0.9-0.4,1.3-1.5,0.9-2.4c-0.4-0.9-1.5-1.3-2.4-0.9l-40.3,18.1  C636.8,416.3,636.4,417.4,636.8,418.3z M240.5,581.7c0,31.4-25.3,56.7-56.7,56.7s-56.7-25.3-56.7-56.7c0-31.4,25.3-56.7,56.7-56.7  S240.5,550.3,240.5,581.7z M236.5,581.7c0-29.2-23.5-52.7-52.7-52.7s-52.7,23.5-52.7,52.7s23.5,52.7,52.7,52.7  S236.5,610.9,236.5,581.7z M228.7,600.3c-0.2,0.2-0.2,0.4-0.4,0.5c0,0,0,0-0.2,0.2l0,0c0,0-0.2,0-0.2,0.2l0,0c0,0-0.2,0-0.2,0.2  c-0.2,0-0.2,0.2-0.4,0.2h-0.2l0,0l0,0c-0.2,0-0.2,0-0.4,0c-0.2,0-0.4,0-0.4,0h-0.2l0,0h-0.2c-0.2,0-0.2-0.2-0.4-0.2l-26.6-15.3  c-1.1,2.6-2.4,4.9-4,6.9l26.6,15.3c0.2,0.2,0.4,0.4,0.5,0.5c0,0,0,0.2,0.2,0.2l0,0c0.5,0.7,0.5,1.6,0,2.4c-7.7,10-19,16.6-31.4,18.4  c-0.2,0-0.4,0-0.4,0l0,0c-0.2,0-0.4,0.2-0.7,0.2c-1.1,0-2-0.9-2-2v-31c-1.3,0.2-2.7,0.5-4,0.5c-1.3,0-2.7-0.4-4-0.5v31v0.2  c-0.2,1.1-1.1,2-2.2,1.8c-0.2,0-0.2,0-0.4,0c-12.4-1.6-23.7-8.2-31.4-18.1c-0.4-0.2-0.5-0.5-0.7-0.7c-0.5-0.9-0.2-2.2,0.9-2.7  l27-15.5c-1.6-2.2-4-6.9-4-6.9l-26.8,15.5c-0.2,0-0.2,0.2-0.4,0.2c-1.1,0.4-2.2-0.2-2.6-1.3c0-0.2-0.2-0.2-0.2-0.4  c-4.7-11.7-4.6-24.8,0.2-36.7c0.4-0.7,1.1-1.3,1.8-1.3c0.4,0,0.7,0.2,1.1,0.4l0,0l0,0c0,0,0,0,0.2,0l26.8,15.3  c1.1-2.6,2.4-4.9,4-6.9l-27.5-15.9c0,0-0.2,0-0.2-0.2c-0.9-0.5-1.1-1.8-0.5-2.7c0-0.2,0.2-0.2,0.2-0.4c7.8-10,19.1-16.6,31.7-18.2  c0,0,0,0,0.2,0s0.2,0,0.4,0l0,0c1.1,0,2,0.9,2,2v31.2c1.3-0.2,2.4-0.5,4-0.5c1.8,0,2.7,0.4,4,0.5v-31.2c0-1.1,0.9-2,1.8-2l0,0l0,0  h0.2h0.2c12.8,1.6,24.3,8.4,32.1,18.6c0,0,0,0,0,0.2c0.5,0.9,0.4,2.2-0.5,2.7l0,0l0,0c-0.2,0-0.2,0.2-0.4,0.2l-26.6,15.5  c1.6,2.2,2.9,4.4,4,6.9l26.8-15.3c0.4-0.2,0.7-0.4,1.1-0.4c0.9,0,1.6,0.5,1.8,1.3C233.6,574.9,233.6,588.4,228.7,600.3z   M167.6,581.7l-25.7-14.8c-3.5,9.7-3.5,20.1,0,29.7L167.6,581.7z M191.8,567.7l25.7-14.8c-6.6-7.8-15.7-12.9-25.7-14.8V567.7z   M175.8,567.7v-29.7c-10,1.8-19.1,7.1-25.7,14.8L175.8,567.7z M175.8,625.5v-29.7l-25.7,15C156.6,618.3,165.8,623.6,175.8,625.5z   M191.8,595.7v29.7c10-1.8,19.1-7.1,25.7-14.8L191.8,595.7z M195.7,581.7c0-3.1-1.1-5.8-3.1-7.8c-0.2-0.2-0.4-0.2-0.4-0.4  c-2.2-2.2-5.1-3.5-8.4-3.5c-6.6,0-11.9,5.3-11.9,11.9s5.3,11.9,11.9,11.9c5.3,0,9.8-3.5,11.3-8.4v-0.2  C195.5,583.9,195.7,582.8,195.7,581.7z M225.7,566.7L200,581.5l25.7,14.8C229.2,587,229.2,576.4,225.7,566.7z M824.9,581.7  c0,31.4-25.3,56.7-56.7,56.7c-31.4,0-56.7-25.3-56.7-56.7c0-31.4,25.3-56.7,56.7-56.7C799.4,525,824.9,550.3,824.9,581.7z   M820.8,581.7c0-29.2-23.5-52.7-52.7-52.7s-52.7,23.5-52.7,52.7s23.5,52.7,52.7,52.7S820.8,610.9,820.8,581.7z M813.1,600.3  c-0.2,0.2-0.2,0.4-0.4,0.5c0,0,0,0-0.2,0.2l0,0c0,0-0.2,0-0.2,0.2l0,0c0,0-0.2,0-0.2,0.2c-0.2,0-0.2,0.2-0.4,0.2h-0.2l0,0l0,0  c-0.2,0-0.2,0-0.4,0s-0.4,0-0.4,0h-0.2l0,0h-0.2c-0.2,0-0.2-0.2-0.4-0.2l-26.6-15.3c-1.1,2.6-2.4,4.9-4,6.9l26.6,15.3  c0.2,0.2,0.4,0.4,0.5,0.5c0,0,0,0.2,0.2,0.2l0,0c0.5,0.7,0.5,1.6,0,2.4c-7.7,10-19,16.6-31.4,18.4c-0.2,0-0.4,0-0.4,0l0,0  c-0.2,0-0.4,0.2-0.7,0.2c-1.1,0-2-0.9-2-2v-31c-1.3,0.2-2.7,0.5-4,0.5c-1.5,0-2.7-0.4-4-0.5v31v0.2c-0.2,1.1-1.1,2-2.2,1.8  c-0.2,0-0.2,0-0.4,0c-12.4-1.6-23.7-8.2-31.4-18.1c-0.4-0.2-0.5-0.5-0.7-0.7c-0.5-0.9-0.2-2.2,0.9-2.7l27-15.5c-1.6-2.2-4-6.9-4-6.9  l-26.8,15.5c-0.2,0-0.2,0.2-0.4,0.2c-1.1,0.4-2.2-0.2-2.6-1.3c0-0.2-0.2-0.2-0.2-0.4c-4.7-11.7-4.6-24.8,0.2-36.7  c0.4-0.7,1.1-1.3,1.8-1.3c0.4,0,0.7,0.2,1.1,0.4l0,0l0,0c0,0,0,0,0.2,0l26.8,15.3c1.1-2.6,2.4-4.9,4-6.9L731,555.4  c0,0-0.2,0-0.2-0.2c-0.9-0.5-1.1-1.8-0.5-2.7c0-0.2,0.2-0.2,0.2-0.4c7.8-10,19.1-16.6,31.7-18.2c0,0,0,0,0.2,0s0.2,0,0.4,0l0,0  c1.1,0,2,0.9,2,2v31.2c1.3-0.2,2.4-0.5,4-0.5c1.8,0,2.7,0.4,4,0.5v-31.2c0-1.1,0.9-2,1.8-2l0,0l0,0h0.2h0.2  c12.8,1.6,24.3,8.4,32.1,18.6c0,0,0,0,0,0.2c0.5,0.9,0.4,2.2-0.5,2.7l0,0l0,0c-0.2,0-0.2,0.2-0.4,0.2l-26.6,15.5  c1.6,2.2,2.9,4.4,4,6.9l26.8-15.3c0.4-0.2,0.7-0.4,1.1-0.4c0.9,0,1.6,0.5,1.8,1.3C818,574.9,818,588.4,813.1,600.3z M752,581.7  l-25.7-14.8c-3.5,9.7-3.5,20.1,0,29.7L752,581.7z M776.3,567.7l25.7-14.8c-6.6-7.8-15.7-12.9-25.7-14.8V567.7z M760,567.7v-29.7  c-10,1.8-19.1,7.1-25.7,14.8L760,567.7z M760,625.5v-29.7l-25.7,15C741.1,618.3,750,623.6,760,625.5z M776.3,595.7v29.7  c10-1.8,19.1-7.1,25.7-14.8L776.3,595.7z M780.1,581.7c0-3.1-1.1-5.8-3.1-7.8c-0.2-0.2-0.4-0.2-0.4-0.4c-2.2-2.2-5.1-3.5-8.4-3.5  c-6.6,0-11.9,5.3-11.9,11.9s5.3,11.9,11.9,11.9c5.3,0,9.8-3.5,11.3-8.4v-0.2C779.9,583.9,780.1,582.8,780.1,581.7z M810.2,566.7  l-25.7,14.8l25.7,14.8C813.5,587,813.5,576.4,810.2,566.7z M1000,522.4v26.6c0,0.2,0,0.2,0,0.4c-0.2,1.3-3.3,29.9-23.3,34.3  c-18.2,4-119.1,19.9-123.3,20.4c-0.7,0.2-1.6-0.2-2.2-0.5c-0.5-0.5-0.9-1.3-0.9-2c0,0,0-0.2,0-0.4h-0.2h-14.2l0,0  c-8.4,29.4-35.6,50.9-67.5,50.9c-31,0-57.3-20.1-66.6-48h-12c0,1.6,0.2,2.7,0.2,2.7c0,0.7-0.2,1.5-0.7,2c-0.5,0.5-1.3,0.9-2,0.9  H267.7c-0.7,0-1.5-0.4-2-0.9s-0.7-1.3-0.7-2c0,0,0-1.1,0-2.9h-14.2c-0.2,0-0.4,0-0.5,0c-9.3,27.9-35.7,48-66.6,48  c-31,0-57.3-20.1-66.6-48h-12.8c0.2,0.9,0.2,1.8,0.4,2.6c0.2,0.7,0,1.6-0.5,2.2c-0.5,0.5-1.3,0.9-2.2,0.9H36.7  c-0.4,0-0.7-0.2-1.1-0.4l-26.3-4.9c-0.9-0.2-1.6-0.9-1.8-1.8c-0.2-1.1,0.5-2,1.5-2.2l3.6-1.1l-10-0.5c-1.3,0-2.4-0.9-2.6-2.2  c-0.2-1.3,0.4-2.6,1.6-2.9c2-0.9,7.7-4,9.3-7.7c1.8-4,0-11.5-3.5-13.7l-4.6-2.9c-0.7-0.5-1.3-1.3-1.3-2.2L0,544.3  c0-1.1,0.5-2,1.5-2.6l4.9-2.7c-0.7,0-1.5-0.4-2-1.1c-0.5-0.7-0.7-1.5-0.5-2.4l9.7-37.4c0.4-1.5,1.8-2.4,3.1-2l2.9,0.5l0.2-0.2  l-0.9-0.2c-0.7-0.2-1.5-0.5-1.8-1.3c-0.4-0.7-0.5-1.5-0.4-2.2c0-0.4,2.2-7.1,11.9-10.8c9.1-3.5,43.4-15.7,99.9-25.9  c56.3-10.2,134.4-17.3,155-17.3h11.5c8.6-4.9,102.5-57.6,143.9-71.7c39.4-13.3,81.3-19.1,136.4-19.1c10.6,0,21.9,0.2,33.7,0.7  c79.5,2.9,151.2,20.2,188.2,34.1c37.4,14,89,36.5,93.5,38.3c4.7,0.7,57.6,9.3,66.6,9.3c0.2,0,0.4,0,0.4,0c7.8-0.4,15.7-0.4,15.7-0.4  c1.3,0,2.2,0.7,2.6,1.8l9.5,29.4c0.2,0.7,0.2,1.6-0.2,2.2c-0.4,0.5-1.1,1.1-1.8,1.3l-9.7,1.8c2.2,7.1,7.1,24.4,7.5,29.5  c0.2,1.5,0.2,2.9,0.2,4C984.7,501.3,1000,509.5,1000,522.4z M979.9,505.8l-1.6-0.2c-0.5,0-1.1,0.2-1.5,0.2c-1.1,0-2.2-0.2-3.3-0.7  c-2.7-1.1-5.1-3.6-7.3-7.1c-0.2,0-0.4,0-0.5,0c-12.2,0-31.4-1.3-48-8.2c-2.6,4.9-10.6,14.4-33.9,17c-22.8,2.4-56.3,4.9-70.9,6  c13.1,8.6,23.5,21.3,31.2,38.3c0.7,1.6,1.5,3.5,2.2,5.1l148.8-16.4v-17.1C994.5,512.8,981.6,506.2,979.9,505.8z M185.4,498.4  c23,0,41.9,7.5,56.2,22.2c16.6,17.1,23.7,40.8,26.6,59.1l50.3-2.2c-2.6-13.1-6.2-36.8-7.5-66.4c-0.4-7.3-0.2-13.9,0.2-19.3  l-72.8,5.1c0,0,0,0-0.2,0c-0.9,0-1.8-0.7-1.8-1.6c0-1.1,0.7-1.8,1.6-2l73.3-5.3c1.6-16,6-24.4,9.3-28.8c-6.7,0.7-13.9,1.6-21,2.4  l-0.2,0.2l-0.2-0.2c-69.8,8.2-155.9,19.1-168.9,23c-0.2,0.4-0.4,0.9-0.7,1.3c-0.2,0.2-5.1,4.6-15.5,12l27.9,10.9  C154.4,501.8,168.9,498.4,185.4,498.4z M298.3,458.2l5.7-5.7c-25.3,2.6-138.4,14.8-186.5,26.1c7.3,0.7,11.7,2.4,11.9,2.6h0.2  c5.7-1.6,25.5-5.3,99.2-14.6C254.4,463.5,279.9,460.4,298.3,458.2z M78.4,490.3c-25.5,10.6-32.6,18.8-38.5,35  c0.5-0.4,1.3-0.5,1.8-0.9c2.7-6,12.9-23.5,39.4-31c23.5-6.6,35.6-7.5,40.3-7.5c0.4-0.4,0.9-0.7,1.3-0.9c-3.1-0.5-7.3-1.3-12.8-1.3  C99.6,483.8,89,486,78.4,490.3z M47,522.4c1.3-0.4,2.6-0.7,3.8-0.7c6-0.4,28.4-6.2,47.6-19c7.5-5.1,13.5-9.3,17.9-12.6  c-6.2,0.5-17.1,2.2-34.1,6.9C61.5,502.7,51.2,515.1,47,522.4z M609.2,374.7l-11.5,64c58-2.4,112.9-4.4,151.7-5.8l-39-42.3  C681.4,382.2,647,376.9,609.2,374.7z M756,432.2l-0.5,0.4c19.7-0.7,34.6-1.3,42.7-1.5c-6.2-4.4-20.6-13.1-54-28.3  c-7.3-3.3-15.1-6.4-23.7-9.1L756,432.2z M592.1,438.5l11.5-64.2c-23.2-1.1-47.4-0.9-72.4,0.4c-58,3.1-120.5,31.7-143.7,43.2  c6.6,0,11.7,2.2,15.5,6.2c2.2,2.4,3.6,5.1,4.6,7.8l0,0c2.6,7.1,1.8,14.2,1.8,14.6c0,0.4-0.2,0.7-0.5,1.1  c53.4-3.1,120.7-6.2,184.5-8.9L592.1,438.5z M380.4,449.5c1.8-0.2,3.5-0.2,5.3-0.4c2-0.2,3.8-0.4,5.7-0.7c9.1-1.5,12.9-2.6,14.2-3.1  c0-0.5,0-1.1,0-1.8h-20.6c-1.1,0-1.8-0.7-1.8-1.8c0-1.1,0.7-1.8,1.8-1.8h20.2c-0.2-1.6-0.5-3.5-1.1-5.3H378c-1.1,0-1.8-0.7-1.8-1.8  s0.7-1.8,1.8-1.8h24.6c-0.7-1.5-1.6-2.9-2.9-4.4c-3.1-3.5-7.5-5.1-12.9-5.1c-6.4,0-11.3,1.8-14.8,5.3c-5.8,5.8-5.7,14.6-5.7,14.8  c0,0.7-0.5,1.5-1.3,1.8l-5.8,2l6,3.5c1.3,0.2,5.7,0.7,11.5,0.7C378.2,449.7,379.3,449.5,380.4,449.5z M365.4,431.3  c-9.8,6.7-22.8,15.9-31,21.9c7.8-0.7,17.1-1.5,27.4-2.2l-7.5-4.4c-0.5-0.4-0.9-1.1-0.9-1.8s0.5-1.3,1.3-1.5l8.6-2.7  C363.2,438.5,363.8,434.9,365.4,431.3z M315.5,488l214.6-15.3c-0.7-1.1-0.9-2-0.7-2.7c0.7-4,10.4-7.1,28.3-9.1  c14.2-1.6,23.3-0.5,26.1,2.9c0.9,1.1,1.1,2.4,0.7,3.8c-0.2,0.4-0.4,0.9-0.7,1.5l22.2-1.6c-2.2-11.5-5.7-19.1-7.8-23.2  c-107.4,4.4-225.7,10.2-272.2,15.3C323.3,461.7,317.5,469.2,315.5,488z M606.7,470.8l-291.6,20.8c-0.4,5.7-0.5,12-0.2,19.5  c1.8,39.9,7.8,69.1,9.5,75.9l252.4-6.9c3.6-0.2,6.7-2.4,8-5.8c5.8-16,24.4-70.4,23.2-92.8C607.4,477.4,607,474.1,606.7,470.8z   M533.6,471h10.2c1.1-1.8,4.2-2.6,9.7-2.7c8.6-0.2,14.4,0.5,15.5,0.7c5.7-0.2,11.3-1.5,12-2.6c0-0.2,0-0.4-0.2-0.5  c-0.4-0.4-2.4-2.4-11.5-2.4c-3.3,0-7.1,0.2-11.3,0.7c-18.4,2.2-24.3,5.1-25,6.2C533,470.6,533.2,470.6,533.6,471z M269,583.3  c0.7,5.5,1.1,10.4,1.5,14.2l414.1-9.3c0.5-6.9,1.8-14.8,3.8-23l-98.1,4.4v-0.7c-0.7,2.2-1.5,4.4-2.2,6.2c-1.8,4.9-6.2,8-11.3,8.2  l-254,7.1l0,0c-0.9,0-1.6-0.5-1.8-1.5c0-0.2-0.7-2.9-1.6-7.8L269,583.3z M709.2,523.7c14.4-15.7,34.1-23.7,58.7-23.7  c14.6,0,27.9,3.1,39.2,9.3c9.5-0.7,50-3.6,76-6.4c21.5-2.2,28.8-10.8,31-14.8c-1.3-0.5-2.7-1.3-4-2c-3.3-1.8-6.4-3.5-9.3-5.1  c-18.4-9.8-26.4-14.6-25.5-20.1c0.7-4.4,6.9-5.8,13.5-6.7c15.5-2.2,40.5-0.7,59.3,2.2c-7.5-14-18.4-15.3-38.3-17.7  c-7.7-0.9-16.2-2-26.3-3.8c-23.3-4.6-60.9-19.9-93.9-33.4c-19.7-8-38.3-15.7-51.2-19.9c-33.2-10.8-117.1-24.8-212.1-19.5  c-96.8,5.5-203.3,78.2-207.7,81.3l-14.4,14.6c7.8-0.9,14-1.6,17.7-2l0,0l0.2-0.2l0.2-0.2l0.2-0.2l0.2-0.2l0,0  c1.8-1.3,45-32.3,52.9-36.7l0,0l0,0c0.7-0.4,81.7-44.7,155.2-48.5c119.4-6.4,186.5,15.1,215.7,28.4c53.8,24.6,60.4,32.8,61.1,34.8  c0.4,0.9,0.2,1.8-0.4,2.6c-0.5,0.7-1.3,1.1-2.2,1.3c-1.8,0-96.6,3.1-203,7.7c2.4,4.6,5.5,12.2,7.5,23l255.7-18.2  c1.1,0,1.8,0.7,2,1.6c0,1.1-0.7,1.8-1.6,2l-255.3,18.1c0.5,3.3,0.9,6.6,1.1,10.4c1.1,19.7-11.9,61.1-20.1,85.2l97.9-4.4  C692.9,548.3,699.1,534.6,709.2,523.7z M750.5,381.8l7.7-5.3c-3.8-1.1-8-2-12.2-3.1l-7.3,4.4c0.2,0,0.5,0.2,0.7,0.2  C742.9,378.9,746.5,380.2,750.5,381.8z M975.4,497.6c-1.3,0-2.9,0.2-4.9,0.2c1.5,1.8,2.7,3.3,4.4,3.8c0.2,0,0.4,0.2,0.5,0.2  C975.4,500.9,975.4,499.3,975.4,497.6z M963.2,492.3c-1.5-3.1-2.9-6.7-4.4-10.4c-12.6-2.2-32.1-4.7-56.9-6.6  c0.5,0.4,1.1,0.5,1.6,0.9c2.9,1.6,6.2,3.3,9.5,5.1C928.9,490.2,949.5,492.2,963.2,492.3z M955.5,473.6c-6.6-1.3-16-2.4-29.4-3.5  c-14.2-1.1-28.4-1.5-36.8-1.6c1.6,0.9,3.3,1.8,4.9,2.9c6.2,0.4,23,1.6,39.6,3.5c9.8,1.1,17.5,2.2,23.3,3.3c-0.2-0.4-0.4-0.7-0.4-1.1  C956.4,475.7,956.1,474.7,955.5,473.6z M967.2,492.3c2.9,0,5.5-0.2,7.3-0.2c-0.4-2-0.9-4.2-1.6-6.6c-1.8-0.9-5.1-1.8-9.8-2.7  C964.4,486.1,965.7,489.6,967.2,492.3z M971.7,481.4c-0.2-0.7-0.4-1.6-0.7-2.4c-0.5-0.9-2.9-2.7-11.3-4.7c0.2,0.4,0.4,0.7,0.4,1.1  c0.4,1.1,0.7,2.2,1.3,3.3C966.1,479.8,969.4,480.5,971.7,481.4z M955.3,463.2c0.9,2.4,2,4.7,2.9,7.1c5.3,1.1,8.9,2.2,11.3,3.3  c-0.7-2.7-1.5-5.1-2-6.9C965.2,465.5,960.8,464.3,955.3,463.2z M951.1,462.3c-17.9-3.1-44.7-5.1-61.5-2.7c-6.4,0.9-8.2,2-8.8,2.4  c0.4,0.7,1.3,1.6,2.6,2.6c6,0,24.4,0.4,42.9,1.8c11.9,0.9,20.8,2,27.5,3.1C953.1,467,952,464.6,951.1,462.3z M971.2,435.6  c-0.9,0-2,0-3.3,0l-27,7.1c4.2,2.7,7.7,6.6,10.8,12.2c0.4,0.7,0.7,1.5,1.1,2.2c7.8,1.5,14.2,3.1,17.7,4.7l8.8-1.6L971.2,435.6z   M888.6,426.3c0,0-1.6-0.7-4.4-1.8l-17.3,2.2c6.4,2,12.2,3.5,17.3,4.6c10,2,18.4,2.9,25.9,3.8c10.6,1.3,19,2.4,25.7,5.1l16.8-4.4  c-16-1.5-61.6-8.9-63.6-9.1C889.1,426.5,888.8,426.5,888.6,426.3z M795,388c-8.9-3.3-19.7-6.9-32.3-10.4l-8.2,5.7  c10.8,4,23.3,9.3,36.3,14.6c22.4,9.1,46.9,19.1,67.5,26.1l19-2.4C859.8,413.9,823.3,398.6,795,388z M575.1,353.6  c-52.2,0-90.8,5.1-127.8,16.8l6.6,2.2l0,0c23.5-7.5,48.3-12.9,72.4-14.4c42.3-2.4,87-1.1,129.1,3.6c30.8,3.5,59.1,8.8,78.8,14.4  l6.9-4.2c-36.7-8.6-83-16-132.4-17.9C597,353.8,585.7,353.6,575.1,353.6z M303.8,440.4l13.1-0.5c5.7-3.8,63.1-42.7,131.1-65.5  l-6.6-2.2c-0.2,0-0.4,0.2-0.5,0.2C404.4,384.8,326.8,427.6,303.8,440.4z M23.9,491.8l17.7,3.1c0.9,0.2,1.6,0.7,2,1.5s0.4,1.6,0,2.6  l-2.2,4h4.9v0.5c6.2-6.6,15.3-12,29.9-18.1c9.5-3.8,19-6.2,28.3-6.7c41.2-13.7,190.9-28.8,203.7-30.1l4.7-4.7l-16.6,0.7h-0.2h-0.7  h-0.2l0,0h-11.7c-20.6,0-97.9,7.1-154.1,17.3c-56,10.2-89.9,22.2-98.8,25.7C27.4,488.7,25.2,490.3,23.9,491.8z M26.1,498h0.4  c0.7,0.2,1.3,0.5,1.8,1.1c0.4,0.5,0.5,1.3,0.4,2l-2.2,10.2h4.2l6.4-12l-10.6-1.8L26.1,498z M10.2,533.6h4l2.4-8.6l-3.5-2.4  L10.2,533.6z M26.8,518.6l0.9-1.6h-4.6c-0.7,0-1.5-0.4-2-0.7l-6.4,3.1l3.3,2.4c0.4-0.4,1.1-0.5,1.6-0.5l0,0h5.8L26.8,518.6z   M21.7,526.6l-0.9,3.1l1.6-3.1H21.7z M15,515.1l5.8-2.7l2-9.5l-4.6-0.9L15,515.1z M5.7,545.6l1.5,19.9l2,1.5l3.6-0.9l-0.9-23.7  l-0.9,0.4L5.7,545.6z M17.1,582.8c0,1.5-0.2,2.7-0.7,4l10.4-7.3c-0.2-1.1-0.4-2-0.5-2.9L17.1,582.8z M22.4,586.8h4.4  c0.2-1.1,0.2-2.2,0.2-3.3L22.4,586.8z M25,572.9c-0.5-1.1-1.1-2-1.6-2.7l-7.3,5.1c0.4,1.1,0.7,2.2,0.9,3.3L25,572.9z M12.8,569.7  c0.5,0.7,1.1,1.5,1.6,2.2l5.7-4L12.8,569.7z M15.9,602.1l12.6,2.4l-6-4.4v0.2L15.9,602.1z M99,604.3c-0.2-1.1-0.2-2.6-0.2-4H46.5  c-1.1,0-1.8-0.7-1.8-1.8s0.7-1.8,1.8-1.8h52.2c0-16.6,3.6-47.4,22.6-70.6c4.9-6,10.6-11.1,17-15.1l-27.2-10.6c-2.9,2-6,4.2-9.7,6.7  c-19.5,13.1-42.9,19.7-50.3,20.1c-4.2,0.2-11.1,4.2-14,6.2c-6.4,6-10,15.7-10,15.9c-0.2,0.7-0.9,1.3-1.6,1.3c-0.2,0-0.4,0-0.5-0.2  c-0.9-0.4-1.5-1.5-1.1-2.4c0.2-0.5,3.3-8.8,8.9-15.1c-0.4-0.7-0.5-1.5-0.2-2.2c3.3-10,6.2-17.7,11.5-24.3h-4.2l-4.9,9.1l0,0  l-5.1,9.5l0,0l-5.1,9.7c-0.2,0.5-0.5,0.9-1.1,1.1l-8,4.4l0.9,25l4.9-1.1l0,0c0.2,0,0.2,0,0.4,0c0.2,0,0.2,0,0.4,0  c0.2,0,0.2,0,0.4,0.2c0.2,0,0.2,0,0.4,0.2l0,0c0.4,0.4,10.4,7.7,7.7,24.8c-0.2,0.9-0.9,1.5-1.8,1.5l0,0l0,0H14.4  c-0.9,1.3-2,2.4-3.1,3.3l12,0.7c0.5,0,1.1,0.2,1.5,0.5l12.8,9.3H99V604.3z M248.5,581.7c0-35.7-29-64.7-64.7-64.7  s-64.7,29-64.7,64.7s29,64.7,64.7,64.7S248.5,617.4,248.5,581.7z M264.8,598.7c-0.9-16-5.3-51.6-27.2-74.2  C224.5,510.8,207,504,185.4,504c-25.7,0-46,8.8-60,25.7c-17.9,21.9-21.5,53.2-21.3,68.9h11.5c-1.3-5.5-2-11.1-2-17  c0-38.7,31.5-70.2,70.2-70.2S254,543,254,581.7c0,5.8-0.7,11.5-2,17H264.8z M684,604.3c-0.2-3.3-0.2-7.5,0.2-12.4l-413.7,9.3  c0,1.3,0,2.2,0,3.1H684z M833,581.7c0-35.7-29-64.7-64.7-64.7s-64.7,29-64.7,64.7s29,64.7,64.7,64.7S833,617.4,833,581.7z   M849.7,595.6c-0.9-8.6-3.5-25.7-11.1-42.7c-14-31.5-37.9-47.6-70.8-47.6c-23,0-41.4,7.3-54.7,21.9c-20.6,22.4-23.5,55.8-23.7,71.1  H700c-1.3-5.5-2-11.1-2-17c0-38.7,31.5-70.2,70.2-70.2c38.7,0,70.2,31.5,70.2,70.2c0,4.7-0.5,9.5-1.5,13.9h12.8V595.6z M988.7,567.1  l-10.4,1.6l-6.7,10.2c1.5-0.4,2.7-0.5,3.8-0.7C981.6,577,985.8,572.2,988.7,567.1z M994.5,548.9v-5.7l-147.3,16.4  c6,16.8,7.8,32.3,8.4,38.7c14.8-2.4,79.7-12.6,108.7-17.7l10.4-15.5c0.4-0.5,1.1-1.1,1.8-1.3l15.1-2.6  C993.8,555.3,994.5,549.8,994.5,548.9z M59.1,587.2c-12-0.4-16.6-2.7-16.8-2.7c-0.9-0.5-1.3-1.6-0.7-2.4c0.4-0.9,1.5-1.3,2.4-0.7  c0,0,1.3,0.5,3.8,1.1c-4-4-6-9.8-6.7-14.6l-2.4,1.6c-0.4,0.2-0.7,0.4-1.1,0.4c-0.5,0-1.1-0.2-1.5-0.7c-0.5-0.9-0.4-2,0.4-2.6  l5.1-3.5c0.7-0.5,9.3-7.1,23.7-6.6c1.8,0,3.6,0.5,5.5,1.1l0,0l0,0c11.9,4.6,18.4,21.2,18.8,21.9c0.4,0.9,0,1.8-0.7,2.2  c-0.4,0.2-9.5,5.1-25.2,5.7c-0.2,0-0.2,0-0.4,0c-0.5,0-1.1,0-1.6,0c-0.4,0-0.5,0-0.9,0h-0.5C59.8,587.3,59.4,587.2,59.1,587.2z   M50.3,579.7L74,563.5c-0.9-0.7-1.8-1.3-2.9-1.8l-22.6,15.9C48.9,578.2,49.6,579,50.3,579.7z M67.8,583.3l14.4-9.8  c-0.5-0.7-1.1-1.6-1.6-2.6l-18.2,12.8C64.4,583.5,66.2,583.5,67.8,583.3z M85.3,579c-0.4-0.7-0.7-1.5-1.1-2.4l-7.8,5.3  C80.6,581,83.7,579.7,85.3,579z M76.8,566l-23.3,16c0.9,0.5,2.2,0.9,3.3,1.3l21.9-15.1C78,567.3,77.3,566.6,76.8,566z M62,560  l-16.4,11.5c0.2,0.9,0.5,1.8,0.9,2.7l20.1-14c-0.5-0.2-1.1-0.2-1.6-0.2C64,559.8,63.1,559.8,62,560z M44.5,565.3  c0,0.5,0.2,1.5,0.2,2.4l9.3-6.6C49.1,562.4,45.8,564.4,44.5,565.3z"/></svg>