<svg xmlns="http://www.w3.org/2000/svg" version="1.0" viewBox="0 0 744.1 538.2"><path fill="none" d="m346 170.3 22.8-136.4a151 151 0 0 0-148.3 151c0 25.6 7 50.3 18.7 73zm25.1 43.8-129.2 48.5c26.9 45 77 73 129.4 73 52.7 0 102.2-28 129.3-73zm25.4-43.8 107 87.6a155 155 0 0 0 18.8-73c0-83.2-66-148.5-148.2-151.2zm142 14.6c0 91.8-75.4 167.1-167.2 167.1a168 168 0 0 1-167.1-167.1c0-92 75.3-167.2 167.1-167.2 91.9 0 167.1 75.3 167.1 167.2"/><path fill="currentColor" d="m35.1 442.2-3 66.8c-.3 6.4 4.4 7.7 10.2 8v2.3q-6.1-.4-12.4-.5-6 .1-12.2.5v-2.2c5.9-.4 10-1.7 10.3-8.1l3-63.2c.5-6.8-4.3-7.8-10.1-8v-2.4l10.5.2q4.5 0 9-.6L64 501.6 88 435l2.7.4 6.7.2 10.2-.2v2.4c-5.8.2-10.3 1.4-10.2 8l1.4 63.2c.3 6.4 4.3 7.7 10.4 8v2.3l-5.2-.3-9.3-.4q-4.6 0-9.4.4l-5 .3v-2.2c5.9-.4 10.3-1.7 10.1-8.1l-1-66.8-26.7 74.5h-1.5zm142.3 26.2v44.5c0 4.2-5.9 4.4-8.8 4.5v2q6.3-.5 12.7-.6 6.5.1 12.8.5v-1.9c-4.8-.3-9-.9-9-6.6v-25c0-7.2 1.2-21.6 10.9-22.3 1.7-.2 4.2.7 4.4 2.8 0 1.2-.6 2.1-.6 3.2 0 2.5 2.3 4.2 4.5 4.4 3.5 0 5-3 5-6 0-5.4-4.8-9.3-10-9.3-7.2 0-12.7 4.9-14.7 11.5q0-6.3-.9-12.3a70 70 0 0 1-15.1 2.9v1.8c5 .2 8.8 0 8.8 5.9m71-10.9-3.3 6.2a17 17 0 0 0-11.8-5.1c-16.3 0-24 16.2-24 30.7s6.7 31.2 23.4 31.2c12 0 18-10 19-20.6h-4.8c-1.4 8-4.2 16.6-13.9 16.6-13.5 0-14.9-17.2-14.9-27.2 0-9.4 2.3-27.7 15-27.7 9 0 13.3 7.7 14.8 15.3h2.5v-19.4zm52.7 42.2h5c-2 12.7-9.3 20.8-22.4 20.8-16.7 0-23.4-15.7-23.4-30.2s6.4-31.7 23.4-31.7c16.4 0 22.2 14.7 22 28.8H268c.3 11.7 1.8 29.1 17.1 29.1 9.9 0 14.7-8.1 16-16.8m-3-16.6v-1.7c-.9-8.9-3.7-19.6-14.6-19.6-10.4 0-14.7 12.6-15.1 21.3zm69.1 32.5v1.7c-5 .7-9.9 1.3-14.9 2.8q-1.1-5.4-1.4-11c-3 6.6-8.6 11-16 11-16 0-22-17.6-22-30.8s6.2-30.3 22-30.3c7.6 0 12 4.7 15.6 11v-24.2c0-5.9-3.4-6.6-8.8-6.6v-1.7l1.5-.4c5.1-.6 10.1-1.2 15-2.7v72.5c0 6.6 2.4 8.7 9 8.7m-16.7-25.9c0-10-1.7-27.3-15-27.3-12.8 0-14.1 17.3-14.1 26.6s1.1 27.7 14.5 27.7 14.6-17.2 14.6-27m64 10h5c-1.1 12.7-9.7 20.8-22.3 20.8-16.6 0-23.6-15.7-23.6-30.2s6.6-31.7 23.6-31.7c16.5 0 22.2 14.7 22.2 28.8h-37.9c-.2 11.7 2 29.1 17 29.1 9.7 0 15-8.1 16-16.8m-2.8-16.6c-.9-9.2-3.1-21.3-14.6-21.3-10.4 0-14 11.7-15 20.2l-.2 1.1zm18 37.4 2.9-5.3c4 3.4 9.5 4.9 14.7 4.9 10.1 0 19.8-6.6 19.8-17.6 0-8.3-5.7-12.4-13-15.2l-5.6-2.3c-5.1-1.9-13.4-4.7-13.4-11.5s5.4-11.5 12.2-11.5c8.8 0 12.4 7.1 13.3 14.9h2.4v-19h-2l-1.7 4.6A23 23 0 0 0 447 459c-9.5 0-18.3 6.2-18.3 16.2 0 20 31.9 14.1 31.9 29.2 0 7.4-6.6 12.3-13.6 12.3-10.3 0-14.9-7.7-17-16.8l-2.6.2.2 20.4zm42.8-33.6h22.7v-4h-22.7zm131.9 12.8h5c-1.2 12.3-9.8 21.3-22.5 20.8-16.4-1-23.4-15.1-23.4-30.2 0-14.5 6.5-31.7 23.4-31.7 16.5 0 22.3 14.7 22.3 29h-37.9c-.1 11.5 2.1 28.9 17 28.9 10 0 14.7-8.1 16.1-16.8m-3-16.6c-.1-9.2-3.4-21.3-14.6-21.3-10.2 0-14 11.9-15 20.2l-.2 1.1zm22.5-14.5V511c0 5.7-4.2 6-9.1 6.4v2.1q6.5-.6 12.9-.7t13 .7v-2c-5-.4-9.2-1-9.2-6.5v-30c0-8.8 4.6-16.8 14.7-16.8 9.6 0 11.5 8.5 11.5 16.5v32.2c0 4.4-6 4.4-9.1 4.5v2.1q6.3-.6 12.9-.7t13 .7v-2c-4.9-.4-9-.8-9-6.5v-30.7c0-11.2-5.6-21.3-18.2-21.3a19 19 0 0 0-16.3 9.6v-1.5q-.3-5-.9-9.6a69 69 0 0 1-15 3.7v2c5 0 8.8-.3 8.8 5.4m98.4 50.5 3-17h-2c-2.9 8-6.3 14.2-15.4 14.2H691l35.4-56.4h-40.3l-2.7 15.5h2.1c2.7-7.2 5.5-12.5 14-12.5h16.1l-35.2 56.2zm-565-19.4h5c-1.1 12.7-9.6 20.8-22.3 20.8-16.8 0-23.4-15.5-23.4-30.2 0-14.5 6.4-31.7 23.4-31.7 16.5 0 22.2 14.7 22.2 28.8h-37.8c-.2 11.7 2 29.1 17 29.1 9.5 0 15.2-8.1 16-16.8m-2.8-16.6c-.6-9.2-3.3-21.3-14.8-21.3-10.8 0-13.9 12.6-15 21.3zm400.6 12.1c0 15-10.5 24-28.8 24h-30.6v-2.5c8.4-.6 10.3-1.9 10.3-8.3v-62.3c0-6.2-1.9-7.7-10.3-8v-2.5h31.5c15.3 0 23.9 7.3 23.9 20.2q.2 13-13.3 18.8a20 20 0 0 1 17.3 20.6m-31.5-21.5c12.8 0 18.4-5.5 18.4-17.6 0-11.9-5-17.1-16-17.1h-11.6v34.7zm-9.3 34.9c0 5.8 1.3 7 8.5 7h4.6c11.6 0 18.7-7.6 18.7-19.9q.2-18.7-18.7-18.6h-13.1zm24.1-323.7c0 91.8-75.4 167.1-167.2 167.1a168 168 0 0 1-167.1-167.1c0-92 75.3-167.2 167.1-167.2 91.9 0 167.1 75.3 167.1 167.2m-204.2 18.6-.2.4.5-.2 32-18.8-5.7-3.3zm146.1 43h.6l-.3-.5-97.1-65.3-7.4 4.2zM370.2 67.9l-.3-.4-.2.4-6.8 109.2 6 3.6zm101.3-1 .2.6q12 11 22.1 23.8a150 150 0 0 1 32.1 93.6c0 26.6-7 52.2-19.8 75.4l1.7 3.2-3.6.2a156 156 0 0 1-133 75.7c-54.3 0-105-29-132.8-75.7l-3.4-.2 1.4-3.2a166 166 0 0 1-17-47.3l-.3-.4-.2.6a152 152 0 0 0 152.4 131.9c88 0 159.9-72.3 159.9-160.2 0-45.1-23.3-90.6-59.2-118zm-102.8-33a151 151 0 0 0-148.3 151c0 25.6 7 50.3 18.7 73L343.7 172l8.6 5L238 260.9l-.5 1.1h1.3l130-73.2-.3 26.2-126.7 47.6c26.9 45 77 73 129.4 73 52.7 0 102.2-28 129.3-73L373.9 215l-.4-26.2L503.9 262h1.1l-.5-1-114.4-84 8.5-5 104.9 85.9a155 155 0 0 0 18.8-73c0-83.2-66-148.5-148.2-151.2l22 133.8-22.5 13.2L372 31.3l-.7-.8-.6.8-15.8 141-8.4-4.8zM264.5 307.7a174 174 0 0 1-51.2-122.8c0-87 71-158 157.9-158 76.2 0 141 55.1 160 127.4l.5.2.2-.4A164.5 164.5 0 0 0 371.2 21.5a164 164 0 0 0-163.4 163.4c0 47.3 21 92 56.4 123.3h.4z"/></svg>