<?xml version="1.0" encoding="UTF-8"?>
<svg width="602px" height="164px" viewBox="0 0 602 164" version="1.1" xmlns="http://www.w3.org/2000/svg" xmlns:xlink="http://www.w3.org/1999/xlink">
    <title>mercedes-benz-car-02</title>
    <g id="Page-1" stroke="none" stroke-width="1" fill="none" fill-rule="evenodd">
        <g id="mercedes-benz-car-02" transform="translate(352, 250) scale(-1, 1) translate(-352, -250)translate(102, 0)" fill="#000000" fill-rule="nonzero">
            <path d="M601.4,93.1 L584.2,59.4 L582.6,52.9 C582.5,52.3 582,51.9 581.5,51.8 L511.6,36.2 C511.5,36.2 511.4,36.2 511.3,36.2 L507.6,36.2 C503.3,33.5 468.1,11.6 446.4,6.5 L446.4,6.5 L446.2,6.5 C445.2,6.3 444.2,6.1 443.2,5.9 C441.9,5.5 417.5,0 379.4,0 C356.1,0 336,2.7 323.3,4.9 C314.8,6.4 306.6,9.3 299,13.4 C282.5,22.4 253.3,38.9 241,48.7 C240.6,48.7 240,48.7 239.2,48.7 L239.2,48.7 L239.2,48.7 C239.1,48.7 239,48.7 238.9,48.7 C225.6,48.7 178.3,49.1 128.1,53.6 C62.7,59.5 20.2,69.8 1.9,84.4 C1.2,84.9 0.9,85.7 1,86.6 C1.1,87.4 1.7,88.2 2.5,88.5 L10.8,91.8 C12,92.3 12.8,93.5 12.8,94.8 L12.6,101.3 L10.4,100.8 L8.8,91.8 C8.7,91.4 8.5,91 8.2,90.8 C7.9,90.6 7.4,90.5 7,90.6 L1.2,91.9 C0.4,92 0,92.7 0,93.4 L1.4,116.3 C1.4,116.9 1.8,117.4 2.4,117.6 L7.6,119.5 C7.8,119.6 7.9,119.6 8.1,119.6 C8.4,119.6 8.7,119.5 9,119.3 C9.4,119 9.6,118.6 9.6,118.1 L9.6,109 L12.4,109 L12.2,115.4 C12.1,118.4 9.9,120.9 6.9,121.3 L5.3,121.5 C4.5,121.6 3.8,122.1 3.3,122.7 C2.8,123.4 2.7,124.2 2.9,125 L3.6,127.7 C3.7,128.1 3.6,128.5 3.2,128.7 L2.5,129.2 C1.7,129.7 1.2,130.6 1.1,131.5 C1,132.4 1.2,133.4 1.8,134.1 L2.5,135 C3.4,136.2 4.8,136.9 6.3,136.9 L16.5,136.9 C16.7,137.4 16.9,138 17.2,138.6 L11.2,140.2 C9.7,140.6 8.5,141.6 7.9,143 C7.3,144.4 7.3,146 8,147.4 L8.4,148.2 L24.5,148.2 C25.7,149 27.1,149.5 28.6,149.5 C31.9,149.5 36.9,149.2 42.3,148.9 C47.9,148.6 53.6,148.2 57.5,148.2 L73,148.2 C73,148.2 73,148.2 73,148.2 C73.8,148.2 74.5,147.5 74.5,146.7 C74.5,146.6 74.5,146.5 74.5,146.3 C74.5,145.8 74.4,144.4 74.3,142.4 L85.8,142.4 C93.1,155 106.7,163.4 122.2,163.4 C137.7,163.4 151.3,154.9 158.6,142.4 L171,142.4 C171,144 170.9,145.3 170.8,146.4 C170.8,146.8 170.9,147.2 171.2,147.5 C171.5,147.8 171.9,148 172.3,148 L419,148 C419,148 419,148 419,148 C419.8,148 420.5,147.3 420.5,146.5 C420.5,146.3 420.5,146.2 420.4,146.1 C420.3,145.6 420.2,144.3 420,142.5 L432.7,142.5 C440.1,155.1 453.8,163.5 469.4,163.5 C485,163.5 498.7,155 506.1,142.5 L516.4,142.5 C514.8,143.9 513.6,144.9 513.2,145.2 C512.6,145.5 512.2,146.1 512.2,146.8 C512.3,148.2 512.4,148.4 523.5,149.6 C523.7,149.6 523.9,149.6 524.1,149.5 L583.2,132.3 C583.6,132.2 583.9,132 584.1,131.6 L592.3,117.7 C592.8,116.9 592.8,115.9 592.5,115 C592.1,114.1 591.3,113.5 590.3,113.3 C589.9,113.2 589.7,113 589.6,112.8 C589.5,112.7 589.4,112.4 589.5,112 L592.3,102.5 C592.8,100.9 594.3,99.8 596,99.8 L597.2,99.8 C599.6,99.8 601.6,97.8 601.6,95.4 L601.6,93.7 C601.6,93.5 601.5,93.3 601.4,93.1 Z M470.8,70 L470.5,70 C458.6,70 448.5,72.7 440.4,77.9 L420,79 C422.7,70.3 424.8,60.3 425.1,49.9 C453.5,50.6 514.3,53.1 542.6,62.3 L525.4,63.8 C524.2,63.9 523.2,64.7 522.9,65.9 C522.6,67.1 523,68.2 524,68.9 L524.2,69 C526.1,70.3 528.1,71.6 530.2,72.6 L498,78.2 C485.7,70.3 472.6,70 470.8,70 Z M235.1,112.7 C235.3,113 235.2,113.2 235.1,113.3 C235,113.4 234.9,113.6 234.6,113.6 L231.5,113.6 C230,113.6 228.5,113.4 227.1,113 L233.8,110.7 L235.1,112.7 Z M224.4,111.8 C223.2,111.2 222.1,110.3 221.1,109.4 L231,106.1 L232.8,108.9 L224.4,111.8 Z M219.6,107.8 C219.4,107.6 219.2,107.3 219,107 L217.6,104.9 L228.1,101.5 L229.9,104.4 L219.6,107.8 Z M216.4,103.2 L214.5,100.4 L225.1,96.9 L226.9,99.8 L216.4,103.2 Z M213.4,98.7 L211.5,95.9 L222.3,92.3 L224.1,95.2 L213.4,98.7 Z M221.2,90.5 L210.3,94.1 L208.4,91.3 L213.7,89.5 L220.4,89.2 L221.2,90.5 Z M204,83.9 C204.2,83.5 204.5,83.3 205,83.3 L209,83.3 L204.1,84.9 C203.9,84.7 203.8,84.3 204,83.9 Z M205.2,86.7 L214.7,83.5 C216.1,83.9 217.3,84.7 218.2,85.8 L213.3,87.4 L206,87.7 L205.2,86.7 Z M220.3,85.3 C218.8,82.8 216.1,81.3 213.2,81.3 L205,81.3 C203.9,81.3 202.8,81.9 202.3,82.9 C201.8,83.9 201.8,85.1 202.5,86.1 L203.7,87.9 L199.5,88.1 L196.6,83.9 C196.2,82.9 196.2,81.8 196.8,80.8 C197.4,79.8 198.4,79.2 199.5,79.2 L258,77 C258,77.7 257.9,78.3 257.9,79 C257.8,81.3 257.8,83.5 257.8,85.6 L221.5,87.1 L220.3,85.3 Z M259.9,79.1 C259.9,78.4 260,77.6 260,76.9 L372.2,72.9 C373,72.9 373.7,72.2 373.6,71.3 C373.5,70.4 372.9,69.8 372,69.9 L260.2,73.9 C260.9,67.7 262.5,62.5 265.1,58.4 C267.4,54.7 271.4,52.4 275.8,52.1 L276.2,52.1 L276.2,52.1 L411.5,49.7 L411.5,49.7 C411.6,49.7 411.6,49.7 411.7,49.7 C413.9,49.7 417.8,49.8 423,49.9 C422.8,60.7 420.5,70.9 417.6,79.8 C417.6,79.8 417.6,79.8 417.6,79.9 C414.6,89.1 410.9,96.8 408.1,101.9 C403.6,110.3 394.8,115.6 385.3,115.8 L277.2,118.3 L266.6,118.3 C262.8,118.3 259.8,115.3 259.7,111.5 C259.6,105.3 259.5,93 259.9,79.1 Z M411.9,26.1 C411.9,26.1 411.9,26.2 411.9,26.2 L410.2,46.7 L299,48.7 C299,48.7 299,48.6 299,48.6 C299,48.5 299,48.4 299,48.4 C299.3,47.3 299.8,47.1 300.3,47.1 L302.8,47 C306.1,46.9 311.1,46.8 314.3,46.7 L315.2,46.7 C319.7,46.6 325.4,46.4 325.4,41.5 C325.4,37.9 322.7,32.9 317,30.8 C320.5,27.4 334.1,15.4 351,15.4 L402.8,15.4 C405.5,15.4 408.1,16.6 409.9,18.7 C411.6,20.6 412.4,23.4 411.9,26.1 Z M323.3,39.9 L309.3,39.9 C308.7,39.9 308.3,40.3 308.3,40.9 C308.3,41.5 308.7,41.9 309.3,41.9 L323.4,41.9 C323,44.2 319.9,44.5 315.2,44.6 L314.3,44.6 C311.1,44.7 306.2,44.8 302.8,44.9 L300.3,45 C299.4,45 297.7,45.4 297.1,47.9 C297.1,48.1 297,48.2 297,48.4 C297,48.5 296.9,48.7 296.7,48.8 L293,48.9 C293.8,47 295.4,44.1 298.8,43 C300.3,42.5 301.4,41.3 301.7,39.7 C302.4,36.3 304.4,32.3 310.4,31.9 C310.7,31.9 311.1,31.9 311.4,31.9 C318.6,31.8 322.5,36.2 323.3,39.9 Z M526.2,66.8 L543.6,65.3 C544.6,65.2 545.7,65.2 546.7,65.2 C551.3,65.2 555.9,66.1 560.1,67.8 C552.4,67.5 540.5,68.3 537.4,68.5 C537.3,68.5 537.3,68.5 537.3,68.5 C537.2,68.5 537.1,68.5 537.1,68.6 C537,68.6 537,68.7 536.9,68.7 C536.9,68.7 536.8,68.8 536.8,68.8 C536.7,68.9 536.7,68.9 536.7,69 C536.7,69 536.6,69.1 536.6,69.1 C536.6,69.1 536.6,69.1 536.6,69.1 C536.6,69.2 536.6,69.2 536.6,69.3 C536.6,69.4 536.6,69.4 536.6,69.5 C536.6,69.5 536.6,69.5 536.6,69.5 C536.6,69.5 536.6,69.6 536.6,69.6 C536.6,69.7 536.6,69.8 536.7,69.8 C536.7,69.9 536.8,69.9 536.8,69.9 C536.8,70 536.9,70 536.9,70.1 C537,70.1 537,70.2 537.1,70.2 C537.1,70.2 537.2,70.3 537.2,70.3 C541.4,71.8 566.6,74.9 572.4,75.6 L574.7,77.6 L552.7,76 C543.2,75.4 534,72.2 526.2,66.8 Z M565.7,70.5 C567,71.3 568.3,72.3 569.6,73.3 C563.6,72.6 552.6,71.2 545.1,70 C553.9,69.6 563.6,69.4 565.3,70.4 C565.4,70.5 565.6,70.5 565.7,70.5 Z M575.5,80.7 L575.7,80.7 C575.7,80.7 575.7,80.7 575.7,80.7 C576.8,80.7 577.8,80 578.2,79 C578.6,78 578.3,76.8 577.4,76.1 L572.3,71.7 C565.5,65.8 556.9,62.4 547.9,62.2 C533.8,56.4 506.6,52.3 467.2,49.8 C450.9,48.8 435.7,48.3 425,48 C425,28.8 425.1,11.2 425.1,5.9 C431.4,6.7 436.1,7.5 439.1,8.1 C439.9,14.8 447.6,20.6 453.3,25 L454.6,26 C464.9,33.9 474.4,38.9 485.4,42.1 L485.4,42 L485.4,42 C485.4,42 485.5,42 485.5,42 L485.5,42.1 C492.7,44 502.7,46.1 513.3,48.4 C534.4,52.9 558.3,58.1 565.1,62.2 C569.2,64.7 572.5,68 575.3,70.9 C579.1,74.8 582.4,78.2 586.7,78.2 C588.3,78.2 589.1,77.4 589.5,76.8 L593.6,84.8 L583,86.7 C578.8,87.4 574.5,85.8 571.7,82.5 L570.1,80.6 L575.5,80.7 Z M579.2,54.8 C579,54.7 578.7,54.5 578.5,54.2 L579.1,54.3 L579.2,54.8 Z M513.9,46.3 C505.9,44.6 498.3,42.9 491.9,41.4 C498.7,40.9 508.9,40 512.5,39.4 L576.5,53.7 C572.8,54.6 565.2,55.9 555.7,56.2 C545,53 529.3,49.6 513.9,46.3 Z M485.6,38.9 C475.3,35.8 466.3,31 456.5,23.5 L455.1,22.5 C450.5,19 443.7,13.8 442.3,8.7 L445.9,9.4 C464.8,13.8 495.3,32.1 504,37.4 C496.6,38.1 487.3,38.8 485.6,38.9 Z M581.5,60.6 L587.9,73.3 C588.1,74.3 588.1,75.1 587.8,75.6 C587.7,75.7 587.6,76 586.8,76 C583.4,76 580.5,73 576.8,69.3 C573.9,66.3 570.6,62.9 566.2,60.3 C564.9,59.5 563.1,58.7 560.8,57.9 C569.7,57.2 578.1,55.7 579.9,54.6 L581.3,60.3 C581.4,60.4 581.5,60.5 581.5,60.6 Z M323.9,7.9 C336.5,5.7 356.4,3 379.4,3 C397.4,3 412.3,4.2 423.1,5.5 C423.1,10.5 423.1,28.4 423,47.8 C418.7,47.7 415.3,47.7 413,47.6 L414.8,26.4 C415.4,22.9 414.4,19.3 412.1,16.5 C409.8,13.7 406.4,12.2 402.8,12.2 L351,12.2 C330.2,12.2 314.6,28.8 313.9,29.5 C313.8,29.6 313.7,29.7 313.7,29.9 C312.6,29.8 311.5,29.7 310.3,29.8 C302.3,30.2 300.2,36.5 299.7,39.2 C299.5,40 298.9,40.7 298.1,41 C293.5,42.5 291.5,46.7 290.8,48.9 L280.8,49 L320.1,18.1 C321.2,17.2 321.8,15.7 321.4,14.3 C321.1,12.9 320,11.8 318.5,11.4 L313.5,10.5 C316.9,9.4 320.4,8.5 323.9,7.9 Z M300.5,16.1 C303.5,14.5 306.6,13 309.7,11.8 L318,13.3 C318.7,13.5 319.2,14 319.3,14.7 C319.5,15.4 319.2,16.1 318.7,16.5 L277.5,49 L275.9,49 L246,48.8 C259.4,39 285.4,24.4 300.5,16.1 Z M239.2,51.7 L269.2,52 C266.9,53.3 265,55.1 263.5,57.3 C260.7,61.7 258.9,67.4 258.2,74 L199.3,76.1 C197.2,76.2 195.2,77.4 194.1,79.2 C193,81 192.9,83.3 193.8,85.2 C193.8,85.3 193.9,85.3 193.9,85.4 L195.8,88.2 L159.4,89.7 C158.7,88.9 158,88.1 157.3,87.3 C148.5,78 136.6,73.2 121.7,73.2 C121.3,73.2 120.8,73.2 120.4,73.2 C106.5,73.5 95.3,78.3 87,87.5 C85.7,89 84.5,90.5 83.4,92.1 L83.4,92.1 L52,94.8 C51.7,93.8 51.5,91.8 54.2,88.9 C56.8,86.2 67.5,80 82.8,72.4 C83.8,71.9 84.3,70.9 84.2,69.8 C84.1,68.7 83.2,67.9 82.2,67.7 L80.5,67.4 C90.8,64.8 114.5,59.1 132.9,56.2 C182.8,51.9 229.3,51.7 238.8,51.7 C239,51.7 239.1,51.7 239.2,51.7 Z M49,95.2 L31.7,96.7 C31.9,95.9 32.3,94.8 33.1,93.5 L49.1,92 C48.8,93.2 48.8,94.3 49,95.2 Z M49.9,89.9 L34.4,91.3 C36.6,88.5 40.3,85.1 46.6,81.9 C61.2,74.6 73.7,70.4 76,69.6 L80.3,70.4 C70.8,75.2 55.8,83 52.1,86.9 C51.1,88 50.4,89 49.9,89.9 Z M75.8,66.6 L75.4,66.7 C75.4,66.7 75.4,66.7 75.3,66.7 C75.1,66.8 74.9,66.8 74.8,66.8 C74.7,66.8 74.7,66.9 74.6,66.9 C71.5,67.9 59.9,71.9 46.3,78.7 C44.7,78.9 42.2,79.1 39.6,78.9 C35.2,78.6 28.6,76.9 24.5,75.7 C46.7,67.3 78.4,61.9 110.7,58.3 C94.7,61.8 79.9,65.5 75.8,66.6 L75.8,66.6 Z M6.1,93.8 L7.3,101 L3.6,104.3 L3,94.5 L6.1,93.8 Z M4.3,115.1 L3.9,108 L6.6,108 L6.6,115.9 L4.3,115.1 Z M8,106 C8,106 8,106 8,106 L8,106 L4.7,106 L8,103 C8.2,103.2 8.4,103.3 8.7,103.4 L12.5,104.3 L12.4,106 L8,106 L8,106 Z M10.5,144.3 C10.8,143.7 11.3,143.3 11.9,143.2 L18.5,141.5 C19.2,142.8 20.1,144.1 21.1,145.4 L10.4,145.4 C10.3,144.9 10.4,144.6 10.5,144.3 Z M71.2,145.2 L57.3,145.2 C53.4,145.2 47.6,145.6 42,145.9 C36.7,146.2 31.7,146.5 28.5,146.5 C23.9,146.5 20,138.1 18.8,134.9 C18.6,134.3 18,133.9 17.4,133.9 L6.2,133.9 C5.7,133.9 5.1,133.6 4.8,133.2 L4.1,132.3 C4,132.2 4,132.1 4,132 C4,131.9 4.1,131.8 4.2,131.7 L4.9,131.2 C6.2,130.3 6.9,128.6 6.4,127 L5.7,124.5 L7.2,124.3 C11.6,123.7 14.9,120 15.1,115.5 L15.7,94.8 C15.8,92.2 14.2,89.9 11.8,88.9 L4.7,86 C9.1,82.7 14.9,79.6 21.6,76.9 C24.8,77.9 33.8,80.5 39.6,80.9 C40.3,81 41,81 41.8,81 C41.9,81 42,81 42.1,81 C28.3,89.1 28.4,98 28.4,98.4 L28.4,100 L81.4,95.4 C75.6,105.3 73.1,116.6 72,125.3 C70.9,134.4 71.1,142 71.2,145.2 Z M122.1,160.5 C100.5,160.5 83,143 83,121.4 C83,99.8 100.5,82.3 122.1,82.3 C143.7,82.3 161.2,99.8 161.2,121.4 C161.2,143 143.7,160.5 122.1,160.5 Z M164.2,121.4 C164.2,98.2 145.3,79.3 122.1,79.3 C98.9,79.3 80,98.1 80,121.4 C80,127.9 81.5,134 84.1,139.5 L74.1,139.5 C74.2,127.8 76.1,104.4 89.3,89.6 C97,81 107.5,76.6 120.5,76.3 C120.9,76.3 121.3,76.3 121.7,76.3 C135.7,76.3 146.9,80.7 155.1,89.4 C162.5,97.3 167.5,108.7 169.7,123.1 C170.7,129.3 171,135 171,139.5 L160.1,139.5 C162.8,134 164.2,127.8 164.2,121.4 Z M161,91.7 L196.9,90.2 L202.6,97.9 L202.7,98.1 C202.7,98.1 202.7,98.1 202.7,98.2 L213.9,113.5 C217.5,118.4 223.8,121.7 229.4,121.7 C229.7,121.7 230,121.7 230.3,121.7 L253.5,121.2 C254.3,121.2 255,120.5 255,119.7 C255,118.9 254.2,118.2 253.5,118.2 L230.2,118.7 C225.4,119 219.5,116.1 216.3,111.7 L205,96.2 L200.8,90.1 L205,89.9 L217.4,108.2 C220.6,112.9 225.9,115.7 231.5,115.7 L234.6,115.7 C235.6,115.7 236.4,115.2 236.9,114.3 C237.4,113.5 237.3,112.5 236.8,111.6 L222.7,89.1 L257.8,87.6 C257.7,97.8 257.7,106.5 257.8,111.3 C257.9,116.1 261.9,120.1 266.7,120.1 L277.4,120.1 L385.5,117.6 C395.8,117.4 405.2,111.7 410.1,102.7 C412.8,97.6 416.5,90.1 419.5,81 L437.5,80 C435.2,81.8 433.1,83.8 431.2,86 C421.2,97.7 418,113.5 417.2,124.8 C417.2,125.4 417.1,126.1 417.1,126.7 L173.9,130.6 C172.8,118.9 169.7,103.6 161,91.7 Z M174,142.6 L370.3,139.7 C378.7,139.5 387,141.3 394.6,144.9 L173.9,144.9 C174,144.3 174,143.5 174,142.6 Z M399.2,145 L395.5,143.2 C387.7,139.4 379,137.5 370.3,137.7 L174,140.6 C174,138.6 174,136.3 173.8,133.7 L416.6,129.8 C416.4,136.8 416.8,142.3 417.1,145 L399.2,145 L399.2,145 Z M469.5,160.5 C447.7,160.5 429.9,142.7 429.9,120.9 C429.9,99.1 447.7,81.3 469.5,81.3 C491.3,81.3 509.1,99.1 509.1,120.9 C509.1,142.7 491.3,160.5 469.5,160.5 Z M512.1,120.9 C512.1,97.4 493,78.3 469.5,78.3 C446,78.3 426.9,97.4 426.9,120.9 C426.9,127.5 428.4,133.8 431.2,139.5 L419.9,139.5 C419.3,127.8 419.9,103.8 433.3,88.1 C441.9,78.1 454.4,73.1 470.6,73.1 L470.8,73.1 C472.9,73.1 491.3,73.5 504.2,87.5 C514.2,98.4 518.3,114.8 516.4,136 L516,138.9 C516,139.1 516,139.2 516,139.4 L507.8,139.4 C510.5,133.8 512.1,127.5 512.1,120.9 Z M598.6,95.5 C598.6,96.2 598,96.9 597.2,96.9 L596,96.9 C593.8,96.9 591.8,97.9 590.6,99.6 C557.6,97.5 526.4,107.5 526,107.6 C525.5,107.8 525.2,108.3 525.4,108.9 C525.5,109.3 525.9,109.6 526.4,109.6 C526.5,109.6 526.6,109.6 526.7,109.6 C527,109.5 557.3,99.8 589.6,101.6 C589.6,101.7 589.5,101.8 589.5,101.8 L586.8,110.7 L579,110.7 C578.7,110.7 578.4,110.9 578.2,111.1 L568.8,124.5 C568.5,125 568.6,125.6 569,125.9 C569.2,126 569.4,126.1 569.6,126.1 C569.9,126.1 570.2,126 570.4,125.7 L579.5,112.7 L586.4,112.7 C586.4,113.3 586.6,113.9 586.9,114.5 C587.5,115.5 588.4,116.2 589.6,116.3 L581.7,129.7 L523.5,146.7 C521.3,146.4 518.9,146.1 517.2,145.9 C518.7,144.6 521.1,142.5 524.7,139.2 C525,138.9 525.2,138.5 525.2,138.1 C541.2,131.5 565.7,129.8 566,129.8 C566.6,129.8 567,129.3 566.9,128.7 C566.9,128.1 566.4,127.7 565.8,127.8 C565.5,127.8 539.6,129.6 523.4,136.7 C523.4,136.7 523.4,136.7 523.4,136.7 L519.1,137.6 L519.2,136.7 C521.2,114.5 516.9,97.4 506.3,85.8 C504.4,83.7 502.3,81.8 500.2,80.3 L533.2,74.5 C539.3,77.2 545.8,78.9 552.5,79.4 L567.3,80.5 L570.2,83.9 C572.9,87.2 576.9,89 581,89 C581.8,89 582.5,88.9 583.3,88.8 L594.5,86.8 L598.4,94.5 L598.4,95.5 L598.6,95.5 Z M357,30.4 C356.8,29.9 357,29.3 357.5,29.1 L368.2,24.3 C368.7,24.1 369.3,24.3 369.5,24.8 C369.7,25.3 369.5,25.9 369,26.1 L358.3,30.9 C358.2,31 358,31 357.9,31 C357.5,31 357.1,30.7 357,30.4 Z M355.4,32.2 L349.2,35 C349.1,35.1 348.9,35.1 348.8,35.1 C348.4,35.1 348.1,34.9 347.9,34.5 C347.7,34 347.9,33.4 348.4,33.2 L354.6,30.4 C355.1,30.2 355.7,30.4 355.9,30.9 C356.2,31.4 355.9,32 355.4,32.2 Z M378,26.1 C378.2,26.6 378,27.2 377.5,27.4 L355.4,37.3 C355.3,37.4 355.1,37.4 355,37.4 C354.6,37.4 354.3,37.2 354.1,36.8 C353.9,36.3 354.1,35.7 354.6,35.5 L376.7,25.6 C377.2,25.4 377.8,25.6 378,26.1 Z M47.3,104.9 C47.2,104.1 46.5,103.5 45.7,103.6 L24,105.5 C23.2,105.6 22.6,106.3 22.6,107.1 C22.7,107.9 23.4,108.5 24.2,108.5 L33.4,107.7 L33.4,119 L17.8,124.7 C17.3,124.9 17.1,125.3 17.2,125.8 C17.3,126.3 17.7,126.6 18.2,126.6 C18.2,126.6 18.2,126.6 18.2,126.6 C36.7,126.2 42.9,120.4 45,116.6 C47,113.6 47.8,109.7 47.3,104.9 Z M36.4,118.4 L36.4,117.5 L41.9,115.6 C40.1,117.4 37.8,118.1 36.4,118.4 Z M43.6,112.8 L36.4,115.3 L36.4,111.8 L44.4,109.1 C44.3,110.5 44,111.7 43.6,112.8 Z M44.4,106.7 C44.4,106.8 44.4,107 44.4,107.1 L36.3,109.8 L36.3,107.4 L44.4,106.7 Z M33.6,120.9 C33.9,121.3 34.3,121.5 34.8,121.5 C34.8,121.5 34.8,121.5 34.8,121.5 C34.9,121.5 35.1,121.5 35.4,121.5 C32.8,122.6 29.4,123.5 25,124 L33.6,120.9 Z M34.5,133 C34.2,132.6 33.8,132.4 33.3,132.4 L29.3,132.4 C29.3,132.4 29.3,132.4 29.3,132.4 L23.9,132.4 C23.1,132.4 22.4,133.1 22.4,133.9 C22.4,134.7 23.1,135.4 23.9,135.4 L28,135.4 C28.4,137.4 29.3,138.9 30.7,140.1 C32.9,141.9 35.9,142.2 37.5,142.2 C38.2,142.2 38.7,142.1 38.8,142.1 C39.3,142 39.8,141.7 40,141.2 C40.2,140.7 40.1,140.1 39.8,139.7 L34.5,133 Z M32.7,137.9 C32,137.3 31.4,136.5 31.1,135.5 L32.6,135.5 L35.5,139.2 C34.5,138.9 33.5,138.5 32.7,137.9 Z M572.2,129 L576.8,129 C577.1,129 577.4,128.9 577.6,128.6 L586.7,117.8 C586.9,117.5 587,117.2 586.9,116.9 L586.1,114.3 C586,113.9 585.6,113.6 585.1,113.6 L581.3,113.6 C581,113.6 580.7,113.8 580.5,114 L571.3,127.3 C571.1,127.6 571.1,128 571.2,128.3 C571.5,128.8 571.9,129 572.2,129 Z M582,115.7 L584.5,115.7 L584.9,117 L576.4,127 L574.1,127 L582,115.7 Z M122.1,84.6 C101.8,84.6 85.3,101.1 85.3,121.4 C85.3,141.7 101.8,158.2 122.1,158.2 C142.4,158.2 158.9,141.7 158.9,121.4 C158.9,101.1 142.4,84.6 122.1,84.6 Z M122.1,155.1 C103.5,155.1 88.3,139.9 88.3,121.3 C88.3,102.7 103.5,87.5 122.1,87.5 C140.7,87.5 155.9,102.7 155.9,121.3 C155.9,139.9 140.7,155.1 122.1,155.1 Z M122.4,109.9 L122.4,109.9 C124.1,109.9 125.6,109 126.4,107.5 L133.7,93 L132.4,92.3 C128.1,90 123.1,90.2 122.4,90.2 C121.7,90.2 116.7,90 112.4,92.3 L111.1,93 L118.4,107.5 C119.2,108.9 120.7,109.9 122.4,109.9 Z M121.8,93.1 C122.1,93.1 122.3,93.1 122.3,93.1 L122.4,93.1 L122.5,93.1 C122.5,93.1 122.7,93.1 123,93.1 C124.2,93.1 127,93.2 129.6,94.3 L123.7,106.1 C123.5,106.6 123,106.9 122.4,106.9 L122.4,106.9 C121.9,106.9 121.4,106.6 121.1,106.1 L115.2,94.3 C117.8,93.3 120.6,93.1 121.8,93.1 Z M109.3,116.3 C110.7,116.3 112,115.7 112.8,114.5 C113.8,113.2 114,111.4 113.3,109.9 L106.3,95.3 L105,95.9 C100.6,97.9 97.7,101.9 97.2,102.5 C96.7,103.1 93.6,107 92.8,111.7 L92.6,113.1 L108.5,116.1 C108.8,116.3 109,116.3 109.3,116.3 Z M99.5,104.4 L99.6,104.3 C99.6,104.3 101.7,101.2 104.9,99.3 L110.6,111.2 C110.8,111.7 110.8,112.3 110.4,112.7 C110.1,113.1 109.5,113.3 109,113.2 L96,110.7 C97.1,107.2 99.5,104.4 99.5,104.4 Z M111.2,124.2 C110.8,122.6 109.5,121.4 107.8,121 L91.9,117.7 L91.6,119.1 C90.5,123.8 91.9,128.6 92.2,129.3 C92.4,130 93.5,134.9 96.8,138.4 L97.8,139.5 L109.9,128.7 C111.1,127.5 111.6,125.8 111.2,124.2 Z M107.8,126.4 L98,135.2 C95.8,132.2 95,128.6 95,128.6 L95,128.4 C95,128.4 93.8,124.9 94.2,121.2 L107.1,123.9 C107.6,124 108.1,124.4 108.2,125 C108.4,125.5 108.2,126.1 107.8,126.4 Z M117.8,132 C116.3,131.3 114.5,131.5 113.2,132.6 L100.5,142.7 L101.4,143.9 C104.3,147.7 108.9,149.7 109.6,150 C110.2,150.3 114.2,152.3 118.6,152.3 C118.9,152.3 119.2,152.3 119.5,152.3 L121,152.2 L120.4,136 C120.4,134.2 119.4,132.7 117.8,132 Z M111,147.2 L110.8,147.1 C110.8,147.1 107.3,145.7 104.8,143.1 L115.1,134.9 C115.5,134.6 116.1,134.5 116.6,134.7 C117.1,134.9 117.4,135.4 117.4,135.9 L117.9,149.1 C114.3,149 111,147.3 111,147.2 Z M131.2,114.6 C132,115.7 133.3,116.3 134.7,116.3 C135,116.3 135.3,116.3 135.5,116.2 L151.4,113.2 L151.2,111.8 C150.4,107.1 147.3,103.2 146.8,102.6 C146.4,102 143.4,97.9 139,96 L137.7,95.4 L130.7,110 C130,111.4 130.2,113.2 131.2,114.6 Z M133.4,111.2 L139.1,99.3 C142.3,101.2 144.4,104.2 144.4,104.3 L144.5,104.4 C144.5,104.4 146.9,107.2 148,110.8 L135,113.3 C134.5,113.4 133.9,113.2 133.6,112.7 C133.3,112.3 133.2,111.7 133.4,111.2 Z M152.5,119.1 L152.2,117.7 L136.3,121 C134.7,121.3 133.4,122.6 132.9,124.2 C132.5,125.8 133,127.5 134.2,128.7 L146.3,139.5 L147.3,138.4 C150.6,134.9 151.8,130 151.9,129.3 C152.2,128.6 153.6,123.8 152.5,119.1 Z M149.1,128.4 L149.1,128.6 C149.1,128.6 148.3,132.2 146.1,135.2 L136.3,126.4 C135.9,126 135.7,125.5 135.9,124.9 C136,124.4 136.5,124 137,123.9 L149.9,121.2 C150.3,124.9 149.1,128.4 149.1,128.4 Z M126.2,132 C124.7,132.7 123.7,134.2 123.6,135.9 L123,152.1 L124.5,152.2 C124.8,152.2 125.1,152.2 125.4,152.2 C129.8,152.2 133.8,150.3 134.4,149.9 C135.1,149.6 139.7,147.7 142.6,143.8 L143.5,142.6 L130.8,132.5 C129.6,131.5 127.8,131.3 126.2,132 Z M133.3,147.2 L133.1,147.3 C133.1,147.3 129.8,149 126.1,149.2 L126.6,136 C126.6,135.5 126.9,135 127.5,134.7 C127.7,134.6 127.9,134.6 128.1,134.6 C128.4,134.6 128.7,134.7 129,134.9 L139.3,143.1 C136.8,145.8 133.3,147.2 133.3,147.2 Z M130.2,121.4 C130.2,116.9 126.6,113.3 122.1,113.3 C117.6,113.3 114,116.9 114,121.4 C114,125.9 117.6,129.5 122.1,129.5 C126.6,129.5 130.2,125.8 130.2,121.4 Z M122.1,126.5 C119.3,126.5 117,124.2 117,121.4 C117,118.6 119.3,116.3 122.1,116.3 C124.9,116.3 127.2,118.6 127.2,121.4 C127.2,124.2 124.9,126.5 122.1,126.5 Z M469.5,83.7 C449,83.7 432.3,100.4 432.3,120.9 C432.3,141.4 449,158.1 469.5,158.1 C490,158.1 506.7,141.4 506.7,120.9 C506.7,100.4 490,83.7 469.5,83.7 Z M469.5,155.1 C450.6,155.1 435.3,139.8 435.3,120.9 C435.3,102 450.6,86.7 469.5,86.7 C488.4,86.7 503.7,102 503.7,120.9 C503.7,139.8 488.3,155.1 469.5,155.1 Z M469.8,109.2 L469.8,109.2 C471.5,109.2 473,108.3 473.8,106.7 L481.2,92.1 L479.9,91.4 C475.6,89.1 470.5,89.2 469.8,89.3 C469.1,89.3 464,89.1 459.7,91.4 L458.4,92.1 L465.8,106.7 C466.6,108.3 468.1,109.2 469.8,109.2 Z M469.2,92.3 C469.5,92.3 469.7,92.3 469.8,92.3 L469.9,92.3 L470,92.3 C470,92.3 470.2,92.3 470.6,92.3 C471.8,92.3 474.6,92.4 477.3,93.5 L471.3,105.4 C471,105.9 470.5,106.2 470,106.2 L470,106.2 C469.4,106.2 468.9,105.9 468.7,105.4 L462.7,93.5 C465.2,92.4 468,92.3 469.2,92.3 Z M456.6,115.7 C456.6,115.7 456.6,115.7 456.6,115.7 C458,115.7 459.3,115 460.2,113.9 C461.2,112.6 461.4,110.8 460.7,109.2 L453.6,94.4 L452.3,95 C447.9,97 444.9,101.1 444.4,101.7 C443.9,102.3 440.7,106.2 439.9,111 L439.7,112.4 L455.8,115.5 C456,115.7 456.3,115.7 456.6,115.7 Z M446.6,103.7 L446.7,103.6 C446.7,103.6 448.8,100.5 452.1,98.6 L457.9,110.7 C458.1,111.2 458.1,111.8 457.7,112.3 C457.4,112.7 456.8,112.9 456.3,112.8 L443.2,110.3 C444.2,106.6 446.6,103.7 446.6,103.7 Z M458.4,123.7 C458,122.1 456.7,120.8 455,120.5 L439,117.2 L438.7,118.6 C437.6,123.3 439,128.2 439.3,128.9 C439.5,129.6 440.7,134.6 444,138.1 L445,139.2 L457.2,128.3 C458.3,127.1 458.8,125.4 458.4,123.7 Z M455.1,126 L445.1,134.9 C442.9,131.9 442.1,128.2 442.1,128.2 L442.1,128 C442.1,128 440.9,124.4 441.3,120.7 L454.4,123.4 C454.9,123.5 455.4,123.9 455.5,124.5 C455.6,125.1 455.5,125.6 455.1,126 Z M465.1,131.6 C463.6,130.9 461.7,131.1 460.5,132.2 L447.7,142.4 L448.6,143.6 C451.5,147.5 456.2,149.5 456.9,149.7 C457.5,150 461.6,152 466,152 C466.3,152 466.6,152 466.9,152 L468.4,151.9 L467.8,135.5 C467.7,133.9 466.7,132.4 465.1,131.6 Z M458.2,147.1 L458,147 C458,147 454.5,145.6 451.9,142.9 L462.3,134.5 C462.7,134.2 463.3,134.1 463.9,134.3 C464.4,134.5 464.7,135 464.8,135.6 L465.3,149 C461.5,148.8 458.2,147.1 458.2,147.1 Z M478.7,114 C479.5,115.1 480.9,115.7 482.2,115.7 C482.5,115.7 482.8,115.7 483,115.6 L499.1,112.5 L498.9,111.1 C498.1,106.3 494.9,102.4 494.4,101.8 C494,101.2 491,97.1 486.5,95.1 L485.2,94.5 L478.1,109.3 C477.5,110.8 477.7,112.6 478.7,114 Z M480.9,110.6 L486.7,98.5 C489.9,100.4 492,103.5 492.1,103.5 L492.2,103.6 C492.2,103.6 494.7,106.5 495.7,110.1 L482.6,112.6 C482.1,112.7 481.5,112.5 481.1,112 C480.8,111.7 480.7,111.1 480.9,110.6 Z M500.2,118.6 L499.9,117.2 L483.9,120.5 C482.2,120.8 480.9,122.1 480.5,123.7 C480.1,125.3 480.6,127.1 481.8,128.2 L494,139.1 L495,138 C498.3,134.5 499.5,129.5 499.7,128.8 C499.9,128.2 501.3,123.3 500.2,118.6 Z M496.8,128 L496.8,128.2 C496.8,128.2 496,131.9 493.8,134.9 L483.8,126 C483.4,125.6 483.2,125.1 483.4,124.5 C483.5,124 484,123.6 484.5,123.4 L497.6,120.7 C498,124.4 496.8,128 496.8,128 Z M473.7,131.7 C472.2,132.4 471.2,133.9 471.1,135.6 L470.5,152 L472,152.1 C472.3,152.1 472.6,152.1 472.9,152.1 C477.4,152.1 481.4,150.1 482,149.8 C482.7,149.5 487.4,147.5 490.3,143.7 L491.2,142.5 L478.4,132.3 C477.1,131.2 475.3,130.9 473.7,131.7 Z M480.8,147 L480.6,147.1 C480.6,147.1 477.2,148.8 473.5,149.1 L474,135.7 C474,135.1 474.3,134.7 474.9,134.4 C475.1,134.3 475.3,134.3 475.5,134.3 C475.8,134.3 476.2,134.4 476.4,134.6 L486.8,143 C484.3,145.6 480.8,147 480.8,147 Z M477.7,120.9 C477.7,116.4 474,112.7 469.5,112.7 C465,112.7 461.3,116.4 461.3,120.9 C461.3,125.4 465,129.1 469.5,129.1 C474,129.1 477.7,125.4 477.7,120.9 Z M469.5,126 C466.6,126 464.3,123.7 464.3,120.8 C464.3,117.9 466.6,115.6 469.5,115.6 C472.4,115.6 474.7,117.9 474.7,120.8 C474.7,123.7 472.3,126 469.5,126 Z" id="Shape"></path>
        </g>
    </g>
</svg>