
<svg width="514px" height="223px" viewBox="0 0 514 223" version="1.1" xmlns="http://www.w3.org/2000/svg" xmlns:xlink="http://www.w3.org/1999/xlink">

    <g id="Page-1" stroke="none" stroke-width="1" fill="none" fill-rule="evenodd">
        <g id="mercedes-benz-car-03" transform="translate(264, 250) scale(-1, 1) translate(-264, -250)translate(14, 0)" fill="currentColor" fill-rule="nonzero">
            <path d="M221,47 C220.8,46.5 221,45.9 221.5,45.7 L232.2,40.9 C232.7,40.7 233.3,40.9 233.5,41.4 C233.7,41.9 233.5,42.5 233,42.7 L222.3,47.5 C222.2,47.6 222,47.6 221.9,47.6 C221.5,47.6 221.1,47.4 221,47 Z M212.8,51.8 C212.9,51.8 213.1,51.8 213.2,51.7 L219.4,48.9 C219.9,48.7 220.1,48.1 219.9,47.6 C219.7,47.1 219.1,46.9 218.6,47.1 L212.4,49.9 C211.9,50.1 211.7,50.7 211.9,51.2 C212.1,51.5 212.4,51.8 212.8,51.8 Z M218,53.5 C218.2,53.9 218.5,54.1 218.9,54.1 C219,54.1 219.2,54.1 219.3,54 L241.4,44.1 C241.9,43.9 242.1,43.3 241.9,42.8 C241.7,42.3 241.1,42.1 240.6,42.3 L218.5,52.2 C218,52.4 217.8,53 218,53.5 Z M312.5,47.6 C312.6,47.6 312.8,47.6 312.9,47.5 L323.6,42.7 C324.1,42.5 324.3,41.9 324.1,41.4 C323.9,40.9 323.3,40.7 322.8,40.9 L312.1,45.7 C311.6,45.9 311.4,46.5 311.6,47 C311.7,47.4 312.1,47.6 312.5,47.6 Z M303.4,51.8 C303.5,51.8 303.7,51.8 303.8,51.7 L310,48.9 C310.5,48.7 310.7,48.1 310.5,47.6 C310.3,47.1 309.7,46.9 309.2,47.1 L303,49.9 C302.5,50.1 302.3,50.7 302.5,51.2 C302.7,51.5 303,51.8 303.4,51.8 Z M308.6,53.5 C308.8,53.9 309.1,54.1 309.5,54.1 C309.6,54.1 309.8,54.1 309.9,54 L332,44.1 C332.5,43.9 332.7,43.3 332.5,42.8 C332.3,42.3 331.7,42.1 331.2,42.3 L309.1,52.2 C308.6,52.4 308.4,53 308.6,53.5 Z M410.8,47.6 C410.9,47.6 411.1,47.6 411.2,47.5 L421.9,42.7 C422.4,42.5 422.6,41.9 422.4,41.4 C422.2,40.9 421.6,40.7 421.1,40.9 L410.4,45.7 C409.9,45.9 409.7,46.5 409.9,47 C410,47.4 410.4,47.6 410.8,47.6 Z M401.7,51.8 C401.8,51.8 402,51.8 402.1,51.7 L408.3,48.9 C408.8,48.7 409,48.1 408.8,47.6 C408.6,47.1 408,46.9 407.5,47.1 L401.3,49.9 C400.8,50.1 400.6,50.7 400.8,51.2 C400.9,51.5 401.3,51.8 401.7,51.8 Z M406.9,53.5 C407.1,53.9 407.4,54.1 407.8,54.1 C407.9,54.1 408.1,54.1 408.2,54 L430.3,44.1 C430.8,43.9 431,43.3 430.8,42.8 C430.6,42.3 430,42.1 429.5,42.3 L407.4,52.2 C406.9,52.4 406.7,53 406.9,53.5 Z M276.3,66.6 L276.3,28.3 C276.3,23.4 280.3,19.4 285.2,19.4 L344.2,19.4 C348.7,19.4 352.5,22.8 353,27.2 L357.2,65.5 C357.5,68 356.7,70.4 355.1,72.3 C353.5,74.2 351.1,75.3 348.6,75.4 C348.6,75.4 348.6,75.4 348.6,75.4 L285.4,75.4 L285.2,75.4 C280.3,75.5 276.3,71.5 276.3,66.6 Z M279.3,66.6 C279.3,69.8 281.9,72.5 285.2,72.5 L285.4,72.5 L348.6,72.5 C350.3,72.4 351.8,71.7 352.9,70.5 C354,69.2 354.5,67.6 354.3,66 L350,27.6 C349.7,24.6 347.1,22.4 344.2,22.4 L285.2,22.4 C282,22.4 279.3,25 279.3,28.3 L279.3,66.6 Z M370.3,22.6 C372,20.6 374.4,19.5 377,19.4 L442.4,19.4 C446.6,19.4 450.1,22.2 451.1,26.2 L460.6,64.5 C461.2,67.1 460.7,69.9 459,72 C457.4,74.1 454.9,75.4 452.2,75.5 L382,75.6 C377.6,75.6 374,72.5 373.2,68.2 L368.2,29.8 C367.9,27.2 368.7,24.5 370.3,22.6 Z M371.3,29.2 L376.3,67.6 C376.8,70.4 379.2,72.5 382.1,72.5 L382.3,72.5 L452.3,72.4 C454,72.4 455.7,71.5 456.8,70.1 C457.9,68.7 458.3,66.9 457.8,65.1 L448.3,26.8 C447.7,24.1 445.3,22.3 442.6,22.3 L377.1,22.3 C375.4,22.3 373.8,23.1 372.7,24.4 C371.5,25.8 371,27.5 371.3,29.2 Z M114.9,94.7 C114.9,94.7 114.9,94.7 114.9,94.7 L134.1,93.5 C134.7,93.5 135.1,93 135,92.4 C135,91.8 134.5,91.4 133.9,91.5 L114.8,92.7 C114.2,92.7 113.8,93.2 113.9,93.8 C113.9,94.3 114.3,94.7 114.9,94.7 Z M114.5,98.1 C114.5,98.1 114.5,98.1 114.5,98.1 L132.3,97.3 C132.9,97.3 133.3,96.8 133.3,96.3 C133.3,95.7 132.8,95.3 132.3,95.3 L114.5,96.1 C113.9,96.1 113.5,96.6 113.5,97.1 C113.5,97.7 113.9,98.1 114.5,98.1 Z M513.5,57.1 L513.5,129.2 C513.5,133.3 510.1,136.7 506,136.7 L490,136.7 C485.9,136.7 482.5,133.3 482.5,129.2 L482.5,120.4 L480.8,120.4 L480.8,141.5 L491.5,141.5 C492.3,141.5 493,142.2 493,143 L493,152.1 C493,152.4 492.9,152.6 492.8,152.8 L488.6,160.5 C488.4,160.9 487.9,161.2 487.4,161.3 L467.5,163 C467,163 466.5,162.8 466.2,162.5 L463.2,159 L463.2,159.3 L449.5,159.3 C454.6,176 450.6,195 437.3,208.2 C427.7,217.8 415.2,222.5 402.7,222.5 C390.2,222.5 377.7,217.7 368.1,208.2 C354.9,195 350.8,176 355.9,159.3 L346.7,159.3 L343.2,164.1 L341,168.6 C338.5,173.7 333.4,176.8 327.8,176.8 L153.4,176.8 C145.4,176.8 138.8,170.3 138.7,162.4 L136.8,159.3 L128.3,159.3 C133.4,176 129.4,195 116.1,208.2 C106.5,217.8 94,222.5 81.5,222.5 C69,222.5 56.5,217.7 46.9,208.2 C33.7,195 29.6,176 34.7,159.3 L28.7,159.3 L23.9,167.8 C23.6,168.3 23.1,168.6 22.6,168.6 L8.6,168.6 C8.1,168.6 7.5,168.3 7.3,167.8 L0.3,155 C0.2,154.8 0.1,154.5 0.1,154.3 L0.1,147.9 C0.1,147.1 0.8,146.4 1.6,146.4 L4.7,146.4 L4.7,139.2 C4.7,138.4 5.4,137.7 6.2,137.7 L12,137.7 L12,102.9 C12,102.3 12.3,101.8 12.8,101.6 L18.6,98.5 L18.6,96.3 C18.6,95.8 18.9,95.3 19.3,95.1 L26.6,90.2 C26.8,90.1 27,90 27.3,90 L150.9,76.1 L188.6,12.9 L188.3,9 C188.3,8.2 188.8,7.5 189.6,7.4 C190.3,7.4 254.3,0 317.6,0 C372.3,0 438.4,1.3 457.3,1.7 C460.3,1.8 462.8,4.3 462.9,7.3 L477.6,68 C477.9,67.7 478.2,67.6 478.6,67.6 L482.3,67.6 L482.3,57.1 C482.3,53 485.7,49.6 489.8,49.6 L505.8,49.6 C510.1,49.6 513.5,53 513.5,57.1 Z M460,7.8 C460,7.7 460,7.7 460,7.6 L457.3,13.6 C457.3,13.7 457.2,13.8 457.2,13.8 L473.8,85.4 L477.9,85.4 L477.9,80.9 L460,7.8 Z M477.8,141.4 L477.8,131.5 L452,131.5 L460,141.4 L477.8,141.4 Z M452.6,141.4 L457.4,141.4 L449.3,131.4 C449.1,131.3 448.9,131.1 448.8,130.8 L438.4,117.9 C434.7,113.4 429.3,110.8 423.4,110.8 L384.2,110.8 C378.2,110.8 372.4,113.7 368.8,118.5 L337.3,161.7 L341.3,161.7 L370.8,121.5 C374,117.2 379.1,114.6 384.4,114.6 L422.2,114.6 C427.2,114.6 431.9,116.8 435.1,120.6 L452.6,141.4 C452.6,141.4 452.6,141.4 452.6,141.4 Z M141.8,161.7 L146.2,161.7 L120.1,119.2 C117.1,114.2 111.5,111.1 105.7,111.1 L58.1,111.1 C52,111.1 46.3,114.4 43.3,119.8 L29.2,145.3 L33,145.3 L45.8,122.5 C48.8,117.2 54.4,113.9 60.5,113.9 L103,113.9 C108.8,113.9 114.3,117 117.4,122 L141.8,161.7 Z M14.6,140.4 L18.4,145.3 L27,145.3 L41.6,118.8 C44.9,112.8 51.3,109.1 58.1,109.1 L105.7,109.1 C112.2,109.1 118.4,112.6 121.8,118.1 L128.8,129.5 C128.8,129.5 128.8,129.5 128.8,129.5 L156.9,129.5 L156.9,104.1 L21.6,104.1 L21.6,131.2 C21.6,135.5 18.7,139.2 14.6,140.4 Z M167.6,85.5 L171.3,85.5 L172.6,77 L169,77 C168.4,77 168,76.6 168,76 C168,75.4 168.4,75 169,75 L174.7,75 L176.9,74.4 C178.1,74.1 178.9,73 178.9,71.8 L178.9,69.8 C178.8,69.8 178.8,69.8 178.7,69.8 L172.6,69.8 C172,69.8 171.6,69.4 171.6,68.8 C171.6,68.2 172,67.8 172.6,67.8 L178.7,67.8 C178.8,67.8 178.8,67.8 178.9,67.8 L178.7,58.3 C178.7,57.8 178.5,57.4 178.1,57.1 C177.7,56.8 177.3,56.7 176.8,56.7 L171.8,57.5 C168.7,58 166.5,60.7 166.6,63.8 L167.6,85.5 Z M196,14.5 L172.8,54.3 L176.3,53.8 C176.4,53.8 176.6,53.8 176.7,53.8 L195.5,24.1 C197.4,21.1 200.6,19.4 204.1,19.4 L252.3,19.4 C254.6,19.4 256.7,20.3 258.3,21.9 C259.9,23.5 260.7,25.7 260.6,28 L260.6,67.4 C260.4,71.9 256.9,75.3 252.4,75.4 L180.5,75.5 C179.8,76.4 178.8,77.1 177.6,77.4 L175.4,78 L174.3,85.6 L265,85.6 L265,14.5 L196,14.5 Z M360.2,14.5 L368,85.4 L471.7,85.4 L455.3,14.5 L360.2,14.5 Z M450.3,129.5 L477.7,129.5 L477.7,104.1 L370,104.1 L370.2,106.3 C370.2,106.5 370.2,106.8 370,107 L333.6,156.6 L338.5,156.6 L367.2,117.2 C371.2,111.9 377.6,108.7 384.2,108.7 L423.4,108.7 C429.8,108.7 435.9,111.6 439.9,116.6 L450.3,129.5 Z M331.2,156.6 L349.6,131.5 L271.9,131.5 L271.9,156.6 L331.2,156.6 Z M269.9,156.6 L269.9,131.5 L267,131.5 L267,156.6 L269.9,156.6 Z M265,156.6 L265,131.5 L158.9,131.5 L158.9,156.6 L265,156.6 Z M156.9,156.6 L156.9,131.5 L130,131.5 L145.4,156.6 L156.9,156.6 Z M236.1,102.6 C236.1,103.4 235.4,104.1 234.6,104.1 L158.9,104.1 L158.9,129.5 L265,129.5 L265,87.5 L158.9,87.5 L158.9,101.1 L234.6,101.1 C235.5,101.1 236.1,101.7 236.1,102.6 Z M368.2,106.1 L366.2,87.4 L272,87.4 L272,101 C272,101 272.1,101 272.1,101 L336.3,101 C337.1,101 337.8,101.7 337.8,102.5 C337.8,103.3 337.1,104 336.3,104 L272.1,104 C272.1,104 272,104 272,104 L272,129.5 L351,129.5 C351,129.5 351.1,129.5 351.1,129.5 L368.2,106.1 Z M269.9,87.5 L267,87.5 L267,129.5 L269.9,129.5 L269.9,87.5 Z M477.8,101.1 L477.8,87.5 L368.2,87.5 L369.7,101.1 C369.8,101.1 369.9,101.1 370,101.1 L477.8,101.1 Z M271.9,14.5 L271.9,85.4 L365.9,85.4 L358.1,14.5 L271.9,14.5 Z M269.9,14.5 L267,14.5 L267,85.4 L269.9,85.4 L269.9,14.5 Z M181.8,71.8 C181.8,72 181.8,72.2 181.8,72.5 L252.4,72.4 C255.2,72.4 257.5,70.2 257.6,67.4 L257.6,28 C257.7,26.5 257.1,25.1 256.1,24.1 C255.1,23.1 253.7,22.5 252.3,22.5 L204.1,22.5 C201.6,22.5 199.4,23.7 198.1,25.8 L179.7,54.8 C179.8,54.9 179.9,54.9 180,55 C181,55.9 181.6,57.1 181.6,58.4 L181.8,71.8 Z M163.8,69.8 L158.9,78.2 L158.9,85.5 L164.6,85.5 L163.8,69.8 Z M156.9,81.6 L154.7,85.4 L156.9,85.4 L156.9,81.6 Z M147.6,87.5 L139.9,101.1 L156.9,101.1 L156.9,87.5 L147.6,87.5 Z M145.2,87.6 L21.6,97 L21.6,99.3 L21.6,101.1 L137.6,101.1 L145.2,87.6 Z M334.8,161.7 L337,158.7 L146.6,158.7 L148.5,161.7 L334.8,161.7 Z M191.4,10.3 L191.5,11.6 L454.9,11.6 L457.9,4.8 C457.9,4.8 457.9,4.8 457.9,4.8 C457.7,4.7 457.5,4.7 457.2,4.7 C438.3,4.3 372.3,3 317.6,3 C259.7,3 201.1,9.2 191.4,10.3 Z M153,78 C152.9,78.2 152.8,78.3 152.6,78.4 L148.7,85.4 L152.4,85.4 L163.7,66 L163.6,64 C163.4,59.7 166.2,55.9 170.3,54.8 L193.8,14.5 L191,14.5 L153,78 Z M24.9,94.8 L146.4,85.5 L150.1,79 L28,92.7 L24.9,94.8 Z M15,103.7 L15,137 C17.2,135.9 18.6,133.7 18.6,131.2 L18.6,101.8 L15,103.7 Z M31.3,148.3 L17.7,148.3 C17.2,148.3 16.8,148.1 16.5,147.7 L11,140.6 L7.6,140.6 L7.6,147.8 C7.6,148.6 6.9,149.3 6.1,149.3 L3,149.3 L3,153.8 L9.4,165.5 L21.7,165.5 L31.3,148.3 Z M127.3,173.5 C127.3,161.2 122.5,149.7 113.9,141 C105.2,132.3 93.7,127.6 81.4,127.6 C69.1,127.6 57.6,132.3 49,141 C40.3,149.7 35.6,161.2 35.6,173.5 C35.6,185.8 40.4,197.3 49,206 C57.7,214.7 69.2,219.4 81.5,219.4 C93.8,219.4 105.3,214.6 114,206 C122.6,197.3 127.3,185.7 127.3,173.5 Z M134.8,156.1 L114.8,123.4 C112.3,119.3 107.8,116.8 103,116.8 L60.5,116.8 C55.5,116.8 50.8,119.5 48.4,123.9 L30.3,156.1 L35.6,156.1 C38,149.8 41.7,143.9 46.7,138.9 C56.3,129.3 68.8,124.6 81.3,124.6 C93.8,124.6 106.3,129.4 115.9,138.9 C121,144 124.7,149.9 127,156.1 L134.8,156.1 Z M338.4,167.2 L339.6,164.7 L141.9,164.7 C143.1,169.9 147.8,173.8 153.3,173.8 L327.8,173.8 C332.4,173.7 336.4,171.2 338.4,167.2 Z M448.7,173.5 C448.7,161.2 443.9,149.7 435.3,141 C426.6,132.3 415.1,127.6 402.8,127.6 C390.5,127.6 379,132.4 370.3,141 C361.6,149.7 356.9,161.2 356.9,173.5 C356.9,185.8 361.7,197.3 370.3,206 C379,214.7 390.5,219.4 402.8,219.4 C415.1,219.4 426.6,214.6 435.3,206 C443.9,197.3 448.7,185.7 448.7,173.5 Z M461,156.1 L432.8,122.5 C430.2,119.3 426.3,117.5 422.2,117.5 L384.4,117.5 C380,117.5 375.8,119.6 373.2,123.2 L349.1,156.1 L357.1,156.1 C359.5,149.8 363.2,143.9 368.2,138.9 C377.8,129.3 390.3,124.6 402.8,124.6 C415.3,124.6 427.8,129.4 437.4,138.9 C442.5,144 446.2,149.9 448.5,156.1 L461,156.1 Z M479.3,144.4 L455.1,144.4 L468,159.8 L486.3,158.2 L489.9,151.6 L489.9,144.4 L479.3,144.4 L479.3,144.4 Z M482.5,117.4 L482.5,70.5 L478.8,70.5 C478.6,70.5 478.5,70.5 478.4,70.4 L480.8,80.4 C480.8,80.5 480.8,80.6 480.8,80.8 L480.8,117.4 L482.5,117.4 Z M510.5,57.1 C510.5,54.6 508.5,52.6 506,52.6 L490,52.6 C487.5,52.6 485.5,54.6 485.5,57.1 L485.5,129.2 C485.5,131.7 487.5,133.7 490,133.7 L506,133.7 C508.5,133.7 510.5,131.7 510.5,129.2 L510.5,57.1 Z M238.8,102.6 C238.8,100.9 240.1,99.6 241.8,99.6 L259.3,99.6 C260.9,99.6 262.3,100.9 262.3,102.6 C262.3,104.3 261,105.6 259.3,105.6 L241.8,105.6 C240.2,105.6 238.8,104.2 238.8,102.6 Z M240.8,102.6 C240.8,103.2 241.2,103.6 241.8,103.6 L259.3,103.6 C259.8,103.6 260.3,103.2 260.3,102.6 C260.3,102 259.9,101.6 259.3,101.6 L241.8,101.6 C241.3,101.6 240.8,102 240.8,102.6 Z M364.1,102.6 C364.1,104.3 362.8,105.6 361.1,105.6 L343.6,105.6 C342,105.6 340.6,104.3 340.6,102.6 C340.6,100.9 341.9,99.6 343.6,99.6 L361.1,99.6 C362.8,99.6 364.1,100.9 364.1,102.6 Z M362.1,102.6 C362.1,102 361.7,101.6 361.1,101.6 L343.6,101.6 C343.1,101.6 342.6,102 342.6,102.6 C342.6,103.2 343,103.6 343.6,103.6 L361.1,103.6 C361.7,103.6 362.1,103.1 362.1,102.6 Z M109.5,145.4 C125,160.9 125,186 109.5,201.5 C101.8,209.2 91.6,213.1 81.4,213.1 C71.2,213.1 61.1,209.2 53.3,201.5 C37.8,186 37.8,160.9 53.3,145.4 C61,137.7 71.2,133.8 81.4,133.8 C91.6,133.8 101.7,137.7 109.5,145.4 Z M107.4,147.5 C100.5,140.6 91.3,136.8 81.5,136.8 C71.7,136.8 62.5,140.6 55.6,147.5 C48.7,154.4 44.9,163.6 44.9,173.4 C44.9,183.2 48.7,192.4 55.6,199.3 C62.5,206.2 71.7,210 81.5,210 C91.3,210 100.5,206.2 107.4,199.3 C121.7,185.1 121.7,161.8 107.4,147.5 Z M99.6,197.2 C99.8,200.3 96.4,202.5 96.2,202.6 C96.1,202.6 96,202.7 96,202.7 C94.1,203.7 92,204.4 89.9,205 C89.9,205 89.9,205 89.9,205 C89.9,205 89.9,205 89.9,205 C87.8,205.6 85.6,205.9 83.5,206 C83.4,206 83.4,206 83.3,206 C83.3,206 83.3,206 83.3,206 C83.3,206 83.2,206 83.1,206 C82.1,205.9 78.9,205.5 77.7,203 C76.2,199.9 77.4,197 77.7,196.1 C78.2,195.1 81.8,187.4 82,187.1 C82.1,187 82.4,186.3 83,185.7 C83.4,185.3 83.9,184.9 84.6,184.7 C84.6,184.7 84.6,184.7 84.6,184.7 C84.6,184.7 84.6,184.7 84.6,184.7 C84.9,184.6 85.2,184.6 85.4,184.6 C86.7,184.6 87.8,185.4 88,185.5 C88.3,185.7 95.3,190.5 96.2,191.2 C96.8,191.8 99.3,193.8 99.6,197.2 Z M96.6,197.4 C96.4,195.2 94.7,193.9 94.4,193.7 C93.5,193 86.6,188.3 86.2,188 C86.2,188 86.2,188 86.1,188 C85.9,187.9 85.6,187.7 85.3,187.7 C85.3,187.7 85.2,187.7 85.2,187.7 C85.1,187.7 85,187.8 84.9,187.9 C84.7,188.1 84.6,188.3 84.5,188.4 C84.5,188.4 84.5,188.4 84.5,188.4 C84.3,188.7 80.7,196.4 80.2,197.4 C80,197.9 79.2,199.8 80.1,201.7 C80.4,202.4 81.7,202.9 82.9,203 C83,203 83,203 83.1,203 C85.1,202.9 87,202.6 88.9,202.1 C88.9,202.1 89,202.1 89,202.1 C90.9,201.6 92.7,200.9 94.5,200 C94.6,200 94.6,199.9 94.7,199.9 C95.5,199.4 96.6,198.3 96.6,197.4 Z M107.7,168.9 C108.7,168.9 109.8,169.1 111,169.6 C113.8,171 114,175.1 114,175.2 C114,175.3 114,175.4 114,175.4 C113.9,177.6 113.5,179.7 113,181.8 C113,181.8 113,181.8 113,181.8 C113,181.8 113,181.8 113,181.8 C112.4,183.9 111.7,185.9 110.7,187.9 C110.7,188 110.7,188.1 110.6,188.1 C110.6,188.1 110.6,188.2 110.5,188.3 C110,189.1 108.1,191.5 105.5,191.5 C105.4,191.5 105.3,191.5 105.2,191.5 C101.8,191.3 99.8,188.8 99.3,188 C98.6,187.1 93.8,180.1 93.6,179.8 C93.5,179.6 92.4,178.1 92.8,176.4 C92.8,176.4 92.8,176.4 92.8,176.4 C92.8,176.4 92.8,176.4 92.8,176.4 C93,175.7 93.4,175.2 93.8,174.8 C94.4,174.2 95.1,173.9 95.2,173.8 C95.5,173.7 103.2,170 104.2,169.5 C104.7,169.4 106,168.9 107.7,168.9 Z M109.7,172.3 C109.1,172 108.4,171.9 107.7,171.9 C106.6,171.9 105.6,172.3 105.4,172.4 C104.6,172.8 99.6,175.1 97.5,176.1 L96.4,176.6 C96.4,176.6 96.4,176.6 96.3,176.6 C96.2,176.6 96,176.8 95.8,177 C95.7,177.1 95.6,177.2 95.6,177.3 C95.6,177.3 95.6,177.3 95.6,177.3 C95.6,177.5 95.7,178 95.9,178.2 C95.9,178.2 95.9,178.2 95.9,178.2 L96.2,178.7 C99.4,183.3 101.2,185.9 101.6,186.4 C101.8,186.7 103.1,188.4 105.3,188.6 C105.3,188.6 105.4,188.6 105.4,188.6 C106.2,188.6 107.2,187.7 107.8,186.8 C107.8,186.7 107.9,186.7 107.9,186.6 C108.8,184.9 109.5,183 110,181.1 C110,181.1 110,181 110,181 C110.5,179.1 110.8,177.2 110.9,175.2 C110.9,175.1 110.9,175.1 110.9,175 C110.9,174.2 110.5,172.7 109.7,172.3 Z M104.5,150.4 C106,151.9 107.4,153.6 108.6,155.4 C108.7,155.5 108.7,155.5 108.8,155.6 C108.8,155.6 108.8,155.7 108.9,155.8 C109.3,156.7 110.6,159.7 109,162 C107.1,164.8 103.9,165.3 103,165.4 C101.8,165.5 93.4,166.2 93,166.2 C93,166.2 92.8,166.2 92.6,166.2 C91.9,166.2 90.6,166.1 89.7,165.1 C89.7,165.1 89.7,165.1 89.7,165.1 C89.7,165.1 89.7,165.1 89.7,165.1 C88.5,163.8 88.6,162 88.6,161.8 C88.6,161.5 89.3,153 89.4,151.8 C89.5,151 89.8,148.6 91.7,146.7 C92,146.4 92.4,146.1 92.8,145.8 C93.6,145.3 94.5,145.1 95.4,145.1 C97.3,145.1 99.1,146 99.2,146.1 C99.3,146.1 99.3,146.2 99.4,146.3 C101.2,147.5 102.9,148.9 104.5,150.4 C104.5,150.4 104.5,150.4 104.5,150.4 C104.5,150.4 104.5,150.4 104.5,150.4 Z M106.1,157.1 C105,155.5 103.8,154 102.4,152.6 C102.4,152.6 102.4,152.6 102.4,152.6 C102.4,152.6 102.3,152.5 102.3,152.5 C100.9,151.1 99.4,149.9 97.8,148.8 C97.7,148.8 97.7,148.7 97.6,148.7 C97.2,148.5 96.3,148.2 95.5,148.2 C94.9,148.2 94.7,148.4 94.6,148.4 C94.4,148.6 94.2,148.7 94,148.9 C92.8,150.1 92.6,151.8 92.5,152.1 C92.4,153.2 91.7,161.3 91.7,162 C91.7,162 91.7,162 91.7,162.1 C91.7,162.4 91.7,162.8 91.9,163 C91.9,163 91.9,163 91.9,163 C92,163.1 92.4,163.2 92.7,163.2 C92.7,163.2 92.8,163.2 92.8,163.2 C92.8,163.2 92.8,163.2 92.9,163.2 C93.3,163.2 101.7,162.5 102.8,162.4 C103.2,162.4 105.3,162.1 106.6,160.3 C107,159.7 106.8,158.3 106.3,157.2 C106.2,157.2 106.1,157.2 106.1,157.1 Z M63.3,149.8 C63.2,148.1 64.2,146.6 65.2,145.7 C66,144.9 66.7,144.5 66.7,144.5 C66.8,144.5 66.9,144.4 66.9,144.4 C68.8,143.4 70.9,142.7 73,142.1 C73,142.1 73,142.1 73,142.1 C73,142.1 73,142.1 73,142.1 C75.1,141.5 77.3,141.2 79.4,141.1 C79.5,141.1 79.5,141.1 79.6,141.1 C79.6,141.1 79.6,141.1 79.6,141.1 C79.6,141.1 79.7,141.1 79.8,141.1 C80.8,141.2 84,141.6 85.2,144.1 C86.7,147.2 85.5,150.1 85.2,151 C84.7,152 81.1,159.7 80.9,160 C80.8,160.2 80,161.9 78.3,162.4 C78.3,162.4 78.3,162.4 78.3,162.4 C78.3,162.4 78.3,162.4 78.3,162.4 C78,162.5 77.7,162.5 77.5,162.5 C76.2,162.5 75.1,161.7 74.9,161.6 C74.6,161.4 67.6,156.6 66.7,155.9 C66,155.2 63.5,153.2 63.3,149.8 Z M66.3,149.6 C66.5,151.8 68.2,153.1 68.5,153.3 C69.4,153.9 76.4,158.8 76.7,159 C76.7,159 76.7,159 76.8,159 C77,159.1 77.3,159.3 77.6,159.3 C77.6,159.3 77.7,159.3 77.7,159.3 C77.7,159.3 77.7,159.3 77.7,159.3 C77.9,159.2 78.2,158.9 78.3,158.6 C78.3,158.6 78.3,158.6 78.3,158.6 L78.7,157.8 C79.7,155.8 82.2,150.4 82.6,149.6 C82.8,149.2 83.6,147.2 82.7,145.3 C82.4,144.6 81.1,144.1 79.9,144 C79.8,144 79.8,144 79.7,144 C77.8,144.1 75.8,144.4 73.9,144.9 C73.8,144.9 73.8,144.9 73.7,144.9 C71.8,145.4 70,146.1 68.3,147 C68.2,147 68.2,147.1 68.1,147.1 C67.9,147.2 67.6,147.5 67.3,147.8 C66.9,148.1 66.2,148.9 66.3,149.6 Z M73.1,181.8 C74.3,183.1 74.2,184.9 74.2,185.1 C74.2,185.4 73.5,193.9 73.4,195.1 C73.3,196 72.8,199.2 70,201.1 C69.2,201.6 68.3,201.8 67.4,201.8 C65.5,201.8 63.7,200.9 63.6,200.8 C63.5,200.8 63.5,200.7 63.4,200.6 C61.6,199.4 59.9,198 58.4,196.5 C58.4,196.5 58.4,196.5 58.4,196.5 C58.4,196.5 58.4,196.5 58.4,196.5 C56.9,195 55.5,193.3 54.3,191.5 C54.2,191.4 54.2,191.4 54.1,191.3 C54.1,191.3 54.1,191.2 54,191.1 C53.6,190.2 52.3,187.2 53.9,184.9 C54.2,184.5 54.5,184.1 54.8,183.8 C56.7,181.9 59.1,181.5 59.9,181.5 C61.1,181.4 69.5,180.7 69.9,180.7 C69.9,180.7 70.1,180.7 70.3,180.7 C70.8,180.7 72.1,180.8 73.1,181.8 C73.1,181.8 73.1,181.8 73.1,181.8 C73.1,181.8 73.1,181.8 73.1,181.8 Z M71.2,184.8 C71.2,184.5 71.2,184.1 71,183.9 C70.9,183.8 70.5,183.7 70.2,183.7 C70.2,183.7 70.1,183.7 70.1,183.7 C70.1,183.7 70.1,183.7 70,183.7 C69.7,183.7 61.2,184.4 60.1,184.5 C59.8,184.5 58.1,184.7 56.9,186 C56.7,186.2 56.5,186.4 56.4,186.6 C56,187.2 56.2,188.6 56.7,189.7 C56.7,189.8 56.8,189.8 56.8,189.9 C57.9,191.5 59.1,193.1 60.5,194.4 C60.5,194.4 60.5,194.4 60.5,194.4 C60.5,194.4 60.5,194.4 60.6,194.5 C60.6,194.5 60.6,194.5 60.6,194.5 C62,195.9 63.5,197.1 65.1,198.2 C65.2,198.2 65.2,198.3 65.3,198.3 C65.7,198.5 66.6,198.8 67.4,198.8 C68,198.8 68.2,198.6 68.3,198.6 C70,197.4 70.3,195.4 70.4,194.8 C70.5,193.7 71.2,185.3 71.2,184.8 C71.2,184.9 71.2,184.8 71.2,184.8 Z M55.1,178.1 C54.1,178.1 53,177.9 51.8,177.4 C49,176 48.8,171.9 48.8,171.8 C48.8,171.7 48.8,171.6 48.8,171.6 C48.9,169.4 49.3,167.3 49.8,165.2 C49.8,165.2 49.8,165.2 49.8,165.2 C49.8,165.2 49.8,165.2 49.8,165.2 C50.4,163.1 51.1,161.1 52.1,159.1 C52.1,159 52.1,158.9 52.2,158.9 C52.2,158.9 52.2,158.8 52.3,158.7 C52.5,158.4 52.9,157.9 53.4,157.4 C54.3,156.5 55.6,155.5 57.3,155.5 C57.4,155.5 57.5,155.5 57.6,155.5 C61,155.7 63,158.2 63.5,159 C64.2,159.9 69,166.9 69.2,167.2 C69.3,167.4 70.4,168.9 70,170.6 C70,170.6 70,170.6 70,170.6 C70,170.6 70,170.6 70,170.6 C69.5,172.3 67.8,173.1 67.6,173.2 C67.3,173.3 59.6,177 58.6,177.5 C58.2,177.5 56.8,178.1 55.1,178.1 Z M53.1,174.6 C53.7,174.9 54.4,175 55.1,175 C56.2,175 57.2,174.6 57.4,174.5 C58,174.2 60.9,172.9 65.9,170.5 L66.4,170.3 L66.4,170.3 L66.4,170.3 C66.6,170.2 66.9,169.9 67.1,169.7 L67.1,169.6 C67.1,169.4 67,168.9 66.8,168.7 L66.8,168.7 L66.8,168.7 C66.6,168.4 61.8,161.4 61.1,160.5 C60.9,160.2 59.6,158.5 57.4,158.3 C57.4,158.3 57.3,158.3 57.3,158.3 C56.8,158.3 56.2,158.7 55.6,159.3 C55.3,159.6 55.1,159.9 54.9,160.1 L54.8,160.3 C54,162 53.3,163.7 52.8,165.5 L52.8,165.5 L52.7,165.9 L52.7,165.9 L52.7,165.9 C52.2,167.8 51.9,169.7 51.8,171.6 L51.8,171.8 C52,172.8 52.4,174.3 53.1,174.6 Z M81.4,182.5 C79,182.5 76.7,181.6 75,179.9 C71.5,176.4 71.5,170.7 75,167.2 C76.7,165.5 79,164.6 81.4,164.6 C83.8,164.6 86.1,165.5 87.8,167.2 C89.5,168.9 90.4,171.2 90.4,173.6 C90.4,176 89.5,178.3 87.8,180 C86.1,181.5 83.8,182.5 81.4,182.5 Z M77.2,177.7 C78.3,178.8 79.8,179.5 81.4,179.5 C83,179.5 84.5,178.9 85.6,177.7 C86.7,176.5 87.4,175.1 87.4,173.5 C87.4,171.9 86.8,170.4 85.6,169.3 C84.5,168.2 83,167.5 81.4,167.5 C79.8,167.5 78.3,168.1 77.2,169.3 C74.9,171.6 74.9,175.4 77.2,177.7 Z M430.8,145.4 C446.3,160.9 446.3,186 430.8,201.5 C423.1,209.2 412.9,213.1 402.7,213.1 C392.5,213.1 382.4,209.2 374.6,201.5 C359.1,186 359.1,160.9 374.6,145.4 C382.3,137.7 392.5,133.8 402.7,133.8 C412.9,133.8 423.1,137.7 430.8,145.4 Z M428.7,147.5 C421.8,140.6 412.6,136.8 402.8,136.8 C393,136.8 383.8,140.6 376.9,147.5 C370,154.4 366.2,163.6 366.2,173.4 C366.2,183.2 370,192.4 376.9,199.3 C383.8,206.2 393,210 402.8,210 C412.6,210 421.8,206.2 428.7,199.3 C443,185.1 443,161.8 428.7,147.5 Z M420.9,197.2 C421.1,200.3 417.7,202.5 417.5,202.6 C417.4,202.6 417.3,202.7 417.3,202.7 C415.4,203.7 413.3,204.4 411.2,205 C411.2,205 411.2,205 411.2,205 C411.2,205 411.2,205 411.2,205 C409.1,205.6 406.9,205.9 404.8,206 C404.7,206 404.7,206 404.6,206 C404.6,206 404.6,206 404.6,206 C404.6,206 404.5,206 404.4,206 C403.4,205.9 400.2,205.5 399,203 C397.5,199.9 398.7,197 399,196.1 C399.5,195.1 403.1,187.4 403.3,187.1 C403.4,187 403.7,186.3 404.3,185.7 C404.7,185.3 405.2,184.9 405.9,184.7 C405.9,184.7 405.9,184.7 405.9,184.7 C405.9,184.7 405.9,184.7 405.9,184.7 C406.2,184.6 406.5,184.6 406.7,184.6 C408,184.6 409.1,185.4 409.3,185.5 C409.6,185.7 416.6,190.5 417.5,191.2 C418.2,191.8 420.7,193.8 420.9,197.2 Z M417.9,197.4 C417.7,195.2 416,193.9 415.7,193.7 C414.8,193.1 407.9,188.3 407.5,188 C407.5,188 407.5,188 407.4,188 C407.2,187.9 406.9,187.7 406.6,187.7 C406.6,187.7 406.5,187.7 406.5,187.7 C406.4,187.7 406.3,187.8 406.2,187.9 C406,188.1 405.9,188.3 405.8,188.4 C405.8,188.4 405.8,188.4 405.8,188.4 C405.4,189.2 402,196.4 401.5,197.4 C401.3,197.9 400.5,199.8 401.4,201.7 C401.7,202.4 403,202.9 404.2,203 C404.3,203 404.3,203 404.4,203 C406.4,202.9 408.3,202.6 410.2,202.1 C410.2,202.1 410.3,202.1 410.3,202.1 C412.2,201.6 414,200.9 415.8,200 C415.9,200 415.9,199.9 416,199.9 C416.9,199.4 418,198.2 417.9,197.4 Z M429.1,168.9 C430.1,168.9 431.2,169.1 432.4,169.6 C435.2,171 435.4,175.1 435.4,175.2 C435.4,175.3 435.4,175.4 435.4,175.4 C435.3,177.6 434.9,179.7 434.4,181.8 C434.4,181.8 434.4,181.8 434.4,181.8 C434.4,181.8 434.4,181.8 434.4,181.8 C433.8,183.9 433.1,185.9 432.1,187.9 C432.1,188 432.1,188.1 432,188.1 C432,188.1 432,188.2 431.9,188.3 C431.4,189.1 429.5,191.5 426.9,191.5 C426.8,191.5 426.7,191.5 426.6,191.5 C423.2,191.3 421.2,188.8 420.7,188 C420,187.1 415.2,180.1 415,179.8 C414.9,179.6 413.8,178.1 414.2,176.4 C414.2,176.4 414.2,176.4 414.2,176.4 C414.2,176.4 414.2,176.4 414.2,176.4 C414.4,175.7 414.8,175.2 415.2,174.8 C415.8,174.2 416.5,173.9 416.6,173.8 C416.9,173.7 424.6,170 425.6,169.5 C426,169.4 427.4,168.9 429.1,168.9 Z M431.1,172.3 C430.5,172 429.8,171.9 429.1,171.9 C428,171.9 427,172.3 426.8,172.4 C426,172.8 421,175.1 418.9,176.1 L417.8,176.6 C417.8,176.6 417.8,176.6 417.7,176.6 C417.6,176.6 417.4,176.8 417.2,177 C417.1,177.1 417,177.2 417,177.3 C417,177.3 417,177.3 417,177.3 C417,177.5 417.1,178 417.3,178.2 L417.6,178.7 C420.8,183.3 422.6,185.9 423,186.4 C423.2,186.7 424.5,188.4 426.7,188.6 C426.7,188.6 426.8,188.6 426.8,188.6 C427.6,188.6 428.6,187.7 429.2,186.8 C429.2,186.7 429.3,186.7 429.3,186.6 C430.2,184.9 430.9,183 431.4,181.1 C431.4,181 431.4,181 431.4,180.9 C431.9,179 432.2,177.1 432.3,175.1 C432.3,175 432.3,175 432.3,174.9 C432.2,174.2 431.8,172.7 431.1,172.3 Z M425.8,150.4 C427.3,151.9 428.7,153.6 429.9,155.4 C430,155.5 430,155.5 430.1,155.6 C430.1,155.6 430.1,155.7 430.2,155.8 C430.6,156.7 431.9,159.7 430.3,162 C428.4,164.8 425.2,165.3 424.3,165.4 C423.1,165.5 414.7,166.2 414.3,166.2 C414.3,166.2 414.1,166.2 413.9,166.2 C413.2,166.2 411.9,166.1 411,165.1 C411,165.1 411,165.1 411,165.1 C411,165.1 411,165.1 411,165.1 C409.8,163.8 409.9,162 409.9,161.8 C409.9,161.5 410.6,153 410.7,151.8 C410.8,151 411.1,148.6 413,146.7 C413.3,146.4 413.7,146.1 414.1,145.8 C414.9,145.3 415.8,145.1 416.7,145.1 C418.6,145.1 420.4,146 420.5,146.1 C420.6,146.1 420.6,146.2 420.7,146.3 C422.6,147.5 424.3,148.9 425.8,150.4 C425.8,150.4 425.8,150.4 425.8,150.4 C425.8,150.4 425.8,150.4 425.8,150.4 Z M427.4,157.1 C426.3,155.5 425.1,154 423.7,152.6 C423.7,152.6 423.7,152.6 423.7,152.6 C423.7,152.6 423.6,152.5 423.6,152.5 C422.2,151.1 420.7,149.9 419.1,148.8 C419,148.8 419,148.7 418.9,148.7 C418.5,148.5 417.6,148.2 416.8,148.2 C416.2,148.2 416,148.4 415.9,148.4 C415.7,148.6 415.5,148.7 415.3,148.9 C414.1,150.1 413.9,151.8 413.8,152.1 C413.7,153.1 413.1,160.7 413,162 C413,162 413,162 413,162.1 C413,162.4 413,162.8 413.2,163 C413.2,163 413.2,163 413.2,163 C413.3,163.1 413.7,163.2 414,163.2 C414,163.2 414.1,163.2 414.1,163.2 C414.1,163.2 414.1,163.2 414.2,163.2 C414.6,163.2 423,162.5 424.1,162.4 C424.5,162.4 426.6,162.1 427.9,160.3 C428.3,159.7 428.1,158.3 427.6,157.2 C427.5,157.2 427.5,157.2 427.4,157.1 Z M384.6,149.8 C384.5,148.1 385.5,146.6 386.5,145.7 C387.3,144.9 388,144.5 388,144.5 C388.1,144.5 388.2,144.4 388.2,144.4 C390.1,143.4 392.2,142.7 394.3,142.1 C394.3,142.1 394.3,142.1 394.3,142.1 C394.3,142.1 394.3,142.1 394.3,142.1 C396.4,141.5 398.6,141.2 400.7,141.1 C400.8,141.1 400.8,141.1 400.9,141.1 C400.9,141.1 400.9,141.1 400.9,141.1 C400.9,141.1 401,141.1 401.1,141.1 C402.1,141.2 405.3,141.6 406.5,144.1 C408,147.2 406.8,150.1 406.5,151 C406,152 402.4,159.7 402.2,160 C402.1,160.2 401.3,161.9 399.6,162.4 C399.6,162.4 399.6,162.4 399.6,162.4 C399.6,162.4 399.6,162.4 399.6,162.4 C399.3,162.5 399,162.5 398.8,162.5 C397.5,162.5 396.4,161.7 396.2,161.6 C395.9,161.4 388.9,156.6 388,155.9 C387.3,155.2 384.9,153.2 384.6,149.8 Z M387.6,149.6 C387.8,151.8 389.5,153.1 389.8,153.3 C390.7,153.9 397.7,158.8 398,159 C398,159 398,159 398.1,159 C398.3,159.1 398.6,159.3 398.9,159.3 C398.9,159.3 399,159.3 399,159.3 C399,159.3 399,159.3 399,159.3 C399.2,159.2 399.5,158.9 399.6,158.6 C399.6,158.6 399.6,158.6 399.6,158.6 L400,157.8 C401,155.8 403.5,150.4 403.9,149.6 C404.1,149.2 404.9,147.2 404,145.3 C403.7,144.6 402.4,144.1 401.2,144 C401.1,144 401.1,144 401,144 C399.1,144.1 397.1,144.4 395.2,144.9 C395.1,144.9 395.1,144.9 395,144.9 C393.1,145.4 391.3,146.1 389.6,147 C389.5,147 389.5,147.1 389.4,147.1 C389.2,147.2 388.9,147.5 388.6,147.8 C388.3,148.1 387.6,148.9 387.6,149.6 Z M394.5,181.8 C395.7,183.1 395.6,184.9 395.6,185.1 C395.6,185.4 394.9,193.9 394.8,195.1 C394.7,196 394.2,199.2 391.4,201.1 C390.6,201.6 389.7,201.8 388.8,201.8 C386.9,201.8 385.1,200.9 385,200.8 C384.9,200.8 384.9,200.7 384.8,200.6 C383,199.4 381.3,198 379.8,196.5 C379.8,196.5 379.8,196.5 379.8,196.5 C379.8,196.5 379.8,196.5 379.8,196.5 C378.3,195 376.9,193.3 375.7,191.5 C375.6,191.4 375.6,191.4 375.5,191.3 C375.5,191.3 375.5,191.2 375.4,191.1 C375,190.2 373.7,187.2 375.3,184.9 C375.6,184.5 375.9,184.1 376.2,183.8 C378.1,181.9 380.5,181.5 381.3,181.5 C382.5,181.4 390.9,180.7 391.3,180.7 C391.3,180.7 391.5,180.7 391.7,180.7 C392.2,180.7 393.5,180.8 394.5,181.8 C394.5,181.8 394.5,181.8 394.5,181.8 C394.5,181.8 394.5,181.8 394.5,181.8 Z M392.6,184.8 C392.6,184.5 392.6,184.1 392.4,183.9 C392.4,183.9 392.4,183.9 392.4,183.9 C392.3,183.8 391.9,183.7 391.6,183.7 C391.6,183.7 391.5,183.7 391.5,183.7 C391.5,183.7 391.5,183.7 391.4,183.7 C391.1,183.7 382.6,184.4 381.5,184.5 C381.2,184.5 379.5,184.7 378.3,186 C378.1,186.2 377.9,186.4 377.8,186.6 C377.4,187.2 377.6,188.6 378.1,189.7 C378.1,189.8 378.2,189.8 378.2,189.9 C379.3,191.5 380.5,193.1 381.9,194.4 C381.9,194.4 381.9,194.4 381.9,194.4 C381.9,194.4 381.9,194.4 382,194.5 C382,194.5 382,194.5 382,194.5 C383.4,195.9 384.9,197.1 386.5,198.2 C386.6,198.2 386.6,198.3 386.7,198.3 C387.1,198.5 388,198.8 388.8,198.8 C389.4,198.8 389.6,198.6 389.7,198.6 C391.4,197.4 391.7,195.4 391.8,194.8 C391.8,193.7 392.5,185.3 392.6,184.8 C392.5,184.9 392.6,184.8 392.6,184.8 Z M376.5,178.1 C375.5,178.1 374.4,177.9 373.2,177.4 C370.4,176 370.2,171.9 370.2,171.8 C370.2,171.7 370.2,171.6 370.2,171.6 C370.3,169.4 370.7,167.3 371.2,165.2 C371.2,165.2 371.2,165.2 371.2,165.2 C371.2,165.2 371.2,165.2 371.2,165.2 C371.8,163.1 372.5,161.1 373.5,159.1 C373.5,159 373.5,158.9 373.6,158.9 C373.6,158.9 373.6,158.8 373.7,158.7 C373.9,158.4 374.3,157.9 374.8,157.4 C375.7,156.5 377,155.5 378.7,155.5 C378.8,155.5 378.9,155.5 379,155.5 C382.4,155.7 384.4,158.2 384.9,159 C385.6,159.9 390.4,166.9 390.6,167.2 C390.7,167.4 391.8,168.9 391.4,170.6 C391.4,170.6 391.4,170.6 391.4,170.6 C391.4,170.6 391.4,170.6 391.4,170.6 C390.9,172.3 389.2,173.1 389,173.2 C388.7,173.3 381,177 380,177.5 C379.5,177.5 378.2,178.1 376.5,178.1 Z M374.5,174.6 C375.1,174.9 375.8,175 376.5,175 C377.6,175 378.6,174.6 378.8,174.5 C379.4,174.2 382.3,172.9 387.4,170.5 L387.8,170.3 L387.8,170.3 L387.8,170.3 C388,170.2 388.3,169.9 388.5,169.7 L388.5,169.6 C388.5,169.4 388.4,168.9 388.2,168.7 L388.2,168.7 L388.2,168.7 C388,168.4 383.2,161.4 382.5,160.5 C382.3,160.2 381,158.5 378.8,158.3 C378.8,158.3 378.7,158.3 378.7,158.3 C378.2,158.3 377.6,158.7 377,159.3 C376.7,159.6 376.5,159.9 376.3,160.1 L376.2,160.3 C375.4,162 374.7,163.7 374.2,165.5 L374.2,165.5 L374.1,165.9 L374.1,166 C373.6,167.9 373.3,169.8 373.2,171.7 L373.2,171.9 C373.3,172.8 373.7,174.3 374.5,174.6 Z M402.8,182.5 C400.4,182.5 398.1,181.6 396.4,179.9 C392.9,176.4 392.9,170.7 396.4,167.2 C398.1,165.5 400.4,164.6 402.8,164.6 C405.2,164.6 407.5,165.5 409.2,167.2 C412.7,170.7 412.7,176.4 409.2,179.9 C407.4,181.5 405.2,182.5 402.8,182.5 Z M398.5,177.7 C399.6,178.8 401.1,179.5 402.7,179.5 C404.3,179.5 405.8,178.9 406.9,177.7 C409.2,175.4 409.2,171.6 406.9,169.2 C405.8,168.1 404.3,167.4 402.7,167.4 C401.1,167.4 399.6,168 398.5,169.2 C396.2,171.6 396.2,175.4 398.5,177.7 Z" id="Shape"></path>
        </g>
    </g>
</svg>
