<svg xmlns="http://www.w3.org/2000/svg" viewBox="0 0 388.37 311.94"><path fill="currentColor" d="M157.56 30.56 127 48.2v35.28l30.56 17.65 30.56-17.65V48.2zm22.3 38.58c-1.05 0-5.22.08-10.27-.05l-16.71 22.25h-4.6l9.31-22.58c-8.78-.25-16.8-.5-16.8-.5l-4.65 6.87h-3.01l2.39-8.81-2.26-8.59h3.01l4.66 6.73 17.01-.64-10.19-22.84 5.14-.13 16.98 22.52 9.95-.37s4.48-.18 4.48 3.05c-.01 2.6-.99 3.09-4.44 3.09m-91.13 42.45-2.11-.42-3.07 1.39 2.23.36zm20.24 18.59a3.53 3.53 0 1 0 0 7.06 3.53 3.53 0 0 0 0-7.06m-.03 5.35a1.79 1.79 0 1 1 0-3.57c.98 0 1.79.8 1.79 1.79a1.8 1.8 0 0 1-1.79 1.78m-29.32-21.2h2.84l2.12-.89-2.2-.36zm8.67 15.76a3.6 3.6 0 1 0 3.59 3.59 3.6 3.6 0 0 0-3.59-3.59m-.07 5.35a1.73 1.73 0 0 1 0-3.47 1.74 1.74 0 1 1 0 3.47m3.82-25.4-2.12-.37-2.1.95 2.02.45zm15.67-7.34-1.71-.31-2.31 1.05 1.77.3zm-11.77 5.49-2.01-.34-2.9 1.31 2.12.35zm15.73-7.34-1.64-.28-2.93 1.33 1.71.28zm-12.39 5.76 1.04-.48-1.89-.31-3.37 1.52 1.99.31zm5.04-2.34-1.72-.29-3 1.31 1.87.31zm5.39 12.62c-.55 0-1.01.45-1.01 1.01v5.08c0 .56.46 1.01 1.01 1.01h7.88c.31 0 .81-.24.75-.84l-1.93-6.26z"/><path fill="currentColor" d="M98.66 83.5 68.1 101.14v35.29l30.56 17.64 30.55-17.64v-35.29zm23.55 51.84h-1.62l-6.32.01a5.49 5.49 0 0 1-10.51.01l-10.34.01a5.5 5.5 0 0 1-5.24 3.88 5.5 5.5 0 0 1-5.24-3.87l-8.04.01.03-11.52 3.12-9.54 36.01-16.38.29.65-3.24 1.47 1.64.26 5.01-2.33.85 1.82s-9.3 4.35-18.5 8.62c-5.05 2.34-10.12 4.88-15.27 7.07l5.57 5.56h16.42v-6.74h11.03l2.71 10.57v6.08h1.62v4.36zm-9.55-24.46c.7 0 1.27.7 1.27 1.56v1.22h-2.53v-1.22c0-.86.57-1.56 1.26-1.56m-.32-.57v-3.08h.45v3.08zm1.53.31 2.11-2.18.32.33-2.11 2.18zm.83 1.59h2.99v.47h-2.99zm-6.24-3 .27-.37 2.39 1.85-.27.37zm1.92 3v.47h-2.99v-.47zM30.56 280.47h102.05v1.1H30.56zm225.21 0h102.05v1.1H255.77zm17.43-102.94c-2.89-5.28-12.62-22.44-16.42-22.42-.59.01-1.08.33-1.38.91-1.25 2.46-2.26 2.99-2.75 3.09-.46.1-.74-.13-.79-.17a7 7 0 0 0-3.26-1.32c-1.75-4.18-15.27-35.45-27.82-33.74-3.65.51-6.79-4.94-9.84-10.2-3.04-5.24-5.9-10.19-9.71-10.61-3.99-.44-7.28 3.29-10.45 6.89-3 3.41-5.82 6.63-8.81 6-4.55-.96-21.17 23.88-27.04 32.91-1.08-1.37-2.21-3.07-3.23-4.6-2.78-4.17-5.41-8.11-7.89-8.31-4.35-.3-21.81 23.21-25.27 27.93-.24.33-.17.8.16 1.05.33.24.8.17 1.05-.16 9.87-13.49 21.45-27.33 23.89-27.33h.05c1.75.14 4.53 4.3 6.76 7.65 2.74 4.12 5.11 7.67 7.36 7.85.85.06 1.6-.61 2.66-1.54 1.61-1.42 3.81-3.37 6.56-2.68 3.22.81 12.65 18.03 17.84 28.69a.74.74 0 0 0 1 .34.75.75 0 0 0 .35-1c-1.4-2.89-13.87-28.24-18.82-29.49-3.52-.89-6.16 1.46-7.92 3.01-.55.48-1.29 1.15-1.54 1.17-.55-.04-1.24-.58-1.99-1.39 10.71-16.55 23.18-33.18 25.71-32.64 3.84.81 7.1-2.89 10.25-6.48 2.91-3.32 5.92-6.75 9.16-6.39 3.05.34 5.86 5.18 8.57 9.87 3.29 5.69 6.7 11.57 11.34 10.93 10.8-1.49 23.41 26.28 25.95 32.16-3.27.11-8.07 1.93-14.05 8.9-.27.31-.23.79.08 1.06s.79.23 1.06-.08c6.29-7.32 10.99-8.58 13.81-8.37q.12.05.26.05l.1-.02c1.68.21 2.6.92 2.68.99.08.08.84.74 2.02.53q2.07-.37 3.85-3.9l.06-.09c1.6-.29 8.49 9.63 15.08 21.65a.75.75 0 0 0 1.02.3c.37-.18.5-.64.3-1m-140.52 43.09v-35.34l-14.58 35.34h-1.32l-14.64-35.34v35.34h-3.42V180.6h5.09l13.6 33 13.54-33h5.15v40.02zm14.88-33.54q-.96 0-1.68-.69a2.3 2.3 0 0 1-.72-1.71q0-1.02.72-1.68a2.4 2.4 0 0 1 1.68-.66q1.02 0 1.71.66t.69 1.68-.69 1.71-1.71.69M146 220.62v-28.98h3.12v28.98zm32.39 0V201q0-2.1-.51-3.48a5.5 5.5 0 0 0-1.44-2.22 5.4 5.4 0 0 0-2.22-1.2 10.6 10.6 0 0 0-5.61.06q-1.38.42-2.64 1.08t-2.28 1.59a14 14 0 0 0-1.74 1.89v21.9h-3.12v-28.98h3.12v4.38q.78-.96 1.92-1.86a16 16 0 0 1 5.43-2.79 11 11 0 0 1 3.09-.45q4.44 0 6.78 2.25t2.34 7.17v20.28zm14.4-33.54q-.96 0-1.68-.69a2.3 2.3 0 0 1-.72-1.71q0-1.02.72-1.68a2.4 2.4 0 0 1 1.68-.66q1.02 0 1.71.66t.69 1.68-.69 1.71-1.71.69m-1.56 33.54v-28.98h3.12v28.98zm31.26 0v-3.42q-3.78 4.14-9.84 4.14-1.86 0-3.69-.63a10 10 0 0 1-3.27-1.86 9.2 9.2 0 0 1-3.18-7.17q0-2.34.87-4.14a9 9 0 0 1 2.31-3.03 10 10 0 0 1 3.24-1.83q1.8-.6 3.72-.6 6.12 0 9.84 4.14v-5.85q0-3.22-2.28-4.93a9 9 0 0 0-5.52-1.7q-2.7 0-4.89.99a12 12 0 0 0-4.17 3.27l-1.74-2.16a16 16 0 0 1 4.92-3.69 15 15 0 0 1 6.24-1.23q2.22 0 4.14.54t3.36 1.68a8 8 0 0 1 2.25 2.91q.81 1.77.81 4.17v20.4zm-8.76-1.74q2.64 0 4.92-.99a10 10 0 0 0 3.84-2.97v-6.36a10 10 0 0 0-3.84-3 12 12 0 0 0-4.92-1.02q-3.6 0-5.76 2.04a6.8 6.8 0 0 0-2.16 5.16q0 3.06 2.16 5.1t5.76 2.04m27.9 2.46q-2.88 0-4.29-1.65-1.41-1.64-1.41-4.64v-20.59h-4.8v-2.82h4.8v-7.92h3.18v7.92h5.88v2.82h-5.88v20.11q0 1.74.72 2.84.72 1.11 2.28 1.11 1.02 0 1.89-.42t1.35-.96l1.2 2.4q-.84.84-1.98 1.32t-2.94.48m29.76-.72v-4.26a17 17 0 0 1-4.53 3.48q-2.73 1.5-5.91 1.5-4.5 0-6.81-2.19c-2.31-2.19-2.31-3.83-2.31-7.11v-20.4h3.12v19.68q0 2.1.51 3.51t1.44 2.22 2.22 1.14a11.5 11.5 0 0 0 5.61-.06 13 13 0 0 0 4.89-2.58q1.05-.87 1.77-1.83v-22.08h3.12v28.98zm12.84 0v-28.98h3.12v4.98a17 17 0 0 1 4.29-4.02 10 10 0 0 1 5.49-1.56v3.42a3 3 0 0 0-.75-.12h-.81q-1.08 0-2.34.45a12 12 0 0 0-4.47 2.82 7 7 0 0 0-1.41 1.89v21.12zm-218.78 48-7.02-27.48-6.96 27.48h-9.06L30.95 228.6h9.54l7.02 28.92 7.62-28.92h6.66l7.56 28.92 6.96-28.92h9.6l-11.4 40.02zm42.06 0v-3.66q-1.5 1.68-4.05 3.03a13 13 0 0 1-6.15 1.35q-4.8 0-7.08-2.43t-2.28-6.69v-20.58h7.62v17.58q0 3 1.44 4.17a6 6 0 0 0 3.9 1.17q2.22 0 3.9-1.02a10 10 0 0 0 2.7-2.28v-19.62h7.62v28.98zm34.74 0V251.1q0-3.06-1.44-4.23a6 6 0 0 0-3.9-1.17q-2.28 0-3.96 1.05a9 9 0 0 0-2.64 2.37v19.5h-7.62v-28.98h7.62v3.78a13 13 0 0 1 3.96-3.09 13 13 0 0 1 6.18-1.41q4.8 0 7.11 2.49t2.31 6.75v20.46zm35.1 0v-3.72a12 12 0 0 1-4.02 3.3 11 11 0 0 1-4.92 1.14q-2.76 0-5.1-1.02a11.5 11.5 0 0 1-4.05-2.94 14 14 0 0 1-2.7-4.77q-.99-2.85-.99-6.45 0-3.54.96-6.36a14 14 0 0 1 2.67-4.8 11.5 11.5 0 0 1 4.08-3.03q2.37-1.05 5.13-1.05a11.2 11.2 0 0 1 8.94 4.44V228.6h7.68v40.02zm-6.6-6.06q1.92 0 3.78-.93a7 7 0 0 0 2.82-2.37V249a7 7 0 0 0-2.82-2.37 8.4 8.4 0 0 0-3.78-.93q-3.24 0-5.28 2.34t-2.04 6.12q0 1.86.54 3.42t1.5 2.67a5 5 0 0 0 2.31 1.71q1.34.6 2.97.6m35.45 6.78q-3.3 0-6.15-1.08t-4.92-3.06a11 11 0 0 1-3.24-4.8 16 16 0 0 1-1.17-6.3q0-3.12 1.11-5.91a15 15 0 0 1 3.09-4.83 15 15 0 0 1 4.74-3.24q2.76-1.2 6.06-1.2 3.24 0 5.91 1.17t4.59 3.27a15 15 0 0 1 2.97 5.04q1.05 2.94 1.05 6.48v1.68H198.7a7.7 7.7 0 0 0 2.49 4.74q2.13 1.98 5.85 1.98.9 0 1.98-.21t2.13-.57a11 11 0 0 0 3.63-2.1l3.36 4.92a14 14 0 0 1-5.34 3 22 22 0 0 1-6.6 1.02m6.66-17.94q-.06-1.02-.48-2.16a6.3 6.3 0 0 0-3.45-3.63 7.5 7.5 0 0 0-3.21-.63q-1.8 0-3.09.6t-2.13 1.53-1.32 2.07a8 8 0 0 0-.6 2.22zm12.9 17.22v-28.98h7.62v3.96a14 14 0 0 1 4.05-3.3 10.6 10.6 0 0 1 5.19-1.38v7.44a10.3 10.3 0 0 0-7.95 1.8q-.81.6-1.29 1.32v19.14zm21.6 0V228.6h7.62v40.02zm32.58 0v-3q-1.5 1.74-3.9 2.73t-5.28.99a11 11 0 0 1-6.78-2.37 9 9 0 0 1-2.37-2.97 9 9 0 0 1-.93-4.26q0-2.52.93-4.32a9 9 0 0 1 2.37-2.91 10 10 0 0 1 3.24-1.62q1.8-.51 3.54-.51 2.88 0 5.31.9a9 9 0 0 1 3.87 2.64v-3.9q0-2.22-1.74-3.54a7.5 7.5 0 0 0-4.62-1.32q-4.8 0-8.46 3.42l-2.88-5.1a18 18 0 0 1 5.97-3.45 20.7 20.7 0 0 1 11.43-.57q2.28.54 4.05 1.83a9 9 0 0 1 2.82 3.39q1.05 2.1 1.05 5.22v18.72zm-6.12-4.44q1.86 0 3.51-.63a6 6 0 0 0 2.61-1.89v-3.6a6 6 0 0 0-2.61-1.89 10 10 0 0 0-3.51-.63q-2.28 0-3.87 1.14a3.8 3.8 0 0 0-1.59 3.24q0 2.04 1.59 3.15a6.6 6.6 0 0 0 3.87 1.11m40.86 4.44V251.1q0-3.06-1.44-4.23a6 6 0 0 0-3.9-1.17q-2.28 0-3.96 1.05a9 9 0 0 0-2.64 2.37v19.5h-7.62v-28.98h7.62v3.78a13 13 0 0 1 3.96-3.09 13 13 0 0 1 6.18-1.41q4.8 0 7.11 2.49t2.31 6.75v20.46zm35.1 0v-3.72a12 12 0 0 1-4.02 3.3 11 11 0 0 1-4.92 1.14q-2.76 0-5.1-1.02a11.5 11.5 0 0 1-4.05-2.94 14 14 0 0 1-2.7-4.77q-.99-2.85-.99-6.45 0-3.54.96-6.36a14 14 0 0 1 2.67-4.8 11.5 11.5 0 0 1 4.08-3.03q2.37-1.05 5.13-1.05a11.2 11.2 0 0 1 8.94 4.44V228.6h7.68v40.02zm-6.6-6.06q1.92 0 3.78-.93a7 7 0 0 0 2.82-2.37V249a7 7 0 0 0-2.82-2.37 8.4 8.4 0 0 0-3.78-.93q-3.24 0-5.28 2.34t-2.04 6.12q0 1.86.54 3.42t1.5 2.67a5 5 0 0 0 2.31 1.71q1.35.6 2.97.6m-196.1 23.99v-5.2h-6.63v5.2h-1.41v-11.34h1.41v4.88h6.63v-4.88h1.41v11.34zm17.26 0-1-2.52h-5.64l-1 2.52h-1.62l4.56-11.34h1.75l4.57 11.34zm-3.83-9.88-2.41 6.1h4.81zm21.71 9.88v-9.33l-3.86 9.33h-.58l-3.84-9.33v9.33h-1.41v-11.34h2.02l3.52 8.53 3.54-8.53h2.02v11.34zm9.17 0v-11.34h5.05a4 4 0 0 1 1.33.21q.6.21 1 .59t.63.92a3 3 0 0 1 .22 1.16q0 .54-.16.99a2.5 2.5 0 0 1-1.83 1.61q.46.07.86.32c.4.25.5.38.7.63a3.1 3.1 0 0 1-.21 4.05q-.43.4-1.03.63t-1.39.22zm4.81-6.42q.97 0 1.46-.52.5-.52.49-1.3 0-.76-.49-1.3-.5-.54-1.46-.54h-3.4v3.66zm.06 5.16q1 0 1.56-.52.55-.52.55-1.44 0-.39-.14-.75a1.8 1.8 0 0 0-1.05-1.04 2 2 0 0 0-.92-.16h-3.47v3.91zm15.54 1.47q-1.16 0-2.02-.33a3.8 3.8 0 0 1-2.31-2.37 6 6 0 0 1-.29-1.9v-6.94h1.41v6.9q0 1.56.82 2.47t2.4.91q1.57 0 2.4-.91a3.6 3.6 0 0 0 .82-2.47v-6.9h1.41v6.92q0 1.05-.29 1.91a3.8 3.8 0 0 1-2.31 2.39q-.89.32-2.04.32m18.94-.21-2.89-4.5h-2.26v4.5h-1.41v-11.34h4.56q.78 0 1.43.24a3.2 3.2 0 0 1 1.86 1.77q.26.63.26 1.41 0 .76-.24 1.36t-.65 1a3.2 3.2 0 0 1-2.05.94l3.06 4.63h-1.67zm-2.18-5.76q1.02 0 1.64-.6t.62-1.57-.62-1.56a2.3 2.3 0 0 0-1.64-.59h-2.98v4.32zm16.43 5.98a6 6 0 0 1-4.12-1.63 5.7 5.7 0 0 1-1.71-4.26q0-1.32.46-2.41.46-1.08 1.25-1.84a6 6 0 0 1 1.85-1.19 6 6 0 0 1 4.85.17q1.07.6 1.83 1.53l-1.12.7a4.1 4.1 0 0 0-3.28-1.56 4.3 4.3 0 0 0-3.12 1.29q-.59.61-.92 1.45a5 5 0 0 0-.33 1.86q0 1 .33 1.85a4.4 4.4 0 0 0 2.31 2.42q.8.35 1.73.35a4 4 0 0 0 1.82-.4 4 4 0 0 0 1.23-.83v-2.31h-3.89v-1.26h5.3v4.1a6 6 0 0 1-1.93 1.42q-1.15.55-2.54.55m42.29-176.54h-15.75c-.62 0-1.12.5-1.12 1.12v4.92c0 .62.5 1.12 1.12 1.12h15.75c.62 0 1.12-.51 1.12-1.12v-4.92c0-.62-.5-1.12-1.12-1.12m18.4 19.01a4.52 4.52 0 0 0 0 9.03 4.5 4.5 0 0 0 4.52-4.51c0-2.5-2.03-4.52-4.52-4.52m-.04 6.94a2.13 2.13 0 1 1 0-4.26 2.13 2.13 0 0 1 0 4.26m-23.09-6.98a4.52 4.52 0 1 0 0 9.04 4.52 4.52 0 0 0 0-9.04m-.03 6.97a2.13 2.13 0 1 1 0-4.26 2.13 2.13 0 0 1 0 4.26"/><path fill="currentColor" d="m293.32 83.5-30.55 17.65v35.28l30.55 17.64 30.56-17.64v-35.28zm27.07 52-1.8-.01-6.61.01a6.5 6.5 0 0 1-6.25 4.73 6.5 6.5 0 0 1-6.25-4.72l-10.67.01a6.5 6.5 0 0 1-6.25 4.71 6.5 6.5 0 0 1-6.24-4.7l-8.51.01.03-12.8-.07-13.91h-.39c-.62 0-1.12-.5-1.12-1.12v-.75c0-.62.5-1.12 1.12-1.12h18.25c.62 0 1.12.5 1.12 1.12v.58h3.38c.62 0 1.12.5 1.12 1.12v8.71h6.58l1.33-4.33h3.17l1.33 4.33h4.42v-10h7.5v11l3.01 5.5v6.76h1.8zM234.62 30.56 204.06 48.2v35.28l30.56 17.65 30.55-17.65V48.2zm11.05 21.36 2.74-3.04c1.12-1.24 2.96-1.4 4.12-.35s1.19 2.9.08 4.13l-2.74 3.04c-1.12 1.24-2.96 1.4-4.12.35-1.17-1.03-1.2-2.88-.08-4.13m-14.17-7.11c0-1.67 1.26-3.02 2.83-3.02 1.56 0 2.82 1.35 2.82 3.02v4.08c0 1.67-1.26 3.02-2.82 3.02s-2.83-1.35-2.83-3.02zm-15.17 4.91c1.07-1.14 2.91-1.14 4.13 0l2.98 2.79c1.22 1.14 1.34 2.99.28 4.13-1.07 1.14-2.92 1.14-4.13 0l-2.98-2.79c-1.21-1.14-1.34-2.99-.28-4.13m-5.54 16.4c0-1.56 1.35-2.82 3.02-2.82h4.08c1.67 0 3.02 1.26 3.02 2.83 0 1.56-1.35 2.82-3.02 2.82h-4.09c-1.66-.01-3.01-1.27-3.01-2.83m13.71 13.46-2.74 3.04c-1.11 1.24-2.96 1.4-4.11.35s-1.2-2.89-.08-4.13l2.74-3.04c1.12-1.24 2.96-1.4 4.12-.35 1.15 1.04 1.19 2.89.07 4.13m12.35 6.43c0 1.67-1.26 3.02-2.83 3.02-1.56 0-2.82-1.35-2.82-3.02v-4.09c0-1.67 1.27-3.02 2.82-3.02 1.56 0 2.83 1.35 2.83 3.02zm-1.65-8.88a11.7 11.7 0 1 1 0-23.42 11.7 11.7 0 0 1 0 23.42m16.99 5.93c-1.07 1.14-2.92 1.14-4.14.01l-2.99-2.79c-1.22-1.14-1.34-2.99-.28-4.13 1.07-1.14 2.92-1.15 4.14-.01l2.99 2.78c1.22 1.15 1.34 3 .28 4.14m4.02-14.36h-4.08c-1.67 0-3.02-1.27-3.02-2.83s1.35-2.83 3.02-2.83h4.08c1.67 0 3.02 1.26 3.02 2.83 0 1.56-1.35 2.83-3.02 2.83"/><path fill="currentColor" d="M226.67 65.14a8.25 8.25 0 0 0 8.25 8.26s-3.22-4.2-3.16-8.25c.07-4.24 3.16-8.25 3.16-8.25a8.23 8.23 0 0 0-8.25 8.24"/></svg>