<svg xmlns="http://www.w3.org/2000/svg" viewBox="0 0 614.5 68"><path fill="currentColor" d="M20.2.1C5 .1 0 12 0 18c0 16.8 14.8 18.7 17.5 19.5 10.8 3.2 17.5 3 17.5 11.8 0 5.4-4.5 9.6-9.7 9.6-8.8 0-14.5-6-15.6-14.6H.6v22.1h9.3v-4A25 25 0 0 0 26.3 68c11.8 0 20.4-8.1 20.4-20.2 0-14-8.5-17.3-17.3-19.9S11.7 24 11.7 17.8c0-5.6 3.8-8.8 9.1-8.8q5.4.2 8.8 3.5 3.3 3.2 4.4 8.4h9V1.5h-9.5v4A19 19 0 0 0 20.2.2m64.6 0A32 32 0 0 0 52 33.6 33.3 33.3 0 0 0 85 68c14.1 0 25.4-7.6 29.2-23.2h-10.7C99.9 52 94.7 57.1 85 57.1c-13.8 0-21.4-10.7-21.4-23.1S71.4 10.8 85 10.8c3.7 0 7.5 1.3 10.5 3.3s5.5 4.7 6.4 8.4h9.4v-21h-9.4v4.2C96.7.8 87 .1 85 .1m36 1.4v9h7v47.2h-7v8.7h25.7v-8.7h-7V37h23.1v20.6H156v8.7h25.5v-8.7h-7V10.4h7v-9H156v9h6.8v16.4h-23.1V10.4h7v-9zm82.3 0v9h7.2L194 57.6h-5.4v8.7H212v-8.7h-7l4.5-12.7h19.7l4.4 12.7h-7.2v8.7h24v-8.7h-4.9l-15.8-47.3h7v-9zm56.8 0v9h7v47.2h-7v8.7h50V47h-10.3v10.7h-21V37h18V26.7h-18V10.5h21v8.4h10.3V1.5zm62 0v9h7v47.2h-7v8.7h26.3v-8.7h-7.6V37h19.5V26.7h-19.5V10.5h21.8v8.4h10.3V1.5zm58.6 0v9h7v47.2h-7v8.7H407v-8.7h-7.6V37h19.4V26.7h-19.4V10.5H421v8.4h10.3V1.5zm60.9 0v9h7.4v47.2h-7.4v8.7h44.7V47.2H476v10.5h-15.3V10.4h8v-9zm51.4 0v9h6.8v47.2H493v8.7h50V47h-10.4v10.7h-21.2V37h18.1V26.7h-18V10.5h21.1v8.4H543V1.5zm60.3 0v9h7v47.2h-7v8.7h25.8v-8.7h-7.2V37h7c4.8 0 11.3.5 11.3 6.6v22.7h18.1v-8.7h-6.4V42.9c0-4-.6-8.5-8-10.3v-.2c6.8-2.9 10.1-7 10.1-14.6 0-1 .3-5.2-2.7-9-6.1-8-15.6-7.3-20-7.3zm18.6 9h6.3c6 0 14.4-.1 14.4 7.9 0 8.7-6.6 9.7-13 9.7h-7.7zm-352.3 3.8h.2l7.2 21.8h-15z"/></svg>